%TF.GenerationSoftware,KiCad,Pcbnew,8.0.8*%
%TF.CreationDate,2025-04-04T12:34:17+02:00*%
%TF.ProjectId,reader_production,72656164-6572-45f7-9072-6f6475637469,rev?*%
%TF.SameCoordinates,Original*%
%TF.FileFunction,Copper,L1,Top*%
%TF.FilePolarity,Positive*%
%FSLAX46Y46*%
G04 Gerber Fmt 4.6, Leading zero omitted, Abs format (unit mm)*
G04 Created by KiCad (PCBNEW 8.0.8) date 2025-04-04 12:34:17*
%MOMM*%
%LPD*%
G01*
G04 APERTURE LIST*
G04 Aperture macros list*
%AMRoundRect*
0 Rectangle with rounded corners*
0 $1 Rounding radius*
0 $2 $3 $4 $5 $6 $7 $8 $9 X,Y pos of 4 corners*
0 Add a 4 corners polygon primitive as box body*
4,1,4,$2,$3,$4,$5,$6,$7,$8,$9,$2,$3,0*
0 Add four circle primitives for the rounded corners*
1,1,$1+$1,$2,$3*
1,1,$1+$1,$4,$5*
1,1,$1+$1,$6,$7*
1,1,$1+$1,$8,$9*
0 Add four rect primitives between the rounded corners*
20,1,$1+$1,$2,$3,$4,$5,0*
20,1,$1+$1,$4,$5,$6,$7,0*
20,1,$1+$1,$6,$7,$8,$9,0*
20,1,$1+$1,$8,$9,$2,$3,0*%
%AMFreePoly0*
4,1,11,0.760000,0.825000,0.380000,0.510000,0.380000,-0.510000,0.760000,-0.825000,0.760000,-1.525000,-0.125000,-1.525000,-0.380000,-1.270000,-0.380000,1.270000,-0.125000,1.525000,0.760000,1.525000,0.760000,0.825000,0.760000,0.825000,$1*%
G04 Aperture macros list end*
%TA.AperFunction,SMDPad,CuDef*%
%ADD10RoundRect,0.140000X-0.140000X-0.170000X0.140000X-0.170000X0.140000X0.170000X-0.140000X0.170000X0*%
%TD*%
%TA.AperFunction,SMDPad,CuDef*%
%ADD11RoundRect,0.250000X-0.500000X-0.500000X0.500000X-0.500000X0.500000X0.500000X-0.500000X0.500000X0*%
%TD*%
%TA.AperFunction,SMDPad,CuDef*%
%ADD12RoundRect,0.225000X-0.225000X-0.225000X0.225000X-0.225000X0.225000X0.225000X-0.225000X0.225000X0*%
%TD*%
%TA.AperFunction,SMDPad,CuDef*%
%ADD13RoundRect,0.225000X-0.225000X-0.250000X0.225000X-0.250000X0.225000X0.250000X-0.225000X0.250000X0*%
%TD*%
%TA.AperFunction,SMDPad,CuDef*%
%ADD14RoundRect,0.135000X0.185000X-0.135000X0.185000X0.135000X-0.185000X0.135000X-0.185000X-0.135000X0*%
%TD*%
%TA.AperFunction,SMDPad,CuDef*%
%ADD15RoundRect,0.250000X-0.450000X0.262500X-0.450000X-0.262500X0.450000X-0.262500X0.450000X0.262500X0*%
%TD*%
%TA.AperFunction,SMDPad,CuDef*%
%ADD16RoundRect,0.140000X0.170000X-0.140000X0.170000X0.140000X-0.170000X0.140000X-0.170000X-0.140000X0*%
%TD*%
%TA.AperFunction,SMDPad,CuDef*%
%ADD17RoundRect,0.112500X-0.187500X-0.112500X0.187500X-0.112500X0.187500X0.112500X-0.187500X0.112500X0*%
%TD*%
%TA.AperFunction,SMDPad,CuDef*%
%ADD18RoundRect,0.150000X0.425000X-0.150000X0.425000X0.150000X-0.425000X0.150000X-0.425000X-0.150000X0*%
%TD*%
%TA.AperFunction,SMDPad,CuDef*%
%ADD19RoundRect,0.075000X0.500000X-0.075000X0.500000X0.075000X-0.500000X0.075000X-0.500000X-0.075000X0*%
%TD*%
%TA.AperFunction,SMDPad,CuDef*%
%ADD20RoundRect,0.250000X0.750000X-0.840000X0.750000X0.840000X-0.750000X0.840000X-0.750000X-0.840000X0*%
%TD*%
%TA.AperFunction,SMDPad,CuDef*%
%ADD21RoundRect,0.250000X0.475000X-0.250000X0.475000X0.250000X-0.475000X0.250000X-0.475000X-0.250000X0*%
%TD*%
%TA.AperFunction,SMDPad,CuDef*%
%ADD22RoundRect,0.250000X-0.350000X-0.625000X0.350000X-0.625000X0.350000X0.625000X-0.350000X0.625000X0*%
%TD*%
%TA.AperFunction,SMDPad,CuDef*%
%ADD23RoundRect,0.250000X-0.550000X-0.625000X0.550000X-0.625000X0.550000X0.625000X-0.550000X0.625000X0*%
%TD*%
%TA.AperFunction,SMDPad,CuDef*%
%ADD24RoundRect,0.253000X-0.347000X-0.622000X0.347000X-0.622000X0.347000X0.622000X-0.347000X0.622000X0*%
%TD*%
%TA.AperFunction,SMDPad,CuDef*%
%ADD25RoundRect,0.250000X0.450000X-0.262500X0.450000X0.262500X-0.450000X0.262500X-0.450000X-0.262500X0*%
%TD*%
%TA.AperFunction,SMDPad,CuDef*%
%ADD26RoundRect,0.150000X0.825000X0.150000X-0.825000X0.150000X-0.825000X-0.150000X0.825000X-0.150000X0*%
%TD*%
%TA.AperFunction,SMDPad,CuDef*%
%ADD27RoundRect,0.225000X0.225000X0.250000X-0.225000X0.250000X-0.225000X-0.250000X0.225000X-0.250000X0*%
%TD*%
%TA.AperFunction,SMDPad,CuDef*%
%ADD28R,0.800000X1.000000*%
%TD*%
%TA.AperFunction,SMDPad,CuDef*%
%ADD29R,1.500000X0.700000*%
%TD*%
%TA.AperFunction,SMDPad,CuDef*%
%ADD30FreePoly0,90.000000*%
%TD*%
%TA.AperFunction,SMDPad,CuDef*%
%ADD31FreePoly0,270.000000*%
%TD*%
%TA.AperFunction,SMDPad,CuDef*%
%ADD32RoundRect,0.135000X-0.185000X0.135000X-0.185000X-0.135000X0.185000X-0.135000X0.185000X0.135000X0*%
%TD*%
%TA.AperFunction,SMDPad,CuDef*%
%ADD33R,2.400000X0.740000*%
%TD*%
%TA.AperFunction,SMDPad,CuDef*%
%ADD34RoundRect,0.140000X-0.170000X0.140000X-0.170000X-0.140000X0.170000X-0.140000X0.170000X0.140000X0*%
%TD*%
%TA.AperFunction,SMDPad,CuDef*%
%ADD35RoundRect,0.135000X0.135000X0.185000X-0.135000X0.185000X-0.135000X-0.185000X0.135000X-0.185000X0*%
%TD*%
%TA.AperFunction,ComponentPad*%
%ADD36R,1.350000X1.350000*%
%TD*%
%TA.AperFunction,SMDPad,CuDef*%
%ADD37RoundRect,0.250000X-0.262500X-0.450000X0.262500X-0.450000X0.262500X0.450000X-0.262500X0.450000X0*%
%TD*%
%TA.AperFunction,SMDPad,CuDef*%
%ADD38RoundRect,0.225000X-0.250000X0.225000X-0.250000X-0.225000X0.250000X-0.225000X0.250000X0.225000X0*%
%TD*%
%TA.AperFunction,SMDPad,CuDef*%
%ADD39RoundRect,0.140000X0.140000X0.170000X-0.140000X0.170000X-0.140000X-0.170000X0.140000X-0.170000X0*%
%TD*%
%TA.AperFunction,SMDPad,CuDef*%
%ADD40R,1.200000X1.400000*%
%TD*%
%TA.AperFunction,SMDPad,CuDef*%
%ADD41RoundRect,0.250000X-1.000000X-0.650000X1.000000X-0.650000X1.000000X0.650000X-1.000000X0.650000X0*%
%TD*%
%TA.AperFunction,ComponentPad*%
%ADD42R,1.700000X1.700000*%
%TD*%
%TA.AperFunction,ComponentPad*%
%ADD43O,1.700000X1.700000*%
%TD*%
%TA.AperFunction,SMDPad,CuDef*%
%ADD44RoundRect,0.112500X0.112500X-0.187500X0.112500X0.187500X-0.112500X0.187500X-0.112500X-0.187500X0*%
%TD*%
%TA.AperFunction,SMDPad,CuDef*%
%ADD45RoundRect,0.218750X-0.256250X0.218750X-0.256250X-0.218750X0.256250X-0.218750X0.256250X0.218750X0*%
%TD*%
%TA.AperFunction,SMDPad,CuDef*%
%ADD46RoundRect,0.150000X0.150000X-0.825000X0.150000X0.825000X-0.150000X0.825000X-0.150000X-0.825000X0*%
%TD*%
%TA.AperFunction,SMDPad,CuDef*%
%ADD47RoundRect,0.150000X-0.512500X-0.150000X0.512500X-0.150000X0.512500X0.150000X-0.512500X0.150000X0*%
%TD*%
%TA.AperFunction,SMDPad,CuDef*%
%ADD48RoundRect,0.075000X-0.662500X-0.075000X0.662500X-0.075000X0.662500X0.075000X-0.662500X0.075000X0*%
%TD*%
%TA.AperFunction,SMDPad,CuDef*%
%ADD49RoundRect,0.075000X-0.075000X-0.662500X0.075000X-0.662500X0.075000X0.662500X-0.075000X0.662500X0*%
%TD*%
%TA.AperFunction,ComponentPad*%
%ADD50RoundRect,0.250000X-0.510000X-0.510000X0.510000X-0.510000X0.510000X0.510000X-0.510000X0.510000X0*%
%TD*%
%TA.AperFunction,ComponentPad*%
%ADD51C,1.520000*%
%TD*%
%TA.AperFunction,ViaPad*%
%ADD52C,0.600000*%
%TD*%
%TA.AperFunction,Conductor*%
%ADD53C,0.200000*%
%TD*%
G04 APERTURE END LIST*
D10*
%TO.P,C19,1*%
%TO.N,+3.3V*%
X157040000Y-67000000D03*
%TO.P,C19,2*%
%TO.N,GND*%
X158000000Y-67000000D03*
%TD*%
D11*
%TO.P,D8,1,A1*%
%TO.N,Net-(D8-A1)*%
X176750000Y-29500000D03*
%TO.P,D8,2,K*%
%TO.N,GND*%
X180250000Y-29500000D03*
D12*
%TO.P,D8,3,A2*%
%TO.N,Net-(D8-A2)*%
X178500000Y-30150000D03*
%TD*%
D13*
%TO.P,C12,1*%
%TO.N,V+*%
X156225000Y-64000000D03*
%TO.P,C12,2*%
%TO.N,GND*%
X157775000Y-64000000D03*
%TD*%
D14*
%TO.P,R7,1*%
%TO.N,LED_G2*%
X178500000Y-32510000D03*
%TO.P,R7,2*%
%TO.N,Net-(D8-A2)*%
X178500000Y-31490000D03*
%TD*%
D15*
%TO.P,R8,1*%
%TO.N,+3.3V*%
X149000000Y-60087500D03*
%TO.P,R8,2*%
%TO.N,Net-(U3-Vfb)*%
X149000000Y-61912500D03*
%TD*%
D16*
%TO.P,C7,1*%
%TO.N,+3.3V*%
X146000000Y-44850000D03*
%TO.P,C7,2*%
%TO.N,GND*%
X146000000Y-43890000D03*
%TD*%
D17*
%TO.P,D5,1,K*%
%TO.N,V+*%
X164950000Y-66000000D03*
%TO.P,D5,2,A*%
%TO.N,Net-(D5-A)*%
X167050000Y-66000000D03*
%TD*%
D18*
%TO.P,J4,A1,GND*%
%TO.N,GND*%
X174820000Y-51700000D03*
%TO.P,J4,A4,VBUS*%
%TO.N,Net-(D4-A)*%
X174820000Y-50900000D03*
D19*
%TO.P,J4,A5,CC1*%
%TO.N,Net-(J4-CC1)*%
X174820000Y-49750000D03*
%TO.P,J4,A6,D+*%
%TO.N,USB_D+*%
X174820000Y-48750000D03*
%TO.P,J4,A7,D-*%
%TO.N,USB_D-*%
X174820000Y-48250000D03*
%TO.P,J4,A8*%
%TO.N,N/C*%
X174820000Y-47250000D03*
D18*
%TO.P,J4,A9,VBUS*%
%TO.N,Net-(D4-A)*%
X174820000Y-46100000D03*
%TO.P,J4,A12,GND*%
%TO.N,GND*%
X174820000Y-45300000D03*
%TO.P,J4,B1,GND*%
X174820000Y-45300000D03*
%TO.P,J4,B4,VBUS*%
%TO.N,Net-(D4-A)*%
X174820000Y-46100000D03*
D19*
%TO.P,J4,B5,CC2*%
%TO.N,Net-(J4-CC2)*%
X174820000Y-46750000D03*
%TO.P,J4,B6,D+*%
%TO.N,USB_D+*%
X174820000Y-47750000D03*
%TO.P,J4,B7,D-*%
%TO.N,USB_D-*%
X174820000Y-49250000D03*
%TO.P,J4,B8*%
%TO.N,N/C*%
X174820000Y-50250000D03*
D18*
%TO.P,J4,B9,VBUS*%
%TO.N,Net-(D4-A)*%
X174820000Y-50900000D03*
%TO.P,J4,B12,GND*%
%TO.N,GND*%
X174820000Y-51700000D03*
D20*
%TO.P,J4,S1,SHIELD*%
X175395000Y-53610000D03*
X179325000Y-53610000D03*
X175395000Y-43390000D03*
X179325000Y-43390000D03*
%TD*%
D21*
%TO.P,C9,1*%
%TO.N,Net-(C8-Pad1)*%
X160500000Y-31380000D03*
%TO.P,C9,2*%
%TO.N,Net-(J1-Pin_1)*%
X160500000Y-29480000D03*
%TD*%
D22*
%TO.P,R2,1,1*%
%TO.N,Net-(R1-Pad2)*%
X176850000Y-34975000D03*
D23*
%TO.P,R2,2,2*%
%TO.N,Net-(U1-+)*%
X178000000Y-39025000D03*
D24*
%TO.P,R2,3,3*%
%TO.N,GND*%
X179150000Y-34975000D03*
%TD*%
D17*
%TO.P,D4,1,K*%
%TO.N,V+*%
X170450000Y-52000000D03*
%TO.P,D4,2,A*%
%TO.N,Net-(D4-A)*%
X172550000Y-52000000D03*
%TD*%
D25*
%TO.P,R9,1*%
%TO.N,Net-(U3-Vfb)*%
X149000000Y-65912500D03*
%TO.P,R9,2*%
%TO.N,GND*%
X149000000Y-64087500D03*
%TD*%
D26*
%TO.P,U1,1,GAIN*%
%TO.N,unconnected-(U1-GAIN-Pad1)*%
X171475000Y-41405000D03*
%TO.P,U1,2,-*%
%TO.N,GND*%
X171475000Y-40135000D03*
%TO.P,U1,3,+*%
%TO.N,Net-(U1-+)*%
X171475000Y-38865000D03*
%TO.P,U1,4,GND*%
%TO.N,GND*%
X171475000Y-37595000D03*
%TO.P,U1,5*%
%TO.N,Net-(C8-Pad1)*%
X166525000Y-37595000D03*
%TO.P,U1,6,V+*%
%TO.N,V+*%
X166525000Y-38865000D03*
%TO.P,U1,7,BYPASS*%
%TO.N,unconnected-(U1-BYPASS-Pad7)*%
X166525000Y-40135000D03*
%TO.P,U1,8,GAIN*%
%TO.N,unconnected-(U1-GAIN-Pad8)*%
X166525000Y-41405000D03*
%TD*%
D27*
%TO.P,C23,1*%
%TO.N,Net-(J5-Pin_1)*%
X152550000Y-77000000D03*
%TO.P,C23,2*%
%TO.N,GND*%
X151000000Y-77000000D03*
%TD*%
D28*
%TO.P,Boot,*%
%TO.N,*%
X136110000Y-56350000D03*
X133900000Y-56350000D03*
X136110000Y-63650000D03*
X133900000Y-63650000D03*
D29*
%TO.P,Boot,1,A*%
%TO.N,Net-(SW2-A)*%
X136760000Y-57750000D03*
%TO.P,Boot,2,B*%
%TO.N,BOOT*%
X136760000Y-60750000D03*
%TO.P,Boot,3,C*%
%TO.N,+3.3V*%
X136760000Y-62250000D03*
%TD*%
D10*
%TO.P,C20,1*%
%TO.N,Net-(U4-C2+)*%
X160040000Y-77000000D03*
%TO.P,C20,2*%
%TO.N,Net-(U4-C2-)*%
X161000000Y-77000000D03*
%TD*%
D30*
%TO.P,L1,1,1*%
%TO.N,Net-(D2-K)*%
X157000000Y-58270000D03*
D31*
%TO.P,L1,2,2*%
%TO.N,+3.3V*%
X157000000Y-55730000D03*
%TD*%
D32*
%TO.P,R11,1*%
%TO.N,+3.3V*%
X166000000Y-45490000D03*
%TO.P,R11,2*%
%TO.N,USB_D+*%
X166000000Y-46510000D03*
%TD*%
D14*
%TO.P,R12,1*%
%TO.N,GND*%
X171000000Y-50510000D03*
%TO.P,R12,2*%
%TO.N,Net-(J4-CC1)*%
X171000000Y-49490000D03*
%TD*%
D33*
%TO.P,SWD,1,Pin_1*%
%TO.N,+3.3V*%
X179900000Y-62270000D03*
%TO.P,SWD,2,Pin_2*%
%TO.N,SWDIO*%
X176000000Y-62270000D03*
%TO.P,SWD,3,Pin_3*%
%TO.N,GND*%
X179900000Y-61000000D03*
%TO.P,SWD,4,Pin_4*%
%TO.N,SWCLK*%
X176000000Y-61000000D03*
%TO.P,SWD,5,Pin_5*%
%TO.N,GND*%
X179900000Y-59730000D03*
%TO.P,SWD,6,Pin_6*%
%TO.N,TRACESWO*%
X176000000Y-59730000D03*
%TO.P,SWD,7,Pin_7*%
%TO.N,unconnected-(J3-Pin_7-Pad7)*%
X179900000Y-58460000D03*
%TO.P,SWD,8,Pin_8*%
%TO.N,unconnected-(J3-Pin_8-Pad8)*%
X176000000Y-58460000D03*
%TO.P,SWD,9,Pin_9*%
%TO.N,GND*%
X179900000Y-57190000D03*
%TO.P,SWD,10,Pin_10*%
%TO.N,RST*%
X176000000Y-57190000D03*
%TD*%
D34*
%TO.P,C13,1*%
%TO.N,+3.3V*%
X144000000Y-51890000D03*
%TO.P,C13,2*%
%TO.N,GND*%
X144000000Y-52850000D03*
%TD*%
D35*
%TO.P,R10,1*%
%TO.N,GND*%
X140510000Y-58000000D03*
%TO.P,R10,2*%
%TO.N,Net-(SW2-A)*%
X139490000Y-58000000D03*
%TD*%
D36*
%TO.P,J2,1,Pin_1*%
%TO.N,GND*%
X167500000Y-30000000D03*
%TD*%
D16*
%TO.P,C10,1*%
%TO.N,+3.3VA*%
X146000000Y-49850000D03*
%TO.P,C10,2*%
%TO.N,GND*%
X146000000Y-48890000D03*
%TD*%
D14*
%TO.P,R5,1*%
%TO.N,LED_G1*%
X172500000Y-32500000D03*
%TO.P,R5,2*%
%TO.N,Net-(D7-A2)*%
X172500000Y-31480000D03*
%TD*%
D34*
%TO.P,C16,1*%
%TO.N,NRST*%
X139500000Y-70020000D03*
%TO.P,C16,2*%
%TO.N,GND*%
X139500000Y-70980000D03*
%TD*%
D37*
%TO.P,R1,1*%
%TO.N,AUDIO_OUT*%
X171587500Y-35000000D03*
%TO.P,R1,2*%
%TO.N,Net-(R1-Pad2)*%
X173412500Y-35000000D03*
%TD*%
D16*
%TO.P,C4,1*%
%TO.N,/HSE_OUT*%
X144000000Y-48370000D03*
%TO.P,C4,2*%
%TO.N,GND*%
X144000000Y-47410000D03*
%TD*%
D13*
%TO.P,C2,1*%
%TO.N,+3.3V*%
X148450000Y-39890000D03*
%TO.P,C2,2*%
%TO.N,GND*%
X150000000Y-39890000D03*
%TD*%
D38*
%TO.P,C15,1*%
%TO.N,+3.3V*%
X163510000Y-55950000D03*
%TO.P,C15,2*%
%TO.N,GND*%
X163510000Y-57500000D03*
%TD*%
D17*
%TO.P,D6,1,K*%
%TO.N,BOOT*%
X140000000Y-61000000D03*
%TO.P,D6,2,A*%
%TO.N,Net-(D6-A)*%
X142100000Y-61000000D03*
%TD*%
D10*
%TO.P,C6,1*%
%TO.N,+3.3V*%
X148520000Y-41890000D03*
%TO.P,C6,2*%
%TO.N,GND*%
X149480000Y-41890000D03*
%TD*%
D16*
%TO.P,C1,1*%
%TO.N,/HSE_IN*%
X144000000Y-46370000D03*
%TO.P,C1,2*%
%TO.N,GND*%
X144000000Y-45410000D03*
%TD*%
D14*
%TO.P,R6,1*%
%TO.N,LED_R2*%
X176500000Y-32520000D03*
%TO.P,R6,2*%
%TO.N,Net-(D8-A1)*%
X176500000Y-31500000D03*
%TD*%
D36*
%TO.P,J1,1,Pin_1*%
%TO.N,Net-(J1-Pin_1)*%
X163500000Y-30000000D03*
%TD*%
D39*
%TO.P,C3,1*%
%TO.N,+3.3V*%
X155480000Y-53890000D03*
%TO.P,C3,2*%
%TO.N,GND*%
X154520000Y-53890000D03*
%TD*%
D40*
%TO.P,Y1,1,1*%
%TO.N,/HSE_IN*%
X140150000Y-45790000D03*
%TO.P,Y1,2,2*%
%TO.N,GND*%
X140150000Y-47990000D03*
%TO.P,Y1,3,3*%
%TO.N,/HSE_OUT*%
X141850000Y-47990000D03*
%TO.P,Y1,4,4*%
%TO.N,GND*%
X141850000Y-45790000D03*
%TD*%
D10*
%TO.P,C18,1*%
%TO.N,Net-(U4-C1+)*%
X157040000Y-80000000D03*
%TO.P,C18,2*%
%TO.N,Net-(U4-C1-)*%
X158000000Y-80000000D03*
%TD*%
D32*
%TO.P,R13,1*%
%TO.N,GND*%
X171500000Y-45480000D03*
%TO.P,R13,2*%
%TO.N,Net-(J4-CC2)*%
X171500000Y-46500000D03*
%TD*%
D34*
%TO.P,C5,1*%
%TO.N,+3.3V*%
X158000000Y-44410000D03*
%TO.P,C5,2*%
%TO.N,GND*%
X158000000Y-45370000D03*
%TD*%
D17*
%TO.P,D3,1,K*%
%TO.N,Net-(D3-K)*%
X151950000Y-57500000D03*
%TO.P,D3,2,A*%
%TO.N,+3.3V*%
X154050000Y-57500000D03*
%TD*%
D34*
%TO.P,C11,1*%
%TO.N,+3.3VA*%
X144000000Y-49930000D03*
%TO.P,C11,2*%
%TO.N,GND*%
X144000000Y-50890000D03*
%TD*%
D41*
%TO.P,D2,1,K*%
%TO.N,Net-(D2-K)*%
X157000000Y-61000000D03*
%TO.P,D2,2,A*%
%TO.N,GND*%
X161000000Y-61000000D03*
%TD*%
D28*
%TO.P,Reset,*%
%TO.N,*%
X136110000Y-66850000D03*
X133900000Y-66850000D03*
X136110000Y-74150000D03*
X133900000Y-74150000D03*
D29*
%TO.P,Reset,1,A*%
%TO.N,RST*%
X136760000Y-68250000D03*
%TO.P,Reset,2,B*%
%TO.N,NRST*%
X136760000Y-71250000D03*
%TO.P,Reset,3,C*%
%TO.N,GND*%
X136760000Y-72750000D03*
%TD*%
D38*
%TO.P,C17,1*%
%TO.N,+3.3V*%
X161000000Y-55950000D03*
%TO.P,C17,2*%
%TO.N,GND*%
X161000000Y-57500000D03*
%TD*%
D10*
%TO.P,C14,1*%
%TO.N,Net-(D3-K)*%
X152520000Y-60000000D03*
%TO.P,C14,2*%
%TO.N,Net-(D2-K)*%
X153480000Y-60000000D03*
%TD*%
D42*
%TO.P,RC522,1,Pin_1*%
%TO.N,Net-(J5-Pin_1)*%
X154160000Y-82000000D03*
D43*
%TO.P,RC522,2,Pin_2*%
%TO.N,RFID_RST*%
X151620000Y-82000000D03*
%TO.P,RC522,3,Pin_3*%
%TO.N,GND*%
X149080000Y-82000000D03*
%TO.P,RC522,4,Pin_4*%
%TO.N,unconnected-(J5-Pin_4-Pad4)*%
X146540000Y-82000000D03*
%TO.P,RC522,5,Pin_5*%
%TO.N,SP1_MISO*%
X144000000Y-82000000D03*
%TO.P,RC522,6,Pin_6*%
%TO.N,SP1_MOSI*%
X141460000Y-82000000D03*
%TO.P,RC522,7,Pin_7*%
%TO.N,SP1_SCK*%
X138920000Y-82000000D03*
%TO.P,RC522,8,Pin_8*%
%TO.N,RFID_SDA*%
X136380000Y-82000000D03*
%TD*%
D44*
%TO.P,D1,1,K*%
%TO.N,V+*%
X146000000Y-59050000D03*
%TO.P,D1,2,A*%
%TO.N,+3.3V*%
X146000000Y-56950000D03*
%TD*%
D10*
%TO.P,C22,1*%
%TO.N,Net-(U4-VS-)*%
X163040000Y-77000000D03*
%TO.P,C22,2*%
%TO.N,GND*%
X164000000Y-77000000D03*
%TD*%
D45*
%TO.P,FB1,1*%
%TO.N,+3.3VA*%
X142000000Y-50315000D03*
%TO.P,FB1,2*%
%TO.N,+3.3V*%
X142000000Y-51890000D03*
%TD*%
D35*
%TO.P,R3,1*%
%TO.N,Net-(C8-Pad2)*%
X159010000Y-33430000D03*
%TO.P,R3,2*%
%TO.N,GND*%
X157990000Y-33430000D03*
%TD*%
D46*
%TO.P,U4,1,C1+*%
%TO.N,Net-(U4-C1+)*%
X156555000Y-74475000D03*
%TO.P,U4,2,VS+*%
%TO.N,Net-(U4-VS+)*%
X157825000Y-74475000D03*
%TO.P,U4,3,C1-*%
%TO.N,Net-(U4-C1-)*%
X159095000Y-74475000D03*
%TO.P,U4,4,C2+*%
%TO.N,Net-(U4-C2+)*%
X160365000Y-74475000D03*
%TO.P,U4,5,C2-*%
%TO.N,Net-(U4-C2-)*%
X161635000Y-74475000D03*
%TO.P,U4,6,VS-*%
%TO.N,Net-(U4-VS-)*%
X162905000Y-74475000D03*
%TO.P,U4,7,T2OUT*%
%TO.N,unconnected-(U4-T2OUT-Pad7)*%
X164175000Y-74475000D03*
%TO.P,U4,8,R2IN*%
%TO.N,unconnected-(U4-R2IN-Pad8)*%
X165445000Y-74475000D03*
%TO.P,U4,9,R2OUT*%
%TO.N,unconnected-(U4-R2OUT-Pad9)*%
X165445000Y-69525000D03*
%TO.P,U4,10,T2IN*%
%TO.N,unconnected-(U4-T2IN-Pad10)*%
X164175000Y-69525000D03*
%TO.P,U4,11,T1IN*%
%TO.N,USART3_TX*%
X162905000Y-69525000D03*
%TO.P,U4,12,R1OUT*%
%TO.N,USART3_RX*%
X161635000Y-69525000D03*
%TO.P,U4,13,R1IN*%
%TO.N,Net-(U4-R1IN)*%
X160365000Y-69525000D03*
%TO.P,U4,14,T1OUT*%
%TO.N,Net-(U4-T1OUT)*%
X159095000Y-69525000D03*
%TO.P,U4,15,GND*%
%TO.N,GND*%
X157825000Y-69525000D03*
%TO.P,U4,16,VCC*%
%TO.N,+3.3V*%
X156555000Y-69525000D03*
%TD*%
D47*
%TO.P,U3,1,BOOST*%
%TO.N,Net-(D3-K)*%
X151862500Y-62050000D03*
%TO.P,U3,2,GND*%
%TO.N,GND*%
X151862500Y-63000000D03*
%TO.P,U3,3,Vfb*%
%TO.N,Net-(U3-Vfb)*%
X151862500Y-63950000D03*
%TO.P,U3,4,EN*%
%TO.N,V+*%
X154137500Y-63950000D03*
%TO.P,U3,5,V_{IN}*%
X154137500Y-63000000D03*
%TO.P,U3,6,SW*%
%TO.N,Net-(D2-K)*%
X154137500Y-62050000D03*
%TD*%
D48*
%TO.P,U2,1,VBAT*%
%TO.N,+3.3V*%
X147837500Y-45140000D03*
%TO.P,U2,2,PC13*%
%TO.N,unconnected-(U2-PC13-Pad2)*%
X147837500Y-45640000D03*
%TO.P,U2,3,PC14*%
%TO.N,unconnected-(U2-PC14-Pad3)*%
X147837500Y-46140000D03*
%TO.P,U2,4,PC15*%
%TO.N,unconnected-(U2-PC15-Pad4)*%
X147837500Y-46640000D03*
%TO.P,U2,5,PD0*%
%TO.N,/HSE_IN*%
X147837500Y-47140000D03*
%TO.P,U2,6,PD1*%
%TO.N,/HSE_OUT*%
X147837500Y-47640000D03*
%TO.P,U2,7,NRST*%
%TO.N,NRST*%
X147837500Y-48140000D03*
%TO.P,U2,8,VSSA*%
%TO.N,GND*%
X147837500Y-48640000D03*
%TO.P,U2,9,VDDA*%
%TO.N,+3.3VA*%
X147837500Y-49140000D03*
%TO.P,U2,10,PA0*%
%TO.N,unconnected-(U2-PA0-Pad10)*%
X147837500Y-49640000D03*
%TO.P,U2,11,PA1*%
%TO.N,LED_G2*%
X147837500Y-50140000D03*
%TO.P,U2,12,PA2*%
%TO.N,LED_R2*%
X147837500Y-50640000D03*
D49*
%TO.P,U2,13,PA3*%
%TO.N,unconnected-(U2-PA3-Pad13)*%
X149250000Y-52052500D03*
%TO.P,U2,14,PA4*%
%TO.N,RFID_SDA*%
X149750000Y-52052500D03*
%TO.P,U2,15,PA5*%
%TO.N,SP1_SCK*%
X150250000Y-52052500D03*
%TO.P,U2,16,PA6*%
%TO.N,SP1_MISO*%
X150750000Y-52052500D03*
%TO.P,U2,17,PA7*%
%TO.N,SP1_MOSI*%
X151250000Y-52052500D03*
%TO.P,U2,18,PB0*%
%TO.N,RFID_RST*%
X151750000Y-52052500D03*
%TO.P,U2,19,PB1*%
%TO.N,unconnected-(U2-PB1-Pad19)*%
X152250000Y-52052500D03*
%TO.P,U2,20,PB2*%
%TO.N,unconnected-(U2-PB2-Pad20)*%
X152750000Y-52052500D03*
%TO.P,U2,21,PB10*%
%TO.N,USART3_TX*%
X153250000Y-52052500D03*
%TO.P,U2,22,PB11*%
%TO.N,USART3_RX*%
X153750000Y-52052500D03*
%TO.P,U2,23,VSS*%
%TO.N,GND*%
X154250000Y-52052500D03*
%TO.P,U2,24,VDD*%
%TO.N,+3.3V*%
X154750000Y-52052500D03*
D48*
%TO.P,U2,25,PB12*%
%TO.N,unconnected-(U2-PB12-Pad25)*%
X156162500Y-50640000D03*
%TO.P,U2,26,PB13*%
%TO.N,unconnected-(U2-PB13-Pad26)*%
X156162500Y-50140000D03*
%TO.P,U2,27,PB14*%
%TO.N,unconnected-(U2-PB14-Pad27)*%
X156162500Y-49640000D03*
%TO.P,U2,28,PB15*%
%TO.N,LED_G1*%
X156162500Y-49140000D03*
%TO.P,U2,29,PA8*%
%TO.N,unconnected-(U2-PA8-Pad29)*%
X156162500Y-48640000D03*
%TO.P,U2,30,PA9*%
%TO.N,LED_R1*%
X156162500Y-48140000D03*
%TO.P,U2,31,PA10*%
%TO.N,unconnected-(U2-PA10-Pad31)*%
X156162500Y-47640000D03*
%TO.P,U2,32,PA11*%
%TO.N,USB_D-*%
X156162500Y-47140000D03*
%TO.P,U2,33,PA12*%
%TO.N,USB_D+*%
X156162500Y-46640000D03*
%TO.P,U2,34,PA13*%
%TO.N,SWDIO*%
X156162500Y-46140000D03*
%TO.P,U2,35,VSS*%
%TO.N,GND*%
X156162500Y-45640000D03*
%TO.P,U2,36,VDD*%
%TO.N,+3.3V*%
X156162500Y-45140000D03*
D49*
%TO.P,U2,37,PA14*%
%TO.N,SWCLK*%
X154750000Y-43727500D03*
%TO.P,U2,38,PA15*%
%TO.N,unconnected-(U2-PA15-Pad38)*%
X154250000Y-43727500D03*
%TO.P,U2,39,PB3*%
%TO.N,TRACESWO*%
X153750000Y-43727500D03*
%TO.P,U2,40,PB4*%
%TO.N,unconnected-(U2-PB4-Pad40)*%
X153250000Y-43727500D03*
%TO.P,U2,41,PB5*%
%TO.N,unconnected-(U2-PB5-Pad41)*%
X152750000Y-43727500D03*
%TO.P,U2,42,PB6*%
%TO.N,AUDIO_OUT*%
X152250000Y-43727500D03*
%TO.P,U2,43,PB7*%
%TO.N,unconnected-(U2-PB7-Pad43)*%
X151750000Y-43727500D03*
%TO.P,U2,44,BOOT0*%
%TO.N,BOOT*%
X151250000Y-43727500D03*
%TO.P,U2,45,PB8*%
%TO.N,unconnected-(U2-PB8-Pad45)*%
X150750000Y-43727500D03*
%TO.P,U2,46,PB9*%
%TO.N,unconnected-(U2-PB9-Pad46)*%
X150250000Y-43727500D03*
%TO.P,U2,47,VSS*%
%TO.N,GND*%
X149750000Y-43727500D03*
%TO.P,U2,48,VDD*%
%TO.N,+3.3V*%
X149250000Y-43727500D03*
%TD*%
D34*
%TO.P,C21,1*%
%TO.N,Net-(U4-VS+)*%
X158000000Y-77040000D03*
%TO.P,C21,2*%
%TO.N,GND*%
X158000000Y-78000000D03*
%TD*%
D14*
%TO.P,R4,1*%
%TO.N,LED_R1*%
X170500000Y-32510000D03*
%TO.P,R4,2*%
%TO.N,Net-(D7-A1)*%
X170500000Y-31490000D03*
%TD*%
D39*
%TO.P,C8,1*%
%TO.N,Net-(C8-Pad1)*%
X159980000Y-35430000D03*
%TO.P,C8,2*%
%TO.N,Net-(C8-Pad2)*%
X159020000Y-35430000D03*
%TD*%
D11*
%TO.P,D7,1,A1*%
%TO.N,Net-(D7-A1)*%
X170750000Y-29500000D03*
%TO.P,D7,2,K*%
%TO.N,GND*%
X174250000Y-29500000D03*
D12*
%TO.P,D7,3,A2*%
%TO.N,Net-(D7-A2)*%
X172500000Y-30150000D03*
%TD*%
D50*
%TO.P,RJ12,1*%
%TO.N,RST*%
X171900000Y-67110000D03*
D51*
%TO.P,RJ12,2*%
%TO.N,Net-(D5-A)*%
X173170000Y-69650000D03*
%TO.P,RJ12,3*%
%TO.N,Net-(U4-R1IN)*%
X174440000Y-67110000D03*
%TO.P,RJ12,4*%
%TO.N,Net-(U4-T1OUT)*%
X175710000Y-69650000D03*
%TO.P,RJ12,5*%
%TO.N,GND*%
X176980000Y-67110000D03*
%TO.P,RJ12,6*%
%TO.N,Net-(D6-A)*%
X178250000Y-69650000D03*
%TD*%
D52*
%TO.N,GND*%
X180000000Y-41000000D03*
X159000000Y-67127100D03*
X178000000Y-55500000D03*
X139000000Y-72500000D03*
X149500000Y-77000000D03*
X140000000Y-49500000D03*
X172000000Y-50500000D03*
X161000000Y-58500000D03*
X158000000Y-32430000D03*
X173000000Y-37500000D03*
X174500000Y-31000000D03*
X143023000Y-47454800D03*
X159000000Y-64446800D03*
X153997000Y-49500000D03*
X173000000Y-40000000D03*
X163000000Y-78000000D03*
X148962000Y-79038400D03*
X161500000Y-59500000D03*
X145000000Y-52000000D03*
X180500000Y-31000000D03*
X177500000Y-65000000D03*
X159000000Y-46040000D03*
X173000000Y-54000000D03*
X157155000Y-78000000D03*
X150500000Y-42500000D03*
X139000000Y-57000000D03*
X152975000Y-63000000D03*
X178500000Y-33500000D03*
X167000000Y-32500000D03*
X150500000Y-48500000D03*
X162500000Y-58500000D03*
X144000000Y-44000000D03*
X171500000Y-44480000D03*
%TO.N,+3.3V*%
X146000000Y-46500000D03*
X143000000Y-53500000D03*
%TO.N,V+*%
X169500000Y-49141000D03*
X169500000Y-47000000D03*
X169206000Y-52294000D03*
X165356000Y-58644300D03*
%TO.N,NRST*%
X141500000Y-62500000D03*
X141400000Y-59500000D03*
%TO.N,SWCLK*%
X161500000Y-49740000D03*
X161500000Y-43810000D03*
%TO.N,RST*%
X145666000Y-68000000D03*
X149639043Y-67860955D03*
X155955000Y-68000000D03*
X163505000Y-68000000D03*
X167000000Y-68000000D03*
X170502458Y-66997541D03*
X138900000Y-68000000D03*
X148000000Y-68000000D03*
%TO.N,TRACESWO*%
X162500000Y-43810000D03*
X162500000Y-49740000D03*
%TO.N,AUDIO_OUT*%
X170542041Y-36042041D03*
X169443511Y-35443511D03*
%TO.N,LED_R2*%
X173674000Y-32825700D03*
X153964000Y-42092400D03*
X149050000Y-50386400D03*
X170872000Y-33627600D03*
%TO.N,USART3_TX*%
X153457000Y-50856400D03*
X163000000Y-67127100D03*
%TD*%
D53*
%TO.N,/HSE_IN*%
X147838000Y-47140000D02*
X147837500Y-47140000D01*
X143578000Y-46791700D02*
X144000000Y-46370000D01*
X140150000Y-45790000D02*
X140150000Y-46791700D01*
X147837500Y-47140000D02*
X144770000Y-47140000D01*
X140150000Y-46791700D02*
X143578000Y-46791700D01*
X144770000Y-47140000D02*
X144000000Y-46370000D01*
%TO.N,GND*%
X179150000Y-34975000D02*
X179150000Y-34150000D01*
X141850000Y-45790000D02*
X142210000Y-45790000D01*
X157990000Y-33430000D02*
X157990000Y-32440000D01*
X154197000Y-49700000D02*
X153997000Y-49500000D01*
X163500000Y-57500000D02*
X162500000Y-58500000D01*
X157730000Y-45640000D02*
X158000000Y-45370000D01*
X150088000Y-63000000D02*
X151862500Y-63000000D01*
X158000000Y-69350000D02*
X157825000Y-69525000D01*
X180250000Y-29500000D02*
X180250000Y-30750000D01*
X154250000Y-53620000D02*
X154250000Y-52052500D01*
X174820000Y-45300000D02*
X174820000Y-43965000D01*
X143068000Y-47410000D02*
X143023000Y-47454800D01*
X175395000Y-43390000D02*
X175012000Y-43773500D01*
X139500000Y-70980000D02*
X139500000Y-72000000D01*
X178400000Y-57860000D02*
X178400000Y-55600000D01*
X142210000Y-45790000D02*
X144000000Y-44000000D01*
X158872900Y-67000000D02*
X159000000Y-67127100D01*
X158000000Y-67000000D02*
X158000000Y-69350000D01*
X144000000Y-52850000D02*
X144150000Y-52850000D01*
X150360000Y-48640000D02*
X150500000Y-48500000D01*
X174820000Y-51700000D02*
X174820000Y-53035000D01*
X178400000Y-59565000D02*
X178565000Y-59730000D01*
X146250000Y-48640000D02*
X147837500Y-48640000D01*
X175395000Y-43390000D02*
X172590000Y-43390000D01*
X175012000Y-43773500D02*
X175535000Y-44297000D01*
X161000000Y-57500000D02*
X161000000Y-58500000D01*
X172590000Y-43390000D02*
X171500000Y-44480000D01*
X154197000Y-50466400D02*
X154197000Y-49700000D01*
X164000000Y-77000000D02*
X163000000Y-78000000D01*
X149750000Y-42160000D02*
X149750000Y-42500000D01*
X176980000Y-65520000D02*
X177500000Y-65000000D01*
X154197000Y-51125200D02*
X154197000Y-50466400D01*
X179900000Y-59730000D02*
X179900000Y-61000000D01*
X138750000Y-72750000D02*
X139000000Y-72500000D01*
X179150000Y-34150000D02*
X178500000Y-33500000D01*
X140510000Y-58000000D02*
X139510000Y-57000000D01*
X171990000Y-50510000D02*
X172000000Y-50500000D01*
X154520000Y-53890000D02*
X154250000Y-53620000D01*
X163510000Y-57500000D02*
X163500000Y-57500000D01*
X146000000Y-48890000D02*
X146250000Y-48640000D01*
X167500000Y-32000000D02*
X167000000Y-32500000D01*
X151862500Y-63000000D02*
X152975000Y-63000000D01*
X161000000Y-60000000D02*
X161500000Y-59500000D01*
X149080000Y-82000000D02*
X149080000Y-79156800D01*
X157775000Y-64000000D02*
X158553200Y-64000000D01*
X174895000Y-43657000D02*
X175012000Y-43773500D01*
X180250000Y-30750000D02*
X180500000Y-31000000D01*
X144150000Y-52850000D02*
X145000000Y-52000000D01*
X179325000Y-42390000D02*
X180000000Y-41715000D01*
X174250000Y-30750000D02*
X174500000Y-31000000D01*
X146000000Y-43890000D02*
X144110000Y-43890000D01*
X175395000Y-53610000D02*
X174890000Y-53610000D01*
X139500000Y-72000000D02*
X139000000Y-72500000D01*
X140150000Y-47990000D02*
X140150000Y-49350000D01*
X157500000Y-46040000D02*
X159000000Y-46040000D01*
X157100000Y-45640000D02*
X156162500Y-45640000D01*
X149750000Y-42500000D02*
X150500000Y-42500000D01*
X158000000Y-67000000D02*
X158872900Y-67000000D01*
X179070000Y-57190000D02*
X178400000Y-57860000D01*
X176980000Y-67110000D02*
X176980000Y-65520000D01*
X144000000Y-47410000D02*
X143068000Y-47410000D01*
X171000000Y-50510000D02*
X171990000Y-50510000D01*
X154250000Y-52052500D02*
X154250000Y-51178100D01*
X171500000Y-45480000D02*
X171500000Y-44480000D01*
X158000000Y-78000000D02*
X157155000Y-78000000D01*
X178400000Y-57860000D02*
X178400000Y-59565000D01*
X147837500Y-48640000D02*
X150360000Y-48640000D01*
X149000000Y-64087500D02*
X150088000Y-63000000D01*
X161000000Y-61000000D02*
X161000000Y-60000000D01*
X174250000Y-29500000D02*
X174250000Y-30750000D01*
X158553200Y-64000000D02*
X159000000Y-64446800D01*
X179900000Y-57190000D02*
X179070000Y-57190000D01*
X178500000Y-55500000D02*
X178000000Y-55500000D01*
X140150000Y-49350000D02*
X140000000Y-49500000D01*
X174500000Y-54000000D02*
X173000000Y-54000000D01*
X179325000Y-53610000D02*
X179325000Y-54675000D01*
X149480000Y-40410000D02*
X149480000Y-41890000D01*
X167500000Y-30000000D02*
X167500000Y-32000000D01*
X144000000Y-45410000D02*
X144000000Y-44000000D01*
X174895000Y-42890000D02*
X174895000Y-43657000D01*
X171475000Y-37595000D02*
X172905000Y-37595000D01*
X145000000Y-51890000D02*
X145000000Y-52000000D01*
X149750000Y-42500000D02*
X149750000Y-43727500D01*
X144000000Y-50890000D02*
X145000000Y-51890000D01*
X174820000Y-53035000D02*
X175395000Y-53610000D01*
X179325000Y-54675000D02*
X178500000Y-55500000D01*
X139510000Y-57000000D02*
X139000000Y-57000000D01*
X144110000Y-43890000D02*
X144000000Y-44000000D01*
X172865000Y-40135000D02*
X173000000Y-40000000D01*
X180000000Y-41715000D02*
X180000000Y-41000000D01*
X151000000Y-77000000D02*
X149500000Y-77000000D01*
X157990000Y-32440000D02*
X158000000Y-32430000D01*
X172905000Y-37595000D02*
X173000000Y-37500000D01*
X149480000Y-41890000D02*
X149750000Y-42160000D01*
X178500000Y-55500000D02*
X178400000Y-55600000D01*
X150000000Y-39890000D02*
X149480000Y-40410000D01*
X136760000Y-72750000D02*
X138750000Y-72750000D01*
X157100000Y-45640000D02*
X157500000Y-46040000D01*
X178565000Y-59730000D02*
X179900000Y-59730000D01*
X156162500Y-45640000D02*
X157730000Y-45640000D01*
X179325000Y-43390000D02*
X179325000Y-42390000D01*
X174820000Y-43965000D02*
X175012000Y-43773500D01*
X149080000Y-79156800D02*
X148962000Y-79038400D01*
X174890000Y-53610000D02*
X174500000Y-54000000D01*
X154250000Y-51178100D02*
X154197000Y-51125200D01*
X171475000Y-40135000D02*
X172865000Y-40135000D01*
%TO.N,+3.3V*%
X168129000Y-65472900D02*
X170836000Y-68179500D01*
X154750000Y-51112400D02*
X154597000Y-50959500D01*
X147838000Y-45139700D02*
X147838000Y-45140000D01*
X157000000Y-55730000D02*
X157320000Y-55730000D01*
X156555000Y-67485000D02*
X156555000Y-69525000D01*
X147838000Y-45139500D02*
X147838000Y-45139700D01*
X154597000Y-50959500D02*
X154597000Y-45140000D01*
X147548000Y-44850000D02*
X147838000Y-45139500D01*
X142000000Y-54000000D02*
X142000000Y-51890000D01*
X157676000Y-66364200D02*
X157040000Y-67000000D01*
X164920000Y-44410000D02*
X166000000Y-45490000D01*
X160780000Y-55730000D02*
X161000000Y-55950000D01*
X156162000Y-45139500D02*
X156892000Y-44410000D01*
X163510000Y-55950000D02*
X166403000Y-58843100D01*
X156892000Y-44410000D02*
X158000000Y-44410000D01*
X156162000Y-45139700D02*
X156162000Y-45140000D01*
X147838000Y-45139700D02*
X147837800Y-45139700D01*
X157000000Y-55730000D02*
X155820000Y-55730000D01*
X173029000Y-66912300D02*
X175186000Y-64755600D01*
X144000000Y-51890000D02*
X142000000Y-51890000D01*
X149868000Y-45140000D02*
X149250000Y-44522200D01*
X172653000Y-68179500D02*
X173029000Y-67803300D01*
X156162200Y-45139700D02*
X156162500Y-45140000D01*
X161000000Y-55950000D02*
X163510000Y-55950000D01*
X147838000Y-45140000D02*
X148520000Y-44457500D01*
X148614000Y-59563500D02*
X146000000Y-56950000D01*
X157320000Y-55730000D02*
X155480000Y-53890000D01*
X148520000Y-43727500D02*
X148520000Y-41890000D01*
X146000000Y-44850000D02*
X147548000Y-44850000D01*
X158306000Y-66364200D02*
X157676000Y-66364200D01*
X147838000Y-45139500D02*
X147838000Y-45139700D01*
X149250000Y-43727500D02*
X148520000Y-43727500D01*
X155820000Y-55730000D02*
X154050000Y-57500000D01*
X170836000Y-68179500D02*
X172653000Y-68179500D01*
X149250000Y-44522200D02*
X149250000Y-43727500D01*
X148450000Y-39890000D02*
X148520000Y-39960000D01*
X143000000Y-53500000D02*
X142500000Y-53500000D01*
X150000000Y-58563500D02*
X150000000Y-58550000D01*
X166403000Y-58843100D02*
X166403000Y-65472900D01*
X165349000Y-66527100D02*
X158469000Y-66527100D01*
X157320000Y-55730000D02*
X160780000Y-55730000D01*
X155480000Y-52782500D02*
X154750000Y-52052500D01*
X156162000Y-45139700D02*
X156162200Y-45139700D01*
X166403000Y-65472900D02*
X168129000Y-65472900D01*
X166403000Y-65472900D02*
X165349000Y-66527100D01*
X139644000Y-62250000D02*
X142000000Y-59893600D01*
X154597000Y-45140000D02*
X156162000Y-45140000D01*
X152550000Y-56000000D02*
X154050000Y-57500000D01*
X136760000Y-62250000D02*
X139644000Y-62250000D01*
X156162000Y-45140000D02*
X156162000Y-45139700D01*
X158469000Y-66527100D02*
X158306000Y-66364200D01*
X146000000Y-44850000D02*
X146000000Y-46500000D01*
X147837800Y-45139700D02*
X147837500Y-45140000D01*
X147838000Y-45139700D02*
X147838000Y-45140000D01*
X148520000Y-39960000D02*
X148520000Y-41890000D01*
X156162000Y-45139500D02*
X156162000Y-45139700D01*
X156162000Y-45139700D02*
X156162000Y-45139500D01*
X150000000Y-58550000D02*
X152550000Y-56000000D01*
X142500000Y-53500000D02*
X142000000Y-54000000D01*
X149000000Y-59563500D02*
X148614000Y-59563500D01*
X157040000Y-67000000D02*
X156555000Y-67485000D01*
X158000000Y-44410000D02*
X164920000Y-44410000D01*
X155480000Y-53890000D02*
X155480000Y-52782500D01*
X154597000Y-45140000D02*
X149868000Y-45140000D01*
X148520000Y-44457500D02*
X148520000Y-43727500D01*
X179900000Y-62270000D02*
X178649900Y-62270000D01*
X176165000Y-64755600D02*
X178398000Y-62521900D01*
X149000000Y-59563500D02*
X150000000Y-58563500D01*
X149000000Y-60087500D02*
X149000000Y-59563500D01*
X173029000Y-67803300D02*
X173029000Y-66912300D01*
X178649900Y-62270000D02*
X178398000Y-62521900D01*
X154750000Y-52052500D02*
X154750000Y-51112400D01*
X175186000Y-64755600D02*
X176165000Y-64755600D01*
X142000000Y-59893600D02*
X142000000Y-54000000D01*
%TO.N,/HSE_OUT*%
X147838000Y-47640000D02*
X147837500Y-47640000D01*
X142752000Y-47990000D02*
X143132000Y-48370000D01*
X141850000Y-47990000D02*
X142752000Y-47990000D01*
X147837500Y-47640000D02*
X144730000Y-47640000D01*
X144730000Y-47640000D02*
X144000000Y-48370000D01*
X143132000Y-48370000D02*
X144000000Y-48370000D01*
%TO.N,Net-(C8-Pad1)*%
X159980000Y-35430000D02*
X159980000Y-31900000D01*
X160500000Y-31570000D02*
X160500000Y-31380000D01*
X166525000Y-37595000D02*
X160500000Y-31570000D01*
X159980000Y-31900000D02*
X160500000Y-31380000D01*
%TO.N,Net-(C8-Pad2)*%
X159020000Y-33440000D02*
X159010000Y-33430000D01*
X159020000Y-35430000D02*
X159020000Y-33440000D01*
%TO.N,Net-(J1-Pin_1)*%
X162980000Y-29480000D02*
X163500000Y-30000000D01*
X160500000Y-29480000D02*
X162980000Y-29480000D01*
X160550000Y-29430000D02*
X160500000Y-29480000D01*
%TO.N,+3.3VA*%
X146000000Y-49850000D02*
X144080000Y-49850000D01*
X144080000Y-49850000D02*
X144000000Y-49930000D01*
X147837500Y-49140000D02*
X146710000Y-49140000D01*
X147838000Y-49140000D02*
X147837500Y-49140000D01*
X142385000Y-49930000D02*
X144000000Y-49930000D01*
X146710000Y-49140000D02*
X146000000Y-49850000D01*
X142000000Y-50315000D02*
X142385000Y-49930000D01*
%TO.N,V+*%
X169500000Y-47000000D02*
X169500000Y-46500000D01*
X148324000Y-66745400D02*
X146000000Y-64421000D01*
X156225000Y-63999900D02*
X156225000Y-64000000D01*
X156175000Y-63950000D02*
X156200000Y-63975000D01*
X163997000Y-65046800D02*
X164950000Y-66000000D01*
X156225000Y-63999600D02*
X156225000Y-63999800D01*
X170450000Y-52000000D02*
X169500000Y-52000000D01*
X165356000Y-58644300D02*
X163500000Y-60500000D01*
X156224000Y-63999200D02*
X156225000Y-63999600D01*
X169500000Y-52000000D02*
X169206000Y-52294000D01*
X156224000Y-63998400D02*
X156224000Y-63999200D01*
X156200000Y-63975000D02*
X156212000Y-63987500D01*
X156225000Y-63999800D02*
X156225000Y-63999900D01*
X169550000Y-51950000D02*
X169500000Y-52000000D01*
X154138000Y-63950200D02*
X153788500Y-64299600D01*
X156225000Y-64000000D02*
X157272000Y-65046800D01*
X156222000Y-63996900D02*
X156224000Y-63998400D01*
X165250000Y-42250000D02*
X165250000Y-39165001D01*
X169500000Y-51900000D02*
X169500000Y-49141000D01*
X169500000Y-52000000D02*
X169206000Y-52294000D01*
X154138000Y-63950000D02*
X154138000Y-63950200D01*
X156212000Y-63987500D02*
X156219000Y-63993700D01*
X156225000Y-63999900D02*
X156225000Y-64000000D01*
X154137500Y-63950600D02*
X154137500Y-63950000D01*
X154137500Y-63000000D02*
X154138000Y-63000000D01*
X156222000Y-63996900D02*
X156224000Y-63998400D01*
X153788500Y-64299600D02*
X154137500Y-63950600D01*
X156175000Y-63950000D02*
X156200000Y-63975000D01*
X151342000Y-66745400D02*
X148324000Y-66745400D01*
X156225000Y-63999800D02*
X156225000Y-63999900D01*
X165550001Y-38865000D02*
X166525000Y-38865000D01*
X157272000Y-65046800D02*
X163500000Y-65046800D01*
X154138000Y-63950000D02*
X154138000Y-63000000D01*
X153788500Y-64299600D02*
X151342000Y-66745400D01*
X156200000Y-63975000D02*
X156212000Y-63987500D01*
X154138000Y-63000000D02*
X155225000Y-63000000D01*
X155225000Y-63000000D02*
X156175000Y-63950000D01*
X146000000Y-64421000D02*
X146000000Y-59050000D01*
X156219000Y-63993700D02*
X156222000Y-63996900D01*
X165250000Y-39165001D02*
X165550001Y-38865000D01*
X156225000Y-63999600D02*
X156225000Y-63999800D01*
X156224000Y-63998400D02*
X156224000Y-63999200D01*
X169550000Y-51950000D02*
X169500000Y-51900000D01*
X163500000Y-65046800D02*
X163997000Y-65046800D01*
X156175000Y-63950000D02*
X154138000Y-63950000D01*
X154138000Y-63950000D02*
X154138000Y-63950200D01*
X156219000Y-63993700D02*
X156222000Y-63996900D01*
X156224000Y-63999200D02*
X156225000Y-63999600D01*
X156212000Y-63987500D02*
X156219000Y-63993700D01*
X169500000Y-46500000D02*
X165250000Y-42250000D01*
X163500000Y-60500000D02*
X163500000Y-65046800D01*
%TO.N,Net-(D2-K)*%
X154138000Y-62050000D02*
X154138000Y-62049800D01*
X157000000Y-61000000D02*
X155188000Y-61000000D01*
X155188000Y-61000000D02*
X154138000Y-62050000D01*
X154137500Y-62050000D02*
X154138000Y-62050000D01*
X153480000Y-61392500D02*
X153480000Y-60000000D01*
X154138000Y-62049800D02*
X153480000Y-61392500D01*
X154138000Y-62050000D02*
X154138000Y-62049800D01*
X157000000Y-61000000D02*
X157000000Y-58270000D01*
%TO.N,Net-(D3-K)*%
X151950000Y-57500000D02*
X152520000Y-58070000D01*
X152520000Y-58070000D02*
X152520000Y-60000000D01*
X152520000Y-61392500D02*
X151862000Y-62049800D01*
X152520000Y-60000000D02*
X152520000Y-61392500D01*
X151862200Y-62050000D02*
X151862000Y-62049800D01*
X151862500Y-62050000D02*
X151862200Y-62050000D01*
%TO.N,NRST*%
X141480000Y-59420000D02*
X141400000Y-59500000D01*
X141500000Y-62500000D02*
X139500000Y-64500000D01*
X141225000Y-57210400D02*
X141480000Y-57465400D01*
X141225000Y-49875300D02*
X141225000Y-57210400D01*
X139500000Y-70020000D02*
X139042000Y-70020000D01*
X145566000Y-48140000D02*
X144356000Y-49350000D01*
X144356000Y-49350000D02*
X141750000Y-49350000D01*
X137812000Y-71250000D02*
X136760000Y-71250000D01*
X139042000Y-70020000D02*
X137812000Y-71250000D01*
X141750000Y-49350000D02*
X141225000Y-49875300D01*
X139500000Y-64500000D02*
X139500000Y-70020000D01*
X147838000Y-48140000D02*
X147837500Y-48140000D01*
X147837500Y-48140000D02*
X145566000Y-48140000D01*
X141480000Y-57465400D02*
X141480000Y-59420000D01*
%TO.N,Net-(U4-C1-)*%
X159095000Y-74475000D02*
X159095000Y-78905000D01*
X159095000Y-78905000D02*
X158000000Y-80000000D01*
%TO.N,Net-(U4-C1+)*%
X156555000Y-79515000D02*
X156555000Y-74475000D01*
X157040000Y-80000000D02*
X156555000Y-79515000D01*
%TO.N,Net-(U4-C2-)*%
X161635000Y-76365000D02*
X161000000Y-77000000D01*
X161635000Y-74475000D02*
X161635000Y-76365000D01*
%TO.N,Net-(U4-C2+)*%
X160365000Y-74475000D02*
X160365000Y-76675000D01*
X160365000Y-76675000D02*
X160040000Y-77000000D01*
%TO.N,Net-(U4-VS+)*%
X157825000Y-74475000D02*
X157825000Y-76865000D01*
X157825000Y-76865000D02*
X158000000Y-77040000D01*
%TO.N,Net-(U4-VS-)*%
X162905000Y-74475000D02*
X163040000Y-74610000D01*
X163040000Y-74610000D02*
X163040000Y-77000000D01*
%TO.N,Net-(J5-Pin_1)*%
X154160000Y-82000000D02*
X154160000Y-78610000D01*
X154160000Y-78610000D02*
X152550000Y-77000000D01*
%TO.N,Net-(D4-A)*%
X175501117Y-46100000D02*
X176104000Y-46702883D01*
X172600800Y-51949200D02*
X172646100Y-51903900D01*
X175501117Y-50900000D02*
X174820000Y-50900000D01*
X176104000Y-50297117D02*
X175501117Y-50900000D01*
X172646100Y-51903900D02*
X173650000Y-50900000D01*
X172600800Y-51949200D02*
X172600700Y-51949300D01*
X174820000Y-46100000D02*
X175501117Y-46100000D01*
X173650000Y-50900000D02*
X174820000Y-50900000D01*
X176104000Y-46702883D02*
X176104000Y-50297117D01*
X172550000Y-52000000D02*
X172600700Y-51949300D01*
X172646100Y-51903900D02*
X172600800Y-51949200D01*
X172600700Y-51949300D02*
X172600800Y-51949200D01*
%TO.N,Net-(D5-A)*%
X170700000Y-69650000D02*
X173170000Y-69650000D01*
X167050000Y-66000000D02*
X170700000Y-69650000D01*
%TO.N,Net-(D6-A)*%
X134359000Y-82829100D02*
X135515000Y-83985100D01*
X134359000Y-78583600D02*
X134359000Y-82829100D01*
X135515000Y-83985100D02*
X165030000Y-83985100D01*
X165030000Y-83985100D02*
X178250000Y-70765200D01*
X142100000Y-70842200D02*
X134359000Y-78583600D01*
X178250000Y-70765200D02*
X178250000Y-69650000D01*
X142100000Y-61000000D02*
X142100000Y-70842200D01*
%TO.N,BOOT*%
X151250000Y-43727500D02*
X151250000Y-39916300D01*
X144925000Y-39115000D02*
X139000000Y-45040000D01*
X151250000Y-39916300D02*
X150449000Y-39115000D01*
X141080000Y-58670000D02*
X139000000Y-60750000D01*
X139000000Y-55551100D02*
X141080000Y-57631100D01*
X139750000Y-60750000D02*
X139000000Y-60750000D01*
X150449000Y-39115000D02*
X144925000Y-39115000D01*
X140000000Y-61000000D02*
X139750000Y-60750000D01*
X141080000Y-57631100D02*
X141080000Y-58670000D01*
X136760000Y-60750000D02*
X139000000Y-60750000D01*
X139000000Y-45040000D02*
X139000000Y-55551100D01*
%TO.N,SWCLK*%
X161417500Y-43727500D02*
X161500000Y-43810000D01*
X176000000Y-61000000D02*
X172911000Y-61000000D01*
X172911000Y-61000000D02*
X161651000Y-49740000D01*
X161651000Y-49740000D02*
X161500000Y-49740000D01*
X154750000Y-43727500D02*
X161417500Y-43727500D01*
%TO.N,SWDIO*%
X155345000Y-46140000D02*
X155052000Y-46432600D01*
X156162000Y-46140000D02*
X155345000Y-46140000D01*
X159449000Y-55196800D02*
X165234000Y-55196800D01*
X156162000Y-46140000D02*
X156162500Y-46140000D01*
X172307000Y-62270000D02*
X176000000Y-62270000D01*
X165234000Y-55196800D02*
X172307000Y-62270000D01*
X155052000Y-50800400D02*
X159449000Y-55196800D01*
X155052000Y-46432600D02*
X155052000Y-50800400D01*
%TO.N,RST*%
X138650000Y-68250000D02*
X136760000Y-68250000D01*
X138900000Y-68000000D02*
X138650000Y-68250000D01*
X155955000Y-68000000D02*
X149778088Y-68000000D01*
X171900000Y-67110000D02*
X176068000Y-62941700D01*
X176000000Y-57190000D02*
X176830000Y-57190000D01*
X170614917Y-67110000D02*
X170502458Y-66997541D01*
X148000000Y-68000000D02*
X145666000Y-68000000D01*
X177373000Y-62941700D02*
X177500000Y-62814995D01*
X176830000Y-57190000D02*
X178000000Y-58360000D01*
X178000000Y-62314995D02*
X177500000Y-62814995D01*
X176068000Y-62941700D02*
X177373000Y-62941700D01*
X171900000Y-67110000D02*
X170614917Y-67110000D01*
X167000000Y-68000000D02*
X163505000Y-68000000D01*
X178000000Y-58360000D02*
X178000000Y-62314995D01*
X149778088Y-68000000D02*
X149639043Y-67860955D01*
%TO.N,TRACESWO*%
X176000000Y-59730000D02*
X172490000Y-59730000D01*
X161380000Y-42690000D02*
X154018000Y-42690000D01*
X153750000Y-42957600D02*
X153750000Y-43727500D01*
X154018000Y-42690000D02*
X153750000Y-42957600D01*
X172490000Y-59730000D02*
X162500000Y-49740000D01*
X162500000Y-43810000D02*
X161380000Y-42690000D01*
%TO.N,USB_D+*%
X167240000Y-47750000D02*
X174820000Y-47750000D01*
X175704000Y-48013200D02*
X175441000Y-47750000D01*
X165870000Y-46640000D02*
X166000000Y-46510000D01*
X175704000Y-48478500D02*
X175704000Y-48013200D01*
X166000000Y-46510000D02*
X167240000Y-47750000D01*
X156162500Y-46640000D02*
X165870000Y-46640000D01*
X174820000Y-48750000D02*
X175432000Y-48750000D01*
X175432000Y-48750000D02*
X175704000Y-48478500D01*
X175441000Y-47750000D02*
X174820000Y-47750000D01*
%TO.N,Net-(J4-CC1)*%
X171260000Y-49750000D02*
X171000000Y-49490000D01*
X174820000Y-49750000D02*
X171260000Y-49750000D01*
%TO.N,USB_D-*%
X174820000Y-48249900D02*
X174820000Y-48250000D01*
X173912000Y-48967500D02*
X174194000Y-49250000D01*
X174820000Y-48249900D02*
X174320000Y-48249900D01*
X174194000Y-49250000D02*
X174820000Y-49250000D01*
X174820000Y-48249900D02*
X174928000Y-48249900D01*
X165170667Y-48541000D02*
X163769667Y-47140000D01*
X173912000Y-48541000D02*
X173912000Y-48967500D01*
X173912000Y-48541000D02*
X165170667Y-48541000D01*
X174320000Y-48250000D02*
X174203000Y-48250000D01*
X163769667Y-47140000D02*
X156162500Y-47140000D01*
X174320000Y-48249900D02*
X174320000Y-48250000D01*
X174203000Y-48250000D02*
X173912000Y-48541000D01*
%TO.N,Net-(J4-CC2)*%
X171500000Y-46500000D02*
X171750000Y-46750000D01*
X171750000Y-46750000D02*
X174820000Y-46750000D01*
%TO.N,RFID_SDA*%
X148385000Y-54193900D02*
X149750000Y-52828600D01*
X145252000Y-54534800D02*
X145750000Y-54534800D01*
X145750000Y-54534800D02*
X145766000Y-54519300D01*
X148109000Y-54193900D02*
X148385000Y-54193900D01*
X145766000Y-54519300D02*
X147784000Y-54519300D01*
X147784000Y-54519300D02*
X148109000Y-54193900D01*
X136380000Y-82000000D02*
X136380000Y-80848300D01*
X143861000Y-73367700D02*
X143861000Y-55926500D01*
X136380000Y-80848300D02*
X143861000Y-73367700D01*
X149750000Y-52828600D02*
X149750000Y-52052500D01*
X143861000Y-55926500D02*
X145252000Y-54534800D01*
%TO.N,SP1_MISO*%
X144664000Y-56259100D02*
X144664000Y-80184300D01*
X144664000Y-80184300D02*
X144000000Y-80848300D01*
X148753000Y-54997300D02*
X148442000Y-54997300D01*
X146136000Y-55338000D02*
X146136000Y-55338200D01*
X150750000Y-53000500D02*
X148753000Y-54997300D01*
X148101000Y-55338000D02*
X146136000Y-55338000D01*
X146136000Y-55338200D02*
X145585000Y-55338200D01*
X144000000Y-80848300D02*
X144000000Y-82000000D01*
X148442000Y-54997300D02*
X148101000Y-55338000D01*
X145585000Y-55338200D02*
X144664000Y-56259100D01*
X150750000Y-52052500D02*
X150750000Y-53000500D01*
%TO.N,RFID_RST*%
X145751000Y-55739900D02*
X145066000Y-56425400D01*
X151750000Y-52052500D02*
X151750000Y-52824800D01*
X151620000Y-80848300D02*
X151620000Y-82000000D01*
X145066000Y-56425400D02*
X145066000Y-74294000D01*
X148608000Y-55399000D02*
X148267000Y-55740000D01*
X149487000Y-55085700D02*
X149057000Y-55515600D01*
X149057000Y-55515600D02*
X148940000Y-55399000D01*
X149489000Y-55085700D02*
X149487000Y-55085700D01*
X148267000Y-55740000D02*
X148197000Y-55740000D01*
X151750000Y-52824800D02*
X149489000Y-55085700D01*
X145066000Y-74294000D02*
X151620000Y-80848300D01*
X148197000Y-55739900D02*
X145751000Y-55739900D01*
X148940000Y-55399000D02*
X148608000Y-55399000D01*
X148197000Y-55740000D02*
X148197000Y-55739900D01*
%TO.N,SP1_SCK*%
X147950000Y-54921000D02*
X145932000Y-54921000D01*
X145917000Y-54936500D02*
X145419000Y-54936500D01*
X138920000Y-80848300D02*
X138920000Y-82000000D01*
X144262000Y-56092800D02*
X144262000Y-75506000D01*
X150250000Y-52052500D02*
X150250000Y-52897900D01*
X148275000Y-54595600D02*
X147950000Y-54921000D01*
X145419000Y-54936500D02*
X144262000Y-56092800D01*
X144262000Y-75506000D02*
X138920000Y-80848300D01*
X148552000Y-54595600D02*
X148275000Y-54595600D01*
X145932000Y-54921000D02*
X145917000Y-54936500D01*
X150250000Y-52897900D02*
X148552000Y-54595600D01*
%TO.N,SP1_MOSI*%
X148799000Y-50986400D02*
X151025000Y-50986400D01*
X151250000Y-51211400D02*
X151250000Y-52052500D01*
X143424000Y-71461100D02*
X143424000Y-55794700D01*
X135847000Y-83168000D02*
X135219000Y-82539300D01*
X141460000Y-82000000D02*
X140308000Y-82000000D01*
X143424000Y-55794700D02*
X145124000Y-54095000D01*
X135219000Y-79666900D02*
X143424000Y-71461100D01*
X135219000Y-82539300D02*
X135219000Y-79666900D01*
X140308000Y-82000000D02*
X140308000Y-82271100D01*
X145691000Y-54095000D02*
X148799000Y-50986400D01*
X139411000Y-83168000D02*
X135847000Y-83168000D01*
X145124000Y-54095000D02*
X145691000Y-54095000D01*
X151025000Y-50986400D02*
X151250000Y-51211400D01*
X140308000Y-82271100D02*
X139411000Y-83168000D01*
%TO.N,Net-(U4-R1IN)*%
X161343000Y-70849800D02*
X173484000Y-70849800D01*
X160365000Y-69871900D02*
X161343000Y-70849800D01*
X173484000Y-70849800D02*
X174440000Y-69893600D01*
X174440000Y-69893600D02*
X174440000Y-67110000D01*
X160365000Y-69525000D02*
X160365000Y-69871900D01*
%TO.N,Net-(U4-T1OUT)*%
X160492000Y-71272700D02*
X159095000Y-69876000D01*
X175710000Y-69650000D02*
X174087000Y-71272700D01*
X159095000Y-69876000D02*
X159095000Y-69525000D01*
X174087000Y-71272700D02*
X160492000Y-71272700D01*
%TO.N,Net-(R1-Pad2)*%
X173412500Y-35000000D02*
X173412000Y-35000000D01*
X176825000Y-35000000D02*
X173412500Y-35000000D01*
X176850000Y-34975000D02*
X176825000Y-35000000D01*
%TO.N,AUDIO_OUT*%
X166073255Y-35443511D02*
X169443511Y-35443511D01*
X159001471Y-30580000D02*
X161209744Y-30580000D01*
X171587500Y-35000000D02*
X171588000Y-35000000D01*
X170545459Y-36042041D02*
X171587500Y-35000000D01*
X161209744Y-30580000D02*
X166073255Y-35443511D01*
X152250000Y-43727500D02*
X152250000Y-37331471D01*
X152250000Y-37331471D02*
X159001471Y-30580000D01*
X170542041Y-36042041D02*
X170545459Y-36042041D01*
%TO.N,Net-(U1-+)*%
X178000000Y-39025000D02*
X177625000Y-38650000D01*
X171475000Y-38865000D02*
X177840000Y-38865000D01*
X177840000Y-38865000D02*
X178000000Y-39025000D01*
%TO.N,LED_R1*%
X172500000Y-34406700D02*
X170603000Y-32510000D01*
X178131000Y-40857100D02*
X179107000Y-39880600D01*
X172500000Y-35624400D02*
X172500000Y-34406700D01*
X176300000Y-55306200D02*
X176661000Y-54945400D01*
X171370000Y-55306200D02*
X176300000Y-55306200D01*
X156162500Y-48140000D02*
X164204000Y-48140000D01*
X177080000Y-54528500D02*
X177080000Y-41687300D01*
X164204000Y-48140000D02*
X171370000Y-55306200D01*
X177910000Y-40857100D02*
X178131000Y-40857100D01*
X176663000Y-54945400D02*
X177080000Y-54528500D01*
X176661000Y-54945400D02*
X176663000Y-54945400D01*
X179107000Y-39880600D02*
X179107000Y-38119700D01*
X177080000Y-41687300D02*
X177910000Y-40857100D01*
X177725000Y-36737500D02*
X173613000Y-36737500D01*
X170603000Y-32510000D02*
X170500000Y-32510000D01*
X173613000Y-36737500D02*
X172500000Y-35624400D01*
X156162000Y-48140000D02*
X156162500Y-48140000D01*
X179107000Y-38119700D02*
X177725000Y-36737500D01*
%TO.N,Net-(D7-A2)*%
X172500000Y-30150000D02*
X172500000Y-31480000D01*
%TO.N,LED_G1*%
X179546000Y-37445200D02*
X179546000Y-40036800D01*
X178085000Y-41258800D02*
X177481000Y-41862000D01*
X172500000Y-32500000D02*
X173733000Y-33733100D01*
X177390000Y-33733100D02*
X178000000Y-34343200D01*
X177481000Y-54694800D02*
X176468000Y-55707900D01*
X156162500Y-49140000D02*
X156162000Y-49140000D01*
X178324000Y-41258800D02*
X178085000Y-41258800D01*
X178000000Y-34343200D02*
X178000000Y-35899600D01*
X176468000Y-55707900D02*
X169401000Y-55707900D01*
X173733000Y-33733100D02*
X177390000Y-33733100D01*
X177481000Y-41862000D02*
X177481000Y-54694800D01*
X162833000Y-49140000D02*
X156162500Y-49140000D01*
X178000000Y-35899600D02*
X179546000Y-37445200D01*
X169401000Y-55707900D02*
X162833000Y-49140000D01*
X179546000Y-40036800D02*
X178324000Y-41258800D01*
%TO.N,LED_R2*%
X149050000Y-50386400D02*
X148861000Y-50386400D01*
X147863000Y-50615000D02*
X147862000Y-50615000D01*
X147838000Y-50640000D02*
X147863000Y-50615000D01*
X147888000Y-50590000D02*
X147863000Y-50615000D01*
X167470552Y-38265000D02*
X170500000Y-35235552D01*
X176500000Y-32520000D02*
X173980000Y-32520000D01*
X148657000Y-50590000D02*
X147888000Y-50590000D01*
X173980000Y-32520000D02*
X173674000Y-32825700D01*
X148861000Y-50386400D02*
X148657000Y-50590000D01*
X170500000Y-33999600D02*
X170872000Y-33627600D01*
X147850000Y-50627500D02*
X147838000Y-50640000D01*
X160500000Y-42092400D02*
X164327400Y-38265000D01*
X160500000Y-42092400D02*
X153964000Y-42092400D01*
X147850000Y-50627500D02*
X147837500Y-50640000D01*
X164327400Y-38265000D02*
X167470552Y-38265000D01*
X147862000Y-50615000D02*
X147850000Y-50627500D01*
X170500000Y-35235552D02*
X170500000Y-33999600D01*
%TO.N,LED_G2*%
X134760000Y-79317800D02*
X142712000Y-71366000D01*
X176980000Y-69936200D02*
X173317000Y-73599600D01*
X146719000Y-51586500D02*
X146719000Y-50456800D01*
X181472000Y-35481800D02*
X181472000Y-64343100D01*
X158694000Y-83583400D02*
X135681000Y-83583400D01*
X147036000Y-50140000D02*
X147837500Y-50140000D01*
X142712000Y-55593400D02*
X146719000Y-51586500D01*
X168678000Y-73599600D02*
X158694000Y-83583400D01*
X134760000Y-82662800D02*
X134760000Y-79317800D01*
X178500000Y-32510000D02*
X181472000Y-35481800D01*
X147837500Y-50140000D02*
X147838000Y-50140000D01*
X173317000Y-73599600D02*
X168678000Y-73599600D01*
X135681000Y-83583400D02*
X134760000Y-82662800D01*
X142712000Y-71366000D02*
X142712000Y-55593400D01*
X181472000Y-64343100D02*
X176980000Y-68834900D01*
X146719000Y-50456800D02*
X147036000Y-50140000D01*
X176980000Y-68834900D02*
X176980000Y-69936200D01*
%TO.N,Net-(D7-A1)*%
X170750000Y-31240000D02*
X170750000Y-29500000D01*
X170500000Y-31490000D02*
X170750000Y-31240000D01*
%TO.N,Net-(U3-Vfb)*%
X151862000Y-63950000D02*
X151862500Y-63950000D01*
X148000000Y-62912500D02*
X149000000Y-61912500D01*
X150962000Y-63950000D02*
X149000000Y-65912500D01*
X148588000Y-65912500D02*
X148000000Y-65325000D01*
X149000000Y-65912500D02*
X148588000Y-65912500D01*
X148000000Y-65325000D02*
X148000000Y-62912500D01*
X151862000Y-63950000D02*
X150962000Y-63950000D01*
%TO.N,Net-(SW2-A)*%
X136760000Y-57750000D02*
X139240000Y-57750000D01*
X139240000Y-57750000D02*
X139490000Y-58000000D01*
%TO.N,USART3_RX*%
X145467000Y-64537500D02*
X151781000Y-70851400D01*
X158719000Y-68242900D02*
X160705000Y-68242900D01*
X153750000Y-52052500D02*
X153750000Y-52831000D01*
X160705000Y-68242900D02*
X161635000Y-69172600D01*
X158460000Y-70594200D02*
X158460000Y-68502300D01*
X158460000Y-68502300D02*
X158719000Y-68242900D01*
X151781000Y-70851400D02*
X158203000Y-70851400D01*
X148733000Y-55842000D02*
X148657000Y-55918100D01*
X149653000Y-55487400D02*
X149199000Y-55942100D01*
X161635000Y-69172600D02*
X161635000Y-69525000D01*
X145876000Y-56182900D02*
X145467000Y-56591700D01*
X148916000Y-55942100D02*
X148815000Y-55842000D01*
X148657000Y-56059500D02*
X148533000Y-56182900D01*
X151094000Y-55487400D02*
X149653000Y-55487400D01*
X158203000Y-70851400D02*
X158460000Y-70594200D01*
X148657000Y-55918100D02*
X148657000Y-56059500D01*
X153750000Y-52831000D02*
X151094000Y-55487400D01*
X148815000Y-55842000D02*
X148733000Y-55842000D01*
X145467000Y-56591700D02*
X145467000Y-64537500D01*
X148533000Y-56182900D02*
X145876000Y-56182900D01*
X149199000Y-55942100D02*
X148916000Y-55942100D01*
%TO.N,USART3_TX*%
X162905000Y-67222100D02*
X162905000Y-69525000D01*
X163000000Y-67127100D02*
X162905000Y-67222100D01*
X153250000Y-52052500D02*
X153250000Y-51063200D01*
X153250000Y-51063200D02*
X153457000Y-50856400D01*
%TO.N,Net-(D8-A1)*%
X176750000Y-31250000D02*
X176750000Y-29500000D01*
X176500000Y-31500000D02*
X176750000Y-31250000D01*
%TO.N,Net-(D8-A2)*%
X178500000Y-30150000D02*
X178500000Y-31490000D01*
%TD*%
M02*
