%TF.GenerationSoftware,KiCad,Pcbnew,8.0.8*%
%TF.CreationDate,2025-04-04T12:34:17+02:00*%
%TF.ProjectId,reader_production,72656164-6572-45f7-9072-6f6475637469,rev?*%
%TF.SameCoordinates,Original*%
%TF.FileFunction,Copper,L2,Bot*%
%TF.FilePolarity,Positive*%
%FSLAX46Y46*%
G04 Gerber Fmt 4.6, Leading zero omitted, Abs format (unit mm)*
G04 Created by KiCad (PCBNEW 8.0.8) date 2025-04-04 12:34:17*
%MOMM*%
%LPD*%
G01*
G04 APERTURE LIST*
G04 Aperture macros list*
%AMRoundRect*
0 Rectangle with rounded corners*
0 $1 Rounding radius*
0 $2 $3 $4 $5 $6 $7 $8 $9 X,Y pos of 4 corners*
0 Add a 4 corners polygon primitive as box body*
4,1,4,$2,$3,$4,$5,$6,$7,$8,$9,$2,$3,0*
0 Add four circle primitives for the rounded corners*
1,1,$1+$1,$2,$3*
1,1,$1+$1,$4,$5*
1,1,$1+$1,$6,$7*
1,1,$1+$1,$8,$9*
0 Add four rect primitives between the rounded corners*
20,1,$1+$1,$2,$3,$4,$5,0*
20,1,$1+$1,$4,$5,$6,$7,0*
20,1,$1+$1,$6,$7,$8,$9,0*
20,1,$1+$1,$8,$9,$2,$3,0*%
G04 Aperture macros list end*
%TA.AperFunction,ComponentPad*%
%ADD10R,1.350000X1.350000*%
%TD*%
%TA.AperFunction,ComponentPad*%
%ADD11R,1.700000X1.700000*%
%TD*%
%TA.AperFunction,ComponentPad*%
%ADD12O,1.700000X1.700000*%
%TD*%
%TA.AperFunction,ComponentPad*%
%ADD13RoundRect,0.250000X-0.510000X-0.510000X0.510000X-0.510000X0.510000X0.510000X-0.510000X0.510000X0*%
%TD*%
%TA.AperFunction,ComponentPad*%
%ADD14C,1.520000*%
%TD*%
%TA.AperFunction,ViaPad*%
%ADD15C,0.600000*%
%TD*%
%TA.AperFunction,Conductor*%
%ADD16C,0.200000*%
%TD*%
G04 APERTURE END LIST*
D10*
%TO.P,J2,1,Pin_1*%
%TO.N,GND*%
X167500000Y-30000000D03*
%TD*%
%TO.P,J1,1,Pin_1*%
%TO.N,Net-(J1-Pin_1)*%
X163500000Y-30000000D03*
%TD*%
D11*
%TO.P,RC522,1,Pin_1*%
%TO.N,Net-(J5-Pin_1)*%
X154160000Y-82000000D03*
D12*
%TO.P,RC522,2,Pin_2*%
%TO.N,RFID_RST*%
X151620000Y-82000000D03*
%TO.P,RC522,3,Pin_3*%
%TO.N,GND*%
X149080000Y-82000000D03*
%TO.P,RC522,4,Pin_4*%
%TO.N,unconnected-(J5-Pin_4-Pad4)*%
X146540000Y-82000000D03*
%TO.P,RC522,5,Pin_5*%
%TO.N,SP1_MISO*%
X144000000Y-82000000D03*
%TO.P,RC522,6,Pin_6*%
%TO.N,SP1_MOSI*%
X141460000Y-82000000D03*
%TO.P,RC522,7,Pin_7*%
%TO.N,SP1_SCK*%
X138920000Y-82000000D03*
%TO.P,RC522,8,Pin_8*%
%TO.N,RFID_SDA*%
X136380000Y-82000000D03*
%TD*%
D13*
%TO.P,RJ12,1*%
%TO.N,RST*%
X171900000Y-67110000D03*
D14*
%TO.P,RJ12,2*%
%TO.N,Net-(D5-A)*%
X173170000Y-69650000D03*
%TO.P,RJ12,3*%
%TO.N,Net-(U4-R1IN)*%
X174440000Y-67110000D03*
%TO.P,RJ12,4*%
%TO.N,Net-(U4-T1OUT)*%
X175710000Y-69650000D03*
%TO.P,RJ12,5*%
%TO.N,GND*%
X176980000Y-67110000D03*
%TO.P,RJ12,6*%
%TO.N,Net-(D6-A)*%
X178250000Y-69650000D03*
%TD*%
D15*
%TO.N,GND*%
X180000000Y-41000000D03*
X159000000Y-67127100D03*
X178000000Y-55500000D03*
X139000000Y-72500000D03*
X149500000Y-77000000D03*
X140000000Y-49500000D03*
X172000000Y-50500000D03*
X161000000Y-58500000D03*
X158000000Y-32430000D03*
X173000000Y-37500000D03*
X174500000Y-31000000D03*
X143023000Y-47454800D03*
X159000000Y-64446800D03*
X153997000Y-49500000D03*
X173000000Y-40000000D03*
X163000000Y-78000000D03*
X148962000Y-79038400D03*
X161500000Y-59500000D03*
X145000000Y-52000000D03*
X180500000Y-31000000D03*
X177500000Y-65000000D03*
X159000000Y-46040000D03*
X173000000Y-54000000D03*
X157155000Y-78000000D03*
X150500000Y-42500000D03*
X139000000Y-57000000D03*
X152975000Y-63000000D03*
X178500000Y-33500000D03*
X167000000Y-32500000D03*
X150500000Y-48500000D03*
X162500000Y-58500000D03*
X144000000Y-44000000D03*
X171500000Y-44480000D03*
%TO.N,+3.3V*%
X146000000Y-46500000D03*
X143000000Y-53500000D03*
%TO.N,V+*%
X169500000Y-49141000D03*
X169500000Y-47000000D03*
X169206000Y-52294000D03*
X165356000Y-58644300D03*
%TO.N,NRST*%
X141500000Y-62500000D03*
X141400000Y-59500000D03*
%TO.N,SWCLK*%
X161500000Y-49740000D03*
X161500000Y-43810000D03*
%TO.N,RST*%
X145666000Y-68000000D03*
X149639043Y-67860955D03*
X155955000Y-68000000D03*
X163505000Y-68000000D03*
X167000000Y-68000000D03*
X170502458Y-66997541D03*
X138900000Y-68000000D03*
X148000000Y-68000000D03*
%TO.N,TRACESWO*%
X162500000Y-43810000D03*
X162500000Y-49740000D03*
%TO.N,AUDIO_OUT*%
X170542041Y-36042041D03*
X169443511Y-35443511D03*
%TO.N,LED_R2*%
X173674000Y-32825700D03*
X153964000Y-42092400D03*
X149050000Y-50386400D03*
X170872000Y-33627600D03*
%TO.N,USART3_TX*%
X153457000Y-50856400D03*
X163000000Y-67127100D03*
%TD*%
D16*
%TO.N,+3.3V*%
X142500000Y-53000000D02*
X143000000Y-53500000D01*
X146000000Y-46500000D02*
X142500000Y-50000000D01*
X142500000Y-50000000D02*
X142500000Y-53000000D01*
%TO.N,V+*%
X169500000Y-49141000D02*
X169500000Y-47000000D01*
X169206000Y-52294000D02*
X165356000Y-56144300D01*
X165356000Y-56144300D02*
X165356000Y-58644300D01*
%TO.N,NRST*%
X141400000Y-59500000D02*
X141400000Y-62400000D01*
X141400000Y-62400000D02*
X141500000Y-62500000D01*
%TO.N,SWCLK*%
X161500000Y-49740000D02*
X161500000Y-43810000D01*
%TO.N,RST*%
X149639043Y-67860955D02*
X148139045Y-67860955D01*
X145666000Y-68000000D02*
X138900000Y-68000000D01*
X163505000Y-68000000D02*
X155955000Y-68000000D01*
X170502458Y-66997541D02*
X169499999Y-68000000D01*
X169499999Y-68000000D02*
X167000000Y-68000000D01*
X148139045Y-67860955D02*
X148000000Y-68000000D01*
X139039045Y-67860955D02*
X138900000Y-68000000D01*
%TO.N,TRACESWO*%
X162500000Y-49740000D02*
X162500000Y-43810000D01*
%TO.N,AUDIO_OUT*%
X169443511Y-35443511D02*
X169943511Y-35443511D01*
X169943511Y-35443511D02*
X170542041Y-36042041D01*
%TO.N,LED_R2*%
X153964000Y-42092400D02*
X149050000Y-47006100D01*
X149050000Y-47006100D02*
X149050000Y-50386400D01*
X172872000Y-33627600D02*
X170872000Y-33627600D01*
X173674000Y-32825700D02*
X172872000Y-33627600D01*
%TO.N,USART3_TX*%
X153457000Y-57583900D02*
X163000000Y-67127100D01*
X153457000Y-50856400D02*
X153457000Y-57583900D01*
%TD*%
%TA.AperFunction,Conductor*%
%TO.N,GND*%
G36*
X181942539Y-28020185D02*
G01*
X181988294Y-28072989D01*
X181999500Y-28124500D01*
X181999500Y-74972334D01*
X181979815Y-75039373D01*
X181927011Y-75085128D01*
X181857853Y-75095072D01*
X181794297Y-75066047D01*
X181768113Y-75034334D01*
X181722767Y-74955792D01*
X181573101Y-74760744D01*
X181573096Y-74760738D01*
X181399261Y-74586903D01*
X181399254Y-74586897D01*
X181204212Y-74437236D01*
X181204211Y-74437235D01*
X181204208Y-74437233D01*
X180991292Y-74314306D01*
X180991285Y-74314303D01*
X180764162Y-74220225D01*
X180764155Y-74220223D01*
X180764153Y-74220222D01*
X180526677Y-74156591D01*
X180485939Y-74151227D01*
X180282934Y-74124500D01*
X180282927Y-74124500D01*
X180037073Y-74124500D01*
X180037065Y-74124500D01*
X179805059Y-74155045D01*
X179793323Y-74156591D01*
X179555847Y-74220222D01*
X179555837Y-74220225D01*
X179328714Y-74314303D01*
X179328705Y-74314307D01*
X179115787Y-74437236D01*
X178920745Y-74586897D01*
X178920738Y-74586903D01*
X178746903Y-74760738D01*
X178746897Y-74760745D01*
X178597236Y-74955787D01*
X178597233Y-74955791D01*
X178597233Y-74955792D01*
X178580766Y-74984313D01*
X178474307Y-75168705D01*
X178474303Y-75168714D01*
X178380225Y-75395837D01*
X178380222Y-75395847D01*
X178316592Y-75633320D01*
X178316590Y-75633331D01*
X178284500Y-75877065D01*
X178284500Y-76122934D01*
X178311227Y-76325939D01*
X178316591Y-76366677D01*
X178316592Y-76366679D01*
X178380222Y-76604152D01*
X178380225Y-76604162D01*
X178474303Y-76831285D01*
X178474306Y-76831292D01*
X178597233Y-77044208D01*
X178597235Y-77044211D01*
X178597236Y-77044212D01*
X178746897Y-77239254D01*
X178746903Y-77239261D01*
X178920738Y-77413096D01*
X178920744Y-77413101D01*
X179115792Y-77562767D01*
X179328708Y-77685694D01*
X179555847Y-77779778D01*
X179793323Y-77843409D01*
X180037073Y-77875500D01*
X180037080Y-77875500D01*
X180282920Y-77875500D01*
X180282927Y-77875500D01*
X180526677Y-77843409D01*
X180764153Y-77779778D01*
X180991292Y-77685694D01*
X181204208Y-77562767D01*
X181399256Y-77413101D01*
X181573101Y-77239256D01*
X181722767Y-77044208D01*
X181768114Y-76965663D01*
X181818680Y-76917450D01*
X181887287Y-76904226D01*
X181952152Y-76930194D01*
X181992680Y-76987108D01*
X181999500Y-77027665D01*
X181999500Y-85375500D01*
X181979815Y-85442539D01*
X181927011Y-85488294D01*
X181875500Y-85499500D01*
X133124500Y-85499500D01*
X133057461Y-85479815D01*
X133011706Y-85427011D01*
X133000500Y-85375500D01*
X133000500Y-81999999D01*
X135024341Y-81999999D01*
X135024341Y-82000000D01*
X135044936Y-82235403D01*
X135044938Y-82235413D01*
X135106094Y-82463655D01*
X135106096Y-82463659D01*
X135106097Y-82463663D01*
X135185801Y-82634588D01*
X135205965Y-82677830D01*
X135205967Y-82677834D01*
X135314281Y-82832521D01*
X135341505Y-82871401D01*
X135508599Y-83038495D01*
X135605384Y-83106265D01*
X135702165Y-83174032D01*
X135702167Y-83174033D01*
X135702170Y-83174035D01*
X135916337Y-83273903D01*
X136144592Y-83335063D01*
X136321034Y-83350500D01*
X136379999Y-83355659D01*
X136380000Y-83355659D01*
X136380001Y-83355659D01*
X136438966Y-83350500D01*
X136615408Y-83335063D01*
X136843663Y-83273903D01*
X137057830Y-83174035D01*
X137251401Y-83038495D01*
X137418495Y-82871401D01*
X137548425Y-82685842D01*
X137603002Y-82642217D01*
X137672500Y-82635023D01*
X137734855Y-82666546D01*
X137751575Y-82685842D01*
X137881500Y-82871395D01*
X137881505Y-82871401D01*
X138048599Y-83038495D01*
X138145384Y-83106265D01*
X138242165Y-83174032D01*
X138242167Y-83174033D01*
X138242170Y-83174035D01*
X138456337Y-83273903D01*
X138684592Y-83335063D01*
X138861034Y-83350500D01*
X138919999Y-83355659D01*
X138920000Y-83355659D01*
X138920001Y-83355659D01*
X138978966Y-83350500D01*
X139155408Y-83335063D01*
X139383663Y-83273903D01*
X139597830Y-83174035D01*
X139791401Y-83038495D01*
X139958495Y-82871401D01*
X140088425Y-82685842D01*
X140143002Y-82642217D01*
X140212500Y-82635023D01*
X140274855Y-82666546D01*
X140291575Y-82685842D01*
X140421500Y-82871395D01*
X140421505Y-82871401D01*
X140588599Y-83038495D01*
X140685384Y-83106265D01*
X140782165Y-83174032D01*
X140782167Y-83174033D01*
X140782170Y-83174035D01*
X140996337Y-83273903D01*
X141224592Y-83335063D01*
X141401034Y-83350500D01*
X141459999Y-83355659D01*
X141460000Y-83355659D01*
X141460001Y-83355659D01*
X141518966Y-83350500D01*
X141695408Y-83335063D01*
X141923663Y-83273903D01*
X142137830Y-83174035D01*
X142331401Y-83038495D01*
X142498495Y-82871401D01*
X142628425Y-82685842D01*
X142683002Y-82642217D01*
X142752500Y-82635023D01*
X142814855Y-82666546D01*
X142831575Y-82685842D01*
X142961500Y-82871395D01*
X142961505Y-82871401D01*
X143128599Y-83038495D01*
X143225384Y-83106265D01*
X143322165Y-83174032D01*
X143322167Y-83174033D01*
X143322170Y-83174035D01*
X143536337Y-83273903D01*
X143764592Y-83335063D01*
X143941034Y-83350500D01*
X143999999Y-83355659D01*
X144000000Y-83355659D01*
X144000001Y-83355659D01*
X144058966Y-83350500D01*
X144235408Y-83335063D01*
X144463663Y-83273903D01*
X144677830Y-83174035D01*
X144871401Y-83038495D01*
X145038495Y-82871401D01*
X145168425Y-82685842D01*
X145223002Y-82642217D01*
X145292500Y-82635023D01*
X145354855Y-82666546D01*
X145371575Y-82685842D01*
X145501500Y-82871395D01*
X145501505Y-82871401D01*
X145668599Y-83038495D01*
X145765384Y-83106265D01*
X145862165Y-83174032D01*
X145862167Y-83174033D01*
X145862170Y-83174035D01*
X146076337Y-83273903D01*
X146304592Y-83335063D01*
X146481034Y-83350500D01*
X146539999Y-83355659D01*
X146540000Y-83355659D01*
X146540001Y-83355659D01*
X146598966Y-83350500D01*
X146775408Y-83335063D01*
X147003663Y-83273903D01*
X147217830Y-83174035D01*
X147411401Y-83038495D01*
X147578495Y-82871401D01*
X147708730Y-82685405D01*
X147763307Y-82641781D01*
X147832805Y-82634587D01*
X147895160Y-82666110D01*
X147911879Y-82685405D01*
X148041890Y-82871078D01*
X148208917Y-83038105D01*
X148402421Y-83173600D01*
X148616507Y-83273429D01*
X148616516Y-83273433D01*
X148830000Y-83330634D01*
X148830000Y-82433012D01*
X148887007Y-82465925D01*
X149014174Y-82500000D01*
X149145826Y-82500000D01*
X149272993Y-82465925D01*
X149330000Y-82433012D01*
X149330000Y-83330633D01*
X149543483Y-83273433D01*
X149543492Y-83273429D01*
X149757578Y-83173600D01*
X149951082Y-83038105D01*
X150118105Y-82871082D01*
X150248119Y-82685405D01*
X150302696Y-82641781D01*
X150372195Y-82634588D01*
X150434549Y-82666110D01*
X150451269Y-82685405D01*
X150581505Y-82871401D01*
X150748599Y-83038495D01*
X150845384Y-83106265D01*
X150942165Y-83174032D01*
X150942167Y-83174033D01*
X150942170Y-83174035D01*
X151156337Y-83273903D01*
X151384592Y-83335063D01*
X151561034Y-83350500D01*
X151619999Y-83355659D01*
X151620000Y-83355659D01*
X151620001Y-83355659D01*
X151678966Y-83350500D01*
X151855408Y-83335063D01*
X152083663Y-83273903D01*
X152297830Y-83174035D01*
X152491401Y-83038495D01*
X152613329Y-82916566D01*
X152674648Y-82883084D01*
X152744340Y-82888068D01*
X152800274Y-82929939D01*
X152817189Y-82960917D01*
X152866202Y-83092328D01*
X152866206Y-83092335D01*
X152952452Y-83207544D01*
X152952455Y-83207547D01*
X153067664Y-83293793D01*
X153067671Y-83293797D01*
X153202517Y-83344091D01*
X153202516Y-83344091D01*
X153209444Y-83344835D01*
X153262127Y-83350500D01*
X155057872Y-83350499D01*
X155117483Y-83344091D01*
X155252331Y-83293796D01*
X155367546Y-83207546D01*
X155453796Y-83092331D01*
X155504091Y-82957483D01*
X155510500Y-82897873D01*
X155510499Y-81102128D01*
X155504091Y-81042517D01*
X155502810Y-81039083D01*
X155453797Y-80907671D01*
X155453793Y-80907664D01*
X155367547Y-80792455D01*
X155367544Y-80792452D01*
X155252335Y-80706206D01*
X155252328Y-80706202D01*
X155117482Y-80655908D01*
X155117483Y-80655908D01*
X155057883Y-80649501D01*
X155057881Y-80649500D01*
X155057873Y-80649500D01*
X155057864Y-80649500D01*
X153262129Y-80649500D01*
X153262123Y-80649501D01*
X153202516Y-80655908D01*
X153067671Y-80706202D01*
X153067664Y-80706206D01*
X152952455Y-80792452D01*
X152952452Y-80792455D01*
X152866206Y-80907664D01*
X152866203Y-80907669D01*
X152817189Y-81039083D01*
X152775317Y-81095016D01*
X152709853Y-81119433D01*
X152641580Y-81104581D01*
X152613326Y-81083430D01*
X152491402Y-80961506D01*
X152491395Y-80961501D01*
X152297834Y-80825967D01*
X152297830Y-80825965D01*
X152297828Y-80825964D01*
X152083663Y-80726097D01*
X152083659Y-80726096D01*
X152083655Y-80726094D01*
X151855413Y-80664938D01*
X151855403Y-80664936D01*
X151620001Y-80644341D01*
X151619999Y-80644341D01*
X151384596Y-80664936D01*
X151384586Y-80664938D01*
X151156344Y-80726094D01*
X151156335Y-80726098D01*
X150942171Y-80825964D01*
X150942169Y-80825965D01*
X150748597Y-80961505D01*
X150581508Y-81128594D01*
X150451269Y-81314595D01*
X150396692Y-81358219D01*
X150327193Y-81365412D01*
X150264839Y-81333890D01*
X150248119Y-81314594D01*
X150118113Y-81128926D01*
X150118108Y-81128920D01*
X149951082Y-80961894D01*
X149757578Y-80826399D01*
X149543492Y-80726570D01*
X149543486Y-80726567D01*
X149330000Y-80669364D01*
X149330000Y-81566988D01*
X149272993Y-81534075D01*
X149145826Y-81500000D01*
X149014174Y-81500000D01*
X148887007Y-81534075D01*
X148830000Y-81566988D01*
X148830000Y-80669364D01*
X148829999Y-80669364D01*
X148616513Y-80726567D01*
X148616507Y-80726570D01*
X148402422Y-80826399D01*
X148402420Y-80826400D01*
X148208926Y-80961886D01*
X148208920Y-80961891D01*
X148041891Y-81128920D01*
X148041890Y-81128922D01*
X147911880Y-81314595D01*
X147857303Y-81358219D01*
X147787804Y-81365412D01*
X147725450Y-81333890D01*
X147708730Y-81314594D01*
X147578494Y-81128597D01*
X147411402Y-80961506D01*
X147411395Y-80961501D01*
X147217834Y-80825967D01*
X147217830Y-80825965D01*
X147217828Y-80825964D01*
X147003663Y-80726097D01*
X147003659Y-80726096D01*
X147003655Y-80726094D01*
X146775413Y-80664938D01*
X146775403Y-80664936D01*
X146540001Y-80644341D01*
X146539999Y-80644341D01*
X146304596Y-80664936D01*
X146304586Y-80664938D01*
X146076344Y-80726094D01*
X146076335Y-80726098D01*
X145862171Y-80825964D01*
X145862169Y-80825965D01*
X145668597Y-80961505D01*
X145501505Y-81128597D01*
X145371575Y-81314158D01*
X145316998Y-81357783D01*
X145247500Y-81364977D01*
X145185145Y-81333454D01*
X145168425Y-81314158D01*
X145038494Y-81128597D01*
X144871402Y-80961506D01*
X144871395Y-80961501D01*
X144677834Y-80825967D01*
X144677830Y-80825965D01*
X144677828Y-80825964D01*
X144463663Y-80726097D01*
X144463659Y-80726096D01*
X144463655Y-80726094D01*
X144235413Y-80664938D01*
X144235403Y-80664936D01*
X144000001Y-80644341D01*
X143999999Y-80644341D01*
X143764596Y-80664936D01*
X143764586Y-80664938D01*
X143536344Y-80726094D01*
X143536335Y-80726098D01*
X143322171Y-80825964D01*
X143322169Y-80825965D01*
X143128597Y-80961505D01*
X142961505Y-81128597D01*
X142831575Y-81314158D01*
X142776998Y-81357783D01*
X142707500Y-81364977D01*
X142645145Y-81333454D01*
X142628425Y-81314158D01*
X142498494Y-81128597D01*
X142331402Y-80961506D01*
X142331395Y-80961501D01*
X142137834Y-80825967D01*
X142137830Y-80825965D01*
X142137828Y-80825964D01*
X141923663Y-80726097D01*
X141923659Y-80726096D01*
X141923655Y-80726094D01*
X141695413Y-80664938D01*
X141695403Y-80664936D01*
X141460001Y-80644341D01*
X141459999Y-80644341D01*
X141224596Y-80664936D01*
X141224586Y-80664938D01*
X140996344Y-80726094D01*
X140996335Y-80726098D01*
X140782171Y-80825964D01*
X140782169Y-80825965D01*
X140588597Y-80961505D01*
X140421505Y-81128597D01*
X140291575Y-81314158D01*
X140236998Y-81357783D01*
X140167500Y-81364977D01*
X140105145Y-81333454D01*
X140088425Y-81314158D01*
X139958494Y-81128597D01*
X139791402Y-80961506D01*
X139791395Y-80961501D01*
X139597834Y-80825967D01*
X139597830Y-80825965D01*
X139597828Y-80825964D01*
X139383663Y-80726097D01*
X139383659Y-80726096D01*
X139383655Y-80726094D01*
X139155413Y-80664938D01*
X139155403Y-80664936D01*
X138920001Y-80644341D01*
X138919999Y-80644341D01*
X138684596Y-80664936D01*
X138684586Y-80664938D01*
X138456344Y-80726094D01*
X138456335Y-80726098D01*
X138242171Y-80825964D01*
X138242169Y-80825965D01*
X138048597Y-80961505D01*
X137881505Y-81128597D01*
X137751575Y-81314158D01*
X137696998Y-81357783D01*
X137627500Y-81364977D01*
X137565145Y-81333454D01*
X137548425Y-81314158D01*
X137418494Y-81128597D01*
X137251402Y-80961506D01*
X137251395Y-80961501D01*
X137057834Y-80825967D01*
X137057830Y-80825965D01*
X137057828Y-80825964D01*
X136843663Y-80726097D01*
X136843659Y-80726096D01*
X136843655Y-80726094D01*
X136615413Y-80664938D01*
X136615403Y-80664936D01*
X136380001Y-80644341D01*
X136379999Y-80644341D01*
X136144596Y-80664936D01*
X136144586Y-80664938D01*
X135916344Y-80726094D01*
X135916335Y-80726098D01*
X135702171Y-80825964D01*
X135702169Y-80825965D01*
X135508597Y-80961505D01*
X135341505Y-81128597D01*
X135205965Y-81322169D01*
X135205964Y-81322171D01*
X135106098Y-81536335D01*
X135106094Y-81536344D01*
X135044938Y-81764586D01*
X135044936Y-81764596D01*
X135024341Y-81999999D01*
X133000500Y-81999999D01*
X133000500Y-75877065D01*
X168124500Y-75877065D01*
X168124500Y-76122934D01*
X168151227Y-76325939D01*
X168156591Y-76366677D01*
X168156592Y-76366679D01*
X168220222Y-76604152D01*
X168220225Y-76604162D01*
X168314303Y-76831285D01*
X168314306Y-76831292D01*
X168437233Y-77044208D01*
X168437235Y-77044211D01*
X168437236Y-77044212D01*
X168586897Y-77239254D01*
X168586903Y-77239261D01*
X168760738Y-77413096D01*
X168760744Y-77413101D01*
X168955792Y-77562767D01*
X169168708Y-77685694D01*
X169395847Y-77779778D01*
X169633323Y-77843409D01*
X169877073Y-77875500D01*
X169877080Y-77875500D01*
X170122920Y-77875500D01*
X170122927Y-77875500D01*
X170366677Y-77843409D01*
X170604153Y-77779778D01*
X170831292Y-77685694D01*
X171044208Y-77562767D01*
X171239256Y-77413101D01*
X171413101Y-77239256D01*
X171562767Y-77044208D01*
X171685694Y-76831292D01*
X171779778Y-76604153D01*
X171843409Y-76366677D01*
X171875500Y-76122927D01*
X171875500Y-75877073D01*
X171843409Y-75633323D01*
X171779778Y-75395847D01*
X171685694Y-75168708D01*
X171562767Y-74955792D01*
X171413101Y-74760744D01*
X171413096Y-74760738D01*
X171239261Y-74586903D01*
X171239254Y-74586897D01*
X171044212Y-74437236D01*
X171044211Y-74437235D01*
X171044208Y-74437233D01*
X170831292Y-74314306D01*
X170831285Y-74314303D01*
X170604162Y-74220225D01*
X170604155Y-74220223D01*
X170604153Y-74220222D01*
X170366677Y-74156591D01*
X170325939Y-74151227D01*
X170122934Y-74124500D01*
X170122927Y-74124500D01*
X169877073Y-74124500D01*
X169877065Y-74124500D01*
X169645059Y-74155045D01*
X169633323Y-74156591D01*
X169395847Y-74220222D01*
X169395837Y-74220225D01*
X169168714Y-74314303D01*
X169168705Y-74314307D01*
X168955787Y-74437236D01*
X168760745Y-74586897D01*
X168760738Y-74586903D01*
X168586903Y-74760738D01*
X168586897Y-74760745D01*
X168437236Y-74955787D01*
X168437233Y-74955791D01*
X168437233Y-74955792D01*
X168420766Y-74984313D01*
X168314307Y-75168705D01*
X168314303Y-75168714D01*
X168220225Y-75395837D01*
X168220222Y-75395847D01*
X168156592Y-75633320D01*
X168156590Y-75633331D01*
X168124500Y-75877065D01*
X133000500Y-75877065D01*
X133000500Y-72068995D01*
X134299499Y-72068995D01*
X134326418Y-72204322D01*
X134326421Y-72204332D01*
X134379221Y-72331804D01*
X134379228Y-72331817D01*
X134455885Y-72446541D01*
X134455888Y-72446545D01*
X134553454Y-72544111D01*
X134553458Y-72544114D01*
X134668182Y-72620771D01*
X134668195Y-72620778D01*
X134795667Y-72673578D01*
X134795672Y-72673580D01*
X134795676Y-72673580D01*
X134795677Y-72673581D01*
X134931004Y-72700500D01*
X134931007Y-72700500D01*
X135068995Y-72700500D01*
X135160041Y-72682389D01*
X135204328Y-72673580D01*
X135331811Y-72620775D01*
X135446542Y-72544114D01*
X135544114Y-72446542D01*
X135620775Y-72331811D01*
X135673580Y-72204328D01*
X135700500Y-72068993D01*
X135700500Y-71931007D01*
X135700500Y-71931004D01*
X135673581Y-71795677D01*
X135673580Y-71795676D01*
X135673580Y-71795672D01*
X135673578Y-71795667D01*
X135620778Y-71668195D01*
X135620771Y-71668182D01*
X135544114Y-71553458D01*
X135544111Y-71553454D01*
X135446545Y-71455888D01*
X135446541Y-71455885D01*
X135331817Y-71379228D01*
X135331804Y-71379221D01*
X135204332Y-71326421D01*
X135204322Y-71326418D01*
X135068995Y-71299500D01*
X135068993Y-71299500D01*
X134931007Y-71299500D01*
X134931005Y-71299500D01*
X134795677Y-71326418D01*
X134795667Y-71326421D01*
X134668195Y-71379221D01*
X134668182Y-71379228D01*
X134553458Y-71455885D01*
X134553454Y-71455888D01*
X134455888Y-71553454D01*
X134455885Y-71553458D01*
X134379228Y-71668182D01*
X134379221Y-71668195D01*
X134326421Y-71795667D01*
X134326418Y-71795677D01*
X134299500Y-71931004D01*
X134299500Y-71931007D01*
X134299500Y-72068993D01*
X134299500Y-72068995D01*
X134299499Y-72068995D01*
X133000500Y-72068995D01*
X133000500Y-69068995D01*
X134299499Y-69068995D01*
X134326418Y-69204322D01*
X134326421Y-69204332D01*
X134379221Y-69331804D01*
X134379228Y-69331817D01*
X134455885Y-69446541D01*
X134455888Y-69446545D01*
X134553454Y-69544111D01*
X134553458Y-69544114D01*
X134668182Y-69620771D01*
X134668195Y-69620778D01*
X134795667Y-69673578D01*
X134795672Y-69673580D01*
X134795676Y-69673580D01*
X134795677Y-69673581D01*
X134931004Y-69700500D01*
X134931007Y-69700500D01*
X135068995Y-69700500D01*
X135160041Y-69682389D01*
X135204328Y-69673580D01*
X135331811Y-69620775D01*
X135446542Y-69544114D01*
X135544114Y-69446542D01*
X135620775Y-69331811D01*
X135673580Y-69204328D01*
X135700500Y-69068993D01*
X135700500Y-68931007D01*
X135700500Y-68931004D01*
X135673581Y-68795677D01*
X135673580Y-68795676D01*
X135673580Y-68795672D01*
X135644634Y-68725789D01*
X135620778Y-68668195D01*
X135620771Y-68668182D01*
X135544114Y-68553458D01*
X135544111Y-68553454D01*
X135446545Y-68455888D01*
X135446541Y-68455885D01*
X135331817Y-68379228D01*
X135331804Y-68379221D01*
X135204332Y-68326421D01*
X135204322Y-68326418D01*
X135068995Y-68299500D01*
X135068993Y-68299500D01*
X134931007Y-68299500D01*
X134931005Y-68299500D01*
X134795677Y-68326418D01*
X134795667Y-68326421D01*
X134668195Y-68379221D01*
X134668182Y-68379228D01*
X134553458Y-68455885D01*
X134553454Y-68455888D01*
X134455888Y-68553454D01*
X134455885Y-68553458D01*
X134379228Y-68668182D01*
X134379221Y-68668195D01*
X134326421Y-68795667D01*
X134326418Y-68795677D01*
X134299500Y-68931004D01*
X134299500Y-68931007D01*
X134299500Y-69068993D01*
X134299500Y-69068995D01*
X134299499Y-69068995D01*
X133000500Y-69068995D01*
X133000500Y-67999996D01*
X138094435Y-67999996D01*
X138094435Y-68000003D01*
X138114630Y-68179249D01*
X138114631Y-68179254D01*
X138174211Y-68349523D01*
X138256912Y-68481140D01*
X138270184Y-68502262D01*
X138397738Y-68629816D01*
X138550478Y-68725789D01*
X138720745Y-68785368D01*
X138720750Y-68785369D01*
X138899996Y-68805565D01*
X138900000Y-68805565D01*
X138900004Y-68805565D01*
X139079249Y-68785369D01*
X139079252Y-68785368D01*
X139079255Y-68785368D01*
X139249522Y-68725789D01*
X139402262Y-68629816D01*
X139402267Y-68629810D01*
X139405097Y-68627555D01*
X139407275Y-68626665D01*
X139408158Y-68626111D01*
X139408255Y-68626265D01*
X139469783Y-68601145D01*
X139482412Y-68600500D01*
X145083588Y-68600500D01*
X145150627Y-68620185D01*
X145160903Y-68627555D01*
X145163736Y-68629814D01*
X145163738Y-68629816D01*
X145316478Y-68725789D01*
X145486745Y-68785368D01*
X145486750Y-68785369D01*
X145665996Y-68805565D01*
X145666000Y-68805565D01*
X145666004Y-68805565D01*
X145845249Y-68785369D01*
X145845252Y-68785368D01*
X145845255Y-68785368D01*
X146015522Y-68725789D01*
X146168262Y-68629816D01*
X146295816Y-68502262D01*
X146391789Y-68349522D01*
X146451368Y-68179255D01*
X146453503Y-68160305D01*
X146471565Y-68000003D01*
X146471565Y-67999996D01*
X147194435Y-67999996D01*
X147194435Y-68000003D01*
X147214630Y-68179249D01*
X147214631Y-68179254D01*
X147274211Y-68349523D01*
X147356912Y-68481140D01*
X147370184Y-68502262D01*
X147497738Y-68629816D01*
X147650478Y-68725789D01*
X147820745Y-68785368D01*
X147820750Y-68785369D01*
X147999996Y-68805565D01*
X148000000Y-68805565D01*
X148000004Y-68805565D01*
X148179249Y-68785369D01*
X148179252Y-68785368D01*
X148179255Y-68785368D01*
X148349522Y-68725789D01*
X148502262Y-68629816D01*
X148629816Y-68502262D01*
X148629816Y-68502261D01*
X148634304Y-68497774D01*
X148695627Y-68464289D01*
X148721985Y-68461455D01*
X149056631Y-68461455D01*
X149123670Y-68481140D01*
X149133946Y-68488510D01*
X149136779Y-68490769D01*
X149136781Y-68490771D01*
X149289521Y-68586744D01*
X149402466Y-68626265D01*
X149459788Y-68646323D01*
X149459793Y-68646324D01*
X149639039Y-68666520D01*
X149639043Y-68666520D01*
X149639047Y-68666520D01*
X149818292Y-68646324D01*
X149818295Y-68646323D01*
X149818298Y-68646323D01*
X149988565Y-68586744D01*
X150141305Y-68490771D01*
X150268859Y-68363217D01*
X150364832Y-68210477D01*
X150424411Y-68040210D01*
X150424412Y-68040204D01*
X150444608Y-67860958D01*
X150444608Y-67860951D01*
X150424412Y-67681705D01*
X150424411Y-67681700D01*
X150399142Y-67609485D01*
X150364832Y-67511433D01*
X150268859Y-67358693D01*
X150141305Y-67231139D01*
X150115031Y-67214630D01*
X149988566Y-67135166D01*
X149818297Y-67075586D01*
X149818292Y-67075585D01*
X149639047Y-67055390D01*
X149639039Y-67055390D01*
X149459793Y-67075585D01*
X149459788Y-67075586D01*
X149289519Y-67135166D01*
X149136779Y-67231140D01*
X149133946Y-67233400D01*
X149131767Y-67234289D01*
X149130885Y-67234844D01*
X149130787Y-67234689D01*
X149069260Y-67259810D01*
X149056631Y-67260455D01*
X148331279Y-67260455D01*
X148290324Y-67253496D01*
X148179262Y-67214633D01*
X148179249Y-67214630D01*
X148000004Y-67194435D01*
X147999996Y-67194435D01*
X147820750Y-67214630D01*
X147820745Y-67214631D01*
X147650476Y-67274211D01*
X147497737Y-67370184D01*
X147370184Y-67497737D01*
X147274211Y-67650476D01*
X147214631Y-67820745D01*
X147214630Y-67820750D01*
X147194435Y-67999996D01*
X146471565Y-67999996D01*
X146451369Y-67820750D01*
X146451368Y-67820745D01*
X146432327Y-67766329D01*
X146391789Y-67650478D01*
X146295816Y-67497738D01*
X146168262Y-67370184D01*
X146125516Y-67343325D01*
X146015523Y-67274211D01*
X145845254Y-67214631D01*
X145845249Y-67214630D01*
X145666004Y-67194435D01*
X145665996Y-67194435D01*
X145486750Y-67214630D01*
X145486745Y-67214631D01*
X145316476Y-67274211D01*
X145163736Y-67370185D01*
X145160903Y-67372445D01*
X145158724Y-67373334D01*
X145157842Y-67373889D01*
X145157744Y-67373734D01*
X145096217Y-67398855D01*
X145083588Y-67399500D01*
X139482412Y-67399500D01*
X139415373Y-67379815D01*
X139405097Y-67372445D01*
X139402263Y-67370185D01*
X139402262Y-67370184D01*
X139345496Y-67334515D01*
X139249523Y-67274211D01*
X139079254Y-67214631D01*
X139079249Y-67214630D01*
X138900004Y-67194435D01*
X138899996Y-67194435D01*
X138720750Y-67214630D01*
X138720745Y-67214631D01*
X138550476Y-67274211D01*
X138397737Y-67370184D01*
X138270184Y-67497737D01*
X138174211Y-67650476D01*
X138114631Y-67820745D01*
X138114630Y-67820750D01*
X138094435Y-67999996D01*
X133000500Y-67999996D01*
X133000500Y-61568995D01*
X134299499Y-61568995D01*
X134326418Y-61704322D01*
X134326421Y-61704332D01*
X134379221Y-61831804D01*
X134379228Y-61831817D01*
X134455885Y-61946541D01*
X134455888Y-61946545D01*
X134553454Y-62044111D01*
X134553458Y-62044114D01*
X134668182Y-62120771D01*
X134668195Y-62120778D01*
X134795667Y-62173578D01*
X134795672Y-62173580D01*
X134795676Y-62173580D01*
X134795677Y-62173581D01*
X134931004Y-62200500D01*
X134931007Y-62200500D01*
X135068995Y-62200500D01*
X135160041Y-62182389D01*
X135204328Y-62173580D01*
X135331811Y-62120775D01*
X135446542Y-62044114D01*
X135544114Y-61946542D01*
X135620775Y-61831811D01*
X135626886Y-61817059D01*
X135673578Y-61704332D01*
X135673580Y-61704328D01*
X135700500Y-61568993D01*
X135700500Y-61431007D01*
X135700500Y-61431004D01*
X135673581Y-61295677D01*
X135673580Y-61295676D01*
X135673580Y-61295672D01*
X135673578Y-61295667D01*
X135620778Y-61168195D01*
X135620771Y-61168182D01*
X135544114Y-61053458D01*
X135544111Y-61053454D01*
X135446545Y-60955888D01*
X135446541Y-60955885D01*
X135331817Y-60879228D01*
X135331804Y-60879221D01*
X135204332Y-60826421D01*
X135204322Y-60826418D01*
X135068995Y-60799500D01*
X135068993Y-60799500D01*
X134931007Y-60799500D01*
X134931005Y-60799500D01*
X134795677Y-60826418D01*
X134795667Y-60826421D01*
X134668195Y-60879221D01*
X134668182Y-60879228D01*
X134553458Y-60955885D01*
X134553454Y-60955888D01*
X134455888Y-61053454D01*
X134455885Y-61053458D01*
X134379228Y-61168182D01*
X134379221Y-61168195D01*
X134326421Y-61295667D01*
X134326418Y-61295677D01*
X134299500Y-61431004D01*
X134299500Y-61431007D01*
X134299500Y-61568993D01*
X134299500Y-61568995D01*
X134299499Y-61568995D01*
X133000500Y-61568995D01*
X133000500Y-59499996D01*
X140594435Y-59499996D01*
X140594435Y-59500003D01*
X140614630Y-59679249D01*
X140614631Y-59679254D01*
X140674211Y-59849523D01*
X140770185Y-60002263D01*
X140772445Y-60005097D01*
X140773334Y-60007275D01*
X140773889Y-60008158D01*
X140773734Y-60008255D01*
X140798855Y-60069783D01*
X140799500Y-60082412D01*
X140799500Y-62074507D01*
X140780494Y-62140478D01*
X140774209Y-62150479D01*
X140714633Y-62320737D01*
X140714630Y-62320750D01*
X140694435Y-62499996D01*
X140694435Y-62500003D01*
X140714630Y-62679249D01*
X140714631Y-62679254D01*
X140774211Y-62849523D01*
X140870184Y-63002262D01*
X140997738Y-63129816D01*
X141150478Y-63225789D01*
X141320745Y-63285368D01*
X141320750Y-63285369D01*
X141499996Y-63305565D01*
X141500000Y-63305565D01*
X141500004Y-63305565D01*
X141679249Y-63285369D01*
X141679252Y-63285368D01*
X141679255Y-63285368D01*
X141849522Y-63225789D01*
X142002262Y-63129816D01*
X142129816Y-63002262D01*
X142225789Y-62849522D01*
X142285368Y-62679255D01*
X142305565Y-62500000D01*
X142285368Y-62320745D01*
X142225789Y-62150478D01*
X142200499Y-62110230D01*
X142158954Y-62044111D01*
X142129816Y-61997738D01*
X142036818Y-61904740D01*
X142003334Y-61843416D01*
X142000500Y-61817059D01*
X142000500Y-60082412D01*
X142020185Y-60015373D01*
X142027555Y-60005097D01*
X142029810Y-60002267D01*
X142029816Y-60002262D01*
X142125789Y-59849522D01*
X142185368Y-59679255D01*
X142205565Y-59500000D01*
X142199916Y-59449865D01*
X142185369Y-59320750D01*
X142185368Y-59320745D01*
X142133873Y-59173581D01*
X142125789Y-59150478D01*
X142123328Y-59146562D01*
X142029815Y-58997737D01*
X141902262Y-58870184D01*
X141749523Y-58774211D01*
X141579254Y-58714631D01*
X141579249Y-58714630D01*
X141400004Y-58694435D01*
X141399996Y-58694435D01*
X141220750Y-58714630D01*
X141220745Y-58714631D01*
X141050476Y-58774211D01*
X140897737Y-58870184D01*
X140770184Y-58997737D01*
X140674211Y-59150476D01*
X140614631Y-59320745D01*
X140614630Y-59320750D01*
X140594435Y-59499996D01*
X133000500Y-59499996D01*
X133000500Y-58568995D01*
X134299499Y-58568995D01*
X134326418Y-58704322D01*
X134326421Y-58704332D01*
X134379221Y-58831804D01*
X134379228Y-58831817D01*
X134455885Y-58946541D01*
X134455888Y-58946545D01*
X134553454Y-59044111D01*
X134553458Y-59044114D01*
X134668182Y-59120771D01*
X134668195Y-59120778D01*
X134795667Y-59173578D01*
X134795672Y-59173580D01*
X134795676Y-59173580D01*
X134795677Y-59173581D01*
X134931004Y-59200500D01*
X134931007Y-59200500D01*
X135068995Y-59200500D01*
X135160041Y-59182389D01*
X135204328Y-59173580D01*
X135331811Y-59120775D01*
X135446542Y-59044114D01*
X135544114Y-58946542D01*
X135620775Y-58831811D01*
X135673580Y-58704328D01*
X135700500Y-58568993D01*
X135700500Y-58431007D01*
X135700500Y-58431004D01*
X135673581Y-58295677D01*
X135673580Y-58295676D01*
X135673580Y-58295672D01*
X135673209Y-58294776D01*
X135620778Y-58168195D01*
X135620771Y-58168182D01*
X135544114Y-58053458D01*
X135544111Y-58053454D01*
X135446545Y-57955888D01*
X135446541Y-57955885D01*
X135331817Y-57879228D01*
X135331804Y-57879221D01*
X135204332Y-57826421D01*
X135204322Y-57826418D01*
X135068995Y-57799500D01*
X135068993Y-57799500D01*
X134931007Y-57799500D01*
X134931005Y-57799500D01*
X134795677Y-57826418D01*
X134795667Y-57826421D01*
X134668195Y-57879221D01*
X134668182Y-57879228D01*
X134553458Y-57955885D01*
X134553454Y-57955888D01*
X134455888Y-58053454D01*
X134455885Y-58053458D01*
X134379228Y-58168182D01*
X134379221Y-58168195D01*
X134326421Y-58295667D01*
X134326418Y-58295677D01*
X134299500Y-58431004D01*
X134299500Y-58431007D01*
X134299500Y-58568993D01*
X134299500Y-58568995D01*
X134299499Y-58568995D01*
X133000500Y-58568995D01*
X133000500Y-53079054D01*
X141899498Y-53079054D01*
X141940423Y-53231785D01*
X141961457Y-53268216D01*
X141991784Y-53320745D01*
X142019479Y-53368715D01*
X142131284Y-53480520D01*
X142131285Y-53480522D01*
X142169298Y-53518535D01*
X142202783Y-53579858D01*
X142204837Y-53592332D01*
X142214630Y-53679249D01*
X142274210Y-53849521D01*
X142370184Y-54002262D01*
X142497738Y-54129816D01*
X142650478Y-54225789D01*
X142820745Y-54285368D01*
X142820750Y-54285369D01*
X142999996Y-54305565D01*
X143000000Y-54305565D01*
X143000004Y-54305565D01*
X143179249Y-54285369D01*
X143179252Y-54285368D01*
X143179255Y-54285368D01*
X143349522Y-54225789D01*
X143502262Y-54129816D01*
X143629816Y-54002262D01*
X143725789Y-53849522D01*
X143785368Y-53679255D01*
X143795162Y-53592332D01*
X143805565Y-53500003D01*
X143805565Y-53499996D01*
X143785369Y-53320750D01*
X143785368Y-53320745D01*
X143766987Y-53268215D01*
X143725789Y-53150478D01*
X143629816Y-52997738D01*
X143502262Y-52870184D01*
X143384616Y-52796262D01*
X143349521Y-52774210D01*
X143256845Y-52741781D01*
X143183544Y-52716132D01*
X143126770Y-52675412D01*
X143101022Y-52610460D01*
X143100500Y-52599092D01*
X143100500Y-50386396D01*
X148244435Y-50386396D01*
X148244435Y-50386403D01*
X148264630Y-50565649D01*
X148264631Y-50565654D01*
X148324211Y-50735923D01*
X148373585Y-50814500D01*
X148420184Y-50888662D01*
X148547738Y-51016216D01*
X148700478Y-51112189D01*
X148859585Y-51167863D01*
X148870745Y-51171768D01*
X148870750Y-51171769D01*
X149049996Y-51191965D01*
X149050000Y-51191965D01*
X149050004Y-51191965D01*
X149229249Y-51171769D01*
X149229252Y-51171768D01*
X149229255Y-51171768D01*
X149399522Y-51112189D01*
X149552262Y-51016216D01*
X149679816Y-50888662D01*
X149700090Y-50856396D01*
X152651435Y-50856396D01*
X152651435Y-50856403D01*
X152671630Y-51035649D01*
X152671631Y-51035654D01*
X152731211Y-51205923D01*
X152827185Y-51358663D01*
X152829445Y-51361497D01*
X152830334Y-51363675D01*
X152830889Y-51364558D01*
X152830734Y-51364655D01*
X152855855Y-51426183D01*
X152856500Y-51438812D01*
X152856500Y-57504837D01*
X152856499Y-57663141D01*
X152856556Y-57663529D01*
X152857461Y-57666544D01*
X152876111Y-57736149D01*
X152897422Y-57815683D01*
X152976477Y-57952612D01*
X152976481Y-57952617D01*
X153055469Y-58031605D01*
X162169298Y-67145625D01*
X162202782Y-67206948D01*
X162204836Y-67219419D01*
X162209591Y-67261614D01*
X162197538Y-67330436D01*
X162150189Y-67381817D01*
X162086371Y-67399500D01*
X156537412Y-67399500D01*
X156470373Y-67379815D01*
X156460097Y-67372445D01*
X156457263Y-67370185D01*
X156457262Y-67370184D01*
X156400496Y-67334515D01*
X156304523Y-67274211D01*
X156134254Y-67214631D01*
X156134249Y-67214630D01*
X155955004Y-67194435D01*
X155954996Y-67194435D01*
X155775750Y-67214630D01*
X155775745Y-67214631D01*
X155605476Y-67274211D01*
X155452737Y-67370184D01*
X155325184Y-67497737D01*
X155229211Y-67650476D01*
X155169631Y-67820745D01*
X155169630Y-67820750D01*
X155149435Y-67999996D01*
X155149435Y-68000003D01*
X155169630Y-68179249D01*
X155169631Y-68179254D01*
X155229211Y-68349523D01*
X155311912Y-68481140D01*
X155325184Y-68502262D01*
X155452738Y-68629816D01*
X155605478Y-68725789D01*
X155775745Y-68785368D01*
X155775750Y-68785369D01*
X155954996Y-68805565D01*
X155955000Y-68805565D01*
X155955004Y-68805565D01*
X156134249Y-68785369D01*
X156134252Y-68785368D01*
X156134255Y-68785368D01*
X156304522Y-68725789D01*
X156457262Y-68629816D01*
X156457267Y-68629810D01*
X156460097Y-68627555D01*
X156462275Y-68626665D01*
X156463158Y-68626111D01*
X156463255Y-68626265D01*
X156524783Y-68601145D01*
X156537412Y-68600500D01*
X162922588Y-68600500D01*
X162989627Y-68620185D01*
X162999903Y-68627555D01*
X163002736Y-68629814D01*
X163002738Y-68629816D01*
X163155478Y-68725789D01*
X163325745Y-68785368D01*
X163325750Y-68785369D01*
X163504996Y-68805565D01*
X163505000Y-68805565D01*
X163505004Y-68805565D01*
X163684249Y-68785369D01*
X163684252Y-68785368D01*
X163684255Y-68785368D01*
X163854522Y-68725789D01*
X164007262Y-68629816D01*
X164134816Y-68502262D01*
X164230789Y-68349522D01*
X164290368Y-68179255D01*
X164292503Y-68160305D01*
X164310565Y-68000003D01*
X164310565Y-67999996D01*
X166194435Y-67999996D01*
X166194435Y-68000003D01*
X166214630Y-68179249D01*
X166214631Y-68179254D01*
X166274211Y-68349523D01*
X166356912Y-68481140D01*
X166370184Y-68502262D01*
X166497738Y-68629816D01*
X166650478Y-68725789D01*
X166820745Y-68785368D01*
X166820750Y-68785369D01*
X166999996Y-68805565D01*
X167000000Y-68805565D01*
X167000004Y-68805565D01*
X167179249Y-68785369D01*
X167179252Y-68785368D01*
X167179255Y-68785368D01*
X167349522Y-68725789D01*
X167502262Y-68629816D01*
X167502267Y-68629810D01*
X167505097Y-68627555D01*
X167507275Y-68626665D01*
X167508158Y-68626111D01*
X167508255Y-68626265D01*
X167569783Y-68601145D01*
X167582412Y-68600500D01*
X169413330Y-68600500D01*
X169413346Y-68600501D01*
X169420942Y-68600501D01*
X169579053Y-68600501D01*
X169579056Y-68600501D01*
X169731784Y-68559577D01*
X169781903Y-68530639D01*
X169868715Y-68480520D01*
X169980519Y-68368716D01*
X169980519Y-68368714D01*
X169990727Y-68358507D01*
X169990729Y-68358504D01*
X170489541Y-67859691D01*
X170550862Y-67826208D01*
X170620554Y-67831192D01*
X170676487Y-67873064D01*
X170694924Y-67908367D01*
X170705186Y-67939334D01*
X170797288Y-68088656D01*
X170921344Y-68212712D01*
X171070666Y-68304814D01*
X171237203Y-68359999D01*
X171339991Y-68370500D01*
X172406424Y-68370499D01*
X172473463Y-68390183D01*
X172519218Y-68442987D01*
X172529162Y-68512146D01*
X172500137Y-68575702D01*
X172477547Y-68596074D01*
X172356668Y-68680713D01*
X172200713Y-68836668D01*
X172074205Y-69017342D01*
X172074204Y-69017344D01*
X171980994Y-69217235D01*
X171980990Y-69217244D01*
X171923909Y-69430275D01*
X171923907Y-69430285D01*
X171904685Y-69649998D01*
X171904685Y-69650001D01*
X171923907Y-69869714D01*
X171923909Y-69869724D01*
X171980990Y-70082755D01*
X171980995Y-70082769D01*
X172074203Y-70282654D01*
X172074207Y-70282662D01*
X172200712Y-70463330D01*
X172356669Y-70619287D01*
X172537337Y-70745792D01*
X172537339Y-70745793D01*
X172537342Y-70745795D01*
X172657603Y-70801873D01*
X172737230Y-70839004D01*
X172737232Y-70839004D01*
X172737237Y-70839007D01*
X172950280Y-70896092D01*
X173107222Y-70909822D01*
X173169998Y-70915315D01*
X173170000Y-70915315D01*
X173170002Y-70915315D01*
X173224930Y-70910509D01*
X173389720Y-70896092D01*
X173602763Y-70839007D01*
X173802658Y-70745795D01*
X173983329Y-70619288D01*
X174139288Y-70463329D01*
X174265795Y-70282658D01*
X174327618Y-70150076D01*
X174373790Y-70097637D01*
X174440983Y-70078485D01*
X174507864Y-70098700D01*
X174552382Y-70150077D01*
X174614203Y-70282654D01*
X174614207Y-70282662D01*
X174740712Y-70463330D01*
X174896669Y-70619287D01*
X175077337Y-70745792D01*
X175077339Y-70745793D01*
X175077342Y-70745795D01*
X175197603Y-70801873D01*
X175277230Y-70839004D01*
X175277232Y-70839004D01*
X175277237Y-70839007D01*
X175490280Y-70896092D01*
X175647222Y-70909822D01*
X175709998Y-70915315D01*
X175710000Y-70915315D01*
X175710002Y-70915315D01*
X175764930Y-70910509D01*
X175929720Y-70896092D01*
X176142763Y-70839007D01*
X176342658Y-70745795D01*
X176523329Y-70619288D01*
X176679288Y-70463329D01*
X176805795Y-70282658D01*
X176867618Y-70150076D01*
X176913790Y-70097637D01*
X176980983Y-70078485D01*
X177047864Y-70098700D01*
X177092382Y-70150077D01*
X177154203Y-70282654D01*
X177154207Y-70282662D01*
X177280712Y-70463330D01*
X177436669Y-70619287D01*
X177617337Y-70745792D01*
X177617339Y-70745793D01*
X177617342Y-70745795D01*
X177737603Y-70801873D01*
X177817230Y-70839004D01*
X177817232Y-70839004D01*
X177817237Y-70839007D01*
X178030280Y-70896092D01*
X178187222Y-70909822D01*
X178249998Y-70915315D01*
X178250000Y-70915315D01*
X178250002Y-70915315D01*
X178304930Y-70910509D01*
X178469720Y-70896092D01*
X178682763Y-70839007D01*
X178882658Y-70745795D01*
X179063329Y-70619288D01*
X179219288Y-70463329D01*
X179345795Y-70282658D01*
X179439007Y-70082763D01*
X179496092Y-69869720D01*
X179515315Y-69650000D01*
X179512758Y-69620778D01*
X179497515Y-69446545D01*
X179496092Y-69430280D01*
X179439007Y-69217237D01*
X179345795Y-69017343D01*
X179219288Y-68836671D01*
X179219286Y-68836668D01*
X179063330Y-68680712D01*
X178882662Y-68554207D01*
X178882654Y-68554203D01*
X178682769Y-68460995D01*
X178682755Y-68460990D01*
X178469724Y-68403909D01*
X178469722Y-68403908D01*
X178469720Y-68403908D01*
X178469718Y-68403907D01*
X178469714Y-68403907D01*
X178250002Y-68384685D01*
X178249998Y-68384685D01*
X178030285Y-68403907D01*
X178030275Y-68403909D01*
X177817244Y-68460990D01*
X177817235Y-68460994D01*
X177617344Y-68554204D01*
X177617342Y-68554205D01*
X177436668Y-68680713D01*
X177280713Y-68836668D01*
X177154205Y-69017342D01*
X177154204Y-69017344D01*
X177092382Y-69149923D01*
X177046210Y-69202362D01*
X176979016Y-69221514D01*
X176912135Y-69201298D01*
X176867618Y-69149923D01*
X176805795Y-69017343D01*
X176679288Y-68836671D01*
X176679286Y-68836668D01*
X176523330Y-68680712D01*
X176342662Y-68554207D01*
X176342654Y-68554203D01*
X176142769Y-68460995D01*
X176142755Y-68460990D01*
X175929724Y-68403909D01*
X175929722Y-68403908D01*
X175929720Y-68403908D01*
X175929718Y-68403907D01*
X175929714Y-68403907D01*
X175710002Y-68384685D01*
X175709998Y-68384685D01*
X175490285Y-68403907D01*
X175490275Y-68403909D01*
X175277244Y-68460990D01*
X175277235Y-68460994D01*
X175077344Y-68554204D01*
X175077342Y-68554205D01*
X174896668Y-68680713D01*
X174740713Y-68836668D01*
X174614205Y-69017342D01*
X174614204Y-69017344D01*
X174552382Y-69149923D01*
X174506210Y-69202362D01*
X174439016Y-69221514D01*
X174372135Y-69201298D01*
X174327618Y-69149923D01*
X174265795Y-69017343D01*
X174139288Y-68836671D01*
X174139286Y-68836668D01*
X173983330Y-68680712D01*
X173802662Y-68554207D01*
X173802654Y-68554203D01*
X173602769Y-68460995D01*
X173602755Y-68460990D01*
X173389724Y-68403909D01*
X173389722Y-68403908D01*
X173389720Y-68403908D01*
X173389718Y-68403907D01*
X173389714Y-68403907D01*
X173170002Y-68384685D01*
X173169998Y-68384685D01*
X173001651Y-68399413D01*
X172933151Y-68385646D01*
X172882968Y-68337031D01*
X172867035Y-68269002D01*
X172890411Y-68203159D01*
X172903151Y-68188216D01*
X173002712Y-68088656D01*
X173094814Y-67939334D01*
X173141500Y-67798444D01*
X173181270Y-67741003D01*
X173245786Y-67714180D01*
X173314562Y-67726495D01*
X173360779Y-67766329D01*
X173470712Y-67923330D01*
X173626669Y-68079287D01*
X173807337Y-68205792D01*
X173807339Y-68205793D01*
X173807342Y-68205795D01*
X173822176Y-68212712D01*
X174007230Y-68299004D01*
X174007232Y-68299004D01*
X174007237Y-68299007D01*
X174007242Y-68299008D01*
X174007244Y-68299009D01*
X174028901Y-68304812D01*
X174220280Y-68356092D01*
X174364539Y-68368713D01*
X174439998Y-68375315D01*
X174440000Y-68375315D01*
X174440002Y-68375315D01*
X174495047Y-68370499D01*
X174659720Y-68356092D01*
X174872763Y-68299007D01*
X175072658Y-68205795D01*
X175253329Y-68079288D01*
X175409288Y-67923329D01*
X175535795Y-67742658D01*
X175597895Y-67609481D01*
X175644064Y-67557047D01*
X175711258Y-67537894D01*
X175778139Y-67558109D01*
X175822657Y-67609485D01*
X175884638Y-67742402D01*
X175929694Y-67806750D01*
X176600000Y-67136445D01*
X176600000Y-67160028D01*
X176625896Y-67256675D01*
X176675924Y-67343325D01*
X176746675Y-67414076D01*
X176833325Y-67464104D01*
X176929972Y-67490000D01*
X176953553Y-67490000D01*
X176283247Y-68160304D01*
X176347593Y-68205359D01*
X176547406Y-68298533D01*
X176547412Y-68298536D01*
X176760365Y-68355597D01*
X176760373Y-68355598D01*
X176979998Y-68374813D01*
X176980002Y-68374813D01*
X177199626Y-68355598D01*
X177199634Y-68355597D01*
X177412587Y-68298536D01*
X177412598Y-68298532D01*
X177612402Y-68205362D01*
X177612410Y-68205358D01*
X177676751Y-68160305D01*
X177676751Y-68160304D01*
X177006448Y-67490000D01*
X177030028Y-67490000D01*
X177126675Y-67464104D01*
X177213325Y-67414076D01*
X177284076Y-67343325D01*
X177334104Y-67256675D01*
X177360000Y-67160028D01*
X177360000Y-67136447D01*
X178030304Y-67806751D01*
X178030305Y-67806751D01*
X178075358Y-67742410D01*
X178075362Y-67742402D01*
X178168532Y-67542598D01*
X178168536Y-67542587D01*
X178225597Y-67329634D01*
X178225598Y-67329626D01*
X178244813Y-67110001D01*
X178244813Y-67109998D01*
X178225598Y-66890373D01*
X178225597Y-66890366D01*
X178168533Y-66677404D01*
X178075361Y-66477596D01*
X178030303Y-66413247D01*
X177360000Y-67083551D01*
X177360000Y-67059972D01*
X177334104Y-66963325D01*
X177284076Y-66876675D01*
X177213325Y-66805924D01*
X177126675Y-66755896D01*
X177030028Y-66730000D01*
X177006447Y-66730000D01*
X177676751Y-66059694D01*
X177612402Y-66014638D01*
X177412593Y-65921466D01*
X177412587Y-65921463D01*
X177199634Y-65864402D01*
X177199626Y-65864401D01*
X176980002Y-65845187D01*
X176979998Y-65845187D01*
X176760373Y-65864401D01*
X176760366Y-65864402D01*
X176547404Y-65921466D01*
X176347595Y-66014639D01*
X176347593Y-66014640D01*
X176283248Y-66059695D01*
X176283247Y-66059695D01*
X176953554Y-66730000D01*
X176929972Y-66730000D01*
X176833325Y-66755896D01*
X176746675Y-66805924D01*
X176675924Y-66876675D01*
X176625896Y-66963325D01*
X176600000Y-67059972D01*
X176600000Y-67083552D01*
X175929695Y-66413247D01*
X175929695Y-66413248D01*
X175884640Y-66477593D01*
X175884639Y-66477595D01*
X175822657Y-66610515D01*
X175776484Y-66662954D01*
X175709290Y-66682106D01*
X175642409Y-66661890D01*
X175597894Y-66610515D01*
X175535795Y-66477343D01*
X175409288Y-66296671D01*
X175409286Y-66296668D01*
X175253330Y-66140712D01*
X175072662Y-66014207D01*
X175072654Y-66014203D01*
X174872769Y-65920995D01*
X174872755Y-65920990D01*
X174659724Y-65863909D01*
X174659722Y-65863908D01*
X174659720Y-65863908D01*
X174659718Y-65863907D01*
X174659714Y-65863907D01*
X174440002Y-65844685D01*
X174439998Y-65844685D01*
X174220285Y-65863907D01*
X174220275Y-65863909D01*
X174007244Y-65920990D01*
X174007235Y-65920994D01*
X173807344Y-66014204D01*
X173807342Y-66014205D01*
X173626668Y-66140713D01*
X173470713Y-66296668D01*
X173360780Y-66453671D01*
X173306203Y-66497296D01*
X173236705Y-66504490D01*
X173174350Y-66472967D01*
X173141499Y-66421552D01*
X173134792Y-66401311D01*
X173094814Y-66280666D01*
X173002712Y-66131344D01*
X172878656Y-66007288D01*
X172738752Y-65920995D01*
X172729336Y-65915187D01*
X172729331Y-65915185D01*
X172727862Y-65914698D01*
X172562797Y-65860001D01*
X172562795Y-65860000D01*
X172460010Y-65849500D01*
X171339998Y-65849500D01*
X171339981Y-65849501D01*
X171237203Y-65860000D01*
X171237200Y-65860001D01*
X171070668Y-65915185D01*
X171070663Y-65915187D01*
X170921342Y-66007289D01*
X170797288Y-66131343D01*
X170784441Y-66152171D01*
X170732491Y-66198894D01*
X170665021Y-66210291D01*
X170502462Y-66191976D01*
X170502454Y-66191976D01*
X170323208Y-66212171D01*
X170323203Y-66212172D01*
X170152934Y-66271752D01*
X170000195Y-66367725D01*
X169872642Y-66495278D01*
X169776668Y-66648019D01*
X169717088Y-66818291D01*
X169707295Y-66905209D01*
X169680228Y-66969623D01*
X169671756Y-66979006D01*
X169287583Y-67363181D01*
X169226260Y-67396666D01*
X169199902Y-67399500D01*
X167582412Y-67399500D01*
X167515373Y-67379815D01*
X167505097Y-67372445D01*
X167502263Y-67370185D01*
X167502262Y-67370184D01*
X167445496Y-67334515D01*
X167349523Y-67274211D01*
X167179254Y-67214631D01*
X167179249Y-67214630D01*
X167000004Y-67194435D01*
X166999996Y-67194435D01*
X166820750Y-67214630D01*
X166820745Y-67214631D01*
X166650476Y-67274211D01*
X166497737Y-67370184D01*
X166370184Y-67497737D01*
X166274211Y-67650476D01*
X166214631Y-67820745D01*
X166214630Y-67820750D01*
X166194435Y-67999996D01*
X164310565Y-67999996D01*
X164290369Y-67820750D01*
X164290368Y-67820745D01*
X164271327Y-67766329D01*
X164230789Y-67650478D01*
X164134816Y-67497738D01*
X164007262Y-67370184D01*
X163964516Y-67343325D01*
X163859294Y-67277209D01*
X163813003Y-67224874D01*
X163802046Y-67158330D01*
X163805565Y-67127101D01*
X163805565Y-67127096D01*
X163785369Y-66947850D01*
X163785368Y-66947845D01*
X163765225Y-66890280D01*
X163725789Y-66777578D01*
X163629816Y-66624838D01*
X163502262Y-66497284D01*
X163463562Y-66472967D01*
X163349521Y-66401310D01*
X163179249Y-66341730D01*
X163092340Y-66331938D01*
X163027926Y-66304871D01*
X163018542Y-66296398D01*
X155366601Y-58644296D01*
X164550435Y-58644296D01*
X164550435Y-58644303D01*
X164570630Y-58823549D01*
X164570631Y-58823554D01*
X164630211Y-58993823D01*
X164709978Y-59120771D01*
X164726184Y-59146562D01*
X164853738Y-59274116D01*
X165006478Y-59370089D01*
X165176745Y-59429668D01*
X165176750Y-59429669D01*
X165355996Y-59449865D01*
X165356000Y-59449865D01*
X165356004Y-59449865D01*
X165535249Y-59429669D01*
X165535252Y-59429668D01*
X165535255Y-59429668D01*
X165705522Y-59370089D01*
X165858262Y-59274116D01*
X165985816Y-59146562D01*
X166081789Y-58993822D01*
X166141368Y-58823555D01*
X166154802Y-58704328D01*
X166161565Y-58644303D01*
X166161565Y-58644296D01*
X166141369Y-58465050D01*
X166141368Y-58465045D01*
X166129458Y-58431007D01*
X166081789Y-58294778D01*
X165985816Y-58142038D01*
X165985814Y-58142036D01*
X165985813Y-58142034D01*
X165983550Y-58139196D01*
X165982659Y-58137015D01*
X165982111Y-58136142D01*
X165982264Y-58136045D01*
X165957144Y-58074509D01*
X165956500Y-58061887D01*
X165956500Y-56444381D01*
X165976185Y-56377342D01*
X165992815Y-56356703D01*
X166284252Y-56065243D01*
X169224568Y-53124697D01*
X169285887Y-53091212D01*
X169298341Y-53089160D01*
X169385255Y-53079368D01*
X169555522Y-53019789D01*
X169708262Y-52923816D01*
X169835816Y-52796262D01*
X169931789Y-52643522D01*
X169991368Y-52473255D01*
X170011565Y-52294000D01*
X170009480Y-52275496D01*
X169991369Y-52114750D01*
X169991368Y-52114745D01*
X169939145Y-51965500D01*
X169931789Y-51944478D01*
X169920354Y-51926280D01*
X169835815Y-51791737D01*
X169708262Y-51664184D01*
X169555523Y-51568211D01*
X169385254Y-51508631D01*
X169385249Y-51508630D01*
X169206004Y-51488435D01*
X169205996Y-51488435D01*
X169026750Y-51508630D01*
X169026745Y-51508631D01*
X168856476Y-51568211D01*
X168703737Y-51664184D01*
X168576184Y-51791737D01*
X168480210Y-51944478D01*
X168420630Y-52114750D01*
X168410833Y-52201702D01*
X168383766Y-52266116D01*
X168375298Y-52275496D01*
X164939575Y-55711488D01*
X164875473Y-55775590D01*
X164836543Y-55843024D01*
X164836542Y-55843026D01*
X164796416Y-55912527D01*
X164771483Y-56005593D01*
X164771482Y-56005595D01*
X164755496Y-56065254D01*
X164755496Y-56065259D01*
X164755500Y-56155617D01*
X164755500Y-58061887D01*
X164735815Y-58128926D01*
X164728450Y-58139196D01*
X164726186Y-58142034D01*
X164630211Y-58294776D01*
X164570631Y-58465045D01*
X164570630Y-58465050D01*
X164550435Y-58644296D01*
X155366601Y-58644296D01*
X154093818Y-57371486D01*
X154060334Y-57310163D01*
X154057500Y-57283806D01*
X154057500Y-51438812D01*
X154077185Y-51371773D01*
X154084555Y-51361497D01*
X154086810Y-51358667D01*
X154086816Y-51358662D01*
X154114732Y-51314234D01*
X175319500Y-51314234D01*
X175319500Y-51465765D01*
X175358719Y-51612136D01*
X175388770Y-51664184D01*
X175434485Y-51743365D01*
X175541635Y-51850515D01*
X175672865Y-51926281D01*
X175819234Y-51965500D01*
X175819236Y-51965500D01*
X175970764Y-51965500D01*
X175970766Y-51965500D01*
X176117135Y-51926281D01*
X176248365Y-51850515D01*
X176355515Y-51743365D01*
X176431281Y-51612135D01*
X176470500Y-51465766D01*
X176470500Y-51314234D01*
X176431281Y-51167865D01*
X176355515Y-51036635D01*
X176248365Y-50929485D01*
X176177658Y-50888662D01*
X176117136Y-50853719D01*
X176043950Y-50834109D01*
X175970766Y-50814500D01*
X175819234Y-50814500D01*
X175672863Y-50853719D01*
X175541635Y-50929485D01*
X175541632Y-50929487D01*
X175434487Y-51036632D01*
X175434485Y-51036635D01*
X175358719Y-51167863D01*
X175319500Y-51314234D01*
X154114732Y-51314234D01*
X154182789Y-51205922D01*
X154242368Y-51035655D01*
X154242369Y-51035649D01*
X154262565Y-50856403D01*
X154262565Y-50856396D01*
X154242369Y-50677150D01*
X154242368Y-50677145D01*
X154203356Y-50565655D01*
X154182789Y-50506878D01*
X154156970Y-50465788D01*
X154107089Y-50386403D01*
X154086816Y-50354138D01*
X153959262Y-50226584D01*
X153928325Y-50207145D01*
X153806523Y-50130611D01*
X153636254Y-50071031D01*
X153636249Y-50071030D01*
X153457004Y-50050835D01*
X153456996Y-50050835D01*
X153277750Y-50071030D01*
X153277745Y-50071031D01*
X153107476Y-50130611D01*
X152954737Y-50226584D01*
X152827184Y-50354137D01*
X152731211Y-50506876D01*
X152671631Y-50677145D01*
X152671630Y-50677150D01*
X152651435Y-50856396D01*
X149700090Y-50856396D01*
X149775789Y-50735922D01*
X149835368Y-50565655D01*
X149839907Y-50525369D01*
X149855565Y-50386403D01*
X149855565Y-50386396D01*
X149835369Y-50207150D01*
X149835368Y-50207145D01*
X149775789Y-50036878D01*
X149679816Y-49884138D01*
X149679814Y-49884136D01*
X149679813Y-49884134D01*
X149677550Y-49881296D01*
X149676659Y-49879115D01*
X149676111Y-49878242D01*
X149676264Y-49878145D01*
X149651144Y-49816609D01*
X149650500Y-49803987D01*
X149650500Y-47306211D01*
X149670185Y-47239172D01*
X149686821Y-47218527D01*
X153095558Y-43809996D01*
X160694435Y-43809996D01*
X160694435Y-43810003D01*
X160714630Y-43989249D01*
X160714631Y-43989254D01*
X160774211Y-44159523D01*
X160870185Y-44312263D01*
X160872445Y-44315097D01*
X160873334Y-44317275D01*
X160873889Y-44318158D01*
X160873734Y-44318255D01*
X160898855Y-44379783D01*
X160899500Y-44392412D01*
X160899500Y-49157587D01*
X160879815Y-49224626D01*
X160872450Y-49234896D01*
X160870186Y-49237734D01*
X160774211Y-49390476D01*
X160714631Y-49560745D01*
X160714630Y-49560750D01*
X160694435Y-49739996D01*
X160694435Y-49740003D01*
X160714630Y-49919249D01*
X160714631Y-49919254D01*
X160774211Y-50089523D01*
X160848122Y-50207150D01*
X160870184Y-50242262D01*
X160997738Y-50369816D01*
X161150478Y-50465789D01*
X161267898Y-50506876D01*
X161320745Y-50525368D01*
X161320750Y-50525369D01*
X161499996Y-50545565D01*
X161500000Y-50545565D01*
X161500004Y-50545565D01*
X161679249Y-50525369D01*
X161679252Y-50525368D01*
X161679255Y-50525368D01*
X161849522Y-50465789D01*
X161934027Y-50412691D01*
X162001264Y-50393690D01*
X162065973Y-50412691D01*
X162150475Y-50465788D01*
X162320745Y-50525368D01*
X162320750Y-50525369D01*
X162499996Y-50545565D01*
X162500000Y-50545565D01*
X162500004Y-50545565D01*
X162679249Y-50525369D01*
X162679252Y-50525368D01*
X162679255Y-50525368D01*
X162849522Y-50465789D01*
X163002262Y-50369816D01*
X163129816Y-50242262D01*
X163225789Y-50089522D01*
X163285368Y-49919255D01*
X163290802Y-49871026D01*
X163305565Y-49740003D01*
X163305565Y-49739996D01*
X163285369Y-49560750D01*
X163285368Y-49560745D01*
X163225788Y-49390476D01*
X163129813Y-49237734D01*
X163127550Y-49234896D01*
X163126659Y-49232715D01*
X163126111Y-49231842D01*
X163126264Y-49231745D01*
X163101144Y-49170209D01*
X163100500Y-49157587D01*
X163100500Y-46999996D01*
X168694435Y-46999996D01*
X168694435Y-47000003D01*
X168714630Y-47179249D01*
X168714631Y-47179254D01*
X168774211Y-47349523D01*
X168870185Y-47502263D01*
X168872445Y-47505097D01*
X168873334Y-47507275D01*
X168873889Y-47508158D01*
X168873734Y-47508255D01*
X168898855Y-47569783D01*
X168899500Y-47582412D01*
X168899500Y-48558587D01*
X168879815Y-48625626D01*
X168872450Y-48635896D01*
X168870186Y-48638734D01*
X168774211Y-48791476D01*
X168714631Y-48961745D01*
X168714630Y-48961750D01*
X168694435Y-49140996D01*
X168694435Y-49141003D01*
X168714630Y-49320249D01*
X168714631Y-49320254D01*
X168774211Y-49490523D01*
X168818335Y-49560745D01*
X168870184Y-49643262D01*
X168997738Y-49770816D01*
X169070617Y-49816609D01*
X169131432Y-49854822D01*
X169150478Y-49866789D01*
X169200059Y-49884138D01*
X169320745Y-49926368D01*
X169320750Y-49926369D01*
X169499996Y-49946565D01*
X169500000Y-49946565D01*
X169500004Y-49946565D01*
X169679249Y-49926369D01*
X169679252Y-49926368D01*
X169679255Y-49926368D01*
X169849522Y-49866789D01*
X170002262Y-49770816D01*
X170129816Y-49643262D01*
X170225789Y-49490522D01*
X170285368Y-49320255D01*
X170285369Y-49320249D01*
X170305565Y-49141003D01*
X170305565Y-49140996D01*
X170285369Y-48961750D01*
X170285368Y-48961745D01*
X170225788Y-48791476D01*
X170129813Y-48638734D01*
X170127550Y-48635896D01*
X170126659Y-48633715D01*
X170126111Y-48632842D01*
X170126264Y-48632745D01*
X170101144Y-48571209D01*
X170100500Y-48558587D01*
X170100500Y-47582412D01*
X170120185Y-47515373D01*
X170127555Y-47505097D01*
X170129810Y-47502267D01*
X170129816Y-47502262D01*
X170225789Y-47349522D01*
X170285368Y-47179255D01*
X170285369Y-47179249D01*
X170305565Y-47000003D01*
X170305565Y-46999996D01*
X170285369Y-46820750D01*
X170285368Y-46820745D01*
X170244972Y-46705300D01*
X170225789Y-46650478D01*
X170217561Y-46637384D01*
X170147310Y-46525580D01*
X170129816Y-46497738D01*
X170002262Y-46370184D01*
X169849523Y-46274211D01*
X169679254Y-46214631D01*
X169679249Y-46214630D01*
X169500004Y-46194435D01*
X169499996Y-46194435D01*
X169320750Y-46214630D01*
X169320745Y-46214631D01*
X169150476Y-46274211D01*
X168997737Y-46370184D01*
X168870184Y-46497737D01*
X168774211Y-46650476D01*
X168714631Y-46820745D01*
X168714630Y-46820750D01*
X168694435Y-46999996D01*
X163100500Y-46999996D01*
X163100500Y-45534234D01*
X175319500Y-45534234D01*
X175319500Y-45685765D01*
X175358719Y-45832136D01*
X175396602Y-45897750D01*
X175434485Y-45963365D01*
X175541635Y-46070515D01*
X175672865Y-46146281D01*
X175819234Y-46185500D01*
X175819236Y-46185500D01*
X175970764Y-46185500D01*
X175970766Y-46185500D01*
X176117135Y-46146281D01*
X176248365Y-46070515D01*
X176355515Y-45963365D01*
X176431281Y-45832135D01*
X176470500Y-45685766D01*
X176470500Y-45534234D01*
X176431281Y-45387865D01*
X176355515Y-45256635D01*
X176248365Y-45149485D01*
X176182750Y-45111602D01*
X176117136Y-45073719D01*
X176043950Y-45054109D01*
X175970766Y-45034500D01*
X175819234Y-45034500D01*
X175672863Y-45073719D01*
X175541635Y-45149485D01*
X175541632Y-45149487D01*
X175434487Y-45256632D01*
X175434485Y-45256635D01*
X175358719Y-45387863D01*
X175319500Y-45534234D01*
X163100500Y-45534234D01*
X163100500Y-44392412D01*
X163120185Y-44325373D01*
X163127555Y-44315097D01*
X163129810Y-44312267D01*
X163129816Y-44312262D01*
X163225789Y-44159522D01*
X163285368Y-43989255D01*
X163305565Y-43810000D01*
X163285368Y-43630745D01*
X163225789Y-43460478D01*
X163129816Y-43307738D01*
X163002262Y-43180184D01*
X162934027Y-43137309D01*
X162849523Y-43084211D01*
X162679254Y-43024631D01*
X162679249Y-43024630D01*
X162500004Y-43004435D01*
X162499996Y-43004435D01*
X162320750Y-43024630D01*
X162320737Y-43024633D01*
X162150479Y-43084209D01*
X162065971Y-43137309D01*
X161998734Y-43156309D01*
X161934029Y-43137309D01*
X161849520Y-43084209D01*
X161679262Y-43024633D01*
X161679249Y-43024630D01*
X161500004Y-43004435D01*
X161499996Y-43004435D01*
X161320750Y-43024630D01*
X161320745Y-43024631D01*
X161150476Y-43084211D01*
X160997737Y-43180184D01*
X160870184Y-43307737D01*
X160774211Y-43460476D01*
X160714631Y-43630745D01*
X160714630Y-43630750D01*
X160694435Y-43809996D01*
X153095558Y-43809996D01*
X153982510Y-42923098D01*
X154043833Y-42889617D01*
X154056283Y-42887566D01*
X154143255Y-42877768D01*
X154313522Y-42818189D01*
X154466262Y-42722216D01*
X154593816Y-42594662D01*
X154689789Y-42441922D01*
X154749368Y-42271655D01*
X154769565Y-42092400D01*
X154759158Y-42000038D01*
X154749369Y-41913150D01*
X154749368Y-41913145D01*
X154689788Y-41742876D01*
X154593815Y-41590137D01*
X154466262Y-41462584D01*
X154313523Y-41366611D01*
X154143254Y-41307031D01*
X154143249Y-41307030D01*
X153964004Y-41286835D01*
X153963996Y-41286835D01*
X153784750Y-41307030D01*
X153784745Y-41307031D01*
X153614476Y-41366611D01*
X153461737Y-41462584D01*
X153334184Y-41590137D01*
X153238210Y-41742878D01*
X153178631Y-41913147D01*
X153178630Y-41913153D01*
X153168841Y-42000038D01*
X153141775Y-42064452D01*
X153133300Y-42073839D01*
X148685625Y-46521241D01*
X148685601Y-46521263D01*
X148681284Y-46525580D01*
X148618444Y-46588419D01*
X148618443Y-46588420D01*
X148618442Y-46588419D01*
X148569487Y-46637374D01*
X148569478Y-46637385D01*
X148530268Y-46705299D01*
X148530267Y-46705301D01*
X148490427Y-46774300D01*
X148473516Y-46837410D01*
X148449503Y-46927019D01*
X148449500Y-46927033D01*
X148449500Y-46990274D01*
X148449497Y-47093379D01*
X148449500Y-47093424D01*
X148449500Y-49803987D01*
X148429815Y-49871026D01*
X148422450Y-49881296D01*
X148420186Y-49884134D01*
X148324211Y-50036876D01*
X148264631Y-50207145D01*
X148264630Y-50207150D01*
X148244435Y-50386396D01*
X143100500Y-50386396D01*
X143100500Y-50300096D01*
X143120185Y-50233057D01*
X143136814Y-50212420D01*
X146018535Y-47330698D01*
X146079856Y-47297215D01*
X146092311Y-47295163D01*
X146179255Y-47285368D01*
X146349522Y-47225789D01*
X146502262Y-47129816D01*
X146629816Y-47002262D01*
X146725789Y-46849522D01*
X146785368Y-46679255D01*
X146785369Y-46679249D01*
X146805565Y-46500003D01*
X146805565Y-46499996D01*
X146785369Y-46320750D01*
X146785368Y-46320745D01*
X146741170Y-46194435D01*
X146725789Y-46150478D01*
X146629816Y-45997738D01*
X146502262Y-45870184D01*
X146441709Y-45832136D01*
X146349523Y-45774211D01*
X146179254Y-45714631D01*
X146179249Y-45714630D01*
X146000004Y-45694435D01*
X145999996Y-45694435D01*
X145820750Y-45714630D01*
X145820745Y-45714631D01*
X145650476Y-45774211D01*
X145497737Y-45870184D01*
X145370184Y-45997737D01*
X145274210Y-46150478D01*
X145214630Y-46320750D01*
X145204837Y-46407668D01*
X145177770Y-46472082D01*
X145169298Y-46481465D01*
X142131286Y-49519478D01*
X142019481Y-49631282D01*
X142019479Y-49631284D01*
X141999595Y-49665725D01*
X141991191Y-49680283D01*
X141940423Y-49768215D01*
X141899499Y-49920943D01*
X141899499Y-49920945D01*
X141899499Y-50089046D01*
X141899500Y-50089059D01*
X141899500Y-52913330D01*
X141899499Y-52913348D01*
X141899499Y-53079054D01*
X141899498Y-53079054D01*
X133000500Y-53079054D01*
X133000500Y-35443507D01*
X168637946Y-35443507D01*
X168637946Y-35443514D01*
X168658141Y-35622760D01*
X168658142Y-35622765D01*
X168717722Y-35793034D01*
X168761554Y-35862791D01*
X168813695Y-35945773D01*
X168941249Y-36073327D01*
X169093989Y-36169300D01*
X169134605Y-36183512D01*
X169264256Y-36228879D01*
X169264261Y-36228880D01*
X169443507Y-36249076D01*
X169443511Y-36249076D01*
X169443515Y-36249076D01*
X169622759Y-36228880D01*
X169622759Y-36228879D01*
X169622766Y-36228879D01*
X169627381Y-36227263D01*
X169697156Y-36223696D01*
X169757786Y-36258420D01*
X169785384Y-36303348D01*
X169816251Y-36391562D01*
X169912225Y-36544303D01*
X170039779Y-36671857D01*
X170192519Y-36767830D01*
X170362786Y-36827409D01*
X170362791Y-36827410D01*
X170542037Y-36847606D01*
X170542041Y-36847606D01*
X170542045Y-36847606D01*
X170721290Y-36827410D01*
X170721293Y-36827409D01*
X170721296Y-36827409D01*
X170891563Y-36767830D01*
X171044303Y-36671857D01*
X171171857Y-36544303D01*
X171267830Y-36391563D01*
X171327409Y-36221296D01*
X171327410Y-36221290D01*
X171347606Y-36042044D01*
X171347606Y-36042037D01*
X171327410Y-35862791D01*
X171327409Y-35862786D01*
X171267829Y-35692517D01*
X171171856Y-35539778D01*
X171044303Y-35412225D01*
X170891562Y-35316251D01*
X170721290Y-35256671D01*
X170634371Y-35246878D01*
X170569957Y-35219811D01*
X170560574Y-35211339D01*
X170431101Y-35081866D01*
X170431099Y-35081863D01*
X170312228Y-34962992D01*
X170312220Y-34962986D01*
X170210447Y-34904228D01*
X170210445Y-34904227D01*
X170175301Y-34883936D01*
X170175300Y-34883935D01*
X170022565Y-34843009D01*
X170014508Y-34841949D01*
X170014798Y-34839743D01*
X169958883Y-34823325D01*
X169948608Y-34815956D01*
X169945773Y-34813695D01*
X169793034Y-34717722D01*
X169622765Y-34658142D01*
X169622760Y-34658141D01*
X169443515Y-34637946D01*
X169443507Y-34637946D01*
X169264261Y-34658141D01*
X169264256Y-34658142D01*
X169093987Y-34717722D01*
X168941248Y-34813695D01*
X168813695Y-34941248D01*
X168717722Y-35093987D01*
X168658142Y-35264256D01*
X168658141Y-35264261D01*
X168637946Y-35443507D01*
X133000500Y-35443507D01*
X133000500Y-33627596D01*
X170066435Y-33627596D01*
X170066435Y-33627603D01*
X170086630Y-33806849D01*
X170086631Y-33806854D01*
X170146211Y-33977123D01*
X170228529Y-34108130D01*
X170242184Y-34129862D01*
X170369738Y-34257416D01*
X170522478Y-34353389D01*
X170692745Y-34412968D01*
X170692750Y-34412969D01*
X170871996Y-34433165D01*
X170872000Y-34433165D01*
X170872004Y-34433165D01*
X171051249Y-34412969D01*
X171051252Y-34412968D01*
X171051255Y-34412968D01*
X171221522Y-34353389D01*
X171374262Y-34257416D01*
X171374267Y-34257410D01*
X171377097Y-34255155D01*
X171379275Y-34254265D01*
X171380158Y-34253711D01*
X171380255Y-34253865D01*
X171441783Y-34228745D01*
X171454412Y-34228100D01*
X172863177Y-34228100D01*
X172863182Y-34228100D01*
X172951020Y-34228105D01*
X172951032Y-34228101D01*
X172951045Y-34228100D01*
X172951057Y-34228100D01*
X173013571Y-34211349D01*
X173027575Y-34207597D01*
X173027576Y-34207596D01*
X173100629Y-34188026D01*
X173103904Y-34187244D01*
X173103925Y-34187235D01*
X173107118Y-34185251D01*
X173178527Y-34144024D01*
X173238709Y-34109283D01*
X173240758Y-34108152D01*
X173240763Y-34108148D01*
X173242497Y-34106339D01*
X173304250Y-34044586D01*
X173304255Y-34044580D01*
X173692485Y-33656398D01*
X173753808Y-33622919D01*
X173766251Y-33620870D01*
X173853255Y-33611068D01*
X174023522Y-33551489D01*
X174176262Y-33455516D01*
X174303816Y-33327962D01*
X174399789Y-33175222D01*
X174459368Y-33004955D01*
X174459369Y-33004949D01*
X174479565Y-32825703D01*
X174479565Y-32825696D01*
X174459369Y-32646450D01*
X174459368Y-32646445D01*
X174399788Y-32476176D01*
X174303815Y-32323437D01*
X174176262Y-32195884D01*
X174023523Y-32099911D01*
X173853254Y-32040331D01*
X173853249Y-32040330D01*
X173674004Y-32020135D01*
X173673996Y-32020135D01*
X173494750Y-32040330D01*
X173494745Y-32040331D01*
X173324476Y-32099911D01*
X173171737Y-32195884D01*
X173044184Y-32323437D01*
X172948210Y-32476178D01*
X172888630Y-32646450D01*
X172878844Y-32733310D01*
X172851778Y-32797724D01*
X172843300Y-32807113D01*
X172659605Y-32990786D01*
X172598280Y-33024268D01*
X172571929Y-33027100D01*
X171454412Y-33027100D01*
X171387373Y-33007415D01*
X171377097Y-33000045D01*
X171374263Y-32997785D01*
X171374262Y-32997784D01*
X171317496Y-32962115D01*
X171221523Y-32901811D01*
X171051254Y-32842231D01*
X171051249Y-32842230D01*
X170872004Y-32822035D01*
X170871996Y-32822035D01*
X170692750Y-32842230D01*
X170692745Y-32842231D01*
X170522476Y-32901811D01*
X170369737Y-32997784D01*
X170242184Y-33125337D01*
X170146211Y-33278076D01*
X170086631Y-33448345D01*
X170086630Y-33448350D01*
X170066435Y-33627596D01*
X133000500Y-33627596D01*
X133000500Y-29277135D01*
X162324500Y-29277135D01*
X162324500Y-30722870D01*
X162324501Y-30722876D01*
X162330908Y-30782483D01*
X162381202Y-30917328D01*
X162381206Y-30917335D01*
X162467452Y-31032544D01*
X162467455Y-31032547D01*
X162582664Y-31118793D01*
X162582671Y-31118797D01*
X162717517Y-31169091D01*
X162717516Y-31169091D01*
X162724444Y-31169835D01*
X162777127Y-31175500D01*
X164222872Y-31175499D01*
X164282483Y-31169091D01*
X164417331Y-31118796D01*
X164532546Y-31032546D01*
X164618796Y-30917331D01*
X164669091Y-30782483D01*
X164675500Y-30722873D01*
X164675499Y-29277155D01*
X166325000Y-29277155D01*
X166325000Y-29750000D01*
X167184314Y-29750000D01*
X167179920Y-29754394D01*
X167127259Y-29845606D01*
X167100000Y-29947339D01*
X167100000Y-30052661D01*
X167127259Y-30154394D01*
X167179920Y-30245606D01*
X167184314Y-30250000D01*
X166325000Y-30250000D01*
X166325000Y-30722844D01*
X166331401Y-30782372D01*
X166331403Y-30782379D01*
X166381645Y-30917086D01*
X166381649Y-30917093D01*
X166467809Y-31032187D01*
X166467812Y-31032190D01*
X166582906Y-31118350D01*
X166582913Y-31118354D01*
X166717620Y-31168596D01*
X166717627Y-31168598D01*
X166777155Y-31174999D01*
X166777172Y-31175000D01*
X167250000Y-31175000D01*
X167250000Y-30315686D01*
X167254394Y-30320080D01*
X167345606Y-30372741D01*
X167447339Y-30400000D01*
X167552661Y-30400000D01*
X167654394Y-30372741D01*
X167745606Y-30320080D01*
X167750000Y-30315686D01*
X167750000Y-31175000D01*
X168222828Y-31175000D01*
X168222844Y-31174999D01*
X168282372Y-31168598D01*
X168282379Y-31168596D01*
X168417086Y-31118354D01*
X168417093Y-31118350D01*
X168532187Y-31032190D01*
X168532190Y-31032187D01*
X168618350Y-30917093D01*
X168618354Y-30917086D01*
X168668596Y-30782379D01*
X168668598Y-30782372D01*
X168674999Y-30722844D01*
X168675000Y-30722827D01*
X168675000Y-30250000D01*
X167815686Y-30250000D01*
X167820080Y-30245606D01*
X167872741Y-30154394D01*
X167900000Y-30052661D01*
X167900000Y-29947339D01*
X167872741Y-29845606D01*
X167820080Y-29754394D01*
X167815686Y-29750000D01*
X168675000Y-29750000D01*
X168675000Y-29277172D01*
X168674999Y-29277155D01*
X168668598Y-29217627D01*
X168668596Y-29217620D01*
X168618354Y-29082913D01*
X168618350Y-29082906D01*
X168532190Y-28967812D01*
X168532187Y-28967809D01*
X168417093Y-28881649D01*
X168417086Y-28881645D01*
X168282379Y-28831403D01*
X168282372Y-28831401D01*
X168222844Y-28825000D01*
X167750000Y-28825000D01*
X167750000Y-29684314D01*
X167745606Y-29679920D01*
X167654394Y-29627259D01*
X167552661Y-29600000D01*
X167447339Y-29600000D01*
X167345606Y-29627259D01*
X167254394Y-29679920D01*
X167250000Y-29684314D01*
X167250000Y-28825000D01*
X166777155Y-28825000D01*
X166717627Y-28831401D01*
X166717620Y-28831403D01*
X166582913Y-28881645D01*
X166582906Y-28881649D01*
X166467812Y-28967809D01*
X166467809Y-28967812D01*
X166381649Y-29082906D01*
X166381645Y-29082913D01*
X166331403Y-29217620D01*
X166331401Y-29217627D01*
X166325000Y-29277155D01*
X164675499Y-29277155D01*
X164675499Y-29277128D01*
X164669091Y-29217517D01*
X164618884Y-29082906D01*
X164618797Y-29082671D01*
X164618793Y-29082664D01*
X164532547Y-28967455D01*
X164532544Y-28967452D01*
X164417335Y-28881206D01*
X164417328Y-28881202D01*
X164282482Y-28830908D01*
X164282483Y-28830908D01*
X164222883Y-28824501D01*
X164222881Y-28824500D01*
X164222873Y-28824500D01*
X164222864Y-28824500D01*
X162777129Y-28824500D01*
X162777123Y-28824501D01*
X162717516Y-28830908D01*
X162582671Y-28881202D01*
X162582664Y-28881206D01*
X162467455Y-28967452D01*
X162467452Y-28967455D01*
X162381206Y-29082664D01*
X162381202Y-29082671D01*
X162330908Y-29217517D01*
X162324501Y-29277116D01*
X162324501Y-29277123D01*
X162324500Y-29277135D01*
X133000500Y-29277135D01*
X133000500Y-28124500D01*
X133020185Y-28057461D01*
X133072989Y-28011706D01*
X133124500Y-28000500D01*
X181875500Y-28000500D01*
X181942539Y-28020185D01*
G37*
%TD.AperFunction*%
%TD*%
M02*
