M48
; DRILL file KiCad 10.0.1 date 2026-06-12T14:29:07
; FORMAT={-:-/ absolute / metric / decimal}
; #@! TF.CreationDate,2026-06-12T14:29:07+02:00
; #@! TF.GenerationSoftware,Kicad,Pcbnew,10.0.1
; #@! TF.FileFunction,Plated,1,2,PTH
FMAT,2
METRIC
; #@! TA.AperFunction,Plated,PTH,ViaDrill
T1C0.300
; #@! TA.AperFunction,Plated,PTH,ComponentDrill
T2C0.600
; #@! TA.AperFunction,Plated,PTH,ComponentDrill
T3C0.600
; #@! TA.AperFunction,Plated,PTH,ComponentDrill
T4C0.700
; #@! TA.AperFunction,Plated,PTH,ComponentDrill
T5C1.000
; #@! TA.AperFunction,Plated,PTH,ComponentDrill
T6C1.100
%
G90
G05
T1
X24.39Y-88.484
X24.44Y-78.614
X24.46Y-76.064
X24.48Y-70.964
X24.5Y-68.414
X24.5Y-73.514
X24.52Y-63.314
X24.54Y-60.764
X24.54Y-65.864
X24.56Y-55.664
X24.58Y-53.114
X24.58Y-58.214
X24.6Y-48.014
X24.62Y-45.464
X24.62Y-50.564
X24.64Y-29.264
X24.64Y-35.264
X24.64Y-40.364
X26.29Y-85.914
X26.94Y-88.504
X27.85Y-77.744
X28.697Y-29.264
X28.73Y-61.904
X28.74Y-73.074
X28.81Y-81.164
X29.14Y-65.294
X29.49Y-88.544
X29.56Y-76.094
X29.98Y-51.599
X30.11Y-80.054
X30.21Y-82.994
X30.23Y-62.094
X31.0Y-64.554
X31.24Y-45.684
X31.255Y-48.784
X31.38Y-59.154
X31.55Y-85.774
X32.04Y-88.524
X32.265Y-71.041
X32.385Y-69.839
X32.67Y-63.643
X32.755Y-29.264
X32.77Y-41.104
X32.77Y-49.876
X32.78Y-53.749
X33.22Y-85.924
X33.29Y-68.224
X33.329Y-73.133
X33.52Y-73.943
X33.77Y-82.094
X33.82Y-84.474
X33.906Y-65.078
X34.07Y-62.783
X34.12Y-58.874
X34.285Y-48.784
X34.3Y-45.684
X34.5Y-68.293
X34.6Y-79.914
X34.67Y-64.134
X35.3Y-73.124
X35.325Y-68.309
X35.39Y-57.724
X35.505Y-51.599
X35.64Y-59.524
X35.97Y-61.604
X35.97Y-74.243
X36.1Y-77.486
X36.23Y-63.344
X36.5Y-76.793
X36.5Y-87.374
X36.812Y-29.264
X37.0Y-68.223
X37.03Y-74.164
X37.12Y-54.054
X37.23Y-83.644
X37.24Y-55.984
X37.37Y-72.043
X37.65Y-59.774
X37.82Y-50.144
X37.82Y-53.024
X38.0Y-78.854
X38.02Y-78.054
X38.07Y-71.364
X38.09Y-69.644
X38.23Y-56.874
X38.23Y-61.324
X38.27Y-65.093
X38.45Y-64.184
X38.87Y-80.654
X39.05Y-87.394
X39.06Y-75.464
X39.21Y-55.904
X39.71Y-57.354
X39.75Y-42.444
X39.78Y-59.744
X40.055Y-77.374
X40.07Y-83.143
X40.23Y-45.794
X40.27Y-48.474
X40.28Y-55.754
X40.465Y-56.999
X40.68Y-64.294
X40.83Y-78.999
X40.863Y-35.264
X40.87Y-29.264
X40.87Y-73.443
X40.955Y-54.774
X41.37Y-71.863
X41.56Y-67.954
X41.6Y-87.434
X41.655Y-79.449
X41.705Y-48.774
X41.8Y-61.664
X41.905Y-57.599
X42.42Y-84.964
X42.43Y-59.624
X42.455Y-77.524
X42.496Y-68.368
X42.53Y-55.149
X42.53Y-64.044
X42.68Y-74.194
X42.83Y-72.843
X42.99Y-79.214
X43.37Y-68.343
X44.15Y-87.414
X44.17Y-63.825
X44.23Y-75.674
X44.255Y-72.249
X44.32Y-57.643
X44.32Y-58.843
X44.32Y-60.043
X44.37Y-56.124
X44.53Y-84.854
X44.61Y-77.343
X44.81Y-67.444
X44.97Y-55.393
X44.98Y-56.974
X45.03Y-37.249
X45.09Y-80.784
X45.12Y-48.514
X45.582Y-62.018
X45.79Y-65.304
X45.92Y-80.764
X46.26Y-41.854
X46.43Y-74.524
X46.475Y-75.968
X46.52Y-77.314
X46.578Y-52.674
X46.68Y-54.854
X47.037Y-62.656
X47.13Y-81.244
X47.21Y-31.224
X47.294Y-37.267
X47.58Y-42.274
X47.67Y-36.293
X47.69Y-63.774
X47.72Y-68.584
X47.844Y-48.748
X48.15Y-46.114
X48.18Y-37.074
X48.2Y-51.464
X48.58Y-43.874
X48.99Y-53.944
X49.0Y-48.844
X49.35Y-72.314
X49.57Y-42.284
X49.605Y-85.124
X49.71Y-77.304
X49.85Y-37.914
X50.33Y-67.564
X50.505Y-46.974
X50.54Y-70.704
X50.56Y-41.214
X50.59Y-65.674
X50.72Y-82.174
X50.88Y-50.624
X50.94Y-38.914
X51.15Y-59.434
X51.6Y-87.464
X51.86Y-55.638
X51.86Y-85.024
X52.03Y-75.964
X52.05Y-80.434
X52.07Y-67.184
X52.07Y-72.324
X52.075Y-58.183
X52.08Y-46.774
X52.775Y-57.383
X53.15Y-63.584
X53.68Y-47.614
X53.683Y-35.136
X53.91Y-57.124
X54.195Y-59.543
X54.276Y-45.528
X54.3Y-42.293
X54.324Y-55.694
X54.45Y-37.594
X54.66Y-41.324
X54.71Y-78.534
X54.74Y-35.104
X54.85Y-86.204
X55.48Y-63.944
X55.55Y-51.144
X55.57Y-53.714
X55.85Y-35.214
X55.95Y-30.043
X55.96Y-41.754
X55.97Y-61.194
X55.98Y-37.594
X55.98Y-46.764
X56.77Y-58.743
X56.95Y-35.234
X57.03Y-76.974
X57.257Y-55.694
X57.37Y-42.144
X57.655Y-69.624
X58.28Y-40.654
X58.31Y-47.474
X58.39Y-37.404
X58.8Y-61.144
X58.84Y-63.874
X58.89Y-31.884
X59.25Y-50.284
X59.33Y-34.744
X59.85Y-58.984
X60.19Y-55.694
X62.06Y-35.584
X62.25Y-50.294
X62.89Y-38.094
X63.18Y-45.684
X63.2Y-33.424
X63.51Y-54.974
X63.86Y-66.002
X63.86Y-69.694
X63.86Y-73.385
X63.86Y-77.084
X63.86Y-80.775
T2
X61.875Y-61.334
X61.875Y-62.594
T4
X26.26Y-79.694
X26.26Y-80.964
X26.26Y-82.234
X26.26Y-83.504
X26.26Y-84.774
X27.53Y-79.694
X27.53Y-80.964
X27.53Y-82.234
X27.53Y-83.504
X27.53Y-84.774
T5
X29.03Y-46.784
X35.29Y-86.363
X36.51Y-46.784
X37.83Y-86.363
X40.37Y-86.363
X41.62Y-43.743
X42.91Y-86.363
X45.45Y-86.363
X45.92Y-82.804
X46.27Y-60.193
X47.99Y-86.363
X48.29Y-58.344
X48.47Y-62.214
X50.17Y-56.514
X50.53Y-86.363
X53.07Y-86.363
X58.0Y-51.974
T6
X56.49Y-83.074
X56.49Y-87.574
X62.99Y-83.074
X62.99Y-87.574
T3
G00X42.92Y-30.563
M15
G01X42.92Y-29.763
M16
G05
G00X42.92Y-34.893
M15
G01X42.92Y-33.793
M16
G05
G00X51.56Y-30.563
M15
G01X51.56Y-29.763
M16
G05
G00X51.56Y-34.893
M15
G01X51.56Y-33.793
M16
G05
T4
G00X25.72Y-33.234
M15
G01X25.72Y-31.934
M16
G05
G00X25.72Y-39.134
M15
G01X25.72Y-37.834
M16
G05
G00X39.82Y-33.234
M15
G01X39.82Y-31.934
M16
G05
G00X39.82Y-39.134
M15
G01X39.82Y-37.834
M16
G05
M30
