%TF.GenerationSoftware,KiCad,Pcbnew,9.0.1*%
%TF.CreationDate,2025-05-06T23:24:01+02:00*%
%TF.ProjectId,reader,72656164-6572-42e6-9b69-6361645f7063,1.0*%
%TF.SameCoordinates,Original*%
%TF.FileFunction,Copper,L2,Bot*%
%TF.FilePolarity,Positive*%
%FSLAX46Y46*%
G04 Gerber Fmt 4.6, Leading zero omitted, Abs format (unit mm)*
G04 Created by KiCad (PCBNEW 9.0.1) date 2025-05-06 23:24:01*
%MOMM*%
%LPD*%
G01*
G04 APERTURE LIST*
G04 Aperture macros list*
%AMRoundRect*
0 Rectangle with rounded corners*
0 $1 Rounding radius*
0 $2 $3 $4 $5 $6 $7 $8 $9 X,Y pos of 4 corners*
0 Add a 4 corners polygon primitive as box body*
4,1,4,$2,$3,$4,$5,$6,$7,$8,$9,$2,$3,0*
0 Add four circle primitives for the rounded corners*
1,1,$1+$1,$2,$3*
1,1,$1+$1,$4,$5*
1,1,$1+$1,$6,$7*
1,1,$1+$1,$8,$9*
0 Add four rect primitives between the rounded corners*
20,1,$1+$1,$2,$3,$4,$5,0*
20,1,$1+$1,$4,$5,$6,$7,0*
20,1,$1+$1,$6,$7,$8,$9,0*
20,1,$1+$1,$8,$9,$2,$3,0*%
G04 Aperture macros list end*
%TA.AperFunction,ComponentPad*%
%ADD10RoundRect,0.200000X-0.200000X-0.450000X0.200000X-0.450000X0.200000X0.450000X-0.200000X0.450000X0*%
%TD*%
%TA.AperFunction,ComponentPad*%
%ADD11O,0.800000X1.300000*%
%TD*%
%TA.AperFunction,HeatsinkPad*%
%ADD12O,2.100000X1.000000*%
%TD*%
%TA.AperFunction,HeatsinkPad*%
%ADD13O,1.800000X1.000000*%
%TD*%
%TA.AperFunction,ComponentPad*%
%ADD14C,2.000000*%
%TD*%
%TA.AperFunction,ComponentPad*%
%ADD15C,1.000000*%
%TD*%
%TA.AperFunction,ComponentPad*%
%ADD16R,1.000000X1.000000*%
%TD*%
%TA.AperFunction,ComponentPad*%
%ADD17R,1.700000X1.700000*%
%TD*%
%TA.AperFunction,ComponentPad*%
%ADD18C,1.700000*%
%TD*%
%TA.AperFunction,ComponentPad*%
%ADD19RoundRect,0.250000X-0.510000X-0.510000X0.510000X-0.510000X0.510000X0.510000X-0.510000X0.510000X0*%
%TD*%
%TA.AperFunction,ComponentPad*%
%ADD20C,1.520000*%
%TD*%
%TA.AperFunction,ViaPad*%
%ADD21C,0.600000*%
%TD*%
%TA.AperFunction,Conductor*%
%ADD22C,0.200000*%
%TD*%
%TA.AperFunction,Conductor*%
%ADD23C,0.300000*%
%TD*%
G04 APERTURE END LIST*
D10*
%TO.P,SP_Conn1,1,Pin_1*%
%TO.N,Net-(SP_Conn1-Pin_1)*%
X162200000Y-30300000D03*
D11*
%TO.P,SP_Conn1,2,Pin_2*%
%TO.N,GND*%
X163450000Y-30300000D03*
%TD*%
D12*
%TO.P,USB-C1,S1,SHIELD*%
%TO.N,GND*%
X175725000Y-52810000D03*
D13*
X179905000Y-52810000D03*
D12*
X175725000Y-44170000D03*
D13*
X179905000Y-44170000D03*
%TD*%
D14*
%TO.P,RESET1,1,1*%
%TO.N,NRST*%
X139400000Y-69200000D03*
X139400000Y-75700000D03*
%TO.P,RESET1,2,2*%
%TO.N,GND*%
X134900000Y-69200000D03*
X134900000Y-75700000D03*
%TD*%
D15*
%TO.P,TP1,1,1*%
%TO.N,+3.3V*%
X159150000Y-53030000D03*
%TD*%
%TO.P,TP3,1,1*%
%TO.N,Net-(JP1-B)*%
X173430000Y-32910000D03*
%TD*%
D16*
%TO.P,SWD1,1,Pin_1*%
%TO.N,SWDIO*%
X176070000Y-62410000D03*
D15*
%TO.P,SWD1,2,Pin_2*%
%TO.N,+3.3V*%
X177340000Y-62410000D03*
%TO.P,SWD1,3,Pin_3*%
%TO.N,SWCLK*%
X176070000Y-61140000D03*
%TO.P,SWD1,4,Pin_4*%
%TO.N,GND*%
X177340000Y-61140000D03*
%TO.P,SWD1,5,Pin_5*%
%TO.N,TRACESWO*%
X176070000Y-59870000D03*
%TO.P,SWD1,6,Pin_6*%
%TO.N,GND*%
X177340000Y-59870000D03*
%TO.P,SWD1,7,Pin_7*%
%TO.N,unconnected-(SWD1-Pin_7-Pad7)*%
X176070000Y-58600000D03*
%TO.P,SWD1,8,Pin_8*%
%TO.N,unconnected-(SWD1-Pin_8-Pad8)*%
X177340000Y-58600000D03*
%TO.P,SWD1,9,Pin_9*%
%TO.N,NRST*%
X176070000Y-57330000D03*
%TO.P,SWD1,10,Pin_10*%
%TO.N,GND*%
X177340000Y-57330000D03*
%TD*%
D17*
%TO.P,RC522,1,Pin_1*%
%TO.N,+3.3V*%
X154370000Y-81800000D03*
D18*
%TO.P,RC522,2,Pin_2*%
%TO.N,RFID_RST*%
X151830000Y-81800000D03*
%TO.P,RC522,3,Pin_3*%
%TO.N,GND*%
X149290000Y-81800000D03*
%TO.P,RC522,4,Pin_4*%
%TO.N,unconnected-(RC522-Pin_4-Pad4)*%
X146750000Y-81800000D03*
%TO.P,RC522,5,Pin_5*%
%TO.N,RFID_MISO*%
X144210000Y-81800000D03*
%TO.P,RC522,6,Pin_6*%
%TO.N,RFID_MOSI*%
X141670000Y-81800000D03*
%TO.P,RC522,7,Pin_7*%
%TO.N,RFID_SCK*%
X139130000Y-81800000D03*
%TO.P,RC522,8,Pin_8*%
%TO.N,RFID_SDA*%
X136590000Y-81800000D03*
%TD*%
D15*
%TO.P,TP5,1,1*%
%TO.N,RFID_IRQ*%
X147950000Y-53450000D03*
%TD*%
%TO.P,TP4,1,1*%
%TO.N,GND*%
X164210000Y-53050000D03*
%TD*%
%TO.P,TP2,1,1*%
%TO.N,V+*%
X167750000Y-56600000D03*
%TD*%
D19*
%TO.P,RJ12,1*%
%TO.N,NRST*%
X171720000Y-69230000D03*
D20*
%TO.P,RJ12,2*%
%TO.N,Net-(D5-A)*%
X172990000Y-71770000D03*
%TO.P,RJ12,3*%
%TO.N,Net-(U4-R1IN)*%
X174260000Y-69230000D03*
%TO.P,RJ12,4*%
%TO.N,Net-(U4-T1OUT)*%
X175530000Y-71770000D03*
%TO.P,RJ12,5*%
%TO.N,GND*%
X176800000Y-69230000D03*
%TO.P,RJ12,6*%
%TO.N,Net-(D6-A)*%
X178070000Y-71770000D03*
%TD*%
D21*
%TO.N,GND*%
X142900000Y-55675000D03*
X165575000Y-38250000D03*
X167500000Y-36425000D03*
X153543750Y-28450000D03*
X140270000Y-54780000D03*
X155000000Y-60600000D03*
X173400000Y-57500000D03*
X155250000Y-65300000D03*
X163940000Y-49540000D03*
X142200000Y-70130000D03*
X164100000Y-42625000D03*
X172600000Y-53000000D03*
X136690000Y-43160000D03*
X142150000Y-72150000D03*
X155400000Y-73200000D03*
X150000000Y-47300000D03*
X155520000Y-43190000D03*
X174502600Y-29884200D03*
X155730000Y-40980000D03*
X133750000Y-78762500D03*
X180400000Y-58300000D03*
X159890000Y-40970000D03*
X177500000Y-31200000D03*
X138400000Y-58800000D03*
X170600000Y-64900000D03*
X171960000Y-36660000D03*
X145000000Y-40500000D03*
X152233333Y-48600000D03*
X158160000Y-53940000D03*
X136670000Y-48070000D03*
X148600000Y-37800000D03*
X165240000Y-44960000D03*
X169100000Y-41280000D03*
X178200000Y-38000000D03*
X177000000Y-50800000D03*
X133750000Y-47641667D03*
X181400000Y-40015413D03*
X142330000Y-62310000D03*
X145850000Y-67890000D03*
X143910000Y-79840000D03*
X133500000Y-43000000D03*
X166650000Y-70050000D03*
X166850000Y-79750000D03*
X133760000Y-65710000D03*
X145925000Y-72150000D03*
X174502600Y-28919000D03*
X158770000Y-80690000D03*
X153300000Y-70300000D03*
X150000000Y-42300000D03*
X146225000Y-41025000D03*
X153300000Y-73200000D03*
X152690000Y-84825000D03*
X140160000Y-49560000D03*
X177810000Y-66940000D03*
X149560000Y-56910000D03*
X173600000Y-45290000D03*
X143150000Y-39450000D03*
X150733333Y-50200000D03*
X162160000Y-84825000D03*
X168000000Y-46550000D03*
X155850000Y-36425000D03*
X179060000Y-70610000D03*
X163150000Y-43925000D03*
X170360000Y-37590000D03*
X168710000Y-39850000D03*
X149100000Y-68730000D03*
X143100000Y-47400000D03*
X158800000Y-64000000D03*
X181450000Y-46500000D03*
X149300000Y-48600000D03*
X152110000Y-66530000D03*
X170000000Y-66650000D03*
X142260000Y-68240000D03*
X167800000Y-60800000D03*
X133750000Y-60575000D03*
X146150000Y-63380000D03*
X155440000Y-68650000D03*
X177000000Y-46200000D03*
X150766667Y-48600000D03*
X153100000Y-58200000D03*
X169100000Y-45050000D03*
X158500000Y-28450000D03*
X148600000Y-39700000D03*
X147955000Y-84825000D03*
X138675000Y-28450000D03*
X171990000Y-77670000D03*
X146000000Y-77600000D03*
X165010000Y-77040000D03*
X137460000Y-77750000D03*
X135000000Y-45500000D03*
X140610000Y-64970000D03*
X146400000Y-45900000D03*
X166550000Y-73290000D03*
X156000000Y-59400000D03*
X144950000Y-51750000D03*
X141850000Y-44400000D03*
X173520000Y-40140000D03*
X137870000Y-82680000D03*
X151450000Y-54900000D03*
X179380000Y-66940000D03*
X171710000Y-72660000D03*
X140300000Y-52500000D03*
X157425000Y-84825000D03*
X181450000Y-28475000D03*
X166895000Y-84825000D03*
X151000000Y-58600000D03*
X181200000Y-33124652D03*
X176600000Y-81100000D03*
X143300000Y-44700000D03*
X157720000Y-47790000D03*
X151600000Y-46700000D03*
X157700000Y-66400000D03*
X169500000Y-60600000D03*
X133500000Y-28450000D03*
X147940000Y-69930000D03*
X138190000Y-48040000D03*
X145480000Y-82690000D03*
X168800000Y-70100000D03*
X136680000Y-53200000D03*
X143631250Y-28450000D03*
X175400000Y-36800000D03*
X170150000Y-49450000D03*
X145000000Y-53400000D03*
X136580000Y-80080000D03*
X180560000Y-29870000D03*
X171700000Y-46800000D03*
X181450000Y-73575000D03*
X145730000Y-69970000D03*
X133725000Y-53300000D03*
X133750000Y-84825000D03*
X168800000Y-67950000D03*
X163600000Y-60200000D03*
X181450000Y-67937500D03*
X173080000Y-70310000D03*
X165200000Y-60200000D03*
X157700000Y-45650000D03*
X161980000Y-49500000D03*
X149300000Y-50200000D03*
X143500000Y-37500000D03*
X153800000Y-47200000D03*
X151675000Y-76550000D03*
X163930000Y-47770000D03*
X156760000Y-40970000D03*
X169500000Y-57800000D03*
X174800000Y-54300000D03*
X138841000Y-63564600D03*
X142960000Y-82690000D03*
X149520000Y-71610000D03*
X138910000Y-43480000D03*
X160950000Y-45900000D03*
X158970000Y-59870000D03*
X153300000Y-79750000D03*
X163430000Y-56840000D03*
X179100000Y-48500000D03*
X173320000Y-79090000D03*
X164700000Y-66700000D03*
X173300000Y-49000000D03*
X157800000Y-49500000D03*
X174850000Y-63100000D03*
X168630000Y-37590000D03*
X174140000Y-66050000D03*
X155500000Y-70400000D03*
X158279999Y-76120001D03*
X150560000Y-82690000D03*
X178060000Y-63740000D03*
X173900000Y-51700000D03*
X155440000Y-79730000D03*
X171800000Y-62100000D03*
X161975000Y-67300000D03*
X158740000Y-71480000D03*
X169130000Y-73660000D03*
X133500000Y-36000000D03*
X181450000Y-51025000D03*
X181450000Y-84850000D03*
X138485000Y-84825000D03*
X168300000Y-64500000D03*
X150400000Y-63000000D03*
X154460000Y-55320000D03*
X167300000Y-28450000D03*
X164700000Y-63700000D03*
X177050000Y-73270000D03*
X167000000Y-49000000D03*
X133750000Y-72700000D03*
X145510000Y-79850000D03*
X141850000Y-77500000D03*
X148587500Y-28450000D03*
X175570000Y-70320000D03*
X170730000Y-42610000D03*
X171100000Y-58744265D03*
X162100000Y-64200000D03*
X168540000Y-50630000D03*
X142560000Y-59210000D03*
X153100000Y-49500000D03*
X138300000Y-54900000D03*
X160600000Y-52600000D03*
X154750000Y-53730000D03*
X166450000Y-56175000D03*
X181525000Y-64200000D03*
X180547800Y-28919000D03*
X161270000Y-58340000D03*
X150300000Y-73200000D03*
X143220000Y-84825000D03*
X148400000Y-59100000D03*
X149800000Y-46000000D03*
X153700000Y-48600000D03*
X146207000Y-66003000D03*
X157010000Y-56990000D03*
X147059999Y-43890001D03*
X173400000Y-43400000D03*
X142970000Y-53570000D03*
X147000000Y-51800000D03*
X174100000Y-81400000D03*
%TO.N,+3.3V*%
X142000000Y-53800000D03*
X140400000Y-53800000D03*
X154369999Y-73530001D03*
X154400000Y-70200000D03*
%TO.N,V+*%
X171757815Y-54042185D03*
X169900000Y-46400000D03*
X169025000Y-49575000D03*
%TO.N,NRST*%
X146400000Y-69200000D03*
X141490000Y-62600000D03*
X141440000Y-55980000D03*
X141500000Y-69200000D03*
%TO.N,SWCLK*%
X163000000Y-49470000D03*
X163000000Y-46000000D03*
%TO.N,TRACESWO*%
X164550000Y-46000000D03*
X164650000Y-50080000D03*
%TO.N,USART3_TX*%
X163310000Y-54600000D03*
X152750000Y-53750000D03*
X159140000Y-54600000D03*
X162920000Y-63720000D03*
X164400000Y-56950000D03*
X162920000Y-66820000D03*
%TO.N,Net-(JP1-A)*%
X166687500Y-35812500D03*
X164800000Y-37700000D03*
%TD*%
D22*
%TO.N,Net-(JP1-A)*%
X164800000Y-37700000D02*
X166687500Y-35812500D01*
D23*
%TO.N,+3.3V*%
X154400000Y-73500000D02*
X154400000Y-70200000D01*
X154369999Y-73530001D02*
X154400000Y-73500000D01*
X140400000Y-53800000D02*
X142000000Y-53800000D01*
%TO.N,V+*%
X167750000Y-56600000D02*
X169200000Y-56600000D01*
X169025000Y-49575000D02*
X169900000Y-48700000D01*
X169900000Y-48700000D02*
X169900000Y-46400000D01*
X169200000Y-56600000D02*
X171757815Y-54042185D01*
D22*
%TO.N,NRST*%
X141490000Y-62600000D02*
X141490000Y-56030000D01*
X141490000Y-56030000D02*
X141440000Y-55980000D01*
X141500000Y-69200000D02*
X146400000Y-69200000D01*
%TO.N,SWCLK*%
X163000000Y-46000000D02*
X163000000Y-49470000D01*
%TO.N,TRACESWO*%
X164660000Y-46110000D02*
X164660000Y-50070000D01*
X164660000Y-50070000D02*
X164650000Y-50080000D01*
X164550000Y-46000000D02*
X164660000Y-46110000D01*
%TO.N,USART3_TX*%
X163560000Y-54600000D02*
X163310000Y-54600000D01*
X162920200Y-63720200D02*
X162920000Y-63720000D01*
X164400000Y-56950000D02*
X164400000Y-55440000D01*
X152750000Y-53750000D02*
X153600000Y-54600000D01*
X162920200Y-66819800D02*
X162920200Y-63720200D01*
X164400000Y-55440000D02*
X163560000Y-54600000D01*
X162920000Y-66820000D02*
X162920200Y-66819800D01*
X153600000Y-54600000D02*
X159140000Y-54600000D01*
%TD*%
%TA.AperFunction,Conductor*%
%TO.N,GND*%
G36*
X177059930Y-60084905D02*
G01*
X177125095Y-60150070D01*
X177195853Y-60190922D01*
X176905248Y-60481526D01*
X176906363Y-60492847D01*
X176906363Y-60517152D01*
X176905248Y-60528472D01*
X177195853Y-60819077D01*
X177125095Y-60859930D01*
X177059930Y-60925095D01*
X177019077Y-60995853D01*
X176718075Y-60694851D01*
X176689066Y-60689349D01*
X176686246Y-60687261D01*
X176684385Y-60686825D01*
X176675476Y-60679322D01*
X176674375Y-60678999D01*
X176666342Y-60672526D01*
X176657310Y-60665839D01*
X176657259Y-60665891D01*
X176656914Y-60665546D01*
X176656475Y-60665221D01*
X176652999Y-60661631D01*
X176584049Y-60592681D01*
X176550564Y-60531358D01*
X176555548Y-60461666D01*
X176584049Y-60417319D01*
X176657259Y-60344109D01*
X176659126Y-60345976D01*
X176707353Y-60313065D01*
X176721707Y-60311515D01*
X177019077Y-60014145D01*
X177059930Y-60084905D01*
G37*
%TD.AperFunction*%
%TA.AperFunction,Conductor*%
G36*
X176748334Y-59085548D02*
G01*
X176792681Y-59114049D01*
X176865891Y-59187259D01*
X176864031Y-59189118D01*
X176866120Y-59192182D01*
X176878233Y-59201250D01*
X176885399Y-59220465D01*
X176896952Y-59237412D01*
X176898492Y-59251716D01*
X177195853Y-59549077D01*
X177125095Y-59589930D01*
X177059930Y-59655095D01*
X177019077Y-59725853D01*
X176719615Y-59426391D01*
X176702226Y-59425148D01*
X176695933Y-59420651D01*
X176689066Y-59419349D01*
X176673609Y-59404697D01*
X176658936Y-59394213D01*
X176657259Y-59395891D01*
X176584049Y-59322681D01*
X176550564Y-59261358D01*
X176555548Y-59191666D01*
X176584049Y-59147319D01*
X176617319Y-59114049D01*
X176678642Y-59080564D01*
X176748334Y-59085548D01*
G37*
%TD.AperFunction*%
%TA.AperFunction,Conductor*%
G36*
X177059930Y-57544905D02*
G01*
X177125095Y-57610070D01*
X177195853Y-57650922D01*
X176896390Y-57950384D01*
X176895146Y-57967776D01*
X176890650Y-57974072D01*
X176889349Y-57980933D01*
X176874768Y-57996315D01*
X176864227Y-58011077D01*
X176865891Y-58012741D01*
X176792681Y-58085951D01*
X176731358Y-58119436D01*
X176661666Y-58114452D01*
X176617319Y-58085951D01*
X176584049Y-58052681D01*
X176550564Y-57991358D01*
X176555548Y-57921666D01*
X176584049Y-57877319D01*
X176657259Y-57804109D01*
X176659126Y-57805976D01*
X176662167Y-57803900D01*
X176671254Y-57791763D01*
X176690437Y-57784608D01*
X176707353Y-57773065D01*
X176721707Y-57771515D01*
X177019077Y-57474145D01*
X177059930Y-57544905D01*
G37*
%TD.AperFunction*%
%TA.AperFunction,Conductor*%
G36*
X181942539Y-28020185D02*
G01*
X181988294Y-28072989D01*
X181999500Y-28124500D01*
X181999500Y-77661813D01*
X181979815Y-77728852D01*
X181927011Y-77774607D01*
X181857853Y-77784551D01*
X181794297Y-77755526D01*
X181756523Y-77696748D01*
X181755725Y-77693907D01*
X181712330Y-77531953D01*
X181620754Y-77310870D01*
X181620748Y-77310859D01*
X181501108Y-77103634D01*
X181501107Y-77103632D01*
X181355430Y-76913783D01*
X181355424Y-76913776D01*
X181186223Y-76744575D01*
X181186216Y-76744569D01*
X180996367Y-76598892D01*
X180996365Y-76598891D01*
X180789140Y-76479251D01*
X180789132Y-76479247D01*
X180789130Y-76479246D01*
X180568047Y-76387670D01*
X180568048Y-76387670D01*
X180568045Y-76387669D01*
X180336900Y-76325734D01*
X180099659Y-76294501D01*
X180099656Y-76294500D01*
X180099650Y-76294500D01*
X179860350Y-76294500D01*
X179860344Y-76294500D01*
X179860340Y-76294501D01*
X179623099Y-76325734D01*
X179391954Y-76387669D01*
X179170876Y-76479243D01*
X179170859Y-76479251D01*
X178963634Y-76598891D01*
X178963632Y-76598892D01*
X178773783Y-76744569D01*
X178773776Y-76744575D01*
X178604575Y-76913776D01*
X178604569Y-76913783D01*
X178458892Y-77103632D01*
X178458891Y-77103634D01*
X178339251Y-77310859D01*
X178339243Y-77310876D01*
X178247669Y-77531954D01*
X178185734Y-77763099D01*
X178154501Y-78000340D01*
X178154500Y-78000356D01*
X178154500Y-78239643D01*
X178154501Y-78239659D01*
X178185734Y-78476900D01*
X178247669Y-78708045D01*
X178339243Y-78929123D01*
X178339251Y-78929140D01*
X178458891Y-79136365D01*
X178458892Y-79136367D01*
X178604569Y-79326216D01*
X178604575Y-79326223D01*
X178773776Y-79495424D01*
X178773783Y-79495430D01*
X178963632Y-79641107D01*
X178963634Y-79641108D01*
X179170859Y-79760748D01*
X179170862Y-79760749D01*
X179170870Y-79760754D01*
X179391953Y-79852330D01*
X179623098Y-79914265D01*
X179860350Y-79945500D01*
X179860357Y-79945500D01*
X180099643Y-79945500D01*
X180099650Y-79945500D01*
X180336902Y-79914265D01*
X180568047Y-79852330D01*
X180789130Y-79760754D01*
X180996370Y-79641105D01*
X181186218Y-79495429D01*
X181355429Y-79326218D01*
X181501105Y-79136370D01*
X181620754Y-78929130D01*
X181712330Y-78708047D01*
X181755725Y-78546091D01*
X181792090Y-78486432D01*
X181854937Y-78455903D01*
X181924312Y-78464198D01*
X181978190Y-78508683D01*
X181999465Y-78575235D01*
X181999500Y-78578186D01*
X181999500Y-85375500D01*
X181979815Y-85442539D01*
X181927011Y-85488294D01*
X181875500Y-85499500D01*
X133124500Y-85499500D01*
X133057461Y-85479815D01*
X133011706Y-85427011D01*
X133000500Y-85375500D01*
X133000500Y-81713389D01*
X135489500Y-81713389D01*
X135489500Y-81886611D01*
X135516598Y-82057701D01*
X135570127Y-82222445D01*
X135648768Y-82376788D01*
X135750586Y-82516928D01*
X135873072Y-82639414D01*
X136013212Y-82741232D01*
X136167555Y-82819873D01*
X136332299Y-82873402D01*
X136503389Y-82900500D01*
X136503390Y-82900500D01*
X136676610Y-82900500D01*
X136676611Y-82900500D01*
X136847701Y-82873402D01*
X137012445Y-82819873D01*
X137166788Y-82741232D01*
X137306928Y-82639414D01*
X137429414Y-82516928D01*
X137531232Y-82376788D01*
X137609873Y-82222445D01*
X137663402Y-82057701D01*
X137690500Y-81886611D01*
X137690500Y-81713389D01*
X138029500Y-81713389D01*
X138029500Y-81886611D01*
X138056598Y-82057701D01*
X138110127Y-82222445D01*
X138188768Y-82376788D01*
X138290586Y-82516928D01*
X138413072Y-82639414D01*
X138553212Y-82741232D01*
X138707555Y-82819873D01*
X138872299Y-82873402D01*
X139043389Y-82900500D01*
X139043390Y-82900500D01*
X139216610Y-82900500D01*
X139216611Y-82900500D01*
X139387701Y-82873402D01*
X139552445Y-82819873D01*
X139706788Y-82741232D01*
X139846928Y-82639414D01*
X139969414Y-82516928D01*
X140071232Y-82376788D01*
X140149873Y-82222445D01*
X140203402Y-82057701D01*
X140230500Y-81886611D01*
X140230500Y-81713389D01*
X140569500Y-81713389D01*
X140569500Y-81886611D01*
X140596598Y-82057701D01*
X140650127Y-82222445D01*
X140728768Y-82376788D01*
X140830586Y-82516928D01*
X140953072Y-82639414D01*
X141093212Y-82741232D01*
X141247555Y-82819873D01*
X141412299Y-82873402D01*
X141583389Y-82900500D01*
X141583390Y-82900500D01*
X141756610Y-82900500D01*
X141756611Y-82900500D01*
X141927701Y-82873402D01*
X142092445Y-82819873D01*
X142246788Y-82741232D01*
X142386928Y-82639414D01*
X142509414Y-82516928D01*
X142611232Y-82376788D01*
X142689873Y-82222445D01*
X142743402Y-82057701D01*
X142770500Y-81886611D01*
X142770500Y-81713389D01*
X143109500Y-81713389D01*
X143109500Y-81886611D01*
X143136598Y-82057701D01*
X143190127Y-82222445D01*
X143268768Y-82376788D01*
X143370586Y-82516928D01*
X143493072Y-82639414D01*
X143633212Y-82741232D01*
X143787555Y-82819873D01*
X143952299Y-82873402D01*
X144123389Y-82900500D01*
X144123390Y-82900500D01*
X144296610Y-82900500D01*
X144296611Y-82900500D01*
X144467701Y-82873402D01*
X144632445Y-82819873D01*
X144786788Y-82741232D01*
X144926928Y-82639414D01*
X145049414Y-82516928D01*
X145151232Y-82376788D01*
X145229873Y-82222445D01*
X145283402Y-82057701D01*
X145310500Y-81886611D01*
X145310500Y-81713389D01*
X145649500Y-81713389D01*
X145649500Y-81886611D01*
X145676598Y-82057701D01*
X145730127Y-82222445D01*
X145808768Y-82376788D01*
X145910586Y-82516928D01*
X146033072Y-82639414D01*
X146173212Y-82741232D01*
X146327555Y-82819873D01*
X146492299Y-82873402D01*
X146663389Y-82900500D01*
X146663390Y-82900500D01*
X146836610Y-82900500D01*
X146836611Y-82900500D01*
X147007701Y-82873402D01*
X147172445Y-82819873D01*
X147326788Y-82741232D01*
X147466928Y-82639414D01*
X147589414Y-82516928D01*
X147691232Y-82376788D01*
X147769873Y-82222445D01*
X147823402Y-82057701D01*
X147850500Y-81886611D01*
X147850500Y-81713428D01*
X148190000Y-81713428D01*
X148190000Y-81886571D01*
X148217085Y-82057584D01*
X148270591Y-82222257D01*
X148349194Y-82376521D01*
X148428097Y-82485124D01*
X148859269Y-82053952D01*
X148889901Y-82107007D01*
X148982993Y-82200099D01*
X149036046Y-82230729D01*
X148604874Y-82661901D01*
X148713478Y-82740805D01*
X148867742Y-82819408D01*
X149032415Y-82872914D01*
X149203429Y-82900000D01*
X149376571Y-82900000D01*
X149547584Y-82872914D01*
X149712257Y-82819408D01*
X149866528Y-82740801D01*
X149975124Y-82661902D01*
X149975125Y-82661901D01*
X149543953Y-82230729D01*
X149597007Y-82200099D01*
X149690099Y-82107007D01*
X149720729Y-82053953D01*
X150151901Y-82485125D01*
X150151902Y-82485124D01*
X150230801Y-82376528D01*
X150309408Y-82222257D01*
X150362914Y-82057584D01*
X150390000Y-81886571D01*
X150390000Y-81713428D01*
X150389994Y-81713389D01*
X150729500Y-81713389D01*
X150729500Y-81886611D01*
X150756598Y-82057701D01*
X150810127Y-82222445D01*
X150888768Y-82376788D01*
X150990586Y-82516928D01*
X151113072Y-82639414D01*
X151253212Y-82741232D01*
X151407555Y-82819873D01*
X151572299Y-82873402D01*
X151743389Y-82900500D01*
X151743390Y-82900500D01*
X151916610Y-82900500D01*
X151916611Y-82900500D01*
X152087701Y-82873402D01*
X152252445Y-82819873D01*
X152406788Y-82741232D01*
X152546928Y-82639414D01*
X152669414Y-82516928D01*
X152771232Y-82376788D01*
X152849873Y-82222445D01*
X152903402Y-82057701D01*
X152930500Y-81886611D01*
X152930500Y-81713389D01*
X152903402Y-81542299D01*
X152849873Y-81377555D01*
X152771232Y-81223212D01*
X152669414Y-81083072D01*
X152546928Y-80960586D01*
X152498390Y-80925321D01*
X153269500Y-80925321D01*
X153269500Y-82674678D01*
X153284032Y-82747735D01*
X153284033Y-82747739D01*
X153284034Y-82747740D01*
X153339399Y-82830601D01*
X153422260Y-82885966D01*
X153422264Y-82885967D01*
X153495321Y-82900499D01*
X153495324Y-82900500D01*
X153495326Y-82900500D01*
X155244676Y-82900500D01*
X155244677Y-82900499D01*
X155317740Y-82885966D01*
X155400601Y-82830601D01*
X155455966Y-82747740D01*
X155470500Y-82674674D01*
X155470500Y-80925326D01*
X155470500Y-80925323D01*
X155470499Y-80925321D01*
X155455967Y-80852264D01*
X155455966Y-80852260D01*
X155400601Y-80769399D01*
X155317740Y-80714034D01*
X155317739Y-80714033D01*
X155317735Y-80714032D01*
X155244677Y-80699500D01*
X155244674Y-80699500D01*
X153495326Y-80699500D01*
X153495323Y-80699500D01*
X153422264Y-80714032D01*
X153422260Y-80714033D01*
X153339399Y-80769399D01*
X153284033Y-80852260D01*
X153284032Y-80852264D01*
X153269500Y-80925321D01*
X152498390Y-80925321D01*
X152406788Y-80858768D01*
X152252445Y-80780127D01*
X152087701Y-80726598D01*
X152087699Y-80726597D01*
X152087698Y-80726597D01*
X151956271Y-80705781D01*
X151916611Y-80699500D01*
X151743389Y-80699500D01*
X151703728Y-80705781D01*
X151572302Y-80726597D01*
X151407552Y-80780128D01*
X151253211Y-80858768D01*
X151173256Y-80916859D01*
X151113072Y-80960586D01*
X151113070Y-80960588D01*
X151113069Y-80960588D01*
X150990588Y-81083069D01*
X150990588Y-81083070D01*
X150990586Y-81083072D01*
X150946859Y-81143256D01*
X150888768Y-81223211D01*
X150810128Y-81377552D01*
X150756597Y-81542302D01*
X150746349Y-81607007D01*
X150729500Y-81713389D01*
X150389994Y-81713389D01*
X150362914Y-81542415D01*
X150309408Y-81377742D01*
X150230805Y-81223478D01*
X150151901Y-81114874D01*
X149720729Y-81546046D01*
X149690099Y-81492993D01*
X149597007Y-81399901D01*
X149543952Y-81369270D01*
X149975124Y-80938097D01*
X149866521Y-80859194D01*
X149712257Y-80780591D01*
X149547584Y-80727085D01*
X149376571Y-80700000D01*
X149203429Y-80700000D01*
X149032415Y-80727085D01*
X148867742Y-80780591D01*
X148713476Y-80859195D01*
X148713474Y-80859196D01*
X148604874Y-80938096D01*
X148604874Y-80938097D01*
X149036047Y-81369270D01*
X148982993Y-81399901D01*
X148889901Y-81492993D01*
X148859270Y-81546047D01*
X148428097Y-81114874D01*
X148428096Y-81114874D01*
X148349196Y-81223474D01*
X148349195Y-81223476D01*
X148270591Y-81377742D01*
X148217085Y-81542415D01*
X148190000Y-81713428D01*
X147850500Y-81713428D01*
X147850500Y-81713389D01*
X147823402Y-81542299D01*
X147769873Y-81377555D01*
X147691232Y-81223212D01*
X147589414Y-81083072D01*
X147466928Y-80960586D01*
X147326788Y-80858768D01*
X147172445Y-80780127D01*
X147007701Y-80726598D01*
X147007699Y-80726597D01*
X147007698Y-80726597D01*
X146876271Y-80705781D01*
X146836611Y-80699500D01*
X146663389Y-80699500D01*
X146623728Y-80705781D01*
X146492302Y-80726597D01*
X146327552Y-80780128D01*
X146173211Y-80858768D01*
X146093256Y-80916859D01*
X146033072Y-80960586D01*
X146033070Y-80960588D01*
X146033069Y-80960588D01*
X145910588Y-81083069D01*
X145910588Y-81083070D01*
X145910586Y-81083072D01*
X145866859Y-81143256D01*
X145808768Y-81223211D01*
X145730128Y-81377552D01*
X145676597Y-81542302D01*
X145666349Y-81607007D01*
X145649500Y-81713389D01*
X145310500Y-81713389D01*
X145283402Y-81542299D01*
X145229873Y-81377555D01*
X145151232Y-81223212D01*
X145049414Y-81083072D01*
X144926928Y-80960586D01*
X144786788Y-80858768D01*
X144632445Y-80780127D01*
X144467701Y-80726598D01*
X144467699Y-80726597D01*
X144467698Y-80726597D01*
X144336271Y-80705781D01*
X144296611Y-80699500D01*
X144123389Y-80699500D01*
X144083728Y-80705781D01*
X143952302Y-80726597D01*
X143787552Y-80780128D01*
X143633211Y-80858768D01*
X143553256Y-80916859D01*
X143493072Y-80960586D01*
X143493070Y-80960588D01*
X143493069Y-80960588D01*
X143370588Y-81083069D01*
X143370588Y-81083070D01*
X143370586Y-81083072D01*
X143326859Y-81143256D01*
X143268768Y-81223211D01*
X143190128Y-81377552D01*
X143136597Y-81542302D01*
X143126349Y-81607007D01*
X143109500Y-81713389D01*
X142770500Y-81713389D01*
X142743402Y-81542299D01*
X142689873Y-81377555D01*
X142611232Y-81223212D01*
X142509414Y-81083072D01*
X142386928Y-80960586D01*
X142246788Y-80858768D01*
X142092445Y-80780127D01*
X141927701Y-80726598D01*
X141927699Y-80726597D01*
X141927698Y-80726597D01*
X141796271Y-80705781D01*
X141756611Y-80699500D01*
X141583389Y-80699500D01*
X141543728Y-80705781D01*
X141412302Y-80726597D01*
X141247552Y-80780128D01*
X141093211Y-80858768D01*
X141013256Y-80916859D01*
X140953072Y-80960586D01*
X140953070Y-80960588D01*
X140953069Y-80960588D01*
X140830588Y-81083069D01*
X140830588Y-81083070D01*
X140830586Y-81083072D01*
X140786859Y-81143256D01*
X140728768Y-81223211D01*
X140650128Y-81377552D01*
X140596597Y-81542302D01*
X140586349Y-81607007D01*
X140569500Y-81713389D01*
X140230500Y-81713389D01*
X140203402Y-81542299D01*
X140149873Y-81377555D01*
X140071232Y-81223212D01*
X139969414Y-81083072D01*
X139846928Y-80960586D01*
X139706788Y-80858768D01*
X139552445Y-80780127D01*
X139387701Y-80726598D01*
X139387699Y-80726597D01*
X139387698Y-80726597D01*
X139256271Y-80705781D01*
X139216611Y-80699500D01*
X139043389Y-80699500D01*
X139003728Y-80705781D01*
X138872302Y-80726597D01*
X138707552Y-80780128D01*
X138553211Y-80858768D01*
X138473256Y-80916859D01*
X138413072Y-80960586D01*
X138413070Y-80960588D01*
X138413069Y-80960588D01*
X138290588Y-81083069D01*
X138290588Y-81083070D01*
X138290586Y-81083072D01*
X138246859Y-81143256D01*
X138188768Y-81223211D01*
X138110128Y-81377552D01*
X138056597Y-81542302D01*
X138046349Y-81607007D01*
X138029500Y-81713389D01*
X137690500Y-81713389D01*
X137663402Y-81542299D01*
X137609873Y-81377555D01*
X137531232Y-81223212D01*
X137429414Y-81083072D01*
X137306928Y-80960586D01*
X137166788Y-80858768D01*
X137012445Y-80780127D01*
X136847701Y-80726598D01*
X136847699Y-80726597D01*
X136847698Y-80726597D01*
X136716271Y-80705781D01*
X136676611Y-80699500D01*
X136503389Y-80699500D01*
X136463728Y-80705781D01*
X136332302Y-80726597D01*
X136167552Y-80780128D01*
X136013211Y-80858768D01*
X135933256Y-80916859D01*
X135873072Y-80960586D01*
X135873070Y-80960588D01*
X135873069Y-80960588D01*
X135750588Y-81083069D01*
X135750588Y-81083070D01*
X135750586Y-81083072D01*
X135706859Y-81143256D01*
X135648768Y-81223211D01*
X135570128Y-81377552D01*
X135516597Y-81542302D01*
X135506349Y-81607007D01*
X135489500Y-81713389D01*
X133000500Y-81713389D01*
X133000500Y-78000356D01*
X167994500Y-78000356D01*
X167994500Y-78239643D01*
X167994501Y-78239659D01*
X168025734Y-78476900D01*
X168087669Y-78708045D01*
X168179243Y-78929123D01*
X168179251Y-78929140D01*
X168298891Y-79136365D01*
X168298892Y-79136367D01*
X168444569Y-79326216D01*
X168444575Y-79326223D01*
X168613776Y-79495424D01*
X168613783Y-79495430D01*
X168803632Y-79641107D01*
X168803634Y-79641108D01*
X169010859Y-79760748D01*
X169010862Y-79760749D01*
X169010870Y-79760754D01*
X169231953Y-79852330D01*
X169463098Y-79914265D01*
X169700350Y-79945500D01*
X169700357Y-79945500D01*
X169939643Y-79945500D01*
X169939650Y-79945500D01*
X170176902Y-79914265D01*
X170408047Y-79852330D01*
X170629130Y-79760754D01*
X170836370Y-79641105D01*
X171026218Y-79495429D01*
X171195429Y-79326218D01*
X171341105Y-79136370D01*
X171460754Y-78929130D01*
X171552330Y-78708047D01*
X171614265Y-78476902D01*
X171645500Y-78239650D01*
X171645500Y-78000350D01*
X171614265Y-77763098D01*
X171552330Y-77531953D01*
X171460754Y-77310870D01*
X171460748Y-77310859D01*
X171341108Y-77103634D01*
X171341107Y-77103632D01*
X171195430Y-76913783D01*
X171195424Y-76913776D01*
X171026223Y-76744575D01*
X171026216Y-76744569D01*
X170836367Y-76598892D01*
X170836365Y-76598891D01*
X170629140Y-76479251D01*
X170629132Y-76479247D01*
X170629130Y-76479246D01*
X170408047Y-76387670D01*
X170408048Y-76387670D01*
X170408045Y-76387669D01*
X170176900Y-76325734D01*
X169939659Y-76294501D01*
X169939656Y-76294500D01*
X169939650Y-76294500D01*
X169700350Y-76294500D01*
X169700344Y-76294500D01*
X169700340Y-76294501D01*
X169463099Y-76325734D01*
X169231954Y-76387669D01*
X169010876Y-76479243D01*
X169010859Y-76479251D01*
X168803634Y-76598891D01*
X168803632Y-76598892D01*
X168613783Y-76744569D01*
X168613776Y-76744575D01*
X168444575Y-76913776D01*
X168444569Y-76913783D01*
X168298892Y-77103632D01*
X168298891Y-77103634D01*
X168179251Y-77310859D01*
X168179243Y-77310876D01*
X168087669Y-77531954D01*
X168025734Y-77763099D01*
X167994501Y-78000340D01*
X167994500Y-78000356D01*
X133000500Y-78000356D01*
X133000500Y-75601617D01*
X133650000Y-75601617D01*
X133650000Y-75798382D01*
X133680778Y-75992705D01*
X133741581Y-76179835D01*
X133830900Y-76355135D01*
X133830904Y-76355141D01*
X133930710Y-76492511D01*
X133930711Y-76492512D01*
X134432667Y-75990555D01*
X134459890Y-76037708D01*
X134562292Y-76140110D01*
X134609442Y-76167332D01*
X134107486Y-76669288D01*
X134244858Y-76769095D01*
X134244864Y-76769099D01*
X134420164Y-76858418D01*
X134607294Y-76919221D01*
X134801618Y-76950000D01*
X134998382Y-76950000D01*
X135192705Y-76919221D01*
X135379835Y-76858418D01*
X135555143Y-76769095D01*
X135692511Y-76669288D01*
X135692512Y-76669287D01*
X135190557Y-76167332D01*
X135237708Y-76140110D01*
X135340110Y-76037708D01*
X135367332Y-75990556D01*
X135869287Y-76492512D01*
X135869288Y-76492511D01*
X135969095Y-76355143D01*
X136058418Y-76179835D01*
X136119221Y-75992705D01*
X136150000Y-75798382D01*
X136150000Y-75601617D01*
X136149994Y-75601577D01*
X138149500Y-75601577D01*
X138149500Y-75798422D01*
X138180290Y-75992826D01*
X138241117Y-76180029D01*
X138299444Y-76294501D01*
X138330476Y-76355405D01*
X138446172Y-76514646D01*
X138585354Y-76653828D01*
X138744595Y-76769524D01*
X138827455Y-76811743D01*
X138919970Y-76858882D01*
X138919972Y-76858882D01*
X138919975Y-76858884D01*
X139020317Y-76891487D01*
X139107173Y-76919709D01*
X139301578Y-76950500D01*
X139301583Y-76950500D01*
X139498422Y-76950500D01*
X139692826Y-76919709D01*
X139711086Y-76913776D01*
X139880025Y-76858884D01*
X140055405Y-76769524D01*
X140214646Y-76653828D01*
X140353828Y-76514646D01*
X140469524Y-76355405D01*
X140558884Y-76180025D01*
X140619709Y-75992826D01*
X140620454Y-75988124D01*
X140650500Y-75798422D01*
X140650500Y-75601577D01*
X140619709Y-75407173D01*
X140609736Y-75376481D01*
X147323499Y-75376481D01*
X147353339Y-75526491D01*
X147353342Y-75526501D01*
X147411873Y-75667809D01*
X147411875Y-75667812D01*
X147496849Y-75794985D01*
X147496855Y-75794993D01*
X147605006Y-75903144D01*
X147605014Y-75903150D01*
X147732187Y-75988124D01*
X147732190Y-75988126D01*
X147851893Y-76037708D01*
X147873503Y-76046659D01*
X147873507Y-76046659D01*
X147873508Y-76046660D01*
X148023518Y-76076500D01*
X148023521Y-76076500D01*
X148176481Y-76076500D01*
X148277404Y-76056424D01*
X148326497Y-76046659D01*
X148467811Y-75988125D01*
X148594990Y-75903147D01*
X148703147Y-75794990D01*
X148788125Y-75667811D01*
X148846659Y-75526497D01*
X148856424Y-75477404D01*
X148876500Y-75376481D01*
X148876500Y-75223518D01*
X148846660Y-75073508D01*
X148846659Y-75073507D01*
X148846659Y-75073503D01*
X148846657Y-75073498D01*
X148788126Y-74932190D01*
X148788124Y-74932187D01*
X148703150Y-74805014D01*
X148703144Y-74805006D01*
X148594993Y-74696855D01*
X148594985Y-74696849D01*
X148467812Y-74611875D01*
X148467809Y-74611873D01*
X148326501Y-74553342D01*
X148326491Y-74553339D01*
X148176481Y-74523500D01*
X148176479Y-74523500D01*
X148023521Y-74523500D01*
X148023519Y-74523500D01*
X147873508Y-74553339D01*
X147873498Y-74553342D01*
X147732190Y-74611873D01*
X147732187Y-74611875D01*
X147605014Y-74696849D01*
X147605006Y-74696855D01*
X147496855Y-74805006D01*
X147496849Y-74805014D01*
X147411875Y-74932187D01*
X147411873Y-74932190D01*
X147353342Y-75073498D01*
X147353339Y-75073508D01*
X147323500Y-75223518D01*
X147323500Y-75223521D01*
X147323500Y-75376479D01*
X147323500Y-75376481D01*
X147323499Y-75376481D01*
X140609736Y-75376481D01*
X140570507Y-75255748D01*
X140558882Y-75219970D01*
X140511743Y-75127455D01*
X140469524Y-75044595D01*
X140353828Y-74885354D01*
X140214646Y-74746172D01*
X140055405Y-74630476D01*
X139880029Y-74541117D01*
X139692826Y-74480290D01*
X139498422Y-74449500D01*
X139498417Y-74449500D01*
X139301583Y-74449500D01*
X139301578Y-74449500D01*
X139107173Y-74480290D01*
X138919970Y-74541117D01*
X138744594Y-74630476D01*
X138653741Y-74696485D01*
X138585354Y-74746172D01*
X138585352Y-74746174D01*
X138585351Y-74746174D01*
X138446174Y-74885351D01*
X138446174Y-74885352D01*
X138446172Y-74885354D01*
X138396485Y-74953741D01*
X138330476Y-75044594D01*
X138241117Y-75219970D01*
X138180290Y-75407173D01*
X138149500Y-75601577D01*
X136149994Y-75601577D01*
X136119221Y-75407294D01*
X136058418Y-75220164D01*
X135969099Y-75044864D01*
X135969095Y-75044858D01*
X135869288Y-74907487D01*
X135869288Y-74907486D01*
X135367332Y-75409442D01*
X135340110Y-75362292D01*
X135237708Y-75259890D01*
X135190556Y-75232667D01*
X135692512Y-74730711D01*
X135692511Y-74730710D01*
X135555141Y-74630904D01*
X135555135Y-74630900D01*
X135379835Y-74541581D01*
X135192705Y-74480778D01*
X134998382Y-74450000D01*
X134801618Y-74450000D01*
X134607294Y-74480778D01*
X134420164Y-74541581D01*
X134244856Y-74630904D01*
X134107487Y-74730710D01*
X134107486Y-74730710D01*
X134609443Y-75232667D01*
X134562292Y-75259890D01*
X134459890Y-75362292D01*
X134432667Y-75409443D01*
X133930710Y-74907486D01*
X133930710Y-74907487D01*
X133830904Y-75044856D01*
X133741581Y-75220164D01*
X133680778Y-75407294D01*
X133650000Y-75601617D01*
X133000500Y-75601617D01*
X133000500Y-73457526D01*
X153819499Y-73457526D01*
X153819499Y-73602476D01*
X153857015Y-73742486D01*
X153857016Y-73742489D01*
X153929487Y-73868012D01*
X153929489Y-73868014D01*
X153929490Y-73868016D01*
X154031984Y-73970510D01*
X154031985Y-73970511D01*
X154031987Y-73970512D01*
X154157510Y-74042983D01*
X154157511Y-74042983D01*
X154157514Y-74042985D01*
X154297524Y-74080501D01*
X154297527Y-74080501D01*
X154442471Y-74080501D01*
X154442474Y-74080501D01*
X154582484Y-74042985D01*
X154708014Y-73970510D01*
X154810508Y-73868016D01*
X154882983Y-73742486D01*
X154920499Y-73602476D01*
X154920499Y-73457526D01*
X154915911Y-73440403D01*
X154911698Y-73410010D01*
X154911651Y-73406629D01*
X154911650Y-73406620D01*
X154803227Y-72898163D01*
X154800500Y-72872303D01*
X154800500Y-71670469D01*
X171979500Y-71670469D01*
X171979500Y-71869530D01*
X172018331Y-72064744D01*
X172018333Y-72064752D01*
X172094505Y-72248647D01*
X172094510Y-72248657D01*
X172205093Y-72414155D01*
X172205096Y-72414159D01*
X172345840Y-72554903D01*
X172345844Y-72554906D01*
X172511342Y-72665489D01*
X172511346Y-72665491D01*
X172511349Y-72665493D01*
X172695248Y-72741667D01*
X172890469Y-72780499D01*
X172890472Y-72780500D01*
X172890474Y-72780500D01*
X173089528Y-72780500D01*
X173089529Y-72780499D01*
X173284752Y-72741667D01*
X173468651Y-72665493D01*
X173634156Y-72554906D01*
X173774906Y-72414156D01*
X173885493Y-72248651D01*
X173961667Y-72064752D01*
X174000500Y-71869526D01*
X174000500Y-71670474D01*
X174000500Y-71670471D01*
X174000499Y-71670469D01*
X174519500Y-71670469D01*
X174519500Y-71869530D01*
X174558331Y-72064744D01*
X174558333Y-72064752D01*
X174634505Y-72248647D01*
X174634510Y-72248657D01*
X174745093Y-72414155D01*
X174745096Y-72414159D01*
X174885840Y-72554903D01*
X174885844Y-72554906D01*
X175051342Y-72665489D01*
X175051346Y-72665491D01*
X175051349Y-72665493D01*
X175235248Y-72741667D01*
X175430469Y-72780499D01*
X175430472Y-72780500D01*
X175430474Y-72780500D01*
X175629528Y-72780500D01*
X175629529Y-72780499D01*
X175824752Y-72741667D01*
X176008651Y-72665493D01*
X176174156Y-72554906D01*
X176314906Y-72414156D01*
X176425493Y-72248651D01*
X176501667Y-72064752D01*
X176540500Y-71869526D01*
X176540500Y-71670474D01*
X176540500Y-71670471D01*
X176540499Y-71670469D01*
X177059500Y-71670469D01*
X177059500Y-71869530D01*
X177098331Y-72064744D01*
X177098333Y-72064752D01*
X177174505Y-72248647D01*
X177174510Y-72248657D01*
X177285093Y-72414155D01*
X177285096Y-72414159D01*
X177425840Y-72554903D01*
X177425844Y-72554906D01*
X177591342Y-72665489D01*
X177591346Y-72665491D01*
X177591349Y-72665493D01*
X177775248Y-72741667D01*
X177970469Y-72780499D01*
X177970472Y-72780500D01*
X177970474Y-72780500D01*
X178169528Y-72780500D01*
X178169529Y-72780499D01*
X178364752Y-72741667D01*
X178548651Y-72665493D01*
X178714156Y-72554906D01*
X178854906Y-72414156D01*
X178965493Y-72248651D01*
X179041667Y-72064752D01*
X179080500Y-71869526D01*
X179080500Y-71670474D01*
X179080500Y-71670471D01*
X179080499Y-71670469D01*
X179041668Y-71475255D01*
X179041667Y-71475248D01*
X178965493Y-71291349D01*
X178965491Y-71291346D01*
X178965489Y-71291342D01*
X178854906Y-71125844D01*
X178854903Y-71125840D01*
X178714159Y-70985096D01*
X178714155Y-70985093D01*
X178548657Y-70874510D01*
X178548647Y-70874505D01*
X178364752Y-70798333D01*
X178364744Y-70798331D01*
X178169529Y-70759500D01*
X178169526Y-70759500D01*
X177970474Y-70759500D01*
X177970471Y-70759500D01*
X177775255Y-70798331D01*
X177775247Y-70798333D01*
X177591352Y-70874505D01*
X177591342Y-70874510D01*
X177425844Y-70985093D01*
X177425840Y-70985096D01*
X177285096Y-71125840D01*
X177285093Y-71125844D01*
X177174510Y-71291342D01*
X177174505Y-71291352D01*
X177098333Y-71475247D01*
X177098331Y-71475255D01*
X177059500Y-71670469D01*
X176540499Y-71670469D01*
X176501668Y-71475255D01*
X176501667Y-71475248D01*
X176425493Y-71291349D01*
X176425491Y-71291346D01*
X176425489Y-71291342D01*
X176314906Y-71125844D01*
X176314903Y-71125840D01*
X176174159Y-70985096D01*
X176174155Y-70985093D01*
X176008657Y-70874510D01*
X176008647Y-70874505D01*
X175824752Y-70798333D01*
X175824744Y-70798331D01*
X175629529Y-70759500D01*
X175629526Y-70759500D01*
X175430474Y-70759500D01*
X175430471Y-70759500D01*
X175235255Y-70798331D01*
X175235247Y-70798333D01*
X175051352Y-70874505D01*
X175051342Y-70874510D01*
X174885844Y-70985093D01*
X174885840Y-70985096D01*
X174745096Y-71125840D01*
X174745093Y-71125844D01*
X174634510Y-71291342D01*
X174634505Y-71291352D01*
X174558333Y-71475247D01*
X174558331Y-71475255D01*
X174519500Y-71670469D01*
X174000499Y-71670469D01*
X173961668Y-71475255D01*
X173961667Y-71475248D01*
X173885493Y-71291349D01*
X173885491Y-71291346D01*
X173885489Y-71291342D01*
X173774906Y-71125844D01*
X173774903Y-71125840D01*
X173634159Y-70985096D01*
X173634155Y-70985093D01*
X173468657Y-70874510D01*
X173468647Y-70874505D01*
X173284752Y-70798333D01*
X173284744Y-70798331D01*
X173089529Y-70759500D01*
X173089526Y-70759500D01*
X172890474Y-70759500D01*
X172890471Y-70759500D01*
X172695255Y-70798331D01*
X172695247Y-70798333D01*
X172511352Y-70874505D01*
X172511342Y-70874510D01*
X172345844Y-70985093D01*
X172345840Y-70985096D01*
X172205096Y-71125840D01*
X172205093Y-71125844D01*
X172094510Y-71291342D01*
X172094505Y-71291352D01*
X172018333Y-71475247D01*
X172018331Y-71475255D01*
X171979500Y-71670469D01*
X154800500Y-71670469D01*
X154800500Y-70862999D01*
X154804764Y-70830761D01*
X154813495Y-70798333D01*
X154937708Y-70336990D01*
X154939693Y-70329122D01*
X154939863Y-70328400D01*
X154941595Y-70320484D01*
X154941595Y-70320477D01*
X154942314Y-70313933D01*
X154942618Y-70313966D01*
X154945815Y-70289955D01*
X154950500Y-70272475D01*
X154950500Y-70127525D01*
X154912984Y-69987515D01*
X154909993Y-69982335D01*
X154840511Y-69861988D01*
X154840506Y-69861982D01*
X154738017Y-69759493D01*
X154738011Y-69759488D01*
X154612488Y-69687017D01*
X154612489Y-69687017D01*
X154586409Y-69680029D01*
X154472475Y-69649500D01*
X154327525Y-69649500D01*
X154213591Y-69680029D01*
X154187511Y-69687017D01*
X154061988Y-69759488D01*
X154061982Y-69759493D01*
X153959493Y-69861982D01*
X153959488Y-69861988D01*
X153887017Y-69987511D01*
X153887016Y-69987515D01*
X153849500Y-70127525D01*
X153849500Y-70127527D01*
X153849500Y-70272480D01*
X153857657Y-70302922D01*
X153861606Y-70326742D01*
X153862290Y-70336984D01*
X153862290Y-70336987D01*
X153862291Y-70336990D01*
X153868060Y-70358418D01*
X153995236Y-70830761D01*
X153999500Y-70862999D01*
X153999500Y-72860229D01*
X153999126Y-72862583D01*
X153999448Y-72863808D01*
X153993419Y-72898583D01*
X153953995Y-73019791D01*
X153953990Y-73019803D01*
X153953991Y-73019804D01*
X153859193Y-73311269D01*
X153857352Y-73316258D01*
X153857162Y-73316967D01*
X153855322Y-73323170D01*
X153836849Y-73379968D01*
X153832733Y-73393972D01*
X153832401Y-73395232D01*
X153829049Y-73409647D01*
X153828242Y-73416590D01*
X153827648Y-73416520D01*
X153826948Y-73421768D01*
X153826220Y-73431906D01*
X153825595Y-73434770D01*
X153819499Y-73457526D01*
X133000500Y-73457526D01*
X133000500Y-69101617D01*
X133650000Y-69101617D01*
X133650000Y-69298382D01*
X133680778Y-69492705D01*
X133741581Y-69679835D01*
X133830900Y-69855135D01*
X133830904Y-69855141D01*
X133930710Y-69992511D01*
X133930711Y-69992512D01*
X134432667Y-69490555D01*
X134459890Y-69537708D01*
X134562292Y-69640110D01*
X134609442Y-69667332D01*
X134107486Y-70169288D01*
X134244858Y-70269095D01*
X134244864Y-70269099D01*
X134420164Y-70358418D01*
X134607294Y-70419221D01*
X134801618Y-70450000D01*
X134998382Y-70450000D01*
X135192705Y-70419221D01*
X135379835Y-70358418D01*
X135555143Y-70269095D01*
X135692511Y-70169288D01*
X135692512Y-70169287D01*
X135190557Y-69667332D01*
X135237708Y-69640110D01*
X135340110Y-69537708D01*
X135367332Y-69490556D01*
X135869287Y-69992512D01*
X135869288Y-69992511D01*
X135969095Y-69855143D01*
X136058418Y-69679835D01*
X136119221Y-69492705D01*
X136150000Y-69298382D01*
X136150000Y-69101617D01*
X136149994Y-69101577D01*
X138149500Y-69101577D01*
X138149500Y-69298422D01*
X138180290Y-69492826D01*
X138241117Y-69680029D01*
X138296062Y-69787864D01*
X138330476Y-69855405D01*
X138446172Y-70014646D01*
X138585354Y-70153828D01*
X138744595Y-70269524D01*
X138750397Y-70272480D01*
X138919970Y-70358882D01*
X138919972Y-70358882D01*
X138919975Y-70358884D01*
X139020317Y-70391487D01*
X139107173Y-70419709D01*
X139301578Y-70450500D01*
X139301583Y-70450500D01*
X139498422Y-70450500D01*
X139692826Y-70419709D01*
X139694328Y-70419221D01*
X139880025Y-70358884D01*
X140055405Y-70269524D01*
X140214646Y-70153828D01*
X140353828Y-70014646D01*
X140469524Y-69855405D01*
X140558884Y-69680025D01*
X140619709Y-69492826D01*
X140619728Y-69492705D01*
X140650500Y-69298422D01*
X140650500Y-69127525D01*
X140949500Y-69127525D01*
X140949500Y-69272475D01*
X140977421Y-69376675D01*
X140987017Y-69412488D01*
X141059488Y-69538011D01*
X141059490Y-69538013D01*
X141059491Y-69538015D01*
X141161985Y-69640509D01*
X141161986Y-69640510D01*
X141161988Y-69640511D01*
X141287511Y-69712982D01*
X141287512Y-69712982D01*
X141287515Y-69712984D01*
X141427525Y-69750500D01*
X141427528Y-69750500D01*
X141572474Y-69750500D01*
X141572475Y-69750500D01*
X141638203Y-69732887D01*
X141658381Y-69729807D01*
X141682959Y-69720895D01*
X141712485Y-69712984D01*
X141716032Y-69710935D01*
X141735758Y-69701750D01*
X142132435Y-69557926D01*
X142174702Y-69550500D01*
X145725298Y-69550500D01*
X145767565Y-69557926D01*
X146174508Y-69705474D01*
X146187515Y-69712984D01*
X146217037Y-69720894D01*
X146241618Y-69729807D01*
X146259551Y-69735570D01*
X146259570Y-69735576D01*
X146261218Y-69736039D01*
X146279733Y-69740508D01*
X146286934Y-69741376D01*
X146286837Y-69742173D01*
X146305938Y-69744715D01*
X146327525Y-69750500D01*
X146327526Y-69750500D01*
X146472472Y-69750500D01*
X146472475Y-69750500D01*
X146612485Y-69712984D01*
X146738015Y-69640509D01*
X146840509Y-69538015D01*
X146912984Y-69412485D01*
X146950500Y-69272475D01*
X146950500Y-69127525D01*
X146912984Y-68987515D01*
X146882891Y-68935393D01*
X146840511Y-68861988D01*
X146840506Y-68861982D01*
X146738017Y-68759493D01*
X146738011Y-68759488D01*
X146612488Y-68687017D01*
X146612489Y-68687017D01*
X146601006Y-68683940D01*
X146556949Y-68672135D01*
X170709500Y-68672135D01*
X170709500Y-69787870D01*
X170709501Y-69787876D01*
X170715908Y-69847483D01*
X170766202Y-69982328D01*
X170766206Y-69982335D01*
X170852452Y-70097544D01*
X170852455Y-70097547D01*
X170967664Y-70183793D01*
X170967671Y-70183797D01*
X171102517Y-70234091D01*
X171102516Y-70234091D01*
X171109444Y-70234835D01*
X171162127Y-70240500D01*
X172277872Y-70240499D01*
X172337483Y-70234091D01*
X172472331Y-70183796D01*
X172587546Y-70097546D01*
X172673796Y-69982331D01*
X172724091Y-69847483D01*
X172730500Y-69787873D01*
X172730499Y-69130469D01*
X173249500Y-69130469D01*
X173249500Y-69329530D01*
X173288331Y-69524744D01*
X173288333Y-69524752D01*
X173364505Y-69708647D01*
X173364510Y-69708657D01*
X173475093Y-69874155D01*
X173475096Y-69874159D01*
X173615840Y-70014903D01*
X173615844Y-70014906D01*
X173781342Y-70125489D01*
X173781346Y-70125491D01*
X173781349Y-70125493D01*
X173965248Y-70201667D01*
X174128254Y-70234091D01*
X174160469Y-70240499D01*
X174160472Y-70240500D01*
X174160474Y-70240500D01*
X174359528Y-70240500D01*
X174359529Y-70240499D01*
X174554752Y-70201667D01*
X174738651Y-70125493D01*
X174739313Y-70125051D01*
X174780475Y-70097547D01*
X174904156Y-70014906D01*
X174936734Y-69982328D01*
X175023980Y-69895083D01*
X175044903Y-69874159D01*
X175044906Y-69874156D01*
X175155493Y-69708651D01*
X175231667Y-69524752D01*
X175270500Y-69329526D01*
X175270500Y-69130519D01*
X175790000Y-69130519D01*
X175790000Y-69329480D01*
X175828812Y-69524598D01*
X175828814Y-69524606D01*
X175904948Y-69708411D01*
X175904953Y-69708420D01*
X176001024Y-69852198D01*
X176457115Y-69396107D01*
X176495924Y-69463325D01*
X176566675Y-69534076D01*
X176633891Y-69572883D01*
X176177799Y-70028975D01*
X176321579Y-70125046D01*
X176321588Y-70125051D01*
X176505393Y-70201185D01*
X176505401Y-70201187D01*
X176700519Y-70239999D01*
X176700522Y-70240000D01*
X176899478Y-70240000D01*
X176899480Y-70239999D01*
X177094598Y-70201187D01*
X177094606Y-70201185D01*
X177278411Y-70125051D01*
X177422199Y-70028975D01*
X176966108Y-69572883D01*
X177033325Y-69534076D01*
X177104076Y-69463325D01*
X177142884Y-69396108D01*
X177598975Y-69852199D01*
X177695051Y-69708411D01*
X177771185Y-69524606D01*
X177771187Y-69524598D01*
X177809999Y-69329480D01*
X177810000Y-69329478D01*
X177810000Y-69130521D01*
X177809999Y-69130519D01*
X177771187Y-68935401D01*
X177771185Y-68935393D01*
X177695051Y-68751588D01*
X177695046Y-68751579D01*
X177598975Y-68607799D01*
X177142883Y-69063891D01*
X177104076Y-68996675D01*
X177033325Y-68925924D01*
X176966107Y-68887115D01*
X177422198Y-68431024D01*
X177422198Y-68431023D01*
X177278420Y-68334953D01*
X177278411Y-68334948D01*
X177094606Y-68258814D01*
X177094598Y-68258812D01*
X176899479Y-68220000D01*
X176700521Y-68220000D01*
X176505401Y-68258812D01*
X176505393Y-68258814D01*
X176321587Y-68334949D01*
X176177800Y-68431023D01*
X176177800Y-68431024D01*
X176633892Y-68887115D01*
X176566675Y-68925924D01*
X176495924Y-68996675D01*
X176457115Y-69063891D01*
X176001024Y-68607800D01*
X176001023Y-68607800D01*
X175904949Y-68751587D01*
X175828814Y-68935393D01*
X175828812Y-68935401D01*
X175790000Y-69130519D01*
X175270500Y-69130519D01*
X175270500Y-69130474D01*
X175270500Y-69130471D01*
X175270499Y-69130469D01*
X175249166Y-69023223D01*
X175231667Y-68935248D01*
X175155493Y-68751349D01*
X175155491Y-68751346D01*
X175155489Y-68751342D01*
X175044906Y-68585844D01*
X175044903Y-68585840D01*
X174904159Y-68445096D01*
X174904155Y-68445093D01*
X174738657Y-68334510D01*
X174738647Y-68334505D01*
X174554752Y-68258333D01*
X174554744Y-68258331D01*
X174359529Y-68219500D01*
X174359526Y-68219500D01*
X174160474Y-68219500D01*
X174160471Y-68219500D01*
X173965255Y-68258331D01*
X173965247Y-68258333D01*
X173781352Y-68334505D01*
X173781342Y-68334510D01*
X173615844Y-68445093D01*
X173615840Y-68445096D01*
X173475096Y-68585840D01*
X173475093Y-68585844D01*
X173364510Y-68751342D01*
X173364505Y-68751352D01*
X173288333Y-68935247D01*
X173288331Y-68935255D01*
X173249500Y-69130469D01*
X172730499Y-69130469D01*
X172730499Y-68672128D01*
X172724091Y-68612517D01*
X172722331Y-68607799D01*
X172673797Y-68477671D01*
X172673793Y-68477664D01*
X172587547Y-68362455D01*
X172587544Y-68362452D01*
X172472335Y-68276206D01*
X172472328Y-68276202D01*
X172337482Y-68225908D01*
X172337483Y-68225908D01*
X172277883Y-68219501D01*
X172277881Y-68219500D01*
X172277873Y-68219500D01*
X172277864Y-68219500D01*
X171162129Y-68219500D01*
X171162123Y-68219501D01*
X171102516Y-68225908D01*
X170967671Y-68276202D01*
X170967664Y-68276206D01*
X170852455Y-68362452D01*
X170852452Y-68362455D01*
X170766206Y-68477664D01*
X170766202Y-68477671D01*
X170715908Y-68612517D01*
X170710230Y-68665337D01*
X170709501Y-68672123D01*
X170709500Y-68672135D01*
X146556949Y-68672135D01*
X146472475Y-68649500D01*
X146327525Y-68649500D01*
X146327520Y-68649500D01*
X146268414Y-68665337D01*
X146268415Y-68665338D01*
X146261802Y-68667110D01*
X146241621Y-68670192D01*
X146217037Y-68679105D01*
X146211880Y-68680487D01*
X146211878Y-68680486D01*
X146187515Y-68687015D01*
X146187514Y-68687016D01*
X146183967Y-68689064D01*
X146164239Y-68698248D01*
X145767563Y-68842074D01*
X145725296Y-68849500D01*
X142174702Y-68849500D01*
X142132435Y-68842074D01*
X141735765Y-68698251D01*
X141735763Y-68698250D01*
X141725491Y-68694525D01*
X141712485Y-68687016D01*
X141682966Y-68679105D01*
X141677956Y-68677289D01*
X141677945Y-68677286D01*
X141658360Y-68670185D01*
X141640485Y-68664439D01*
X141638814Y-68663969D01*
X141620267Y-68659491D01*
X141613066Y-68658623D01*
X141613161Y-68657831D01*
X141594064Y-68655284D01*
X141572479Y-68649500D01*
X141572475Y-68649500D01*
X141427525Y-68649500D01*
X141298993Y-68683940D01*
X141287511Y-68687017D01*
X141161988Y-68759488D01*
X141161982Y-68759493D01*
X141059493Y-68861982D01*
X141059488Y-68861988D01*
X140987017Y-68987511D01*
X140987016Y-68987515D01*
X140949500Y-69127525D01*
X140650500Y-69127525D01*
X140650500Y-69101577D01*
X140619709Y-68907173D01*
X140571724Y-68759493D01*
X140558884Y-68719975D01*
X140558882Y-68719972D01*
X140558882Y-68719970D01*
X140469658Y-68544858D01*
X140469524Y-68544595D01*
X140353828Y-68385354D01*
X140214646Y-68246172D01*
X140055405Y-68130476D01*
X139880029Y-68041117D01*
X139692826Y-67980290D01*
X139498422Y-67949500D01*
X139498417Y-67949500D01*
X139301583Y-67949500D01*
X139301578Y-67949500D01*
X139107173Y-67980290D01*
X138919970Y-68041117D01*
X138744594Y-68130476D01*
X138653741Y-68196485D01*
X138585354Y-68246172D01*
X138585352Y-68246174D01*
X138585351Y-68246174D01*
X138446174Y-68385351D01*
X138446174Y-68385352D01*
X138446172Y-68385354D01*
X138412991Y-68431024D01*
X138330476Y-68544594D01*
X138241117Y-68719970D01*
X138180290Y-68907173D01*
X138149500Y-69101577D01*
X136149994Y-69101577D01*
X136119221Y-68907294D01*
X136058418Y-68720164D01*
X135969099Y-68544864D01*
X135969095Y-68544858D01*
X135869288Y-68407487D01*
X135869288Y-68407486D01*
X135367332Y-68909442D01*
X135340110Y-68862292D01*
X135237708Y-68759890D01*
X135190556Y-68732667D01*
X135692512Y-68230711D01*
X135692511Y-68230710D01*
X135555141Y-68130904D01*
X135555135Y-68130900D01*
X135379835Y-68041581D01*
X135192705Y-67980778D01*
X134998382Y-67950000D01*
X134801618Y-67950000D01*
X134607294Y-67980778D01*
X134420164Y-68041581D01*
X134244856Y-68130904D01*
X134107487Y-68230710D01*
X134107486Y-68230710D01*
X134609443Y-68732667D01*
X134562292Y-68759890D01*
X134459890Y-68862292D01*
X134432667Y-68909443D01*
X133930710Y-68407486D01*
X133930710Y-68407487D01*
X133830904Y-68544856D01*
X133741581Y-68720164D01*
X133680778Y-68907294D01*
X133650000Y-69101617D01*
X133000500Y-69101617D01*
X133000500Y-63647525D01*
X162369500Y-63647525D01*
X162369500Y-63792475D01*
X162387147Y-63858336D01*
X162388832Y-63869353D01*
X162388834Y-63869366D01*
X162390226Y-63878460D01*
X162397238Y-63897780D01*
X162400451Y-63907987D01*
X162407014Y-63932480D01*
X162407017Y-63932487D01*
X162409151Y-63936183D01*
X162418324Y-63955877D01*
X162562251Y-64352423D01*
X162562260Y-64352446D01*
X162569700Y-64394752D01*
X162569700Y-66145245D01*
X162562260Y-66187551D01*
X162418324Y-66584122D01*
X162418323Y-66584124D01*
X162414602Y-66594375D01*
X162407016Y-66607515D01*
X162399069Y-66637167D01*
X162397239Y-66642210D01*
X162390232Y-66661519D01*
X162384409Y-66679636D01*
X162383942Y-66681300D01*
X162379495Y-66699736D01*
X162378630Y-66706923D01*
X162377835Y-66706827D01*
X162375290Y-66725914D01*
X162369500Y-66747523D01*
X162369500Y-66747525D01*
X162369500Y-66892475D01*
X162407016Y-67032485D01*
X162407017Y-67032488D01*
X162479488Y-67158011D01*
X162479490Y-67158013D01*
X162479491Y-67158015D01*
X162581985Y-67260509D01*
X162581986Y-67260510D01*
X162581988Y-67260511D01*
X162707511Y-67332982D01*
X162707512Y-67332982D01*
X162707515Y-67332984D01*
X162847525Y-67370500D01*
X162847528Y-67370500D01*
X162992472Y-67370500D01*
X162992475Y-67370500D01*
X163132485Y-67332984D01*
X163258015Y-67260509D01*
X163360509Y-67158015D01*
X163432984Y-67032485D01*
X163470500Y-66892475D01*
X163470500Y-66747525D01*
X163452922Y-66681925D01*
X163449842Y-66661701D01*
X163440854Y-66636887D01*
X163432984Y-66607515D01*
X163432984Y-66607514D01*
X163432983Y-66607513D01*
X163431029Y-66604128D01*
X163421828Y-66584357D01*
X163278112Y-66187575D01*
X163270700Y-66145346D01*
X163270700Y-64394651D01*
X163278112Y-64352423D01*
X163421825Y-63955647D01*
X163425554Y-63945353D01*
X163432984Y-63932485D01*
X163440855Y-63903109D01*
X163449842Y-63878298D01*
X163455610Y-63860325D01*
X163456077Y-63858661D01*
X163460512Y-63840265D01*
X163460512Y-63840259D01*
X163461379Y-63833067D01*
X163462175Y-63833162D01*
X163464721Y-63814039D01*
X163470500Y-63792475D01*
X163470500Y-63647525D01*
X163432984Y-63507515D01*
X163360509Y-63381985D01*
X163258015Y-63279491D01*
X163258013Y-63279490D01*
X163258011Y-63279488D01*
X163132488Y-63207017D01*
X163132489Y-63207017D01*
X163121006Y-63203940D01*
X162992475Y-63169500D01*
X162847525Y-63169500D01*
X162718993Y-63203940D01*
X162707511Y-63207017D01*
X162581988Y-63279488D01*
X162581982Y-63279493D01*
X162479493Y-63381982D01*
X162479488Y-63381988D01*
X162407017Y-63507511D01*
X162407016Y-63507515D01*
X162369500Y-63647525D01*
X133000500Y-63647525D01*
X133000500Y-61564071D01*
X134349499Y-61564071D01*
X134374497Y-61689738D01*
X134374499Y-61689744D01*
X134423533Y-61808124D01*
X134423538Y-61808133D01*
X134494723Y-61914668D01*
X134494726Y-61914672D01*
X134585327Y-62005273D01*
X134585331Y-62005276D01*
X134691866Y-62076461D01*
X134691872Y-62076464D01*
X134691873Y-62076465D01*
X134810256Y-62125501D01*
X134810260Y-62125501D01*
X134810261Y-62125502D01*
X134935928Y-62150500D01*
X134935931Y-62150500D01*
X135064071Y-62150500D01*
X135148615Y-62133682D01*
X135189744Y-62125501D01*
X135308127Y-62076465D01*
X135414669Y-62005276D01*
X135505276Y-61914669D01*
X135576465Y-61808127D01*
X135625501Y-61689744D01*
X135633682Y-61648615D01*
X135650500Y-61564071D01*
X135650500Y-61435928D01*
X135625502Y-61310261D01*
X135625501Y-61310260D01*
X135625501Y-61310256D01*
X135576465Y-61191873D01*
X135576464Y-61191872D01*
X135576461Y-61191866D01*
X135505276Y-61085331D01*
X135505273Y-61085327D01*
X135414672Y-60994726D01*
X135414668Y-60994723D01*
X135308133Y-60923538D01*
X135308124Y-60923533D01*
X135189744Y-60874499D01*
X135189738Y-60874497D01*
X135064071Y-60849500D01*
X135064069Y-60849500D01*
X134935931Y-60849500D01*
X134935929Y-60849500D01*
X134810261Y-60874497D01*
X134810255Y-60874499D01*
X134691875Y-60923533D01*
X134691866Y-60923538D01*
X134585331Y-60994723D01*
X134585327Y-60994726D01*
X134494726Y-61085327D01*
X134494723Y-61085331D01*
X134423538Y-61191866D01*
X134423533Y-61191875D01*
X134374499Y-61310255D01*
X134374497Y-61310261D01*
X134349500Y-61435928D01*
X134349500Y-61435931D01*
X134349500Y-61564069D01*
X134349500Y-61564071D01*
X134349499Y-61564071D01*
X133000500Y-61564071D01*
X133000500Y-58564071D01*
X134349499Y-58564071D01*
X134374497Y-58689738D01*
X134374499Y-58689744D01*
X134423533Y-58808124D01*
X134423538Y-58808133D01*
X134494723Y-58914668D01*
X134494726Y-58914672D01*
X134585327Y-59005273D01*
X134585331Y-59005276D01*
X134691866Y-59076461D01*
X134691875Y-59076466D01*
X134696583Y-59078416D01*
X134810256Y-59125501D01*
X134810260Y-59125501D01*
X134810261Y-59125502D01*
X134935928Y-59150500D01*
X134935931Y-59150500D01*
X135064071Y-59150500D01*
X135148615Y-59133682D01*
X135189744Y-59125501D01*
X135308127Y-59076465D01*
X135414669Y-59005276D01*
X135505276Y-58914669D01*
X135576465Y-58808127D01*
X135625501Y-58689744D01*
X135650500Y-58564069D01*
X135650500Y-58435931D01*
X135650500Y-58435928D01*
X135625502Y-58310261D01*
X135625501Y-58310260D01*
X135625501Y-58310256D01*
X135576465Y-58191873D01*
X135576464Y-58191872D01*
X135576461Y-58191866D01*
X135505276Y-58085331D01*
X135505273Y-58085327D01*
X135414672Y-57994726D01*
X135414668Y-57994723D01*
X135308133Y-57923538D01*
X135308124Y-57923533D01*
X135189744Y-57874499D01*
X135189738Y-57874497D01*
X135064071Y-57849500D01*
X135064069Y-57849500D01*
X134935931Y-57849500D01*
X134935929Y-57849500D01*
X134810261Y-57874497D01*
X134810255Y-57874499D01*
X134691875Y-57923533D01*
X134691866Y-57923538D01*
X134585331Y-57994723D01*
X134585327Y-57994726D01*
X134494726Y-58085327D01*
X134494723Y-58085331D01*
X134423538Y-58191866D01*
X134423533Y-58191875D01*
X134374499Y-58310255D01*
X134374497Y-58310261D01*
X134349500Y-58435928D01*
X134349500Y-58435931D01*
X134349500Y-58564069D01*
X134349500Y-58564071D01*
X134349499Y-58564071D01*
X133000500Y-58564071D01*
X133000500Y-55907525D01*
X140889500Y-55907525D01*
X140889500Y-56052475D01*
X140906787Y-56116990D01*
X140927016Y-56192486D01*
X140927018Y-56192489D01*
X140950774Y-56233637D01*
X140960644Y-56258211D01*
X140961222Y-56258008D01*
X140963241Y-56263747D01*
X140963242Y-56263750D01*
X141124204Y-56608822D01*
X141127876Y-56616693D01*
X141139500Y-56669112D01*
X141139500Y-61925297D01*
X141132074Y-61967564D01*
X140988246Y-62364242D01*
X140988246Y-62364243D01*
X140984521Y-62374514D01*
X140977016Y-62387515D01*
X140969111Y-62417013D01*
X140967292Y-62422031D01*
X140967292Y-62422034D01*
X140960184Y-62441640D01*
X140954389Y-62459687D01*
X140953928Y-62461332D01*
X140953925Y-62461343D01*
X140952811Y-62465962D01*
X140949489Y-62479739D01*
X140948625Y-62486922D01*
X140947833Y-62486826D01*
X140945285Y-62505934D01*
X140939500Y-62527525D01*
X140939500Y-62672475D01*
X140964423Y-62765488D01*
X140977017Y-62812488D01*
X141049488Y-62938011D01*
X141049490Y-62938013D01*
X141049491Y-62938015D01*
X141151985Y-63040509D01*
X141151986Y-63040510D01*
X141151988Y-63040511D01*
X141277511Y-63112982D01*
X141277512Y-63112982D01*
X141277515Y-63112984D01*
X141417525Y-63150500D01*
X141417528Y-63150500D01*
X141562472Y-63150500D01*
X141562475Y-63150500D01*
X141702485Y-63112984D01*
X141828015Y-63040509D01*
X141930509Y-62938015D01*
X142002984Y-62812485D01*
X142040500Y-62672475D01*
X142040500Y-62527525D01*
X142022888Y-62461798D01*
X142019807Y-62441618D01*
X142010894Y-62417037D01*
X142002984Y-62387515D01*
X142000934Y-62383964D01*
X141991752Y-62364242D01*
X141847926Y-61967564D01*
X141840500Y-61925298D01*
X141840500Y-59306481D01*
X166393499Y-59306481D01*
X166423339Y-59456491D01*
X166423342Y-59456501D01*
X166481873Y-59597809D01*
X166481875Y-59597812D01*
X166566849Y-59724985D01*
X166566855Y-59724993D01*
X166675006Y-59833144D01*
X166675014Y-59833150D01*
X166802187Y-59918124D01*
X166802190Y-59918126D01*
X166943498Y-59976657D01*
X166943503Y-59976659D01*
X166943507Y-59976659D01*
X166943508Y-59976660D01*
X167093518Y-60006500D01*
X167093521Y-60006500D01*
X167246481Y-60006500D01*
X167347404Y-59986424D01*
X167396497Y-59976659D01*
X167537811Y-59918125D01*
X167664990Y-59833147D01*
X167773147Y-59724990D01*
X167858125Y-59597811D01*
X167861390Y-59589930D01*
X167916657Y-59456501D01*
X167916659Y-59456497D01*
X167946500Y-59306479D01*
X167946500Y-59153521D01*
X167946500Y-59153518D01*
X167916660Y-59003508D01*
X167916659Y-59003507D01*
X167916659Y-59003503D01*
X167896776Y-58955501D01*
X167858126Y-58862190D01*
X167858124Y-58862187D01*
X167773150Y-58735014D01*
X167773144Y-58735006D01*
X167664993Y-58626855D01*
X167664985Y-58626849D01*
X167537812Y-58541875D01*
X167537809Y-58541873D01*
X167396501Y-58483342D01*
X167396491Y-58483339D01*
X167246481Y-58453500D01*
X167246479Y-58453500D01*
X167093521Y-58453500D01*
X167093519Y-58453500D01*
X166943508Y-58483339D01*
X166943498Y-58483342D01*
X166802190Y-58541873D01*
X166802187Y-58541875D01*
X166675014Y-58626849D01*
X166675006Y-58626855D01*
X166566855Y-58735006D01*
X166566849Y-58735014D01*
X166481875Y-58862187D01*
X166481873Y-58862190D01*
X166423342Y-59003498D01*
X166423339Y-59003508D01*
X166393500Y-59153518D01*
X166393500Y-59153521D01*
X166393500Y-59306479D01*
X166393500Y-59306481D01*
X166393499Y-59306481D01*
X141840500Y-59306481D01*
X141840500Y-56642999D01*
X141844764Y-56610761D01*
X141845415Y-56608343D01*
X141977708Y-56116990D01*
X141979693Y-56109122D01*
X141979863Y-56108400D01*
X141981595Y-56100484D01*
X141981595Y-56100477D01*
X141982314Y-56093933D01*
X141982618Y-56093966D01*
X141985815Y-56069955D01*
X141990500Y-56052475D01*
X141990500Y-55907525D01*
X141952984Y-55767515D01*
X141880509Y-55641985D01*
X141778015Y-55539491D01*
X141778013Y-55539490D01*
X141778011Y-55539488D01*
X141652488Y-55467017D01*
X141652489Y-55467017D01*
X141641006Y-55463940D01*
X141512475Y-55429500D01*
X141367525Y-55429500D01*
X141238993Y-55463940D01*
X141227511Y-55467017D01*
X141101988Y-55539488D01*
X141101982Y-55539493D01*
X140999493Y-55641982D01*
X140999488Y-55641988D01*
X140927017Y-55767511D01*
X140927016Y-55767515D01*
X140889500Y-55907525D01*
X133000500Y-55907525D01*
X133000500Y-53727525D01*
X139849500Y-53727525D01*
X139849500Y-53872475D01*
X139887016Y-54012485D01*
X139887017Y-54012488D01*
X139959488Y-54138011D01*
X139959490Y-54138013D01*
X139959491Y-54138015D01*
X140061985Y-54240509D01*
X140061986Y-54240510D01*
X140061988Y-54240511D01*
X140187511Y-54312982D01*
X140187512Y-54312982D01*
X140187515Y-54312984D01*
X140327525Y-54350500D01*
X140327528Y-54350500D01*
X140472473Y-54350500D01*
X140472475Y-54350500D01*
X140502928Y-54342339D01*
X140526756Y-54338390D01*
X140536990Y-54337708D01*
X141030763Y-54204764D01*
X141063001Y-54200500D01*
X141336999Y-54200500D01*
X141369237Y-54204764D01*
X141863009Y-54337708D01*
X141865712Y-54338390D01*
X141870824Y-54339680D01*
X141870845Y-54339685D01*
X141870877Y-54339693D01*
X141871599Y-54339863D01*
X141879515Y-54341595D01*
X141879520Y-54341595D01*
X141886066Y-54342314D01*
X141886032Y-54342618D01*
X141910047Y-54345816D01*
X141927525Y-54350500D01*
X141927526Y-54350500D01*
X142072472Y-54350500D01*
X142072475Y-54350500D01*
X142212485Y-54312984D01*
X142338015Y-54240509D01*
X142440509Y-54138015D01*
X142512984Y-54012485D01*
X142550500Y-53872475D01*
X142550500Y-53727525D01*
X142512984Y-53587515D01*
X142484116Y-53537515D01*
X142476267Y-53523920D01*
X147199499Y-53523920D01*
X147228340Y-53668907D01*
X147228343Y-53668917D01*
X147284912Y-53805488D01*
X147284919Y-53805501D01*
X147367048Y-53928415D01*
X147367051Y-53928419D01*
X147471580Y-54032948D01*
X147471584Y-54032951D01*
X147594498Y-54115080D01*
X147594511Y-54115087D01*
X147701706Y-54159488D01*
X147731087Y-54171658D01*
X147731091Y-54171658D01*
X147731092Y-54171659D01*
X147876079Y-54200500D01*
X147876082Y-54200500D01*
X148023920Y-54200500D01*
X148121462Y-54181096D01*
X148168913Y-54171658D01*
X148305495Y-54115084D01*
X148428416Y-54032951D01*
X148532951Y-53928416D01*
X148615084Y-53805495D01*
X148668091Y-53677525D01*
X152199500Y-53677525D01*
X152199500Y-53822475D01*
X152212897Y-53872472D01*
X152237017Y-53962488D01*
X152309488Y-54088011D01*
X152309490Y-54088013D01*
X152309491Y-54088015D01*
X152411985Y-54190509D01*
X152470921Y-54224536D01*
X152487362Y-54236622D01*
X152511039Y-54247698D01*
X152515660Y-54250366D01*
X152515661Y-54250367D01*
X152537510Y-54262982D01*
X152537512Y-54262982D01*
X152537515Y-54262984D01*
X152541470Y-54264043D01*
X152561915Y-54271498D01*
X152809917Y-54387515D01*
X152944107Y-54450290D01*
X152979245Y-54474927D01*
X153384788Y-54880470D01*
X153454085Y-54920478D01*
X153454087Y-54920480D01*
X153461342Y-54924668D01*
X153464712Y-54926614D01*
X153553856Y-54950500D01*
X153553857Y-54950500D01*
X153646144Y-54950500D01*
X158465298Y-54950500D01*
X158507565Y-54957926D01*
X158914508Y-55105474D01*
X158927515Y-55112984D01*
X158957037Y-55120894D01*
X158981618Y-55129807D01*
X158999551Y-55135570D01*
X158999570Y-55135576D01*
X159001218Y-55136039D01*
X159019733Y-55140508D01*
X159026934Y-55141376D01*
X159026837Y-55142173D01*
X159045938Y-55144715D01*
X159067525Y-55150500D01*
X159067526Y-55150500D01*
X159212472Y-55150500D01*
X159212475Y-55150500D01*
X159352485Y-55112984D01*
X159478015Y-55040509D01*
X159580509Y-54938015D01*
X159652984Y-54812485D01*
X159690500Y-54672475D01*
X159690500Y-54527525D01*
X162759500Y-54527525D01*
X162759500Y-54672475D01*
X162786814Y-54774410D01*
X162797017Y-54812488D01*
X162869488Y-54938011D01*
X162869490Y-54938013D01*
X162869491Y-54938015D01*
X162971985Y-55040509D01*
X162971986Y-55040510D01*
X162971988Y-55040511D01*
X163097511Y-55112982D01*
X163097512Y-55112982D01*
X163097515Y-55112984D01*
X163237525Y-55150500D01*
X163250374Y-55150500D01*
X163258595Y-55150772D01*
X163593966Y-55173060D01*
X163659552Y-55197146D01*
X163673424Y-55209106D01*
X164013181Y-55548862D01*
X164046666Y-55610185D01*
X164049500Y-55636543D01*
X164049500Y-56275297D01*
X164042074Y-56317564D01*
X163898246Y-56714242D01*
X163898246Y-56714243D01*
X163894521Y-56724514D01*
X163887016Y-56737515D01*
X163879111Y-56767013D01*
X163877292Y-56772031D01*
X163877292Y-56772034D01*
X163870184Y-56791640D01*
X163864389Y-56809687D01*
X163863928Y-56811332D01*
X163863925Y-56811343D01*
X163862811Y-56815962D01*
X163859489Y-56829739D01*
X163858625Y-56836922D01*
X163857833Y-56836826D01*
X163855285Y-56855934D01*
X163849500Y-56877525D01*
X163849500Y-57022475D01*
X163887016Y-57162485D01*
X163887017Y-57162488D01*
X163959488Y-57288011D01*
X163959490Y-57288013D01*
X163959491Y-57288015D01*
X164061985Y-57390509D01*
X164061986Y-57390510D01*
X164061988Y-57390511D01*
X164187511Y-57462982D01*
X164187512Y-57462982D01*
X164187515Y-57462984D01*
X164327525Y-57500500D01*
X164327528Y-57500500D01*
X164472472Y-57500500D01*
X164472475Y-57500500D01*
X164612485Y-57462984D01*
X164714787Y-57403920D01*
X175319499Y-57403920D01*
X175348340Y-57548907D01*
X175348343Y-57548917D01*
X175404912Y-57685488D01*
X175404919Y-57685501D01*
X175487048Y-57808415D01*
X175487051Y-57808419D01*
X175555951Y-57877319D01*
X175589436Y-57938642D01*
X175584452Y-58008334D01*
X175555951Y-58052681D01*
X175487051Y-58121580D01*
X175487048Y-58121584D01*
X175404919Y-58244498D01*
X175404912Y-58244511D01*
X175348343Y-58381082D01*
X175348340Y-58381092D01*
X175319500Y-58526079D01*
X175319500Y-58526082D01*
X175319500Y-58673918D01*
X175319500Y-58673920D01*
X175319499Y-58673920D01*
X175348340Y-58818907D01*
X175348343Y-58818917D01*
X175404912Y-58955488D01*
X175404919Y-58955501D01*
X175487048Y-59078415D01*
X175487051Y-59078419D01*
X175555951Y-59147319D01*
X175589436Y-59208642D01*
X175584452Y-59278334D01*
X175555951Y-59322681D01*
X175487051Y-59391580D01*
X175487048Y-59391584D01*
X175404919Y-59514498D01*
X175404912Y-59514511D01*
X175348343Y-59651082D01*
X175348340Y-59651092D01*
X175319500Y-59796079D01*
X175319500Y-59796082D01*
X175319500Y-59943918D01*
X175319500Y-59943920D01*
X175319499Y-59943920D01*
X175348340Y-60088907D01*
X175348343Y-60088917D01*
X175404912Y-60225488D01*
X175404919Y-60225501D01*
X175487048Y-60348415D01*
X175487051Y-60348419D01*
X175555951Y-60417319D01*
X175589436Y-60478642D01*
X175584452Y-60548334D01*
X175555951Y-60592681D01*
X175487051Y-60661580D01*
X175487048Y-60661584D01*
X175404919Y-60784498D01*
X175404912Y-60784511D01*
X175348343Y-60921082D01*
X175348340Y-60921092D01*
X175319500Y-61066079D01*
X175319500Y-61066082D01*
X175319500Y-61213918D01*
X175319500Y-61213920D01*
X175319499Y-61213920D01*
X175348340Y-61358907D01*
X175348343Y-61358917D01*
X175404912Y-61495488D01*
X175404919Y-61495500D01*
X175439285Y-61546932D01*
X175460163Y-61613609D01*
X175441679Y-61680989D01*
X175405075Y-61718924D01*
X175389400Y-61729397D01*
X175334033Y-61812260D01*
X175334032Y-61812264D01*
X175319500Y-61885321D01*
X175319500Y-62934678D01*
X175334032Y-63007735D01*
X175334033Y-63007739D01*
X175334034Y-63007740D01*
X175389399Y-63090601D01*
X175450848Y-63131659D01*
X175472260Y-63145966D01*
X175472264Y-63145967D01*
X175545321Y-63160499D01*
X175545324Y-63160500D01*
X175545326Y-63160500D01*
X176594676Y-63160500D01*
X176594677Y-63160499D01*
X176667740Y-63145966D01*
X176750601Y-63090601D01*
X176761074Y-63074925D01*
X176814683Y-63030122D01*
X176884008Y-63021412D01*
X176933068Y-63040715D01*
X176984496Y-63075079D01*
X176984511Y-63075087D01*
X177121082Y-63131656D01*
X177121087Y-63131658D01*
X177121091Y-63131658D01*
X177121092Y-63131659D01*
X177266079Y-63160500D01*
X177266082Y-63160500D01*
X177413920Y-63160500D01*
X177511462Y-63141096D01*
X177558913Y-63131658D01*
X177695495Y-63075084D01*
X177818416Y-62992951D01*
X177922951Y-62888416D01*
X178005084Y-62765495D01*
X178061658Y-62628913D01*
X178081826Y-62527525D01*
X178090500Y-62483920D01*
X178090500Y-62336079D01*
X178061659Y-62191092D01*
X178061658Y-62191091D01*
X178061658Y-62191087D01*
X178061656Y-62191082D01*
X178005087Y-62054511D01*
X178005080Y-62054498D01*
X177922951Y-61931584D01*
X177922948Y-61931580D01*
X177814109Y-61822741D01*
X177815963Y-61820886D01*
X177783035Y-61772552D01*
X177781499Y-61758275D01*
X177484146Y-61460922D01*
X177554905Y-61420070D01*
X177620070Y-61354905D01*
X177660922Y-61284146D01*
X177951525Y-61574749D01*
X178004642Y-61495255D01*
X178061177Y-61358767D01*
X178061179Y-61358759D01*
X178089999Y-61213873D01*
X178090000Y-61213871D01*
X178090000Y-61066128D01*
X178089999Y-61066126D01*
X178061179Y-60921240D01*
X178061177Y-60921232D01*
X178004642Y-60784743D01*
X177951525Y-60705249D01*
X177660921Y-60995852D01*
X177620070Y-60925095D01*
X177554905Y-60859930D01*
X177484146Y-60819077D01*
X177774750Y-60528474D01*
X177773635Y-60517154D01*
X177773635Y-60492845D01*
X177774749Y-60481525D01*
X177484146Y-60190922D01*
X177554905Y-60150070D01*
X177620070Y-60084905D01*
X177660922Y-60014146D01*
X177951525Y-60304749D01*
X178004642Y-60225255D01*
X178061177Y-60088767D01*
X178061179Y-60088759D01*
X178089999Y-59943873D01*
X178090000Y-59943871D01*
X178090000Y-59796128D01*
X178089999Y-59796126D01*
X178061179Y-59651240D01*
X178061177Y-59651232D01*
X178004642Y-59514743D01*
X177951525Y-59435249D01*
X177660921Y-59725852D01*
X177620070Y-59655095D01*
X177554905Y-59589930D01*
X177484146Y-59549077D01*
X177785146Y-59248076D01*
X177790647Y-59219071D01*
X177815324Y-59188474D01*
X177814109Y-59187259D01*
X177922948Y-59078419D01*
X177922951Y-59078416D01*
X178005084Y-58955495D01*
X178061658Y-58818913D01*
X178090500Y-58673918D01*
X178090500Y-58526082D01*
X178090500Y-58526079D01*
X178061659Y-58381092D01*
X178061658Y-58381091D01*
X178061658Y-58381087D01*
X178032319Y-58310256D01*
X178005087Y-58244511D01*
X178005080Y-58244498D01*
X177922951Y-58121584D01*
X177922948Y-58121580D01*
X177814109Y-58012741D01*
X177815963Y-58010886D01*
X177783035Y-57962552D01*
X177781499Y-57948275D01*
X177484146Y-57650922D01*
X177554905Y-57610070D01*
X177620070Y-57544905D01*
X177660922Y-57474146D01*
X177951525Y-57764749D01*
X178004642Y-57685255D01*
X178061177Y-57548767D01*
X178061179Y-57548759D01*
X178089999Y-57403873D01*
X178090000Y-57403871D01*
X178090000Y-57256128D01*
X178089999Y-57256126D01*
X178061179Y-57111240D01*
X178061177Y-57111232D01*
X178004642Y-56974743D01*
X177951525Y-56895249D01*
X177660921Y-57185852D01*
X177620070Y-57115095D01*
X177554905Y-57049930D01*
X177484146Y-57009077D01*
X177774750Y-56718474D01*
X177774749Y-56718473D01*
X177695256Y-56665358D01*
X177558767Y-56608822D01*
X177558759Y-56608820D01*
X177413872Y-56580000D01*
X177266128Y-56580000D01*
X177121240Y-56608820D01*
X177121232Y-56608822D01*
X176984741Y-56665359D01*
X176905249Y-56718472D01*
X176905248Y-56718473D01*
X177195853Y-57009077D01*
X177125095Y-57049930D01*
X177059930Y-57115095D01*
X177019077Y-57185853D01*
X176718075Y-56884851D01*
X176689066Y-56879349D01*
X176686246Y-56877261D01*
X176684385Y-56876825D01*
X176675476Y-56869322D01*
X176674375Y-56868999D01*
X176666342Y-56862526D01*
X176657310Y-56855839D01*
X176657259Y-56855891D01*
X176656914Y-56855546D01*
X176656475Y-56855221D01*
X176652999Y-56851631D01*
X176548419Y-56747051D01*
X176548415Y-56747048D01*
X176425501Y-56664919D01*
X176425488Y-56664912D01*
X176288917Y-56608343D01*
X176288907Y-56608340D01*
X176143920Y-56579500D01*
X176143918Y-56579500D01*
X175996082Y-56579500D01*
X175996080Y-56579500D01*
X175851092Y-56608340D01*
X175851082Y-56608343D01*
X175714511Y-56664912D01*
X175714498Y-56664919D01*
X175591584Y-56747048D01*
X175591580Y-56747051D01*
X175487051Y-56851580D01*
X175487048Y-56851584D01*
X175404919Y-56974498D01*
X175404912Y-56974511D01*
X175348343Y-57111082D01*
X175348340Y-57111092D01*
X175319500Y-57256079D01*
X175319500Y-57256082D01*
X175319500Y-57403918D01*
X175319500Y-57403920D01*
X175319499Y-57403920D01*
X164714787Y-57403920D01*
X164738015Y-57390509D01*
X164840509Y-57288015D01*
X164912984Y-57162485D01*
X164950500Y-57022475D01*
X164950500Y-56877525D01*
X164932888Y-56811798D01*
X164929807Y-56791618D01*
X164920894Y-56767037D01*
X164912984Y-56737515D01*
X164910934Y-56733964D01*
X164901752Y-56714242D01*
X164887132Y-56673920D01*
X166999499Y-56673920D01*
X167028340Y-56818907D01*
X167028343Y-56818917D01*
X167084912Y-56955488D01*
X167084919Y-56955501D01*
X167167048Y-57078415D01*
X167167051Y-57078419D01*
X167271580Y-57182948D01*
X167271584Y-57182951D01*
X167394498Y-57265080D01*
X167394511Y-57265087D01*
X167531082Y-57321656D01*
X167531087Y-57321658D01*
X167531091Y-57321658D01*
X167531092Y-57321659D01*
X167676079Y-57350500D01*
X167676082Y-57350500D01*
X167823920Y-57350500D01*
X167926981Y-57329999D01*
X167968913Y-57321658D01*
X168091637Y-57270823D01*
X168094835Y-57269552D01*
X168779222Y-57008635D01*
X168823395Y-57000500D01*
X169252725Y-57000500D01*
X169252727Y-57000500D01*
X169354588Y-56973207D01*
X169445913Y-56920480D01*
X171572203Y-54794187D01*
X171598004Y-54774413D01*
X172041165Y-54519268D01*
X172048415Y-54514933D01*
X172049045Y-54514542D01*
X172055547Y-54510369D01*
X172055553Y-54510362D01*
X172060669Y-54506258D01*
X172060859Y-54506494D01*
X172080122Y-54491762D01*
X172095830Y-54482694D01*
X172198324Y-54380200D01*
X172270799Y-54254670D01*
X172308315Y-54114660D01*
X172308315Y-53969710D01*
X172270799Y-53829700D01*
X172242393Y-53780500D01*
X172198326Y-53704173D01*
X172198321Y-53704167D01*
X172095832Y-53601678D01*
X172095826Y-53601673D01*
X171970303Y-53529202D01*
X171970304Y-53529202D01*
X171950584Y-53523918D01*
X171830290Y-53491685D01*
X171685340Y-53491685D01*
X171565046Y-53523918D01*
X171545326Y-53529202D01*
X171419803Y-53601673D01*
X171419801Y-53601675D01*
X171317307Y-53704168D01*
X171301548Y-53731463D01*
X171287492Y-53751102D01*
X171280730Y-53758831D01*
X171025583Y-54201993D01*
X171005802Y-54227804D01*
X169070426Y-56163181D01*
X169043498Y-56177884D01*
X169017680Y-56194477D01*
X169011479Y-56195368D01*
X169009103Y-56196666D01*
X168982745Y-56199500D01*
X168823397Y-56199500D01*
X168779224Y-56191365D01*
X168094846Y-55930450D01*
X168091567Y-55929146D01*
X167968917Y-55878343D01*
X167968909Y-55878341D01*
X167952410Y-55875058D01*
X167952410Y-55875059D01*
X167944709Y-55873527D01*
X167931469Y-55869097D01*
X167929606Y-55868558D01*
X167908927Y-55863498D01*
X167894148Y-55863469D01*
X167882290Y-55861110D01*
X167882286Y-55861110D01*
X167862575Y-55857189D01*
X167823918Y-55849500D01*
X167676082Y-55849500D01*
X167676080Y-55849500D01*
X167531092Y-55878340D01*
X167531082Y-55878343D01*
X167394511Y-55934912D01*
X167394498Y-55934919D01*
X167271584Y-56017048D01*
X167271580Y-56017051D01*
X167167051Y-56121580D01*
X167167048Y-56121584D01*
X167084919Y-56244498D01*
X167084912Y-56244511D01*
X167028343Y-56381082D01*
X167028340Y-56381092D01*
X166999500Y-56526079D01*
X166999500Y-56526082D01*
X166999500Y-56673918D01*
X166999500Y-56673920D01*
X166999499Y-56673920D01*
X164887132Y-56673920D01*
X164757926Y-56317564D01*
X164750500Y-56275298D01*
X164750500Y-55393858D01*
X164750500Y-55393856D01*
X164726614Y-55304712D01*
X164726611Y-55304706D01*
X164680473Y-55224794D01*
X164680470Y-55224791D01*
X164680469Y-55224788D01*
X164615212Y-55159531D01*
X164088677Y-54632995D01*
X164070822Y-54610415D01*
X164066496Y-54603402D01*
X163761603Y-54275532D01*
X163754032Y-54266576D01*
X163750509Y-54261985D01*
X163648017Y-54159493D01*
X163648011Y-54159488D01*
X163522488Y-54087017D01*
X163522489Y-54087017D01*
X163511006Y-54083940D01*
X163382475Y-54049500D01*
X163237525Y-54049500D01*
X163108993Y-54083940D01*
X163097511Y-54087017D01*
X162971988Y-54159488D01*
X162971982Y-54159493D01*
X162869493Y-54261982D01*
X162869488Y-54261988D01*
X162797017Y-54387511D01*
X162797016Y-54387515D01*
X162759500Y-54527525D01*
X159690500Y-54527525D01*
X159652984Y-54387515D01*
X159648758Y-54380196D01*
X159580511Y-54261988D01*
X159580506Y-54261982D01*
X159478017Y-54159493D01*
X159478011Y-54159488D01*
X159352488Y-54087017D01*
X159352489Y-54087017D01*
X159341006Y-54083940D01*
X159212475Y-54049500D01*
X159067525Y-54049500D01*
X159067520Y-54049500D01*
X159008414Y-54065337D01*
X159008415Y-54065338D01*
X159001802Y-54067110D01*
X158981621Y-54070192D01*
X158957037Y-54079105D01*
X158951880Y-54080487D01*
X158951878Y-54080486D01*
X158927515Y-54087015D01*
X158927514Y-54087016D01*
X158923967Y-54089064D01*
X158904239Y-54098248D01*
X158507563Y-54242074D01*
X158465296Y-54249500D01*
X153796544Y-54249500D01*
X153729505Y-54229815D01*
X153708863Y-54213181D01*
X153474927Y-53979245D01*
X153450290Y-53944107D01*
X153393390Y-53822475D01*
X153266872Y-53552025D01*
X153262984Y-53537515D01*
X153247699Y-53511041D01*
X153236622Y-53487362D01*
X153227904Y-53470406D01*
X153227055Y-53468896D01*
X153217259Y-53452881D01*
X153217255Y-53452877D01*
X153212790Y-53447188D01*
X153213418Y-53446694D01*
X153201710Y-53431386D01*
X153190509Y-53411985D01*
X153088015Y-53309491D01*
X153088013Y-53309490D01*
X153088011Y-53309488D01*
X152962488Y-53237017D01*
X152962489Y-53237017D01*
X152951006Y-53233940D01*
X152822475Y-53199500D01*
X152677525Y-53199500D01*
X152548993Y-53233940D01*
X152537511Y-53237017D01*
X152411988Y-53309488D01*
X152411982Y-53309493D01*
X152309493Y-53411982D01*
X152309488Y-53411988D01*
X152237017Y-53537511D01*
X152237016Y-53537515D01*
X152199500Y-53677525D01*
X148668091Y-53677525D01*
X148671658Y-53668913D01*
X148682790Y-53612951D01*
X148700500Y-53523920D01*
X148700500Y-53376079D01*
X148671659Y-53231092D01*
X148671658Y-53231091D01*
X148671658Y-53231087D01*
X148655308Y-53191614D01*
X148618984Y-53103920D01*
X158399499Y-53103920D01*
X158428340Y-53248907D01*
X158428343Y-53248917D01*
X158484912Y-53385488D01*
X158484919Y-53385501D01*
X158567048Y-53508415D01*
X158567051Y-53508419D01*
X158671580Y-53612948D01*
X158671584Y-53612951D01*
X158794498Y-53695080D01*
X158794511Y-53695087D01*
X158907700Y-53741971D01*
X158931087Y-53751658D01*
X158931091Y-53751658D01*
X158931092Y-53751659D01*
X159076079Y-53780500D01*
X159076082Y-53780500D01*
X159223920Y-53780500D01*
X159321462Y-53761096D01*
X159368913Y-53751658D01*
X159505495Y-53695084D01*
X159628416Y-53612951D01*
X159653856Y-53587511D01*
X159713734Y-53527634D01*
X159732948Y-53508419D01*
X159732951Y-53508416D01*
X159815084Y-53385495D01*
X159871658Y-53248913D01*
X159896531Y-53123871D01*
X159900500Y-53103920D01*
X159900500Y-52976126D01*
X163460000Y-52976126D01*
X163460000Y-53123873D01*
X163488820Y-53268759D01*
X163488822Y-53268767D01*
X163545358Y-53405256D01*
X163598473Y-53484749D01*
X163598474Y-53484750D01*
X163966881Y-53116342D01*
X163998060Y-53191614D01*
X164068386Y-53261940D01*
X164143657Y-53293118D01*
X163775249Y-53661525D01*
X163775249Y-53661526D01*
X163854743Y-53714642D01*
X163991232Y-53771177D01*
X163991240Y-53771179D01*
X164136126Y-53799999D01*
X164136129Y-53800000D01*
X164283871Y-53800000D01*
X164283873Y-53799999D01*
X164428759Y-53771179D01*
X164428767Y-53771177D01*
X164565255Y-53714642D01*
X164644749Y-53661525D01*
X164276342Y-53293117D01*
X164351614Y-53261940D01*
X164421940Y-53191614D01*
X164453118Y-53116342D01*
X164821525Y-53484749D01*
X164874642Y-53405255D01*
X164931177Y-53268767D01*
X164931179Y-53268759D01*
X164959999Y-53123873D01*
X164960000Y-53123871D01*
X164960000Y-52976128D01*
X164951029Y-52931034D01*
X164901422Y-52759396D01*
X164874643Y-52694745D01*
X164868131Y-52684999D01*
X174435170Y-52684999D01*
X174435171Y-52685000D01*
X174900758Y-52685000D01*
X174895444Y-52694204D01*
X174875000Y-52770504D01*
X174875000Y-52849496D01*
X174895444Y-52925796D01*
X174900758Y-52935000D01*
X174435170Y-52935000D01*
X174453820Y-53028759D01*
X174453822Y-53028767D01*
X174510357Y-53165254D01*
X174510362Y-53165264D01*
X174592436Y-53288096D01*
X174592439Y-53288100D01*
X174696899Y-53392560D01*
X174696903Y-53392563D01*
X174819735Y-53474637D01*
X174819745Y-53474642D01*
X174956232Y-53531177D01*
X174956240Y-53531179D01*
X175101126Y-53559999D01*
X175101129Y-53560000D01*
X175600000Y-53560000D01*
X175600000Y-53110000D01*
X175850000Y-53110000D01*
X175850000Y-53560000D01*
X176348871Y-53560000D01*
X176348873Y-53559999D01*
X176493759Y-53531179D01*
X176493767Y-53531177D01*
X176630254Y-53474642D01*
X176630264Y-53474637D01*
X176753096Y-53392563D01*
X176753100Y-53392560D01*
X176857560Y-53288100D01*
X176857563Y-53288096D01*
X176939637Y-53165264D01*
X176939642Y-53165254D01*
X176996177Y-53028767D01*
X176996179Y-53028759D01*
X177014829Y-52935000D01*
X176549242Y-52935000D01*
X176554556Y-52925796D01*
X176575000Y-52849496D01*
X176575000Y-52770504D01*
X176554556Y-52694204D01*
X176549242Y-52685000D01*
X177014829Y-52685000D01*
X177014829Y-52684999D01*
X178765170Y-52684999D01*
X178765171Y-52685000D01*
X179230758Y-52685000D01*
X179225444Y-52694204D01*
X179205000Y-52770504D01*
X179205000Y-52849496D01*
X179225444Y-52925796D01*
X179230758Y-52935000D01*
X178765170Y-52935000D01*
X178783820Y-53028759D01*
X178783822Y-53028767D01*
X178840357Y-53165254D01*
X178840362Y-53165264D01*
X178922436Y-53288096D01*
X178922439Y-53288100D01*
X179026899Y-53392560D01*
X179026903Y-53392563D01*
X179149735Y-53474637D01*
X179149745Y-53474642D01*
X179286232Y-53531177D01*
X179286240Y-53531179D01*
X179431126Y-53559999D01*
X179431129Y-53560000D01*
X179780000Y-53560000D01*
X179780000Y-53110000D01*
X180030000Y-53110000D01*
X180030000Y-53560000D01*
X180378871Y-53560000D01*
X180378873Y-53559999D01*
X180523759Y-53531179D01*
X180523767Y-53531177D01*
X180660254Y-53474642D01*
X180660264Y-53474637D01*
X180783096Y-53392563D01*
X180783100Y-53392560D01*
X180887560Y-53288100D01*
X180887563Y-53288096D01*
X180969637Y-53165264D01*
X180969642Y-53165254D01*
X181026177Y-53028767D01*
X181026179Y-53028759D01*
X181044829Y-52935000D01*
X180579242Y-52935000D01*
X180584556Y-52925796D01*
X180605000Y-52849496D01*
X180605000Y-52770504D01*
X180584556Y-52694204D01*
X180579242Y-52685000D01*
X181044829Y-52685000D01*
X181044829Y-52684999D01*
X181026179Y-52591240D01*
X181026177Y-52591232D01*
X180969642Y-52454745D01*
X180969637Y-52454735D01*
X180887563Y-52331903D01*
X180887560Y-52331899D01*
X180783100Y-52227439D01*
X180783096Y-52227436D01*
X180660264Y-52145362D01*
X180660254Y-52145357D01*
X180523767Y-52088822D01*
X180523759Y-52088820D01*
X180378872Y-52060000D01*
X180030000Y-52060000D01*
X180030000Y-52510000D01*
X179780000Y-52510000D01*
X179780000Y-52060000D01*
X179431128Y-52060000D01*
X179286240Y-52088820D01*
X179286232Y-52088822D01*
X179149745Y-52145357D01*
X179149735Y-52145362D01*
X179026903Y-52227436D01*
X179026899Y-52227439D01*
X178922439Y-52331899D01*
X178922436Y-52331903D01*
X178840362Y-52454735D01*
X178840357Y-52454745D01*
X178783822Y-52591232D01*
X178783820Y-52591240D01*
X178765170Y-52684999D01*
X177014829Y-52684999D01*
X176996179Y-52591240D01*
X176996177Y-52591232D01*
X176939642Y-52454745D01*
X176939637Y-52454735D01*
X176857563Y-52331903D01*
X176857560Y-52331899D01*
X176753100Y-52227439D01*
X176753096Y-52227436D01*
X176630264Y-52145362D01*
X176630254Y-52145357D01*
X176493767Y-52088822D01*
X176493762Y-52088820D01*
X176485564Y-52087190D01*
X176423653Y-52054804D01*
X176389080Y-51994088D01*
X176392821Y-51924318D01*
X176433688Y-51867647D01*
X176447746Y-51858192D01*
X176547665Y-51800505D01*
X176645505Y-51702665D01*
X176714688Y-51582836D01*
X176750500Y-51449183D01*
X176750500Y-51310817D01*
X176714688Y-51177164D01*
X176645505Y-51057335D01*
X176547665Y-50959495D01*
X176547664Y-50959494D01*
X176547661Y-50959492D01*
X176427838Y-50890313D01*
X176427837Y-50890312D01*
X176427836Y-50890312D01*
X176294183Y-50854500D01*
X176155817Y-50854500D01*
X176022164Y-50890312D01*
X176022161Y-50890313D01*
X175902338Y-50959492D01*
X175902333Y-50959496D01*
X175804496Y-51057333D01*
X175804492Y-51057338D01*
X175735313Y-51177161D01*
X175735312Y-51177164D01*
X175699500Y-51310817D01*
X175699500Y-51449182D01*
X175735312Y-51582835D01*
X175735313Y-51582838D01*
X175804492Y-51702661D01*
X175804494Y-51702664D01*
X175804495Y-51702665D01*
X175902335Y-51800505D01*
X175902336Y-51800506D01*
X175902338Y-51800507D01*
X175951019Y-51828613D01*
X175999235Y-51879180D01*
X176012458Y-51947787D01*
X175986490Y-52012652D01*
X175929576Y-52053180D01*
X175889019Y-52060000D01*
X175850000Y-52060000D01*
X175850000Y-52510000D01*
X175600000Y-52510000D01*
X175600000Y-52060000D01*
X175101128Y-52060000D01*
X174956240Y-52088820D01*
X174956232Y-52088822D01*
X174819745Y-52145357D01*
X174819735Y-52145362D01*
X174696903Y-52227436D01*
X174696899Y-52227439D01*
X174592439Y-52331899D01*
X174592436Y-52331903D01*
X174510362Y-52454735D01*
X174510357Y-52454745D01*
X174453822Y-52591232D01*
X174453820Y-52591240D01*
X174435170Y-52684999D01*
X164868131Y-52684999D01*
X164821525Y-52615249D01*
X164453117Y-52983656D01*
X164421940Y-52908386D01*
X164351614Y-52838060D01*
X164276342Y-52806882D01*
X164644750Y-52438474D01*
X164644749Y-52438473D01*
X164565256Y-52385358D01*
X164428767Y-52328822D01*
X164428759Y-52328820D01*
X164283872Y-52300000D01*
X164136128Y-52300000D01*
X163991240Y-52328820D01*
X163991232Y-52328822D01*
X163854741Y-52385359D01*
X163775249Y-52438472D01*
X163775248Y-52438473D01*
X164143657Y-52806881D01*
X164068386Y-52838060D01*
X163998060Y-52908386D01*
X163966882Y-52983657D01*
X163598473Y-52615248D01*
X163598472Y-52615249D01*
X163545359Y-52694741D01*
X163488822Y-52831232D01*
X163488820Y-52831240D01*
X163460000Y-52976126D01*
X159900500Y-52976126D01*
X159900500Y-52956079D01*
X159871659Y-52811092D01*
X159871658Y-52811091D01*
X159871658Y-52811087D01*
X159850247Y-52759396D01*
X159815087Y-52674511D01*
X159815080Y-52674498D01*
X159734282Y-52553575D01*
X159732952Y-52551585D01*
X159732948Y-52551580D01*
X159628419Y-52447051D01*
X159628415Y-52447048D01*
X159505501Y-52364919D01*
X159505488Y-52364912D01*
X159368917Y-52308343D01*
X159368907Y-52308340D01*
X159223920Y-52279500D01*
X159223918Y-52279500D01*
X159076082Y-52279500D01*
X159076080Y-52279500D01*
X158931092Y-52308340D01*
X158931082Y-52308343D01*
X158794511Y-52364912D01*
X158794498Y-52364919D01*
X158671584Y-52447048D01*
X158671580Y-52447051D01*
X158567051Y-52551580D01*
X158567048Y-52551584D01*
X158484919Y-52674498D01*
X158484912Y-52674511D01*
X158428343Y-52811082D01*
X158428340Y-52811092D01*
X158399500Y-52956079D01*
X158399500Y-52956082D01*
X158399500Y-53103918D01*
X158399500Y-53103920D01*
X158399499Y-53103920D01*
X148618984Y-53103920D01*
X148615087Y-53094511D01*
X148615080Y-53094498D01*
X148564554Y-53018881D01*
X148564553Y-53018879D01*
X148532954Y-52971588D01*
X148532948Y-52971580D01*
X148428419Y-52867051D01*
X148428415Y-52867048D01*
X148305501Y-52784919D01*
X148305488Y-52784912D01*
X148168917Y-52728343D01*
X148168907Y-52728340D01*
X148023920Y-52699500D01*
X148023918Y-52699500D01*
X147876082Y-52699500D01*
X147876080Y-52699500D01*
X147731092Y-52728340D01*
X147731082Y-52728343D01*
X147594511Y-52784912D01*
X147594498Y-52784919D01*
X147471584Y-52867048D01*
X147471580Y-52867051D01*
X147367051Y-52971580D01*
X147367048Y-52971584D01*
X147284919Y-53094498D01*
X147284912Y-53094511D01*
X147228343Y-53231082D01*
X147228340Y-53231092D01*
X147199500Y-53376079D01*
X147199500Y-53376082D01*
X147199500Y-53523918D01*
X147199500Y-53523920D01*
X147199499Y-53523920D01*
X142476267Y-53523920D01*
X142440511Y-53461988D01*
X142440506Y-53461982D01*
X142338017Y-53359493D01*
X142338011Y-53359488D01*
X142212488Y-53287017D01*
X142212489Y-53287017D01*
X142201006Y-53283940D01*
X142072475Y-53249500D01*
X141927525Y-53249500D01*
X141927522Y-53249500D01*
X141897075Y-53257658D01*
X141873257Y-53261606D01*
X141863014Y-53262290D01*
X141863005Y-53262292D01*
X141369234Y-53395236D01*
X141336996Y-53399500D01*
X141063002Y-53399500D01*
X141030764Y-53395236D01*
X140536976Y-53262287D01*
X140529174Y-53260318D01*
X140528944Y-53260264D01*
X140528400Y-53260136D01*
X140525881Y-53259585D01*
X140520488Y-53258404D01*
X140513944Y-53257687D01*
X140513977Y-53257386D01*
X140489959Y-53254184D01*
X140472478Y-53249500D01*
X140472475Y-53249500D01*
X140327525Y-53249500D01*
X140198993Y-53283940D01*
X140187511Y-53287017D01*
X140061988Y-53359488D01*
X140061982Y-53359493D01*
X139959493Y-53461982D01*
X139959488Y-53461988D01*
X139887017Y-53587511D01*
X139887016Y-53587515D01*
X139849500Y-53727525D01*
X133000500Y-53727525D01*
X133000500Y-45927525D01*
X162449500Y-45927525D01*
X162449500Y-46072475D01*
X162467110Y-46138197D01*
X162468792Y-46149216D01*
X162468793Y-46149219D01*
X162470191Y-46158378D01*
X162477286Y-46177944D01*
X162480482Y-46188102D01*
X162487016Y-46212485D01*
X162489064Y-46216033D01*
X162498247Y-46235759D01*
X162635049Y-46613060D01*
X162642074Y-46632433D01*
X162649500Y-46674700D01*
X162649500Y-48795297D01*
X162642074Y-48837564D01*
X162498246Y-49234242D01*
X162498246Y-49234243D01*
X162494521Y-49244514D01*
X162487016Y-49257515D01*
X162479111Y-49287013D01*
X162477292Y-49292031D01*
X162477292Y-49292034D01*
X162470184Y-49311640D01*
X162464389Y-49329687D01*
X162463928Y-49331332D01*
X162463925Y-49331343D01*
X162462811Y-49335962D01*
X162459489Y-49349739D01*
X162458625Y-49356922D01*
X162457833Y-49356826D01*
X162455285Y-49375934D01*
X162449500Y-49397525D01*
X162449500Y-49542475D01*
X162477635Y-49647475D01*
X162487017Y-49682488D01*
X162559488Y-49808011D01*
X162559490Y-49808013D01*
X162559491Y-49808015D01*
X162661985Y-49910509D01*
X162661986Y-49910510D01*
X162661988Y-49910511D01*
X162787511Y-49982982D01*
X162787512Y-49982982D01*
X162787515Y-49982984D01*
X162927525Y-50020500D01*
X162927528Y-50020500D01*
X163072472Y-50020500D01*
X163072475Y-50020500D01*
X163212485Y-49982984D01*
X163338015Y-49910509D01*
X163440509Y-49808015D01*
X163512984Y-49682485D01*
X163550500Y-49542475D01*
X163550500Y-49397525D01*
X163532888Y-49331798D01*
X163529807Y-49311618D01*
X163520894Y-49287037D01*
X163512984Y-49257515D01*
X163510934Y-49253964D01*
X163501752Y-49234242D01*
X163357926Y-48837564D01*
X163350500Y-48795298D01*
X163350500Y-46674700D01*
X163357926Y-46632433D01*
X163364950Y-46613060D01*
X163505473Y-46225493D01*
X163512984Y-46212485D01*
X163520895Y-46182959D01*
X163529807Y-46158381D01*
X163535570Y-46140448D01*
X163536039Y-46138780D01*
X163539244Y-46125500D01*
X163540508Y-46120265D01*
X163541376Y-46113065D01*
X163542173Y-46113161D01*
X163544717Y-46094054D01*
X163545887Y-46089688D01*
X163550500Y-46072475D01*
X163550500Y-45927525D01*
X163999500Y-45927525D01*
X163999500Y-46072475D01*
X164017267Y-46138780D01*
X164037016Y-46212486D01*
X164037017Y-46212487D01*
X164078019Y-46283505D01*
X164086149Y-46300430D01*
X164091372Y-46313817D01*
X164100128Y-46327527D01*
X164290006Y-46624846D01*
X164309500Y-46691586D01*
X164309500Y-49402759D01*
X164301365Y-49446932D01*
X164152332Y-49837841D01*
X164148803Y-49847097D01*
X164137016Y-49867515D01*
X164127545Y-49902855D01*
X164125286Y-49908782D01*
X164125283Y-49908792D01*
X164121940Y-49917562D01*
X164115256Y-49937529D01*
X164114725Y-49939361D01*
X164109712Y-49959786D01*
X164108817Y-49967095D01*
X164107930Y-49966986D01*
X164105510Y-49985090D01*
X164099500Y-50007520D01*
X164099500Y-50007524D01*
X164099500Y-50007525D01*
X164099500Y-50152475D01*
X164137016Y-50292485D01*
X164137017Y-50292488D01*
X164209488Y-50418011D01*
X164209490Y-50418013D01*
X164209491Y-50418015D01*
X164311985Y-50520509D01*
X164311986Y-50520510D01*
X164311988Y-50520511D01*
X164437511Y-50592982D01*
X164437512Y-50592982D01*
X164437515Y-50592984D01*
X164577525Y-50630500D01*
X164577528Y-50630500D01*
X164722472Y-50630500D01*
X164722475Y-50630500D01*
X164862485Y-50592984D01*
X164988015Y-50520509D01*
X165090509Y-50418015D01*
X165162984Y-50292485D01*
X165200500Y-50152475D01*
X165200500Y-50007525D01*
X165187708Y-49959786D01*
X165186534Y-49955403D01*
X165186534Y-49955402D01*
X165184494Y-49947790D01*
X165181504Y-49925755D01*
X165168308Y-49887385D01*
X165162984Y-49867515D01*
X165162984Y-49867514D01*
X165159874Y-49860006D01*
X165160012Y-49859948D01*
X165155360Y-49849735D01*
X165085800Y-49647472D01*
X165035951Y-49502525D01*
X168474500Y-49502525D01*
X168474500Y-49647475D01*
X168483882Y-49682488D01*
X168512017Y-49787488D01*
X168584488Y-49913011D01*
X168584490Y-49913013D01*
X168584491Y-49913015D01*
X168686985Y-50015509D01*
X168686986Y-50015510D01*
X168686988Y-50015511D01*
X168812511Y-50087982D01*
X168812512Y-50087982D01*
X168812515Y-50087984D01*
X168952525Y-50125500D01*
X168952528Y-50125500D01*
X169097472Y-50125500D01*
X169097475Y-50125500D01*
X169237485Y-50087984D01*
X169363015Y-50015509D01*
X169465509Y-49913015D01*
X169537984Y-49787485D01*
X169575500Y-49647475D01*
X169575500Y-49642255D01*
X169595185Y-49575216D01*
X169611819Y-49554574D01*
X169912420Y-49253973D01*
X170220480Y-48945913D01*
X170273207Y-48854588D01*
X170300500Y-48752727D01*
X170300500Y-48647273D01*
X170300500Y-47062999D01*
X170304764Y-47030761D01*
X170396084Y-46691586D01*
X170437708Y-46536990D01*
X170439693Y-46529122D01*
X170439863Y-46528400D01*
X170441595Y-46520484D01*
X170441595Y-46520477D01*
X170442314Y-46513933D01*
X170442618Y-46513966D01*
X170445815Y-46489955D01*
X170450500Y-46472475D01*
X170450500Y-46327525D01*
X170412984Y-46187515D01*
X170410355Y-46182962D01*
X170340511Y-46061988D01*
X170340506Y-46061982D01*
X170238017Y-45959493D01*
X170238011Y-45959488D01*
X170112488Y-45887017D01*
X170112489Y-45887017D01*
X170101006Y-45883940D01*
X169972475Y-45849500D01*
X169827525Y-45849500D01*
X169698993Y-45883940D01*
X169687511Y-45887017D01*
X169561988Y-45959488D01*
X169561982Y-45959493D01*
X169459493Y-46061982D01*
X169459488Y-46061988D01*
X169387017Y-46187511D01*
X169387016Y-46187515D01*
X169349500Y-46327525D01*
X169349500Y-46327527D01*
X169349500Y-46472480D01*
X169357657Y-46502922D01*
X169361606Y-46526742D01*
X169362290Y-46536984D01*
X169362290Y-46536987D01*
X169362291Y-46536990D01*
X169387988Y-46632433D01*
X169495236Y-47030761D01*
X169499500Y-47062999D01*
X169499500Y-48482745D01*
X169479815Y-48549784D01*
X169463181Y-48570426D01*
X169045426Y-48988181D01*
X168984103Y-49021666D01*
X168957745Y-49024500D01*
X168952525Y-49024500D01*
X168823993Y-49058940D01*
X168812511Y-49062017D01*
X168686988Y-49134488D01*
X168686982Y-49134493D01*
X168584493Y-49236982D01*
X168584488Y-49236988D01*
X168512017Y-49362511D01*
X168512016Y-49362515D01*
X168474500Y-49502525D01*
X165035951Y-49502525D01*
X165017239Y-49448115D01*
X165010500Y-49407793D01*
X165010500Y-46632824D01*
X165013421Y-46610517D01*
X165012763Y-46610410D01*
X165024786Y-46536993D01*
X165094556Y-46110941D01*
X165094555Y-46110933D01*
X165094955Y-46105148D01*
X165095668Y-46105197D01*
X165098818Y-46078751D01*
X165100500Y-46072474D01*
X165100500Y-45927527D01*
X165100500Y-45927525D01*
X165062984Y-45787515D01*
X164990509Y-45661985D01*
X164888015Y-45559491D01*
X164888013Y-45559490D01*
X164888011Y-45559488D01*
X164762488Y-45487017D01*
X164762489Y-45487017D01*
X164751006Y-45483940D01*
X164622475Y-45449500D01*
X164477525Y-45449500D01*
X164348993Y-45483940D01*
X164337511Y-45487017D01*
X164211988Y-45559488D01*
X164211982Y-45559493D01*
X164109493Y-45661982D01*
X164109488Y-45661988D01*
X164037017Y-45787511D01*
X164037016Y-45787515D01*
X163999500Y-45927525D01*
X163550500Y-45927525D01*
X163512984Y-45787515D01*
X163440509Y-45661985D01*
X163338015Y-45559491D01*
X163338013Y-45559490D01*
X163338011Y-45559488D01*
X163212488Y-45487017D01*
X163212489Y-45487017D01*
X163201006Y-45483940D01*
X163072475Y-45449500D01*
X162927525Y-45449500D01*
X162798993Y-45483940D01*
X162787511Y-45487017D01*
X162661988Y-45559488D01*
X162661982Y-45559493D01*
X162559493Y-45661982D01*
X162559488Y-45661988D01*
X162487017Y-45787511D01*
X162487016Y-45787515D01*
X162449500Y-45927525D01*
X133000500Y-45927525D01*
X133000500Y-44044999D01*
X174435170Y-44044999D01*
X174435171Y-44045000D01*
X174900758Y-44045000D01*
X174895444Y-44054204D01*
X174875000Y-44130504D01*
X174875000Y-44209496D01*
X174895444Y-44285796D01*
X174900758Y-44295000D01*
X174435170Y-44295000D01*
X174453820Y-44388759D01*
X174453822Y-44388767D01*
X174510357Y-44525254D01*
X174510362Y-44525264D01*
X174592436Y-44648096D01*
X174592439Y-44648100D01*
X174696899Y-44752560D01*
X174696903Y-44752563D01*
X174819735Y-44834637D01*
X174819745Y-44834642D01*
X174956232Y-44891177D01*
X174956240Y-44891179D01*
X175101126Y-44919999D01*
X175101129Y-44920000D01*
X175600000Y-44920000D01*
X175600000Y-44470000D01*
X175850000Y-44470000D01*
X175850000Y-44920000D01*
X175889019Y-44920000D01*
X175956058Y-44939685D01*
X176001813Y-44992489D01*
X176011757Y-45061647D01*
X175982732Y-45125203D01*
X175951019Y-45151387D01*
X175902338Y-45179492D01*
X175902333Y-45179496D01*
X175804496Y-45277333D01*
X175804492Y-45277338D01*
X175735313Y-45397161D01*
X175735312Y-45397164D01*
X175699500Y-45530817D01*
X175699500Y-45669182D01*
X175735312Y-45802835D01*
X175735313Y-45802838D01*
X175804492Y-45922661D01*
X175804494Y-45922664D01*
X175804495Y-45922665D01*
X175902335Y-46020505D01*
X176022164Y-46089688D01*
X176155817Y-46125500D01*
X176155819Y-46125500D01*
X176294181Y-46125500D01*
X176294183Y-46125500D01*
X176427836Y-46089688D01*
X176547665Y-46020505D01*
X176645505Y-45922665D01*
X176714688Y-45802836D01*
X176750500Y-45669183D01*
X176750500Y-45530817D01*
X176714688Y-45397164D01*
X176645505Y-45277335D01*
X176547665Y-45179495D01*
X176547664Y-45179494D01*
X176547661Y-45179492D01*
X176447757Y-45121813D01*
X176399542Y-45071246D01*
X176386318Y-45002639D01*
X176412286Y-44937774D01*
X176469200Y-44897246D01*
X176485572Y-44892807D01*
X176493769Y-44891176D01*
X176630254Y-44834642D01*
X176630264Y-44834637D01*
X176753096Y-44752563D01*
X176753100Y-44752560D01*
X176857560Y-44648100D01*
X176857563Y-44648096D01*
X176939637Y-44525264D01*
X176939642Y-44525254D01*
X176996177Y-44388767D01*
X176996179Y-44388759D01*
X177014829Y-44295000D01*
X176549242Y-44295000D01*
X176554556Y-44285796D01*
X176575000Y-44209496D01*
X176575000Y-44130504D01*
X176554556Y-44054204D01*
X176549242Y-44045000D01*
X177014829Y-44045000D01*
X177014829Y-44044999D01*
X178765170Y-44044999D01*
X178765171Y-44045000D01*
X179230758Y-44045000D01*
X179225444Y-44054204D01*
X179205000Y-44130504D01*
X179205000Y-44209496D01*
X179225444Y-44285796D01*
X179230758Y-44295000D01*
X178765170Y-44295000D01*
X178783820Y-44388759D01*
X178783822Y-44388767D01*
X178840357Y-44525254D01*
X178840362Y-44525264D01*
X178922436Y-44648096D01*
X178922439Y-44648100D01*
X179026899Y-44752560D01*
X179026903Y-44752563D01*
X179149735Y-44834637D01*
X179149745Y-44834642D01*
X179286232Y-44891177D01*
X179286240Y-44891179D01*
X179431126Y-44919999D01*
X179431129Y-44920000D01*
X179780000Y-44920000D01*
X179780000Y-44470000D01*
X180030000Y-44470000D01*
X180030000Y-44920000D01*
X180378871Y-44920000D01*
X180378873Y-44919999D01*
X180523759Y-44891179D01*
X180523767Y-44891177D01*
X180660254Y-44834642D01*
X180660264Y-44834637D01*
X180783096Y-44752563D01*
X180783100Y-44752560D01*
X180887560Y-44648100D01*
X180887563Y-44648096D01*
X180969637Y-44525264D01*
X180969642Y-44525254D01*
X181026177Y-44388767D01*
X181026179Y-44388759D01*
X181044829Y-44295000D01*
X180579242Y-44295000D01*
X180584556Y-44285796D01*
X180605000Y-44209496D01*
X180605000Y-44130504D01*
X180584556Y-44054204D01*
X180579242Y-44045000D01*
X181044829Y-44045000D01*
X181044829Y-44044999D01*
X181026179Y-43951240D01*
X181026177Y-43951232D01*
X180969642Y-43814745D01*
X180969637Y-43814735D01*
X180887563Y-43691903D01*
X180887560Y-43691899D01*
X180783100Y-43587439D01*
X180783096Y-43587436D01*
X180660264Y-43505362D01*
X180660254Y-43505357D01*
X180523767Y-43448822D01*
X180523759Y-43448820D01*
X180378872Y-43420000D01*
X180030000Y-43420000D01*
X180030000Y-43870000D01*
X179780000Y-43870000D01*
X179780000Y-43420000D01*
X179431128Y-43420000D01*
X179286240Y-43448820D01*
X179286232Y-43448822D01*
X179149745Y-43505357D01*
X179149735Y-43505362D01*
X179026903Y-43587436D01*
X179026899Y-43587439D01*
X178922439Y-43691899D01*
X178922436Y-43691903D01*
X178840362Y-43814735D01*
X178840357Y-43814745D01*
X178783822Y-43951232D01*
X178783820Y-43951240D01*
X178765170Y-44044999D01*
X177014829Y-44044999D01*
X176996179Y-43951240D01*
X176996177Y-43951232D01*
X176939642Y-43814745D01*
X176939637Y-43814735D01*
X176857563Y-43691903D01*
X176857560Y-43691899D01*
X176753100Y-43587439D01*
X176753096Y-43587436D01*
X176630264Y-43505362D01*
X176630254Y-43505357D01*
X176493767Y-43448822D01*
X176493759Y-43448820D01*
X176348872Y-43420000D01*
X175850000Y-43420000D01*
X175850000Y-43870000D01*
X175600000Y-43870000D01*
X175600000Y-43420000D01*
X175101128Y-43420000D01*
X174956240Y-43448820D01*
X174956232Y-43448822D01*
X174819745Y-43505357D01*
X174819735Y-43505362D01*
X174696903Y-43587436D01*
X174696899Y-43587439D01*
X174592439Y-43691899D01*
X174592436Y-43691903D01*
X174510362Y-43814735D01*
X174510357Y-43814745D01*
X174453822Y-43951232D01*
X174453820Y-43951240D01*
X174435170Y-44044999D01*
X133000500Y-44044999D01*
X133000500Y-37627525D01*
X164249500Y-37627525D01*
X164249500Y-37772475D01*
X164287016Y-37912485D01*
X164287017Y-37912488D01*
X164359488Y-38038011D01*
X164359490Y-38038013D01*
X164359491Y-38038015D01*
X164461985Y-38140509D01*
X164461986Y-38140510D01*
X164461988Y-38140511D01*
X164587511Y-38212982D01*
X164587512Y-38212982D01*
X164587515Y-38212984D01*
X164727525Y-38250500D01*
X164727528Y-38250500D01*
X164872472Y-38250500D01*
X164872475Y-38250500D01*
X165012485Y-38212984D01*
X165138015Y-38140509D01*
X165240509Y-38038015D01*
X165274538Y-37979073D01*
X165286622Y-37962637D01*
X165297696Y-37938962D01*
X165312984Y-37912485D01*
X165314043Y-37908529D01*
X165321499Y-37888078D01*
X165500291Y-37505889D01*
X165524922Y-37470758D01*
X166458258Y-36537422D01*
X166493389Y-36512791D01*
X166885471Y-36329372D01*
X166899985Y-36325484D01*
X166926462Y-36310196D01*
X166950137Y-36299122D01*
X166967093Y-36290404D01*
X166968603Y-36289555D01*
X166984618Y-36279759D01*
X166984623Y-36279753D01*
X166990309Y-36275291D01*
X166990804Y-36275922D01*
X167006118Y-36264207D01*
X167025515Y-36253009D01*
X167128009Y-36150515D01*
X167200484Y-36024985D01*
X167238000Y-35884975D01*
X167238000Y-35740025D01*
X167200484Y-35600015D01*
X167171527Y-35549861D01*
X167128011Y-35474488D01*
X167128006Y-35474482D01*
X167025517Y-35371993D01*
X167025511Y-35371988D01*
X166899988Y-35299517D01*
X166899989Y-35299517D01*
X166888506Y-35296440D01*
X166759975Y-35262000D01*
X166615025Y-35262000D01*
X166486493Y-35296440D01*
X166475011Y-35299517D01*
X166349488Y-35371988D01*
X166349482Y-35371993D01*
X166246993Y-35474482D01*
X166246991Y-35474485D01*
X166216388Y-35527489D01*
X166216387Y-35527488D01*
X166212960Y-35533422D01*
X166200877Y-35549861D01*
X166189800Y-35573536D01*
X166187129Y-35578165D01*
X166187128Y-35578168D01*
X166174516Y-35600013D01*
X166174514Y-35600018D01*
X166173455Y-35603972D01*
X166166002Y-35624408D01*
X165987206Y-36006609D01*
X165962569Y-36041747D01*
X165029247Y-36975069D01*
X164994109Y-36999706D01*
X164611909Y-37178502D01*
X164602017Y-37183129D01*
X164587515Y-37187016D01*
X164561055Y-37202291D01*
X164556215Y-37204556D01*
X164556212Y-37204556D01*
X164537373Y-37213371D01*
X164520304Y-37222151D01*
X164518816Y-37222988D01*
X164502881Y-37232740D01*
X164497197Y-37237203D01*
X164496705Y-37236576D01*
X164481379Y-37248293D01*
X164461986Y-37259489D01*
X164359490Y-37361986D01*
X164359488Y-37361988D01*
X164287017Y-37487511D01*
X164287016Y-37487515D01*
X164249500Y-37627525D01*
X133000500Y-37627525D01*
X133000500Y-34026481D01*
X143123652Y-34026481D01*
X143153492Y-34176491D01*
X143153495Y-34176501D01*
X143212026Y-34317809D01*
X143212028Y-34317812D01*
X143297002Y-34444985D01*
X143297008Y-34444993D01*
X143405159Y-34553144D01*
X143405167Y-34553150D01*
X143532340Y-34638124D01*
X143532343Y-34638126D01*
X143673651Y-34696657D01*
X143673656Y-34696659D01*
X143673660Y-34696659D01*
X143673661Y-34696660D01*
X143823671Y-34726500D01*
X143823674Y-34726500D01*
X143976634Y-34726500D01*
X144077557Y-34706424D01*
X144126650Y-34696659D01*
X144267964Y-34638125D01*
X144395143Y-34553147D01*
X144503300Y-34444990D01*
X144588278Y-34317811D01*
X144646812Y-34176497D01*
X144676653Y-34026479D01*
X144676653Y-33873521D01*
X144676653Y-33873518D01*
X144646813Y-33723508D01*
X144646812Y-33723507D01*
X144646812Y-33723503D01*
X144646810Y-33723498D01*
X144588279Y-33582190D01*
X144588277Y-33582187D01*
X144503303Y-33455014D01*
X144503297Y-33455006D01*
X144395146Y-33346855D01*
X144395138Y-33346849D01*
X144267965Y-33261875D01*
X144267962Y-33261873D01*
X144126654Y-33203342D01*
X144126644Y-33203339D01*
X143976634Y-33173500D01*
X143976632Y-33173500D01*
X143823674Y-33173500D01*
X143823672Y-33173500D01*
X143673661Y-33203339D01*
X143673651Y-33203342D01*
X143532343Y-33261873D01*
X143532340Y-33261875D01*
X143405167Y-33346849D01*
X143405159Y-33346855D01*
X143297008Y-33455006D01*
X143297002Y-33455014D01*
X143212028Y-33582187D01*
X143212026Y-33582190D01*
X143153495Y-33723498D01*
X143153492Y-33723508D01*
X143123653Y-33873518D01*
X143123653Y-33873521D01*
X143123653Y-34026479D01*
X143123653Y-34026481D01*
X143123652Y-34026481D01*
X133000500Y-34026481D01*
X133000500Y-32983920D01*
X172679499Y-32983920D01*
X172708340Y-33128907D01*
X172708343Y-33128917D01*
X172764912Y-33265488D01*
X172764919Y-33265501D01*
X172847048Y-33388415D01*
X172847051Y-33388419D01*
X172951580Y-33492948D01*
X172951584Y-33492951D01*
X173074498Y-33575080D01*
X173074511Y-33575087D01*
X173211082Y-33631656D01*
X173211087Y-33631658D01*
X173211091Y-33631658D01*
X173211092Y-33631659D01*
X173356079Y-33660500D01*
X173356082Y-33660500D01*
X173503920Y-33660500D01*
X173601462Y-33641096D01*
X173648913Y-33631658D01*
X173785495Y-33575084D01*
X173908416Y-33492951D01*
X174012951Y-33388416D01*
X174095084Y-33265495D01*
X174096584Y-33261875D01*
X174107902Y-33234547D01*
X174151658Y-33128913D01*
X174180500Y-32983918D01*
X174180500Y-32836082D01*
X174180500Y-32836079D01*
X174151659Y-32691092D01*
X174151658Y-32691091D01*
X174151658Y-32691087D01*
X174151656Y-32691082D01*
X174095087Y-32554511D01*
X174095080Y-32554498D01*
X174012951Y-32431584D01*
X174012948Y-32431580D01*
X173908419Y-32327051D01*
X173908415Y-32327048D01*
X173785501Y-32244919D01*
X173785488Y-32244912D01*
X173648917Y-32188343D01*
X173648907Y-32188340D01*
X173503920Y-32159500D01*
X173503918Y-32159500D01*
X173356082Y-32159500D01*
X173356080Y-32159500D01*
X173211092Y-32188340D01*
X173211082Y-32188343D01*
X173074511Y-32244912D01*
X173074498Y-32244919D01*
X172951584Y-32327048D01*
X172951580Y-32327051D01*
X172847051Y-32431580D01*
X172847048Y-32431584D01*
X172764919Y-32554498D01*
X172764912Y-32554511D01*
X172708343Y-32691082D01*
X172708340Y-32691092D01*
X172679500Y-32836079D01*
X172679500Y-32836082D01*
X172679500Y-32983918D01*
X172679500Y-32983920D01*
X172679499Y-32983920D01*
X133000500Y-32983920D01*
X133000500Y-29795730D01*
X161549500Y-29795730D01*
X161549500Y-30804269D01*
X161552353Y-30834699D01*
X161552353Y-30834701D01*
X161592723Y-30950068D01*
X161597207Y-30962882D01*
X161677850Y-31072150D01*
X161787118Y-31152793D01*
X161829845Y-31167744D01*
X161915299Y-31197646D01*
X161945730Y-31200500D01*
X161945734Y-31200500D01*
X162454270Y-31200500D01*
X162484699Y-31197646D01*
X162484701Y-31197646D01*
X162549361Y-31175020D01*
X162612882Y-31152793D01*
X162722150Y-31072150D01*
X162777039Y-30997778D01*
X162832686Y-30955527D01*
X162902342Y-30950068D01*
X162963892Y-30983135D01*
X162964490Y-30983730D01*
X163035643Y-31054883D01*
X163035650Y-31054889D01*
X163142108Y-31126021D01*
X163260401Y-31175020D01*
X163260409Y-31175022D01*
X163324999Y-31187870D01*
X163325000Y-31187870D01*
X163325000Y-30518821D01*
X163400272Y-30550000D01*
X163499728Y-30550000D01*
X163575000Y-30518821D01*
X163575000Y-31187870D01*
X163639590Y-31175022D01*
X163639598Y-31175020D01*
X163757891Y-31126021D01*
X163757892Y-31126021D01*
X163864349Y-31054889D01*
X163864356Y-31054883D01*
X163954883Y-30964356D01*
X163954889Y-30964349D01*
X164026021Y-30857892D01*
X164026021Y-30857891D01*
X164075020Y-30739598D01*
X164075022Y-30739590D01*
X164099999Y-30614023D01*
X164100000Y-30614020D01*
X164100000Y-30425000D01*
X163668822Y-30425000D01*
X163700000Y-30349728D01*
X163700000Y-30250272D01*
X163668822Y-30175000D01*
X164100000Y-30175000D01*
X164100000Y-29985980D01*
X164099999Y-29985976D01*
X164075022Y-29860409D01*
X164075020Y-29860401D01*
X164026021Y-29742108D01*
X164026021Y-29742107D01*
X163954889Y-29635650D01*
X163954883Y-29635643D01*
X163864356Y-29545116D01*
X163864349Y-29545110D01*
X163757891Y-29473978D01*
X163639599Y-29424979D01*
X163639593Y-29424977D01*
X163575000Y-29412128D01*
X163575000Y-30081178D01*
X163499728Y-30050000D01*
X163400272Y-30050000D01*
X163325000Y-30081178D01*
X163325000Y-29412129D01*
X163324999Y-29412128D01*
X163260406Y-29424977D01*
X163260400Y-29424979D01*
X163142108Y-29473978D01*
X163142107Y-29473978D01*
X163035650Y-29545110D01*
X162964490Y-29616270D01*
X162903166Y-29649754D01*
X162833475Y-29644769D01*
X162777541Y-29602898D01*
X162777039Y-29602222D01*
X162765197Y-29586177D01*
X162722150Y-29527850D01*
X162612882Y-29447207D01*
X162612880Y-29447206D01*
X162484700Y-29402353D01*
X162454270Y-29399500D01*
X162454266Y-29399500D01*
X161945734Y-29399500D01*
X161945730Y-29399500D01*
X161915300Y-29402353D01*
X161915298Y-29402353D01*
X161787119Y-29447206D01*
X161787117Y-29447207D01*
X161677850Y-29527850D01*
X161597207Y-29637117D01*
X161597206Y-29637119D01*
X161552353Y-29765298D01*
X161552353Y-29765300D01*
X161549500Y-29795730D01*
X133000500Y-29795730D01*
X133000500Y-28124500D01*
X133020185Y-28057461D01*
X133072989Y-28011706D01*
X133124500Y-28000500D01*
X181875500Y-28000500D01*
X181942539Y-28020185D01*
G37*
%TD.AperFunction*%
%TD*%
%TA.AperFunction,Conductor*%
%TO.N,Net-(JP1-A)*%
G36*
X166447862Y-35652486D02*
G01*
X166449372Y-35653335D01*
X166686234Y-35810484D01*
X166689515Y-35813765D01*
X166846664Y-36050627D01*
X166848383Y-36059415D01*
X166843383Y-36066844D01*
X166841873Y-36067693D01*
X166345453Y-36299922D01*
X166336507Y-36300323D01*
X166332222Y-36297597D01*
X166202402Y-36167777D01*
X166198975Y-36159504D01*
X166200075Y-36154551D01*
X166432306Y-35658125D01*
X166438916Y-35652085D01*
X166447862Y-35652486D01*
G37*
%TD.AperFunction*%
%TD*%
%TA.AperFunction,Conductor*%
%TO.N,Net-(JP1-A)*%
G36*
X165155277Y-37214902D02*
G01*
X165285097Y-37344722D01*
X165288524Y-37352995D01*
X165287422Y-37357953D01*
X165055193Y-37854373D01*
X165048583Y-37860414D01*
X165039637Y-37860013D01*
X165038127Y-37859164D01*
X164801265Y-37702015D01*
X164797984Y-37698734D01*
X164640835Y-37461872D01*
X164639116Y-37453084D01*
X164644116Y-37445655D01*
X164645621Y-37444808D01*
X165142048Y-37212576D01*
X165150992Y-37212176D01*
X165155277Y-37214902D01*
G37*
%TD.AperFunction*%
%TD*%
%TA.AperFunction,Conductor*%
%TO.N,+3.3V*%
G36*
X154682017Y-70256055D02*
G01*
X154689445Y-70261054D01*
X154691164Y-70269842D01*
X154690994Y-70270564D01*
X154552331Y-70785578D01*
X154546871Y-70792676D01*
X154541033Y-70794236D01*
X154258967Y-70794236D01*
X154250694Y-70790809D01*
X154247669Y-70785578D01*
X154109005Y-70270564D01*
X154110163Y-70261684D01*
X154117261Y-70256224D01*
X154117953Y-70256060D01*
X154397682Y-70199469D01*
X154402318Y-70199469D01*
X154682017Y-70256055D01*
G37*
%TD.AperFunction*%
%TD*%
%TA.AperFunction,Conductor*%
%TO.N,+3.3V*%
G36*
X154548805Y-72939192D02*
G01*
X154551975Y-72945025D01*
X154661769Y-73459910D01*
X154660143Y-73468716D01*
X154652766Y-73473793D01*
X154652646Y-73473818D01*
X154372319Y-73530531D01*
X154367679Y-73530531D01*
X154088629Y-73474076D01*
X154081200Y-73469076D01*
X154079481Y-73460288D01*
X154079820Y-73459000D01*
X154195532Y-73103229D01*
X154247372Y-72943846D01*
X154253189Y-72937039D01*
X154258498Y-72935765D01*
X154540532Y-72935765D01*
X154548805Y-72939192D01*
G37*
%TD.AperFunction*%
%TD*%
%TA.AperFunction,Conductor*%
%TO.N,+3.3V*%
G36*
X141938315Y-53510163D02*
G01*
X141943775Y-53517261D01*
X141943945Y-53517983D01*
X142000530Y-53797680D01*
X142000530Y-53802320D01*
X141943945Y-54082016D01*
X141938945Y-54089445D01*
X141930157Y-54091164D01*
X141929435Y-54090994D01*
X141414422Y-53952331D01*
X141407324Y-53946871D01*
X141405764Y-53941033D01*
X141405764Y-53658966D01*
X141409191Y-53650693D01*
X141414419Y-53647669D01*
X141929435Y-53509005D01*
X141938315Y-53510163D01*
G37*
%TD.AperFunction*%
%TD*%
%TA.AperFunction,Conductor*%
%TO.N,+3.3V*%
G36*
X140470564Y-53509005D02*
G01*
X140503910Y-53517983D01*
X140985579Y-53647669D01*
X140992676Y-53653128D01*
X140994236Y-53658966D01*
X140994236Y-53941033D01*
X140990809Y-53949306D01*
X140985578Y-53952331D01*
X140470564Y-54090994D01*
X140461684Y-54089836D01*
X140456224Y-54082738D01*
X140456059Y-54082039D01*
X140399469Y-53802318D01*
X140399469Y-53797680D01*
X140456055Y-53517980D01*
X140461054Y-53510554D01*
X140469842Y-53508835D01*
X140470564Y-53509005D01*
G37*
%TD.AperFunction*%
%TD*%
%TA.AperFunction,Conductor*%
%TO.N,V+*%
G36*
X167860460Y-56114531D02*
G01*
X167883089Y-56123158D01*
X168732861Y-56447128D01*
X168739371Y-56453277D01*
X168740393Y-56458060D01*
X168740393Y-56741939D01*
X168736966Y-56750212D01*
X168732861Y-56752871D01*
X167860460Y-57085468D01*
X167851509Y-57085214D01*
X167845360Y-57078704D01*
X167844823Y-57076849D01*
X167749463Y-56602304D01*
X167749463Y-56597695D01*
X167778484Y-56453277D01*
X167844822Y-56123156D01*
X167849811Y-56115722D01*
X167858597Y-56113992D01*
X167860460Y-56114531D01*
G37*
%TD.AperFunction*%
%TD*%
%TA.AperFunction,Conductor*%
%TO.N,V+*%
G36*
X170182017Y-46456055D02*
G01*
X170189445Y-46461054D01*
X170191164Y-46469842D01*
X170190994Y-46470564D01*
X170052331Y-46985578D01*
X170046871Y-46992676D01*
X170041033Y-46994236D01*
X169758967Y-46994236D01*
X169750694Y-46990809D01*
X169747669Y-46985578D01*
X169609005Y-46470564D01*
X169610163Y-46461684D01*
X169617261Y-46456224D01*
X169617953Y-46456060D01*
X169897682Y-46399469D01*
X169902318Y-46399469D01*
X170182017Y-46456055D01*
G37*
%TD.AperFunction*%
%TD*%
%TA.AperFunction,Conductor*%
%TO.N,V+*%
G36*
X171518132Y-53882015D02*
G01*
X171518762Y-53882406D01*
X171756549Y-54040169D01*
X171759830Y-54043450D01*
X171917593Y-54281237D01*
X171919312Y-54290025D01*
X171914312Y-54297454D01*
X171913682Y-54297845D01*
X171451463Y-54563965D01*
X171442583Y-54565123D01*
X171437352Y-54562098D01*
X171237901Y-54362647D01*
X171234474Y-54354374D01*
X171236033Y-54348539D01*
X171502154Y-53886316D01*
X171509252Y-53880857D01*
X171518132Y-53882015D01*
G37*
%TD.AperFunction*%
%TD*%
%TA.AperFunction,Conductor*%
%TO.N,NRST*%
G36*
X141444789Y-55979969D02*
G01*
X141453479Y-55981727D01*
X141722017Y-56036055D01*
X141729445Y-56041054D01*
X141731164Y-56049842D01*
X141730994Y-56050564D01*
X141592331Y-56565578D01*
X141586871Y-56572676D01*
X141581033Y-56574236D01*
X141397453Y-56574236D01*
X141389180Y-56570809D01*
X141386850Y-56567482D01*
X141194790Y-56155742D01*
X141194398Y-56146796D01*
X141198864Y-56141088D01*
X141435943Y-55981726D01*
X141444720Y-55979956D01*
X141444789Y-55979969D01*
G37*
%TD.AperFunction*%
%TD*%
%TA.AperFunction,Conductor*%
%TO.N,NRST*%
G36*
X141590070Y-62009191D02*
G01*
X141592796Y-62013476D01*
X141779608Y-62528709D01*
X141779207Y-62537655D01*
X141772597Y-62543696D01*
X141770929Y-62544165D01*
X141492320Y-62600530D01*
X141487680Y-62600530D01*
X141209070Y-62544165D01*
X141201641Y-62539165D01*
X141199922Y-62530377D01*
X141200387Y-62528720D01*
X141387204Y-62013476D01*
X141393245Y-62006866D01*
X141398203Y-62005764D01*
X141581797Y-62005764D01*
X141590070Y-62009191D01*
G37*
%TD.AperFunction*%
%TD*%
%TA.AperFunction,Conductor*%
%TO.N,NRST*%
G36*
X141571282Y-68910389D02*
G01*
X142086525Y-69097204D01*
X142093134Y-69103244D01*
X142094236Y-69108202D01*
X142094236Y-69291797D01*
X142090809Y-69300070D01*
X142086524Y-69302796D01*
X141571290Y-69489608D01*
X141562344Y-69489207D01*
X141556303Y-69482597D01*
X141555837Y-69480939D01*
X141499469Y-69202318D01*
X141499469Y-69197680D01*
X141555835Y-68919067D01*
X141560834Y-68911641D01*
X141569622Y-68909922D01*
X141571282Y-68910389D01*
G37*
%TD.AperFunction*%
%TD*%
%TA.AperFunction,Conductor*%
%TO.N,NRST*%
G36*
X146337655Y-68910792D02*
G01*
X146343696Y-68917402D01*
X146344165Y-68919070D01*
X146400530Y-69197680D01*
X146400530Y-69202320D01*
X146344165Y-69480929D01*
X146339165Y-69488358D01*
X146330377Y-69490077D01*
X146328709Y-69489608D01*
X145813476Y-69302796D01*
X145806866Y-69296755D01*
X145805764Y-69291797D01*
X145805764Y-69108202D01*
X145809191Y-69099929D01*
X145813473Y-69097204D01*
X146328711Y-68910391D01*
X146337655Y-68910792D01*
G37*
%TD.AperFunction*%
%TD*%
%TA.AperFunction,Conductor*%
%TO.N,SWCLK*%
G36*
X163280930Y-46055835D02*
G01*
X163288358Y-46060834D01*
X163290077Y-46069622D01*
X163289608Y-46071290D01*
X163102796Y-46586524D01*
X163096755Y-46593134D01*
X163091797Y-46594236D01*
X162908203Y-46594236D01*
X162899930Y-46590809D01*
X162897204Y-46586524D01*
X162849544Y-46455078D01*
X162710391Y-46071288D01*
X162710792Y-46062344D01*
X162717402Y-46056303D01*
X162719056Y-46055837D01*
X162997682Y-45999469D01*
X163002318Y-45999469D01*
X163280930Y-46055835D01*
G37*
%TD.AperFunction*%
%TD*%
%TA.AperFunction,Conductor*%
%TO.N,SWCLK*%
G36*
X163100070Y-48879191D02*
G01*
X163102796Y-48883476D01*
X163289608Y-49398709D01*
X163289207Y-49407655D01*
X163282597Y-49413696D01*
X163280929Y-49414165D01*
X163002320Y-49470530D01*
X162997680Y-49470530D01*
X162719070Y-49414165D01*
X162711641Y-49409165D01*
X162709922Y-49400377D01*
X162710387Y-49398720D01*
X162897204Y-48883476D01*
X162903245Y-48876866D01*
X162908203Y-48875764D01*
X163091797Y-48875764D01*
X163100070Y-48879191D01*
G37*
%TD.AperFunction*%
%TD*%
%TA.AperFunction,Conductor*%
%TO.N,TRACESWO*%
G36*
X164759924Y-49489191D02*
G01*
X164762715Y-49493659D01*
X164939893Y-50008847D01*
X164939343Y-50017785D01*
X164932634Y-50023716D01*
X164931149Y-50024120D01*
X164652320Y-50080530D01*
X164647680Y-50080530D01*
X164369293Y-50024210D01*
X164361864Y-50019210D01*
X164360145Y-50010422D01*
X164360678Y-50008581D01*
X164557128Y-49493295D01*
X164563277Y-49486786D01*
X164568060Y-49485764D01*
X164751651Y-49485764D01*
X164759924Y-49489191D01*
G37*
%TD.AperFunction*%
%TD*%
%TA.AperFunction,Conductor*%
%TO.N,TRACESWO*%
G36*
X164554789Y-45999969D02*
G01*
X164563479Y-46001727D01*
X164833189Y-46056292D01*
X164840617Y-46061291D01*
X164842414Y-46069650D01*
X164761606Y-46563106D01*
X164756887Y-46570716D01*
X164750060Y-46572915D01*
X164566410Y-46572915D01*
X164558137Y-46569488D01*
X164556549Y-46567512D01*
X164306708Y-46176300D01*
X164305145Y-46167485D01*
X164310041Y-46160296D01*
X164545943Y-46001726D01*
X164554720Y-45999956D01*
X164554789Y-45999969D01*
G37*
%TD.AperFunction*%
%TD*%
%TA.AperFunction,Conductor*%
%TO.N,USART3_TX*%
G36*
X164500070Y-56359191D02*
G01*
X164502796Y-56363476D01*
X164689608Y-56878709D01*
X164689207Y-56887655D01*
X164682597Y-56893696D01*
X164680929Y-56894165D01*
X164402320Y-56950530D01*
X164397680Y-56950530D01*
X164119070Y-56894165D01*
X164111641Y-56889165D01*
X164109922Y-56880377D01*
X164110387Y-56878720D01*
X164297204Y-56363476D01*
X164303245Y-56356866D01*
X164308203Y-56355764D01*
X164491797Y-56355764D01*
X164500070Y-56359191D01*
G37*
%TD.AperFunction*%
%TD*%
%TA.AperFunction,Conductor*%
%TO.N,USART3_TX*%
G36*
X153004344Y-53594116D02*
G01*
X153005193Y-53595626D01*
X153077080Y-53749293D01*
X153196791Y-54005193D01*
X153237422Y-54092046D01*
X153237823Y-54100992D01*
X153235097Y-54105277D01*
X153105277Y-54235097D01*
X153097004Y-54238524D01*
X153092047Y-54237422D01*
X152941428Y-54166961D01*
X152595626Y-54005193D01*
X152589585Y-53998583D01*
X152589986Y-53989637D01*
X152590835Y-53988127D01*
X152747985Y-53751263D01*
X152751263Y-53747985D01*
X152988127Y-53590834D01*
X152996915Y-53589116D01*
X153004344Y-53594116D01*
G37*
%TD.AperFunction*%
%TD*%
%TA.AperFunction,Conductor*%
%TO.N,USART3_TX*%
G36*
X163200934Y-63775835D02*
G01*
X163208362Y-63780835D01*
X163210081Y-63789623D01*
X163209614Y-63791287D01*
X163022995Y-64306520D01*
X163016955Y-64313132D01*
X163011994Y-64314236D01*
X162828400Y-64314236D01*
X162820127Y-64310809D01*
X162817402Y-64306528D01*
X162630397Y-63791293D01*
X162630796Y-63782347D01*
X162637403Y-63776303D01*
X162639061Y-63775836D01*
X162917682Y-63719469D01*
X162922318Y-63719469D01*
X163200934Y-63775835D01*
G37*
%TD.AperFunction*%
%TD*%
%TA.AperFunction,Conductor*%
%TO.N,USART3_TX*%
G36*
X163020267Y-66229191D02*
G01*
X163022995Y-66233480D01*
X163209614Y-66748712D01*
X163209209Y-66757657D01*
X163202597Y-66763697D01*
X163200933Y-66764164D01*
X162922320Y-66820530D01*
X162917680Y-66820530D01*
X162639075Y-66764166D01*
X162631646Y-66759166D01*
X162629927Y-66750378D01*
X162630394Y-66748715D01*
X162817402Y-66233471D01*
X162823446Y-66226865D01*
X162828400Y-66225764D01*
X163011994Y-66225764D01*
X163020267Y-66229191D01*
G37*
%TD.AperFunction*%
%TD*%
%TA.AperFunction,Conductor*%
%TO.N,USART3_TX*%
G36*
X163566202Y-54440600D02*
G01*
X163879394Y-54777395D01*
X163882518Y-54785787D01*
X163879099Y-54793635D01*
X163749409Y-54923325D01*
X163741136Y-54926752D01*
X163740360Y-54926726D01*
X163264735Y-54895117D01*
X163256707Y-54891149D01*
X163253837Y-54882667D01*
X163254030Y-54881192D01*
X163308353Y-54604085D01*
X163313304Y-54596631D01*
X163551168Y-54438817D01*
X163559954Y-54437099D01*
X163566202Y-54440600D01*
G37*
%TD.AperFunction*%
%TD*%
%TA.AperFunction,Conductor*%
%TO.N,USART3_TX*%
G36*
X159077655Y-54310792D02*
G01*
X159083696Y-54317402D01*
X159084165Y-54319070D01*
X159140530Y-54597680D01*
X159140530Y-54602320D01*
X159084165Y-54880929D01*
X159079165Y-54888358D01*
X159070377Y-54890077D01*
X159068709Y-54889608D01*
X158553476Y-54702796D01*
X158546866Y-54696755D01*
X158545764Y-54691797D01*
X158545764Y-54508202D01*
X158549191Y-54499929D01*
X158553473Y-54497204D01*
X159068711Y-54310391D01*
X159077655Y-54310792D01*
G37*
%TD.AperFunction*%
%TD*%
M02*
