M48
; DRILL file {KiCad 9.0.1} date 2025-05-06T23:24:01+0200
; FORMAT={-:-/ absolute / inch / decimal}
; #@! TF.CreationDate,2025-05-06T23:24:01+02:00
; #@! TF.GenerationSoftware,Kicad,Pcbnew,9.0.1
; #@! TF.FileFunction,Plated,1,2,PTH
FMAT,2
INCH
; #@! TA.AperFunction,Plated,PTH,ViaDrill
T1C0.0118
; #@! TA.AperFunction,Plated,PTH,ComponentDrill
T2C0.0197
; #@! TA.AperFunction,Plated,PTH,ComponentDrill
T3C0.0236
; #@! TA.AperFunction,Plated,PTH,ComponentDrill
T4C0.0276
; #@! TA.AperFunction,Plated,PTH,ComponentDrill
T5C0.0299
; #@! TA.AperFunction,Plated,PTH,ComponentDrill
T6C0.0394
; #@! TA.AperFunction,Plated,PTH,ComponentDrill
T7C0.0433
%
G90
G05
T1
X5.2559Y-1.1201
X5.2559Y-1.4173
X5.2559Y-1.6929
X5.2648Y-2.0984
X5.2657Y-1.8757
X5.2657Y-2.3848
X5.2657Y-2.8622
X5.2657Y-3.1009
X5.2657Y-3.3396
X5.2661Y-2.587
X5.315Y-1.7913
X5.3772Y-3.1528
X5.3807Y-1.8925
X5.3811Y-2.0945
X5.3815Y-1.6992
X5.4118Y-3.061
X5.428Y-3.2551
X5.4406Y-1.8913
X5.4449Y-2.1614
X5.4488Y-2.315
X5.4522Y-3.3396
X5.4596Y-1.1201
X5.4662Y-2.5025
X5.4689Y-1.7118
X5.5181Y-1.9512
X5.5224Y-2.1567
X5.5236Y-2.0669
X5.5276Y-2.1181
X5.5358Y-2.5579
X5.5685Y-2.2039
X5.5705Y-2.4646
X5.5709Y-2.7244
X5.5846Y-1.748
X5.5846Y-3.0512
X5.5906Y-2.1181
X5.5965Y-2.8406
X5.5984Y-2.761
X5.6008Y-2.6866
X5.6035Y-2.4531
X5.6126Y-2.3311
X5.626Y-2.1919
X5.6283Y-3.2555
X5.6287Y-2.1091
X5.6339Y-1.8661
X5.6358Y-1.5531
X5.6386Y-3.3396
X5.6417Y-1.7598
X5.6496Y-1.4764
X5.6548Y-1.1201
X5.6657Y-3.1433
X5.7067Y-2.0374
X5.7087Y-1.5945
X5.7087Y-2.1024
X5.7276Y-3.2555
X5.7287Y-3.1437
X5.7374Y-2.7547
X5.7421Y-2.6728
X5.7451Y-2.8406
X5.748Y-3.0551
X5.7539Y-2.4953
X5.7562Y-2.5985
X5.7569Y-1.6152
X5.7638Y-1.8071
X5.7638Y-2.7244
X5.7874Y-2.0394
X5.7898Y-1.728
X5.8244Y-2.7531
X5.825Y-3.3396
X5.8425Y-2.3268
X5.8499Y-1.1201
X5.8504Y-1.4882
X5.8504Y-1.563
X5.8701Y-2.7059
X5.878Y-1.9134
X5.878Y-1.9764
X5.8866Y-2.8193
X5.8882Y-2.2406
X5.8976Y-1.811
X5.9055Y-1.6654
X5.9055Y-1.8622
X5.9173Y-2.8819
X5.9213Y-2.4803
X5.9276Y-3.2555
X5.9344Y-1.9764
X5.9357Y-1.9134
X5.9449Y-2.3071
X5.9626Y-2.1614
X5.9685Y-1.8386
X5.9715Y-3.0138
X5.9886Y-2.6193
X5.9934Y-1.9134
X6.0114Y-3.3396
X6.0138Y-2.1161
X6.0276Y-1.9488
X6.0276Y-2.2913
X6.0354Y-2.7677
X6.0354Y-2.8819
X6.0354Y-3.1398
X6.045Y-1.1201
X6.0512Y-1.9134
X6.0551Y-1.8583
X6.0776Y-2.8949
X6.0787Y-2.7638
X6.0811Y-2.178
X6.0925Y-2.1154
X6.1024Y-2.3858
X6.1122Y-2.5709
X6.1181Y-2.8819
X6.1197Y-2.7028
X6.1197Y-3.139
X6.122Y-2.7717
X6.1228Y-1.7004
X6.1311Y-1.6134
X6.1358Y-1.4341
X6.1417Y-2.3386
X6.1717Y-1.613
X6.1815Y-2.2437
X6.1978Y-3.3396
X6.2087Y-1.7972
X6.2087Y-2.6142
X6.2094Y-1.8815
X6.2126Y-1.9488
X6.2268Y-2.1236
X6.2315Y-2.9969
X6.2402Y-1.1201
X6.2496Y-2.8142
X6.2508Y-3.1768
X6.252Y-2.5197
X6.2587Y-2.3571
X6.2654Y-2.1496
X6.2949Y-1.613
X6.3228Y-2.0709
X6.3366Y-1.8071
X6.3492Y-2.2969
X6.377Y-2.6496
X6.3772Y-1.9488
X6.3819Y-2.5276
X6.3843Y-3.3396
X6.4142Y-2.5087
X6.4142Y-2.6307
X6.4173Y-1.811
X6.4173Y-1.9476
X6.4232Y-1.7293
X6.4295Y-2.1496
X6.4343Y-2.2378
X6.4409Y-2.3701
X6.4539Y-1.8807
X6.4543Y-1.9504
X6.4606Y-1.6781
X6.4724Y-2.2421
X6.4783Y-1.811
X6.4823Y-1.9717
X6.4843Y-2.5079
X6.4843Y-2.626
X6.4882Y-1.4843
X6.4965Y-3.0331
X6.5039Y-2.3701
X6.5055Y-1.7701
X6.5187Y-1.5059
X6.5531Y-2.2116
X6.5571Y-2.8854
X6.561Y-2.7579
X6.5625Y-1.4099
X6.5689Y-3.1398
X6.5707Y-3.3396
X6.5748Y-1.9291
X6.5866Y-1.1201
X6.5945Y-1.4341
X6.6063Y-2.3937
X6.6142Y-1.8327
X6.626Y-2.5394
X6.6354Y-1.9933
X6.639Y-1.4799
X6.6421Y-1.5689
X6.6457Y-2.6752
X6.6457Y-2.7598
X6.6545Y-1.9518
X6.6575Y-1.6252
X6.6575Y-1.7736
X6.6587Y-2.9
X6.6732Y-2.2756
X6.6732Y-2.3858
X6.689Y-1.8268
X6.6929Y-2.624
X6.6988Y-1.9469
X6.7071Y-1.4799
X6.7165Y-2.5551
X6.7217Y-1.6776
X6.7362Y-2.3128
X6.7598Y-1.8425
X6.7602Y-2.8606
X6.7621Y-2.1276
X6.7638Y-2.4449
X6.7701Y-1.4433
X6.7713Y-3.0579
X6.7953Y-2.0866
X6.8142Y-2.7681
X6.8228Y-1.9291
X6.8236Y-3.1138
X6.8268Y-1.7087
X6.8268Y-2.2638
X6.8315Y-1.5803
X6.8346Y-1.7831
X6.8465Y-2.0354
X6.8543Y-3.2047
X6.8559Y-2.6004
X6.8702Y-1.1385
X6.8702Y-1.1765
X6.8819Y-2.1378
X6.8839Y-2.4843
X6.9055Y-1.4488
X6.9122Y-2.7685
X6.9528Y-3.1929
X6.9685Y-1.8189
X6.9685Y-2.0
X6.9705Y-2.8846
X6.9882Y-1.2283
X7.0004Y-2.6354
X7.0102Y-2.5094
X7.0157Y-1.4961
X7.0496Y-2.7799
X7.0512Y-1.9094
X7.0622Y-2.6354
X7.1024Y-2.2953
X7.1082Y-1.1385
X7.1087Y-1.176
X7.1339Y-1.3041
X7.1417Y-1.5754
X7.1437Y-1.1211
X7.1437Y-1.8307
X7.1437Y-2.0089
X7.1437Y-2.6747
X7.1437Y-2.8967
X7.1437Y-3.3406
X7.1467Y-2.5276
T2
X5.8248Y-2.1043
X6.2657Y-2.0878
X6.3858Y-1.1929
X6.435Y-1.1929
X6.465Y-2.0886
X6.6043Y-2.2283
X6.828Y-1.2957
T4
X6.9319Y-2.2571
X6.9319Y-2.3071
X6.9319Y-2.3571
X6.9319Y-2.4071
X6.9319Y-2.4571
X6.9819Y-2.2571
X6.9819Y-2.3071
X6.9819Y-2.3571
X6.9819Y-2.4071
X6.9819Y-2.4571
T5
X6.7606Y-2.7256
X6.8106Y-2.8256
X6.8606Y-2.7256
X6.9106Y-2.8256
X6.9606Y-2.7256
X7.0106Y-2.8256
T6
X5.3776Y-3.2205
X5.4776Y-3.2205
X5.5776Y-3.2205
X5.6776Y-3.2205
X5.7776Y-3.2205
X5.8776Y-3.2205
X5.9776Y-3.2205
X6.0776Y-3.2205
T7
X5.311Y-2.7244
X5.311Y-2.9803
X5.4882Y-2.7244
X5.4882Y-2.9803
T3
G00X6.8967Y-1.739
M15
G01X6.94Y-1.739
M16
G05
G00X6.8967Y-2.0791
M15
G01X6.94Y-2.0791
M16
G05
G00X7.0671Y-1.739
M15
G01X7.0986Y-1.739
M16
G05
G00X7.0671Y-2.0791
M15
G01X7.0986Y-2.0791
M16
G05
M30
