%TF.GenerationSoftware,KiCad,Pcbnew,9.0.1*%
%TF.CreationDate,2025-05-06T23:24:01+02:00*%
%TF.ProjectId,reader,72656164-6572-42e6-9b69-6361645f7063,1.0*%
%TF.SameCoordinates,Original*%
%TF.FileFunction,Soldermask,Top*%
%TF.FilePolarity,Negative*%
%FSLAX46Y46*%
G04 Gerber Fmt 4.6, Leading zero omitted, Abs format (unit mm)*
G04 Created by KiCad (PCBNEW 9.0.1) date 2025-05-06 23:24:01*
%MOMM*%
%LPD*%
G01*
G04 APERTURE LIST*
G04 Aperture macros list*
%AMRoundRect*
0 Rectangle with rounded corners*
0 $1 Rounding radius*
0 $2 $3 $4 $5 $6 $7 $8 $9 X,Y pos of 4 corners*
0 Add a 4 corners polygon primitive as box body*
4,1,4,$2,$3,$4,$5,$6,$7,$8,$9,$2,$3,0*
0 Add four circle primitives for the rounded corners*
1,1,$1+$1,$2,$3*
1,1,$1+$1,$4,$5*
1,1,$1+$1,$6,$7*
1,1,$1+$1,$8,$9*
0 Add four rect primitives between the rounded corners*
20,1,$1+$1,$2,$3,$4,$5,0*
20,1,$1+$1,$4,$5,$6,$7,0*
20,1,$1+$1,$6,$7,$8,$9,0*
20,1,$1+$1,$8,$9,$2,$3,0*%
%AMFreePoly0*
4,1,11,0.760000,0.825000,0.380000,0.510000,0.380000,-0.510000,0.760000,-0.825000,0.760000,-1.525000,-0.125000,-1.525000,-0.380000,-1.270000,-0.380000,1.270000,-0.125000,1.525000,0.760000,1.525000,0.760000,0.825000,0.760000,0.825000,$1*%
%AMFreePoly1*
4,1,23,0.500000,-0.750000,0.000000,-0.750000,0.000000,-0.745722,-0.065263,-0.745722,-0.191342,-0.711940,-0.304381,-0.646677,-0.396677,-0.554381,-0.461940,-0.441342,-0.495722,-0.315263,-0.495722,-0.250000,-0.500000,-0.250000,-0.500000,0.250000,-0.495722,0.250000,-0.495722,0.315263,-0.461940,0.441342,-0.396677,0.554381,-0.304381,0.646677,-0.191342,0.711940,-0.065263,0.745722,0.000000,0.745722,
0.000000,0.750000,0.500000,0.750000,0.500000,-0.750000,0.500000,-0.750000,$1*%
%AMFreePoly2*
4,1,23,0.000000,0.745722,0.065263,0.745722,0.191342,0.711940,0.304381,0.646677,0.396677,0.554381,0.461940,0.441342,0.495722,0.315263,0.495722,0.250000,0.500000,0.250000,0.500000,-0.250000,0.495722,-0.250000,0.495722,-0.315263,0.461940,-0.441342,0.396677,-0.554381,0.304381,-0.646677,0.191342,-0.711940,0.065263,-0.745722,0.000000,-0.745722,0.000000,-0.750000,-0.500000,-0.750000,
-0.500000,0.750000,0.000000,0.750000,0.000000,0.745722,0.000000,0.745722,$1*%
G04 Aperture macros list end*
%ADD10RoundRect,0.140000X-0.140000X-0.170000X0.140000X-0.170000X0.140000X0.170000X-0.140000X0.170000X0*%
%ADD11RoundRect,0.140000X-0.170000X0.140000X-0.170000X-0.140000X0.170000X-0.140000X0.170000X0.140000X0*%
%ADD12R,1.200000X1.200000*%
%ADD13RoundRect,0.225000X-0.225000X-0.250000X0.225000X-0.250000X0.225000X0.250000X-0.225000X0.250000X0*%
%ADD14RoundRect,0.135000X0.185000X-0.135000X0.185000X0.135000X-0.185000X0.135000X-0.185000X-0.135000X0*%
%ADD15RoundRect,0.200000X-0.275000X0.200000X-0.275000X-0.200000X0.275000X-0.200000X0.275000X0.200000X0*%
%ADD16RoundRect,0.200000X-0.200000X-0.450000X0.200000X-0.450000X0.200000X0.450000X-0.200000X0.450000X0*%
%ADD17O,0.800000X1.300000*%
%ADD18R,1.200000X0.600000*%
%ADD19RoundRect,0.140000X0.170000X-0.140000X0.170000X0.140000X-0.170000X0.140000X-0.170000X-0.140000X0*%
%ADD20RoundRect,0.150000X0.425000X-0.150000X0.425000X0.150000X-0.425000X0.150000X-0.425000X-0.150000X0*%
%ADD21RoundRect,0.075000X0.500000X-0.075000X0.500000X0.075000X-0.500000X0.075000X-0.500000X-0.075000X0*%
%ADD22O,2.100000X1.000000*%
%ADD23O,1.800000X1.000000*%
%ADD24RoundRect,0.250000X0.650000X-0.325000X0.650000X0.325000X-0.650000X0.325000X-0.650000X-0.325000X0*%
%ADD25RoundRect,0.250000X0.400000X0.750000X-0.400000X0.750000X-0.400000X-0.750000X0.400000X-0.750000X0*%
%ADD26RoundRect,0.250000X0.750000X0.750000X-0.750000X0.750000X-0.750000X-0.750000X0.750000X-0.750000X0*%
%ADD27C,1.300000*%
%ADD28RoundRect,0.200000X0.275000X-0.200000X0.275000X0.200000X-0.275000X0.200000X-0.275000X-0.200000X0*%
%ADD29RoundRect,0.150000X0.825000X0.150000X-0.825000X0.150000X-0.825000X-0.150000X0.825000X-0.150000X0*%
%ADD30R,0.800000X1.000000*%
%ADD31R,1.500000X0.700000*%
%ADD32FreePoly0,90.000000*%
%ADD33FreePoly0,270.000000*%
%ADD34C,2.000000*%
%ADD35RoundRect,0.135000X-0.135000X-0.185000X0.135000X-0.185000X0.135000X0.185000X-0.135000X0.185000X0*%
%ADD36RoundRect,0.140000X0.140000X0.170000X-0.140000X0.170000X-0.140000X-0.170000X0.140000X-0.170000X0*%
%ADD37C,1.000000*%
%ADD38FreePoly1,90.000000*%
%ADD39FreePoly2,90.000000*%
%ADD40RoundRect,0.225000X0.250000X-0.225000X0.250000X0.225000X-0.250000X0.225000X-0.250000X-0.225000X0*%
%ADD41RoundRect,0.225000X-0.250000X0.225000X-0.250000X-0.225000X0.250000X-0.225000X0.250000X0.225000X0*%
%ADD42R,1.200000X1.400000*%
%ADD43RoundRect,0.135000X-0.185000X0.135000X-0.185000X-0.135000X0.185000X-0.135000X0.185000X0.135000X0*%
%ADD44R,1.000000X1.000000*%
%ADD45RoundRect,0.112500X-0.187500X-0.112500X0.187500X-0.112500X0.187500X0.112500X-0.187500X0.112500X0*%
%ADD46RoundRect,0.250000X-1.000000X-0.650000X1.000000X-0.650000X1.000000X0.650000X-1.000000X0.650000X0*%
%ADD47R,1.700000X1.700000*%
%ADD48C,1.700000*%
%ADD49RoundRect,0.218750X-0.256250X0.218750X-0.256250X-0.218750X0.256250X-0.218750X0.256250X0.218750X0*%
%ADD50RoundRect,0.135000X0.135000X0.185000X-0.135000X0.185000X-0.135000X-0.185000X0.135000X-0.185000X0*%
%ADD51RoundRect,0.150000X0.150000X-0.825000X0.150000X0.825000X-0.150000X0.825000X-0.150000X-0.825000X0*%
%ADD52RoundRect,0.150000X-0.512500X-0.150000X0.512500X-0.150000X0.512500X0.150000X-0.512500X0.150000X0*%
%ADD53RoundRect,0.075000X-0.662500X-0.075000X0.662500X-0.075000X0.662500X0.075000X-0.662500X0.075000X0*%
%ADD54RoundRect,0.075000X-0.075000X-0.662500X0.075000X-0.662500X0.075000X0.662500X-0.075000X0.662500X0*%
%ADD55RoundRect,0.250000X-0.510000X-0.510000X0.510000X-0.510000X0.510000X0.510000X-0.510000X0.510000X0*%
%ADD56C,1.520000*%
G04 APERTURE END LIST*
%TO.C,JP1*%
G36*
X170090000Y-33640000D02*
G01*
X171590000Y-33640000D01*
X171590000Y-33340000D01*
X170090000Y-33340000D01*
X170090000Y-33640000D01*
G37*
%TD*%
D10*
%TO.C,C19*%
X156720000Y-67300000D03*
X157680000Y-67300000D03*
%TD*%
D11*
%TO.C,C26*%
X160800000Y-40000000D03*
X160800000Y-40960000D03*
%TD*%
D12*
%TO.C,D4*%
X169800000Y-51300000D03*
X172600000Y-51300000D03*
%TD*%
D13*
%TO.C,C12*%
X156225000Y-64000000D03*
X157775000Y-64000000D03*
%TD*%
D14*
%TO.C,R7*%
X178500000Y-32510000D03*
X178500000Y-31490000D03*
%TD*%
D15*
%TO.C,R8*%
X149550000Y-59917500D03*
X149550000Y-61567500D03*
%TD*%
D16*
%TO.C,SP_Conn1*%
X162200000Y-30300000D03*
D17*
X163450000Y-30300000D03*
%TD*%
D18*
%TO.C,LED1*%
X171494400Y-29876600D03*
X173294400Y-29876600D03*
X173294400Y-28926600D03*
X171494400Y-28926600D03*
%TD*%
D19*
%TO.C,C7*%
X146000000Y-44850000D03*
X146000000Y-43890000D03*
%TD*%
D20*
%TO.C,USB-C1*%
X175150000Y-51690000D03*
X175150000Y-50890000D03*
D21*
X175150000Y-49740000D03*
X175150000Y-48740000D03*
X175150000Y-48240000D03*
X175150000Y-47240000D03*
D20*
X175150000Y-46090000D03*
X175150000Y-45290000D03*
X175150000Y-45290000D03*
X175150000Y-46090000D03*
D21*
X175150000Y-46740000D03*
X175150000Y-47740000D03*
X175150000Y-49240000D03*
X175150000Y-50240000D03*
D20*
X175150000Y-50890000D03*
X175150000Y-51690000D03*
D22*
X175725000Y-52810000D03*
D23*
X179905000Y-52810000D03*
D22*
X175725000Y-44170000D03*
D23*
X179905000Y-44170000D03*
%TD*%
D24*
%TO.C,C9*%
X162200000Y-35900000D03*
X162200000Y-32950000D03*
%TD*%
D25*
%TO.C,R2*%
X175900000Y-39500000D03*
D26*
X177050000Y-35500000D03*
D25*
X178200000Y-39500000D03*
%TD*%
D27*
%TO.C,H2*%
X167170000Y-59230000D03*
%TD*%
D28*
%TO.C,R9*%
X149540000Y-65925000D03*
X149540000Y-64275000D03*
%TD*%
D12*
%TO.C,D1*%
X147096000Y-60926000D03*
X147096000Y-58126000D03*
%TD*%
D29*
%TO.C,U1*%
X171965898Y-41405707D03*
X171965898Y-40135707D03*
X171965898Y-38865707D03*
X171965898Y-37595707D03*
X167015898Y-37595707D03*
X167015898Y-38865707D03*
X167015898Y-40135707D03*
X167015898Y-41405707D03*
%TD*%
D13*
%TO.C,C23*%
X157225000Y-81800000D03*
X158775000Y-81800000D03*
%TD*%
D30*
%TO.C,BOOT1*%
X136110000Y-56350000D03*
X133900000Y-56350000D03*
X136110000Y-63650000D03*
X133900000Y-63650000D03*
D31*
X136760000Y-57750000D03*
X136760000Y-60750000D03*
X136760000Y-62250000D03*
%TD*%
D10*
%TO.C,C20*%
X160640000Y-77000000D03*
X161600000Y-77000000D03*
%TD*%
D18*
%TO.C,LED2*%
X177514200Y-29876600D03*
X179314200Y-29876600D03*
X179314200Y-28926600D03*
X177514200Y-28926600D03*
%TD*%
D32*
%TO.C,L1*%
X157000000Y-58270000D03*
D33*
X157000000Y-55730000D03*
%TD*%
D14*
%TO.C,R11*%
X162000000Y-46510000D03*
X162000000Y-45490000D03*
%TD*%
D34*
%TO.C,RESET1*%
X139400000Y-69200000D03*
X139400000Y-75700000D03*
X134900000Y-69200000D03*
X134900000Y-75700000D03*
%TD*%
D35*
%TO.C,R12*%
X170930000Y-49450000D03*
X171950000Y-49450000D03*
%TD*%
D27*
%TO.C,H3*%
X148100000Y-75300000D03*
%TD*%
D12*
%TO.C,D6*%
X139020000Y-60750000D03*
X141820000Y-60750000D03*
%TD*%
D11*
%TO.C,C13*%
X144000000Y-52400000D03*
X144000000Y-53360000D03*
%TD*%
D15*
%TO.C,R10*%
X138790200Y-56071600D03*
X138790200Y-57721600D03*
%TD*%
D19*
%TO.C,C10*%
X145830000Y-50410000D03*
X145830000Y-49450000D03*
%TD*%
D28*
%TO.C,R5*%
X168770000Y-32880000D03*
X168770000Y-31230000D03*
%TD*%
D36*
%TO.C,C16*%
X139400000Y-77750000D03*
X138440000Y-77750000D03*
%TD*%
D37*
%TO.C,TP1*%
X159150000Y-53030000D03*
%TD*%
D35*
%TO.C,R1*%
X172450000Y-35820000D03*
X173470000Y-35820000D03*
%TD*%
D19*
%TO.C,C4*%
X144000000Y-48370000D03*
X144000000Y-47410000D03*
%TD*%
D38*
%TO.C,JP1*%
X170840000Y-34140000D03*
D39*
X170840000Y-32840000D03*
%TD*%
D37*
%TO.C,TP3*%
X173430000Y-32910000D03*
%TD*%
D40*
%TO.C,C2*%
X147400000Y-42575000D03*
X147400000Y-41025000D03*
%TD*%
D27*
%TO.C,H1*%
X143900153Y-33950000D03*
%TD*%
D41*
%TO.C,C15*%
X162350000Y-55950000D03*
X162350000Y-57500000D03*
%TD*%
D19*
%TO.C,C6*%
X148800000Y-42002671D03*
X148800000Y-41042671D03*
%TD*%
%TO.C,C1*%
X144000000Y-46370000D03*
X144000000Y-45410000D03*
%TD*%
D14*
%TO.C,R6*%
X176500000Y-32520000D03*
X176500000Y-31500000D03*
%TD*%
D35*
%TO.C,R14*%
X153580000Y-38700000D03*
X154600000Y-38700000D03*
%TD*%
D11*
%TO.C,C3*%
X155750000Y-52770000D03*
X155750000Y-53730000D03*
%TD*%
D42*
%TO.C,Y1*%
X140150000Y-45790000D03*
X140150000Y-47990000D03*
X141850000Y-47990000D03*
X141850000Y-45790000D03*
%TD*%
D10*
%TO.C,C18*%
X157320000Y-78400000D03*
X158280000Y-78400000D03*
%TD*%
D43*
%TO.C,R13*%
X172400000Y-43400000D03*
X172400000Y-44420000D03*
%TD*%
D11*
%TO.C,C25*%
X157700000Y-40000000D03*
X157700000Y-40960000D03*
%TD*%
%TO.C,C5*%
X158580000Y-44690000D03*
X158580000Y-45650000D03*
%TD*%
D44*
%TO.C,SWD1*%
X176070000Y-62410000D03*
D37*
X177340000Y-62410000D03*
X176070000Y-61140000D03*
X177340000Y-61140000D03*
X176070000Y-59870000D03*
X177340000Y-59870000D03*
X176070000Y-58600000D03*
X177340000Y-58600000D03*
X176070000Y-57330000D03*
X177340000Y-57330000D03*
%TD*%
D45*
%TO.C,D3*%
X152010000Y-57740000D03*
X154110000Y-57740000D03*
%TD*%
D11*
%TO.C,C11*%
X144000000Y-50440000D03*
X144000000Y-51400000D03*
%TD*%
D46*
%TO.C,D2*%
X157000000Y-61000000D03*
X161000000Y-61000000D03*
%TD*%
D41*
%TO.C,C17*%
X160150000Y-55950000D03*
X160150000Y-57500000D03*
%TD*%
D11*
%TO.C,C24*%
X154590000Y-40000000D03*
X154590000Y-40960000D03*
%TD*%
D10*
%TO.C,C14*%
X152010000Y-60570000D03*
X152970000Y-60570000D03*
%TD*%
D47*
%TO.C,RC522*%
X154370000Y-81800000D03*
D48*
X151830000Y-81800000D03*
X149290000Y-81800000D03*
X146750000Y-81800000D03*
X144210000Y-81800000D03*
X141670000Y-81800000D03*
X139130000Y-81800000D03*
X136590000Y-81800000D03*
%TD*%
D10*
%TO.C,C22*%
X162920000Y-77000000D03*
X163880000Y-77000000D03*
%TD*%
D49*
%TO.C,FB1*%
X142000000Y-51012500D03*
X142000000Y-52587500D03*
%TD*%
D50*
%TO.C,R3*%
X157835000Y-36100000D03*
X156815000Y-36100000D03*
%TD*%
D28*
%TO.C,R17*%
X163850000Y-41575000D03*
X163850000Y-39925000D03*
%TD*%
D51*
%TO.C,U4*%
X156555000Y-74475000D03*
X157825000Y-74475000D03*
X159095000Y-74475000D03*
X160365000Y-74475000D03*
X161635000Y-74475000D03*
X162905000Y-74475000D03*
X164175000Y-74475000D03*
X165445000Y-74475000D03*
X165445000Y-69525000D03*
X164175000Y-69525000D03*
X162905000Y-69525000D03*
X161635000Y-69525000D03*
X160365000Y-69525000D03*
X159095000Y-69525000D03*
X157825000Y-69525000D03*
X156555000Y-69525000D03*
%TD*%
D10*
%TO.C,C27*%
X162910000Y-38690000D03*
X163870000Y-38690000D03*
%TD*%
D52*
%TO.C,U3*%
X151862500Y-62050000D03*
X151862500Y-63000000D03*
X151862500Y-63950000D03*
X154137500Y-63950000D03*
X154137500Y-63000000D03*
X154137500Y-62050000D03*
%TD*%
D53*
%TO.C,U2*%
X147837500Y-45140000D03*
X147837500Y-45640000D03*
X147837500Y-46140000D03*
X147837500Y-46640000D03*
X147837500Y-47140000D03*
X147837500Y-47640000D03*
X147837500Y-48140000D03*
X147837500Y-48640000D03*
X147837500Y-49140000D03*
X147837500Y-49640000D03*
X147837500Y-50140000D03*
X147837500Y-50640000D03*
D54*
X149250000Y-52052500D03*
X149750000Y-52052500D03*
X150250000Y-52052500D03*
X150750000Y-52052500D03*
X151250000Y-52052500D03*
X151750000Y-52052500D03*
X152250000Y-52052500D03*
X152750000Y-52052500D03*
X153250000Y-52052500D03*
X153750000Y-52052500D03*
X154250000Y-52052500D03*
X154750000Y-52052500D03*
D53*
X156162500Y-50640000D03*
X156162500Y-50140000D03*
X156162500Y-49640000D03*
X156162500Y-49140000D03*
X156162500Y-48640000D03*
X156162500Y-48140000D03*
X156162500Y-47640000D03*
X156162500Y-47140000D03*
X156162500Y-46640000D03*
X156162500Y-46140000D03*
X156162500Y-45640000D03*
X156162500Y-45140000D03*
D54*
X154750000Y-43727500D03*
X154250000Y-43727500D03*
X153750000Y-43727500D03*
X153250000Y-43727500D03*
X152750000Y-43727500D03*
X152250000Y-43727500D03*
X151750000Y-43727500D03*
X151250000Y-43727500D03*
X150750000Y-43727500D03*
X150250000Y-43727500D03*
X149750000Y-43727500D03*
X149250000Y-43727500D03*
%TD*%
D37*
%TO.C,TP5*%
X147950000Y-53450000D03*
%TD*%
D35*
%TO.C,R16*%
X159780000Y-38700000D03*
X160800000Y-38700000D03*
%TD*%
D12*
%TO.C,D5*%
X166700000Y-64300000D03*
X166700000Y-67100000D03*
%TD*%
D37*
%TO.C,TP4*%
X164210000Y-53050000D03*
%TD*%
D10*
%TO.C,C21*%
X157320000Y-77000000D03*
X158280000Y-77000000D03*
%TD*%
D35*
%TO.C,R15*%
X156680000Y-38700000D03*
X157700000Y-38700000D03*
%TD*%
%TO.C,R4*%
X167490000Y-29600000D03*
X168510000Y-29600000D03*
%TD*%
D36*
%TO.C,C8*%
X160130000Y-36100000D03*
X159170000Y-36100000D03*
%TD*%
D37*
%TO.C,TP2*%
X167750000Y-56600000D03*
%TD*%
D55*
%TO.C,RJ12*%
X171720000Y-69230000D03*
D56*
X172990000Y-71770000D03*
X174260000Y-69230000D03*
X175530000Y-71770000D03*
X176800000Y-69230000D03*
X178070000Y-71770000D03*
%TD*%
M02*
