%TF.GenerationSoftware,KiCad,Pcbnew,9.0.1*%
%TF.CreationDate,2025-05-06T23:24:01+02:00*%
%TF.ProjectId,reader,72656164-6572-42e6-9b69-6361645f7063,1.0*%
%TF.SameCoordinates,Original*%
%TF.FileFunction,Soldermask,Bot*%
%TF.FilePolarity,Negative*%
%FSLAX46Y46*%
G04 Gerber Fmt 4.6, Leading zero omitted, Abs format (unit mm)*
G04 Created by KiCad (PCBNEW 9.0.1) date 2025-05-06 23:24:01*
%MOMM*%
%LPD*%
G01*
G04 APERTURE LIST*
G04 Aperture macros list*
%AMRoundRect*
0 Rectangle with rounded corners*
0 $1 Rounding radius*
0 $2 $3 $4 $5 $6 $7 $8 $9 X,Y pos of 4 corners*
0 Add a 4 corners polygon primitive as box body*
4,1,4,$2,$3,$4,$5,$6,$7,$8,$9,$2,$3,0*
0 Add four circle primitives for the rounded corners*
1,1,$1+$1,$2,$3*
1,1,$1+$1,$4,$5*
1,1,$1+$1,$6,$7*
1,1,$1+$1,$8,$9*
0 Add four rect primitives between the rounded corners*
20,1,$1+$1,$2,$3,$4,$5,0*
20,1,$1+$1,$4,$5,$6,$7,0*
20,1,$1+$1,$6,$7,$8,$9,0*
20,1,$1+$1,$8,$9,$2,$3,0*%
G04 Aperture macros list end*
%ADD10RoundRect,0.200000X-0.200000X-0.450000X0.200000X-0.450000X0.200000X0.450000X-0.200000X0.450000X0*%
%ADD11O,0.800000X1.300000*%
%ADD12C,0.650000*%
%ADD13O,2.100000X1.000000*%
%ADD14O,1.800000X1.000000*%
%ADD15C,1.300000*%
%ADD16C,0.900000*%
%ADD17C,2.000000*%
%ADD18C,1.000000*%
%ADD19R,1.000000X1.000000*%
%ADD20R,1.700000X1.700000*%
%ADD21C,1.700000*%
%ADD22C,3.250000*%
%ADD23RoundRect,0.250000X-0.510000X-0.510000X0.510000X-0.510000X0.510000X0.510000X-0.510000X0.510000X0*%
%ADD24C,1.520000*%
G04 APERTURE END LIST*
D10*
%TO.C,SP_Conn1*%
X162200000Y-30300000D03*
D11*
X163450000Y-30300000D03*
%TD*%
D12*
%TO.C,USB-C1*%
X176225000Y-51380000D03*
X176225000Y-45600000D03*
D13*
X175725000Y-52810000D03*
D14*
X179905000Y-52810000D03*
D13*
X175725000Y-44170000D03*
D14*
X179905000Y-44170000D03*
%TD*%
D15*
%TO.C,H2*%
X167170000Y-59230000D03*
%TD*%
D16*
%TO.C,BOOT1*%
X135000000Y-58500000D03*
X135000000Y-61500000D03*
%TD*%
D17*
%TO.C,RESET1*%
X139400000Y-69200000D03*
X139400000Y-75700000D03*
X134900000Y-69200000D03*
X134900000Y-75700000D03*
%TD*%
D15*
%TO.C,H3*%
X148100000Y-75300000D03*
%TD*%
D18*
%TO.C,TP1*%
X159150000Y-53030000D03*
%TD*%
%TO.C,TP3*%
X173430000Y-32910000D03*
%TD*%
D15*
%TO.C,H1*%
X143900153Y-33950000D03*
%TD*%
D19*
%TO.C,SWD1*%
X176070000Y-62410000D03*
D18*
X177340000Y-62410000D03*
X176070000Y-61140000D03*
X177340000Y-61140000D03*
X176070000Y-59870000D03*
X177340000Y-59870000D03*
X176070000Y-58600000D03*
X177340000Y-58600000D03*
X176070000Y-57330000D03*
X177340000Y-57330000D03*
%TD*%
D20*
%TO.C,RC522*%
X154370000Y-81800000D03*
D21*
X151830000Y-81800000D03*
X149290000Y-81800000D03*
X146750000Y-81800000D03*
X144210000Y-81800000D03*
X141670000Y-81800000D03*
X139130000Y-81800000D03*
X136590000Y-81800000D03*
%TD*%
D18*
%TO.C,TP5*%
X147950000Y-53450000D03*
%TD*%
%TO.C,TP4*%
X164210000Y-53050000D03*
%TD*%
%TO.C,TP2*%
X167750000Y-56600000D03*
%TD*%
D22*
%TO.C,RJ12*%
X169820000Y-78120000D03*
X179980000Y-78120000D03*
D23*
X171720000Y-69230000D03*
D24*
X172990000Y-71770000D03*
X174260000Y-69230000D03*
X175530000Y-71770000D03*
X176800000Y-69230000D03*
X178070000Y-71770000D03*
%TD*%
M02*
