%TF.GenerationSoftware,KiCad,Pcbnew,9.0.1*%
%TF.CreationDate,2025-05-06T23:24:01+02:00*%
%TF.ProjectId,reader,72656164-6572-42e6-9b69-6361645f7063,1.0*%
%TF.SameCoordinates,Original*%
%TF.FileFunction,Legend,Bot*%
%TF.FilePolarity,Positive*%
%FSLAX46Y46*%
G04 Gerber Fmt 4.6, Leading zero omitted, Abs format (unit mm)*
G04 Created by KiCad (PCBNEW 9.0.1) date 2025-05-06 23:24:01*
%MOMM*%
%LPD*%
G01*
G04 APERTURE LIST*
G04 Aperture macros list*
%AMRoundRect*
0 Rectangle with rounded corners*
0 $1 Rounding radius*
0 $2 $3 $4 $5 $6 $7 $8 $9 X,Y pos of 4 corners*
0 Add a 4 corners polygon primitive as box body*
4,1,4,$2,$3,$4,$5,$6,$7,$8,$9,$2,$3,0*
0 Add four circle primitives for the rounded corners*
1,1,$1+$1,$2,$3*
1,1,$1+$1,$4,$5*
1,1,$1+$1,$6,$7*
1,1,$1+$1,$8,$9*
0 Add four rect primitives between the rounded corners*
20,1,$1+$1,$2,$3,$4,$5,0*
20,1,$1+$1,$4,$5,$6,$7,0*
20,1,$1+$1,$6,$7,$8,$9,0*
20,1,$1+$1,$8,$9,$2,$3,0*%
G04 Aperture macros list end*
%ADD10C,0.100000*%
%ADD11C,0.500000*%
%ADD12C,0.200000*%
%ADD13C,0.000000*%
%ADD14RoundRect,0.200000X-0.200000X-0.450000X0.200000X-0.450000X0.200000X0.450000X-0.200000X0.450000X0*%
%ADD15O,0.800000X1.300000*%
%ADD16C,0.650000*%
%ADD17O,2.100000X1.000000*%
%ADD18O,1.800000X1.000000*%
%ADD19C,1.300000*%
%ADD20C,0.900000*%
%ADD21C,2.000000*%
%ADD22C,1.000000*%
%ADD23R,1.000000X1.000000*%
%ADD24R,1.700000X1.700000*%
%ADD25C,1.700000*%
%ADD26C,3.250000*%
%ADD27RoundRect,0.250000X-0.510000X-0.510000X0.510000X-0.510000X0.510000X0.510000X-0.510000X0.510000X0*%
%ADD28C,1.520000*%
G04 APERTURE END LIST*
D10*
X145150000Y-33350000D02*
X145650000Y-33350000D01*
X145650000Y-35660000D01*
X145150000Y-35660000D01*
X145150000Y-33350000D01*
G36*
X145150000Y-33350000D02*
G01*
X145650000Y-33350000D01*
X145650000Y-35660000D01*
X145150000Y-35660000D01*
X145150000Y-33350000D01*
G37*
X155760000Y-30720000D02*
X156020000Y-30720000D01*
X156020000Y-35570000D01*
X155760000Y-35570000D01*
X155760000Y-30720000D01*
G36*
X155760000Y-30720000D02*
G01*
X156020000Y-30720000D01*
X156020000Y-35570000D01*
X155760000Y-35570000D01*
X155760000Y-30720000D01*
G37*
X145250000Y-30720000D02*
X156020000Y-30720000D01*
X156020000Y-31200000D01*
X145250000Y-31200000D01*
X145250000Y-30720000D01*
G36*
X145250000Y-30720000D02*
G01*
X156020000Y-30720000D01*
X156020000Y-31200000D01*
X145250000Y-31200000D01*
X145250000Y-30720000D01*
G37*
X155610000Y-33350000D02*
X156110000Y-33350000D01*
X156110000Y-35660000D01*
X155610000Y-35660000D01*
X155610000Y-33350000D01*
G36*
X155610000Y-33350000D02*
G01*
X156110000Y-33350000D01*
X156110000Y-35660000D01*
X155610000Y-35660000D01*
X155610000Y-33350000D01*
G37*
D11*
X177697500Y-82675000D02*
X179547500Y-82675000D01*
X179547500Y-84525000D01*
X177697500Y-84525000D01*
X177697500Y-82675000D01*
G36*
X177697500Y-82675000D02*
G01*
X179547500Y-82675000D01*
X179547500Y-84525000D01*
X177697500Y-84525000D01*
X177697500Y-82675000D01*
G37*
D10*
X145270000Y-35230000D02*
X156040000Y-35230000D01*
X156040000Y-35710000D01*
X145270000Y-35710000D01*
X145270000Y-35230000D01*
G36*
X145270000Y-35230000D02*
G01*
X156040000Y-35230000D01*
X156040000Y-35710000D01*
X145270000Y-35710000D01*
X145270000Y-35230000D01*
G37*
D11*
X145270000Y-30720000D02*
X156020000Y-30720000D01*
X156020000Y-35720000D01*
X145270000Y-35720000D01*
X145270000Y-30720000D01*
X134500000Y-29500000D02*
X142500000Y-29500000D01*
X142500000Y-37500000D01*
X134500000Y-37500000D01*
X134500000Y-29500000D01*
G36*
X134500000Y-29500000D02*
G01*
X142500000Y-29500000D01*
X142500000Y-37500000D01*
X134500000Y-37500000D01*
X134500000Y-29500000D01*
G37*
D10*
X145270000Y-32600000D02*
X156070000Y-32600000D01*
X156070000Y-33570000D01*
X145270000Y-33570000D01*
X145270000Y-32600000D01*
G36*
X145270000Y-32600000D02*
G01*
X156070000Y-32600000D01*
X156070000Y-33570000D01*
X145270000Y-33570000D01*
X145270000Y-32600000D01*
G37*
D11*
X171400000Y-82675000D02*
X176700000Y-82675000D01*
X176700000Y-84525000D01*
X171400000Y-84525000D01*
X171400000Y-82675000D01*
D12*
G36*
X147204811Y-33952024D02*
G01*
X147229480Y-33976692D01*
X147264933Y-34047599D01*
X147306904Y-34215480D01*
X147306904Y-34428956D01*
X147264933Y-34596837D01*
X147229480Y-34667743D01*
X147204811Y-34692413D01*
X147145202Y-34722219D01*
X147097178Y-34722219D01*
X147037568Y-34692414D01*
X147012901Y-34667746D01*
X146977446Y-34596837D01*
X146935476Y-34428956D01*
X146935476Y-34215481D01*
X146977446Y-34047599D01*
X147012900Y-33976692D01*
X147037568Y-33952023D01*
X147097178Y-33922219D01*
X147145202Y-33922219D01*
X147204811Y-33952024D01*
G37*
G36*
X151109573Y-33952024D02*
G01*
X151134242Y-33976692D01*
X151169695Y-34047599D01*
X151211666Y-34215480D01*
X151211666Y-34428956D01*
X151169695Y-34596837D01*
X151134242Y-34667743D01*
X151109573Y-34692413D01*
X151049964Y-34722219D01*
X151001940Y-34722219D01*
X150942330Y-34692414D01*
X150917663Y-34667746D01*
X150882208Y-34596837D01*
X150840238Y-34428956D01*
X150840238Y-34215481D01*
X150882208Y-34047599D01*
X150917662Y-33976692D01*
X150942330Y-33952023D01*
X151001940Y-33922219D01*
X151049964Y-33922219D01*
X151109573Y-33952024D01*
G37*
G36*
X153776240Y-33952024D02*
G01*
X153800909Y-33976692D01*
X153836362Y-34047599D01*
X153878333Y-34215480D01*
X153878333Y-34428956D01*
X153836362Y-34596837D01*
X153800909Y-34667743D01*
X153776240Y-34692413D01*
X153716631Y-34722219D01*
X153668607Y-34722219D01*
X153608997Y-34692414D01*
X153584330Y-34667746D01*
X153548875Y-34596837D01*
X153506905Y-34428956D01*
X153506905Y-34215481D01*
X153548875Y-34047599D01*
X153584329Y-33976692D01*
X153608997Y-33952023D01*
X153668607Y-33922219D01*
X153716631Y-33922219D01*
X153776240Y-33952024D01*
G37*
G36*
X155617229Y-35271425D02*
G01*
X145626286Y-35271425D01*
X145626286Y-34469376D01*
X145737397Y-34469376D01*
X145737397Y-34508394D01*
X145752329Y-34544442D01*
X145779919Y-34572032D01*
X145815967Y-34586964D01*
X145835476Y-34588885D01*
X145878333Y-34588885D01*
X145878333Y-34822219D01*
X145880254Y-34841728D01*
X145895186Y-34877776D01*
X145922776Y-34905366D01*
X145958824Y-34920298D01*
X145997842Y-34920298D01*
X146033890Y-34905366D01*
X146061480Y-34877776D01*
X146076412Y-34841728D01*
X146078333Y-34822219D01*
X146078333Y-34588885D01*
X146454523Y-34588885D01*
X146464396Y-34587912D01*
X146467030Y-34588100D01*
X146468931Y-34587466D01*
X146474032Y-34586964D01*
X146488844Y-34580828D01*
X146504046Y-34575761D01*
X146506759Y-34573407D01*
X146510080Y-34572032D01*
X146521418Y-34560693D01*
X146533522Y-34550196D01*
X146535128Y-34546983D01*
X146537670Y-34544442D01*
X146543806Y-34529627D01*
X146550972Y-34515297D01*
X146551226Y-34511714D01*
X146552602Y-34508394D01*
X146552602Y-34492361D01*
X146553738Y-34476377D01*
X146552602Y-34471381D01*
X146552602Y-34469376D01*
X146551590Y-34466934D01*
X146549391Y-34457262D01*
X146464694Y-34203171D01*
X146735476Y-34203171D01*
X146735476Y-34441266D01*
X146735811Y-34444668D01*
X146735594Y-34446127D01*
X146736673Y-34453424D01*
X146737397Y-34460775D01*
X146737961Y-34462138D01*
X146738462Y-34465520D01*
X146786081Y-34655995D01*
X146786594Y-34657432D01*
X146786646Y-34658155D01*
X146789754Y-34666279D01*
X146792676Y-34674456D01*
X146793106Y-34675036D01*
X146793652Y-34676463D01*
X146841271Y-34771701D01*
X146846554Y-34780093D01*
X146847566Y-34782537D01*
X146849822Y-34785286D01*
X146851714Y-34788291D01*
X146853708Y-34790020D01*
X146860003Y-34797690D01*
X146907621Y-34845310D01*
X146915289Y-34851603D01*
X146917021Y-34853600D01*
X146920029Y-34855493D01*
X146922775Y-34857747D01*
X146925215Y-34858757D01*
X146933612Y-34864043D01*
X147028849Y-34911662D01*
X147047158Y-34918668D01*
X147050741Y-34918922D01*
X147054062Y-34920298D01*
X147073571Y-34922219D01*
X147168809Y-34922219D01*
X147188318Y-34920298D01*
X147191638Y-34918922D01*
X147195222Y-34918668D01*
X147213530Y-34911662D01*
X147308768Y-34864043D01*
X147317163Y-34858758D01*
X147319605Y-34857747D01*
X147322352Y-34855491D01*
X147325358Y-34853600D01*
X147327088Y-34851605D01*
X147334758Y-34845310D01*
X147382377Y-34797690D01*
X147388669Y-34790023D01*
X147390666Y-34788292D01*
X147392559Y-34785284D01*
X147394814Y-34782537D01*
X147395825Y-34780095D01*
X147401109Y-34771701D01*
X147448728Y-34676464D01*
X147449274Y-34675035D01*
X147449704Y-34674456D01*
X147452625Y-34666279D01*
X147455734Y-34658155D01*
X147455785Y-34657434D01*
X147456299Y-34655996D01*
X147503918Y-34465520D01*
X147504418Y-34462138D01*
X147504983Y-34460775D01*
X147505706Y-34453424D01*
X147506786Y-34446127D01*
X147506568Y-34444668D01*
X147506904Y-34441266D01*
X147506904Y-34203171D01*
X147506568Y-34199768D01*
X147506786Y-34198310D01*
X147505706Y-34191012D01*
X147504983Y-34183662D01*
X147504418Y-34182298D01*
X147503918Y-34178917D01*
X147456299Y-33988441D01*
X147455785Y-33987002D01*
X147455734Y-33986282D01*
X147452625Y-33978157D01*
X147449704Y-33969981D01*
X147449274Y-33969401D01*
X147448728Y-33967973D01*
X147401109Y-33872736D01*
X147395823Y-33864339D01*
X147394813Y-33861899D01*
X147392559Y-33859153D01*
X147390666Y-33856145D01*
X147388668Y-33854412D01*
X147382376Y-33846746D01*
X147334758Y-33799127D01*
X147327087Y-33792832D01*
X147325358Y-33790838D01*
X147322350Y-33788944D01*
X147319604Y-33786691D01*
X147317164Y-33785680D01*
X147308768Y-33780395D01*
X147296968Y-33774495D01*
X147592619Y-33774495D01*
X147600191Y-33812772D01*
X147609414Y-33830070D01*
X148466556Y-35115784D01*
X148478976Y-35130951D01*
X148511396Y-35152662D01*
X148549657Y-35160314D01*
X148587933Y-35152743D01*
X148620398Y-35131099D01*
X148642109Y-35098679D01*
X148649761Y-35060419D01*
X148642190Y-35022142D01*
X148632966Y-35004844D01*
X148225502Y-34393647D01*
X148735476Y-34393647D01*
X148735476Y-34631742D01*
X148737397Y-34651251D01*
X148738772Y-34654571D01*
X148739027Y-34658155D01*
X148746033Y-34676463D01*
X148793652Y-34771701D01*
X148798935Y-34780093D01*
X148799947Y-34782537D01*
X148802203Y-34785286D01*
X148804095Y-34788291D01*
X148806089Y-34790020D01*
X148812384Y-34797690D01*
X148860002Y-34845310D01*
X148867670Y-34851603D01*
X148869402Y-34853600D01*
X148872410Y-34855493D01*
X148875156Y-34857747D01*
X148877596Y-34858757D01*
X148885993Y-34864043D01*
X148981230Y-34911662D01*
X148999539Y-34918668D01*
X149003122Y-34918922D01*
X149006443Y-34920298D01*
X149025952Y-34922219D01*
X149264047Y-34922219D01*
X149283556Y-34920298D01*
X149286876Y-34918922D01*
X149290460Y-34918668D01*
X149308768Y-34911662D01*
X149404006Y-34864043D01*
X149412401Y-34858758D01*
X149414843Y-34857747D01*
X149417590Y-34855491D01*
X149420596Y-34853600D01*
X149422326Y-34851605D01*
X149429996Y-34845310D01*
X149477615Y-34797690D01*
X149490052Y-34782537D01*
X149504983Y-34746488D01*
X149504982Y-34707470D01*
X149490051Y-34671422D01*
X149462460Y-34643832D01*
X149426412Y-34628901D01*
X149387394Y-34628902D01*
X149351346Y-34643833D01*
X149336192Y-34656270D01*
X149300049Y-34692413D01*
X149240440Y-34722219D01*
X149049559Y-34722219D01*
X148989949Y-34692414D01*
X148965282Y-34667746D01*
X148935476Y-34608134D01*
X148935476Y-34417254D01*
X148965281Y-34357644D01*
X148989949Y-34332975D01*
X149049559Y-34303171D01*
X149240440Y-34303171D01*
X149300049Y-34332976D01*
X149336193Y-34369119D01*
X149351346Y-34381556D01*
X149356000Y-34383483D01*
X149359896Y-34386671D01*
X149373889Y-34390893D01*
X149387395Y-34396487D01*
X149392429Y-34396487D01*
X149397251Y-34397942D01*
X149411802Y-34396487D01*
X149426413Y-34396487D01*
X149431062Y-34394561D01*
X149436075Y-34394060D01*
X149448958Y-34387148D01*
X149462461Y-34381556D01*
X149466021Y-34377995D01*
X149470459Y-34375615D01*
X149479714Y-34364302D01*
X149490051Y-34353966D01*
X149491978Y-34349313D01*
X149495166Y-34345417D01*
X149499388Y-34331422D01*
X149504982Y-34317918D01*
X149504982Y-34312884D01*
X149506437Y-34308062D01*
X149506408Y-34288459D01*
X149478832Y-34012695D01*
X149687857Y-34012695D01*
X149687857Y-34107933D01*
X149688829Y-34117806D01*
X149688642Y-34120440D01*
X149689429Y-34123903D01*
X149689778Y-34127442D01*
X149690789Y-34129884D01*
X149692989Y-34139556D01*
X149740608Y-34282412D01*
X149748599Y-34300313D01*
X149750954Y-34303028D01*
X149752329Y-34306347D01*
X149764765Y-34321501D01*
X150165482Y-34722219D01*
X149787857Y-34722219D01*
X149768348Y-34724140D01*
X149732300Y-34739072D01*
X149704710Y-34766662D01*
X149689778Y-34802710D01*
X149689778Y-34841728D01*
X149704710Y-34877776D01*
X149732300Y-34905366D01*
X149768348Y-34920298D01*
X149787857Y-34922219D01*
X150406904Y-34922219D01*
X150426413Y-34920298D01*
X150462461Y-34905366D01*
X150490051Y-34877776D01*
X150504983Y-34841728D01*
X150504983Y-34802710D01*
X150490051Y-34766662D01*
X150490050Y-34766661D01*
X150477615Y-34751508D01*
X149929279Y-34203171D01*
X150640238Y-34203171D01*
X150640238Y-34441266D01*
X150640573Y-34444668D01*
X150640356Y-34446127D01*
X150641435Y-34453424D01*
X150642159Y-34460775D01*
X150642723Y-34462138D01*
X150643224Y-34465520D01*
X150690843Y-34655995D01*
X150691356Y-34657432D01*
X150691408Y-34658155D01*
X150694516Y-34666279D01*
X150697438Y-34674456D01*
X150697868Y-34675036D01*
X150698414Y-34676463D01*
X150746033Y-34771701D01*
X150751316Y-34780093D01*
X150752328Y-34782537D01*
X150754584Y-34785286D01*
X150756476Y-34788291D01*
X150758470Y-34790020D01*
X150764765Y-34797690D01*
X150812383Y-34845310D01*
X150820051Y-34851603D01*
X150821783Y-34853600D01*
X150824791Y-34855493D01*
X150827537Y-34857747D01*
X150829977Y-34858757D01*
X150838374Y-34864043D01*
X150933611Y-34911662D01*
X150951920Y-34918668D01*
X150955503Y-34918922D01*
X150958824Y-34920298D01*
X150978333Y-34922219D01*
X151073571Y-34922219D01*
X151093080Y-34920298D01*
X151096400Y-34918922D01*
X151099984Y-34918668D01*
X151118292Y-34911662D01*
X151213530Y-34864043D01*
X151221925Y-34858758D01*
X151224367Y-34857747D01*
X151227114Y-34855491D01*
X151230120Y-34853600D01*
X151231850Y-34851605D01*
X151239520Y-34845310D01*
X151287139Y-34797690D01*
X151293431Y-34790023D01*
X151295428Y-34788292D01*
X151297321Y-34785284D01*
X151299576Y-34782537D01*
X151300587Y-34780095D01*
X151305871Y-34771701D01*
X151353490Y-34676464D01*
X151354036Y-34675035D01*
X151354466Y-34674456D01*
X151357387Y-34666279D01*
X151360496Y-34658155D01*
X151360547Y-34657434D01*
X151361061Y-34655996D01*
X151408680Y-34465520D01*
X151409180Y-34462138D01*
X151409745Y-34460775D01*
X151410468Y-34453424D01*
X151411548Y-34446127D01*
X151411330Y-34444668D01*
X151411666Y-34441266D01*
X151411666Y-34203171D01*
X151411330Y-34199768D01*
X151411548Y-34198310D01*
X151410468Y-34191012D01*
X151409745Y-34183662D01*
X151409180Y-34182298D01*
X151408680Y-34178917D01*
X151367124Y-34012695D01*
X151592619Y-34012695D01*
X151592619Y-34107933D01*
X151593591Y-34117806D01*
X151593404Y-34120440D01*
X151594191Y-34123903D01*
X151594540Y-34127442D01*
X151595551Y-34129884D01*
X151597751Y-34139556D01*
X151645370Y-34282412D01*
X151653361Y-34300313D01*
X151655716Y-34303028D01*
X151657091Y-34306347D01*
X151669527Y-34321501D01*
X152070244Y-34722219D01*
X151692619Y-34722219D01*
X151673110Y-34724140D01*
X151637062Y-34739072D01*
X151609472Y-34766662D01*
X151594540Y-34802710D01*
X151594540Y-34841728D01*
X151609472Y-34877776D01*
X151637062Y-34905366D01*
X151673110Y-34920298D01*
X151692619Y-34922219D01*
X152311666Y-34922219D01*
X152331175Y-34920298D01*
X152367223Y-34905366D01*
X152394813Y-34877776D01*
X152409745Y-34841728D01*
X152409745Y-34802710D01*
X152394813Y-34766662D01*
X152394812Y-34766661D01*
X152382377Y-34751508D01*
X151834041Y-34203171D01*
X153306905Y-34203171D01*
X153306905Y-34441266D01*
X153307240Y-34444668D01*
X153307023Y-34446127D01*
X153308102Y-34453424D01*
X153308826Y-34460775D01*
X153309390Y-34462138D01*
X153309891Y-34465520D01*
X153357510Y-34655995D01*
X153358023Y-34657432D01*
X153358075Y-34658155D01*
X153361183Y-34666279D01*
X153364105Y-34674456D01*
X153364535Y-34675036D01*
X153365081Y-34676463D01*
X153412700Y-34771701D01*
X153417983Y-34780093D01*
X153418995Y-34782537D01*
X153421251Y-34785286D01*
X153423143Y-34788291D01*
X153425137Y-34790020D01*
X153431432Y-34797690D01*
X153479050Y-34845310D01*
X153486718Y-34851603D01*
X153488450Y-34853600D01*
X153491458Y-34855493D01*
X153494204Y-34857747D01*
X153496644Y-34858757D01*
X153505041Y-34864043D01*
X153600278Y-34911662D01*
X153618587Y-34918668D01*
X153622170Y-34918922D01*
X153625491Y-34920298D01*
X153645000Y-34922219D01*
X153740238Y-34922219D01*
X153759747Y-34920298D01*
X153763067Y-34918922D01*
X153766651Y-34918668D01*
X153784959Y-34911662D01*
X153880197Y-34864043D01*
X153888592Y-34858758D01*
X153891034Y-34857747D01*
X153893781Y-34855491D01*
X153896787Y-34853600D01*
X153898517Y-34851605D01*
X153906187Y-34845310D01*
X153953806Y-34797690D01*
X153960098Y-34790023D01*
X153962095Y-34788292D01*
X153963988Y-34785284D01*
X153966243Y-34782537D01*
X153967254Y-34780095D01*
X153972538Y-34771701D01*
X153980843Y-34755091D01*
X154261206Y-34755091D01*
X154261206Y-34794109D01*
X154267669Y-34809712D01*
X154276138Y-34830158D01*
X154276142Y-34830162D01*
X154288574Y-34845311D01*
X154336193Y-34892929D01*
X154351346Y-34905366D01*
X154360349Y-34909095D01*
X154387395Y-34920298D01*
X154426413Y-34920298D01*
X154462461Y-34905366D01*
X154477615Y-34892930D01*
X154525233Y-34845311D01*
X154537670Y-34830158D01*
X154544422Y-34813856D01*
X154549039Y-34802710D01*
X154737397Y-34802710D01*
X154737397Y-34841728D01*
X154752329Y-34877776D01*
X154779919Y-34905366D01*
X154815967Y-34920298D01*
X154835476Y-34922219D01*
X155406904Y-34922219D01*
X155426413Y-34920298D01*
X155462461Y-34905366D01*
X155490051Y-34877776D01*
X155504983Y-34841728D01*
X155504983Y-34802710D01*
X155490051Y-34766662D01*
X155462461Y-34739072D01*
X155426413Y-34724140D01*
X155406904Y-34722219D01*
X155221190Y-34722219D01*
X155221190Y-34111260D01*
X155240955Y-34131025D01*
X155248621Y-34137316D01*
X155250354Y-34139314D01*
X155253365Y-34141209D01*
X155256109Y-34143461D01*
X155258546Y-34144470D01*
X155266945Y-34149757D01*
X155362182Y-34197376D01*
X155380491Y-34204382D01*
X155419411Y-34207148D01*
X155456427Y-34194809D01*
X155485904Y-34169244D01*
X155503353Y-34134346D01*
X155506118Y-34095426D01*
X155493780Y-34058410D01*
X155468215Y-34028933D01*
X155451625Y-34018490D01*
X155370903Y-33978129D01*
X155294139Y-33901365D01*
X155204395Y-33766749D01*
X155204350Y-33766694D01*
X155204337Y-33766662D01*
X155204263Y-33766588D01*
X155191975Y-33751582D01*
X155183746Y-33746071D01*
X155176747Y-33739072D01*
X155167695Y-33735322D01*
X155159555Y-33729871D01*
X155149847Y-33727929D01*
X155140699Y-33724140D01*
X155130900Y-33724140D01*
X155121295Y-33722219D01*
X155111584Y-33724140D01*
X155101681Y-33724140D01*
X155092628Y-33727889D01*
X155083018Y-33729791D01*
X155074779Y-33735283D01*
X155065633Y-33739072D01*
X155058706Y-33745998D01*
X155050553Y-33751434D01*
X155045042Y-33759662D01*
X155038043Y-33766662D01*
X155034293Y-33775713D01*
X155028842Y-33783854D01*
X155026900Y-33793561D01*
X155023111Y-33802710D01*
X155021210Y-33822012D01*
X155021190Y-33822114D01*
X155021196Y-33822148D01*
X155021190Y-33822219D01*
X155021190Y-34722219D01*
X154835476Y-34722219D01*
X154815967Y-34724140D01*
X154779919Y-34739072D01*
X154752329Y-34766662D01*
X154737397Y-34802710D01*
X154549039Y-34802710D01*
X154552601Y-34794110D01*
X154552602Y-34755092D01*
X154537671Y-34719043D01*
X154525234Y-34703890D01*
X154477615Y-34656270D01*
X154462462Y-34643833D01*
X154447530Y-34637648D01*
X154426413Y-34628901D01*
X154387395Y-34628901D01*
X154376837Y-34633274D01*
X154351347Y-34643832D01*
X154351346Y-34643833D01*
X154336192Y-34656270D01*
X154288574Y-34703890D01*
X154276137Y-34719043D01*
X154266124Y-34743219D01*
X154261206Y-34755091D01*
X153980843Y-34755091D01*
X154020157Y-34676464D01*
X154020703Y-34675035D01*
X154021133Y-34674456D01*
X154024054Y-34666279D01*
X154027163Y-34658155D01*
X154027214Y-34657434D01*
X154027728Y-34655996D01*
X154075347Y-34465520D01*
X154075847Y-34462138D01*
X154076412Y-34460775D01*
X154077135Y-34453424D01*
X154078215Y-34446127D01*
X154077997Y-34444668D01*
X154078333Y-34441266D01*
X154078333Y-34203171D01*
X154077997Y-34199768D01*
X154078215Y-34198310D01*
X154077135Y-34191012D01*
X154076412Y-34183662D01*
X154075847Y-34182298D01*
X154075347Y-34178917D01*
X154027728Y-33988441D01*
X154027214Y-33987002D01*
X154027163Y-33986282D01*
X154024054Y-33978157D01*
X154021133Y-33969981D01*
X154020703Y-33969401D01*
X154020157Y-33967973D01*
X153972538Y-33872736D01*
X153967252Y-33864339D01*
X153966242Y-33861899D01*
X153963988Y-33859153D01*
X153962095Y-33856145D01*
X153960097Y-33854412D01*
X153953805Y-33846746D01*
X153906187Y-33799127D01*
X153898516Y-33792832D01*
X153896787Y-33790838D01*
X153893779Y-33788944D01*
X153891033Y-33786691D01*
X153888593Y-33785680D01*
X153880197Y-33780395D01*
X153784959Y-33732776D01*
X153766651Y-33725770D01*
X153763067Y-33725515D01*
X153759747Y-33724140D01*
X153740238Y-33722219D01*
X153645000Y-33722219D01*
X153625491Y-33724140D01*
X153622170Y-33725515D01*
X153618587Y-33725770D01*
X153600278Y-33732776D01*
X153505041Y-33780395D01*
X153496644Y-33785680D01*
X153494204Y-33786691D01*
X153491458Y-33788944D01*
X153488450Y-33790838D01*
X153486717Y-33792835D01*
X153479051Y-33799128D01*
X153431432Y-33846746D01*
X153425137Y-33854416D01*
X153423143Y-33856146D01*
X153421249Y-33859153D01*
X153418996Y-33861900D01*
X153417985Y-33864339D01*
X153412700Y-33872736D01*
X153365081Y-33967974D01*
X153364535Y-33969400D01*
X153364105Y-33969981D01*
X153361183Y-33978157D01*
X153358075Y-33986282D01*
X153358023Y-33987004D01*
X153357510Y-33988442D01*
X153309891Y-34178917D01*
X153309390Y-34182298D01*
X153308826Y-34183662D01*
X153308102Y-34191012D01*
X153307023Y-34198310D01*
X153307240Y-34199768D01*
X153306905Y-34203171D01*
X151834041Y-34203171D01*
X151827640Y-34196770D01*
X151792619Y-34091706D01*
X151792619Y-34036302D01*
X151822424Y-33976692D01*
X151847092Y-33952023D01*
X151906702Y-33922219D01*
X152097583Y-33922219D01*
X152157192Y-33952024D01*
X152193336Y-33988167D01*
X152208489Y-34000604D01*
X152244538Y-34015535D01*
X152283556Y-34015535D01*
X152319604Y-34000604D01*
X152347194Y-33973014D01*
X152362125Y-33936966D01*
X152362125Y-33897948D01*
X152347194Y-33861899D01*
X152334757Y-33846746D01*
X152287139Y-33799127D01*
X152279468Y-33792832D01*
X152277739Y-33790838D01*
X152274731Y-33788944D01*
X152271985Y-33786691D01*
X152269545Y-33785680D01*
X152261149Y-33780395D01*
X152165911Y-33732776D01*
X152147603Y-33725770D01*
X152144019Y-33725515D01*
X152140699Y-33724140D01*
X152121190Y-33722219D01*
X151883095Y-33722219D01*
X151863586Y-33724140D01*
X151860265Y-33725515D01*
X151856682Y-33725770D01*
X151838373Y-33732776D01*
X151743136Y-33780395D01*
X151734739Y-33785680D01*
X151732299Y-33786691D01*
X151729553Y-33788944D01*
X151726545Y-33790838D01*
X151724812Y-33792835D01*
X151717146Y-33799128D01*
X151669527Y-33846746D01*
X151663232Y-33854416D01*
X151661238Y-33856146D01*
X151659344Y-33859153D01*
X151657091Y-33861900D01*
X151656080Y-33864339D01*
X151650795Y-33872736D01*
X151603176Y-33967974D01*
X151596170Y-33986282D01*
X151595915Y-33989865D01*
X151594540Y-33993186D01*
X151592619Y-34012695D01*
X151367124Y-34012695D01*
X151361061Y-33988441D01*
X151360547Y-33987002D01*
X151360496Y-33986282D01*
X151357387Y-33978157D01*
X151354466Y-33969981D01*
X151354036Y-33969401D01*
X151353490Y-33967973D01*
X151305871Y-33872736D01*
X151300585Y-33864339D01*
X151299575Y-33861899D01*
X151297321Y-33859153D01*
X151295428Y-33856145D01*
X151293430Y-33854412D01*
X151287138Y-33846746D01*
X151239520Y-33799127D01*
X151231849Y-33792832D01*
X151230120Y-33790838D01*
X151227112Y-33788944D01*
X151224366Y-33786691D01*
X151221926Y-33785680D01*
X151213530Y-33780395D01*
X151118292Y-33732776D01*
X151099984Y-33725770D01*
X151096400Y-33725515D01*
X151093080Y-33724140D01*
X151073571Y-33722219D01*
X150978333Y-33722219D01*
X150958824Y-33724140D01*
X150955503Y-33725515D01*
X150951920Y-33725770D01*
X150933611Y-33732776D01*
X150838374Y-33780395D01*
X150829977Y-33785680D01*
X150827537Y-33786691D01*
X150824791Y-33788944D01*
X150821783Y-33790838D01*
X150820050Y-33792835D01*
X150812384Y-33799128D01*
X150764765Y-33846746D01*
X150758470Y-33854416D01*
X150756476Y-33856146D01*
X150754582Y-33859153D01*
X150752329Y-33861900D01*
X150751318Y-33864339D01*
X150746033Y-33872736D01*
X150698414Y-33967974D01*
X150697868Y-33969400D01*
X150697438Y-33969981D01*
X150694516Y-33978157D01*
X150691408Y-33986282D01*
X150691356Y-33987004D01*
X150690843Y-33988442D01*
X150643224Y-34178917D01*
X150642723Y-34182298D01*
X150642159Y-34183662D01*
X150641435Y-34191012D01*
X150640356Y-34198310D01*
X150640573Y-34199768D01*
X150640238Y-34203171D01*
X149929279Y-34203171D01*
X149922878Y-34196770D01*
X149887857Y-34091706D01*
X149887857Y-34036302D01*
X149917662Y-33976692D01*
X149942330Y-33952023D01*
X150001940Y-33922219D01*
X150192821Y-33922219D01*
X150252430Y-33952024D01*
X150288574Y-33988167D01*
X150303727Y-34000604D01*
X150339776Y-34015535D01*
X150378794Y-34015535D01*
X150414842Y-34000604D01*
X150442432Y-33973014D01*
X150457363Y-33936966D01*
X150457363Y-33897948D01*
X150442432Y-33861899D01*
X150429995Y-33846746D01*
X150382377Y-33799127D01*
X150374706Y-33792832D01*
X150372977Y-33790838D01*
X150369969Y-33788944D01*
X150367223Y-33786691D01*
X150364783Y-33785680D01*
X150356387Y-33780395D01*
X150261149Y-33732776D01*
X150242841Y-33725770D01*
X150239257Y-33725515D01*
X150235937Y-33724140D01*
X150216428Y-33722219D01*
X149978333Y-33722219D01*
X149958824Y-33724140D01*
X149955503Y-33725515D01*
X149951920Y-33725770D01*
X149933611Y-33732776D01*
X149838374Y-33780395D01*
X149829977Y-33785680D01*
X149827537Y-33786691D01*
X149824791Y-33788944D01*
X149821783Y-33790838D01*
X149820050Y-33792835D01*
X149812384Y-33799128D01*
X149764765Y-33846746D01*
X149758470Y-33854416D01*
X149756476Y-33856146D01*
X149754582Y-33859153D01*
X149752329Y-33861900D01*
X149751318Y-33864339D01*
X149746033Y-33872736D01*
X149698414Y-33967974D01*
X149691408Y-33986282D01*
X149691153Y-33989865D01*
X149689778Y-33993186D01*
X149687857Y-34012695D01*
X149478832Y-34012695D01*
X149458789Y-33812269D01*
X149457364Y-33805160D01*
X149457364Y-33802710D01*
X149456412Y-33800412D01*
X149454936Y-33793048D01*
X149448026Y-33780167D01*
X149442432Y-33766662D01*
X149438871Y-33763101D01*
X149436491Y-33758664D01*
X149425178Y-33749408D01*
X149414842Y-33739072D01*
X149410189Y-33737144D01*
X149406293Y-33733957D01*
X149392303Y-33729736D01*
X149378794Y-33724140D01*
X149371316Y-33723403D01*
X149368938Y-33722686D01*
X149366501Y-33722929D01*
X149359285Y-33722219D01*
X148883095Y-33722219D01*
X148863586Y-33724140D01*
X148827538Y-33739072D01*
X148799948Y-33766662D01*
X148785016Y-33802710D01*
X148785016Y-33841728D01*
X148799948Y-33877776D01*
X148827538Y-33905366D01*
X148863586Y-33920298D01*
X148883095Y-33922219D01*
X149268786Y-33922219D01*
X149287213Y-34106491D01*
X149286876Y-34106467D01*
X149283556Y-34105092D01*
X149264047Y-34103171D01*
X149025952Y-34103171D01*
X149006443Y-34105092D01*
X149003122Y-34106467D01*
X148999539Y-34106722D01*
X148981230Y-34113728D01*
X148885993Y-34161347D01*
X148877596Y-34166632D01*
X148875156Y-34167643D01*
X148872410Y-34169896D01*
X148869402Y-34171790D01*
X148867669Y-34173787D01*
X148860003Y-34180080D01*
X148812384Y-34227698D01*
X148806089Y-34235368D01*
X148804095Y-34237098D01*
X148802201Y-34240105D01*
X148799948Y-34242852D01*
X148798937Y-34245291D01*
X148793652Y-34253688D01*
X148746033Y-34348926D01*
X148739027Y-34367234D01*
X148738772Y-34370817D01*
X148737397Y-34374138D01*
X148735476Y-34393647D01*
X148225502Y-34393647D01*
X147775824Y-33719130D01*
X147763404Y-33703963D01*
X147730984Y-33682252D01*
X147692724Y-33674600D01*
X147654447Y-33682172D01*
X147621982Y-33703815D01*
X147600271Y-33736235D01*
X147592619Y-33774495D01*
X147296968Y-33774495D01*
X147213530Y-33732776D01*
X147195222Y-33725770D01*
X147191638Y-33725515D01*
X147188318Y-33724140D01*
X147168809Y-33722219D01*
X147073571Y-33722219D01*
X147054062Y-33724140D01*
X147050741Y-33725515D01*
X147047158Y-33725770D01*
X147028849Y-33732776D01*
X146933612Y-33780395D01*
X146925215Y-33785680D01*
X146922775Y-33786691D01*
X146920029Y-33788944D01*
X146917021Y-33790838D01*
X146915288Y-33792835D01*
X146907622Y-33799128D01*
X146860003Y-33846746D01*
X146853708Y-33854416D01*
X146851714Y-33856146D01*
X146849820Y-33859153D01*
X146847567Y-33861900D01*
X146846556Y-33864339D01*
X146841271Y-33872736D01*
X146793652Y-33967974D01*
X146793106Y-33969400D01*
X146792676Y-33969981D01*
X146789754Y-33978157D01*
X146786646Y-33986282D01*
X146786594Y-33987004D01*
X146786081Y-33988442D01*
X146738462Y-34178917D01*
X146737961Y-34182298D01*
X146737397Y-34183662D01*
X146736673Y-34191012D01*
X146735594Y-34198310D01*
X146735811Y-34199768D01*
X146735476Y-34203171D01*
X146464694Y-34203171D01*
X146311296Y-33742977D01*
X146303305Y-33725077D01*
X146277740Y-33695601D01*
X146242841Y-33678151D01*
X146203921Y-33675385D01*
X146166905Y-33687723D01*
X146137429Y-33713288D01*
X146119979Y-33748187D01*
X146117213Y-33787107D01*
X146121560Y-33806223D01*
X146315781Y-34388885D01*
X146078333Y-34388885D01*
X146078333Y-34155552D01*
X146076412Y-34136043D01*
X146061480Y-34099995D01*
X146033890Y-34072405D01*
X145997842Y-34057473D01*
X145958824Y-34057473D01*
X145922776Y-34072405D01*
X145895186Y-34099995D01*
X145880254Y-34136043D01*
X145878333Y-34155552D01*
X145878333Y-34388885D01*
X145835476Y-34388885D01*
X145815967Y-34390806D01*
X145779919Y-34405738D01*
X145752329Y-34433328D01*
X145737397Y-34469376D01*
X145626286Y-34469376D01*
X145626286Y-33563489D01*
X155617229Y-33563489D01*
X155617229Y-35271425D01*
G37*
G36*
X172178858Y-83540357D02*
G01*
X172203527Y-83565025D01*
X172233332Y-83624635D01*
X172233332Y-83863135D01*
X172203527Y-83922743D01*
X172178858Y-83947413D01*
X172119249Y-83977219D01*
X171975987Y-83977219D01*
X171957142Y-83967796D01*
X171957142Y-83519974D01*
X171975987Y-83510552D01*
X172119249Y-83510552D01*
X172178858Y-83540357D01*
G37*
G36*
X173068320Y-83532707D02*
G01*
X173090475Y-83577016D01*
X173090475Y-83621904D01*
X172818989Y-83567607D01*
X172836440Y-83532706D01*
X172880749Y-83510552D01*
X173024011Y-83510552D01*
X173068320Y-83532707D01*
G37*
G36*
X175306416Y-83532707D02*
G01*
X175328571Y-83577016D01*
X175328571Y-83621904D01*
X175057085Y-83567607D01*
X175074536Y-83532706D01*
X175118845Y-83510552D01*
X175262107Y-83510552D01*
X175306416Y-83532707D01*
G37*
G36*
X176494904Y-84288330D02*
G01*
X171646031Y-84288330D01*
X171646031Y-83077219D01*
X171757142Y-83077219D01*
X171757142Y-84077219D01*
X171759063Y-84096728D01*
X171773995Y-84132776D01*
X171801585Y-84160366D01*
X171837633Y-84175298D01*
X171876651Y-84175298D01*
X171903055Y-84164360D01*
X171907658Y-84166662D01*
X171925967Y-84173668D01*
X171929550Y-84173922D01*
X171932871Y-84175298D01*
X171952380Y-84177219D01*
X172142856Y-84177219D01*
X172162365Y-84175298D01*
X172165685Y-84173922D01*
X172169269Y-84173668D01*
X172187577Y-84166662D01*
X172282815Y-84119043D01*
X172291210Y-84113758D01*
X172293652Y-84112747D01*
X172296399Y-84110491D01*
X172299405Y-84108600D01*
X172301135Y-84106605D01*
X172308805Y-84100310D01*
X172356424Y-84052690D01*
X172362716Y-84045023D01*
X172364713Y-84043292D01*
X172366606Y-84040284D01*
X172368861Y-84037537D01*
X172369872Y-84035095D01*
X172375156Y-84026701D01*
X172422775Y-83931464D01*
X172429781Y-83913155D01*
X172430035Y-83909571D01*
X172431411Y-83906251D01*
X172433332Y-83886742D01*
X172433332Y-83601028D01*
X172431411Y-83581519D01*
X172430035Y-83578198D01*
X172429781Y-83574615D01*
X172422775Y-83556306D01*
X172421326Y-83553409D01*
X172614285Y-83553409D01*
X172614285Y-83648647D01*
X172616206Y-83668156D01*
X172619955Y-83677208D01*
X172621857Y-83686819D01*
X172627348Y-83695055D01*
X172631138Y-83704204D01*
X172638064Y-83711130D01*
X172643500Y-83719284D01*
X172651728Y-83724794D01*
X172658728Y-83731794D01*
X172667779Y-83735543D01*
X172675920Y-83740995D01*
X172694673Y-83746705D01*
X172694774Y-83746725D01*
X172694776Y-83746726D01*
X172694778Y-83746726D01*
X173090475Y-83825865D01*
X173090475Y-83910754D01*
X173068320Y-83955063D01*
X173024011Y-83977219D01*
X172880749Y-83977219D01*
X172806625Y-83940157D01*
X172788317Y-83933151D01*
X172749397Y-83930385D01*
X172712381Y-83942724D01*
X172682904Y-83968288D01*
X172665455Y-84003187D01*
X172662689Y-84042107D01*
X172675028Y-84079123D01*
X172700592Y-84108600D01*
X172717183Y-84119043D01*
X172812420Y-84166662D01*
X172830729Y-84173668D01*
X172834312Y-84173922D01*
X172837633Y-84175298D01*
X172857142Y-84177219D01*
X173047618Y-84177219D01*
X173067127Y-84175298D01*
X173070447Y-84173922D01*
X173074031Y-84173668D01*
X173092339Y-84166662D01*
X173187577Y-84119043D01*
X173190839Y-84116989D01*
X173192379Y-84116476D01*
X173194295Y-84114813D01*
X173204167Y-84108600D01*
X173212382Y-84099126D01*
X173221856Y-84090911D01*
X173228069Y-84081039D01*
X173229732Y-84079123D01*
X173230244Y-84077584D01*
X173232299Y-84074321D01*
X173279918Y-83979082D01*
X173286924Y-83960774D01*
X173287178Y-83957190D01*
X173288554Y-83953870D01*
X173290475Y-83934361D01*
X173290475Y-83553409D01*
X173288554Y-83533900D01*
X173287178Y-83530579D01*
X173286924Y-83526996D01*
X173279918Y-83508687D01*
X173232299Y-83413450D01*
X173230244Y-83410186D01*
X173229732Y-83408648D01*
X173228070Y-83406732D01*
X173221856Y-83396859D01*
X173215150Y-83391043D01*
X173378111Y-83391043D01*
X173378111Y-83430061D01*
X173393043Y-83466109D01*
X173420633Y-83493699D01*
X173456681Y-83508631D01*
X173476190Y-83510552D01*
X173614285Y-83510552D01*
X173614285Y-83910754D01*
X173592130Y-83955063D01*
X173547821Y-83977219D01*
X173476190Y-83977219D01*
X173456681Y-83979140D01*
X173420633Y-83994072D01*
X173393043Y-84021662D01*
X173378111Y-84057710D01*
X173378111Y-84096728D01*
X173393043Y-84132776D01*
X173420633Y-84160366D01*
X173456681Y-84175298D01*
X173476190Y-84177219D01*
X173571428Y-84177219D01*
X173590937Y-84175298D01*
X173594257Y-84173922D01*
X173597841Y-84173668D01*
X173616149Y-84166662D01*
X173711387Y-84119043D01*
X173714649Y-84116989D01*
X173716189Y-84116476D01*
X173718105Y-84114813D01*
X173727977Y-84108600D01*
X173736192Y-84099126D01*
X173745666Y-84090911D01*
X173751879Y-84081039D01*
X173753542Y-84079123D01*
X173754054Y-84077584D01*
X173756109Y-84074321D01*
X173803728Y-83979082D01*
X173810734Y-83960774D01*
X173810988Y-83957190D01*
X173812364Y-83953870D01*
X173814285Y-83934361D01*
X173814285Y-83886742D01*
X174042857Y-83886742D01*
X174042857Y-83934361D01*
X174044778Y-83953870D01*
X174046153Y-83957190D01*
X174046408Y-83960773D01*
X174053414Y-83979082D01*
X174101033Y-84074321D01*
X174103086Y-84077584D01*
X174103600Y-84079123D01*
X174105262Y-84081039D01*
X174111476Y-84090911D01*
X174120947Y-84099125D01*
X174129164Y-84108600D01*
X174139034Y-84114812D01*
X174140952Y-84116476D01*
X174142492Y-84116989D01*
X174145755Y-84119043D01*
X174240992Y-84166662D01*
X174259301Y-84173668D01*
X174262884Y-84173922D01*
X174266205Y-84175298D01*
X174285714Y-84177219D01*
X174476190Y-84177219D01*
X174495699Y-84175298D01*
X174499019Y-84173922D01*
X174502603Y-84173668D01*
X174520911Y-84166662D01*
X174616149Y-84119043D01*
X174632739Y-84108600D01*
X174658304Y-84079123D01*
X174670642Y-84042107D01*
X174667877Y-84003187D01*
X174650428Y-83968289D01*
X174620951Y-83942724D01*
X174583935Y-83930385D01*
X174545015Y-83933151D01*
X174526706Y-83940157D01*
X174452583Y-83977219D01*
X174309321Y-83977219D01*
X174265011Y-83955064D01*
X174242857Y-83910754D01*
X174242857Y-83910349D01*
X174265012Y-83866039D01*
X174309321Y-83843885D01*
X174428571Y-83843885D01*
X174448080Y-83841964D01*
X174451400Y-83840588D01*
X174454984Y-83840334D01*
X174473292Y-83833328D01*
X174568530Y-83785709D01*
X174571793Y-83783655D01*
X174573332Y-83783142D01*
X174575248Y-83781479D01*
X174585120Y-83775266D01*
X174593333Y-83765795D01*
X174602809Y-83757578D01*
X174609023Y-83747704D01*
X174610685Y-83745789D01*
X174611197Y-83744250D01*
X174613252Y-83740987D01*
X174660871Y-83645750D01*
X174667877Y-83627441D01*
X174668131Y-83623857D01*
X174669507Y-83620537D01*
X174671428Y-83601028D01*
X174671428Y-83553409D01*
X174852381Y-83553409D01*
X174852381Y-83648647D01*
X174854302Y-83668156D01*
X174858051Y-83677208D01*
X174859953Y-83686819D01*
X174865444Y-83695055D01*
X174869234Y-83704204D01*
X174876160Y-83711130D01*
X174881596Y-83719284D01*
X174889824Y-83724794D01*
X174896824Y-83731794D01*
X174905875Y-83735543D01*
X174914016Y-83740995D01*
X174932769Y-83746705D01*
X174932870Y-83746725D01*
X174932872Y-83746726D01*
X174932874Y-83746726D01*
X175328571Y-83825865D01*
X175328571Y-83910754D01*
X175306416Y-83955063D01*
X175262107Y-83977219D01*
X175118845Y-83977219D01*
X175044721Y-83940157D01*
X175026413Y-83933151D01*
X174987493Y-83930385D01*
X174950477Y-83942724D01*
X174921000Y-83968288D01*
X174903551Y-84003187D01*
X174900785Y-84042107D01*
X174913124Y-84079123D01*
X174938688Y-84108600D01*
X174955279Y-84119043D01*
X175050516Y-84166662D01*
X175068825Y-84173668D01*
X175072408Y-84173922D01*
X175075729Y-84175298D01*
X175095238Y-84177219D01*
X175285714Y-84177219D01*
X175305223Y-84175298D01*
X175308543Y-84173922D01*
X175312127Y-84173668D01*
X175330435Y-84166662D01*
X175425673Y-84119043D01*
X175428935Y-84116989D01*
X175430475Y-84116476D01*
X175432391Y-84114813D01*
X175442263Y-84108600D01*
X175450478Y-84099126D01*
X175459952Y-84090911D01*
X175466165Y-84081039D01*
X175467828Y-84079123D01*
X175468340Y-84077584D01*
X175470395Y-84074321D01*
X175518014Y-83979082D01*
X175525020Y-83960774D01*
X175525274Y-83957190D01*
X175526650Y-83953870D01*
X175528571Y-83934361D01*
X175528571Y-83553409D01*
X175526650Y-83533900D01*
X175525274Y-83530579D01*
X175525020Y-83526996D01*
X175518014Y-83508687D01*
X175470395Y-83413450D01*
X175468340Y-83410186D01*
X175467828Y-83408648D01*
X175466166Y-83406732D01*
X175459952Y-83396859D01*
X175450476Y-83388641D01*
X175442263Y-83379171D01*
X175432391Y-83372957D01*
X175430475Y-83371295D01*
X175428936Y-83370781D01*
X175425673Y-83368728D01*
X175330435Y-83321109D01*
X175312127Y-83314103D01*
X175308543Y-83313848D01*
X175305223Y-83312473D01*
X175285714Y-83310552D01*
X175095238Y-83310552D01*
X175075729Y-83312473D01*
X175072408Y-83313848D01*
X175068825Y-83314103D01*
X175050516Y-83321109D01*
X174955279Y-83368728D01*
X174952015Y-83370782D01*
X174950477Y-83371295D01*
X174948561Y-83372956D01*
X174938688Y-83379171D01*
X174930470Y-83388646D01*
X174921000Y-83396860D01*
X174914786Y-83406731D01*
X174913124Y-83408648D01*
X174912610Y-83410186D01*
X174910557Y-83413450D01*
X174862938Y-83508688D01*
X174855932Y-83526996D01*
X174855677Y-83530579D01*
X174854302Y-83533900D01*
X174852381Y-83553409D01*
X174671428Y-83553409D01*
X174669507Y-83533900D01*
X174668131Y-83530579D01*
X174667877Y-83526996D01*
X174660871Y-83508687D01*
X174613252Y-83413450D01*
X174611197Y-83410186D01*
X174610685Y-83408648D01*
X174609023Y-83406732D01*
X174602809Y-83396859D01*
X174593333Y-83388641D01*
X174585120Y-83379171D01*
X174575248Y-83372957D01*
X174573332Y-83371295D01*
X174571793Y-83370781D01*
X174568530Y-83368728D01*
X174473292Y-83321109D01*
X174454984Y-83314103D01*
X174451400Y-83313848D01*
X174448080Y-83312473D01*
X174428571Y-83310552D01*
X174285714Y-83310552D01*
X174266205Y-83312473D01*
X174262884Y-83313848D01*
X174259301Y-83314103D01*
X174240992Y-83321109D01*
X174145755Y-83368728D01*
X174129164Y-83379171D01*
X174103600Y-83408648D01*
X174091261Y-83445664D01*
X174094027Y-83484584D01*
X174111476Y-83519483D01*
X174140953Y-83545047D01*
X174177969Y-83557386D01*
X174216889Y-83554620D01*
X174235197Y-83547614D01*
X174309321Y-83510552D01*
X174404964Y-83510552D01*
X174449273Y-83532707D01*
X174471428Y-83577016D01*
X174471428Y-83577421D01*
X174449273Y-83621729D01*
X174404964Y-83643885D01*
X174285714Y-83643885D01*
X174266205Y-83645806D01*
X174262884Y-83647181D01*
X174259301Y-83647436D01*
X174240992Y-83654442D01*
X174145755Y-83702061D01*
X174142491Y-83704115D01*
X174140953Y-83704628D01*
X174139037Y-83706289D01*
X174129164Y-83712504D01*
X174120946Y-83721979D01*
X174111476Y-83730193D01*
X174105262Y-83740064D01*
X174103600Y-83741981D01*
X174103086Y-83743519D01*
X174101033Y-83746783D01*
X174053414Y-83842021D01*
X174046408Y-83860329D01*
X174046153Y-83863912D01*
X174044778Y-83867233D01*
X174042857Y-83886742D01*
X173814285Y-83886742D01*
X173814285Y-83510552D01*
X173857142Y-83510552D01*
X173876651Y-83508631D01*
X173912699Y-83493699D01*
X173940289Y-83466109D01*
X173955221Y-83430061D01*
X173955221Y-83391043D01*
X173940289Y-83354995D01*
X173912699Y-83327405D01*
X173876651Y-83312473D01*
X173857142Y-83310552D01*
X173814285Y-83310552D01*
X173814285Y-83077219D01*
X173812364Y-83057710D01*
X175616207Y-83057710D01*
X175616207Y-83096728D01*
X175631139Y-83132776D01*
X175658729Y-83160366D01*
X175694777Y-83175298D01*
X175714286Y-83177219D01*
X175900000Y-83177219D01*
X175900000Y-84077219D01*
X175901921Y-84096728D01*
X175916853Y-84132776D01*
X175944443Y-84160366D01*
X175980491Y-84175298D01*
X176019509Y-84175298D01*
X176055557Y-84160366D01*
X176083147Y-84132776D01*
X176098079Y-84096728D01*
X176100000Y-84077219D01*
X176100000Y-83177219D01*
X176285714Y-83177219D01*
X176305223Y-83175298D01*
X176341271Y-83160366D01*
X176368861Y-83132776D01*
X176383793Y-83096728D01*
X176383793Y-83057710D01*
X176368861Y-83021662D01*
X176341271Y-82994072D01*
X176305223Y-82979140D01*
X176285714Y-82977219D01*
X175714286Y-82977219D01*
X175694777Y-82979140D01*
X175658729Y-82994072D01*
X175631139Y-83021662D01*
X175616207Y-83057710D01*
X173812364Y-83057710D01*
X173797432Y-83021662D01*
X173769842Y-82994072D01*
X173733794Y-82979140D01*
X173694776Y-82979140D01*
X173658728Y-82994072D01*
X173631138Y-83021662D01*
X173616206Y-83057710D01*
X173614285Y-83077219D01*
X173614285Y-83310552D01*
X173476190Y-83310552D01*
X173456681Y-83312473D01*
X173420633Y-83327405D01*
X173393043Y-83354995D01*
X173378111Y-83391043D01*
X173215150Y-83391043D01*
X173212380Y-83388641D01*
X173204167Y-83379171D01*
X173194295Y-83372957D01*
X173192379Y-83371295D01*
X173190840Y-83370781D01*
X173187577Y-83368728D01*
X173092339Y-83321109D01*
X173074031Y-83314103D01*
X173070447Y-83313848D01*
X173067127Y-83312473D01*
X173047618Y-83310552D01*
X172857142Y-83310552D01*
X172837633Y-83312473D01*
X172834312Y-83313848D01*
X172830729Y-83314103D01*
X172812420Y-83321109D01*
X172717183Y-83368728D01*
X172713919Y-83370782D01*
X172712381Y-83371295D01*
X172710465Y-83372956D01*
X172700592Y-83379171D01*
X172692374Y-83388646D01*
X172682904Y-83396860D01*
X172676690Y-83406731D01*
X172675028Y-83408648D01*
X172674514Y-83410186D01*
X172672461Y-83413450D01*
X172624842Y-83508688D01*
X172617836Y-83526996D01*
X172617581Y-83530579D01*
X172616206Y-83533900D01*
X172614285Y-83553409D01*
X172421326Y-83553409D01*
X172375156Y-83461069D01*
X172369870Y-83452672D01*
X172368860Y-83450232D01*
X172366606Y-83447486D01*
X172364713Y-83444478D01*
X172362715Y-83442745D01*
X172356423Y-83435079D01*
X172308805Y-83387460D01*
X172301134Y-83381165D01*
X172299405Y-83379171D01*
X172296397Y-83377277D01*
X172293651Y-83375024D01*
X172291211Y-83374013D01*
X172282815Y-83368728D01*
X172187577Y-83321109D01*
X172169269Y-83314103D01*
X172165685Y-83313848D01*
X172162365Y-83312473D01*
X172142856Y-83310552D01*
X171957142Y-83310552D01*
X171957142Y-83077219D01*
X171955221Y-83057710D01*
X171940289Y-83021662D01*
X171912699Y-82994072D01*
X171876651Y-82979140D01*
X171837633Y-82979140D01*
X171801585Y-82994072D01*
X171773995Y-83021662D01*
X171759063Y-83057710D01*
X171757142Y-83077219D01*
X171646031Y-83077219D01*
X171646031Y-82866108D01*
X176494904Y-82866108D01*
X176494904Y-84288330D01*
G37*
G36*
X146689511Y-31862707D02*
G01*
X146711666Y-31907016D01*
X146711666Y-31951904D01*
X146440180Y-31897607D01*
X146457631Y-31862706D01*
X146501940Y-31840552D01*
X146645202Y-31840552D01*
X146689511Y-31862707D01*
G37*
G36*
X147561954Y-31870357D02*
G01*
X147586623Y-31895025D01*
X147616428Y-31954635D01*
X147616428Y-32193135D01*
X147586623Y-32252743D01*
X147561954Y-32277413D01*
X147502345Y-32307219D01*
X147359083Y-32307219D01*
X147340238Y-32297796D01*
X147340238Y-31849974D01*
X147359083Y-31840552D01*
X147502345Y-31840552D01*
X147561954Y-31870357D01*
G37*
G36*
X148499035Y-32148421D02*
G01*
X148521190Y-32192730D01*
X148521190Y-32240754D01*
X148499035Y-32285063D01*
X148454726Y-32307219D01*
X148263845Y-32307219D01*
X148245000Y-32297796D01*
X148245000Y-32126266D01*
X148454726Y-32126266D01*
X148499035Y-32148421D01*
G37*
G36*
X149356178Y-31862707D02*
G01*
X149378333Y-31907016D01*
X149378333Y-31951904D01*
X149106847Y-31897607D01*
X149124298Y-31862706D01*
X149168607Y-31840552D01*
X149311869Y-31840552D01*
X149356178Y-31862707D01*
G37*
G36*
X150330714Y-31831028D02*
G01*
X150073369Y-31831028D01*
X150013759Y-31801223D01*
X149989091Y-31776554D01*
X149959286Y-31716944D01*
X149959286Y-31621302D01*
X149989091Y-31561692D01*
X150013759Y-31537023D01*
X150073369Y-31507219D01*
X150330714Y-31507219D01*
X150330714Y-31831028D01*
G37*
G36*
X154387210Y-32021504D02*
G01*
X154188505Y-32021504D01*
X154287857Y-31723446D01*
X154387210Y-32021504D01*
G37*
G36*
X155737063Y-32618330D02*
G01*
X145412000Y-32618330D01*
X145412000Y-31721043D01*
X145523111Y-31721043D01*
X145523111Y-31760061D01*
X145538043Y-31796109D01*
X145565633Y-31823699D01*
X145601681Y-31838631D01*
X145621190Y-31840552D01*
X145692821Y-31840552D01*
X145752430Y-31870357D01*
X145777099Y-31895025D01*
X145806904Y-31954635D01*
X145806904Y-32407219D01*
X145808825Y-32426728D01*
X145823757Y-32462776D01*
X145851347Y-32490366D01*
X145887395Y-32505298D01*
X145926413Y-32505298D01*
X145962461Y-32490366D01*
X145990051Y-32462776D01*
X146004983Y-32426728D01*
X146006904Y-32407219D01*
X146006904Y-31883409D01*
X146235476Y-31883409D01*
X146235476Y-31978647D01*
X146237397Y-31998156D01*
X146241146Y-32007208D01*
X146243048Y-32016819D01*
X146248540Y-32025057D01*
X146252329Y-32034204D01*
X146259255Y-32041130D01*
X146264691Y-32049284D01*
X146272919Y-32054794D01*
X146279919Y-32061794D01*
X146288970Y-32065543D01*
X146297111Y-32070995D01*
X146315864Y-32076705D01*
X146315965Y-32076725D01*
X146315967Y-32076726D01*
X146315969Y-32076726D01*
X146711666Y-32155865D01*
X146711666Y-32240754D01*
X146689511Y-32285063D01*
X146645202Y-32307219D01*
X146501940Y-32307219D01*
X146427816Y-32270157D01*
X146409508Y-32263151D01*
X146370588Y-32260385D01*
X146333572Y-32272724D01*
X146304095Y-32298288D01*
X146286646Y-32333187D01*
X146283880Y-32372107D01*
X146296219Y-32409123D01*
X146321783Y-32438600D01*
X146338374Y-32449043D01*
X146433611Y-32496662D01*
X146451920Y-32503668D01*
X146455503Y-32503922D01*
X146458824Y-32505298D01*
X146478333Y-32507219D01*
X146668809Y-32507219D01*
X146688318Y-32505298D01*
X146691638Y-32503922D01*
X146695222Y-32503668D01*
X146713530Y-32496662D01*
X146808768Y-32449043D01*
X146812030Y-32446989D01*
X146813570Y-32446476D01*
X146815486Y-32444813D01*
X146825358Y-32438600D01*
X146833573Y-32429126D01*
X146843047Y-32420911D01*
X146849260Y-32411039D01*
X146850923Y-32409123D01*
X146851435Y-32407584D01*
X146853490Y-32404321D01*
X146901109Y-32309082D01*
X146908115Y-32290774D01*
X146908369Y-32287190D01*
X146909745Y-32283870D01*
X146911666Y-32264361D01*
X146911666Y-31883409D01*
X146909745Y-31863900D01*
X146908369Y-31860579D01*
X146908115Y-31856996D01*
X146901109Y-31838687D01*
X146853490Y-31743450D01*
X146851435Y-31740186D01*
X146850923Y-31738648D01*
X146849261Y-31736732D01*
X146843047Y-31726859D01*
X146833571Y-31718641D01*
X146825358Y-31709171D01*
X146815486Y-31702957D01*
X146813570Y-31701295D01*
X146812031Y-31700781D01*
X146808768Y-31698728D01*
X146713530Y-31651109D01*
X146695222Y-31644103D01*
X146691638Y-31643848D01*
X146688318Y-31642473D01*
X146668809Y-31640552D01*
X146478333Y-31640552D01*
X146458824Y-31642473D01*
X146455503Y-31643848D01*
X146451920Y-31644103D01*
X146433611Y-31651109D01*
X146338374Y-31698728D01*
X146335110Y-31700782D01*
X146333572Y-31701295D01*
X146331656Y-31702956D01*
X146321783Y-31709171D01*
X146313565Y-31718646D01*
X146304095Y-31726860D01*
X146297881Y-31736731D01*
X146296219Y-31738648D01*
X146295705Y-31740186D01*
X146293652Y-31743450D01*
X146246033Y-31838688D01*
X146239027Y-31856996D01*
X146238772Y-31860579D01*
X146237397Y-31863900D01*
X146235476Y-31883409D01*
X146006904Y-31883409D01*
X146006904Y-31740552D01*
X146004983Y-31721043D01*
X145990051Y-31684995D01*
X145962461Y-31657405D01*
X145926413Y-31642473D01*
X145887395Y-31642473D01*
X145851347Y-31657405D01*
X145825478Y-31683273D01*
X145761149Y-31651109D01*
X145742841Y-31644103D01*
X145739257Y-31643848D01*
X145735937Y-31642473D01*
X145716428Y-31640552D01*
X145621190Y-31640552D01*
X145601681Y-31642473D01*
X145565633Y-31657405D01*
X145538043Y-31684995D01*
X145523111Y-31721043D01*
X145412000Y-31721043D01*
X145412000Y-31407219D01*
X147140238Y-31407219D01*
X147140238Y-32407219D01*
X147142159Y-32426728D01*
X147157091Y-32462776D01*
X147184681Y-32490366D01*
X147220729Y-32505298D01*
X147259747Y-32505298D01*
X147286151Y-32494360D01*
X147290754Y-32496662D01*
X147309063Y-32503668D01*
X147312646Y-32503922D01*
X147315967Y-32505298D01*
X147335476Y-32507219D01*
X147525952Y-32507219D01*
X147545461Y-32505298D01*
X147548781Y-32503922D01*
X147552365Y-32503668D01*
X147570673Y-32496662D01*
X147665911Y-32449043D01*
X147674306Y-32443758D01*
X147676748Y-32442747D01*
X147679495Y-32440491D01*
X147682501Y-32438600D01*
X147684231Y-32436605D01*
X147691901Y-32430310D01*
X147739520Y-32382690D01*
X147745812Y-32375023D01*
X147747809Y-32373292D01*
X147749702Y-32370284D01*
X147751957Y-32367537D01*
X147752968Y-32365095D01*
X147758252Y-32356701D01*
X147805871Y-32261464D01*
X147812877Y-32243155D01*
X147813131Y-32239571D01*
X147814507Y-32236251D01*
X147816428Y-32216742D01*
X147816428Y-31931028D01*
X147814507Y-31911519D01*
X147813131Y-31908198D01*
X147812877Y-31904615D01*
X147805871Y-31886306D01*
X147804422Y-31883409D01*
X148045000Y-31883409D01*
X148045000Y-32407219D01*
X148046921Y-32426728D01*
X148061853Y-32462776D01*
X148089443Y-32490366D01*
X148125491Y-32505298D01*
X148164509Y-32505298D01*
X148190913Y-32494360D01*
X148195516Y-32496662D01*
X148213825Y-32503668D01*
X148217408Y-32503922D01*
X148220729Y-32505298D01*
X148240238Y-32507219D01*
X148478333Y-32507219D01*
X148497842Y-32505298D01*
X148501162Y-32503922D01*
X148504746Y-32503668D01*
X148523054Y-32496662D01*
X148618292Y-32449043D01*
X148621554Y-32446989D01*
X148623094Y-32446476D01*
X148625010Y-32444813D01*
X148634882Y-32438600D01*
X148643097Y-32429126D01*
X148652571Y-32420911D01*
X148658784Y-32411039D01*
X148660447Y-32409123D01*
X148660959Y-32407584D01*
X148663014Y-32404321D01*
X148710633Y-32309082D01*
X148717639Y-32290774D01*
X148717893Y-32287190D01*
X148719269Y-32283870D01*
X148721190Y-32264361D01*
X148721190Y-32169123D01*
X148719269Y-32149614D01*
X148717893Y-32146293D01*
X148717639Y-32142710D01*
X148710633Y-32124401D01*
X148663014Y-32029164D01*
X148660959Y-32025900D01*
X148660447Y-32024362D01*
X148658785Y-32022446D01*
X148652571Y-32012573D01*
X148643095Y-32004355D01*
X148634882Y-31994885D01*
X148625010Y-31988671D01*
X148623094Y-31987009D01*
X148621555Y-31986495D01*
X148618292Y-31984442D01*
X148523054Y-31936823D01*
X148504746Y-31929817D01*
X148501162Y-31929562D01*
X148497842Y-31928187D01*
X148478333Y-31926266D01*
X148263845Y-31926266D01*
X148245000Y-31916843D01*
X148245000Y-31907016D01*
X148267155Y-31862706D01*
X148311464Y-31840552D01*
X148454726Y-31840552D01*
X148528849Y-31877614D01*
X148547158Y-31884620D01*
X148586078Y-31887386D01*
X148598009Y-31883409D01*
X148902143Y-31883409D01*
X148902143Y-31978647D01*
X148904064Y-31998156D01*
X148907813Y-32007208D01*
X148909715Y-32016819D01*
X148915207Y-32025057D01*
X148918996Y-32034204D01*
X148925922Y-32041130D01*
X148931358Y-32049284D01*
X148939586Y-32054794D01*
X148946586Y-32061794D01*
X148955637Y-32065543D01*
X148963778Y-32070995D01*
X148982531Y-32076705D01*
X148982632Y-32076725D01*
X148982634Y-32076726D01*
X148982636Y-32076726D01*
X149378333Y-32155865D01*
X149378333Y-32240754D01*
X149356178Y-32285063D01*
X149311869Y-32307219D01*
X149168607Y-32307219D01*
X149094483Y-32270157D01*
X149076175Y-32263151D01*
X149037255Y-32260385D01*
X149000239Y-32272724D01*
X148970762Y-32298288D01*
X148953313Y-32333187D01*
X148950547Y-32372107D01*
X148962886Y-32409123D01*
X148988450Y-32438600D01*
X149005041Y-32449043D01*
X149100278Y-32496662D01*
X149118587Y-32503668D01*
X149122170Y-32503922D01*
X149125491Y-32505298D01*
X149145000Y-32507219D01*
X149335476Y-32507219D01*
X149354985Y-32505298D01*
X149358305Y-32503922D01*
X149361889Y-32503668D01*
X149380197Y-32496662D01*
X149475435Y-32449043D01*
X149478697Y-32446989D01*
X149480237Y-32446476D01*
X149482153Y-32444813D01*
X149492025Y-32438600D01*
X149500240Y-32429126D01*
X149509714Y-32420911D01*
X149515927Y-32411039D01*
X149517590Y-32409123D01*
X149518102Y-32407584D01*
X149520157Y-32404321D01*
X149567776Y-32309082D01*
X149574782Y-32290774D01*
X149575036Y-32287190D01*
X149576412Y-32283870D01*
X149578333Y-32264361D01*
X149578333Y-31883409D01*
X149576412Y-31863900D01*
X149575036Y-31860579D01*
X149574782Y-31856996D01*
X149567776Y-31838687D01*
X149520157Y-31743450D01*
X149518102Y-31740186D01*
X149517590Y-31738648D01*
X149515928Y-31736732D01*
X149509714Y-31726859D01*
X149500238Y-31718641D01*
X149492025Y-31709171D01*
X149482153Y-31702957D01*
X149480237Y-31701295D01*
X149478698Y-31700781D01*
X149475435Y-31698728D01*
X149380197Y-31651109D01*
X149361889Y-31644103D01*
X149358305Y-31643848D01*
X149354985Y-31642473D01*
X149335476Y-31640552D01*
X149145000Y-31640552D01*
X149125491Y-31642473D01*
X149122170Y-31643848D01*
X149118587Y-31644103D01*
X149100278Y-31651109D01*
X149005041Y-31698728D01*
X149001777Y-31700782D01*
X149000239Y-31701295D01*
X148998323Y-31702956D01*
X148988450Y-31709171D01*
X148980232Y-31718646D01*
X148970762Y-31726860D01*
X148964548Y-31736731D01*
X148962886Y-31738648D01*
X148962372Y-31740186D01*
X148960319Y-31743450D01*
X148912700Y-31838688D01*
X148905694Y-31856996D01*
X148905439Y-31860579D01*
X148904064Y-31863900D01*
X148902143Y-31883409D01*
X148598009Y-31883409D01*
X148623094Y-31875047D01*
X148652571Y-31849482D01*
X148670020Y-31814584D01*
X148672785Y-31775664D01*
X148660447Y-31738648D01*
X148634882Y-31709171D01*
X148618292Y-31698728D01*
X148523054Y-31651109D01*
X148504746Y-31644103D01*
X148501162Y-31643848D01*
X148497842Y-31642473D01*
X148478333Y-31640552D01*
X148287857Y-31640552D01*
X148268348Y-31642473D01*
X148265027Y-31643848D01*
X148261444Y-31644103D01*
X148243135Y-31651109D01*
X148147898Y-31698728D01*
X148144634Y-31700782D01*
X148143096Y-31701295D01*
X148141180Y-31702956D01*
X148131307Y-31709171D01*
X148123089Y-31718646D01*
X148113619Y-31726860D01*
X148107405Y-31736731D01*
X148105743Y-31738648D01*
X148105229Y-31740186D01*
X148103176Y-31743450D01*
X148055557Y-31838688D01*
X148048551Y-31856996D01*
X148048296Y-31860579D01*
X148046921Y-31863900D01*
X148045000Y-31883409D01*
X147804422Y-31883409D01*
X147758252Y-31791069D01*
X147752966Y-31782672D01*
X147751956Y-31780232D01*
X147749702Y-31777486D01*
X147747809Y-31774478D01*
X147745811Y-31772745D01*
X147739519Y-31765079D01*
X147691901Y-31717460D01*
X147684230Y-31711165D01*
X147682501Y-31709171D01*
X147679493Y-31707277D01*
X147676747Y-31705024D01*
X147674307Y-31704013D01*
X147665911Y-31698728D01*
X147570673Y-31651109D01*
X147552365Y-31644103D01*
X147548781Y-31643848D01*
X147545461Y-31642473D01*
X147525952Y-31640552D01*
X147340238Y-31640552D01*
X147340238Y-31597695D01*
X149759286Y-31597695D01*
X149759286Y-31740552D01*
X149761207Y-31760061D01*
X149762582Y-31763381D01*
X149762837Y-31766965D01*
X149769843Y-31785273D01*
X149817462Y-31880511D01*
X149822747Y-31888907D01*
X149823758Y-31891347D01*
X149826011Y-31894093D01*
X149827905Y-31897101D01*
X149829899Y-31898830D01*
X149836194Y-31906501D01*
X149883813Y-31954119D01*
X149891479Y-31960411D01*
X149893212Y-31962409D01*
X149896220Y-31964302D01*
X149898966Y-31966556D01*
X149901406Y-31967566D01*
X149909803Y-31972852D01*
X150005040Y-32020471D01*
X150007330Y-32021347D01*
X149777363Y-32349873D01*
X149767749Y-32366957D01*
X149759309Y-32405051D01*
X149766090Y-32443476D01*
X149787059Y-32476381D01*
X149819024Y-32498756D01*
X149857118Y-32507196D01*
X149895543Y-32500415D01*
X149928448Y-32479446D01*
X149941209Y-32464565D01*
X150244684Y-32031028D01*
X150330714Y-32031028D01*
X150330714Y-32407219D01*
X150332635Y-32426728D01*
X150347567Y-32462776D01*
X150375157Y-32490366D01*
X150411205Y-32505298D01*
X150450223Y-32505298D01*
X150486271Y-32490366D01*
X150513861Y-32462776D01*
X150528793Y-32426728D01*
X150530714Y-32407219D01*
X150530714Y-32006757D01*
X150808826Y-32006757D01*
X150808826Y-32045775D01*
X150823758Y-32081823D01*
X150851348Y-32109413D01*
X150887396Y-32124345D01*
X150906905Y-32126266D01*
X151668809Y-32126266D01*
X151688318Y-32124345D01*
X151695177Y-32121504D01*
X151997381Y-32121504D01*
X151997381Y-32216742D01*
X151999302Y-32236251D01*
X152000677Y-32239571D01*
X152000932Y-32243155D01*
X152007938Y-32261463D01*
X152055557Y-32356701D01*
X152060840Y-32365093D01*
X152061852Y-32367537D01*
X152064108Y-32370286D01*
X152066000Y-32373291D01*
X152067994Y-32375020D01*
X152074289Y-32382690D01*
X152121907Y-32430310D01*
X152129575Y-32436603D01*
X152131307Y-32438600D01*
X152134315Y-32440493D01*
X152137061Y-32442747D01*
X152139501Y-32443757D01*
X152147898Y-32449043D01*
X152243135Y-32496662D01*
X152261444Y-32503668D01*
X152265027Y-32503922D01*
X152268348Y-32505298D01*
X152287857Y-32507219D01*
X152525952Y-32507219D01*
X152535825Y-32506246D01*
X152538459Y-32506434D01*
X152541922Y-32505646D01*
X152545461Y-32505298D01*
X152547903Y-32504286D01*
X152557575Y-32502087D01*
X152700431Y-32454468D01*
X152718332Y-32446477D01*
X152747808Y-32420912D01*
X152765257Y-32386013D01*
X152768024Y-32347093D01*
X152755685Y-32310077D01*
X152730120Y-32280601D01*
X152695221Y-32263151D01*
X152656301Y-32260385D01*
X152637186Y-32264732D01*
X152509725Y-32307219D01*
X152311464Y-32307219D01*
X152251854Y-32277414D01*
X152227187Y-32252746D01*
X152197381Y-32193134D01*
X152197381Y-32145111D01*
X152227186Y-32085501D01*
X152251854Y-32060832D01*
X152322761Y-32025379D01*
X152502586Y-31980423D01*
X152504023Y-31979909D01*
X152504746Y-31979858D01*
X152512870Y-31976749D01*
X152521047Y-31973828D01*
X152521627Y-31973397D01*
X152523054Y-31972852D01*
X152618292Y-31925233D01*
X152626688Y-31919947D01*
X152629128Y-31918937D01*
X152631874Y-31916683D01*
X152634882Y-31914790D01*
X152636611Y-31912795D01*
X152644282Y-31906501D01*
X152691900Y-31858882D01*
X152698192Y-31851215D01*
X152700190Y-31849483D01*
X152702083Y-31846474D01*
X152704337Y-31843729D01*
X152705347Y-31841288D01*
X152710633Y-31832892D01*
X152758252Y-31737655D01*
X152765258Y-31719346D01*
X152765512Y-31715762D01*
X152766888Y-31712442D01*
X152768809Y-31692933D01*
X152768809Y-31597695D01*
X152766888Y-31578186D01*
X152765512Y-31574865D01*
X152765258Y-31571282D01*
X152758252Y-31552973D01*
X152723239Y-31482948D01*
X152951683Y-31482948D01*
X152951683Y-31521966D01*
X152966615Y-31558014D01*
X152994205Y-31585604D01*
X153030253Y-31600536D01*
X153069271Y-31600536D01*
X153105319Y-31585604D01*
X153120473Y-31573168D01*
X153151399Y-31542240D01*
X153256464Y-31507219D01*
X153319249Y-31507219D01*
X153424313Y-31542240D01*
X153491386Y-31609313D01*
X153526838Y-31680218D01*
X153568809Y-31848099D01*
X153568809Y-31966337D01*
X153526838Y-32134218D01*
X153491385Y-32205124D01*
X153424314Y-32272197D01*
X153319249Y-32307219D01*
X153256464Y-32307219D01*
X153151399Y-32272197D01*
X153120473Y-32241270D01*
X153105320Y-32228833D01*
X153069272Y-32213902D01*
X153030254Y-32213901D01*
X152994205Y-32228832D01*
X152966615Y-32256422D01*
X152951684Y-32292470D01*
X152951683Y-32331488D01*
X152966614Y-32367537D01*
X152979051Y-32382690D01*
X153026669Y-32430310D01*
X153041823Y-32442747D01*
X153045142Y-32444122D01*
X153047858Y-32446477D01*
X153065758Y-32454468D01*
X153208615Y-32502087D01*
X153218287Y-32504286D01*
X153220729Y-32505298D01*
X153224266Y-32505646D01*
X153227730Y-32506434D01*
X153230364Y-32506246D01*
X153240238Y-32507219D01*
X153335476Y-32507219D01*
X153345349Y-32506246D01*
X153347983Y-32506434D01*
X153351446Y-32505646D01*
X153354985Y-32505298D01*
X153357427Y-32504286D01*
X153367099Y-32502087D01*
X153509955Y-32454468D01*
X153527856Y-32446477D01*
X153530571Y-32444122D01*
X153533891Y-32442747D01*
X153549044Y-32430310D01*
X153584642Y-32394712D01*
X153855309Y-32394712D01*
X153858075Y-32433632D01*
X153875525Y-32468531D01*
X153905001Y-32494096D01*
X153942017Y-32506434D01*
X153980937Y-32503668D01*
X154015836Y-32486218D01*
X154041401Y-32456742D01*
X154049392Y-32438842D01*
X154121838Y-32221504D01*
X154453876Y-32221504D01*
X154526322Y-32438841D01*
X154534313Y-32456742D01*
X154559878Y-32486218D01*
X154594777Y-32503667D01*
X154633697Y-32506434D01*
X154670713Y-32494095D01*
X154700189Y-32468530D01*
X154717639Y-32433631D01*
X154720405Y-32394711D01*
X154716058Y-32375596D01*
X154393266Y-31407219D01*
X154854524Y-31407219D01*
X154854524Y-32216742D01*
X154856445Y-32236251D01*
X154857820Y-32239571D01*
X154858075Y-32243155D01*
X154865081Y-32261463D01*
X154912700Y-32356701D01*
X154917983Y-32365093D01*
X154918995Y-32367537D01*
X154921251Y-32370286D01*
X154923143Y-32373291D01*
X154925137Y-32375020D01*
X154931432Y-32382690D01*
X154979050Y-32430310D01*
X154986718Y-32436603D01*
X154988450Y-32438600D01*
X154991458Y-32440493D01*
X154994204Y-32442747D01*
X154996644Y-32443757D01*
X155005041Y-32449043D01*
X155100278Y-32496662D01*
X155118587Y-32503668D01*
X155122170Y-32503922D01*
X155125491Y-32505298D01*
X155145000Y-32507219D01*
X155335476Y-32507219D01*
X155354985Y-32505298D01*
X155358305Y-32503922D01*
X155361889Y-32503668D01*
X155380197Y-32496662D01*
X155475435Y-32449043D01*
X155483830Y-32443758D01*
X155486272Y-32442747D01*
X155489019Y-32440491D01*
X155492025Y-32438600D01*
X155493755Y-32436605D01*
X155501425Y-32430310D01*
X155549044Y-32382690D01*
X155555336Y-32375023D01*
X155557333Y-32373292D01*
X155559226Y-32370284D01*
X155561481Y-32367537D01*
X155562492Y-32365095D01*
X155567776Y-32356701D01*
X155615395Y-32261464D01*
X155622401Y-32243155D01*
X155622655Y-32239571D01*
X155624031Y-32236251D01*
X155625952Y-32216742D01*
X155625952Y-31407219D01*
X155624031Y-31387710D01*
X155609099Y-31351662D01*
X155581509Y-31324072D01*
X155545461Y-31309140D01*
X155506443Y-31309140D01*
X155470395Y-31324072D01*
X155442805Y-31351662D01*
X155427873Y-31387710D01*
X155425952Y-31407219D01*
X155425952Y-32193135D01*
X155396147Y-32252743D01*
X155371478Y-32277413D01*
X155311869Y-32307219D01*
X155168607Y-32307219D01*
X155108997Y-32277414D01*
X155084330Y-32252746D01*
X155054524Y-32193134D01*
X155054524Y-31407219D01*
X155052603Y-31387710D01*
X155037671Y-31351662D01*
X155010081Y-31324072D01*
X154974033Y-31309140D01*
X154935015Y-31309140D01*
X154898967Y-31324072D01*
X154871377Y-31351662D01*
X154856445Y-31387710D01*
X154854524Y-31407219D01*
X154393266Y-31407219D01*
X154382725Y-31375596D01*
X154374734Y-31357696D01*
X154370049Y-31352294D01*
X154366856Y-31345908D01*
X154357387Y-31337695D01*
X154349169Y-31328220D01*
X154342777Y-31325023D01*
X154337380Y-31320343D01*
X154325486Y-31316378D01*
X154314270Y-31310770D01*
X154307142Y-31310263D01*
X154300364Y-31308004D01*
X154287859Y-31308893D01*
X154275350Y-31308004D01*
X154268568Y-31310264D01*
X154261444Y-31310771D01*
X154250235Y-31316374D01*
X154238334Y-31320342D01*
X154232933Y-31325025D01*
X154226545Y-31328220D01*
X154218329Y-31337691D01*
X154208858Y-31345907D01*
X154205663Y-31352296D01*
X154200980Y-31357696D01*
X154192989Y-31375597D01*
X153859656Y-32375596D01*
X153855309Y-32394712D01*
X153584642Y-32394712D01*
X153644282Y-32335071D01*
X153650574Y-32327404D01*
X153652571Y-32325673D01*
X153654464Y-32322665D01*
X153656719Y-32319918D01*
X153657730Y-32317476D01*
X153663014Y-32309082D01*
X153710633Y-32213845D01*
X153711179Y-32212416D01*
X153711609Y-32211837D01*
X153714530Y-32203660D01*
X153717639Y-32195536D01*
X153717690Y-32194815D01*
X153718204Y-32193377D01*
X153765823Y-32002901D01*
X153766323Y-31999519D01*
X153766888Y-31998156D01*
X153767611Y-31990805D01*
X153768691Y-31983508D01*
X153768473Y-31982049D01*
X153768809Y-31978647D01*
X153768809Y-31835790D01*
X153768473Y-31832387D01*
X153768691Y-31830929D01*
X153767611Y-31823631D01*
X153766888Y-31816281D01*
X153766323Y-31814917D01*
X153765823Y-31811536D01*
X153718204Y-31621060D01*
X153717690Y-31619621D01*
X153717639Y-31618901D01*
X153714530Y-31610776D01*
X153711609Y-31602600D01*
X153711179Y-31602020D01*
X153710633Y-31600592D01*
X153663014Y-31505355D01*
X153657727Y-31496956D01*
X153656718Y-31494519D01*
X153654466Y-31491775D01*
X153652571Y-31488764D01*
X153650573Y-31487031D01*
X153644282Y-31479365D01*
X153549044Y-31384127D01*
X153533890Y-31371691D01*
X153530571Y-31370316D01*
X153527856Y-31367961D01*
X153509955Y-31359970D01*
X153367099Y-31312351D01*
X153357427Y-31310151D01*
X153354985Y-31309140D01*
X153351446Y-31308791D01*
X153347983Y-31308004D01*
X153345349Y-31308191D01*
X153335476Y-31307219D01*
X153240238Y-31307219D01*
X153230364Y-31308191D01*
X153227730Y-31308004D01*
X153224266Y-31308791D01*
X153220729Y-31309140D01*
X153218287Y-31310151D01*
X153208615Y-31312351D01*
X153065758Y-31359970D01*
X153047858Y-31367961D01*
X153045142Y-31370316D01*
X153041823Y-31371691D01*
X153026670Y-31384128D01*
X152979051Y-31431746D01*
X152966615Y-31446900D01*
X152951683Y-31482948D01*
X152723239Y-31482948D01*
X152710633Y-31457736D01*
X152705347Y-31449339D01*
X152704337Y-31446899D01*
X152702083Y-31444153D01*
X152700190Y-31441145D01*
X152698192Y-31439412D01*
X152691900Y-31431746D01*
X152644282Y-31384127D01*
X152636611Y-31377832D01*
X152634882Y-31375838D01*
X152631874Y-31373944D01*
X152629128Y-31371691D01*
X152626688Y-31370680D01*
X152618292Y-31365395D01*
X152523054Y-31317776D01*
X152504746Y-31310770D01*
X152501162Y-31310515D01*
X152497842Y-31309140D01*
X152478333Y-31307219D01*
X152240238Y-31307219D01*
X152230364Y-31308191D01*
X152227730Y-31308004D01*
X152224266Y-31308791D01*
X152220729Y-31309140D01*
X152218287Y-31310151D01*
X152208615Y-31312351D01*
X152065758Y-31359970D01*
X152047858Y-31367961D01*
X152018382Y-31393526D01*
X152000932Y-31428425D01*
X151998166Y-31467345D01*
X152010504Y-31504361D01*
X152036069Y-31533837D01*
X152070968Y-31551287D01*
X152109888Y-31554053D01*
X152129004Y-31549706D01*
X152256464Y-31507219D01*
X152454726Y-31507219D01*
X152514335Y-31537024D01*
X152539004Y-31561692D01*
X152568809Y-31621302D01*
X152568809Y-31669326D01*
X152539004Y-31728935D01*
X152514335Y-31753603D01*
X152443428Y-31789057D01*
X152263603Y-31834014D01*
X152262164Y-31834527D01*
X152261444Y-31834579D01*
X152253319Y-31837687D01*
X152245143Y-31840609D01*
X152244563Y-31841038D01*
X152243135Y-31841585D01*
X152147898Y-31889204D01*
X152139501Y-31894489D01*
X152137061Y-31895500D01*
X152134315Y-31897753D01*
X152131307Y-31899647D01*
X152129574Y-31901644D01*
X152121908Y-31907937D01*
X152074289Y-31955555D01*
X152067994Y-31963225D01*
X152066000Y-31964955D01*
X152064106Y-31967962D01*
X152061853Y-31970709D01*
X152060842Y-31973148D01*
X152055557Y-31981545D01*
X152007938Y-32076783D01*
X152000932Y-32095091D01*
X152000677Y-32098674D01*
X151999302Y-32101995D01*
X151997381Y-32121504D01*
X151695177Y-32121504D01*
X151724366Y-32109413D01*
X151751956Y-32081823D01*
X151766888Y-32045775D01*
X151766888Y-32006757D01*
X151751956Y-31970709D01*
X151724366Y-31943119D01*
X151688318Y-31928187D01*
X151668809Y-31926266D01*
X150906905Y-31926266D01*
X150887396Y-31928187D01*
X150851348Y-31943119D01*
X150823758Y-31970709D01*
X150808826Y-32006757D01*
X150530714Y-32006757D01*
X150530714Y-31407219D01*
X150528793Y-31387710D01*
X150513861Y-31351662D01*
X150486271Y-31324072D01*
X150450223Y-31309140D01*
X150430714Y-31307219D01*
X150049762Y-31307219D01*
X150030253Y-31309140D01*
X150026932Y-31310515D01*
X150023349Y-31310770D01*
X150005040Y-31317776D01*
X149909803Y-31365395D01*
X149901406Y-31370680D01*
X149898966Y-31371691D01*
X149896220Y-31373944D01*
X149893212Y-31375838D01*
X149891479Y-31377835D01*
X149883813Y-31384128D01*
X149836194Y-31431746D01*
X149829899Y-31439416D01*
X149827905Y-31441146D01*
X149826011Y-31444153D01*
X149823758Y-31446900D01*
X149822747Y-31449339D01*
X149817462Y-31457736D01*
X149769843Y-31552974D01*
X149762837Y-31571282D01*
X149762582Y-31574865D01*
X149761207Y-31578186D01*
X149759286Y-31597695D01*
X147340238Y-31597695D01*
X147340238Y-31407219D01*
X147338317Y-31387710D01*
X147323385Y-31351662D01*
X147295795Y-31324072D01*
X147259747Y-31309140D01*
X147220729Y-31309140D01*
X147184681Y-31324072D01*
X147157091Y-31351662D01*
X147142159Y-31387710D01*
X147140238Y-31407219D01*
X145412000Y-31407219D01*
X145412000Y-31196108D01*
X155737063Y-31196108D01*
X155737063Y-32618330D01*
G37*
X167068423Y-61320552D02*
X167068423Y-62130076D01*
X167068423Y-62130076D02*
X167116042Y-62225314D01*
X167116042Y-62225314D02*
X167163661Y-62272933D01*
X167163661Y-62272933D02*
X167258899Y-62320552D01*
X167258899Y-62320552D02*
X167401756Y-62320552D01*
X167401756Y-62320552D02*
X167496994Y-62272933D01*
X167068423Y-61939600D02*
X167163661Y-61987219D01*
X167163661Y-61987219D02*
X167354137Y-61987219D01*
X167354137Y-61987219D02*
X167449375Y-61939600D01*
X167449375Y-61939600D02*
X167496994Y-61891980D01*
X167496994Y-61891980D02*
X167544613Y-61796742D01*
X167544613Y-61796742D02*
X167544613Y-61511028D01*
X167544613Y-61511028D02*
X167496994Y-61415790D01*
X167496994Y-61415790D02*
X167449375Y-61368171D01*
X167449375Y-61368171D02*
X167354137Y-61320552D01*
X167354137Y-61320552D02*
X167163661Y-61320552D01*
X167163661Y-61320552D02*
X167068423Y-61368171D01*
X166592232Y-61987219D02*
X166592232Y-61320552D01*
X166592232Y-60987219D02*
X166639851Y-61034838D01*
X166639851Y-61034838D02*
X166592232Y-61082457D01*
X166592232Y-61082457D02*
X166544613Y-61034838D01*
X166544613Y-61034838D02*
X166592232Y-60987219D01*
X166592232Y-60987219D02*
X166592232Y-61082457D01*
X166258899Y-61320552D02*
X165877947Y-61320552D01*
X166116042Y-60987219D02*
X166116042Y-61844361D01*
X166116042Y-61844361D02*
X166068423Y-61939600D01*
X166068423Y-61939600D02*
X165973185Y-61987219D01*
X165973185Y-61987219D02*
X165877947Y-61987219D01*
X165544613Y-61987219D02*
X165544613Y-60987219D01*
X165116042Y-61987219D02*
X165116042Y-61463409D01*
X165116042Y-61463409D02*
X165163661Y-61368171D01*
X165163661Y-61368171D02*
X165258899Y-61320552D01*
X165258899Y-61320552D02*
X165401756Y-61320552D01*
X165401756Y-61320552D02*
X165496994Y-61368171D01*
X165496994Y-61368171D02*
X165544613Y-61415790D01*
X164211280Y-61320552D02*
X164211280Y-61987219D01*
X164639851Y-61320552D02*
X164639851Y-61844361D01*
X164639851Y-61844361D02*
X164592232Y-61939600D01*
X164592232Y-61939600D02*
X164496994Y-61987219D01*
X164496994Y-61987219D02*
X164354137Y-61987219D01*
X164354137Y-61987219D02*
X164258899Y-61939600D01*
X164258899Y-61939600D02*
X164211280Y-61891980D01*
X163735089Y-61987219D02*
X163735089Y-60987219D01*
X163735089Y-61368171D02*
X163639851Y-61320552D01*
X163639851Y-61320552D02*
X163449375Y-61320552D01*
X163449375Y-61320552D02*
X163354137Y-61368171D01*
X163354137Y-61368171D02*
X163306518Y-61415790D01*
X163306518Y-61415790D02*
X163258899Y-61511028D01*
X163258899Y-61511028D02*
X163258899Y-61796742D01*
X163258899Y-61796742D02*
X163306518Y-61891980D01*
X163306518Y-61891980D02*
X163354137Y-61939600D01*
X163354137Y-61939600D02*
X163449375Y-61987219D01*
X163449375Y-61987219D02*
X163639851Y-61987219D01*
X163639851Y-61987219D02*
X163735089Y-61939600D01*
X162830327Y-61891980D02*
X162782708Y-61939600D01*
X162782708Y-61939600D02*
X162830327Y-61987219D01*
X162830327Y-61987219D02*
X162877946Y-61939600D01*
X162877946Y-61939600D02*
X162830327Y-61891980D01*
X162830327Y-61891980D02*
X162830327Y-61987219D01*
X161925566Y-61939600D02*
X162020804Y-61987219D01*
X162020804Y-61987219D02*
X162211280Y-61987219D01*
X162211280Y-61987219D02*
X162306518Y-61939600D01*
X162306518Y-61939600D02*
X162354137Y-61891980D01*
X162354137Y-61891980D02*
X162401756Y-61796742D01*
X162401756Y-61796742D02*
X162401756Y-61511028D01*
X162401756Y-61511028D02*
X162354137Y-61415790D01*
X162354137Y-61415790D02*
X162306518Y-61368171D01*
X162306518Y-61368171D02*
X162211280Y-61320552D01*
X162211280Y-61320552D02*
X162020804Y-61320552D01*
X162020804Y-61320552D02*
X161925566Y-61368171D01*
X161354137Y-61987219D02*
X161449375Y-61939600D01*
X161449375Y-61939600D02*
X161496994Y-61891980D01*
X161496994Y-61891980D02*
X161544613Y-61796742D01*
X161544613Y-61796742D02*
X161544613Y-61511028D01*
X161544613Y-61511028D02*
X161496994Y-61415790D01*
X161496994Y-61415790D02*
X161449375Y-61368171D01*
X161449375Y-61368171D02*
X161354137Y-61320552D01*
X161354137Y-61320552D02*
X161211280Y-61320552D01*
X161211280Y-61320552D02*
X161116042Y-61368171D01*
X161116042Y-61368171D02*
X161068423Y-61415790D01*
X161068423Y-61415790D02*
X161020804Y-61511028D01*
X161020804Y-61511028D02*
X161020804Y-61796742D01*
X161020804Y-61796742D02*
X161068423Y-61891980D01*
X161068423Y-61891980D02*
X161116042Y-61939600D01*
X161116042Y-61939600D02*
X161211280Y-61987219D01*
X161211280Y-61987219D02*
X161354137Y-61987219D01*
X160592232Y-61987219D02*
X160592232Y-61320552D01*
X160592232Y-61415790D02*
X160544613Y-61368171D01*
X160544613Y-61368171D02*
X160449375Y-61320552D01*
X160449375Y-61320552D02*
X160306518Y-61320552D01*
X160306518Y-61320552D02*
X160211280Y-61368171D01*
X160211280Y-61368171D02*
X160163661Y-61463409D01*
X160163661Y-61463409D02*
X160163661Y-61987219D01*
X160163661Y-61463409D02*
X160116042Y-61368171D01*
X160116042Y-61368171D02*
X160020804Y-61320552D01*
X160020804Y-61320552D02*
X159877947Y-61320552D01*
X159877947Y-61320552D02*
X159782708Y-61368171D01*
X159782708Y-61368171D02*
X159735089Y-61463409D01*
X159735089Y-61463409D02*
X159735089Y-61987219D01*
X158544614Y-60939600D02*
X159401756Y-62225314D01*
X158068423Y-61987219D02*
X158163661Y-61939600D01*
X158163661Y-61939600D02*
X158211280Y-61891980D01*
X158211280Y-61891980D02*
X158258899Y-61796742D01*
X158258899Y-61796742D02*
X158258899Y-61511028D01*
X158258899Y-61511028D02*
X158211280Y-61415790D01*
X158211280Y-61415790D02*
X158163661Y-61368171D01*
X158163661Y-61368171D02*
X158068423Y-61320552D01*
X158068423Y-61320552D02*
X157925566Y-61320552D01*
X157925566Y-61320552D02*
X157830328Y-61368171D01*
X157830328Y-61368171D02*
X157782709Y-61415790D01*
X157782709Y-61415790D02*
X157735090Y-61511028D01*
X157735090Y-61511028D02*
X157735090Y-61796742D01*
X157735090Y-61796742D02*
X157782709Y-61891980D01*
X157782709Y-61891980D02*
X157830328Y-61939600D01*
X157830328Y-61939600D02*
X157925566Y-61987219D01*
X157925566Y-61987219D02*
X158068423Y-61987219D01*
X157354137Y-61939600D02*
X157258899Y-61987219D01*
X157258899Y-61987219D02*
X157068423Y-61987219D01*
X157068423Y-61987219D02*
X156973185Y-61939600D01*
X156973185Y-61939600D02*
X156925566Y-61844361D01*
X156925566Y-61844361D02*
X156925566Y-61796742D01*
X156925566Y-61796742D02*
X156973185Y-61701504D01*
X156973185Y-61701504D02*
X157068423Y-61653885D01*
X157068423Y-61653885D02*
X157211280Y-61653885D01*
X157211280Y-61653885D02*
X157306518Y-61606266D01*
X157306518Y-61606266D02*
X157354137Y-61511028D01*
X157354137Y-61511028D02*
X157354137Y-61463409D01*
X157354137Y-61463409D02*
X157306518Y-61368171D01*
X157306518Y-61368171D02*
X157211280Y-61320552D01*
X157211280Y-61320552D02*
X157068423Y-61320552D01*
X157068423Y-61320552D02*
X156973185Y-61368171D01*
X156639851Y-61320552D02*
X156258899Y-61320552D01*
X156496994Y-60987219D02*
X156496994Y-61844361D01*
X156496994Y-61844361D02*
X156449375Y-61939600D01*
X156449375Y-61939600D02*
X156354137Y-61987219D01*
X156354137Y-61987219D02*
X156258899Y-61987219D01*
X155544613Y-61939600D02*
X155639851Y-61987219D01*
X155639851Y-61987219D02*
X155830327Y-61987219D01*
X155830327Y-61987219D02*
X155925565Y-61939600D01*
X155925565Y-61939600D02*
X155973184Y-61844361D01*
X155973184Y-61844361D02*
X155973184Y-61463409D01*
X155973184Y-61463409D02*
X155925565Y-61368171D01*
X155925565Y-61368171D02*
X155830327Y-61320552D01*
X155830327Y-61320552D02*
X155639851Y-61320552D01*
X155639851Y-61320552D02*
X155544613Y-61368171D01*
X155544613Y-61368171D02*
X155496994Y-61463409D01*
X155496994Y-61463409D02*
X155496994Y-61558647D01*
X155496994Y-61558647D02*
X155973184Y-61653885D01*
X155068422Y-61987219D02*
X155068422Y-61320552D01*
X155068422Y-61511028D02*
X155020803Y-61415790D01*
X155020803Y-61415790D02*
X154973184Y-61368171D01*
X154973184Y-61368171D02*
X154877946Y-61320552D01*
X154877946Y-61320552D02*
X154782708Y-61320552D01*
X154592231Y-61320552D02*
X154211279Y-61320552D01*
X154449374Y-60987219D02*
X154449374Y-61844361D01*
X154449374Y-61844361D02*
X154401755Y-61939600D01*
X154401755Y-61939600D02*
X154306517Y-61987219D01*
X154306517Y-61987219D02*
X154211279Y-61987219D01*
X153449374Y-61987219D02*
X153449374Y-61463409D01*
X153449374Y-61463409D02*
X153496993Y-61368171D01*
X153496993Y-61368171D02*
X153592231Y-61320552D01*
X153592231Y-61320552D02*
X153782707Y-61320552D01*
X153782707Y-61320552D02*
X153877945Y-61368171D01*
X153449374Y-61939600D02*
X153544612Y-61987219D01*
X153544612Y-61987219D02*
X153782707Y-61987219D01*
X153782707Y-61987219D02*
X153877945Y-61939600D01*
X153877945Y-61939600D02*
X153925564Y-61844361D01*
X153925564Y-61844361D02*
X153925564Y-61749123D01*
X153925564Y-61749123D02*
X153877945Y-61653885D01*
X153877945Y-61653885D02*
X153782707Y-61606266D01*
X153782707Y-61606266D02*
X153544612Y-61606266D01*
X153544612Y-61606266D02*
X153449374Y-61558647D01*
X152544612Y-61320552D02*
X152544612Y-62130076D01*
X152544612Y-62130076D02*
X152592231Y-62225314D01*
X152592231Y-62225314D02*
X152639850Y-62272933D01*
X152639850Y-62272933D02*
X152735088Y-62320552D01*
X152735088Y-62320552D02*
X152877945Y-62320552D01*
X152877945Y-62320552D02*
X152973183Y-62272933D01*
X152544612Y-61939600D02*
X152639850Y-61987219D01*
X152639850Y-61987219D02*
X152830326Y-61987219D01*
X152830326Y-61987219D02*
X152925564Y-61939600D01*
X152925564Y-61939600D02*
X152973183Y-61891980D01*
X152973183Y-61891980D02*
X153020802Y-61796742D01*
X153020802Y-61796742D02*
X153020802Y-61511028D01*
X153020802Y-61511028D02*
X152973183Y-61415790D01*
X152973183Y-61415790D02*
X152925564Y-61368171D01*
X152925564Y-61368171D02*
X152830326Y-61320552D01*
X152830326Y-61320552D02*
X152639850Y-61320552D01*
X152639850Y-61320552D02*
X152544612Y-61368171D01*
X151354136Y-60939600D02*
X152211278Y-62225314D01*
X151020802Y-60987219D02*
X151020802Y-61796742D01*
X151020802Y-61796742D02*
X150973183Y-61891980D01*
X150973183Y-61891980D02*
X150925564Y-61939600D01*
X150925564Y-61939600D02*
X150830326Y-61987219D01*
X150830326Y-61987219D02*
X150639850Y-61987219D01*
X150639850Y-61987219D02*
X150544612Y-61939600D01*
X150544612Y-61939600D02*
X150496993Y-61891980D01*
X150496993Y-61891980D02*
X150449374Y-61796742D01*
X150449374Y-61796742D02*
X150449374Y-60987219D01*
X150020802Y-61701504D02*
X149544612Y-61701504D01*
X150116040Y-61987219D02*
X149782707Y-60987219D01*
X149782707Y-60987219D02*
X149449374Y-61987219D01*
X148544612Y-61891980D02*
X148592231Y-61939600D01*
X148592231Y-61939600D02*
X148735088Y-61987219D01*
X148735088Y-61987219D02*
X148830326Y-61987219D01*
X148830326Y-61987219D02*
X148973183Y-61939600D01*
X148973183Y-61939600D02*
X149068421Y-61844361D01*
X149068421Y-61844361D02*
X149116040Y-61749123D01*
X149116040Y-61749123D02*
X149163659Y-61558647D01*
X149163659Y-61558647D02*
X149163659Y-61415790D01*
X149163659Y-61415790D02*
X149116040Y-61225314D01*
X149116040Y-61225314D02*
X149068421Y-61130076D01*
X149068421Y-61130076D02*
X148973183Y-61034838D01*
X148973183Y-61034838D02*
X148830326Y-60987219D01*
X148830326Y-60987219D02*
X148735088Y-60987219D01*
X148735088Y-60987219D02*
X148592231Y-61034838D01*
X148592231Y-61034838D02*
X148544612Y-61082457D01*
X148163659Y-61939600D02*
X148020802Y-61987219D01*
X148020802Y-61987219D02*
X147782707Y-61987219D01*
X147782707Y-61987219D02*
X147687469Y-61939600D01*
X147687469Y-61939600D02*
X147639850Y-61891980D01*
X147639850Y-61891980D02*
X147592231Y-61796742D01*
X147592231Y-61796742D02*
X147592231Y-61701504D01*
X147592231Y-61701504D02*
X147639850Y-61606266D01*
X147639850Y-61606266D02*
X147687469Y-61558647D01*
X147687469Y-61558647D02*
X147782707Y-61511028D01*
X147782707Y-61511028D02*
X147973183Y-61463409D01*
X147973183Y-61463409D02*
X148068421Y-61415790D01*
X148068421Y-61415790D02*
X148116040Y-61368171D01*
X148116040Y-61368171D02*
X148163659Y-61272933D01*
X148163659Y-61272933D02*
X148163659Y-61177695D01*
X148163659Y-61177695D02*
X148116040Y-61082457D01*
X148116040Y-61082457D02*
X148068421Y-61034838D01*
X148068421Y-61034838D02*
X147973183Y-60987219D01*
X147973183Y-60987219D02*
X147735088Y-60987219D01*
X147735088Y-60987219D02*
X147592231Y-61034838D01*
D13*
%TO.C,G\u002A\u002A\u002A*%
G36*
X160816273Y-50984822D02*
G01*
X160821540Y-51214623D01*
X160585869Y-51214623D01*
X160524939Y-51214061D01*
X160397576Y-51207144D01*
X160301882Y-51190778D01*
X160234114Y-51162996D01*
X160190526Y-51121835D01*
X160167377Y-51065328D01*
X160160922Y-50991510D01*
X160163515Y-50936856D01*
X160177259Y-50871935D01*
X160206667Y-50824272D01*
X160256049Y-50791370D01*
X160329714Y-50770733D01*
X160431973Y-50759867D01*
X160567135Y-50756275D01*
X160811005Y-50755022D01*
X160816273Y-50984822D01*
G37*
G36*
X160820385Y-50312726D02*
G01*
X160820385Y-50501772D01*
X160577561Y-50501772D01*
X160490619Y-50501503D01*
X160416173Y-50499846D01*
X160365531Y-50495655D01*
X160331260Y-50487793D01*
X160305928Y-50475120D01*
X160282103Y-50456498D01*
X160277681Y-50452643D01*
X160247017Y-50418569D01*
X160232886Y-50378296D01*
X160229469Y-50316325D01*
X160231409Y-50269072D01*
X160243972Y-50217624D01*
X160272145Y-50178696D01*
X160288373Y-50164074D01*
X160311040Y-50151011D01*
X160343320Y-50142209D01*
X160392191Y-50136512D01*
X160464626Y-50132769D01*
X160567603Y-50129824D01*
X160820385Y-50123680D01*
X160820385Y-50312726D01*
G37*
G36*
X159625300Y-43530695D02*
G01*
X159743384Y-43570224D01*
X159749414Y-43573232D01*
X159845289Y-43640591D01*
X159913826Y-43727005D01*
X159954980Y-43826134D01*
X159968707Y-43931635D01*
X159954962Y-44037166D01*
X159913700Y-44136383D01*
X159844877Y-44222946D01*
X159748449Y-44290512D01*
X159656162Y-44321147D01*
X159545521Y-44328813D01*
X159436214Y-44311177D01*
X159342059Y-44268972D01*
X159312639Y-44247606D01*
X159233755Y-44163992D01*
X159183137Y-44065640D01*
X159160698Y-43959216D01*
X159166352Y-43851387D01*
X159200011Y-43748818D01*
X159261588Y-43658174D01*
X159350995Y-43586122D01*
X159392903Y-43564026D01*
X159508698Y-43528620D01*
X159625300Y-43530695D01*
G37*
G36*
X146024201Y-50275364D02*
G01*
X146041948Y-50308151D01*
X146067725Y-50367160D01*
X146099166Y-50446872D01*
X146133909Y-50541767D01*
X146156543Y-50605686D01*
X146188595Y-50695974D01*
X146214913Y-50769829D01*
X146233243Y-50820936D01*
X146241335Y-50842979D01*
X146227372Y-50848753D01*
X146182864Y-50853659D01*
X146114806Y-50856977D01*
X146030294Y-50858197D01*
X145948623Y-50857691D01*
X145878196Y-50856221D01*
X145830528Y-50854021D01*
X145812999Y-50851323D01*
X145814479Y-50843879D01*
X145825778Y-50806310D01*
X145846017Y-50744896D01*
X145872574Y-50667062D01*
X145902830Y-50580230D01*
X145934164Y-50491823D01*
X145963957Y-50409265D01*
X145989587Y-50339977D01*
X146008435Y-50291383D01*
X146017881Y-50270907D01*
X146024201Y-50275364D01*
G37*
G36*
X159772900Y-44479064D02*
G01*
X159904382Y-44481819D01*
X160021498Y-44485962D01*
X160118464Y-44491494D01*
X160189501Y-44498413D01*
X160228826Y-44506720D01*
X160238107Y-44510650D01*
X160268038Y-44525210D01*
X160292175Y-44542964D01*
X160311141Y-44567726D01*
X160325559Y-44603309D01*
X160336050Y-44653528D01*
X160343238Y-44722196D01*
X160347744Y-44813127D01*
X160350193Y-44930135D01*
X160351205Y-45077033D01*
X160351404Y-45257635D01*
X160351404Y-45868242D01*
X160182571Y-45868242D01*
X160013738Y-45868242D01*
X160013738Y-46571713D01*
X160013738Y-47275184D01*
X159563516Y-47275184D01*
X159113295Y-47275184D01*
X159113295Y-46571713D01*
X159113295Y-45868242D01*
X158944462Y-45868242D01*
X158775629Y-45868242D01*
X158775629Y-45257635D01*
X158775638Y-45204652D01*
X158775998Y-45033651D01*
X158777341Y-44895310D01*
X158780291Y-44785817D01*
X158785469Y-44701356D01*
X158793499Y-44638115D01*
X158805003Y-44592280D01*
X158820603Y-44560036D01*
X158840922Y-44537571D01*
X158866583Y-44521070D01*
X158898207Y-44506720D01*
X158935873Y-44498640D01*
X159006048Y-44491680D01*
X159102326Y-44486107D01*
X159218924Y-44481923D01*
X159350062Y-44479126D01*
X159489958Y-44477718D01*
X159632831Y-44477697D01*
X159772900Y-44479064D01*
G37*
G36*
X166260159Y-45333469D02*
G01*
X166444167Y-45367414D01*
X166608698Y-45428668D01*
X166759048Y-45519290D01*
X166900514Y-45641341D01*
X166950534Y-45693654D01*
X167059290Y-45831965D01*
X167139999Y-45979191D01*
X167194848Y-46141146D01*
X167226025Y-46323646D01*
X167235717Y-46532505D01*
X167235459Y-46569228D01*
X167226927Y-46743965D01*
X167205010Y-46893979D01*
X167167889Y-47028583D01*
X167113746Y-47157088D01*
X167057434Y-47257666D01*
X166938777Y-47411486D01*
X166795213Y-47538978D01*
X166629598Y-47638214D01*
X166444790Y-47707268D01*
X166243642Y-47744211D01*
X166221520Y-47746209D01*
X166019907Y-47750346D01*
X165830170Y-47729199D01*
X165661004Y-47683672D01*
X165640684Y-47675845D01*
X165509836Y-47610487D01*
X165380285Y-47522744D01*
X165260894Y-47420098D01*
X165160526Y-47310031D01*
X165088047Y-47200025D01*
X165059961Y-47145712D01*
X165177211Y-47080721D01*
X165305623Y-47011479D01*
X165411420Y-46958674D01*
X165490355Y-46924476D01*
X165540920Y-46909537D01*
X165561610Y-46914509D01*
X165580168Y-46956170D01*
X165636578Y-47038363D01*
X165710885Y-47113466D01*
X165791581Y-47168758D01*
X165818455Y-47182261D01*
X165867826Y-47203198D01*
X165914719Y-47213992D01*
X165972418Y-47216952D01*
X166054211Y-47214386D01*
X166067567Y-47213721D01*
X166172562Y-47203391D01*
X166252446Y-47182706D01*
X166317984Y-47147702D01*
X166379939Y-47094413D01*
X166423694Y-47044107D01*
X166477396Y-46952052D01*
X166513972Y-46839710D01*
X166534862Y-46702088D01*
X166541505Y-46534194D01*
X166533152Y-46360078D01*
X166504847Y-46201293D01*
X166455958Y-46073059D01*
X166385911Y-45974589D01*
X166294133Y-45905096D01*
X166180051Y-45863794D01*
X166043092Y-45849894D01*
X165967538Y-45853660D01*
X165862176Y-45878207D01*
X165771556Y-45928847D01*
X165689728Y-46009347D01*
X165610741Y-46123471D01*
X165607316Y-46128765D01*
X165596132Y-46138799D01*
X165578305Y-46140535D01*
X165548524Y-46132132D01*
X165501481Y-46111751D01*
X165431868Y-46077552D01*
X165334375Y-46027695D01*
X165286312Y-46002670D01*
X165204381Y-45958611D01*
X165138685Y-45921437D01*
X165094990Y-45894463D01*
X165079063Y-45881001D01*
X165079061Y-45880819D01*
X165090528Y-45852451D01*
X165120741Y-45805130D01*
X165163279Y-45747554D01*
X165211717Y-45688423D01*
X165259631Y-45636439D01*
X165328647Y-45573213D01*
X165487912Y-45463862D01*
X165666976Y-45386066D01*
X165866226Y-45339677D01*
X166086053Y-45324550D01*
X166260159Y-45333469D01*
G37*
G36*
X168478548Y-45333012D02*
G01*
X168619573Y-45350107D01*
X168738134Y-45377911D01*
X168854512Y-45423596D01*
X169019883Y-45520081D01*
X169167276Y-45645224D01*
X169292667Y-45794727D01*
X169392027Y-45964295D01*
X169461331Y-46149630D01*
X169474003Y-46208096D01*
X169487906Y-46320313D01*
X169495403Y-46451075D01*
X169496494Y-46589279D01*
X169491179Y-46723822D01*
X169479458Y-46843603D01*
X169461331Y-46937518D01*
X169421697Y-47055705D01*
X169334942Y-47230177D01*
X169222100Y-47385038D01*
X169087071Y-47515276D01*
X168933753Y-47615878D01*
X168854359Y-47654904D01*
X168746069Y-47697141D01*
X168634351Y-47724966D01*
X168502290Y-47743377D01*
X168451156Y-47747848D01*
X168232231Y-47746764D01*
X168027369Y-47712148D01*
X167838370Y-47644786D01*
X167667033Y-47545468D01*
X167515158Y-47414981D01*
X167384546Y-47254112D01*
X167311565Y-47146643D01*
X167466086Y-47063022D01*
X167497396Y-47046088D01*
X167599512Y-46991199D01*
X167674578Y-46951950D01*
X167727242Y-46926442D01*
X167762156Y-46912776D01*
X167783971Y-46909051D01*
X167797337Y-46913369D01*
X167806905Y-46923830D01*
X167818237Y-46939809D01*
X167848616Y-46982970D01*
X167885507Y-47035615D01*
X167930581Y-47090235D01*
X168026109Y-47162125D01*
X168144064Y-47204710D01*
X168285553Y-47218494D01*
X168378189Y-47213712D01*
X168481460Y-47190869D01*
X168567302Y-47145688D01*
X168645319Y-47074318D01*
X168685486Y-47025124D01*
X168725518Y-46958304D01*
X168753547Y-46881711D01*
X168771285Y-46788496D01*
X168780445Y-46671813D01*
X168782739Y-46524815D01*
X168782453Y-46473946D01*
X168780640Y-46374334D01*
X168776480Y-46300365D01*
X168769031Y-46243654D01*
X168757353Y-46195819D01*
X168740505Y-46148476D01*
X168713779Y-46089427D01*
X168641117Y-45983816D01*
X168547740Y-45909208D01*
X168432487Y-45864826D01*
X168294200Y-45849894D01*
X168229535Y-45852649D01*
X168119419Y-45876281D01*
X168025186Y-45926972D01*
X167941335Y-46008207D01*
X167862365Y-46123471D01*
X167859539Y-46128001D01*
X167848651Y-46138491D01*
X167831293Y-46140678D01*
X167802125Y-46132715D01*
X167755806Y-46112757D01*
X167686996Y-46078958D01*
X167590357Y-46029475D01*
X167545875Y-46006493D01*
X167463197Y-45963555D01*
X167395893Y-45928306D01*
X167349963Y-45903895D01*
X167331407Y-45893475D01*
X167331355Y-45893428D01*
X167337416Y-45875715D01*
X167360342Y-45836077D01*
X167395229Y-45783002D01*
X167410624Y-45761262D01*
X167538656Y-45616652D01*
X167691776Y-45498778D01*
X167867191Y-45409450D01*
X168062109Y-45350479D01*
X168183729Y-45333169D01*
X168328716Y-45327182D01*
X168478548Y-45333012D01*
G37*
G36*
X146758630Y-43882767D02*
G01*
X146966404Y-43933707D01*
X147158538Y-44016045D01*
X147332242Y-44128927D01*
X147484729Y-44271499D01*
X147536376Y-44336572D01*
X147609944Y-44452472D01*
X147678188Y-44584866D01*
X147735031Y-44721608D01*
X147774399Y-44850553D01*
X147806551Y-44986558D01*
X147921025Y-44986558D01*
X148035499Y-44986558D01*
X147754580Y-45267946D01*
X147726216Y-45296260D01*
X147644244Y-45376954D01*
X147571914Y-45446513D01*
X147513392Y-45501033D01*
X147472843Y-45536609D01*
X147454432Y-45549335D01*
X147451076Y-45547911D01*
X147424923Y-45527237D01*
X147378002Y-45485000D01*
X147314479Y-45425102D01*
X147238518Y-45351449D01*
X147154285Y-45267946D01*
X146873365Y-44986558D01*
X146980996Y-44986558D01*
X147027608Y-44984761D01*
X147071627Y-44978189D01*
X147088627Y-44968454D01*
X147085637Y-44946100D01*
X147069203Y-44889789D01*
X147043003Y-44821561D01*
X147012285Y-44754568D01*
X146982297Y-44701965D01*
X146946442Y-44656447D01*
X146849138Y-44576130D01*
X146726121Y-44519810D01*
X146580438Y-44488660D01*
X146415139Y-44483852D01*
X146279000Y-44500548D01*
X146147184Y-44543383D01*
X146037655Y-44613467D01*
X145948202Y-44712744D01*
X145876615Y-44843159D01*
X145820682Y-45006656D01*
X145810432Y-45052572D01*
X145795750Y-45161984D01*
X145787426Y-45290776D01*
X145785494Y-45427684D01*
X145789988Y-45561442D01*
X145800942Y-45680784D01*
X145818388Y-45774446D01*
X145842842Y-45856263D01*
X145912567Y-46023003D01*
X146000477Y-46157021D01*
X146106812Y-46258517D01*
X146231814Y-46327690D01*
X146375721Y-46364738D01*
X146538775Y-46369860D01*
X146585422Y-46365936D01*
X146737674Y-46335547D01*
X146862391Y-46279769D01*
X146959805Y-46198422D01*
X147030150Y-46091329D01*
X147073656Y-45958311D01*
X147096134Y-45849482D01*
X147458186Y-45849482D01*
X147522977Y-45849348D01*
X147636577Y-45849087D01*
X147718725Y-45851023D01*
X147773535Y-45857779D01*
X147805120Y-45871978D01*
X147817595Y-45896246D01*
X147815073Y-45933206D01*
X147801669Y-45985482D01*
X147781496Y-46055698D01*
X147721844Y-46226746D01*
X147621654Y-46417041D01*
X147493912Y-46583955D01*
X147341023Y-46725333D01*
X147165393Y-46839019D01*
X146969428Y-46922858D01*
X146755534Y-46974696D01*
X146734823Y-46977449D01*
X146656428Y-46983193D01*
X146562279Y-46985382D01*
X146468422Y-46983525D01*
X146324132Y-46970949D01*
X146091217Y-46923199D01*
X145876407Y-46843635D01*
X145681534Y-46733827D01*
X145508429Y-46595341D01*
X145358922Y-46429747D01*
X145234844Y-46238612D01*
X145138025Y-46023503D01*
X145070296Y-45785990D01*
X145060321Y-45728573D01*
X145047758Y-45601197D01*
X145042744Y-45456975D01*
X145045241Y-45308808D01*
X145055206Y-45169597D01*
X145072599Y-45052244D01*
X145113333Y-44891163D01*
X145198171Y-44668524D01*
X145310288Y-44470379D01*
X145448479Y-44297931D01*
X145611538Y-44152383D01*
X145798259Y-44034940D01*
X146007436Y-43946805D01*
X146237862Y-43889182D01*
X146307306Y-43878501D01*
X146538001Y-43864080D01*
X146758630Y-43882767D01*
G37*
G36*
X149405937Y-45466756D02*
G01*
X149400820Y-45635952D01*
X149389265Y-45788851D01*
X149371175Y-45915140D01*
X149323025Y-46125402D01*
X149226684Y-46424379D01*
X149100170Y-46704924D01*
X148941762Y-46970189D01*
X148749736Y-47223324D01*
X148522369Y-47467479D01*
X148410353Y-47572253D01*
X148153005Y-47778454D01*
X147881461Y-47950946D01*
X147597039Y-48089046D01*
X147301057Y-48192070D01*
X146994831Y-48259337D01*
X146959884Y-48264380D01*
X146815525Y-48278172D01*
X146649190Y-48285484D01*
X146472564Y-48286405D01*
X146297330Y-48281024D01*
X146135169Y-48269432D01*
X145997766Y-48251717D01*
X145756124Y-48199614D01*
X145450873Y-48100610D01*
X145159605Y-47966880D01*
X144882179Y-47798347D01*
X144618451Y-47594931D01*
X144368279Y-47356555D01*
X144224767Y-47194192D01*
X144039078Y-46938967D01*
X143887198Y-46667806D01*
X143769018Y-46380419D01*
X143684424Y-46076518D01*
X143633304Y-45755814D01*
X143615547Y-45418020D01*
X143616017Y-45370287D01*
X144144119Y-45370287D01*
X144149489Y-45540035D01*
X144162058Y-45707722D01*
X144181259Y-45861664D01*
X144206529Y-45990177D01*
X144279003Y-46226326D01*
X144393958Y-46486992D01*
X144541219Y-46728913D01*
X144721239Y-46952818D01*
X144934471Y-47159436D01*
X145126158Y-47311115D01*
X145380201Y-47473264D01*
X145643593Y-47599215D01*
X145916119Y-47688870D01*
X146197564Y-47742128D01*
X146369192Y-47757757D01*
X146669125Y-47757785D01*
X146958180Y-47721955D01*
X147235898Y-47650434D01*
X147501818Y-47543387D01*
X147755480Y-47400981D01*
X147996425Y-47223381D01*
X148224191Y-47010753D01*
X148297710Y-46931447D01*
X148479963Y-46703655D01*
X148626524Y-46467138D01*
X148738461Y-46219230D01*
X148816843Y-45957265D01*
X148862738Y-45678578D01*
X148877212Y-45380502D01*
X148874477Y-45262338D01*
X148846118Y-44978741D01*
X148786100Y-44711693D01*
X148693268Y-44458393D01*
X148566467Y-44216042D01*
X148404543Y-43981838D01*
X148206341Y-43752980D01*
X148094408Y-43641246D01*
X147917459Y-43488889D01*
X147733203Y-43361221D01*
X147531880Y-43250975D01*
X147506828Y-43238946D01*
X147237665Y-43132329D01*
X146956416Y-43060708D01*
X146665587Y-43024572D01*
X146367683Y-43024408D01*
X146351191Y-43025441D01*
X146058560Y-43060404D01*
X145784801Y-43126459D01*
X145527278Y-43224803D01*
X145283356Y-43356635D01*
X145050397Y-43523154D01*
X144825767Y-43725559D01*
X144800871Y-43750725D01*
X144605507Y-43976426D01*
X144443840Y-44218619D01*
X144315848Y-44477352D01*
X144221507Y-44752671D01*
X144160794Y-45044622D01*
X144157233Y-45071342D01*
X144146511Y-45210162D01*
X144144119Y-45370287D01*
X143616017Y-45370287D01*
X143616720Y-45298992D01*
X143633765Y-45021305D01*
X143672202Y-44763657D01*
X143733580Y-44517355D01*
X143819449Y-44273707D01*
X143933761Y-44029222D01*
X144091872Y-43769429D01*
X144279403Y-43524762D01*
X144492592Y-43298793D01*
X144727673Y-43095094D01*
X144980883Y-42917239D01*
X145248457Y-42768800D01*
X145526631Y-42653351D01*
X145534387Y-42650677D01*
X145835735Y-42565746D01*
X146146045Y-42513346D01*
X146460782Y-42493089D01*
X146775412Y-42504587D01*
X147085401Y-42547450D01*
X147386214Y-42621291D01*
X147673315Y-42725720D01*
X147942172Y-42860349D01*
X148113704Y-42967922D01*
X148373557Y-43165771D01*
X148609592Y-43390467D01*
X148819760Y-43639183D01*
X149002012Y-43909094D01*
X149154301Y-44197372D01*
X149274576Y-44501191D01*
X149360791Y-44817725D01*
X149363983Y-44833344D01*
X149383640Y-44964559D01*
X149397250Y-45120744D01*
X149404715Y-45291582D01*
X149405335Y-45380502D01*
X149405937Y-45466756D01*
G37*
G36*
X162454422Y-45608237D02*
G01*
X162440164Y-45788522D01*
X162414096Y-45957104D01*
X162374317Y-46126331D01*
X162318928Y-46308553D01*
X162246663Y-46504115D01*
X162136338Y-46738315D01*
X162002274Y-46960074D01*
X161840187Y-47176300D01*
X161645791Y-47393901D01*
X161529826Y-47509066D01*
X161275236Y-47726307D01*
X161007243Y-47908701D01*
X160726154Y-48056100D01*
X160432278Y-48168354D01*
X160125919Y-48245315D01*
X159807386Y-48286832D01*
X159712310Y-48292444D01*
X159373294Y-48289845D01*
X159045130Y-48251480D01*
X158728773Y-48177736D01*
X158425176Y-48069001D01*
X158135293Y-47925663D01*
X157860080Y-47748109D01*
X157600491Y-47536728D01*
X157357479Y-47291905D01*
X157273405Y-47191443D01*
X157183976Y-47073240D01*
X157097073Y-46948576D01*
X157020498Y-46828643D01*
X156962053Y-46724634D01*
X156889476Y-46566643D01*
X156794700Y-46299776D01*
X156724003Y-46015882D01*
X156678919Y-45723302D01*
X156660980Y-45430375D01*
X156664613Y-45333997D01*
X157192726Y-45333997D01*
X157201849Y-45630978D01*
X157244582Y-45922719D01*
X157320869Y-46203391D01*
X157394675Y-46387911D01*
X157522379Y-46623707D01*
X157680567Y-46845496D01*
X157865828Y-47050340D01*
X158074749Y-47235301D01*
X158303921Y-47397440D01*
X158549931Y-47533821D01*
X158809369Y-47641503D01*
X159078822Y-47717550D01*
X159207078Y-47739138D01*
X159397539Y-47754847D01*
X159602654Y-47756548D01*
X159811136Y-47744608D01*
X160011697Y-47719395D01*
X160193049Y-47681276D01*
X160223715Y-47672878D01*
X160472553Y-47583909D01*
X160714063Y-47461625D01*
X160944232Y-47309677D01*
X161159049Y-47131719D01*
X161354501Y-46931400D01*
X161526575Y-46712373D01*
X161671261Y-46478290D01*
X161784544Y-46232801D01*
X161860883Y-45992671D01*
X161913378Y-45718262D01*
X161933622Y-45437260D01*
X161921874Y-45155221D01*
X161878392Y-44877705D01*
X161803436Y-44610269D01*
X161697264Y-44358471D01*
X161609952Y-44201550D01*
X161458903Y-43982220D01*
X161283268Y-43776381D01*
X161088197Y-43588834D01*
X160878839Y-43424382D01*
X160660342Y-43287826D01*
X160437856Y-43183969D01*
X160347918Y-43151450D01*
X160074629Y-43076889D01*
X159792953Y-43033910D01*
X159508587Y-43022532D01*
X159227231Y-43042774D01*
X158954584Y-43094654D01*
X158696343Y-43178192D01*
X158570941Y-43232709D01*
X158324211Y-43367546D01*
X158093739Y-43530596D01*
X157882975Y-43718227D01*
X157695371Y-43926804D01*
X157534378Y-44152694D01*
X157403450Y-44392262D01*
X157306036Y-44641876D01*
X157275531Y-44747622D01*
X157217268Y-45037603D01*
X157192726Y-45333997D01*
X156664613Y-45333997D01*
X156671721Y-45145439D01*
X156700405Y-44909762D01*
X156761514Y-44607676D01*
X156849443Y-44327634D01*
X156966138Y-44065449D01*
X157113544Y-43816929D01*
X157293608Y-43577887D01*
X157508274Y-43344131D01*
X157657937Y-43202748D01*
X157904825Y-43004338D01*
X158162072Y-42840275D01*
X158432969Y-42708812D01*
X158720808Y-42608201D01*
X159028878Y-42536696D01*
X159154551Y-42519766D01*
X159306496Y-42508328D01*
X159473979Y-42502438D01*
X159646475Y-42502117D01*
X159813456Y-42507383D01*
X159964398Y-42518256D01*
X160088775Y-42534755D01*
X160162300Y-42548928D01*
X160475737Y-42632233D01*
X160773900Y-42749457D01*
X161055655Y-42899837D01*
X161319868Y-43082609D01*
X161565403Y-43297012D01*
X161791127Y-43542281D01*
X161995904Y-43817653D01*
X162085373Y-43959551D01*
X162222977Y-44222674D01*
X162327859Y-44493902D01*
X162401278Y-44777540D01*
X162444493Y-45077891D01*
X162458765Y-45399261D01*
X162458766Y-45403898D01*
X162458057Y-45437260D01*
X162454422Y-45608237D01*
G37*
G36*
X171190902Y-46616840D02*
G01*
X171166912Y-46990585D01*
X171108169Y-47356310D01*
X171015151Y-47712057D01*
X170888334Y-48055866D01*
X170728198Y-48385779D01*
X170535221Y-48699837D01*
X170309879Y-48996082D01*
X170120735Y-49207926D01*
X169836872Y-49482527D01*
X169537600Y-49723766D01*
X169223641Y-49931228D01*
X168895716Y-50104500D01*
X168554547Y-50243169D01*
X168200856Y-50346819D01*
X167835365Y-50415038D01*
X167756055Y-50424074D01*
X167600276Y-50435249D01*
X167425129Y-50441493D01*
X167241767Y-50442788D01*
X167061347Y-50439114D01*
X166895024Y-50430454D01*
X166753953Y-50416790D01*
X166535296Y-50382162D01*
X166169880Y-50294759D01*
X165817186Y-50172099D01*
X165477396Y-50014271D01*
X165150692Y-49821364D01*
X164837255Y-49593467D01*
X164537267Y-49330669D01*
X164498737Y-49293335D01*
X164244856Y-49018504D01*
X164021658Y-48723551D01*
X163830211Y-48410405D01*
X163671583Y-48080995D01*
X163546843Y-47737251D01*
X163457061Y-47381101D01*
X163430362Y-47233631D01*
X163385407Y-46853730D01*
X163374180Y-46475345D01*
X163377952Y-46411143D01*
X164088026Y-46411143D01*
X164090216Y-46674342D01*
X164093065Y-46745207D01*
X164116016Y-47024690D01*
X164158399Y-47281693D01*
X164222471Y-47525220D01*
X164310491Y-47764274D01*
X164424719Y-48007860D01*
X164514560Y-48169785D01*
X164647012Y-48369922D01*
X164801768Y-48563550D01*
X164985535Y-48759661D01*
X165183677Y-48944485D01*
X165461279Y-49162485D01*
X165751836Y-49345423D01*
X166055811Y-49493549D01*
X166373669Y-49607112D01*
X166705874Y-49686362D01*
X166738228Y-49691746D01*
X166858311Y-49705856D01*
X167002254Y-49716246D01*
X167159882Y-49722722D01*
X167321024Y-49725093D01*
X167475503Y-49723165D01*
X167613147Y-49716746D01*
X167723782Y-49705643D01*
X167799393Y-49693908D01*
X168129007Y-49621698D01*
X168441793Y-49517203D01*
X168739389Y-49379577D01*
X169023432Y-49207977D01*
X169295559Y-49001556D01*
X169557408Y-48759471D01*
X169606094Y-48709242D01*
X169834310Y-48443043D01*
X170028998Y-48160823D01*
X170189690Y-47864157D01*
X170315920Y-47554620D01*
X170407222Y-47233788D01*
X170463128Y-46903235D01*
X170483172Y-46564537D01*
X170466887Y-46219267D01*
X170413807Y-45869002D01*
X170355132Y-45636389D01*
X170249008Y-45342866D01*
X170110725Y-45056873D01*
X169943281Y-44782004D01*
X169749671Y-44521850D01*
X169532895Y-44280005D01*
X169295947Y-44060063D01*
X169041827Y-43865616D01*
X168773530Y-43700258D01*
X168494055Y-43567580D01*
X168301877Y-43496921D01*
X167978800Y-43408490D01*
X167649396Y-43354053D01*
X167317088Y-43333243D01*
X166985299Y-43345692D01*
X166657451Y-43391033D01*
X166336966Y-43468898D01*
X166027267Y-43578921D01*
X165731776Y-43720734D01*
X165453915Y-43893968D01*
X165445152Y-43900202D01*
X165335793Y-43985458D01*
X165212349Y-44092953D01*
X165082215Y-44215293D01*
X164952789Y-44345081D01*
X164831466Y-44474920D01*
X164725642Y-44597415D01*
X164642714Y-44705169D01*
X164545839Y-44853541D01*
X164428535Y-45063481D01*
X164325850Y-45281775D01*
X164245530Y-45493057D01*
X164242325Y-45502856D01*
X164176594Y-45728764D01*
X164129867Y-45948610D01*
X164100794Y-46172651D01*
X164088026Y-46411143D01*
X163377952Y-46411143D01*
X163396148Y-46101479D01*
X163450778Y-45735135D01*
X163537538Y-45379315D01*
X163655894Y-45037021D01*
X163805314Y-44711256D01*
X163985264Y-44405022D01*
X163995748Y-44389224D01*
X164209907Y-44097892D01*
X164450398Y-43824637D01*
X164712880Y-43573289D01*
X164993017Y-43347679D01*
X165286469Y-43151639D01*
X165588899Y-42988998D01*
X165856767Y-42875551D01*
X166198715Y-42765418D01*
X166552472Y-42686812D01*
X166913968Y-42639700D01*
X167279135Y-42624049D01*
X167643904Y-42639827D01*
X168004207Y-42687001D01*
X168355976Y-42765538D01*
X168695142Y-42875406D01*
X169017637Y-43016572D01*
X169245580Y-43141088D01*
X169550850Y-43342276D01*
X169836746Y-43571596D01*
X170101042Y-43826170D01*
X170341515Y-44103120D01*
X170555940Y-44399567D01*
X170742092Y-44712632D01*
X170897748Y-45039436D01*
X171020683Y-45377100D01*
X171108672Y-45722746D01*
X171132708Y-45853125D01*
X171179660Y-46237034D01*
X171189354Y-46564537D01*
X171190902Y-46616840D01*
G37*
G36*
X155717975Y-44280734D02*
G01*
X155824704Y-44576645D01*
X155897926Y-44883382D01*
X155912133Y-44983850D01*
X155924519Y-45131243D01*
X155931217Y-45294675D01*
X155932088Y-45444633D01*
X155932198Y-45463525D01*
X155927435Y-45627173D01*
X155916900Y-45774998D01*
X155900565Y-45896381D01*
X155884730Y-45976111D01*
X155798857Y-46290321D01*
X155678767Y-46591749D01*
X155526071Y-46877971D01*
X155342381Y-47146559D01*
X155129307Y-47395087D01*
X154888463Y-47621130D01*
X154621459Y-47822260D01*
X154441212Y-47933572D01*
X154153945Y-48075112D01*
X153852463Y-48183254D01*
X153540776Y-48256646D01*
X153222896Y-48293937D01*
X153183281Y-48296293D01*
X153118438Y-48300255D01*
X153072822Y-48303175D01*
X153070429Y-48303322D01*
X153013303Y-48303013D01*
X152929227Y-48298213D01*
X152827785Y-48289878D01*
X152718556Y-48278958D01*
X152611124Y-48266408D01*
X152515069Y-48253181D01*
X152439973Y-48240228D01*
X152353791Y-48221171D01*
X152053150Y-48130430D01*
X151761291Y-48004496D01*
X151481001Y-47844900D01*
X151215064Y-47653172D01*
X150966267Y-47430841D01*
X150925086Y-47389337D01*
X150712733Y-47148436D01*
X150535003Y-46895988D01*
X150391182Y-46630243D01*
X150363726Y-46560550D01*
X150960619Y-46560550D01*
X150978787Y-46598138D01*
X151014843Y-46654466D01*
X151064638Y-46724015D01*
X151124022Y-46801265D01*
X151188846Y-46880697D01*
X151254960Y-46956792D01*
X151318215Y-47024028D01*
X151502786Y-47195389D01*
X151741209Y-47375846D01*
X151992329Y-47522066D01*
X152258351Y-47635298D01*
X152541482Y-47716792D01*
X152594371Y-47726129D01*
X152692573Y-47737156D01*
X152811602Y-47745829D01*
X152941823Y-47751845D01*
X153073604Y-47754899D01*
X153197312Y-47754690D01*
X153303312Y-47750913D01*
X153381972Y-47743264D01*
X153395804Y-47741053D01*
X153684078Y-47675301D01*
X153962286Y-47574403D01*
X154226062Y-47440235D01*
X154471042Y-47274677D01*
X154480630Y-47267159D01*
X154559440Y-47199067D01*
X154651639Y-47110993D01*
X154749005Y-47011552D01*
X154843315Y-46909357D01*
X154926344Y-46813024D01*
X154989871Y-46731166D01*
X155054922Y-46634379D01*
X155193479Y-46382404D01*
X155300564Y-46114085D01*
X155373409Y-45835880D01*
X155384852Y-45767635D01*
X155400432Y-45613005D01*
X155406038Y-45444633D01*
X155402191Y-45270960D01*
X155389412Y-45100422D01*
X155368224Y-44941458D01*
X155339149Y-44802506D01*
X155302706Y-44692005D01*
X155277032Y-44631943D01*
X154922771Y-44788987D01*
X154568510Y-44946031D01*
X154572135Y-45125748D01*
X154575760Y-45305465D01*
X154443346Y-45305465D01*
X154310932Y-45305465D01*
X154310932Y-45418020D01*
X154310932Y-45530576D01*
X154442246Y-45530576D01*
X154573561Y-45530576D01*
X154573561Y-45708788D01*
X154573561Y-45887001D01*
X154418262Y-45887001D01*
X154262964Y-45887001D01*
X154228663Y-46020153D01*
X154164662Y-46210652D01*
X154064308Y-46404581D01*
X153936006Y-46577407D01*
X153782539Y-46727185D01*
X153606691Y-46851975D01*
X153411245Y-46949834D01*
X153198985Y-47018819D01*
X152972694Y-47056988D01*
X152735156Y-47062398D01*
X152621168Y-47054534D01*
X152454092Y-47031128D01*
X152303615Y-46992491D01*
X152157724Y-46935993D01*
X152097884Y-46907708D01*
X152062292Y-46885293D01*
X152048601Y-46864707D01*
X152050078Y-46839943D01*
X152056766Y-46810558D01*
X152070076Y-46750762D01*
X152087509Y-46671688D01*
X152107022Y-46582575D01*
X152125153Y-46501492D01*
X152141921Y-46430440D01*
X152154593Y-46381026D01*
X152161325Y-46360783D01*
X152165261Y-46360217D01*
X152196638Y-46365979D01*
X152251621Y-46380463D01*
X152321519Y-46401463D01*
X152361881Y-46413595D01*
X152566083Y-46455590D01*
X152762454Y-46463440D01*
X152948240Y-46437229D01*
X153120689Y-46377042D01*
X153122291Y-46376290D01*
X153251339Y-46298214D01*
X153352761Y-46196765D01*
X153431305Y-46067206D01*
X153433692Y-46062181D01*
X153458517Y-46011191D01*
X153476456Y-45971137D01*
X153484107Y-45940707D01*
X153478068Y-45918589D01*
X153454935Y-45903473D01*
X153411307Y-45894046D01*
X153343780Y-45888996D01*
X153248953Y-45887013D01*
X153123422Y-45886785D01*
X152963786Y-45887001D01*
X152442046Y-45887001D01*
X151705809Y-46213269D01*
X151611288Y-46255198D01*
X151461717Y-46321720D01*
X151325081Y-46382704D01*
X151204945Y-46436546D01*
X151104872Y-46481643D01*
X151028427Y-46516392D01*
X150979174Y-46539189D01*
X150960677Y-46548432D01*
X150960619Y-46560550D01*
X150363726Y-46560550D01*
X150280561Y-46349449D01*
X150202427Y-46051854D01*
X150156068Y-45735709D01*
X150140773Y-45399261D01*
X150141669Y-45347459D01*
X150672469Y-45347459D01*
X150672807Y-45521219D01*
X150681597Y-45682632D01*
X150699199Y-45820794D01*
X150706198Y-45857601D01*
X150723514Y-45932476D01*
X150739706Y-45981105D01*
X150753101Y-45997987D01*
X150764928Y-45993942D01*
X150808369Y-45976238D01*
X150879939Y-45945889D01*
X150976061Y-45904447D01*
X151093160Y-45853465D01*
X151227661Y-45794494D01*
X151375987Y-45729087D01*
X151534565Y-45658794D01*
X152294314Y-45321170D01*
X152288337Y-45144484D01*
X152282360Y-44967799D01*
X152686062Y-44967799D01*
X153089764Y-44967799D01*
X153245437Y-44900045D01*
X153278080Y-44885653D01*
X153344545Y-44855115D01*
X153394200Y-44830593D01*
X153418172Y-44816386D01*
X153421299Y-44809398D01*
X153413503Y-44775848D01*
X153386271Y-44726490D01*
X153310156Y-44629094D01*
X153188881Y-44523992D01*
X153047865Y-44449240D01*
X152889086Y-44405329D01*
X152714522Y-44392750D01*
X152526148Y-44411992D01*
X152325944Y-44463546D01*
X152265910Y-44482165D01*
X152220537Y-44493906D01*
X152200713Y-44495886D01*
X152200116Y-44495117D01*
X152190820Y-44469865D01*
X152175844Y-44417267D01*
X152157082Y-44345280D01*
X152136430Y-44261858D01*
X152115782Y-44174959D01*
X152097032Y-44092537D01*
X152082075Y-44022550D01*
X152072806Y-43972952D01*
X152071119Y-43951700D01*
X152080905Y-43943793D01*
X152122527Y-43925262D01*
X152188181Y-43902977D01*
X152269704Y-43879248D01*
X152358930Y-43856385D01*
X152447696Y-43836697D01*
X152527837Y-43822495D01*
X152533210Y-43821726D01*
X152659404Y-43810619D01*
X152801881Y-43808769D01*
X152947348Y-43815572D01*
X153082513Y-43830426D01*
X153194081Y-43852726D01*
X153367162Y-43912623D01*
X153559396Y-44010265D01*
X153736870Y-44133690D01*
X153892523Y-44277891D01*
X154019295Y-44437863D01*
X154039348Y-44466371D01*
X154070170Y-44503176D01*
X154089910Y-44517577D01*
X154094641Y-44516231D01*
X154127779Y-44503300D01*
X154187347Y-44478605D01*
X154267822Y-44444548D01*
X154363678Y-44403528D01*
X154469391Y-44357947D01*
X154579438Y-44310205D01*
X154688293Y-44262703D01*
X154790431Y-44217841D01*
X154880330Y-44178021D01*
X154952463Y-44145643D01*
X155001307Y-44123108D01*
X155021338Y-44112816D01*
X155017090Y-44102544D01*
X154994226Y-44068003D01*
X154955911Y-44015370D01*
X154906642Y-43950992D01*
X154738304Y-43755553D01*
X154522008Y-43552739D01*
X154288329Y-43380884D01*
X154039466Y-43241380D01*
X153777620Y-43135617D01*
X153504993Y-43064987D01*
X153220556Y-43027297D01*
X152923460Y-43022792D01*
X152632616Y-43053909D01*
X152350461Y-43119909D01*
X152079429Y-43220051D01*
X151821958Y-43353594D01*
X151580482Y-43519798D01*
X151357439Y-43717921D01*
X151265055Y-43815013D01*
X151084693Y-44037764D01*
X150937646Y-44272785D01*
X150821318Y-44524562D01*
X150733115Y-44797582D01*
X150718548Y-44861117D01*
X150695701Y-45006505D01*
X150680221Y-45172253D01*
X150672469Y-45347459D01*
X150141669Y-45347459D01*
X150143363Y-45249530D01*
X150164507Y-44971421D01*
X150208292Y-44712359D01*
X150276343Y-44463980D01*
X150370284Y-44217920D01*
X150467662Y-44017486D01*
X150629917Y-43753250D01*
X150821300Y-43506245D01*
X151038268Y-43279713D01*
X151277279Y-43076896D01*
X151534789Y-42901036D01*
X151807255Y-42755376D01*
X152091136Y-42643158D01*
X152216380Y-42604149D01*
X152369630Y-42563775D01*
X152517525Y-42535055D01*
X152670687Y-42516413D01*
X152839739Y-42506272D01*
X153035304Y-42503056D01*
X153160871Y-42503985D01*
X153331574Y-42510440D01*
X153482614Y-42524279D01*
X153624639Y-42546956D01*
X153768300Y-42579929D01*
X153924247Y-42624656D01*
X153944296Y-42630930D01*
X154233160Y-42741907D01*
X154507611Y-42885561D01*
X154765261Y-43059160D01*
X155003725Y-43259973D01*
X155220614Y-43485268D01*
X155413544Y-43732314D01*
X155580126Y-43998380D01*
X155635995Y-44112816D01*
X155717975Y-44280734D01*
G37*
G36*
X172504794Y-49359211D02*
G01*
X172504951Y-49697505D01*
X172505017Y-50006592D01*
X172504983Y-50287807D01*
X172504841Y-50542486D01*
X172504582Y-50771962D01*
X172504197Y-50977571D01*
X172503677Y-51160649D01*
X172503015Y-51322529D01*
X172502201Y-51464548D01*
X172501226Y-51588040D01*
X172500082Y-51694340D01*
X172498760Y-51784783D01*
X172497252Y-51860704D01*
X172495549Y-51923439D01*
X172493642Y-51974322D01*
X172491522Y-52014689D01*
X172489181Y-52045873D01*
X172486610Y-52069211D01*
X172483801Y-52086038D01*
X172480745Y-52097688D01*
X172477432Y-52105496D01*
X172473855Y-52110798D01*
X172470005Y-52114929D01*
X172468003Y-52116848D01*
X172465067Y-52119034D01*
X172460789Y-52121129D01*
X172454399Y-52123135D01*
X172445127Y-52125054D01*
X172432203Y-52126888D01*
X172414858Y-52128639D01*
X172392322Y-52130308D01*
X172363825Y-52131898D01*
X172328597Y-52133410D01*
X172285870Y-52134846D01*
X172234873Y-52136210D01*
X172174836Y-52137501D01*
X172104990Y-52138722D01*
X172024566Y-52139876D01*
X171932792Y-52140964D01*
X171828900Y-52141988D01*
X171712121Y-52142950D01*
X171581683Y-52143852D01*
X171436818Y-52144696D01*
X171276756Y-52145484D01*
X171100728Y-52146217D01*
X170907962Y-52146898D01*
X170697691Y-52147529D01*
X170469143Y-52148111D01*
X170221550Y-52148647D01*
X169954142Y-52149138D01*
X169666148Y-52149586D01*
X169356800Y-52149994D01*
X169025327Y-52150363D01*
X168670960Y-52150695D01*
X168292930Y-52150993D01*
X167890466Y-52151257D01*
X167462798Y-52151490D01*
X167009158Y-52151695D01*
X166528775Y-52151872D01*
X166020879Y-52152024D01*
X165484702Y-52152152D01*
X164919473Y-52152259D01*
X164324422Y-52152347D01*
X163698781Y-52152418D01*
X163041778Y-52152473D01*
X162352645Y-52152514D01*
X161630611Y-52152543D01*
X160874908Y-52152563D01*
X160084765Y-52152575D01*
X159259413Y-52152582D01*
X158398081Y-52152584D01*
X157500001Y-52152584D01*
X156739091Y-52152584D01*
X155872098Y-52152582D01*
X155041203Y-52152577D01*
X154245638Y-52152566D01*
X153484631Y-52152547D01*
X152757415Y-52152519D01*
X152063218Y-52152480D01*
X151401271Y-52152427D01*
X150770805Y-52152359D01*
X150171050Y-52152274D01*
X149601236Y-52152170D01*
X149060593Y-52152045D01*
X148548352Y-52151897D01*
X148063742Y-52151724D01*
X147605996Y-52151524D01*
X147174341Y-52151295D01*
X146768010Y-52151036D01*
X146386232Y-52150744D01*
X146028237Y-52150417D01*
X145693256Y-52150054D01*
X145380519Y-52149652D01*
X145089257Y-52149210D01*
X144818699Y-52148726D01*
X144568076Y-52148197D01*
X144336619Y-52147622D01*
X144123557Y-52146999D01*
X143928121Y-52146326D01*
X143749541Y-52145601D01*
X143587047Y-52144822D01*
X143439871Y-52143987D01*
X143307241Y-52143094D01*
X143188389Y-52142142D01*
X143082544Y-52141128D01*
X142988938Y-52140050D01*
X142906799Y-52138906D01*
X142835360Y-52137695D01*
X142773849Y-52136415D01*
X142721497Y-52135063D01*
X142677534Y-52133638D01*
X142641192Y-52132138D01*
X142611699Y-52130560D01*
X142588287Y-52128904D01*
X142570186Y-52127166D01*
X142556625Y-52125345D01*
X142546836Y-52123439D01*
X142540048Y-52121447D01*
X142535492Y-52119366D01*
X142532398Y-52117194D01*
X142529997Y-52114929D01*
X142529104Y-52114030D01*
X142525316Y-52109752D01*
X142521800Y-52104001D01*
X142518546Y-52095443D01*
X142515546Y-52082741D01*
X142512791Y-52064562D01*
X142510273Y-52039570D01*
X142507983Y-52006430D01*
X142505912Y-51963807D01*
X142504051Y-51910367D01*
X142502393Y-51844773D01*
X142500927Y-51765691D01*
X142499647Y-51671787D01*
X142498542Y-51561724D01*
X142498068Y-51497319D01*
X145213135Y-51497319D01*
X145403662Y-51491975D01*
X145594189Y-51486632D01*
X145653567Y-51308419D01*
X145712945Y-51130206D01*
X146023880Y-51125071D01*
X146334814Y-51119935D01*
X146364820Y-51200108D01*
X146376853Y-51232907D01*
X146403606Y-51308419D01*
X146429256Y-51383456D01*
X146463688Y-51486632D01*
X146644843Y-51492001D01*
X146693617Y-51493189D01*
X146761780Y-51493815D01*
X146808598Y-51492870D01*
X146825998Y-51490424D01*
X146820660Y-51475029D01*
X146803268Y-51427735D01*
X146775074Y-51352015D01*
X146737387Y-51251355D01*
X146691513Y-51129240D01*
X146638762Y-50989157D01*
X146627778Y-50960047D01*
X146885754Y-50960047D01*
X146892408Y-51098385D01*
X146931409Y-51222142D01*
X147001761Y-51326853D01*
X147102260Y-51411196D01*
X147231703Y-51473847D01*
X147297444Y-51490424D01*
X147388888Y-51513482D01*
X147491625Y-51525279D01*
X147664884Y-51523057D01*
X147827551Y-51493421D01*
X147973344Y-51437758D01*
X148095978Y-51357454D01*
X148143787Y-51304575D01*
X148195337Y-51220777D01*
X148236844Y-51125258D01*
X148261352Y-51031720D01*
X148273757Y-50951994D01*
X148093895Y-50951994D01*
X148069264Y-50952005D01*
X147994738Y-50952710D01*
X147948943Y-50955758D01*
X147924888Y-50962866D01*
X147915582Y-50975747D01*
X147914033Y-50996117D01*
X147907718Y-51031426D01*
X147876581Y-51093986D01*
X147827240Y-51154749D01*
X147768480Y-51201328D01*
X147759958Y-51206079D01*
X147669601Y-51237726D01*
X147564580Y-51249053D01*
X147456905Y-51240856D01*
X147358587Y-51213931D01*
X147281635Y-51169073D01*
X147260480Y-51148677D01*
X147236478Y-51106157D01*
X147230174Y-51045790D01*
X147235766Y-50995836D01*
X147260042Y-50946103D01*
X147307842Y-50904495D01*
X147383784Y-50867224D01*
X147410502Y-50858197D01*
X151548225Y-50858197D01*
X151560190Y-50947304D01*
X151560555Y-50949963D01*
X151561102Y-50951994D01*
X151596001Y-51081564D01*
X151661376Y-51207875D01*
X151750421Y-51320919D01*
X151856877Y-51412718D01*
X151974484Y-51475296D01*
X151975756Y-51475770D01*
X152133315Y-51516651D01*
X152295712Y-51526484D01*
X152456166Y-51506731D01*
X152607899Y-51458856D01*
X152744132Y-51384321D01*
X152858087Y-51284590D01*
X152868765Y-51272520D01*
X152960601Y-51145776D01*
X153023733Y-51007139D01*
X153060281Y-50850526D01*
X153072269Y-50671284D01*
X153335451Y-50671284D01*
X153335451Y-51497370D01*
X153516753Y-51492001D01*
X153698054Y-51486632D01*
X154042011Y-50933450D01*
X154385968Y-50380267D01*
X154385968Y-50938139D01*
X154385968Y-51496011D01*
X154554802Y-51496011D01*
X154723635Y-51496011D01*
X154723635Y-50669926D01*
X154723635Y-49853330D01*
X158156574Y-49853330D01*
X158158654Y-49857749D01*
X158176215Y-49888909D01*
X158209729Y-49946415D01*
X158256866Y-50026326D01*
X158315297Y-50124701D01*
X158382692Y-50237598D01*
X158456722Y-50361078D01*
X158642265Y-50669926D01*
X158756870Y-50860694D01*
X158756870Y-51178353D01*
X158756870Y-51496011D01*
X158935082Y-51496011D01*
X159113295Y-51496011D01*
X159113295Y-51175485D01*
X159113295Y-50988557D01*
X159795194Y-50988557D01*
X159806295Y-51113898D01*
X159822594Y-51170284D01*
X159881199Y-51280449D01*
X159969431Y-51368998D01*
X160085652Y-51434526D01*
X160228225Y-51475628D01*
X160241345Y-51477652D01*
X160303954Y-51483505D01*
X160394315Y-51488551D01*
X160505053Y-51492507D01*
X160628797Y-51495088D01*
X160758173Y-51496011D01*
X161176810Y-51496011D01*
X161176810Y-50669486D01*
X161176810Y-49842961D01*
X160675001Y-49848770D01*
X160637375Y-49849212D01*
X160493345Y-49851161D01*
X160380737Y-49853400D01*
X160345908Y-49854578D01*
X160294582Y-49856314D01*
X160229913Y-49860291D01*
X160181762Y-49865717D01*
X160145162Y-49872979D01*
X160115144Y-49882464D01*
X160086740Y-49894557D01*
X160063313Y-49906863D01*
X159997979Y-49953224D01*
X159946262Y-50005370D01*
X159925576Y-50034629D01*
X159903721Y-50079175D01*
X159891683Y-50133607D01*
X159885391Y-50211722D01*
X159886123Y-50306376D01*
X159905606Y-50400952D01*
X159948615Y-50476401D01*
X160018253Y-50540404D01*
X160091460Y-50593436D01*
X160016895Y-50631476D01*
X159946339Y-50677655D01*
X159867986Y-50764091D01*
X159816681Y-50869840D01*
X159795194Y-50988557D01*
X159113295Y-50988557D01*
X159113295Y-50854959D01*
X159413441Y-50354769D01*
X159713588Y-49854578D01*
X159532022Y-49849169D01*
X159485268Y-49848071D01*
X159411260Y-49847649D01*
X159355935Y-49849041D01*
X159328696Y-49852110D01*
X159328161Y-49852375D01*
X159311098Y-49872549D01*
X159278846Y-49919729D01*
X159234705Y-49988762D01*
X159181978Y-50074494D01*
X159123963Y-50171771D01*
X159118147Y-50181649D01*
X159061225Y-50276468D01*
X159010422Y-50357887D01*
X158968873Y-50421117D01*
X158939714Y-50461372D01*
X158926080Y-50473866D01*
X158925753Y-50473626D01*
X158910966Y-50453471D01*
X158880718Y-50406354D01*
X158838201Y-50337445D01*
X158786607Y-50251912D01*
X158729128Y-50154925D01*
X158547088Y-49845199D01*
X158351831Y-49845199D01*
X158290371Y-49845614D01*
X158221229Y-49847299D01*
X158174035Y-49849979D01*
X158156574Y-49853330D01*
X154723635Y-49853330D01*
X154723635Y-49843840D01*
X154542333Y-49849209D01*
X154361032Y-49854578D01*
X154017075Y-50407761D01*
X153673118Y-50960943D01*
X153673118Y-50403071D01*
X153673118Y-49845199D01*
X153504285Y-49845199D01*
X153335451Y-49845199D01*
X153335451Y-50669857D01*
X153335451Y-50671284D01*
X153072269Y-50671284D01*
X153072364Y-50669857D01*
X153066336Y-50546714D01*
X153031628Y-50367542D01*
X152967208Y-50207818D01*
X152874368Y-50069772D01*
X152754396Y-49955633D01*
X152608581Y-49867633D01*
X152592218Y-49860072D01*
X152544830Y-49840601D01*
X152499314Y-49828059D01*
X152445826Y-49820952D01*
X152374521Y-49817784D01*
X152275555Y-49817060D01*
X152249093Y-49817092D01*
X152157174Y-49818306D01*
X152090702Y-49822343D01*
X152039922Y-49830650D01*
X151995077Y-49844671D01*
X151946412Y-49865855D01*
X151846371Y-49921073D01*
X151729494Y-50017268D01*
X151642299Y-50135317D01*
X151583045Y-50277188D01*
X151570833Y-50318838D01*
X151558216Y-50363496D01*
X151553324Y-50383242D01*
X151558982Y-50384742D01*
X151593827Y-50387042D01*
X151653399Y-50388627D01*
X151729504Y-50389217D01*
X151742871Y-50389213D01*
X151820524Y-50388564D01*
X151869235Y-50385521D01*
X151896542Y-50378258D01*
X151909981Y-50364947D01*
X151917090Y-50343764D01*
X151924241Y-50322547D01*
X151965276Y-50256126D01*
X152028183Y-50192455D01*
X152102765Y-50142580D01*
X152108270Y-50139854D01*
X152205287Y-50111390D01*
X152314258Y-50108433D01*
X152421589Y-50129918D01*
X152513691Y-50174780D01*
X152588607Y-50241987D01*
X152653520Y-50342697D01*
X152694665Y-50469297D01*
X152713097Y-50624159D01*
X152714641Y-50681674D01*
X152707416Y-50816148D01*
X152681815Y-50926397D01*
X152635601Y-51019736D01*
X152566538Y-51103480D01*
X152544778Y-51124029D01*
X152444769Y-51191994D01*
X152338766Y-51227527D01*
X152232425Y-51231860D01*
X152131403Y-51206227D01*
X152041357Y-51151861D01*
X151967942Y-51069994D01*
X151916816Y-50961860D01*
X151884139Y-50858197D01*
X151716182Y-50858197D01*
X151548225Y-50858197D01*
X147410502Y-50858197D01*
X147492486Y-50830498D01*
X147497223Y-50829087D01*
X147597896Y-50799105D01*
X147709017Y-50766020D01*
X147807385Y-50736739D01*
X147847187Y-50724228D01*
X147981220Y-50668419D01*
X148081687Y-50600054D01*
X148150761Y-50516712D01*
X148190613Y-50415975D01*
X148203414Y-50295420D01*
X148202944Y-50270232D01*
X148183961Y-50150647D01*
X148134793Y-50049043D01*
X148052096Y-49957960D01*
X148021618Y-49932119D01*
X147953721Y-49883687D01*
X147884125Y-49850594D01*
X147803951Y-49830211D01*
X147704324Y-49819910D01*
X147576367Y-49817060D01*
X147530998Y-49817151D01*
X147442519Y-49818580D01*
X147378388Y-49822806D01*
X147329268Y-49831172D01*
X147285818Y-49845025D01*
X147238701Y-49865710D01*
X147140648Y-49921740D01*
X147042075Y-50010349D01*
X146976606Y-50116518D01*
X146944317Y-50240151D01*
X146933327Y-50332939D01*
X147104050Y-50332939D01*
X147274773Y-50332939D01*
X147294177Y-50260881D01*
X147294535Y-50259562D01*
X147330498Y-50181810D01*
X147390803Y-50127749D01*
X147478122Y-50095812D01*
X147595127Y-50084433D01*
X147616097Y-50084564D01*
X147717973Y-50099038D01*
X147793919Y-50135507D01*
X147841369Y-50192184D01*
X147857756Y-50267282D01*
X147857633Y-50275706D01*
X147851454Y-50317989D01*
X147832981Y-50353624D01*
X147798113Y-50384851D01*
X147742749Y-50413912D01*
X147662789Y-50443046D01*
X147554133Y-50474494D01*
X147412679Y-50510499D01*
X147263293Y-50553446D01*
X147127276Y-50610003D01*
X147023822Y-50676972D01*
X146950623Y-50756322D01*
X146905370Y-50850024D01*
X146885754Y-50960047D01*
X146627778Y-50960047D01*
X146580440Y-50834591D01*
X146517855Y-50669029D01*
X146209711Y-49854578D01*
X146022984Y-49849257D01*
X145954767Y-49847702D01*
X145891839Y-49848248D01*
X145853724Y-49852703D01*
X145833212Y-49862081D01*
X145823091Y-49877396D01*
X145819942Y-49885606D01*
X145804541Y-49926286D01*
X145778137Y-49996296D01*
X145742176Y-50091794D01*
X145698103Y-50208939D01*
X145647363Y-50343890D01*
X145591402Y-50492806D01*
X145531664Y-50651846D01*
X145502028Y-50730759D01*
X145443484Y-50886597D01*
X145389169Y-51031117D01*
X145340575Y-51160351D01*
X145299196Y-51270333D01*
X145266523Y-51357093D01*
X145244051Y-51416664D01*
X145233270Y-51445077D01*
X145213135Y-51497319D01*
X142498068Y-51497319D01*
X142497604Y-51434169D01*
X142496825Y-51287785D01*
X142496195Y-51121238D01*
X142495707Y-50933193D01*
X142495351Y-50722315D01*
X142495119Y-50487269D01*
X142495002Y-50226720D01*
X142494991Y-49939332D01*
X142495078Y-49623771D01*
X142495255Y-49278702D01*
X142495431Y-49019793D01*
X142755245Y-49019793D01*
X153078748Y-49019793D01*
X163402250Y-49019793D01*
X163446308Y-49099519D01*
X163511987Y-49210977D01*
X163630818Y-49389361D01*
X163768753Y-49574973D01*
X163918927Y-49759135D01*
X164074477Y-49933170D01*
X164228538Y-50088399D01*
X164384431Y-50229570D01*
X164702854Y-50481358D01*
X164991494Y-50669486D01*
X165038696Y-50700251D01*
X165392650Y-50886594D01*
X165765405Y-51040732D01*
X166157655Y-51163007D01*
X166570090Y-51253765D01*
X166598648Y-51258695D01*
X166695274Y-51272947D01*
X166796218Y-51283536D01*
X166909775Y-51291056D01*
X167044238Y-51296098D01*
X167207903Y-51299254D01*
X167264402Y-51300002D01*
X167391238Y-51301481D01*
X167491051Y-51301910D01*
X167571455Y-51300881D01*
X167640066Y-51297985D01*
X167704500Y-51292815D01*
X167772373Y-51284964D01*
X167851298Y-51274023D01*
X167948893Y-51259586D01*
X168046797Y-51243885D01*
X168442508Y-51157212D01*
X168825272Y-51035631D01*
X169193728Y-50879854D01*
X169546514Y-50690592D01*
X169882271Y-50468554D01*
X170199636Y-50214452D01*
X170497248Y-49928995D01*
X170601563Y-49815662D01*
X170776760Y-49606337D01*
X170935553Y-49392242D01*
X171069483Y-49184384D01*
X171166101Y-49020688D01*
X171705577Y-49020240D01*
X172245053Y-49019793D01*
X172240215Y-45554025D01*
X172235378Y-42088256D01*
X172193539Y-42029602D01*
X172191591Y-42026931D01*
X172143556Y-41977907D01*
X172087528Y-41940495D01*
X172086825Y-41940185D01*
X172080349Y-41938334D01*
X172069564Y-41936559D01*
X172053697Y-41934860D01*
X172031976Y-41933234D01*
X172003629Y-41931681D01*
X171967883Y-41930198D01*
X171923967Y-41928783D01*
X171871107Y-41927436D01*
X171808533Y-41926154D01*
X171735470Y-41924936D01*
X171651147Y-41923780D01*
X171554792Y-41922685D01*
X171445633Y-41921649D01*
X171322896Y-41920671D01*
X171185810Y-41919748D01*
X171033603Y-41918880D01*
X170865502Y-41918064D01*
X170680734Y-41917299D01*
X170478528Y-41916584D01*
X170258111Y-41915917D01*
X170018711Y-41915295D01*
X169759556Y-41914719D01*
X169479873Y-41914185D01*
X169178890Y-41913692D01*
X168855835Y-41913240D01*
X168509935Y-41912825D01*
X168140418Y-41912447D01*
X167746512Y-41912104D01*
X167327444Y-41911794D01*
X166882443Y-41911516D01*
X166410735Y-41911267D01*
X165911549Y-41911048D01*
X165384112Y-41910855D01*
X164827652Y-41910687D01*
X164241396Y-41910543D01*
X163624573Y-41910421D01*
X162976410Y-41910320D01*
X162296134Y-41910237D01*
X161582974Y-41910171D01*
X160836157Y-41910121D01*
X160054911Y-41910085D01*
X159238463Y-41910061D01*
X158386041Y-41910048D01*
X157496873Y-41910044D01*
X156792905Y-41910045D01*
X155936038Y-41910050D01*
X155115290Y-41910061D01*
X154329881Y-41910080D01*
X153579030Y-41910109D01*
X152861955Y-41910150D01*
X152177875Y-41910204D01*
X151526010Y-41910274D01*
X150905579Y-41910360D01*
X150315800Y-41910466D01*
X149755893Y-41910593D01*
X149225076Y-41910743D01*
X148722569Y-41910917D01*
X148247590Y-41911118D01*
X147799359Y-41911347D01*
X147377094Y-41911607D01*
X146980014Y-41911898D01*
X146607339Y-41912224D01*
X146258287Y-41912586D01*
X145932078Y-41912985D01*
X145627930Y-41913424D01*
X145345062Y-41913904D01*
X145082694Y-41914428D01*
X144840044Y-41914996D01*
X144616331Y-41915612D01*
X144410775Y-41916277D01*
X144222594Y-41916992D01*
X144051007Y-41917760D01*
X143895233Y-41918583D01*
X143754492Y-41919462D01*
X143628002Y-41920399D01*
X143514982Y-41921396D01*
X143414652Y-41922455D01*
X143326229Y-41923578D01*
X143248934Y-41924766D01*
X143181985Y-41926022D01*
X143124602Y-41927347D01*
X143076002Y-41928744D01*
X143035406Y-41930214D01*
X143002031Y-41931758D01*
X142975098Y-41933380D01*
X142953825Y-41935080D01*
X142937431Y-41936860D01*
X142925135Y-41938723D01*
X142916156Y-41940670D01*
X142909714Y-41942704D01*
X142905026Y-41944825D01*
X142892271Y-41952482D01*
X142839957Y-41997659D01*
X142797762Y-42052691D01*
X142755862Y-42125775D01*
X142755553Y-45572784D01*
X142755245Y-49019793D01*
X142495431Y-49019793D01*
X142495511Y-48902789D01*
X142495840Y-48494699D01*
X142496231Y-48053094D01*
X142496677Y-47576642D01*
X142497168Y-47064006D01*
X142501995Y-42050738D01*
X142552378Y-41955253D01*
X142588719Y-41895687D01*
X142687414Y-41786974D01*
X142816734Y-41699118D01*
X142895939Y-41656794D01*
X157500001Y-41656794D01*
X172104063Y-41656794D01*
X172183268Y-41699118D01*
X172255309Y-41742675D01*
X172360914Y-41834756D01*
X172442735Y-41950960D01*
X172498007Y-42050738D01*
X172502834Y-47064006D01*
X172502948Y-47182907D01*
X172503430Y-47687262D01*
X172503864Y-48155735D01*
X172504242Y-48589661D01*
X172504555Y-48990374D01*
X172504574Y-49019793D01*
X172504794Y-49359211D01*
G37*
%TD*%
%LPC*%
D14*
%TO.C,SP_Conn1*%
X162200000Y-30300000D03*
D15*
X163450000Y-30300000D03*
%TD*%
D16*
%TO.C,USB-C1*%
X176225000Y-51380000D03*
X176225000Y-45600000D03*
D17*
X175725000Y-52810000D03*
D18*
X179905000Y-52810000D03*
D17*
X175725000Y-44170000D03*
D18*
X179905000Y-44170000D03*
%TD*%
D19*
%TO.C,H2*%
X167170000Y-59230000D03*
%TD*%
D20*
%TO.C,BOOT1*%
X135000000Y-58500000D03*
X135000000Y-61500000D03*
%TD*%
D21*
%TO.C,RESET1*%
X139400000Y-69200000D03*
X139400000Y-75700000D03*
X134900000Y-69200000D03*
X134900000Y-75700000D03*
%TD*%
D19*
%TO.C,H3*%
X148100000Y-75300000D03*
%TD*%
D22*
%TO.C,TP1*%
X159150000Y-53030000D03*
%TD*%
%TO.C,TP3*%
X173430000Y-32910000D03*
%TD*%
D19*
%TO.C,H1*%
X143900153Y-33950000D03*
%TD*%
D23*
%TO.C,SWD1*%
X176070000Y-62410000D03*
D22*
X177340000Y-62410000D03*
X176070000Y-61140000D03*
X177340000Y-61140000D03*
X176070000Y-59870000D03*
X177340000Y-59870000D03*
X176070000Y-58600000D03*
X177340000Y-58600000D03*
X176070000Y-57330000D03*
X177340000Y-57330000D03*
%TD*%
D24*
%TO.C,RC522*%
X154370000Y-81800000D03*
D25*
X151830000Y-81800000D03*
X149290000Y-81800000D03*
X146750000Y-81800000D03*
X144210000Y-81800000D03*
X141670000Y-81800000D03*
X139130000Y-81800000D03*
X136590000Y-81800000D03*
%TD*%
D22*
%TO.C,TP5*%
X147950000Y-53450000D03*
%TD*%
%TO.C,TP4*%
X164210000Y-53050000D03*
%TD*%
%TO.C,TP2*%
X167750000Y-56600000D03*
%TD*%
D26*
%TO.C,RJ12*%
X169820000Y-78120000D03*
X179980000Y-78120000D03*
D27*
X171720000Y-69230000D03*
D28*
X172990000Y-71770000D03*
X174260000Y-69230000D03*
X175530000Y-71770000D03*
X176800000Y-69230000D03*
X178070000Y-71770000D03*
%TD*%
%LPD*%
M02*
