#VRML V2.0 utf8
# 3D model generated by easyeda2kicad.py (https://github.com/uPesy/easyeda2kicad.py)

Shape{
    appearance Appearance {
        material  Material 	{
            diffuseColor 0.20784313725490197 0.20784313725490197 0.20784313725490197
            specularColor 0.01568627450980392 0.01568627450980392 0.01568627450980392
            ambientIntensity 0.298
            transparency 0.0
            shininess 0.5
        }
    }
    geometry IndexedFaceSet {
        ccw TRUE
        solid FALSE
        coord DEF co Coordinate {
            point [
                -2.4705 -0.9843 0.0, -2.4705 -0.6565 0.0, -0.75 -0.6565 0.0, -2.4705 -0.083 0.0, -2.4705 0.1443 0.0, -0.75 0.1443 0.0, 0.5787 0.3287 0.0, 0.4213 0.3287 0.0, 0.4039 0.9843 0.0, -0.0787 0.1713 0.0, -0.0408 0.1713 0.0, -0.0408 0.1443 0.0, 0.1685 0.0958 0.0, 0.1879 0.0937 0.0, 0.126 -0.052 0.0, 0.1446 0.0927 0.0, 0.1224 -0.05 0.0, 0.1224 0.0832 0.0, 0.0814 0.1443 0.0, 0.1224 0.1096 0.0, 0.1633 -0.083 0.0, 0.084 -0.0818 0.0, 0.1434 -0.0802 0.0, 0.1224 -0.0716 0.0, 0.2009 -0.0817 0.0, 0.2199 -0.0751 0.0, 0.2773 -0.083 0.0, 0.2358 -0.065 0.0, 0.2506 -0.0495 0.0, 0.266 0.0409 0.0, 0.2585 0.0632 0.0, 0.2773 0.1443 0.0, 0.2469 0.0816 0.0, 0.2292 0.0987 0.0, 0.2105 0.1094 0.0, 0.2026 0.0883 0.0, 0.2163 0.0792 0.0, 0.2282 0.0661 0.0, 0.2425 0.0145 0.0, 0.2405 -0.0068 0.0, 0.2351 -0.0237 0.0, 0.1913 -0.0606 0.0, 0.173 -0.0626 0.0, 0.2057 -0.0553 0.0, 0.2177 -0.0471 0.0, 0.227 -0.0374 0.0, 0.1468 -0.0597 0.0, 0.2363 0.0509 0.0, 0.2415 0.0298 0.0, 0.261 -0.0307 0.0, 0.267 -0.0099 0.0, 0.2689 0.0129 0.0, 0.1885 0.1158 0.0, 0.1688 0.1174 0.0, 0.1452 0.1158 0.0, 0.0814 -0.0818 0.0, 0.0814 -0.083 0.0, 0.0814 -0.6565 0.0, 0.1712 -0.0841 0.0, 0.2773 -0.6565 0.0, 0.1766 -0.0842 0.0, 0.1882 -0.083 0.0, -0.0216 -0.0818 0.0, -0.0408 -0.083 0.0, -0.0216 -0.0602 0.0, -0.0168 0.0934 0.0, 0.084 0.115 0.0, 0.0814 0.115 0.0, -0.0168 0.115 0.0, 0.0576 0.007 0.0, 0.0576 -0.0602 0.0, -0.012 0.007 0.0, -0.012 0.0286 0.0, 0.0576 0.0286 0.0, 0.0576 0.0934 0.0, 0.0787 0.1713 0.0, 0.0787 0.3287 0.0, -0.0787 -0.3287 0.0, -0.2257 -0.6565 0.0, -0.0787 -0.1713 0.0, -0.2257 -0.083 0.0, -0.0408 -0.1713 0.0, 0.0787 -0.1713 0.0, 0.0787 -0.3287 0.0, -0.0408 -0.3287 0.0, -0.0408 -0.6565 0.0, -0.9213 0.3287 0.0, -0.75 0.9843 0.0, -2.4705 0.9843 0.0, -1.0787 0.3287 0.0, -1.0787 0.1713 0.0, -0.9213 0.1713 0.0, -0.4159 0.1443 0.0, -0.4213 0.1713 0.0, -0.4213 0.3287 0.0, -0.5787 0.1713 0.0, -0.5787 0.3287 0.0, -0.4159 0.9843 0.0, -0.2257 0.9843 0.0, -0.2257 0.1443 0.0, -0.0787 0.3287 0.0, -0.0408 0.3287 0.0, -0.0408 0.9843 0.0, 0.0814 0.9843 0.0, 0.2773 0.9843 0.0, 0.4039 0.1443 0.0, 0.4213 0.1713 0.0, 0.5787 0.1713 0.0, 0.75 0.1443 0.0, 0.75 0.9843 0.0, 0.9213 0.1713 0.0, 1.0787 0.1713 0.0, 0.9213 0.3287 0.0, 1.0787 0.3287 0.0, 1.7746 0.9843 0.0, 1.7746 0.1443 0.0, -0.4159 -0.083 0.0, -0.75 -0.083 0.0, -0.4105 -0.0818 0.0, -0.3817 -0.0818 0.0, -0.3337 0.115 0.0, -0.3073 0.115 0.0, -0.2329 -0.0818 0.0, -0.2617 -0.0818 0.0, -0.2086 -0.0279 0.0, -0.1973 -0.0455 0.0, -0.1811 -0.061 0.0, -0.1606 -0.0729 0.0, -0.144 0.112 0.0, -0.167 0.1039 0.0, -0.1885 0.0895 0.0, -0.1156 0.115 0.0, -0.1887 0.0894 0.0, -0.2026 0.0739 0.0, -0.2117 0.057 0.0, -0.1379 -0.0797 0.0, -0.1135 -0.0818 0.0, -0.06 -0.0818 0.0, -0.06 0.115 0.0, -0.217 0.0376 0.0, -0.2185 0.0191 0.0, -0.2157 -0.0073 0.0, 0.2857 -0.0602 0.0, 0.2857 -0.0818 0.0, 0.3865 -0.0818 0.0, 0.4039 -0.083 0.0, 0.3601 -0.0602 0.0, 0.3601 0.115 0.0, 0.3865 0.115 0.0, 0.75 -0.083 0.0, 1.7746 -0.083 0.0, -0.9213 -0.1713 0.0, -1.0787 -0.1713 0.0, -0.9213 -0.3287 0.0, -1.0787 -0.3287 0.0, -0.4213 -0.3287 0.0, -0.4159 -0.6565 0.0, -0.5787 -0.3287 0.0, -0.5787 -0.1713 0.0, -0.4213 -0.1713 0.0, -0.3618 -0.0266 0.0, -0.2805 -0.0266 0.0, 0.4213 -0.1713 0.0, 0.4213 -0.3287 0.0, 0.5787 -0.1713 0.0, 0.5787 -0.3287 0.0, 0.75 -0.6565 0.0, 0.4039 -0.6565 0.0, 1.0787 -0.3287 0.0, 1.7746 -0.6565 0.0, 0.9213 -0.3287 0.0, 0.9213 -0.1713 0.0, 1.0787 -0.1713 0.0, 2.4705 0.9843 0.0, 2.4705 0.1443 0.0, 2.4705 -0.083 0.0, 2.4705 -0.6565 0.0, -0.75 -0.9843 0.0, -0.4159 -0.9843 0.0, -0.2257 -0.9843 0.0, -0.0408 -0.9843 0.0, 0.0814 -0.9843 0.0, 0.2773 -0.9843 0.0, 0.4039 -0.9843 0.0, 0.75 -0.9843 0.0, 1.7746 -0.9843 0.0, 2.4705 -0.9843 0.0, 0.4921 -0.6496 0.7087, 0.4921 -0.6496 1.7717, 0.75 -0.6496 0.7087, 2.1358 -0.6496 1.7717, 2.1358 -0.6496 0.7087, 2.2933 -0.8071 1.9291, 0.4921 -0.8071 1.9291, 2.4705 0.9843 1.9291, 2.4705 -0.9843 1.9291, -2.4705 0.9843 1.9291, -2.4705 -0.9843 1.9291, 0.4921 -0.9843 1.9291, 0.4921 -0.9843 0.7087, -0.4921 -0.9843 1.9291, -0.4921 -0.9843 0.7087, -0.25 -0.9843 0.7087, 0.25 -0.9843 0.7087, 2.2933 0.8071 1.9291, -2.2933 0.8071 1.9291, -2.2933 -0.8071 1.9291, -0.4921 -0.8071 1.9291, -2.1358 -0.6496 0.7087, -2.1358 -0.6496 1.7717, -1.6073 -0.6496 0.7087, -0.4921 -0.6496 1.7717, -0.75 -0.6496 0.7087, -0.4921 -0.6496 0.7087, -2.1358 0.6496 1.7717, -2.1358 0.6496 0.7087, 2.1358 0.6496 1.7717, 2.1358 0.6496 0.7087, -0.4921 -0.6565 0.7087, -0.25 -0.6565 0.7087, 0.75 -0.0 0.7087, 0.9213 -0.1713 0.7087, 1.0787 -0.1713 0.7087, 0.9213 -0.3287 0.7087, 1.0787 -0.3287 0.7087, 2.1358 -0.0 0.7087, 0.25 -0.6565 0.7087, 0.4921 -0.6565 0.7087, 0.25 -0.0 0.7087, 0.4213 -0.1713 0.7087, 0.4213 -0.3287 0.7087, 0.5787 -0.3287 0.7087, 0.5787 -0.1713 0.7087, -0.25 -0.0 0.7087, -0.4213 -0.3287 0.7087, -0.5787 -0.3287 0.7087, -0.75 -0.0 0.7087, -0.5787 -0.1713 0.7087, -0.4213 -0.1713 0.7087, -1.0787 -0.1713 0.7087, -1.6073 -0.0 0.7087, -1.0787 -0.3287 0.7087, -0.9213 -0.3287 0.7087, -0.9213 -0.1713 0.7087, 0.75 0.6496 0.7087, 0.9213 0.3287 0.7087, 1.0787 0.3287 0.7087, 0.9213 0.1713 0.7087, 1.0787 0.1713 0.7087, 0.4213 0.1713 0.7087, 0.5787 0.1713 0.7087, 0.5787 0.3287 0.7087, 0.4213 0.3287 0.7087, 0.25 0.6496 0.7087, -0.0787 0.1713 0.7087, 0.0787 0.1713 0.7087, 0.0787 0.3287 0.7087, -0.0787 0.3287 0.7087, -0.25 0.6496 0.7087, -0.5787 0.1713 0.7087, -0.4213 0.1713 0.7087, -0.4213 0.3287 0.7087, -0.5787 0.3287 0.7087, -0.75 0.6496 0.7087, -0.9213 0.1713 0.7087, -1.0787 0.1713 0.7087, -0.9213 0.3287 0.7087, -1.0787 0.3287 0.7087, -1.6073 0.6496 0.7087, -2.1358 -0.0 0.7087, -0.0787 -0.3287 0.7087, 0.0787 -0.3287 0.7087, 0.0787 -0.1713 0.7087, -0.0787 -0.1713 0.7087
            ]
        }
        coordIndex [
            0,1,2,-1,3,4,5,-1,6,7,8,-1,9,10,11,-1,12,13,14,-1,12,14,15,-1,15,14,16,-1,15,16,17,-1,17,16,18,-1,17,18,19,-1,20,21,22,-1,22,21,23,-1,24,25,26,-1,26,25,27,-1,26,27,28,-1,29,30,31,-1,30,32,31,-1,31,32,33,-1,31,33,34,-1,13,35,14,-1,14,35,36,-1,14,36,37,-1,38,39,14,-1,14,39,40,-1,41,42,43,-1,43,42,44,-1,40,45,14,-1,14,45,44,-1,14,44,46,-1,46,44,42,-1,37,47,14,-1,14,47,48,-1,14,48,38,-1,28,49,26,-1,26,49,50,-1,26,50,51,-1,34,52,31,-1,31,52,53,-1,31,53,18,-1,18,53,54,-1,18,54,19,-1,55,21,56,-1,56,21,20,-1,56,20,57,-1,57,20,58,-1,57,58,59,-1,59,58,60,-1,59,60,61,-1,55,56,62,-1,62,56,63,-1,62,63,64,-1,64,63,11,-1,64,11,65,-1,23,21,16,-1,16,21,66,-1,16,66,18,-1,18,66,67,-1,18,67,11,-1,11,67,68,-1,11,68,65,-1,69,70,71,-1,71,70,64,-1,71,64,72,-1,72,64,65,-1,72,65,73,-1,73,65,74,-1,11,10,18,-1,18,10,75,-1,18,75,76,-1,77,78,79,-1,79,78,80,-1,79,80,81,-1,81,80,63,-1,81,63,82,-1,82,63,56,-1,82,56,83,-1,83,56,57,-1,83,57,84,-1,84,57,85,-1,84,85,77,-1,77,85,78,-1,86,87,5,-1,87,86,88,-1,88,86,89,-1,88,89,4,-1,4,89,90,-1,4,90,5,-1,5,90,91,-1,5,91,86,-1,92,93,94,-1,95,5,96,-1,96,5,87,-1,96,87,94,-1,94,87,97,-1,94,97,92,-1,92,97,98,-1,92,98,99,-1,9,99,100,-1,100,99,98,-1,100,98,101,-1,101,98,102,-1,101,102,76,-1,76,102,103,-1,76,103,18,-1,18,103,104,-1,18,104,31,-1,31,104,8,-1,31,8,105,-1,105,8,7,-1,7,106,105,-1,105,106,107,-1,105,107,108,-1,108,107,6,-1,108,6,109,-1,109,6,8,-1,108,110,111,-1,110,108,112,-1,112,108,109,-1,112,109,113,-1,113,109,114,-1,113,114,111,-1,111,114,115,-1,111,115,108,-1,92,116,117,-1,116,118,119,-1,118,116,120,-1,120,116,92,-1,120,92,121,-1,121,92,99,-1,121,99,122,-1,122,99,80,-1,122,80,123,-1,124,125,80,-1,80,125,126,-1,80,126,127,-1,128,129,99,-1,99,129,130,-1,9,11,99,-1,99,11,131,-1,99,131,128,-1,130,132,99,-1,99,132,133,-1,99,133,134,-1,127,135,80,-1,80,135,136,-1,80,136,63,-1,63,136,137,-1,63,137,11,-1,11,137,138,-1,11,138,131,-1,134,139,99,-1,99,139,140,-1,99,140,80,-1,80,140,141,-1,80,141,124,-1,142,26,31,-1,31,26,51,-1,31,51,29,-1,142,143,26,-1,26,143,144,-1,26,144,145,-1,146,142,147,-1,147,142,31,-1,147,31,148,-1,148,31,105,-1,148,105,144,-1,144,105,145,-1,145,105,108,-1,145,108,149,-1,149,108,115,-1,149,115,150,-1,117,151,152,-1,151,117,153,-1,153,117,2,-1,153,2,154,-1,154,2,1,-1,154,1,152,-1,152,1,3,-1,152,3,117,-1,117,3,5,-1,117,5,92,-1,92,5,95,-1,92,95,93,-1,155,156,157,-1,157,156,2,-1,157,2,158,-1,158,2,117,-1,158,117,159,-1,159,117,116,-1,159,116,155,-1,155,116,156,-1,160,161,119,-1,119,161,123,-1,119,123,116,-1,116,123,80,-1,116,80,156,-1,156,80,78,-1,145,162,163,-1,162,145,164,-1,164,145,149,-1,164,149,165,-1,165,149,166,-1,165,166,163,-1,163,166,167,-1,163,167,145,-1,145,167,59,-1,145,59,26,-1,26,59,61,-1,26,61,24,-1,168,169,170,-1,170,169,166,-1,170,166,171,-1,171,166,149,-1,171,149,172,-1,172,149,150,-1,172,150,168,-1,168,150,169,-1,114,173,115,-1,115,173,174,-1,115,174,150,-1,150,174,175,-1,150,175,169,-1,169,175,176,-1,0,2,177,-1,177,2,156,-1,177,156,178,-1,178,156,78,-1,178,78,179,-1,179,78,85,-1,179,85,180,-1,180,85,57,-1,180,57,181,-1,181,57,59,-1,181,59,182,-1,182,59,167,-1,182,167,183,-1,183,167,166,-1,183,166,184,-1,184,166,169,-1,184,169,185,-1,185,169,176,-1,185,176,186,-1,187,188,189,-1,189,188,190,-1,189,190,191,-1,192,190,193,-1,193,190,188,-1,194,195,173,-1,173,195,186,-1,196,194,88,-1,88,194,173,-1,197,196,0,-1,0,196,88,-1,185,186,195,-1,195,198,185,-1,185,198,199,-1,185,199,184,-1,200,197,201,-1,201,197,0,-1,0,177,201,-1,201,177,178,-1,201,178,202,-1,178,179,202,-1,202,179,180,-1,202,180,203,-1,180,181,203,-1,203,181,182,-1,203,182,199,-1,199,182,183,-1,199,183,184,-1,193,198,192,-1,192,198,195,-1,192,195,204,-1,204,195,194,-1,204,194,205,-1,205,194,196,-1,205,196,206,-1,206,196,197,-1,206,197,207,-1,207,197,200,-1,208,209,210,-1,210,209,211,-1,210,211,212,-1,212,211,213,-1,209,208,214,-1,214,208,215,-1,214,215,216,-1,216,215,217,-1,216,217,190,-1,190,217,191,-1,213,218,219,-1,220,221,222,-1,221,220,223,-1,223,220,189,-1,223,189,224,-1,224,189,191,-1,224,191,222,-1,222,191,225,-1,222,225,220,-1,226,227,228,-1,228,227,187,-1,229,228,230,-1,230,228,187,-1,230,187,231,-1,231,187,189,-1,231,189,232,-1,232,189,220,-1,232,220,229,-1,229,220,228,-1,218,201,202,-1,219,233,213,-1,213,233,234,-1,213,234,212,-1,212,234,235,-1,212,235,236,-1,236,235,237,-1,236,237,233,-1,233,237,238,-1,233,238,234,-1,239,240,241,-1,241,240,210,-1,241,210,242,-1,242,210,212,-1,242,212,243,-1,243,212,236,-1,244,245,246,-1,245,244,247,-1,247,244,220,-1,247,220,248,-1,248,220,225,-1,248,225,246,-1,246,225,217,-1,246,217,244,-1,249,228,250,-1,250,228,220,-1,250,220,251,-1,251,220,244,-1,251,244,252,-1,252,244,253,-1,252,253,249,-1,249,253,228,-1,254,233,255,-1,255,233,228,-1,255,228,256,-1,256,228,253,-1,256,253,257,-1,257,253,258,-1,257,258,254,-1,254,258,233,-1,259,236,260,-1,260,236,233,-1,260,233,261,-1,261,233,258,-1,261,258,262,-1,262,258,263,-1,262,263,259,-1,259,263,236,-1,236,264,265,-1,264,236,266,-1,266,236,263,-1,266,263,267,-1,267,263,268,-1,267,268,265,-1,265,268,240,-1,265,240,236,-1,236,240,239,-1,236,239,243,-1,268,215,240,-1,240,215,269,-1,240,269,210,-1,210,269,208,-1,270,219,271,-1,271,219,226,-1,271,226,272,-1,272,226,228,-1,272,228,273,-1,273,228,233,-1,273,233,270,-1,270,233,219,-1,218,202,219,-1,219,202,203,-1,219,203,226,-1,226,203,199,-1,226,199,227,-1,204,216,192,-1,192,216,190,-1,205,214,204,-1,204,214,216,-1,209,206,211,-1,211,206,207,-1,206,209,205,-1,205,209,214,-1,188,187,227,-1,188,227,193,-1,193,227,199,-1,193,199,198,-1,218,213,211,-1,218,211,201,-1,201,211,207,-1,201,207,200,-1,
        ]
    }
}
Shape{
    appearance Appearance {
        material  Material 	{
            diffuseColor 0.8274509803921568 0.6666666666666666 0.12941176470588237
            specularColor 0.8274509803921568 0.6666666666666666 0.12941176470588237
            ambientIntensity 0.6535
            transparency 0.0
            shininess 0.5
        }
    }
    geometry IndexedFaceSet {
        ccw TRUE
        solid FALSE
        coord DEF co Coordinate {
            point [
                -0.9606 0.2106 1.7323, -0.9606 0.2894 1.7323, -1.0394 0.2106 1.7323, -1.0394 0.2894 1.7323, -0.9213 0.1713 1.6241, -0.9213 0.1713 0.7087, -0.9213 0.3287 1.6241, -0.9213 0.3287 0.7087, -1.0787 0.1713 1.6241, -1.0787 0.1713 0.7087, -1.0787 0.3287 1.6241, -1.0787 0.3287 0.7087, -1.0787 0.3287 -0.7973, -1.0787 0.3287 0.0, -0.9213 0.3287 -0.7973, -0.9213 0.3287 0.0, -1.0787 0.1713 -0.7973, -1.0787 0.1713 0.0, -0.9213 0.1713 -0.7973, -0.9213 0.1713 0.0, -0.9606 0.2894 -0.9055, -0.9606 0.2106 -0.9055, -1.0394 0.2894 -0.9055, -1.0394 0.2106 -0.9055, -0.9606 -0.2894 1.7323, -0.9606 -0.2106 1.7323, -1.0394 -0.2894 1.7323, -1.0394 -0.2106 1.7323, -0.9213 -0.3287 1.6241, -0.9213 -0.3287 0.7087, -0.9213 -0.1713 1.6241, -0.9213 -0.1713 0.7087, -1.0787 -0.3287 1.6241, -1.0787 -0.3287 0.7087, -1.0787 -0.1713 1.6241, -1.0787 -0.1713 0.7087, -1.0787 -0.1713 -0.7973, -1.0787 -0.1713 0.0, -0.9213 -0.1713 -0.7973, -0.9213 -0.1713 0.0, -1.0787 -0.3287 -0.7973, -1.0787 -0.3287 0.0, -0.9213 -0.3287 -0.7973, -0.9213 -0.3287 0.0, -0.9606 -0.2106 -0.9055, -0.9606 -0.2894 -0.9055, -1.0394 -0.2106 -0.9055, -1.0394 -0.2894 -0.9055, -0.4606 0.2106 1.7323, -0.4606 0.2894 1.7323, -0.5394 0.2106 1.7323, -0.5394 0.2894 1.7323, -0.4213 0.1713 1.6241, -0.4213 0.1713 0.7087, -0.4213 0.3287 1.6241, -0.4213 0.3287 0.7087, -0.5787 0.1713 1.6241, -0.5787 0.1713 0.7087, -0.5787 0.3287 1.6241, -0.5787 0.3287 0.7087, -0.5787 0.3287 -0.7973, -0.5787 0.3287 0.0, -0.4213 0.3287 -0.7973, -0.4213 0.3287 0.0, -0.5787 0.1713 -0.7973, -0.5787 0.1713 0.0, -0.4213 0.1713 -0.7973, -0.4213 0.1713 0.0, -0.4606 0.2894 -0.9055, -0.4606 0.2106 -0.9055, -0.5394 0.2894 -0.9055, -0.5394 0.2106 -0.9055, -0.4606 -0.2894 1.7323, -0.4606 -0.2106 1.7323, -0.5394 -0.2894 1.7323, -0.5394 -0.2106 1.7323, -0.4213 -0.3287 1.6241, -0.4213 -0.3287 0.7087, -0.4213 -0.1713 1.6241, -0.4213 -0.1713 0.7087, -0.5787 -0.3287 1.6241, -0.5787 -0.3287 0.7087, -0.5787 -0.1713 1.6241, -0.5787 -0.1713 0.7087, -0.5787 -0.1713 -0.7973, -0.5787 -0.1713 0.0, -0.4213 -0.1713 -0.7973, -0.4213 -0.1713 0.0, -0.5787 -0.3287 -0.7973, -0.5787 -0.3287 0.0, -0.4213 -0.3287 -0.7973, -0.4213 -0.3287 0.0, -0.4606 -0.2106 -0.9055, -0.4606 -0.2894 -0.9055, -0.5394 -0.2106 -0.9055, -0.5394 -0.2894 -0.9055, 0.0394 0.2106 1.7323, 0.0394 0.2894 1.7323, -0.0394 0.2106 1.7323, -0.0394 0.2894 1.7323, 0.0787 0.1713 1.6241, 0.0787 0.1713 0.7087, 0.0787 0.3287 1.6241, 0.0787 0.3287 0.7087, -0.0787 0.1713 1.6241, -0.0787 0.1713 0.7087, -0.0787 0.3287 1.6241, -0.0787 0.3287 0.7087, 0.0787 0.3287 0.0, 0.0787 0.3287 -0.7973, -0.0408 0.3287 0.0, -0.0787 0.3287 -0.7973, -0.0787 0.3287 0.0, -0.0787 0.1713 -0.7973, -0.0787 0.1713 0.0, -0.0408 0.1713 0.0, 0.0787 0.1713 -0.7973, 0.0787 0.1713 0.0, 0.0394 0.2894 -0.9055, 0.0394 0.2106 -0.9055, -0.0394 0.2894 -0.9055, -0.0394 0.2106 -0.9055, 0.0394 -0.2894 1.7323, 0.0394 -0.2106 1.7323, -0.0394 -0.2894 1.7323, -0.0394 -0.2106 1.7323, 0.0787 -0.3287 1.6241, 0.0787 -0.3287 0.7087, 0.0787 -0.1713 1.6241, 0.0787 -0.1713 0.7087, -0.0787 -0.3287 1.6241, -0.0787 -0.3287 0.7087, -0.0787 -0.1713 1.6241, -0.0787 -0.1713 0.7087, 0.0787 -0.1713 0.0, 0.0787 -0.1713 -0.7973, -0.0408 -0.1713 0.0, -0.0787 -0.1713 -0.7973, -0.0787 -0.1713 0.0, -0.0787 -0.3287 -0.7973, -0.0787 -0.3287 0.0, -0.0408 -0.3287 0.0, 0.0787 -0.3287 -0.7973, 0.0787 -0.3287 0.0, 0.0394 -0.2106 -0.9055, 0.0394 -0.2894 -0.9055, -0.0394 -0.2106 -0.9055, -0.0394 -0.2894 -0.9055, 0.5394 0.2106 1.7323, 0.5394 0.2894 1.7323, 0.4606 0.2106 1.7323, 0.4606 0.2894 1.7323, 0.5787 0.1713 1.6241, 0.5787 0.1713 0.7087, 0.5787 0.3287 1.6241, 0.5787 0.3287 0.7087, 0.4213 0.1713 1.6241, 0.4213 0.1713 0.7087, 0.4213 0.3287 1.6241, 0.4213 0.3287 0.7087, 0.4213 0.3287 -0.7973, 0.4213 0.3287 0.0, 0.5787 0.3287 -0.7973, 0.5787 0.3287 0.0, 0.4213 0.1713 -0.7973, 0.4213 0.1713 0.0, 0.5787 0.1713 -0.7973, 0.5787 0.1713 0.0, 0.5394 0.2894 -0.9055, 0.5394 0.2106 -0.9055, 0.4606 0.2894 -0.9055, 0.4606 0.2106 -0.9055, 0.5394 -0.2894 1.7323, 0.5394 -0.2106 1.7323, 0.4606 -0.2894 1.7323, 0.4606 -0.2106 1.7323, 0.5787 -0.3287 1.6241, 0.5787 -0.3287 0.7087, 0.5787 -0.1713 1.6241, 0.5787 -0.1713 0.7087, 0.4213 -0.3287 1.6241, 0.4213 -0.3287 0.7087, 0.4213 -0.1713 1.6241, 0.4213 -0.1713 0.7087, 0.4213 -0.1713 -0.7973, 0.4213 -0.1713 0.0, 0.5787 -0.1713 -0.7973, 0.5787 -0.1713 0.0, 0.4213 -0.3287 -0.7973, 0.4213 -0.3287 0.0, 0.5787 -0.3287 -0.7973, 0.5787 -0.3287 0.0, 0.5394 -0.2106 -0.9055, 0.5394 -0.2894 -0.9055, 0.4606 -0.2106 -0.9055, 0.4606 -0.2894 -0.9055, 1.0394 0.2106 1.7323, 1.0394 0.2894 1.7323, 0.9606 0.2106 1.7323, 0.9606 0.2894 1.7323, 1.0787 0.1713 1.6241, 1.0787 0.1713 0.7087, 1.0787 0.3287 1.6241, 1.0787 0.3287 0.7087, 0.9213 0.1713 1.6241, 0.9213 0.1713 0.7087, 0.9213 0.3287 1.6241, 0.9213 0.3287 0.7087, 0.9213 0.3287 -0.7973, 0.9213 0.3287 0.0, 1.0787 0.3287 -0.7973, 1.0787 0.3287 0.0, 0.9213 0.1713 -0.7973, 0.9213 0.1713 0.0, 1.0787 0.1713 -0.7973, 1.0787 0.1713 0.0, 1.0394 0.2894 -0.9055, 1.0394 0.2106 -0.9055, 0.9606 0.2894 -0.9055, 0.9606 0.2106 -0.9055, 1.0394 -0.2894 1.7323, 1.0394 -0.2106 1.7323, 0.9606 -0.2894 1.7323, 0.9606 -0.2106 1.7323, 1.0787 -0.3287 1.6241, 1.0787 -0.3287 0.7087, 1.0787 -0.1713 1.6241, 1.0787 -0.1713 0.7087, 0.9213 -0.3287 1.6241, 0.9213 -0.3287 0.7087, 0.9213 -0.1713 1.6241, 0.9213 -0.1713 0.7087, 0.9213 -0.1713 -0.7973, 0.9213 -0.1713 0.0, 1.0787 -0.1713 -0.7973, 1.0787 -0.1713 0.0, 0.9213 -0.3287 -0.7973, 0.9213 -0.3287 0.0, 1.0787 -0.3287 -0.7973, 1.0787 -0.3287 0.0, 1.0394 -0.2106 -0.9055, 1.0394 -0.2894 -0.9055, 0.9606 -0.2106 -0.9055, 0.9606 -0.2894 -0.9055
            ]
        }
        coordIndex [
            0,1,2,-1,2,1,3,-1,4,5,6,-1,6,5,7,-1,8,9,4,-1,4,9,5,-1,10,11,8,-1,8,11,9,-1,6,7,10,-1,10,7,11,-1,12,13,14,-1,14,13,15,-1,16,17,12,-1,12,17,13,-1,18,19,16,-1,16,19,17,-1,14,15,18,-1,18,15,19,-1,20,21,22,-1,22,21,23,-1,21,18,23,-1,23,18,16,-1,20,14,21,-1,21,14,18,-1,12,22,16,-1,16,22,23,-1,22,12,20,-1,20,12,14,-1,10,3,6,-1,6,3,1,-1,8,2,10,-1,10,2,3,-1,0,4,1,-1,1,4,6,-1,4,0,8,-1,8,0,2,-1,24,25,26,-1,26,25,27,-1,28,29,30,-1,30,29,31,-1,32,33,28,-1,28,33,29,-1,34,35,32,-1,32,35,33,-1,30,31,34,-1,34,31,35,-1,36,37,38,-1,38,37,39,-1,40,41,36,-1,36,41,37,-1,42,43,40,-1,40,43,41,-1,38,39,42,-1,42,39,43,-1,44,45,46,-1,46,45,47,-1,48,49,50,-1,50,49,51,-1,52,53,54,-1,54,53,55,-1,56,57,52,-1,52,57,53,-1,58,59,56,-1,56,59,57,-1,54,55,58,-1,58,55,59,-1,60,61,62,-1,62,61,63,-1,64,65,60,-1,60,65,61,-1,66,67,64,-1,64,67,65,-1,62,63,66,-1,66,63,67,-1,68,69,70,-1,70,69,71,-1,72,73,74,-1,74,73,75,-1,76,77,78,-1,78,77,79,-1,80,81,76,-1,76,81,77,-1,82,83,80,-1,80,83,81,-1,78,79,82,-1,82,79,83,-1,84,85,86,-1,86,85,87,-1,88,89,84,-1,84,89,85,-1,90,91,88,-1,88,91,89,-1,86,87,90,-1,90,87,91,-1,92,93,94,-1,94,93,95,-1,96,97,98,-1,98,97,99,-1,100,101,102,-1,102,101,103,-1,104,105,100,-1,100,105,101,-1,106,107,104,-1,104,107,105,-1,102,103,106,-1,106,103,107,-1,108,109,110,-1,110,109,111,-1,110,111,112,-1,113,114,111,-1,111,114,112,-1,114,113,115,-1,115,113,116,-1,115,116,117,-1,109,108,116,-1,116,108,117,-1,118,119,120,-1,120,119,121,-1,122,123,124,-1,124,123,125,-1,126,127,128,-1,128,127,129,-1,130,131,126,-1,126,131,127,-1,132,133,130,-1,130,133,131,-1,128,129,132,-1,132,129,133,-1,134,135,136,-1,136,135,137,-1,136,137,138,-1,139,140,137,-1,137,140,138,-1,140,139,141,-1,141,139,142,-1,141,142,143,-1,135,134,142,-1,142,134,143,-1,144,145,146,-1,146,145,147,-1,148,149,150,-1,150,149,151,-1,152,153,154,-1,154,153,155,-1,156,157,152,-1,152,157,153,-1,158,159,156,-1,156,159,157,-1,154,155,158,-1,158,155,159,-1,160,161,162,-1,162,161,163,-1,164,165,160,-1,160,165,161,-1,166,167,164,-1,164,167,165,-1,162,163,166,-1,166,163,167,-1,168,169,170,-1,170,169,171,-1,172,173,174,-1,174,173,175,-1,176,177,178,-1,178,177,179,-1,180,181,176,-1,176,181,177,-1,182,183,180,-1,180,183,181,-1,178,179,182,-1,182,179,183,-1,184,185,186,-1,186,185,187,-1,188,189,184,-1,184,189,185,-1,190,191,188,-1,188,191,189,-1,186,187,190,-1,190,187,191,-1,192,193,194,-1,194,193,195,-1,196,197,198,-1,198,197,199,-1,200,201,202,-1,202,201,203,-1,204,205,200,-1,200,205,201,-1,206,207,204,-1,204,207,205,-1,202,203,206,-1,206,203,207,-1,208,209,210,-1,210,209,211,-1,212,213,208,-1,208,213,209,-1,214,215,212,-1,212,215,213,-1,210,211,214,-1,214,211,215,-1,216,217,218,-1,218,217,219,-1,220,221,222,-1,222,221,223,-1,224,225,226,-1,226,225,227,-1,228,229,224,-1,224,229,225,-1,230,231,228,-1,228,231,229,-1,226,227,230,-1,230,227,231,-1,232,233,234,-1,234,233,235,-1,236,237,232,-1,232,237,233,-1,238,239,236,-1,236,239,237,-1,234,235,238,-1,238,235,239,-1,240,241,242,-1,242,241,243,-1,45,42,47,-1,47,42,40,-1,44,38,45,-1,45,38,42,-1,36,46,40,-1,40,46,47,-1,46,36,44,-1,44,36,38,-1,34,27,30,-1,30,27,25,-1,32,26,34,-1,34,26,27,-1,24,28,25,-1,25,28,30,-1,28,24,32,-1,32,24,26,-1,69,66,71,-1,71,66,64,-1,68,62,69,-1,69,62,66,-1,60,70,64,-1,64,70,71,-1,70,60,68,-1,68,60,62,-1,58,51,54,-1,54,51,49,-1,56,50,58,-1,58,50,51,-1,48,52,49,-1,49,52,54,-1,52,48,56,-1,56,48,50,-1,93,90,95,-1,95,90,88,-1,92,86,93,-1,93,86,90,-1,84,94,88,-1,88,94,95,-1,94,84,92,-1,92,84,86,-1,82,75,78,-1,78,75,73,-1,80,74,82,-1,82,74,75,-1,72,76,73,-1,73,76,78,-1,76,72,80,-1,80,72,74,-1,119,116,121,-1,121,116,113,-1,118,109,119,-1,119,109,116,-1,111,120,113,-1,113,120,121,-1,120,111,118,-1,118,111,109,-1,106,99,102,-1,102,99,97,-1,104,98,106,-1,106,98,99,-1,96,100,97,-1,97,100,102,-1,100,96,104,-1,104,96,98,-1,145,142,147,-1,147,142,139,-1,144,135,145,-1,145,135,142,-1,137,146,139,-1,139,146,147,-1,146,137,144,-1,144,137,135,-1,132,125,128,-1,128,125,123,-1,130,124,132,-1,132,124,125,-1,122,126,123,-1,123,126,128,-1,126,122,130,-1,130,122,124,-1,169,166,171,-1,171,166,164,-1,168,162,169,-1,169,162,166,-1,160,170,164,-1,164,170,171,-1,170,160,168,-1,168,160,162,-1,158,151,154,-1,154,151,149,-1,156,150,158,-1,158,150,151,-1,148,152,149,-1,149,152,154,-1,152,148,156,-1,156,148,150,-1,193,190,195,-1,195,190,188,-1,192,186,193,-1,193,186,190,-1,184,194,188,-1,188,194,195,-1,194,184,192,-1,192,184,186,-1,182,175,178,-1,178,175,173,-1,180,174,182,-1,182,174,175,-1,172,176,173,-1,173,176,178,-1,176,172,180,-1,180,172,174,-1,217,214,219,-1,219,214,212,-1,216,210,217,-1,217,210,214,-1,208,218,212,-1,212,218,219,-1,218,208,216,-1,216,208,210,-1,206,199,202,-1,202,199,197,-1,204,198,206,-1,206,198,199,-1,196,200,197,-1,197,200,202,-1,200,196,204,-1,204,196,198,-1,241,238,243,-1,243,238,236,-1,240,234,241,-1,241,234,238,-1,232,242,236,-1,236,242,243,-1,242,232,240,-1,240,232,234,-1,230,223,226,-1,226,223,221,-1,228,222,230,-1,230,222,223,-1,220,224,221,-1,221,224,226,-1,224,220,228,-1,228,220,222,-1,
        ]
    }
}
Shape{
    appearance Appearance {
        material  Material 	{
            diffuseColor 1.0 1.0 1.0
            specularColor 0.8784313725490196 0.8784313725490196 0.8784313725490196
            ambientIntensity 1.0
            transparency 0.0
            shininess 0.5
        }
    }
    geometry IndexedFaceSet {
        ccw TRUE
        solid FALSE
        coord DEF co Coordinate {
            point [
                -0.3337 0.115 0.0394, -0.4105 -0.0818 0.0394, -0.3337 0.115 0.0, -0.4105 -0.0818 0.0, -0.3817 -0.0818 0.0394, -0.3817 -0.0818 0.0, -0.3618 -0.0266 0.0394, -0.3618 -0.0266 0.0, -0.2805 -0.0266 0.0394, -0.2805 -0.0266 0.0, -0.2617 -0.0818 0.0394, -0.2617 -0.0818 0.0, -0.2329 -0.0818 0.0394, -0.2329 -0.0818 0.0, -0.3073 0.115 0.0394, -0.3073 0.115 0.0, -0.2871 -0.005 0.0394, -0.3529 -0.005 0.0394, -0.3165 0.0772 0.0394, -0.3184 0.0841 0.0394, -0.3196 0.091 0.0394, -0.3203 0.091 0.0394, -0.3215 0.0841 0.0394, -0.3233 0.0772 0.0394, -0.2871 -0.005 0.0, -0.3529 -0.005 0.0, -0.3165 0.0772 0.0, -0.3184 0.0841 0.0, -0.3196 0.091 0.0, -0.3203 0.091 0.0, -0.3215 0.0841 0.0, -0.3233 0.0772 0.0, -0.1135 -0.0818 0.0394, -0.06 -0.0818 0.0394, -0.1135 -0.0818 0.0, -0.06 -0.0818 0.0, -0.06 0.115 0.0394, -0.06 0.115 0.0, -0.1156 0.115 0.0394, -0.1156 0.115 0.0, -0.2185 0.0191 0.0394, -0.2185 0.0191 0.0, -0.217 0.0376 0.0, -0.217 0.0376 0.0394, -0.2117 0.057 0.0, -0.2117 0.057 0.0394, -0.2026 0.0739 0.0, -0.2026 0.0739 0.0394, -0.1887 0.0894 0.0, -0.1887 0.0894 0.0394, -0.1885 0.0895 0.0, -0.1885 0.0895 0.0394, -0.167 0.1039 0.0, -0.167 0.1039 0.0394, -0.144 0.112 0.0, -0.144 0.112 0.0394, -0.1379 -0.0797 0.0, -0.1379 -0.0797 0.0394, -0.1606 -0.0729 0.0, -0.1606 -0.0729 0.0394, -0.1811 -0.061 0.0, -0.1811 -0.061 0.0394, -0.1973 -0.0455 0.0, -0.1973 -0.0455 0.0394, -0.2086 -0.0279 0.0, -0.2086 -0.0279 0.0394, -0.2157 -0.0073 0.0, -0.2157 -0.0073 0.0394, -0.1789 0.0658 0.0394, -0.1694 0.076 0.0394, -0.155 0.0853 0.0394, -0.1388 0.091 0.0394, -0.1155 0.0934 0.0394, -0.0864 0.0934 0.0394, -0.0864 -0.0602 0.0394, -0.1144 -0.0602 0.0394, -0.1351 -0.0583 0.0394, -0.1517 -0.0531 0.0394, -0.1651 -0.0451 0.0394, -0.1762 -0.0342 0.0394, -0.1845 -0.0207 0.0394, -0.1902 -0.0022 0.0394, -0.192 0.0185 0.0394, -0.1904 0.0381 0.0394, -0.1858 0.0537 0.0394, -0.1155 0.0934 0.0, -0.0864 0.0934 0.0, -0.1388 0.091 0.0, -0.155 0.0853 0.0, -0.1694 0.076 0.0, -0.1789 0.0658 0.0, -0.1858 0.0537 0.0, -0.1904 0.0381 0.0, -0.192 0.0185 0.0, -0.1902 -0.0022 0.0, -0.1845 -0.0207 0.0, -0.1762 -0.0342 0.0, -0.1651 -0.0451 0.0, -0.1517 -0.0531 0.0, -0.1351 -0.0583 0.0, -0.1144 -0.0602 0.0, -0.0864 -0.0602 0.0, -0.0216 -0.0602 0.0394, -0.0216 -0.0818 0.0394, -0.0216 -0.0602 0.0, -0.0216 -0.0818 0.0, 0.0814 -0.0818 0.0, 0.084 -0.0818 0.0394, 0.084 -0.0818 0.0, 0.084 0.115 0.0394, 0.084 0.115 0.0, 0.0814 0.115 0.0, -0.0168 0.115 0.0394, -0.0168 0.115 0.0, -0.0168 0.0934 0.0394, -0.0168 0.0934 0.0, 0.0576 0.0934 0.0394, 0.0576 0.0934 0.0, 0.0576 0.0286 0.0394, 0.0576 0.0286 0.0, -0.012 0.0286 0.0394, -0.012 0.0286 0.0, -0.012 0.007 0.0394, -0.012 0.007 0.0, 0.0576 0.007 0.0394, 0.0576 0.007 0.0, 0.0576 -0.0602 0.0394, 0.0576 -0.0602 0.0, 0.1224 -0.05 0.0394, 0.1224 -0.0716 0.0394, 0.1224 -0.05 0.0, 0.1224 -0.0716 0.0, 0.1434 -0.0802 0.0394, 0.1766 -0.0842 0.0394, 0.1766 -0.0842 0.0, 0.1712 -0.0841 0.0, 0.1712 -0.0841 0.0394, 0.1633 -0.083 0.0, 0.1434 -0.0802 0.0, 0.1882 -0.083 0.0, 0.2009 -0.0817 0.0394, 0.2009 -0.0817 0.0, 0.2199 -0.0751 0.0394, 0.2199 -0.0751 0.0, 0.2358 -0.065 0.0394, 0.2358 -0.065 0.0, 0.2506 -0.0495 0.0394, 0.2506 -0.0495 0.0, 0.261 -0.0307 0.0394, 0.261 -0.0307 0.0, 0.267 -0.0099 0.0394, 0.267 -0.0099 0.0, 0.2689 0.0129 0.0394, 0.2689 0.0129 0.0, 0.1688 0.1174 0.0394, 0.1688 0.1174 0.0, 0.1885 0.1158 0.0, 0.1885 0.1158 0.0394, 0.2105 0.1094 0.0, 0.2105 0.1094 0.0394, 0.2292 0.0987 0.0, 0.2292 0.0987 0.0394, 0.2469 0.0816 0.0, 0.2469 0.0816 0.0394, 0.2585 0.0632 0.0, 0.2585 0.0632 0.0394, 0.266 0.0409 0.0, 0.266 0.0409 0.0394, 0.1224 0.1096 0.0394, 0.1224 0.1096 0.0, 0.1452 0.1158 0.0, 0.1452 0.1158 0.0394, 0.1224 0.0832 0.0394, 0.1224 0.0832 0.0, 0.1685 0.0958 0.0394, 0.1685 0.0958 0.0, 0.1446 0.0927 0.0, 0.1446 0.0927 0.0394, 0.2425 0.0145 0.0394, 0.2425 0.0145 0.0, 0.2415 0.0298 0.0, 0.2415 0.0298 0.0394, 0.2363 0.0509 0.0, 0.2363 0.0509 0.0394, 0.2282 0.0661 0.0, 0.2282 0.0661 0.0394, 0.2163 0.0792 0.0, 0.2163 0.0792 0.0394, 0.2026 0.0883 0.0, 0.2026 0.0883 0.0394, 0.1879 0.0937 0.0, 0.1879 0.0937 0.0394, 0.173 -0.0626 0.0394, 0.173 -0.0626 0.0, 0.1913 -0.0606 0.0, 0.1913 -0.0606 0.0394, 0.2057 -0.0553 0.0, 0.2057 -0.0553 0.0394, 0.2177 -0.0471 0.0, 0.2177 -0.0471 0.0394, 0.227 -0.0374 0.0, 0.227 -0.0374 0.0394, 0.2351 -0.0237 0.0, 0.2351 -0.0237 0.0394, 0.2405 -0.0068 0.0, 0.2405 -0.0068 0.0394, 0.126 -0.052 0.0, 0.126 -0.052 0.0394, 0.1468 -0.0597 0.0, 0.1468 -0.0597 0.0394, 0.2857 -0.0602 0.0394, 0.2857 -0.0818 0.0394, 0.2857 -0.0602 0.0, 0.2857 -0.0818 0.0, 0.3865 -0.0818 0.0394, 0.3865 -0.0818 0.0, 0.3865 0.115 0.0394, 0.3865 0.115 0.0, 0.3601 0.115 0.0394, 0.3601 0.115 0.0, 0.3601 -0.0602 0.0394, 0.3601 -0.0602 0.0
            ]
        }
        coordIndex [
            0,1,2,-1,2,1,3,-1,1,4,3,-1,3,4,5,-1,4,6,5,-1,5,6,7,-1,6,8,7,-1,7,8,9,-1,8,10,9,-1,9,10,11,-1,10,12,11,-1,11,12,13,-1,12,14,13,-1,13,14,15,-1,14,0,15,-1,15,0,2,-1,16,8,17,-1,17,8,6,-1,18,14,16,-1,16,14,12,-1,16,12,8,-1,8,12,10,-1,18,19,14,-1,14,19,20,-1,14,20,0,-1,0,20,21,-1,0,21,22,-1,22,23,0,-1,0,23,17,-1,0,17,1,-1,1,17,6,-1,1,6,4,-1,16,17,24,-1,24,17,25,-1,18,16,26,-1,26,16,24,-1,18,26,27,-1,18,27,19,-1,19,27,28,-1,19,28,20,-1,21,20,29,-1,29,20,28,-1,21,29,30,-1,21,30,22,-1,22,30,31,-1,22,31,23,-1,17,23,25,-1,25,23,31,-1,32,33,34,-1,34,33,35,-1,33,36,35,-1,35,36,37,-1,36,38,37,-1,37,38,39,-1,40,41,42,-1,40,42,43,-1,43,42,44,-1,43,44,45,-1,45,44,46,-1,45,46,47,-1,47,46,48,-1,47,48,49,-1,49,48,50,-1,49,50,51,-1,51,50,52,-1,51,52,53,-1,53,52,54,-1,53,54,55,-1,55,54,39,-1,55,39,38,-1,32,34,56,-1,32,56,57,-1,57,56,58,-1,57,58,59,-1,59,58,60,-1,59,60,61,-1,61,60,62,-1,61,62,63,-1,63,62,64,-1,63,64,65,-1,65,64,66,-1,65,66,67,-1,67,66,41,-1,67,41,40,-1,45,47,68,-1,68,47,49,-1,68,49,69,-1,69,49,51,-1,69,51,70,-1,70,51,53,-1,70,53,71,-1,71,53,55,-1,71,55,72,-1,72,55,38,-1,72,38,73,-1,73,38,36,-1,73,36,74,-1,74,36,33,-1,74,33,75,-1,75,33,32,-1,75,32,76,-1,76,32,57,-1,76,57,77,-1,77,57,59,-1,77,59,78,-1,78,59,61,-1,78,61,79,-1,79,61,63,-1,79,63,80,-1,80,63,65,-1,80,65,81,-1,81,65,67,-1,81,67,82,-1,82,67,40,-1,82,40,83,-1,83,40,43,-1,83,43,84,-1,84,43,45,-1,84,45,68,-1,72,73,85,-1,85,73,86,-1,72,85,87,-1,72,87,71,-1,71,87,88,-1,71,88,70,-1,70,88,89,-1,70,89,69,-1,69,89,90,-1,69,90,68,-1,68,90,91,-1,68,91,84,-1,84,91,92,-1,84,92,83,-1,83,92,93,-1,83,93,82,-1,82,93,94,-1,82,94,81,-1,81,94,95,-1,81,95,80,-1,80,95,96,-1,80,96,79,-1,79,96,97,-1,79,97,78,-1,78,97,98,-1,78,98,77,-1,77,98,99,-1,77,99,76,-1,76,99,100,-1,76,100,75,-1,74,75,101,-1,101,75,100,-1,73,74,86,-1,86,74,101,-1,102,103,104,-1,104,103,105,-1,105,103,106,-1,106,103,107,-1,106,107,108,-1,107,109,108,-1,108,109,110,-1,110,109,111,-1,111,109,112,-1,111,112,113,-1,112,114,113,-1,113,114,115,-1,114,116,115,-1,115,116,117,-1,116,118,117,-1,117,118,119,-1,118,120,119,-1,119,120,121,-1,120,122,121,-1,121,122,123,-1,122,124,123,-1,123,124,125,-1,124,126,125,-1,125,126,127,-1,126,102,127,-1,127,102,104,-1,107,103,102,-1,102,126,107,-1,107,126,124,-1,107,124,109,-1,114,112,116,-1,116,112,109,-1,116,109,118,-1,118,109,124,-1,118,124,120,-1,120,124,122,-1,128,129,130,-1,130,129,131,-1,131,129,132,-1,133,134,135,-1,133,135,136,-1,136,135,137,-1,136,137,132,-1,132,137,138,-1,132,138,131,-1,134,133,139,-1,139,133,140,-1,139,140,141,-1,141,140,142,-1,141,142,143,-1,143,142,144,-1,143,144,145,-1,145,144,146,-1,145,146,147,-1,147,146,148,-1,147,148,149,-1,149,148,150,-1,149,150,151,-1,151,150,152,-1,151,152,153,-1,154,155,156,-1,154,156,157,-1,157,156,158,-1,157,158,159,-1,159,158,160,-1,159,160,161,-1,161,160,162,-1,161,162,163,-1,163,162,164,-1,163,164,165,-1,165,164,166,-1,165,166,167,-1,167,166,153,-1,167,153,152,-1,168,169,170,-1,168,170,171,-1,171,170,155,-1,171,155,154,-1,168,172,169,-1,169,172,173,-1,174,175,176,-1,174,176,177,-1,177,176,173,-1,177,173,172,-1,178,179,180,-1,178,180,181,-1,181,180,182,-1,181,182,183,-1,183,182,184,-1,183,184,185,-1,185,184,186,-1,185,186,187,-1,187,186,188,-1,187,188,189,-1,189,188,190,-1,189,190,191,-1,191,190,175,-1,191,175,174,-1,192,193,194,-1,192,194,195,-1,195,194,196,-1,195,196,197,-1,197,196,198,-1,197,198,199,-1,199,198,200,-1,199,200,201,-1,201,200,202,-1,201,202,203,-1,203,202,204,-1,203,204,205,-1,205,204,179,-1,205,179,178,-1,128,130,206,-1,128,206,207,-1,207,206,208,-1,207,208,209,-1,209,208,193,-1,209,193,192,-1,195,133,192,-1,192,133,136,-1,192,136,209,-1,209,136,132,-1,209,132,207,-1,207,132,129,-1,207,129,128,-1,172,168,177,-1,177,168,171,-1,177,171,174,-1,174,171,154,-1,174,154,191,-1,191,154,157,-1,191,157,189,-1,189,157,159,-1,189,159,187,-1,187,159,161,-1,187,161,185,-1,185,161,163,-1,185,163,183,-1,183,163,165,-1,183,165,181,-1,181,165,167,-1,181,167,178,-1,178,167,152,-1,178,152,205,-1,205,152,150,-1,205,150,203,-1,203,150,148,-1,203,148,201,-1,201,148,146,-1,201,146,199,-1,199,146,144,-1,199,144,197,-1,197,144,142,-1,197,142,195,-1,195,142,140,-1,195,140,133,-1,210,211,212,-1,212,211,213,-1,211,214,213,-1,213,214,215,-1,214,216,215,-1,215,216,217,-1,216,218,217,-1,217,218,219,-1,218,220,219,-1,219,220,221,-1,220,210,221,-1,221,210,212,-1,218,216,220,-1,220,216,214,-1,220,214,210,-1,210,214,211,-1,
        ]
    }
}
Shape{
    appearance Appearance {
        material  Material 	{
            diffuseColor 0.20784313725490197 0.20784313725490197 0.20784313725490197
            specularColor 0.01568627450980392 0.01568627450980392 0.01568627450980392
            ambientIntensity 0.298
            transparency 0.0
            shininess 0.5
        }
    }
    geometry IndexedFaceSet {
        ccw TRUE
        solid FALSE
        coord DEF co Coordinate {
            point [
                -0.2871 -0.005 0.0, -0.3529 -0.005 0.0, -0.3165 0.0772 0.0, -0.3233 0.0772 0.0, -0.3184 0.0841 0.0, -0.3215 0.0841 0.0, -0.3196 0.091 0.0, -0.3203 0.091 0.0, -0.0864 0.0934 0.0, -0.0864 -0.0602 0.0, -0.1155 0.0934 0.0, -0.1144 -0.0602 0.0, -0.1351 -0.0583 0.0, -0.192 0.0185 0.0, -0.1904 0.0381 0.0, -0.1858 0.0537 0.0, -0.1388 0.091 0.0, -0.1517 -0.0531 0.0, -0.1651 -0.0451 0.0, -0.1762 -0.0342 0.0, -0.1845 -0.0207 0.0, -0.1902 -0.0022 0.0, -0.1789 0.0658 0.0, -0.1694 0.076 0.0, -0.155 0.0853 0.0
            ]
        }
        coordIndex [
            0,1,2,-1,2,1,3,-1,2,3,4,-1,4,3,5,-1,4,5,6,-1,6,5,7,-1,8,9,10,-1,10,9,11,-1,10,11,12,-1,13,14,10,-1,10,14,15,-1,10,15,16,-1,12,17,10,-1,10,17,18,-1,10,18,19,-1,19,20,10,-1,10,20,21,-1,10,21,13,-1,22,23,15,-1,15,23,24,-1,15,24,16,-1,
        ]
    }
}