#VRML V2.0 utf8
# 3D model generated by easyeda2kicad.py (https://github.com/uPesy/easyeda2kicad.py)

Shape{
    appearance Appearance {
        material  Material 	{
            diffuseColor 0.10980392156862745 0.10980392156862745 0.10980392156862745
            specularColor 0.0784313725490196 0.0784313725490196 0.0784313725490196
            ambientIntensity 0.1098
            transparency 0.0
            shininess 0.5
        }
    }
    geometry IndexedFaceSet {
        ccw TRUE
        solid FALSE
        coord DEF co Coordinate {
            point [
                -1.2362 0.7283 1.3976, -1.1554 0.7283 1.3976, -1.1554 0.7562 1.3976, -1.2423 0.8862 1.3976, -1.243 0.8883 1.3976, -1.4606 0.786 1.3976, -1.2484 0.9417 1.3976, -1.4606 1.1614 1.3976, -1.2423 0.786 1.3976, -1.1625 0.7882 1.3976, -1.1827 0.7966 1.3976, -1.2011 0.8101 1.3976, -1.2203 0.8329 1.3976, -1.2292 0.8483 1.3976, -1.1554 0.7872 1.3976, -1.1554 0.786 1.3976, -1.1466 0.786 1.3976, -1.1324 0.7841 1.3976, -1.1116 0.786 1.3976, -0.9795 0.786 1.3976, -1.1103 0.7861 1.3976, -1.1531 1.1042 1.3976, -1.1284 1.1067 1.3976, -1.1554 1.1614 1.3976, -0.9795 1.1614 1.3976, -1.1016 1.1034 1.3976, -1.0812 1.0954 1.3976, -1.0306 0.8566 1.3976, -1.0493 0.8247 1.3976, -1.0674 0.8061 1.3976, -1.087 0.7937 1.3976, -1.0623 1.082 1.3976, -1.0432 1.0598 1.3976, -1.0294 1.0342 1.3976, -1.0174 0.9916 1.3976, -1.0141 0.9491 1.3976, -1.0188 0.8961 1.3976, -1.2438 0.9943 1.3976, -1.2423 0.9992 1.3976, -1.2423 1.1614 1.3976, -1.2319 1.034 1.3976, -1.2132 1.0658 1.3976, -1.195 1.0844 1.3976, -1.1758 1.0966 1.3976, -1.1554 1.1035 1.3976, -0.7638 0.7283 1.3976, -0.7638 -0.7283 1.3976, -0.5 -0.7854 1.3976, -0.766 -0.7854 1.3976, -0.5 0.7562 1.3976, -0.766 0.7562 1.3976, -0.766 0.7283 1.3976, -0.9795 0.7562 1.3976, -0.9795 0.7283 1.3976, -1.1554 -0.7283 1.3976, -1.2362 -0.7283 1.3976, -1.2423 -0.7854 1.3976, -1.2423 0.7562 1.3976, 1.4606 0.786 1.3976, 1.4606 0.9646 1.3976, 0.5 0.786 1.3976, 1.2638 1.1614 1.3976, -1.2638 -1.1614 1.3976, -1.2423 -1.1215 1.3976, -1.3037 -1.1215 1.3976, -1.4606 -0.9646 1.3976, 0.5 1.1614 1.3976, -0.5 1.1614 1.3976, -0.5 0.786 1.3976, -0.766 1.1614 1.3976, -0.766 0.786 1.3976, -0.8052 0.7879 1.3976, -0.9373 0.7879 1.3976, -0.9373 1.053 1.3976, -0.9383 1.053 1.3976, -0.9335 1.0425 1.3976, -0.9374 1.0309 1.3976, -0.9289 1.0324 1.3976, -0.799 1.1029 1.3976, -0.7683 1.1029 1.3976, -0.7683 0.7879 1.3976, -0.968 0.7879 1.3976, -0.968 1.1029 1.3976, -0.9296 1.1029 1.3976, -0.799 0.8874 1.3976, -0.9373 1.0089 1.3976, -0.7981 0.8417 1.3976, -0.7974 0.8417 1.3976, -0.8029 0.8527 1.3976, -0.7988 0.8645 1.3976, -0.8083 0.8634 1.3976, 0.5 0.7562 1.3976, 1.4606 0.7562 1.3976, 1.4606 -0.7854 1.3976, 1.2362 -0.7283 1.3976, 0.7638 -0.7283 1.3976, 1.2362 0.7283 1.3976, 0.7638 0.7283 1.3976, 0.5 -0.7854 1.3976, -0.2362 0.7283 1.3976, -0.2362 -0.7283 1.3976, 0.2362 -0.7283 1.3976, 0.2362 0.7283 1.3976, -1.4606 0.7562 1.3976, -1.4606 -0.7854 1.3976, -0.9911 -0.8425 1.3976, -0.9795 -1.1215 1.3976, -0.9795 -0.7854 1.3976, -0.766 -1.1215 1.3976, -0.5 -1.1215 1.3976, 0.5 -1.1215 1.3976, 1.4606 -1.1215 1.3976, -0.9911 -1.0816 1.3976, -1.0199 -1.0816 1.3976, -1.1554 -1.1215 1.3976, -1.1554 -0.7854 1.3976, -1.0367 -0.8647 1.3976, -1.0023 -0.8425 1.3976, -1.0199 -0.881 1.3976, -1.0417 -0.8956 1.3976, -1.0702 -0.9076 1.3976, -1.0746 -0.9088 1.3976, -1.0746 -0.88 1.3976, -0.766 -0.7283 1.3976, -0.9795 -0.7283 1.3976, -1.2423 -1.1614 1.3976, -1.1554 -1.1614 1.3976, -0.9795 -1.1614 1.3976, -0.766 -1.1614 1.3976, -0.5 -1.1614 1.3976, 0.5 -1.1614 1.3976, 1.4606 -1.1614 1.3976
            ]
        }
        coordIndex [
            0,1,2,-1,3,4,5,-1,5,4,6,-1,5,6,7,-1,8,9,10,-1,10,11,8,-1,8,11,12,-1,8,12,13,-1,14,15,16,-1,16,15,2,-1,16,2,17,-1,17,2,18,-1,18,2,19,-1,18,19,20,-1,21,22,23,-1,23,22,24,-1,24,22,25,-1,24,25,26,-1,27,28,19,-1,28,29,19,-1,19,29,30,-1,19,30,20,-1,26,31,24,-1,24,31,32,-1,24,32,33,-1,33,34,24,-1,24,34,35,-1,24,35,19,-1,19,35,36,-1,19,36,27,-1,6,37,7,-1,7,37,38,-1,7,38,39,-1,39,38,40,-1,39,40,41,-1,41,42,39,-1,39,42,43,-1,39,43,23,-1,23,43,44,-1,23,44,21,-1,45,46,47,-1,47,46,48,-1,47,49,45,-1,45,49,50,-1,45,50,51,-1,51,50,52,-1,51,52,53,-1,54,55,56,-1,56,55,57,-1,58,59,60,-1,60,59,61,-1,62,63,64,-1,64,63,56,-1,64,56,65,-1,61,66,60,-1,60,66,67,-1,60,67,68,-1,68,67,69,-1,68,69,70,-1,71,72,70,-1,70,72,19,-1,73,74,75,-1,75,74,76,-1,75,76,77,-1,24,78,69,-1,69,78,79,-1,69,79,70,-1,70,79,80,-1,70,80,71,-1,72,81,19,-1,19,81,82,-1,19,82,24,-1,24,82,83,-1,24,83,78,-1,78,83,84,-1,77,76,71,-1,71,76,85,-1,71,85,72,-1,86,87,88,-1,88,87,89,-1,84,83,89,-1,89,83,90,-1,89,90,88,-1,1,53,2,-1,2,53,52,-1,2,52,19,-1,19,52,50,-1,19,50,70,-1,70,50,49,-1,70,49,68,-1,68,49,91,-1,68,91,60,-1,60,91,92,-1,60,92,58,-1,14,9,15,-1,15,9,8,-1,15,8,2,-1,2,8,57,-1,2,57,0,-1,0,57,55,-1,93,94,95,-1,94,93,96,-1,96,93,92,-1,96,92,97,-1,97,92,91,-1,97,91,95,-1,95,91,98,-1,95,98,93,-1,99,49,100,-1,100,49,47,-1,100,47,101,-1,101,47,98,-1,101,98,102,-1,102,98,91,-1,102,91,99,-1,99,91,49,-1,13,3,8,-1,8,3,5,-1,8,5,57,-1,57,5,103,-1,57,103,56,-1,56,103,104,-1,56,104,65,-1,105,106,107,-1,107,106,108,-1,107,108,48,-1,48,108,109,-1,48,109,47,-1,47,109,110,-1,47,110,98,-1,98,110,111,-1,98,111,93,-1,105,112,106,-1,106,112,113,-1,106,113,114,-1,115,116,107,-1,107,116,117,-1,107,117,105,-1,118,119,113,-1,113,119,120,-1,113,120,114,-1,114,120,121,-1,114,121,115,-1,115,121,122,-1,115,122,116,-1,46,123,48,-1,48,123,124,-1,48,124,107,-1,107,124,54,-1,107,54,115,-1,115,54,56,-1,115,56,114,-1,114,56,63,-1,62,125,63,-1,63,125,126,-1,63,126,114,-1,114,126,127,-1,114,127,106,-1,106,127,128,-1,106,128,108,-1,108,128,129,-1,108,129,109,-1,109,129,130,-1,109,130,110,-1,110,130,131,-1,110,131,111,-1,
        ]
    }
}
Shape{
    appearance Appearance {
        material  Material 	{
            diffuseColor 0.25098039215686274 0.25098039215686274 0.25098039215686274
            specularColor 0.17647058823529413 0.17647058823529413 0.17647058823529413
            ambientIntensity 0.251
            transparency 0.0
            shininess 0.5
        }
    }
    geometry IndexedFaceSet {
        ccw TRUE
        solid FALSE
        coord DEF co Coordinate {
            point [
                1.4606 1.1614 1.2402, 1.5 1.2008 0.6496, 1.3031 1.1992 0.6732, 1.3031 1.2008 0.6496, 0.6969 1.2008 0.6496, 0.3031 1.2008 0.6496, 0.6969 1.1992 0.6732, 0.3031 1.1992 0.6732, 1.2638 1.1614 1.2402, -1.4606 1.1614 1.2402, -0.3031 1.1992 0.6732, -1.3031 1.2008 0.6496, -1.5 1.2008 0.6496, -1.3031 1.1992 0.6732, -0.6969 1.1992 0.6732, -0.6969 1.2008 0.6496, -0.3031 1.2008 0.6496, 1.3031 1.2008 0.5906, 1.5 1.2008 0.5906, 1.3031 1.1983 0.5709, 1.4606 1.1614 0.2756, -1.5 1.2008 0.5906, -1.3031 1.2008 0.5906, -1.4606 1.1614 0.2756, -1.3031 1.1983 0.5709, -0.0516 1.1614 0.2756, -0.6969 1.1983 0.5709, 0.3031 1.2008 0.5906, 0.6969 1.2008 0.5906, 0.3031 1.1983 0.5709, 0.6969 1.1983 0.5709, -0.6969 1.2008 0.5906, -0.3031 1.2008 0.5906, -0.3031 1.1983 0.5709
            ]
        }
        coordIndex [
            0,1,2,-1,2,1,3,-1,4,5,6,-1,6,5,7,-1,0,2,8,-1,8,2,6,-1,8,6,9,-1,9,6,7,-1,9,7,10,-1,11,12,13,-1,13,12,9,-1,13,9,14,-1,14,9,10,-1,14,10,15,-1,15,10,16,-1,17,18,19,-1,19,18,20,-1,21,22,23,-1,23,22,24,-1,23,24,25,-1,25,24,26,-1,27,28,29,-1,29,28,30,-1,31,32,26,-1,26,32,33,-1,26,33,25,-1,25,33,29,-1,25,29,20,-1,20,29,30,-1,20,30,19,-1,
        ]
    }
}
Shape{
    appearance Appearance {
        material  Material 	{
            diffuseColor 0.10980392156862745 0.10980392156862745 0.10980392156862745
            specularColor 0.0784313725490196 0.0784313725490196 0.0784313725490196
            ambientIntensity 0.1098
            transparency 0.0
            shininess 0.5
        }
    }
    geometry IndexedFaceSet {
        ccw TRUE
        solid FALSE
        coord DEF co Coordinate {
            point [
                1.5 1.2008 0.6496, 1.5 1.2008 0.5906, 1.3031 1.2008 0.6496, 1.3031 1.2008 0.5906, 0.3031 1.2008 0.5906, 0.3031 1.2008 0.6496, 0.6969 1.2008 0.5906, 0.6969 1.2008 0.6496
            ]
        }
        coordIndex [
            0,1,2,-1,2,1,3,-1,4,5,6,-1,6,5,7,-1,
        ]
    }
}
Shape{
    appearance Appearance {
        material  Material 	{
            diffuseColor 0.25098039215686274 0.25098039215686274 0.25098039215686274
            specularColor 0.17647058823529413 0.17647058823529413 0.17647058823529413
            ambientIntensity 0.251
            transparency 0.0
            shininess 0.5
        }
    }
    geometry IndexedFaceSet {
        ccw TRUE
        solid FALSE
        coord DEF co Coordinate {
            point [
                -1.5 -1.2008 0.6496, -1.3031 -1.2008 0.6496, -1.3031 -1.1992 0.6732, 0.3031 -1.1992 0.6732, 0.3031 -1.2008 0.6496, 0.6969 -1.2008 0.6496, 1.3031 -1.2008 0.6496, 1.5 -1.2008 0.6496, 1.3031 -1.1992 0.6732, 1.4606 -1.1614 1.2402, 0.6969 -1.1992 0.6732, -1.2638 -1.1614 1.2402, -0.6969 -1.1992 0.6732, -1.4606 -1.1614 1.2402, -0.3031 -1.1992 0.6732, -0.3031 -1.2008 0.6496, -0.6969 -1.2008 0.6496, 0.6969 -1.1983 0.5709, -0.0516 -1.1614 0.2756, 1.3031 -1.1983 0.5709, 1.4606 -1.1614 0.2756, 1.3031 -1.2008 0.5906, 1.5 -1.2008 0.5906, 0.6969 -1.2008 0.5906, 0.3031 -1.2008 0.5906, 0.3031 -1.1983 0.5709, -0.3031 -1.1983 0.5709, -1.4606 -1.1614 0.2756, -1.3031 -1.2008 0.5906, -1.5 -1.2008 0.5906, -1.3031 -1.1983 0.5709, -0.6969 -1.1983 0.5709, -0.6969 -1.2008 0.5906, -0.3031 -1.2008 0.5906
            ]
        }
        coordIndex [
            0,1,2,-1,3,4,5,-1,6,7,8,-1,8,7,9,-1,8,9,10,-1,10,9,11,-1,12,11,2,-1,2,11,13,-1,2,13,0,-1,5,10,3,-1,3,10,11,-1,3,11,14,-1,14,11,12,-1,14,12,15,-1,15,12,16,-1,17,18,19,-1,19,18,20,-1,19,20,21,-1,21,20,22,-1,23,24,17,-1,17,24,25,-1,17,25,18,-1,18,25,26,-1,18,26,27,-1,28,29,30,-1,30,29,27,-1,30,27,31,-1,31,27,26,-1,31,26,32,-1,32,26,33,-1,
        ]
    }
}
Shape{
    appearance Appearance {
        material  Material 	{
            diffuseColor 0.10980392156862745 0.10980392156862745 0.10980392156862745
            specularColor 0.0784313725490196 0.0784313725490196 0.0784313725490196
            ambientIntensity 0.1098
            transparency 0.0
            shininess 0.5
        }
    }
    geometry IndexedFaceSet {
        ccw TRUE
        solid FALSE
        coord DEF co Coordinate {
            point [
                0.3031 -1.2008 0.6496, 0.3031 -1.2008 0.5906, 0.6969 -1.2008 0.6496, 0.6969 -1.2008 0.5906, 1.5 -1.2008 0.5906, 1.5 -1.2008 0.6496, 1.3031 -1.2008 0.5906, 1.3031 -1.2008 0.6496
            ]
        }
        coordIndex [
            0,1,2,-1,2,1,3,-1,4,5,6,-1,6,5,7,-1,
        ]
    }
}
Shape{
    appearance Appearance {
        material  Material 	{
            diffuseColor 1.0 1.0 1.0
            specularColor 0.8784313725490196 0.8784313725490196 0.8784313725490196
            ambientIntensity 1.0
            transparency 0.0
            shininess 0.5
        }
    }
    geometry IndexedFaceSet {
        ccw TRUE
        solid FALSE
        coord DEF co Coordinate {
            point [
                1.1969 -0.3937 1.2402, 1.1969 -0.3937 1.2008, 1.1772 -0.3937 1.2402, 1.1772 -0.3937 1.2008, 0.8031 -0.3937 1.2008, 0.8031 -0.3937 1.2402, 0.8228 -0.3937 1.2008, 0.8228 -0.3937 1.2402
            ]
        }
        coordIndex [
            0,1,2,-1,2,1,3,-1,4,5,6,-1,6,5,7,-1,
        ]
    }
}
Shape{
    appearance Appearance {
        material  Material 	{
            diffuseColor 1.0 1.0 1.0
            specularColor 0.30196078431372547 0.30196078431372547 0.30196078431372547
            ambientIntensity 1.0
            transparency 0.0
            shininess 0.5
        }
    }
    geometry IndexedFaceSet {
        ccw TRUE
        solid FALSE
        coord DEF co Coordinate {
            point [
                0.8031 -0.3937 1.2008, 0.8228 -0.3937 1.2008, 0.8228 -0.0787 1.2008, 1.1772 -0.3937 1.2008, 1.1969 -0.3937 1.2008, 1.1772 -0.0787 1.2008, 1.1969 0.3937 1.2008, 0.8031 0.3937 1.2008
            ]
        }
        coordIndex [
            0,1,2,-1,3,4,5,-1,5,4,6,-1,5,6,2,-1,2,6,7,-1,2,7,0,-1,
        ]
    }
}
Shape{
    appearance Appearance {
        material  Material 	{
            diffuseColor 0.9686274509803922 0.8784313725490196 0.6
            specularColor 0.6784313725490196 0.615686274509804 0.4196078431372549
            ambientIntensity 0.8737
            transparency 0.0
            shininess 0.5
        }
    }
    geometry IndexedFaceSet {
        ccw TRUE
        solid FALSE
        coord DEF co Coordinate {
            point [
                -1.0984 1.9213 0.1024, -0.9016 1.9213 0.1024, -1.0984 1.9213 0.0, -0.9016 1.9213 0.0, -0.9016 1.7068 0.0, -1.0984 1.7068 0.0, -0.9016 1.7068 0.1024, -1.0984 1.7068 0.1024, -0.9016 1.581 0.0978, -1.0984 1.581 0.0978, -1.0984 1.591 0.0711, -0.9016 1.591 0.0711, -1.0984 1.6067 0.0472, -0.9016 1.6067 0.0472, -1.0984 1.6271 0.0273, -0.9016 1.6271 0.0273, -1.0984 1.6515 0.0124, -0.9016 1.6515 0.0124, -1.0984 1.6785 0.0031, -0.9016 1.6785 0.0031, -0.9016 1.7008 0.103, -1.0984 1.7008 0.103, -0.9016 1.6951 0.105, -1.0984 1.6951 0.105, -0.9016 1.6899 0.1082, -1.0984 1.6899 0.1082, -0.9016 1.6856 0.1124, -1.0984 1.6856 0.1124, -0.9016 1.6823 0.1174, -1.0984 1.6823 0.1174, -0.9016 1.6801 0.1231, -1.0984 1.6801 0.1231, -0.6969 1.5647 0.5754, -0.6969 1.4655 0.5501, -0.6969 1.6279 0.3278, -0.6969 1.5223 0.3278, -1.0984 1.5745 0.1231, -0.9016 1.5745 0.1231, -1.3031 1.5223 0.3278, -1.3031 1.4655 0.5501, -1.3031 1.5647 0.5754, -1.3031 1.6279 0.3278
            ]
        }
        coordIndex [
            0,1,2,-1,2,1,3,-1,3,4,2,-1,2,4,5,-1,6,1,7,-1,7,1,0,-1,8,9,10,-1,8,10,11,-1,11,10,12,-1,11,12,13,-1,13,12,14,-1,13,14,15,-1,15,14,16,-1,15,16,17,-1,17,16,18,-1,17,18,19,-1,19,18,5,-1,19,5,4,-1,6,7,20,-1,20,7,21,-1,20,21,22,-1,22,21,23,-1,22,23,24,-1,24,23,25,-1,24,25,26,-1,26,25,27,-1,26,27,28,-1,28,27,29,-1,28,29,30,-1,30,29,31,-1,32,33,34,-1,34,33,35,-1,9,8,36,-1,36,8,37,-1,36,37,38,-1,38,37,35,-1,38,35,39,-1,39,35,33,-1,39,40,38,-1,38,40,41,-1,40,32,34,-1,30,31,34,-1,34,31,41,-1,34,41,40,-1,
        ]
    }
}
Shape{
    appearance Appearance {
        material  Material 	{
            diffuseColor 0.10980392156862745 0.10980392156862745 0.10980392156862745
            specularColor 0.0784313725490196 0.0784313725490196 0.0784313725490196
            ambientIntensity 0.1098
            transparency 0.0
            shininess 0.5
        }
    }
    geometry IndexedFaceSet {
        ccw TRUE
        solid FALSE
        coord DEF co Coordinate {
            point [
                -0.3031 1.2008 0.6496, -0.3031 1.2008 0.5906, -0.6969 1.2008 0.6496, -0.6969 1.2008 0.5906, -1.5 1.2008 0.5906, -1.5 1.2008 0.6496, -1.3031 1.2008 0.5906, -1.3031 1.2008 0.6496, -1.5 -1.2008 0.6496, -1.5 -1.2008 0.5906, -1.3031 -1.2008 0.6496, -1.3031 -1.2008 0.5906, -0.3031 -1.2008 0.5906, -0.3031 -1.2008 0.6496, -0.6969 -1.2008 0.5906, -0.6969 -1.2008 0.6496, -0.0384 -0.0429 0.2756, -0.0471 -0.0429 0.2756, -0.0516 -0.0352 0.2756, -0.0425 -0.138 0.2756, -0.0425 -0.1082 0.2756, 0.0276 -0.138 0.2756, 1.4606 -0.0352 0.2756, 0.0276 -0.1485 0.2756, 1.4606 -1.1614 0.2756, -0.0512 -0.1485 0.2756, -0.0516 -1.1614 0.2756, 0.0199 -0.0614 0.2756, -0.0392 -0.0443 0.2756, 0.0187 -0.0518 0.2756, 0.0149 -0.0429 0.2756, 0.0254 -0.0429 0.2756, 0.019 -0.0691 0.2756, 0.0169 -0.075 0.2756, 0.0132 -0.0806 0.2756, 0.0079 -0.0853 0.2756, 0.0018 -0.0885 0.2756, -0.0067 -0.0906 0.2756, -0.0126 -0.0909 0.2756, -0.0211 -0.0901 0.2756, -0.0279 -0.088 0.2756, -0.0435 -0.0631 0.2756, -0.0372 -0.0811 0.2756, -0.0427 -0.0704 0.2756, -0.0405 -0.0762 0.2756, -0.0334 -0.0847 0.2756, -0.0423 -0.0527 0.2756, -0.0485 -0.082 0.2756, -0.0512 -0.1082 0.2756, -0.0511 -0.0743 0.2756, -0.0516 -0.0692 0.2756, 0.0142 -0.0927 0.2756, 0.0209 -0.0859 0.2756, 0.0252 -0.0785 0.2756, 0.0278 -0.0699 0.2756, -0.0443 -0.0884 0.2756, -0.0381 -0.0943 0.2756, -0.0306 -0.0984 0.2756, -0.0222 -0.1008 0.2756, 0.0285 -0.0614 0.2756, 0.0279 -0.052 0.2756, -0.0133 -0.1015 0.2756, -0.0021 -0.1004 0.2756, 0.0069 -0.0973 0.2756, -0.0505 -0.0513 0.2756, -0.0516 -0.0593 0.2756, -1.4606 -0.0352 0.2756, -0.0521 -0.0624 0.2756, -1.4606 -1.1614 0.2756, -0.0521 -0.0646 0.2756, -0.0512 0.0147 0.2756, -0.0512 -0.0276 0.2756, 0.0276 -0.0276 0.2756, -0.0213 0.0923 0.2756, -0.0296 0.0895 0.2756, -0.0512 0.0992 0.2756, -0.0366 0.085 0.2756, 0.0189 0.0128 0.2756, 0.0189 -0.017 0.2756, -0.007 -0.017 0.2756, 0.0276 0.129 0.2756, 0.0276 0.1395 0.2756, 1.4606 1.1614 0.2756, 0.0276 0.0128 0.2756, -0.0516 1.1614 0.2756, -0.0156 0.0109 0.2756, -0.0156 -0.017 0.2756, -0.0425 -0.017 0.2756, -0.0428 0.0785 0.2756, -0.0476 0.0703 0.2756, -0.0503 0.0612 0.2756, 0.0089 0.0885 0.2756, 0.0013 0.0918 0.2756, -0.0069 0.0933 0.2756, -0.0108 0.0934 0.2756, -0.0425 0.0147 0.2756, -0.0512 0.0301 0.2756, -0.007 0.0109 0.2756, 0.0276 0.0301 0.2756, -0.0512 0.0515 0.2756, 0.0231 0.0729 0.2756, 0.0181 0.0807 0.2756, 0.0152 0.0837 0.2756, 0.0276 0.0523 0.2756, 0.0264 0.0637 0.2756, -0.0512 0.1703 0.2756, -0.0512 0.1587 0.2756, -0.0291 0.1508 0.2756, -0.0291 0.1182 0.2756, -0.0512 0.1107 0.2756, -1.4606 1.1614 0.2756
            ]
        }
        coordIndex [
            0,1,2,-1,2,1,3,-1,4,5,6,-1,6,5,7,-1,8,9,10,-1,10,9,11,-1,12,13,14,-1,14,13,15,-1,16,17,18,-1,19,20,21,-1,21,20,22,-1,21,22,23,-1,23,22,24,-1,23,24,25,-1,25,24,26,-1,27,28,29,-1,29,28,16,-1,29,16,30,-1,30,16,22,-1,30,22,31,-1,27,32,28,-1,28,32,33,-1,28,33,34,-1,34,35,28,-1,28,35,36,-1,28,36,37,-1,37,38,28,-1,28,38,39,-1,28,39,40,-1,41,42,43,-1,43,42,44,-1,40,45,28,-1,28,45,42,-1,28,42,46,-1,46,42,41,-1,47,48,49,-1,49,48,50,-1,51,52,22,-1,22,52,53,-1,22,53,54,-1,47,55,48,-1,48,55,56,-1,48,56,20,-1,20,56,57,-1,20,57,58,-1,54,59,22,-1,22,59,60,-1,22,60,31,-1,58,61,20,-1,20,61,62,-1,20,62,22,-1,22,62,63,-1,22,63,51,-1,17,64,18,-1,18,64,65,-1,18,65,66,-1,66,65,67,-1,66,67,68,-1,68,67,69,-1,68,69,26,-1,26,69,50,-1,26,50,25,-1,25,50,48,-1,70,71,18,-1,18,71,72,-1,73,74,75,-1,75,74,76,-1,77,78,79,-1,80,81,82,-1,16,18,22,-1,22,18,72,-1,22,72,82,-1,82,72,83,-1,82,83,77,-1,82,81,84,-1,85,86,87,-1,76,88,75,-1,75,88,89,-1,75,89,90,-1,91,92,80,-1,80,92,93,-1,80,93,75,-1,75,93,94,-1,75,94,73,-1,87,95,85,-1,85,95,96,-1,85,96,97,-1,97,96,98,-1,95,70,96,-1,96,70,18,-1,96,18,99,-1,100,101,80,-1,80,101,102,-1,80,102,91,-1,79,97,77,-1,77,97,98,-1,77,98,82,-1,82,98,103,-1,82,103,80,-1,80,103,104,-1,80,104,100,-1,105,106,18,-1,107,108,106,-1,106,108,109,-1,106,109,18,-1,18,109,75,-1,18,75,99,-1,99,75,90,-1,66,110,18,-1,18,110,84,-1,18,84,105,-1,105,84,81,-1,
        ]
    }
}
Shape{
    appearance Appearance {
        material  Material 	{
            diffuseColor 0.9686274509803922 0.8784313725490196 0.6
            specularColor 0.6784313725490196 0.615686274509804 0.4196078431372549
            ambientIntensity 0.8737
            transparency 0.0
            shininess 0.5
        }
    }
    geometry IndexedFaceSet {
        ccw TRUE
        solid FALSE
        coord DEF co Coordinate {
            point [
                -0.0984 1.9213 0.1024, 0.0984 1.9213 0.1024, -0.0984 1.9213 0.0, 0.0984 1.9213 0.0, 0.0984 1.7068 0.0, -0.0984 1.7068 0.0, 0.0984 1.7068 0.1024, -0.0984 1.7068 0.1024, 0.0984 1.581 0.0978, -0.0984 1.581 0.0978, -0.0984 1.591 0.0711, 0.0984 1.591 0.0711, -0.0984 1.6067 0.0472, 0.0984 1.6067 0.0472, -0.0984 1.6271 0.0273, 0.0984 1.6271 0.0273, -0.0984 1.6515 0.0124, 0.0984 1.6515 0.0124, -0.0984 1.6785 0.0031, 0.0984 1.6785 0.0031, 0.0984 1.7008 0.103, -0.0984 1.7008 0.103, 0.0984 1.6951 0.105, -0.0984 1.6951 0.105, 0.0984 1.6899 0.1082, -0.0984 1.6899 0.1082, 0.0984 1.6856 0.1124, -0.0984 1.6856 0.1124, 0.0984 1.6823 0.1174, -0.0984 1.6823 0.1174, 0.0984 1.6801 0.1231, -0.0984 1.6801 0.1231, 0.3031 1.5647 0.5754, 0.3031 1.4655 0.5501, 0.3031 1.6279 0.3278, 0.3031 1.5223 0.3278, -0.0984 1.5745 0.1231, 0.0984 1.5745 0.1231, -0.3031 1.5223 0.3278, -0.3031 1.4655 0.5501, -0.3031 1.5647 0.5754, -0.3031 1.6279 0.3278
            ]
        }
        coordIndex [
            0,1,2,-1,2,1,3,-1,3,4,2,-1,2,4,5,-1,6,1,7,-1,7,1,0,-1,8,9,10,-1,8,10,11,-1,11,10,12,-1,11,12,13,-1,13,12,14,-1,13,14,15,-1,15,14,16,-1,15,16,17,-1,17,16,18,-1,17,18,19,-1,19,18,5,-1,19,5,4,-1,6,7,20,-1,20,7,21,-1,20,21,22,-1,22,21,23,-1,22,23,24,-1,24,23,25,-1,24,25,26,-1,26,25,27,-1,26,27,28,-1,28,27,29,-1,28,29,30,-1,30,29,31,-1,32,33,34,-1,34,33,35,-1,9,8,36,-1,36,8,37,-1,36,37,38,-1,38,37,35,-1,38,35,39,-1,39,35,33,-1,39,40,38,-1,38,40,41,-1,40,32,34,-1,30,31,34,-1,34,31,41,-1,34,41,40,-1,
        ]
    }
}
Shape{
    appearance Appearance {
        material  Material 	{
            diffuseColor 0.25098039215686274 0.25098039215686274 0.25098039215686274
            specularColor 0.17647058823529413 0.17647058823529413 0.17647058823529413
            ambientIntensity 0.251
            transparency 0.0
            shininess 0.5
        }
    }
    geometry IndexedFaceSet {
        ccw TRUE
        solid FALSE
        coord DEF co Coordinate {
            point [
                1.4606 1.1614 1.2402, 1.2638 1.1614 1.2402, 1.4606 0.9646 1.2402
            ]
        }
        coordIndex [
            0,1,2,-1,
        ]
    }
}
Shape{
    appearance Appearance {
        material  Material 	{
            diffuseColor 0.10980392156862745 0.10980392156862745 0.10980392156862745
            specularColor 0.0784313725490196 0.0784313725490196 0.0784313725490196
            ambientIntensity 0.1098
            transparency 0.0
            shininess 0.5
        }
    }
    geometry IndexedFaceSet {
        ccw TRUE
        solid FALSE
        coord DEF co Coordinate {
            point [
                1.5 1.2008 0.5906, 1.5 1.2008 0.6496, 1.5 -1.2008 0.5906, 1.5 -1.2008 0.6496, -1.5 -1.2008 0.5906, -1.5 -1.2008 0.6496, -1.5 1.2008 0.5906, -1.5 1.2008 0.6496
            ]
        }
        coordIndex [
            0,1,2,-1,2,1,3,-1,4,5,6,-1,6,5,7,-1,
        ]
    }
}
Shape{
    appearance Appearance {
        material  Material 	{
            diffuseColor 0.25098039215686274 0.25098039215686274 0.25098039215686274
            specularColor 0.17647058823529413 0.17647058823529413 0.17647058823529413
            ambientIntensity 0.251
            transparency 0.0
            shininess 0.5
        }
    }
    geometry IndexedFaceSet {
        ccw TRUE
        solid FALSE
        coord DEF co Coordinate {
            point [
                -1.4606 -1.1614 1.2402, -1.2638 -1.1614 1.2402, -1.4606 -0.9646 1.2402, 1.4606 -1.1614 1.2402, 1.4606 -1.1614 1.3976, -1.2638 -1.1614 1.3976, -1.4606 1.1614 1.3976, -1.4606 1.1614 1.2402, -1.4606 -0.9646 1.3976, 1.2638 1.1614 1.2402, 1.2638 1.1614 1.3976, 1.4606 0.9646 1.3976, 1.4606 0.9646 1.2402, 1.5 -1.2008 0.6496, 1.5 1.2008 0.6496, 1.4606 1.1614 1.2402, -1.5 1.2008 0.6496, -1.5 -1.2008 0.6496, 1.4606 1.1614 0.2756, 1.5 1.2008 0.5906, 1.4606 -1.1614 0.2756, 1.5 -1.2008 0.5906, -1.5 1.2008 0.5906, -1.4606 1.1614 0.2756, -1.5 -1.2008 0.5906, -1.4606 -1.1614 0.2756, 0.2362 0.4921 1.2402, 0.2362 -0.4921 1.2402, 0.2362 0.7283 1.3976, 0.2362 -0.7283 1.3976, -0.2362 -0.4921 1.2402, -0.2362 0.4921 1.2402, -0.2362 -0.7283 1.3976, -0.2362 0.7283 1.3976, 0.1969 0.3937 1.2402, -0.1969 0.3937 1.2402, -0.1969 -0.3937 1.2402, 0.1969 -0.3937 1.2402
            ]
        }
        coordIndex [
            0,1,2,-1,3,4,1,-1,1,4,5,-1,6,7,8,-1,8,7,2,-1,7,6,9,-1,9,6,10,-1,4,3,11,-1,11,3,12,-1,12,9,11,-1,11,9,10,-1,2,1,8,-1,8,1,5,-1,3,13,12,-1,12,13,14,-1,12,14,15,-1,7,16,2,-1,2,16,17,-1,2,17,0,-1,18,19,20,-1,20,19,21,-1,22,23,24,-1,24,23,25,-1,26,27,28,-1,28,27,29,-1,30,31,32,-1,32,31,33,-1,34,26,35,-1,35,26,31,-1,35,31,36,-1,36,31,30,-1,36,30,37,-1,37,30,27,-1,37,27,34,-1,34,27,26,-1,29,27,32,-1,32,27,30,-1,33,31,28,-1,28,31,26,-1,
        ]
    }
}
Shape{
    appearance Appearance {
        material  Material 	{
            diffuseColor 1.0 1.0 1.0
            specularColor 0.8784313725490196 0.8784313725490196 0.8784313725490196
            ambientIntensity 1.0
            transparency 0.0
            shininess 0.5
        }
    }
    geometry IndexedFaceSet {
        ccw TRUE
        solid FALSE
        coord DEF co Coordinate {
            point [
                0.1969 0.3937 1.2008, 0.1969 -0.3937 1.2008, 0.1969 0.3937 1.2402, 0.1969 -0.3937 1.2402, -0.1969 -0.3937 1.2008, -0.1969 -0.3937 1.2402, -0.1969 0.3937 1.2008, -0.1969 0.3937 1.2402
            ]
        }
        coordIndex [
            0,1,2,-1,2,1,3,-1,1,4,3,-1,3,4,5,-1,4,6,5,-1,5,6,7,-1,6,0,7,-1,7,0,2,-1,
        ]
    }
}
Shape{
    appearance Appearance {
        material  Material 	{
            diffuseColor 1.0 1.0 1.0
            specularColor 0.30196078431372547 0.30196078431372547 0.30196078431372547
            ambientIntensity 1.0
            transparency 0.0
            shininess 0.5
        }
    }
    geometry IndexedFaceSet {
        ccw TRUE
        solid FALSE
        coord DEF co Coordinate {
            point [
                -0.1969 0.3937 1.2008, -0.1969 -0.3937 1.2008, 0.1969 0.3937 1.2008, 0.1969 -0.3937 1.2008
            ]
        }
        coordIndex [
            0,1,2,-1,2,1,3,-1,
        ]
    }
}
Shape{
    appearance Appearance {
        material  Material 	{
            diffuseColor 0.9686274509803922 0.8784313725490196 0.6
            specularColor 0.6784313725490196 0.615686274509804 0.4196078431372549
            ambientIntensity 0.8737
            transparency 0.0
            shininess 0.5
        }
    }
    geometry IndexedFaceSet {
        ccw TRUE
        solid FALSE
        coord DEF co Coordinate {
            point [
                0.0984 -1.9213 0.0, 0.0984 -1.9213 0.1024, -0.0984 -1.9213 0.0, -0.0984 -1.9213 0.1024, -0.0984 -1.7068 0.0, 0.0984 -1.7068 0.0, -0.0984 -1.7068 0.1024, 0.0984 -1.7068 0.1024, -0.0984 -1.581 0.0978, 0.0984 -1.581 0.0978, 0.0984 -1.591 0.0711, -0.0984 -1.591 0.0711, 0.0984 -1.6067 0.0472, -0.0984 -1.6067 0.0472, 0.0984 -1.6271 0.0273, -0.0984 -1.6271 0.0273, 0.0984 -1.6515 0.0124, -0.0984 -1.6515 0.0124, 0.0984 -1.6785 0.0031, -0.0984 -1.6785 0.0031, -0.0984 -1.7008 0.103, 0.0984 -1.7008 0.103, -0.0984 -1.6951 0.105, 0.0984 -1.6951 0.105, -0.0984 -1.6899 0.1082, 0.0984 -1.6899 0.1082, -0.0984 -1.6856 0.1124, 0.0984 -1.6856 0.1124, -0.0984 -1.6823 0.1174, 0.0984 -1.6823 0.1174, -0.0984 -1.6801 0.1231, 0.0984 -1.6801 0.1231, -0.3031 -1.6279 0.3278, -0.3031 -1.5647 0.5754, -0.3031 -1.5223 0.3278, -0.3031 -1.4655 0.5501, 0.0984 -1.5745 0.1231, -0.0984 -1.5745 0.1231, 0.3031 -1.5223 0.3278, 0.3031 -1.4655 0.5501, 0.3031 -1.6279 0.3278, 0.3031 -1.5647 0.5754, -0.3031 -1.4634 0.5558, -0.3031 -1.5547 0.6021, -0.3031 -1.4601 0.5609, -0.3031 -1.539 0.626, -0.3031 -1.4557 0.5651, -0.3031 -1.5185 0.6459, -0.3031 -1.4506 0.5682, -0.3031 -1.4942 0.6608, -0.3031 -1.4448 0.5702, -0.3031 -1.4672 0.6701, -0.3031 -1.4388 0.5709, -0.3031 -1.4388 0.6732, 0.3031 -1.4634 0.5558, 0.3031 -1.4601 0.5609, 0.3031 -1.4557 0.5651, 0.3031 -1.4506 0.5682, 0.3031 -1.4448 0.5702, 0.3031 -1.4388 0.5709, 0.3031 -1.4388 0.6732, 0.3031 -1.4672 0.6701, 0.3031 -1.4942 0.6608, 0.3031 -1.5185 0.6459, 0.3031 -1.539 0.626, 0.3031 -1.5547 0.6021, -0.3031 -1.2008 0.5906, -0.3031 -1.1983 0.5709, -0.3031 -1.2008 0.6496, -0.3031 -1.1992 0.6732, 0.3031 -1.1983 0.5709, 0.3031 -1.2008 0.5906, 0.3031 -1.2008 0.6496, 0.3031 -1.1992 0.6732, 0.3031 1.4655 0.5501, 0.3031 1.5647 0.5754, 0.3031 1.4634 0.5558, 0.3031 1.5547 0.6021, 0.3031 1.4601 0.5609, 0.3031 1.539 0.626, 0.3031 1.4557 0.5651, 0.3031 1.5185 0.6459, 0.3031 1.4506 0.5682, 0.3031 1.4942 0.6608, 0.3031 1.4448 0.5702, 0.3031 1.4672 0.6701, 0.3031 1.4388 0.5709, 0.3031 1.4388 0.6732, -0.3031 1.4655 0.5501, -0.3031 1.4634 0.5558, -0.3031 1.4601 0.5609, -0.3031 1.4557 0.5651, -0.3031 1.4506 0.5682, -0.3031 1.4448 0.5702, -0.3031 1.4388 0.5709, -0.3031 1.4388 0.6732, -0.3031 1.4672 0.6701, -0.3031 1.4942 0.6608, -0.3031 1.5185 0.6459, -0.3031 1.539 0.626, -0.3031 1.5547 0.6021, -0.3031 1.5647 0.5754, 0.3031 1.2008 0.5906, 0.3031 1.1983 0.5709, 0.3031 1.2008 0.6496, 0.3031 1.1992 0.6732, -0.3031 1.1983 0.5709, -0.3031 1.2008 0.5906, -0.3031 1.2008 0.6496, -0.3031 1.1992 0.6732, 0.0984 1.5745 0.1231, 0.0984 1.6801 0.1231, 0.3031 1.5223 0.3278, 0.3031 1.6279 0.3278, 0.0984 1.9213 0.0, 0.0984 1.9213 0.1024, 0.0984 1.7068 0.0, 0.0984 1.7068 0.1024, 0.0984 1.6785 0.0031, 0.0984 1.7008 0.103, 0.0984 1.6515 0.0124, 0.0984 1.6951 0.105, 0.0984 1.6271 0.0273, 0.0984 1.6899 0.1082, 0.0984 1.6067 0.0472, 0.0984 1.6856 0.1124, 0.0984 1.591 0.0711, 0.0984 1.6823 0.1174, 0.0984 1.581 0.0978, -0.0984 1.5745 0.1231, -0.0984 1.6801 0.1231, -0.0984 1.581 0.0978, -0.0984 1.6823 0.1174, -0.0984 1.9213 0.1024, -0.0984 1.9213 0.0, -0.0984 1.7068 0.1024, -0.0984 1.7068 0.0, -0.0984 1.7008 0.103, -0.0984 1.6785 0.0031, -0.0984 1.6951 0.105, -0.0984 1.6515 0.0124, -0.0984 1.6899 0.1082, -0.0984 1.6271 0.0273, -0.0984 1.6856 0.1124, -0.0984 1.6067 0.0472, -0.0984 1.591 0.0711, -0.3031 1.6279 0.3278, -0.3031 1.5223 0.3278
            ]
        }
        coordIndex [
            0,1,2,-1,2,1,3,-1,4,5,2,-1,2,5,0,-1,3,1,6,-1,6,1,7,-1,8,9,10,-1,8,10,11,-1,11,10,12,-1,11,12,13,-1,13,12,14,-1,13,14,15,-1,15,14,16,-1,15,16,17,-1,17,16,18,-1,17,18,19,-1,19,18,5,-1,19,5,4,-1,6,7,20,-1,20,7,21,-1,20,21,22,-1,22,21,23,-1,22,23,24,-1,24,23,25,-1,24,25,26,-1,26,25,27,-1,26,27,28,-1,28,27,29,-1,28,29,30,-1,30,29,31,-1,32,33,34,-1,34,33,35,-1,9,8,36,-1,36,8,37,-1,36,37,38,-1,38,37,34,-1,38,34,39,-1,39,34,35,-1,38,39,40,-1,40,39,41,-1,41,33,32,-1,30,31,32,-1,32,31,40,-1,32,40,41,-1,35,33,42,-1,42,33,43,-1,42,43,44,-1,44,43,45,-1,44,45,46,-1,46,45,47,-1,46,47,48,-1,48,47,49,-1,48,49,50,-1,50,49,51,-1,50,51,52,-1,52,51,53,-1,39,35,54,-1,54,35,42,-1,54,42,55,-1,55,42,44,-1,55,44,56,-1,56,44,46,-1,56,46,57,-1,57,46,48,-1,57,48,58,-1,58,48,50,-1,58,50,59,-1,59,50,52,-1,59,60,58,-1,58,60,61,-1,58,61,57,-1,57,61,62,-1,57,62,56,-1,56,62,63,-1,56,63,55,-1,55,63,64,-1,55,64,54,-1,54,64,65,-1,54,65,39,-1,39,65,41,-1,60,53,51,-1,60,51,61,-1,61,51,49,-1,61,49,62,-1,62,49,47,-1,62,47,63,-1,63,47,45,-1,63,45,64,-1,64,45,43,-1,64,43,65,-1,65,43,33,-1,65,33,41,-1,66,67,52,-1,66,52,68,-1,68,52,53,-1,68,53,69,-1,59,52,70,-1,70,52,67,-1,59,70,71,-1,59,71,60,-1,60,71,72,-1,60,72,73,-1,53,60,69,-1,69,60,73,-1,30,32,37,-1,37,32,34,-1,2,3,4,-1,4,3,6,-1,4,6,19,-1,19,6,20,-1,19,20,17,-1,17,20,22,-1,17,22,15,-1,15,22,24,-1,15,24,13,-1,13,24,26,-1,13,26,11,-1,11,26,28,-1,11,28,8,-1,8,28,30,-1,8,30,37,-1,36,31,9,-1,9,31,29,-1,1,0,7,-1,7,0,5,-1,7,5,21,-1,21,5,18,-1,21,18,23,-1,23,18,16,-1,23,16,25,-1,25,16,14,-1,25,14,27,-1,27,14,12,-1,27,12,29,-1,29,12,10,-1,29,10,9,-1,36,38,31,-1,31,38,40,-1,74,75,76,-1,76,75,77,-1,76,77,78,-1,78,77,79,-1,78,79,80,-1,80,79,81,-1,80,81,82,-1,82,81,83,-1,82,83,84,-1,84,83,85,-1,84,85,86,-1,86,85,87,-1,88,74,89,-1,89,74,76,-1,89,76,90,-1,90,76,78,-1,90,78,91,-1,91,78,80,-1,91,80,92,-1,92,80,82,-1,92,82,93,-1,93,82,84,-1,93,84,94,-1,94,84,86,-1,94,95,93,-1,93,95,96,-1,93,96,92,-1,92,96,97,-1,92,97,91,-1,91,97,98,-1,91,98,90,-1,90,98,99,-1,90,99,89,-1,89,99,100,-1,89,100,88,-1,88,100,101,-1,95,87,85,-1,95,85,96,-1,96,85,83,-1,96,83,97,-1,97,83,81,-1,97,81,98,-1,98,81,79,-1,98,79,99,-1,99,79,77,-1,99,77,100,-1,100,77,75,-1,100,75,101,-1,102,103,86,-1,102,86,104,-1,104,86,87,-1,104,87,105,-1,94,86,106,-1,106,86,103,-1,94,106,107,-1,94,107,95,-1,95,107,108,-1,95,108,109,-1,87,95,105,-1,105,95,109,-1,110,111,112,-1,112,111,113,-1,114,115,116,-1,116,115,117,-1,116,117,118,-1,118,117,119,-1,118,119,120,-1,120,119,121,-1,120,121,122,-1,122,121,123,-1,122,123,124,-1,124,123,125,-1,124,125,126,-1,126,125,127,-1,126,127,128,-1,128,127,111,-1,128,111,110,-1,129,130,131,-1,131,130,132,-1,133,134,135,-1,135,134,136,-1,135,136,137,-1,137,136,138,-1,137,138,139,-1,139,138,140,-1,139,140,141,-1,141,140,142,-1,141,142,143,-1,143,142,144,-1,143,144,132,-1,132,144,145,-1,132,145,131,-1,130,129,146,-1,146,129,147,-1,
        ]
    }
}
Shape{
    appearance Appearance {
        material  Material 	{
            diffuseColor 1.0 1.0 1.0
            specularColor 0.8784313725490196 0.8784313725490196 0.8784313725490196
            ambientIntensity 1.0
            transparency 0.0
            shininess 0.5
        }
    }
    geometry IndexedFaceSet {
        ccw TRUE
        solid FALSE
        coord DEF co Coordinate {
            point [
                -0.0204 0.1209 0.2795, -0.0291 0.1182 0.2795, -0.0204 0.1472 0.2795, -0.0291 0.1508 0.2795, 0.0125 0.1326 0.2795, 0.0276 0.129 0.2795, -0.0512 0.0992 0.2795, -0.0512 0.1107 0.2795, 0.0152 0.1334 0.2795, 0.018 0.1339 0.2795, 0.0276 0.1395 0.2795, 0.018 0.1342 0.2795, 0.0152 0.1347 0.2795, 0.0125 0.1354 0.2795, -0.0512 0.1703 0.2795, -0.0512 0.1587 0.2795, -0.0291 0.1508 0.2756, -0.0512 0.1587 0.2756, -0.0291 0.1182 0.2756, -0.0512 0.1107 0.2756, -0.0512 0.0992 0.2756, 0.0276 0.129 0.2756, 0.0276 0.1395 0.2756, -0.0512 0.1703 0.2756, 0.0125 0.1354 0.2756, 0.0152 0.1347 0.2756, 0.018 0.1342 0.2756, 0.018 0.1339 0.2756, 0.0152 0.1334 0.2756, 0.0125 0.1326 0.2756, -0.0204 0.1209 0.2756, -0.0204 0.1472 0.2756, 0.0276 0.0523 0.2795, 0.0276 0.0523 0.2756, 0.0276 0.0301 0.2795, 0.0276 0.0301 0.2756, 0.0264 0.0637 0.2795, 0.0264 0.0637 0.2756, 0.0231 0.0729 0.2795, 0.0231 0.0729 0.2756, 0.0181 0.0807 0.2795, 0.0181 0.0807 0.2756, 0.0152 0.0837 0.2795, 0.0152 0.0837 0.2756, 0.0089 0.0885 0.2795, 0.0089 0.0885 0.2756, 0.0013 0.0918 0.2795, 0.0013 0.0918 0.2756, -0.0069 0.0933 0.2795, -0.0069 0.0933 0.2756, -0.0108 0.0934 0.2795, -0.0108 0.0934 0.2756, -0.0213 0.0923 0.2795, -0.0213 0.0923 0.2756, -0.0296 0.0895 0.2795, -0.0296 0.0895 0.2756, -0.0366 0.085 0.2795, -0.0366 0.085 0.2756, -0.0428 0.0785 0.2795, -0.0428 0.0785 0.2756, -0.0476 0.0703 0.2795, -0.0476 0.0703 0.2756, -0.0503 0.0612 0.2795, -0.0503 0.0612 0.2756, -0.0512 0.0515 0.2795, -0.0512 0.0515 0.2756, -0.0512 0.0301 0.2795, -0.0512 0.0301 0.2756, -0.011 0.0829 0.2795, -0.0032 0.0822 0.2795, 0.003 0.0804 0.2795, 0.0079 0.0777 0.2795, 0.0119 0.0738 0.2795, 0.0157 0.0681 0.2795, 0.0179 0.0616 0.2795, 0.0189 0.0522 0.2795, 0.0189 0.0406 0.2795, -0.0425 0.0406 0.2795, -0.0425 0.0518 0.2795, -0.0417 0.0601 0.2795, -0.0397 0.0667 0.2795, -0.0365 0.072 0.2795, -0.0322 0.0764 0.2795, -0.0268 0.0798 0.2795, -0.0206 0.0819 0.2795, -0.0425 0.0518 0.2756, -0.0425 0.0406 0.2756, -0.0417 0.0601 0.2756, -0.0397 0.0667 0.2756, -0.0365 0.072 0.2756, -0.0322 0.0764 0.2756, -0.0268 0.0798 0.2756, -0.0206 0.0819 0.2756, -0.011 0.0829 0.2756, -0.0032 0.0822 0.2756, 0.003 0.0804 0.2756, 0.0079 0.0777 0.2756, 0.0119 0.0738 0.2756, 0.0157 0.0681 0.2756, 0.0179 0.0616 0.2756, 0.0189 0.0522 0.2756, 0.0189 0.0406 0.2756, 0.0276 -0.0276 0.2795, 0.0276 -0.0276 0.2756, -0.0512 -0.0276 0.2795, -0.0512 -0.0276 0.2756, 0.0276 0.0128 0.2795, 0.0276 0.0128 0.2756, 0.0189 0.0128 0.2795, 0.0189 0.0128 0.2756, 0.0189 -0.017 0.2795, 0.0189 -0.017 0.2756, -0.007 -0.017 0.2795, -0.007 -0.017 0.2756, -0.007 0.0109 0.2795, -0.007 0.0109 0.2756, -0.0156 0.0109 0.2795, -0.0156 0.0109 0.2756, -0.0156 -0.017 0.2795, -0.0156 -0.017 0.2756, -0.0425 -0.017 0.2795, -0.0425 -0.017 0.2756, -0.0425 0.0147 0.2795, -0.0425 0.0147 0.2756, -0.0512 0.0147 0.2795, -0.0512 0.0147 0.2756, -0.0516 -0.0692 0.2756, -0.0521 -0.0646 0.2756, -0.0521 -0.0646 0.2795, -0.0511 -0.0743 0.2756, -0.0511 -0.0743 0.2795, -0.0485 -0.082 0.2795, -0.0485 -0.082 0.2756, -0.0443 -0.0884 0.2795, -0.0443 -0.0884 0.2756, -0.0381 -0.0943 0.2795, -0.0381 -0.0943 0.2756, -0.0306 -0.0984 0.2795, -0.0306 -0.0984 0.2756, -0.0222 -0.1008 0.2795, -0.0222 -0.1008 0.2756, -0.0133 -0.1015 0.2795, -0.0133 -0.1015 0.2756, -0.0021 -0.1004 0.2795, -0.0021 -0.1004 0.2756, 0.0069 -0.0973 0.2795, 0.0069 -0.0973 0.2756, 0.0142 -0.0927 0.2795, 0.0142 -0.0927 0.2756, 0.0209 -0.0859 0.2795, 0.0209 -0.0859 0.2756, 0.0252 -0.0785 0.2795, 0.0252 -0.0785 0.2756, 0.0278 -0.0699 0.2795, 0.0278 -0.0699 0.2756, 0.0285 -0.0614 0.2795, 0.0285 -0.0614 0.2756, 0.0279 -0.052 0.2795, 0.0279 -0.052 0.2756, 0.0254 -0.0429 0.2795, 0.0254 -0.0429 0.2756, 0.0149 -0.0429 0.2795, 0.0149 -0.0429 0.2756, 0.0187 -0.0518 0.2795, 0.0187 -0.0518 0.2756, 0.0199 -0.0614 0.2795, 0.0199 -0.0614 0.2756, 0.019 -0.0691 0.2795, 0.019 -0.0691 0.2756, 0.0169 -0.075 0.2795, 0.0169 -0.075 0.2756, 0.0132 -0.0806 0.2795, 0.0132 -0.0806 0.2756, 0.0079 -0.0853 0.2795, 0.0079 -0.0853 0.2756, 0.0018 -0.0885 0.2795, 0.0018 -0.0885 0.2756, -0.0067 -0.0906 0.2795, -0.0067 -0.0906 0.2756, -0.0126 -0.0909 0.2795, -0.0126 -0.0909 0.2756, -0.0211 -0.0901 0.2795, -0.0211 -0.0901 0.2756, -0.0279 -0.088 0.2795, -0.0279 -0.088 0.2756, -0.0334 -0.0847 0.2795, -0.0334 -0.0847 0.2756, -0.0372 -0.0811 0.2795, -0.0372 -0.0811 0.2756, -0.0405 -0.0762 0.2795, -0.0405 -0.0762 0.2756, -0.0427 -0.0704 0.2795, -0.0427 -0.0704 0.2756, -0.0435 -0.0631 0.2795, -0.0435 -0.0631 0.2756, -0.0423 -0.0527 0.2795, -0.0423 -0.0527 0.2756, -0.0392 -0.0443 0.2795, -0.0392 -0.0443 0.2756, -0.0384 -0.0429 0.2795, -0.0384 -0.0429 0.2756, -0.0471 -0.0429 0.2795, -0.0471 -0.0429 0.2756, -0.0505 -0.0513 0.2756, -0.0505 -0.0513 0.2795, -0.0516 -0.0593 0.2756, -0.0521 -0.0624 0.2795, -0.0521 -0.0624 0.2756, 0.0276 -0.1485 0.2795, 0.0276 -0.1485 0.2756, -0.0512 -0.1485 0.2795, -0.0512 -0.1485 0.2756, 0.0276 -0.138 0.2795, 0.0276 -0.138 0.2756, -0.0425 -0.138 0.2795, -0.0425 -0.138 0.2756, -0.0425 -0.1082 0.2795, -0.0425 -0.1082 0.2756, -0.0512 -0.1082 0.2795, -0.0512 -0.1082 0.2756
            ]
        }
        coordIndex [
            0,1,2,-1,2,1,3,-1,4,5,0,-1,0,5,6,-1,0,6,1,-1,1,6,7,-1,4,8,5,-1,5,8,9,-1,5,9,10,-1,10,9,11,-1,10,11,12,-1,12,13,10,-1,10,13,2,-1,10,2,14,-1,14,2,3,-1,14,3,15,-1,3,16,15,-1,15,16,17,-1,1,18,3,-1,3,18,16,-1,7,19,1,-1,1,19,18,-1,6,20,7,-1,7,20,19,-1,5,21,6,-1,6,21,20,-1,10,22,5,-1,5,22,21,-1,14,23,10,-1,10,23,22,-1,14,15,23,-1,23,15,17,-1,24,13,12,-1,24,12,25,-1,25,12,11,-1,25,11,26,-1,9,27,11,-1,11,27,26,-1,27,9,8,-1,27,8,28,-1,28,8,4,-1,28,4,29,-1,0,30,4,-1,4,30,29,-1,2,31,0,-1,0,31,30,-1,24,31,13,-1,13,31,2,-1,32,33,34,-1,34,33,35,-1,33,32,36,-1,33,36,37,-1,37,36,38,-1,37,38,39,-1,39,38,40,-1,39,40,41,-1,41,40,42,-1,41,42,43,-1,43,42,44,-1,43,44,45,-1,45,44,46,-1,45,46,47,-1,47,46,48,-1,47,48,49,-1,49,48,50,-1,49,50,51,-1,51,50,52,-1,51,52,53,-1,53,52,54,-1,53,54,55,-1,55,54,56,-1,55,56,57,-1,57,56,58,-1,57,58,59,-1,59,58,60,-1,59,60,61,-1,61,60,62,-1,61,62,63,-1,63,62,64,-1,63,64,65,-1,66,67,64,-1,64,67,65,-1,66,34,67,-1,67,34,35,-1,52,50,68,-1,68,50,48,-1,68,48,69,-1,69,48,46,-1,69,46,70,-1,70,46,44,-1,70,44,71,-1,71,44,42,-1,71,42,72,-1,72,42,40,-1,72,40,73,-1,73,40,38,-1,73,38,74,-1,74,38,36,-1,74,36,75,-1,75,36,32,-1,75,32,76,-1,76,32,34,-1,76,34,77,-1,77,34,66,-1,77,66,78,-1,78,66,64,-1,78,64,79,-1,79,64,62,-1,79,62,80,-1,80,62,60,-1,80,60,81,-1,81,60,58,-1,81,58,82,-1,82,58,56,-1,82,56,83,-1,83,56,54,-1,83,54,84,-1,84,54,52,-1,84,52,68,-1,78,85,77,-1,77,85,86,-1,85,78,79,-1,85,79,87,-1,87,79,80,-1,87,80,88,-1,88,80,81,-1,88,81,89,-1,89,81,82,-1,89,82,90,-1,90,82,83,-1,90,83,91,-1,91,83,84,-1,91,84,92,-1,92,84,68,-1,92,68,93,-1,93,68,69,-1,93,69,94,-1,94,69,70,-1,94,70,95,-1,95,70,71,-1,95,71,96,-1,96,71,72,-1,96,72,97,-1,97,72,73,-1,97,73,98,-1,98,73,74,-1,98,74,99,-1,99,74,75,-1,99,75,100,-1,76,101,75,-1,75,101,100,-1,86,101,77,-1,77,101,76,-1,102,103,104,-1,104,103,105,-1,106,107,102,-1,102,107,103,-1,108,109,106,-1,106,109,107,-1,110,111,108,-1,108,111,109,-1,112,113,110,-1,110,113,111,-1,114,115,112,-1,112,115,113,-1,116,117,114,-1,114,117,115,-1,118,119,116,-1,116,119,117,-1,120,121,118,-1,118,121,119,-1,122,123,120,-1,120,123,121,-1,124,125,122,-1,122,125,123,-1,124,104,125,-1,125,104,105,-1,104,124,122,-1,122,120,104,-1,104,120,118,-1,104,118,102,-1,108,106,110,-1,110,106,102,-1,110,102,112,-1,112,102,118,-1,112,118,114,-1,114,118,116,-1,126,127,128,-1,126,128,129,-1,128,130,129,-1,129,130,131,-1,129,131,132,-1,132,131,133,-1,132,133,134,-1,134,133,135,-1,134,135,136,-1,136,135,137,-1,136,137,138,-1,138,137,139,-1,138,139,140,-1,140,139,141,-1,140,141,142,-1,142,141,143,-1,142,143,144,-1,144,143,145,-1,144,145,146,-1,146,145,147,-1,146,147,148,-1,148,147,149,-1,148,149,150,-1,150,149,151,-1,150,151,152,-1,152,151,153,-1,152,153,154,-1,154,153,155,-1,154,155,156,-1,156,155,157,-1,156,157,158,-1,158,157,159,-1,158,159,160,-1,161,162,159,-1,159,162,160,-1,162,161,163,-1,162,163,164,-1,164,163,165,-1,164,165,166,-1,166,165,167,-1,166,167,168,-1,168,167,169,-1,168,169,170,-1,170,169,171,-1,170,171,172,-1,172,171,173,-1,172,173,174,-1,174,173,175,-1,174,175,176,-1,176,175,177,-1,176,177,178,-1,178,177,179,-1,178,179,180,-1,180,179,181,-1,180,181,182,-1,182,181,183,-1,182,183,184,-1,184,183,185,-1,184,185,186,-1,186,185,187,-1,186,187,188,-1,188,187,189,-1,188,189,190,-1,190,189,191,-1,190,191,192,-1,192,191,193,-1,192,193,194,-1,194,193,195,-1,194,195,196,-1,196,195,197,-1,196,197,198,-1,198,197,199,-1,198,199,200,-1,201,202,199,-1,199,202,200,-1,203,202,204,-1,204,202,201,-1,203,204,205,-1,205,204,206,-1,205,206,207,-1,207,206,128,-1,207,128,127,-1,191,128,193,-1,193,128,206,-1,193,206,195,-1,195,206,204,-1,195,204,197,-1,197,204,201,-1,197,201,199,-1,161,159,163,-1,163,159,157,-1,163,157,165,-1,165,157,155,-1,165,155,167,-1,167,155,153,-1,167,153,169,-1,169,153,151,-1,169,151,171,-1,171,151,149,-1,171,149,173,-1,173,149,147,-1,173,147,175,-1,175,147,145,-1,175,145,177,-1,177,145,143,-1,177,143,179,-1,179,143,141,-1,179,141,181,-1,181,141,139,-1,181,139,183,-1,183,139,137,-1,183,137,185,-1,185,137,135,-1,185,135,187,-1,187,135,133,-1,187,133,189,-1,189,133,131,-1,189,131,191,-1,191,131,130,-1,191,130,128,-1,208,209,210,-1,210,209,211,-1,212,213,208,-1,208,213,209,-1,214,215,212,-1,212,215,213,-1,216,217,214,-1,214,217,215,-1,218,219,216,-1,216,219,217,-1,218,210,219,-1,219,210,211,-1,212,208,214,-1,214,208,210,-1,214,210,216,-1,216,210,218,-1,
        ]
    }
}
Shape{
    appearance Appearance {
        material  Material 	{
            diffuseColor 0.10980392156862745 0.10980392156862745 0.10980392156862745
            specularColor 0.0784313725490196 0.0784313725490196 0.0784313725490196
            ambientIntensity 0.1098
            transparency 0.0
            shininess 0.5
        }
    }
    geometry IndexedFaceSet {
        ccw TRUE
        solid FALSE
        coord DEF co Coordinate {
            point [
                -0.0204 0.1209 0.2756, -0.0204 0.1472 0.2756, 0.0125 0.1326 0.2756, 0.0125 0.1354 0.2756, 0.0152 0.1334 0.2756, 0.0152 0.1347 0.2756, 0.018 0.1339 0.2756, 0.018 0.1342 0.2756, 0.0189 0.0522 0.2756, 0.0189 0.0406 0.2756, -0.0425 0.0406 0.2756, -0.0206 0.0819 0.2756, -0.011 0.0829 0.2756, -0.0268 0.0798 0.2756, -0.0032 0.0822 0.2756, 0.003 0.0804 0.2756, 0.0179 0.0616 0.2756, -0.0425 0.0518 0.2756, -0.0417 0.0601 0.2756, -0.0397 0.0667 0.2756, 0.0079 0.0777 0.2756, 0.0119 0.0738 0.2756, 0.0157 0.0681 0.2756, -0.0365 0.072 0.2756, -0.0322 0.0764 0.2756
            ]
        }
        coordIndex [
            0,1,2,-1,2,1,3,-1,2,3,4,-1,4,3,5,-1,4,5,6,-1,6,5,7,-1,8,9,10,-1,11,12,8,-1,11,8,13,-1,12,14,8,-1,8,14,15,-1,8,15,16,-1,10,17,8,-1,8,17,18,-1,8,18,19,-1,20,21,15,-1,15,21,22,-1,15,22,16,-1,19,23,8,-1,8,23,24,-1,8,24,13,-1,
        ]
    }
}
Shape{
    appearance Appearance {
        material  Material 	{
            diffuseColor 0.25098039215686274 0.25098039215686274 0.25098039215686274
            specularColor 0.17647058823529413 0.17647058823529413 0.17647058823529413
            ambientIntensity 0.251
            transparency 0.0
            shininess 0.5
        }
    }
    geometry IndexedFaceSet {
        ccw TRUE
        solid FALSE
        coord DEF co Coordinate {
            point [
                -0.7638 0.4921 1.2402, -0.7638 -0.4921 1.2402, -0.7638 0.7283 1.3976, -0.7638 -0.7283 1.3976, -1.2362 -0.4921 1.2402, -1.2362 0.4921 1.2402, -1.2362 -0.7283 1.3976, -1.2362 0.7283 1.3976, -0.8031 0.3937 1.2402, -1.1969 0.3937 1.2402, -1.1969 -0.3937 1.2402, -0.8031 -0.3937 1.2402, -0.766 -0.7283 1.3976, -1.1554 -0.7283 1.3976, -0.9795 -0.7283 1.3976, -0.766 0.7283 1.3976, -0.9795 0.7283 1.3976, -1.1554 0.7283 1.3976
            ]
        }
        coordIndex [
            0,1,2,-1,2,1,3,-1,4,5,6,-1,6,5,7,-1,8,0,9,-1,9,0,5,-1,9,5,10,-1,10,5,4,-1,10,4,11,-1,11,4,1,-1,11,1,8,-1,8,1,0,-1,12,3,1,-1,4,6,13,-1,4,13,1,-1,1,13,14,-1,1,14,12,-1,2,15,0,-1,0,15,16,-1,0,16,5,-1,5,16,17,-1,5,17,7,-1,
        ]
    }
}
Shape{
    appearance Appearance {
        material  Material 	{
            diffuseColor 1.0 1.0 1.0
            specularColor 0.8784313725490196 0.8784313725490196 0.8784313725490196
            ambientIntensity 1.0
            transparency 0.0
            shininess 0.5
        }
    }
    geometry IndexedFaceSet {
        ccw TRUE
        solid FALSE
        coord DEF co Coordinate {
            point [
                -0.8031 0.3937 1.2008, -0.8031 -0.3937 1.2008, -0.8031 0.3937 1.2402, -0.8031 -0.3937 1.2402, -1.1969 -0.3937 1.2008, -1.1969 -0.3937 1.2402, -1.1969 0.3937 1.2008, -1.1969 0.3937 1.2402
            ]
        }
        coordIndex [
            0,1,2,-1,2,1,3,-1,1,4,3,-1,3,4,5,-1,4,6,5,-1,5,6,7,-1,6,0,7,-1,7,0,2,-1,
        ]
    }
}
Shape{
    appearance Appearance {
        material  Material 	{
            diffuseColor 1.0 1.0 1.0
            specularColor 0.30196078431372547 0.30196078431372547 0.30196078431372547
            ambientIntensity 1.0
            transparency 0.0
            shininess 0.5
        }
    }
    geometry IndexedFaceSet {
        ccw TRUE
        solid FALSE
        coord DEF co Coordinate {
            point [
                -1.1969 0.3937 1.2008, -1.1969 -0.3937 1.2008, -0.8031 0.3937 1.2008, -0.8031 -0.3937 1.2008
            ]
        }
        coordIndex [
            0,1,2,-1,2,1,3,-1,
        ]
    }
}
Shape{
    appearance Appearance {
        material  Material 	{
            diffuseColor 0.9686274509803922 0.8784313725490196 0.6
            specularColor 0.6784313725490196 0.615686274509804 0.4196078431372549
            ambientIntensity 0.8737
            transparency 0.0
            shininess 0.5
        }
    }
    geometry IndexedFaceSet {
        ccw TRUE
        solid FALSE
        coord DEF co Coordinate {
            point [
                -0.9016 -1.9213 0.0, -0.9016 -1.9213 0.1024, -1.0984 -1.9213 0.0, -1.0984 -1.9213 0.1024, -1.0984 -1.7068 0.0, -0.9016 -1.7068 0.0, -1.0984 -1.7068 0.1024, -0.9016 -1.7068 0.1024, -1.0984 -1.581 0.0978, -0.9016 -1.581 0.0978, -0.9016 -1.591 0.0711, -1.0984 -1.591 0.0711, -0.9016 -1.6067 0.0472, -1.0984 -1.6067 0.0472, -0.9016 -1.6271 0.0273, -1.0984 -1.6271 0.0273, -0.9016 -1.6515 0.0124, -1.0984 -1.6515 0.0124, -0.9016 -1.6785 0.0031, -1.0984 -1.6785 0.0031, -1.0984 -1.7008 0.103, -0.9016 -1.7008 0.103, -1.0984 -1.6951 0.105, -0.9016 -1.6951 0.105, -1.0984 -1.6899 0.1082, -0.9016 -1.6899 0.1082, -1.0984 -1.6856 0.1124, -0.9016 -1.6856 0.1124, -1.0984 -1.6823 0.1174, -0.9016 -1.6823 0.1174, -1.0984 -1.6801 0.1231, -0.9016 -1.6801 0.1231, -1.3031 -1.6279 0.3278, -1.3031 -1.5647 0.5754, -1.3031 -1.5223 0.3278, -1.3031 -1.4655 0.5501, -0.9016 -1.5745 0.1231, -1.0984 -1.5745 0.1231, -0.6969 -1.5223 0.3278, -0.6969 -1.4655 0.5501, -0.6969 -1.6279 0.3278, -0.6969 -1.5647 0.5754, -1.3031 -1.4634 0.5558, -1.3031 -1.5547 0.6021, -1.3031 -1.4601 0.5609, -1.3031 -1.539 0.626, -1.3031 -1.4557 0.5651, -1.3031 -1.5185 0.6459, -1.3031 -1.4506 0.5682, -1.3031 -1.4942 0.6608, -1.3031 -1.4448 0.5702, -1.3031 -1.4672 0.6701, -1.3031 -1.4388 0.5709, -1.3031 -1.4388 0.6732, -0.6969 -1.4634 0.5558, -0.6969 -1.4601 0.5609, -0.6969 -1.4557 0.5651, -0.6969 -1.4506 0.5682, -0.6969 -1.4448 0.5702, -0.6969 -1.4388 0.5709, -0.6969 -1.4388 0.6732, -0.6969 -1.4672 0.6701, -0.6969 -1.4942 0.6608, -0.6969 -1.5185 0.6459, -0.6969 -1.539 0.626, -0.6969 -1.5547 0.6021, -1.3031 -1.2008 0.5906, -1.3031 -1.1983 0.5709, -1.3031 -1.2008 0.6496, -1.3031 -1.1992 0.6732, -0.6969 -1.1983 0.5709, -0.6969 -1.2008 0.5906, -0.6969 -1.2008 0.6496, -0.6969 -1.1992 0.6732, -0.6969 1.4655 0.5501, -0.6969 1.5647 0.5754, -0.6969 1.4634 0.5558, -0.6969 1.5547 0.6021, -0.6969 1.4601 0.5609, -0.6969 1.539 0.626, -0.6969 1.4557 0.5651, -0.6969 1.5185 0.6459, -0.6969 1.4506 0.5682, -0.6969 1.4942 0.6608, -0.6969 1.4448 0.5702, -0.6969 1.4672 0.6701, -0.6969 1.4388 0.5709, -0.6969 1.4388 0.6732, -1.3031 1.4655 0.5501, -1.3031 1.4634 0.5558, -1.3031 1.4601 0.5609, -1.3031 1.4557 0.5651, -1.3031 1.4506 0.5682, -1.3031 1.4448 0.5702, -1.3031 1.4388 0.5709, -1.3031 1.4388 0.6732, -1.3031 1.4672 0.6701, -1.3031 1.4942 0.6608, -1.3031 1.5185 0.6459, -1.3031 1.539 0.626, -1.3031 1.5547 0.6021, -1.3031 1.5647 0.5754, -0.6969 1.2008 0.5906, -0.6969 1.1983 0.5709, -0.6969 1.2008 0.6496, -0.6969 1.1992 0.6732, -1.3031 1.1983 0.5709, -1.3031 1.2008 0.5906, -1.3031 1.2008 0.6496, -1.3031 1.1992 0.6732, -0.9016 1.5745 0.1231, -0.9016 1.6801 0.1231, -0.6969 1.5223 0.3278, -0.6969 1.6279 0.3278, -0.9016 1.9213 0.0, -0.9016 1.9213 0.1024, -0.9016 1.7068 0.0, -0.9016 1.7068 0.1024, -0.9016 1.6785 0.0031, -0.9016 1.7008 0.103, -0.9016 1.6515 0.0124, -0.9016 1.6951 0.105, -0.9016 1.6271 0.0273, -0.9016 1.6899 0.1082, -0.9016 1.6067 0.0472, -0.9016 1.6856 0.1124, -0.9016 1.591 0.0711, -0.9016 1.6823 0.1174, -0.9016 1.581 0.0978, -1.0984 1.5745 0.1231, -1.0984 1.6801 0.1231, -1.0984 1.581 0.0978, -1.0984 1.6823 0.1174, -1.0984 1.9213 0.1024, -1.0984 1.9213 0.0, -1.0984 1.7068 0.1024, -1.0984 1.7068 0.0, -1.0984 1.7008 0.103, -1.0984 1.6785 0.0031, -1.0984 1.6951 0.105, -1.0984 1.6515 0.0124, -1.0984 1.6899 0.1082, -1.0984 1.6271 0.0273, -1.0984 1.6856 0.1124, -1.0984 1.6067 0.0472, -1.0984 1.591 0.0711, -1.3031 1.6279 0.3278, -1.3031 1.5223 0.3278
            ]
        }
        coordIndex [
            0,1,2,-1,2,1,3,-1,4,5,2,-1,2,5,0,-1,3,1,6,-1,6,1,7,-1,8,9,10,-1,8,10,11,-1,11,10,12,-1,11,12,13,-1,13,12,14,-1,13,14,15,-1,15,14,16,-1,15,16,17,-1,17,16,18,-1,17,18,19,-1,19,18,5,-1,19,5,4,-1,6,7,20,-1,20,7,21,-1,20,21,22,-1,22,21,23,-1,22,23,24,-1,24,23,25,-1,24,25,26,-1,26,25,27,-1,26,27,28,-1,28,27,29,-1,28,29,30,-1,30,29,31,-1,32,33,34,-1,34,33,35,-1,9,8,36,-1,36,8,37,-1,36,37,38,-1,38,37,34,-1,38,34,39,-1,39,34,35,-1,38,39,40,-1,40,39,41,-1,41,33,32,-1,30,31,32,-1,32,31,40,-1,32,40,41,-1,35,33,42,-1,42,33,43,-1,42,43,44,-1,44,43,45,-1,44,45,46,-1,46,45,47,-1,46,47,48,-1,48,47,49,-1,48,49,50,-1,50,49,51,-1,50,51,52,-1,52,51,53,-1,39,35,54,-1,54,35,42,-1,54,42,55,-1,55,42,44,-1,55,44,56,-1,56,44,46,-1,56,46,57,-1,57,46,48,-1,57,48,58,-1,58,48,50,-1,58,50,59,-1,59,50,52,-1,59,60,58,-1,58,60,61,-1,58,61,57,-1,57,61,62,-1,57,62,56,-1,56,62,63,-1,56,63,55,-1,55,63,64,-1,55,64,54,-1,54,64,65,-1,54,65,39,-1,39,65,41,-1,60,53,51,-1,60,51,61,-1,61,51,49,-1,61,49,62,-1,62,49,47,-1,62,47,63,-1,63,47,45,-1,63,45,64,-1,64,45,43,-1,64,43,65,-1,65,43,33,-1,65,33,41,-1,66,67,52,-1,66,52,68,-1,68,52,53,-1,68,53,69,-1,59,52,70,-1,70,52,67,-1,59,70,71,-1,59,71,60,-1,60,71,72,-1,60,72,73,-1,53,60,69,-1,69,60,73,-1,30,32,37,-1,37,32,34,-1,2,3,4,-1,4,3,6,-1,4,6,19,-1,19,6,20,-1,19,20,17,-1,17,20,22,-1,17,22,15,-1,15,22,24,-1,15,24,13,-1,13,24,26,-1,13,26,11,-1,11,26,28,-1,11,28,8,-1,8,28,30,-1,8,30,37,-1,36,31,9,-1,9,31,29,-1,1,0,7,-1,7,0,5,-1,7,5,21,-1,21,5,18,-1,21,18,23,-1,23,18,16,-1,23,16,25,-1,25,16,14,-1,25,14,27,-1,27,14,12,-1,27,12,29,-1,29,12,10,-1,29,10,9,-1,36,38,31,-1,31,38,40,-1,74,75,76,-1,76,75,77,-1,76,77,78,-1,78,77,79,-1,78,79,80,-1,80,79,81,-1,80,81,82,-1,82,81,83,-1,82,83,84,-1,84,83,85,-1,84,85,86,-1,86,85,87,-1,88,74,89,-1,89,74,76,-1,89,76,90,-1,90,76,78,-1,90,78,91,-1,91,78,80,-1,91,80,92,-1,92,80,82,-1,92,82,93,-1,93,82,84,-1,93,84,94,-1,94,84,86,-1,94,95,93,-1,93,95,96,-1,93,96,92,-1,92,96,97,-1,92,97,91,-1,91,97,98,-1,91,98,90,-1,90,98,99,-1,90,99,89,-1,89,99,100,-1,89,100,88,-1,88,100,101,-1,95,87,85,-1,95,85,96,-1,96,85,83,-1,96,83,97,-1,97,83,81,-1,97,81,98,-1,98,81,79,-1,98,79,99,-1,99,79,77,-1,99,77,100,-1,100,77,75,-1,100,75,101,-1,102,103,86,-1,102,86,104,-1,104,86,87,-1,104,87,105,-1,94,86,106,-1,106,86,103,-1,94,106,107,-1,94,107,95,-1,95,107,108,-1,95,108,109,-1,87,95,105,-1,105,95,109,-1,110,111,112,-1,112,111,113,-1,114,115,116,-1,116,115,117,-1,116,117,118,-1,118,117,119,-1,118,119,120,-1,120,119,121,-1,120,121,122,-1,122,121,123,-1,122,123,124,-1,124,123,125,-1,124,125,126,-1,126,125,127,-1,126,127,128,-1,128,127,111,-1,128,111,110,-1,129,130,131,-1,131,130,132,-1,133,134,135,-1,135,134,136,-1,135,136,137,-1,137,136,138,-1,137,138,139,-1,139,138,140,-1,139,140,141,-1,141,140,142,-1,141,142,143,-1,143,142,144,-1,143,144,132,-1,132,144,145,-1,132,145,131,-1,130,129,146,-1,146,129,147,-1,
        ]
    }
}
Shape{
    appearance Appearance {
        material  Material 	{
            diffuseColor 1.0 1.0 1.0
            specularColor 0.8784313725490196 0.8784313725490196 0.8784313725490196
            ambientIntensity 1.0
            transparency 0.0
            shininess 0.5
        }
    }
    geometry IndexedFaceSet {
        ccw TRUE
        solid FALSE
        coord DEF co Coordinate {
            point [
                1.1969 0.3937 1.2008, 1.1969 -0.3937 1.2008, 1.1969 0.3937 1.2402, 1.1969 -0.3937 1.2402, 0.8031 -0.3937 1.2008, 0.8031 0.3937 1.2008, 0.8031 -0.3937 1.2402, 0.8031 0.3937 1.2402
            ]
        }
        coordIndex [
            0,1,2,-1,2,1,3,-1,4,5,6,-1,6,5,7,-1,5,0,7,-1,7,0,2,-1,
        ]
    }
}
Shape{
    appearance Appearance {
        material  Material 	{
            diffuseColor 0.25098039215686274 0.25098039215686274 0.25098039215686274
            specularColor 0.17647058823529413 0.17647058823529413 0.17647058823529413
            ambientIntensity 0.251
            transparency 0.0
            shininess 0.5
        }
    }
    geometry IndexedFaceSet {
        ccw TRUE
        solid FALSE
        coord DEF co Coordinate {
            point [
                1.2362 0.4921 1.2402, 1.2362 -0.4921 1.2402, 1.2362 0.7283 1.3976, 1.2362 -0.7283 1.3976, 0.7638 -0.4921 1.2402, 0.7638 0.4921 1.2402, 0.7638 -0.7283 1.3976, 0.7638 0.7283 1.3976, 1.1772 -0.3937 1.2402, 0.8228 -0.3937 1.2402, 0.8031 -0.3937 1.2402, 0.8031 0.3937 1.2402, 1.1969 0.3937 1.2402, 1.1969 -0.3937 1.2402
            ]
        }
        coordIndex [
            0,1,2,-1,2,1,3,-1,4,5,6,-1,6,5,7,-1,3,1,6,-1,6,1,4,-1,4,1,8,-1,8,9,4,-1,4,9,10,-1,4,10,5,-1,5,10,11,-1,5,11,0,-1,0,11,12,-1,0,12,1,-1,1,12,13,-1,1,13,8,-1,7,5,2,-1,2,5,0,-1,
        ]
    }
}
Shape{
    appearance Appearance {
        material  Material 	{
            diffuseColor 1.0 1.0 1.0
            specularColor 0.30196078431372547 0.30196078431372547 0.30196078431372547
            ambientIntensity 1.0
            transparency 0.0
            shininess 0.5
        }
    }
    geometry IndexedFaceSet {
        ccw TRUE
        solid FALSE
        coord DEF co Coordinate {
            point [
                1.1772 -0.3937 1.2008, 1.1772 -0.0787 1.2008, 1.1772 -0.3937 1.2402, 1.1772 -0.0787 1.6339, 1.1772 -0.3937 1.6339, 0.8228 -0.0787 1.6339, 0.8228 -0.0787 1.2008, 0.8228 -0.3937 1.6339, 0.8228 -0.3937 1.2402, 0.8228 -0.3937 1.2008
            ]
        }
        coordIndex [
            0,1,2,-1,2,1,3,-1,2,3,4,-1,5,3,6,-1,6,3,1,-1,7,5,8,-1,8,5,6,-1,8,6,9,-1,4,7,2,-1,2,7,8,-1,5,7,3,-1,3,7,4,-1,
        ]
    }
}
Shape{
    appearance Appearance {
        material  Material 	{
            diffuseColor 0.9686274509803922 0.8784313725490196 0.6
            specularColor 0.6784313725490196 0.615686274509804 0.4196078431372549
            ambientIntensity 0.8737
            transparency 0.0
            shininess 0.5
        }
    }
    geometry IndexedFaceSet {
        ccw TRUE
        solid FALSE
        coord DEF co Coordinate {
            point [
                0.9016 -1.7068 0.1024, 1.0984 -1.7068 0.1024, 0.9016 -1.7008 0.103, 1.0984 -1.7008 0.103, 0.9016 -1.6951 0.105, 1.0984 -1.6951 0.105, 0.9016 -1.6899 0.1082, 1.0984 -1.6899 0.1082, 0.9016 -1.6856 0.1124, 1.0984 -1.6856 0.1124, 0.9016 -1.6823 0.1174, 1.0984 -1.6823 0.1174, 0.9016 -1.6801 0.1231, 1.0984 -1.6801 0.1231, 0.9016 -1.9213 0.1024, 1.0984 -1.9213 0.1024, 1.0984 -1.9213 0.0, 0.9016 -1.9213 0.0, 0.9016 -1.7068 0.0, 1.0984 -1.7068 0.0, 0.9016 -1.581 0.0978, 1.0984 -1.581 0.0978, 1.0984 -1.591 0.0711, 0.9016 -1.591 0.0711, 1.0984 -1.6067 0.0472, 0.9016 -1.6067 0.0472, 1.0984 -1.6271 0.0273, 0.9016 -1.6271 0.0273, 1.0984 -1.6515 0.0124, 0.9016 -1.6515 0.0124, 1.0984 -1.6785 0.0031, 0.9016 -1.6785 0.0031, 0.6969 -1.6279 0.3278, 0.6969 -1.5647 0.5754, 0.6969 -1.5223 0.3278, 0.6969 -1.4655 0.5501, 1.3031 -1.5223 0.3278, 1.3031 -1.4655 0.5501, 1.3031 -1.6279 0.3278, 1.3031 -1.5647 0.5754, 1.3031 -1.4634 0.5558, 0.6969 -1.4634 0.5558, 1.3031 -1.4601 0.5609, 0.6969 -1.4601 0.5609, 1.3031 -1.4557 0.5651, 0.6969 -1.4557 0.5651, 1.3031 -1.4506 0.5682, 0.6969 -1.4506 0.5682, 1.3031 -1.4448 0.5702, 0.6969 -1.4448 0.5702, 1.3031 -1.4388 0.5709, 0.6969 -1.4388 0.5709, 0.6969 -1.5547 0.6021, 0.6969 -1.539 0.626, 0.6969 -1.5185 0.6459, 0.6969 -1.4942 0.6608, 0.6969 -1.4672 0.6701, 0.6969 -1.4388 0.6732, 1.3031 -1.4388 0.6732, 1.3031 -1.4672 0.6701, 1.3031 -1.4942 0.6608, 1.3031 -1.5185 0.6459, 1.3031 -1.539 0.626, 1.3031 -1.5547 0.6021, 0.6969 -1.2008 0.5906, 0.6969 -1.1983 0.5709, 0.6969 -1.2008 0.6496, 0.6969 -1.1992 0.6732, 1.3031 -1.1983 0.5709, 1.3031 -1.2008 0.5906, 1.3031 -1.2008 0.6496, 1.3031 -1.1992 0.6732, 1.0984 -1.5745 0.1231, 0.9016 -1.5745 0.1231, 1.3031 1.4655 0.5501, 1.3031 1.5647 0.5754, 1.3031 1.4634 0.5558, 1.3031 1.5547 0.6021, 1.3031 1.4601 0.5609, 1.3031 1.539 0.626, 1.3031 1.4557 0.5651, 1.3031 1.5185 0.6459, 1.3031 1.4506 0.5682, 1.3031 1.4942 0.6608, 1.3031 1.4448 0.5702, 1.3031 1.4672 0.6701, 1.3031 1.4388 0.5709, 1.3031 1.4388 0.6732, 0.6969 1.4388 0.5709, 0.6969 1.4388 0.6732, 0.6969 1.4448 0.5702, 0.6969 1.4672 0.6701, 0.6969 1.4506 0.5682, 0.6969 1.4942 0.6608, 0.6969 1.4557 0.5651, 0.6969 1.5185 0.6459, 0.6969 1.4601 0.5609, 0.6969 1.539 0.626, 0.6969 1.4634 0.5558, 0.6969 1.5547 0.6021, 0.6969 1.4655 0.5501, 0.6969 1.5647 0.5754, 1.3031 1.2008 0.5906, 1.3031 1.1983 0.5709, 1.3031 1.2008 0.6496, 1.3031 1.1992 0.6732, 0.6969 1.1983 0.5709, 0.6969 1.2008 0.5906, 0.6969 1.2008 0.6496, 0.6969 1.1992 0.6732, 0.6969 1.5223 0.3278, 0.6969 1.6279 0.3278, 1.0984 1.9213 0.0, 1.0984 1.7068 0.0, 0.9016 1.9213 0.0, 0.9016 1.7068 0.0, 1.0984 1.581 0.0978, 0.9016 1.581 0.0978, 0.9016 1.591 0.0711, 1.0984 1.591 0.0711, 0.9016 1.6067 0.0472, 1.0984 1.6067 0.0472, 0.9016 1.6271 0.0273, 1.0984 1.6271 0.0273, 0.9016 1.6515 0.0124, 1.0984 1.6515 0.0124, 0.9016 1.6785 0.0031, 1.0984 1.6785 0.0031, 0.9016 1.5745 0.1231, 1.0984 1.5745 0.1231, 1.3031 1.5223 0.3278, 1.3031 1.6279 0.3278, 1.0984 1.6801 0.1231, 0.9016 1.6801 0.1231, 1.0984 1.7068 0.1024, 1.0984 1.9213 0.1024, 0.9016 1.7068 0.1024, 0.9016 1.9213 0.1024, 1.0984 1.7008 0.103, 0.9016 1.7008 0.103, 1.0984 1.6951 0.105, 0.9016 1.6951 0.105, 1.0984 1.6899 0.1082, 0.9016 1.6899 0.1082, 1.0984 1.6856 0.1124, 0.9016 1.6856 0.1124, 1.0984 1.6823 0.1174, 0.9016 1.6823 0.1174
            ]
        }
        coordIndex [
            0,1,2,-1,2,1,3,-1,2,3,4,-1,4,3,5,-1,4,5,6,-1,6,5,7,-1,6,7,8,-1,8,7,9,-1,8,9,10,-1,10,9,11,-1,10,11,12,-1,12,11,13,-1,14,15,0,-1,0,15,1,-1,16,15,17,-1,17,15,14,-1,18,19,17,-1,17,19,16,-1,20,21,22,-1,20,22,23,-1,23,22,24,-1,23,24,25,-1,25,24,26,-1,25,26,27,-1,27,26,28,-1,27,28,29,-1,29,28,30,-1,29,30,31,-1,31,30,19,-1,31,19,18,-1,32,33,34,-1,34,33,35,-1,36,37,38,-1,38,37,39,-1,37,35,40,-1,40,35,41,-1,40,41,42,-1,42,41,43,-1,42,43,44,-1,44,43,45,-1,44,45,46,-1,46,45,47,-1,46,47,48,-1,48,47,49,-1,48,49,50,-1,50,49,51,-1,35,33,41,-1,41,33,52,-1,41,52,43,-1,43,52,53,-1,43,53,45,-1,45,53,54,-1,45,54,47,-1,47,54,55,-1,47,55,49,-1,49,55,56,-1,49,56,51,-1,51,56,57,-1,58,57,56,-1,58,56,59,-1,59,56,55,-1,59,55,60,-1,60,55,54,-1,60,54,61,-1,61,54,53,-1,61,53,62,-1,62,53,52,-1,62,52,63,-1,63,52,33,-1,63,33,39,-1,64,65,51,-1,64,51,66,-1,66,51,57,-1,66,57,67,-1,50,51,68,-1,68,51,65,-1,50,68,69,-1,50,69,58,-1,58,69,70,-1,58,70,71,-1,57,58,67,-1,67,58,71,-1,50,58,48,-1,48,58,59,-1,48,59,46,-1,46,59,60,-1,46,60,44,-1,44,60,61,-1,44,61,42,-1,42,61,62,-1,42,62,40,-1,40,62,63,-1,40,63,37,-1,37,63,39,-1,21,20,72,-1,72,20,73,-1,72,73,36,-1,36,73,34,-1,36,34,37,-1,37,34,35,-1,12,32,73,-1,73,32,34,-1,17,14,18,-1,18,14,0,-1,18,0,31,-1,31,0,2,-1,31,2,29,-1,29,2,4,-1,29,4,27,-1,27,4,6,-1,27,6,25,-1,25,6,8,-1,25,8,23,-1,23,8,10,-1,23,10,20,-1,20,10,12,-1,20,12,73,-1,12,13,32,-1,32,13,38,-1,32,38,33,-1,33,38,39,-1,72,13,21,-1,21,13,11,-1,15,16,1,-1,1,16,19,-1,1,19,3,-1,3,19,30,-1,3,30,5,-1,5,30,28,-1,5,28,7,-1,7,28,26,-1,7,26,9,-1,9,26,24,-1,9,24,11,-1,11,24,22,-1,11,22,21,-1,72,36,13,-1,13,36,38,-1,74,75,76,-1,76,75,77,-1,76,77,78,-1,78,77,79,-1,78,79,80,-1,80,79,81,-1,80,81,82,-1,82,81,83,-1,82,83,84,-1,84,83,85,-1,84,85,86,-1,86,85,87,-1,88,89,90,-1,90,89,91,-1,90,91,92,-1,92,91,93,-1,92,93,94,-1,94,93,95,-1,94,95,96,-1,96,95,97,-1,96,97,98,-1,98,97,99,-1,98,99,100,-1,100,99,101,-1,100,74,98,-1,98,74,76,-1,98,76,96,-1,96,76,78,-1,96,78,94,-1,94,78,80,-1,94,80,92,-1,92,80,82,-1,92,82,90,-1,90,82,84,-1,90,84,88,-1,88,84,86,-1,102,103,86,-1,102,86,104,-1,104,86,87,-1,104,87,105,-1,88,86,106,-1,106,86,103,-1,88,106,107,-1,88,107,89,-1,89,107,108,-1,89,108,109,-1,87,89,105,-1,105,89,109,-1,89,87,85,-1,89,85,91,-1,91,85,83,-1,91,83,93,-1,93,83,81,-1,93,81,95,-1,95,81,79,-1,95,79,97,-1,97,79,77,-1,97,77,99,-1,99,77,75,-1,99,75,101,-1,100,101,110,-1,110,101,111,-1,112,113,114,-1,114,113,115,-1,116,117,118,-1,116,118,119,-1,119,118,120,-1,119,120,121,-1,121,120,122,-1,121,122,123,-1,123,122,124,-1,123,124,125,-1,125,124,126,-1,125,126,127,-1,127,126,115,-1,127,115,113,-1,117,116,128,-1,128,116,129,-1,128,129,110,-1,110,129,130,-1,110,130,100,-1,100,130,74,-1,75,74,131,-1,131,74,130,-1,101,75,131,-1,132,133,131,-1,131,133,111,-1,131,111,101,-1,134,135,136,-1,136,135,137,-1,134,136,138,-1,138,136,139,-1,138,139,140,-1,140,139,141,-1,140,141,142,-1,142,141,143,-1,142,143,144,-1,144,143,145,-1,144,145,146,-1,146,145,147,-1,146,147,132,-1,132,147,133,-1,129,132,130,-1,130,132,131,-1,112,135,113,-1,113,135,134,-1,113,134,127,-1,127,134,138,-1,127,138,125,-1,125,138,140,-1,125,140,123,-1,123,140,142,-1,123,142,121,-1,121,142,144,-1,121,144,119,-1,119,144,146,-1,119,146,116,-1,116,146,132,-1,116,132,129,-1,137,135,114,-1,114,135,112,-1,128,133,117,-1,117,133,147,-1,137,114,136,-1,136,114,115,-1,136,115,139,-1,139,115,126,-1,139,126,141,-1,141,126,124,-1,141,124,143,-1,143,124,122,-1,143,122,145,-1,145,122,120,-1,145,120,147,-1,147,120,118,-1,147,118,117,-1,133,128,111,-1,111,128,110,-1,
        ]
    }
}
Shape{
    appearance Appearance {
        material  Material 	{
            diffuseColor 1.0 1.0 1.0
            specularColor 0.8784313725490196 0.8784313725490196 0.8784313725490196
            ambientIntensity 1.0
            transparency 0.0
            shininess 0.5
        }
    }
    geometry IndexedFaceSet {
        ccw TRUE
        solid FALSE
        coord DEF co Coordinate {
            point [
                -1.0141 0.9491 1.3937, -1.0141 0.9491 1.3976, -1.0174 0.9916 1.3976, -1.0174 0.9916 1.3937, -1.0294 1.0342 1.3976, -1.0294 1.0342 1.3937, -1.0432 1.0598 1.3976, -1.0432 1.0598 1.3937, -1.0623 1.082 1.3976, -1.0623 1.082 1.3937, -1.0812 1.0954 1.3976, -1.0812 1.0954 1.3937, -1.1016 1.1034 1.3976, -1.1016 1.1034 1.3937, -1.1284 1.1067 1.3976, -1.1284 1.1067 1.3937, -1.1324 0.7841 1.3976, -1.1116 0.786 1.3976, -1.1324 0.7841 1.3937, -1.1103 0.7861 1.3937, -1.1103 0.7861 1.3976, -1.087 0.7937 1.3976, -1.087 0.7937 1.3937, -1.0674 0.8061 1.3976, -1.0674 0.8061 1.3937, -1.0493 0.8247 1.3976, -1.0493 0.8247 1.3937, -1.0306 0.8566 1.3976, -1.0306 0.8566 1.3937, -1.0188 0.8961 1.3976, -1.0188 0.8961 1.3937, -1.2484 0.9417 1.3937, -1.2484 0.9417 1.3976, -1.243 0.8883 1.3976, -1.243 0.8883 1.3937, -1.2423 0.8862 1.3976, -1.2292 0.8483 1.3937, -1.1466 0.786 1.3976, -1.1625 0.7882 1.3937, -1.2292 0.8483 1.3976, -1.2203 0.8329 1.3976, -1.2203 0.8329 1.3937, -1.2011 0.8101 1.3976, -1.2011 0.8101 1.3937, -1.1827 0.7966 1.3976, -1.1827 0.7966 1.3937, -1.1625 0.7882 1.3976, -1.1554 0.7872 1.3976, -1.1531 1.1042 1.3976, -1.1531 1.1042 1.3937, -1.1554 1.1035 1.3976, -1.1758 1.0966 1.3937, -1.1758 1.0966 1.3976, -1.195 1.0844 1.3976, -1.195 1.0844 1.3937, -1.2132 1.0658 1.3976, -1.2132 1.0658 1.3937, -1.2319 1.034 1.3976, -1.2423 0.9992 1.3976, -1.2438 0.9943 1.3937, -1.2319 1.034 1.3937, -1.2438 0.9943 1.3976, -1.2138 0.9451 1.3937, -1.2098 0.9009 1.3937, -1.1996 0.8684 1.3937, -1.1896 0.8507 1.3937, -1.1766 0.8357 1.3937, -1.1629 0.826 1.3937, -1.149 0.8207 1.3937, -1.1323 0.8187 1.3937, -1.1139 0.8207 1.3937, -1.0991 0.8261 1.3937, -1.0861 0.8347 1.3937, -1.0746 0.8467 1.3937, -1.0624 0.8672 1.3937, -1.0525 0.8997 1.3937, -1.0487 0.9445 1.3937, -1.0525 0.991 1.3937, -1.0622 1.0234 1.3937, -1.0703 1.0385 1.3937, -1.0823 1.0533 1.3937, -1.0961 1.0637 1.3937, -1.1114 1.0698 1.3937, -1.1302 1.0722 1.3937, -1.1474 1.0701 1.3937, -1.1615 1.0648 1.3937, -1.1747 1.0557 1.3937, -1.1885 1.0403 1.3937, -1.2017 1.016 1.3937, -1.2113 0.9804 1.3937, -1.0487 0.9445 1.3976, -1.0525 0.8997 1.3976, -1.0624 0.8672 1.3976, -1.0746 0.8467 1.3976, -1.0861 0.8347 1.3976, -1.0991 0.8261 1.3976, -1.1139 0.8207 1.3976, -1.1323 0.8187 1.3976, -1.1302 1.0722 1.3976, -1.1114 1.0698 1.3976, -1.0961 1.0637 1.3976, -1.0823 1.0533 1.3976, -1.0703 1.0385 1.3976, -1.0622 1.0234 1.3976, -1.0525 0.991 1.3976, -1.2138 0.9451 1.3976, -1.2113 0.9804 1.3976, -1.2017 1.016 1.3976, -1.1885 1.0403 1.3976, -1.1747 1.0557 1.3976, -1.1615 1.0648 1.3976, -1.1474 1.0701 1.3976, -1.149 0.8207 1.3976, -1.1629 0.826 1.3976, -1.1766 0.8357 1.3976, -1.1896 0.8507 1.3976, -1.1996 0.8684 1.3976, -1.2098 0.9009 1.3976, -0.9289 1.0324 1.3937, -0.9289 1.0324 1.3976, -0.8052 0.7879 1.3937, -0.8052 0.7879 1.3976, -0.9373 1.053 1.3937, -0.9373 1.053 1.3976, -0.9335 1.0425 1.3976, -0.9335 1.0425 1.3937, -0.9383 1.053 1.3937, -0.9383 1.053 1.3976, -0.9373 1.0089 1.3937, -0.9373 1.0089 1.3976, -0.9374 1.0309 1.3976, -0.9374 1.0309 1.3937, -0.9373 0.7879 1.3937, -0.9373 0.7879 1.3976, -0.968 0.7879 1.3937, -0.968 0.7879 1.3976, -0.968 1.1029 1.3937, -0.968 1.1029 1.3976, -0.9296 1.1029 1.3937, -0.9296 1.1029 1.3976, -0.8083 0.8634 1.3937, -0.8083 0.8634 1.3976, -0.7981 0.8417 1.3937, -0.7981 0.8417 1.3976, -0.8029 0.8527 1.3976, -0.8029 0.8527 1.3937, -0.7974 0.8417 1.3937, -0.7974 0.8417 1.3976, -0.799 0.8874 1.3937, -0.799 0.8874 1.3976, -0.7988 0.8645 1.3976, -0.7988 0.8645 1.3937, -0.799 1.1029 1.3937, -0.799 1.1029 1.3976, -0.7683 1.1029 1.3937, -0.7683 1.1029 1.3976, -0.7683 0.7879 1.3937, -0.7683 0.7879 1.3976, -1.0746 -0.9088 1.3937, -1.0746 -0.9088 1.3976, -1.0702 -0.9076 1.3976, -1.0702 -0.9076 1.3937, -1.0417 -0.8956 1.3976, -1.0417 -0.8956 1.3937, -1.0199 -0.881 1.3976, -1.0199 -0.881 1.3937, -1.0746 -0.88 1.3937, -1.0746 -0.88 1.3976, -1.0023 -0.8425 1.3937, -1.0023 -0.8425 1.3976, -1.0367 -0.8647 1.3976, -1.0367 -0.8647 1.3937, -0.9911 -0.8425 1.3937, -0.9911 -0.8425 1.3976, -0.9911 -1.0816 1.3937, -0.9911 -1.0816 1.3976, -1.0199 -1.0816 1.3937, -1.0199 -1.0816 1.3976
            ]
        }
        coordIndex [
            0,1,2,-1,0,2,3,-1,3,2,4,-1,3,4,5,-1,5,4,6,-1,5,6,7,-1,7,6,8,-1,7,8,9,-1,9,8,10,-1,9,10,11,-1,11,10,12,-1,11,12,13,-1,13,12,14,-1,13,14,15,-1,16,17,18,-1,18,17,19,-1,17,20,19,-1,19,20,21,-1,19,21,22,-1,22,21,23,-1,22,23,24,-1,24,23,25,-1,24,25,26,-1,26,25,27,-1,26,27,28,-1,28,27,29,-1,28,29,30,-1,30,29,1,-1,30,1,0,-1,31,32,33,-1,31,33,34,-1,34,33,35,-1,34,35,36,-1,16,18,37,-1,37,18,38,-1,35,39,36,-1,36,39,40,-1,36,40,41,-1,41,40,42,-1,41,42,43,-1,43,42,44,-1,43,44,45,-1,45,44,46,-1,45,46,38,-1,38,46,47,-1,38,47,37,-1,15,14,48,-1,15,48,49,-1,49,48,50,-1,49,50,51,-1,50,52,51,-1,51,52,53,-1,51,53,54,-1,54,53,55,-1,54,55,56,-1,56,55,57,-1,58,59,57,-1,57,59,60,-1,57,60,56,-1,58,61,59,-1,59,61,32,-1,59,32,31,-1,62,31,63,-1,63,31,34,-1,63,34,64,-1,64,34,36,-1,64,36,65,-1,65,36,41,-1,65,41,66,-1,66,41,43,-1,66,43,67,-1,67,43,45,-1,67,45,68,-1,68,45,38,-1,68,38,69,-1,69,38,18,-1,69,18,70,-1,70,18,19,-1,70,19,71,-1,71,19,22,-1,71,22,72,-1,72,22,24,-1,72,24,73,-1,73,24,26,-1,73,26,74,-1,74,26,28,-1,74,28,75,-1,75,28,30,-1,75,30,76,-1,76,30,0,-1,76,0,77,-1,77,0,3,-1,77,3,78,-1,78,3,5,-1,78,5,79,-1,79,5,7,-1,79,7,80,-1,80,7,9,-1,80,9,81,-1,81,9,11,-1,81,11,82,-1,82,11,13,-1,82,13,83,-1,83,13,15,-1,83,15,84,-1,84,15,49,-1,84,49,85,-1,85,49,51,-1,85,51,86,-1,86,51,54,-1,86,54,87,-1,87,54,56,-1,87,56,88,-1,88,56,60,-1,88,60,89,-1,89,60,59,-1,89,59,62,-1,62,59,31,-1,76,90,91,-1,76,91,75,-1,75,91,92,-1,75,92,74,-1,74,92,93,-1,74,93,73,-1,73,93,94,-1,73,94,72,-1,72,94,95,-1,72,95,71,-1,71,95,96,-1,71,96,70,-1,70,96,97,-1,70,97,69,-1,83,98,99,-1,83,99,82,-1,82,99,100,-1,82,100,81,-1,81,100,101,-1,81,101,80,-1,80,101,102,-1,80,102,79,-1,79,102,103,-1,79,103,78,-1,78,103,104,-1,78,104,77,-1,77,104,90,-1,77,90,76,-1,62,105,106,-1,62,106,89,-1,89,106,107,-1,89,107,88,-1,88,107,108,-1,88,108,87,-1,87,108,109,-1,87,109,86,-1,86,109,110,-1,86,110,85,-1,85,110,111,-1,85,111,84,-1,84,111,98,-1,84,98,83,-1,69,97,112,-1,69,112,68,-1,68,112,113,-1,68,113,67,-1,67,113,114,-1,67,114,66,-1,66,114,115,-1,66,115,65,-1,65,115,116,-1,65,116,64,-1,64,116,117,-1,64,117,63,-1,63,117,105,-1,63,105,62,-1,118,119,120,-1,120,119,121,-1,122,123,124,-1,122,124,125,-1,125,124,119,-1,125,119,118,-1,126,127,122,-1,122,127,123,-1,128,129,130,-1,128,130,131,-1,131,130,127,-1,131,127,126,-1,132,133,128,-1,128,133,129,-1,134,135,132,-1,132,135,133,-1,136,137,134,-1,134,137,135,-1,138,139,136,-1,136,139,137,-1,140,141,138,-1,138,141,139,-1,142,143,144,-1,142,144,145,-1,145,144,141,-1,145,141,140,-1,146,147,142,-1,142,147,143,-1,148,149,150,-1,148,150,151,-1,151,150,147,-1,151,147,146,-1,152,153,148,-1,148,153,149,-1,154,155,152,-1,152,155,153,-1,156,157,154,-1,154,157,155,-1,156,120,157,-1,157,120,121,-1,156,154,148,-1,148,154,152,-1,134,132,136,-1,136,132,128,-1,128,131,136,-1,136,131,126,-1,136,126,138,-1,138,126,122,-1,148,151,156,-1,156,151,146,-1,156,146,120,-1,120,146,142,-1,142,145,120,-1,120,145,140,-1,120,140,118,-1,118,140,138,-1,118,138,125,-1,125,138,122,-1,158,159,160,-1,158,160,161,-1,161,160,162,-1,161,162,163,-1,163,162,164,-1,163,164,165,-1,166,167,158,-1,158,167,159,-1,168,169,170,-1,168,170,171,-1,171,170,167,-1,171,167,166,-1,172,173,168,-1,168,173,169,-1,174,175,172,-1,172,175,173,-1,176,177,174,-1,174,177,175,-1,176,165,177,-1,177,165,164,-1,176,174,165,-1,165,174,172,-1,172,168,165,-1,165,168,171,-1,165,171,163,-1,163,171,166,-1,163,166,161,-1,161,166,158,-1,
        ]
    }
}
Shape{
    appearance Appearance {
        material  Material 	{
            diffuseColor 0.10980392156862745 0.10980392156862745 0.10980392156862745
            specularColor 0.0784313725490196 0.0784313725490196 0.0784313725490196
            ambientIntensity 0.1098
            transparency 0.0
            shininess 0.5
        }
    }
    geometry IndexedFaceSet {
        ccw TRUE
        solid FALSE
        coord DEF co Coordinate {
            point [
                -1.1996 0.8684 1.3976, -1.1896 0.8507 1.3976, -1.0487 0.9445 1.3976, -1.2098 0.9009 1.3976, -1.0525 0.991 1.3976, -1.2113 0.9804 1.3976, -1.2138 0.9451 1.3976, -1.0622 1.0234 1.3976, -1.0703 1.0385 1.3976, -1.2017 1.016 1.3976, -1.1885 1.0403 1.3976, -1.0991 0.8261 1.3976, -1.0861 0.8347 1.3976, -1.0746 0.8467 1.3976, -1.0624 0.8672 1.3976, -1.0525 0.8997 1.3976, -1.1474 1.0701 1.3976, -1.0823 1.0533 1.3976, -1.1615 1.0648 1.3976, -1.1747 1.0557 1.3976, -1.1629 0.826 1.3976, -1.149 0.8207 1.3976, -1.1766 0.8357 1.3976, -1.1323 0.8187 1.3976, -1.1139 0.8207 1.3976, -1.0961 1.0637 1.3976, -1.1114 1.0698 1.3976, -1.1302 1.0722 1.3976
            ]
        }
        coordIndex [
            0,1,2,-1,0,2,3,-1,4,5,2,-1,2,5,6,-1,2,6,3,-1,4,7,5,-1,5,7,8,-1,5,8,9,-1,9,8,10,-1,11,12,1,-1,1,12,13,-1,13,14,1,-1,1,14,15,-1,1,15,2,-1,16,8,17,-1,16,18,8,-1,8,18,19,-1,8,19,10,-1,20,21,22,-1,22,21,23,-1,22,23,1,-1,1,23,24,-1,1,24,11,-1,25,26,17,-1,17,26,27,-1,17,27,16,-1,
        ]
    }
}
Shape{
    appearance Appearance {
        material  Material 	{
            diffuseColor 1.0 1.0 1.0
            specularColor 0.30196078431372547 0.30196078431372547 0.30196078431372547
            ambientIntensity 1.0
            transparency 0.0
            shininess 0.5
        }
    }
    geometry IndexedFaceSet {
        ccw TRUE
        solid FALSE
        coord DEF co Coordinate {
            point [
                0.1772 -0.0787 1.6339, 0.1772 -0.3937 1.6339, 0.1772 -0.0787 1.2008, 0.1772 -0.3937 1.2008, -0.1772 -0.0787 1.6339, -0.1772 -0.0787 1.2008, -0.1772 -0.3937 1.6339, -0.1772 -0.3937 1.2008, -0.8228 -0.0787 1.6339, -0.8228 -0.3937 1.6339, -0.8228 -0.0787 1.2008, -0.8228 -0.3937 1.2008, -1.1772 -0.0787 1.6339, -1.1772 -0.0787 1.2008, -1.1772 -0.3937 1.6339, -1.1772 -0.3937 1.2008
            ]
        }
        coordIndex [
            0,1,2,-1,2,1,3,-1,4,0,5,-1,5,0,2,-1,6,4,7,-1,7,4,5,-1,1,6,3,-1,3,6,7,-1,4,6,0,-1,0,6,1,-1,7,5,3,-1,3,5,2,-1,8,9,10,-1,10,9,11,-1,12,8,13,-1,13,8,10,-1,14,12,15,-1,15,12,13,-1,9,14,11,-1,11,14,15,-1,12,14,8,-1,8,14,9,-1,15,13,11,-1,11,13,10,-1,
        ]
    }
}