#VRML V2.0 utf8
# 3D model generated by easyeda2kicad.py (https://github.com/uPesy/easyeda2kicad.py)

Shape{
    appearance Appearance {
        material  Material 	{
            diffuseColor 0.7764705882352941 0.7568627450980392 0.7372549019607844
            specularColor 0.38823529411764707 0.3764705882352941 0.3686274509803922
            ambientIntensity 0.7605
            transparency 0.0
            shininess 0.5
        }
    }
    geometry IndexedFaceSet {
        ccw TRUE
        solid FALSE
        coord DEF co Coordinate {
            point [
                2.5197 -0.1969 -0.0394, 2.5197 -0.5906 -0.0394, 2.3228 -0.1969 -0.0394, 2.3228 -0.5906 -0.0394, -2.5197 0.5906 -0.0394, -2.3228 0.5906 -0.0394, -2.5197 0.1969 -0.0394, -2.3228 0.1969 -0.0394, -2.3228 -0.5906 -0.0394, -2.5197 -0.5906 -0.0394, -2.3228 -0.1969 -0.0394, -2.5197 -0.1969 -0.0394
            ]
        }
        coordIndex [
            0,1,2,-1,2,1,3,-1,4,5,6,-1,6,5,7,-1,8,9,10,-1,10,9,11,-1,
        ]
    }
}
Shape{
    appearance Appearance {
        material  Material 	{
            diffuseColor 0.9411764705882353 0.6078431372549019 0.0
            specularColor 0.2823529411764706 0.1843137254901961 0.0
            ambientIntensity 0.6382
            transparency 0.0
            shininess 0.5
        }
    }
    geometry IndexedFaceSet {
        ccw TRUE
        solid FALSE
        coord DEF co Coordinate {
            point [
                -2.2835 -0.2726 0.2756, -2.2835 -0.1258 0.2756, -0.7874 -0.1258 0.2756, -1.378 0.6587 0.2756, -1.378 0.8268 0.2756, -0.7874 0.8268 0.2756, 1.6929 0.6587 0.2756, 1.6929 0.8268 0.2756, 2.0276 0.8268 0.2756, 1.378 -0.6587 0.2756, 1.378 -0.8268 0.2756, 1.1811 -0.8268 0.2756, -0.0174 -0.1941 0.2756, -0.0013 -0.1258 0.2756, -0.009 -0.1975 0.2756, -0.0013 -0.2726 0.2756, -0.009 -0.2062 0.2756, -0.0274 -0.2645 0.2756, -0.0104 -0.2054 0.2756, -0.0179 -0.2632 0.2756, -0.009 -0.2594 0.2756, -0.009 -0.27 0.2756, -0.0181 -0.2725 0.2756, -0.048 -0.1961 0.2756, -0.0544 -0.2002 0.2756, -0.0709 -0.1258 0.2756, -0.0709 -0.2726 0.2756, -0.0587 -0.2589 0.2756, -0.0518 -0.2655 0.2756, -0.0352 -0.2636 0.2756, -0.0411 -0.2615 0.2756, -0.0466 -0.2578 0.2756, -0.0514 -0.2525 0.2756, -0.0546 -0.2464 0.2756, -0.0567 -0.2379 0.2756, -0.057 -0.232 0.2756, -0.0562 -0.2234 0.2756, -0.0541 -0.2167 0.2756, -0.0292 -0.2011 0.2756, -0.0471 -0.2073 0.2756, -0.0365 -0.2019 0.2756, -0.0423 -0.2041 0.2756, -0.0508 -0.2112 0.2756, -0.0188 -0.2023 0.2756, -0.0676 -0.2313 0.2756, -0.0664 -0.2425 0.2756, -0.0634 -0.2515 0.2756, -0.0445 -0.2698 0.2756, -0.0358 -0.2724 0.2756, -0.0331 -0.2726 0.2756, -0.0602 -0.2063 0.2756, -0.0644 -0.2137 0.2756, -0.0668 -0.2221 0.2756, -0.0285 -0.1925 0.2756, -0.0307 -0.1925 0.2756, -0.0404 -0.1935 0.2756, -0.0013 -0.8268 0.2756, -0.0275 -0.2731 0.2756, -0.0206 -0.2726 0.2756, -0.1969 0.0591 0.2756, -0.1969 -0.0591 0.2756, 0.1302 0.8268 0.2756, 0.0563 0.0591 0.2756, 0.0563 0.8268 0.2756, -0.0013 0.0591 0.2756, -0.0013 0.8268 0.2756, -0.0709 0.0591 0.2756, -0.0709 0.8268 0.2756, 0.3974 -0.1258 0.2756, 0.1969 -0.0591 0.2756, 0.1969 0.0591 0.2756, 0.1302 -0.0591 0.2756, 0.0563 -0.1258 0.2756, 0.0563 -0.0591 0.2756, -0.0013 -0.0591 0.2756, -0.0709 -0.0591 0.2756, 2.0276 -0.2726 0.2756, 2.0276 -0.8268 0.2756, 1.6929 -0.8268 0.2756, 1.6929 -0.6587 0.2756, 1.1811 -0.2726 0.2756, 1.1811 0.8268 0.2756, 1.378 0.8268 0.2756, 1.378 0.6587 0.2756, 1.378 0.0591 0.2756, 1.378 -0.0591 0.2756, 1.1811 -0.1258 0.2756, 2.0276 -0.1258 0.2756, 1.7717 -0.0591 0.2756, 1.7717 0.0591 0.2756, -2.2835 0.8268 0.2756, -1.6929 0.8268 0.2756, -1.6929 0.6587 0.2756, -1.7717 0.0591 0.2756, -1.7717 -0.0591 0.2756, -1.378 -0.0591 0.2756, -1.378 0.0591 0.2756, -1.6929 -0.8268 0.2756, -2.2835 -0.8268 0.2756, -1.6929 -0.6587 0.2756, 0.5906 0.0591 0.2756, 0.3974 0.8268 0.2756, 0.9843 0.0591 0.2756, 0.1302 0.0591 0.2756, 0.5906 -0.0591 0.2756, 0.9843 -0.0591 0.2756, -0.1146 -0.1934 0.2756, -0.1146 -0.2722 0.2756, -0.7874 -0.2726 0.2756, -0.1041 -0.2722 0.2756, -0.1041 -0.2021 0.2756, -0.0743 -0.2021 0.2756, -0.0743 -0.1934 0.2756, -1.378 -0.6587 0.2756, 0.0467 -0.2635 0.2756, 0.0563 -0.2726 0.2756, 0.0467 -0.2722 0.2756, 0.0064 -0.2722 0.2756, 0.0169 -0.2635 0.2756, 0.0169 -0.2376 0.2756, 0.0448 -0.2376 0.2756, 0.0169 -0.229 0.2756, 0.0169 -0.2021 0.2756, 0.0448 -0.229 0.2756, 0.0486 -0.2021 0.2756, 0.0064 -0.1934 0.2756, 0.0486 -0.1934 0.2756, 0.0854 -0.1934 0.2756, 0.064 -0.1934 0.2756, 0.1302 -0.2726 0.2756, 0.1068 -0.2677 0.2756, 0.1146 -0.2626 0.2756, 0.1302 -0.1258 0.2756, 0.1044 -0.1971 0.2756, 0.0954 -0.1943 0.2756, 0.1234 -0.215 0.2756, 0.119 -0.2081 0.2756, 0.1126 -0.2019 0.2756, 0.064 -0.2722 0.2756, 0.0862 -0.2722 0.2756, 0.0976 -0.271 0.2756, 0.1177 -0.2598 0.2756, 0.1224 -0.2536 0.2756, 0.1257 -0.246 0.2756, 0.1272 -0.2377 0.2756, 0.1274 -0.2338 0.2756, 0.1263 -0.2233 0.2756, 0.2042 -0.1934 0.2756, 0.1734 -0.2722 0.2756, 0.3974 -0.2726 0.2756, 0.1847 -0.2155 0.2756, 0.1522 -0.2155 0.2756, 0.1927 -0.1934 0.2756, 0.1446 -0.1934 0.2756, 0.1331 -0.1934 0.2756, 0.1629 -0.2722 0.2756, -0.0709 -0.8268 0.2756, -0.7874 -0.8268 0.2756, -1.378 -0.8268 0.2756, 0.3974 -0.8268 0.2756, 0.1302 -0.8268 0.2756, 0.0563 -0.8268 0.2756, 2.2835 0.8268 0.2756, 2.2835 -0.1258 0.2756, 2.2835 -0.2726 0.2756, 2.2835 -0.8268 0.2756
            ]
        }
        coordIndex [
            0,1,2,-1,3,4,5,-1,6,7,8,-1,9,10,11,-1,12,13,14,-1,14,13,15,-1,14,15,16,-1,17,18,19,-1,19,18,16,-1,19,16,20,-1,20,16,15,-1,20,15,21,-1,21,15,22,-1,23,24,25,-1,26,27,28,-1,17,29,18,-1,18,29,30,-1,18,30,31,-1,31,32,18,-1,18,32,33,-1,18,33,34,-1,34,35,18,-1,18,35,36,-1,18,36,37,-1,38,39,40,-1,40,39,41,-1,37,42,18,-1,18,42,39,-1,18,39,43,-1,43,39,38,-1,44,45,26,-1,26,45,46,-1,26,46,27,-1,28,47,26,-1,26,47,48,-1,26,48,49,-1,24,50,25,-1,25,50,51,-1,25,51,52,-1,12,53,13,-1,13,53,54,-1,13,54,25,-1,25,54,55,-1,25,55,23,-1,56,57,58,-1,59,60,2,-1,2,60,25,-1,61,62,63,-1,63,62,64,-1,63,64,65,-1,65,64,66,-1,65,66,67,-1,67,66,5,-1,68,69,70,-1,71,72,73,-1,73,72,13,-1,73,13,74,-1,74,13,25,-1,74,25,75,-1,75,25,60,-1,76,77,78,-1,79,9,80,-1,81,82,83,-1,84,85,86,-1,87,88,89,-1,90,91,92,-1,93,94,1,-1,1,94,95,-1,1,95,2,-1,2,95,96,-1,66,59,5,-1,5,59,2,-1,5,2,3,-1,3,2,96,-1,3,96,92,-1,92,96,93,-1,92,93,90,-1,90,93,1,-1,97,98,99,-1,99,98,0,-1,100,101,102,-1,102,101,81,-1,100,68,101,-1,101,68,70,-1,101,70,61,-1,61,70,103,-1,61,103,62,-1,104,105,86,-1,8,87,6,-1,6,87,89,-1,6,89,83,-1,83,89,84,-1,83,84,81,-1,81,84,86,-1,81,86,102,-1,102,86,105,-1,106,107,108,-1,108,107,26,-1,26,107,109,-1,26,109,110,-1,110,111,26,-1,26,111,25,-1,26,25,44,-1,44,25,52,-1,111,112,25,-1,25,112,106,-1,25,106,2,-1,2,106,108,-1,2,108,0,-1,0,108,113,-1,0,113,99,-1,114,115,116,-1,116,115,15,-1,116,15,117,-1,118,119,114,-1,114,119,120,-1,121,122,123,-1,123,122,124,-1,117,15,125,-1,125,15,13,-1,125,13,126,-1,126,13,72,-1,126,72,124,-1,127,128,72,-1,128,115,72,-1,72,115,114,-1,72,114,124,-1,124,114,120,-1,124,120,123,-1,129,130,131,-1,132,133,134,-1,135,136,132,-1,132,136,137,-1,132,137,133,-1,128,138,115,-1,115,138,139,-1,115,139,129,-1,129,139,140,-1,129,140,130,-1,69,68,71,-1,71,68,132,-1,71,132,72,-1,72,132,134,-1,72,134,127,-1,131,141,129,-1,129,141,142,-1,129,142,143,-1,143,144,129,-1,129,144,145,-1,129,145,132,-1,132,145,146,-1,132,146,135,-1,147,68,148,-1,148,68,149,-1,148,149,129,-1,150,151,152,-1,152,151,153,-1,147,152,68,-1,68,152,153,-1,68,153,132,-1,132,153,154,-1,132,154,129,-1,129,154,155,-1,129,155,148,-1,100,104,68,-1,68,104,86,-1,68,86,149,-1,149,86,80,-1,85,88,86,-1,86,88,87,-1,86,87,80,-1,80,87,76,-1,80,76,79,-1,79,76,78,-1,57,56,49,-1,49,56,156,-1,49,156,26,-1,26,156,157,-1,26,157,108,-1,108,157,158,-1,108,158,113,-1,9,11,80,-1,80,11,159,-1,80,159,149,-1,149,159,160,-1,149,160,129,-1,129,160,161,-1,129,161,115,-1,115,161,56,-1,115,56,15,-1,15,56,58,-1,15,58,22,-1,8,162,87,-1,87,162,163,-1,87,163,76,-1,76,163,164,-1,76,164,77,-1,77,164,165,-1,
        ]
    }
}
Shape{
    appearance Appearance {
        material  Material 	{
            diffuseColor 0.9686274509803922 0.8784313725490196 0.6
            specularColor 0.6784313725490196 0.615686274509804 0.4196078431372549
            ambientIntensity 0.8737
            transparency 0.0
            shininess 0.5
        }
    }
    geometry IndexedFaceSet {
        ccw TRUE
        solid FALSE
        coord DEF co Coordinate {
            point [
                -1.4764 -0.0591 -0.0787, -1.378 -0.0591 0.0197, -1.6732 -0.0591 -0.0787, -1.4797 -0.0591 -1.1869, -1.4764 -0.0591 -1.1614, -1.6699 -0.0591 -1.1869, -1.7717 -0.0591 0.0197, -1.378 -0.0591 0.2756, -1.7717 -0.0591 0.2756, -1.6732 -0.0591 -1.1614, -1.66 -0.0591 -1.2106, -1.5052 -0.0591 -1.231, -1.4896 -0.0591 -1.2106, -1.6444 -0.0591 -1.231, -1.624 -0.0591 -1.2467, -1.6003 -0.0591 -1.2565, -1.5748 -0.0591 -1.2598, -1.5493 -0.0591 -1.2565, -1.5256 -0.0591 -1.2467, -1.7717 0.0591 0.2756, -1.378 0.0591 0.2756, -1.7717 0.0591 0.0197, -1.378 0.0591 0.0197, -1.6732 0.0591 -0.0787, -1.4764 0.0591 -0.0787, -1.6732 0.0591 -1.1614, -1.4764 0.0591 -1.1614, -1.4797 0.0591 -1.1869, -1.4896 0.0591 -1.2106, -1.5052 0.0591 -1.231, -1.5256 0.0591 -1.2467, -1.5493 0.0591 -1.2565, -1.5748 0.0591 -1.2598, -1.624 0.0591 -1.2467, -1.6444 0.0591 -1.231, -1.66 0.0591 -1.2106, -1.6003 0.0591 -1.2565, -1.6699 0.0591 -1.1869, 1.378 -0.0591 0.0197, 1.378 0.0591 0.0197, 1.4764 -0.0591 -0.0787, 1.4764 0.0591 -0.0787, 1.4764 -0.0591 -1.1614, 1.4764 0.0591 -1.1614, 1.6732 0.0591 -1.1614, 1.6732 -0.0591 -1.1614, 1.6699 -0.0591 -1.1869, 1.6699 0.0591 -1.1869, 1.66 -0.0591 -1.2106, 1.66 0.0591 -1.2106, 1.6444 -0.0591 -1.231, 1.6444 0.0591 -1.231, 1.624 -0.0591 -1.2467, 1.624 0.0591 -1.2467, 1.6003 -0.0591 -1.2565, 1.6003 0.0591 -1.2565, 1.5748 -0.0591 -1.2598, 1.5748 0.0591 -1.2598, 1.5493 -0.0591 -1.2565, 1.5493 0.0591 -1.2565, 1.5256 -0.0591 -1.2467, 1.5256 0.0591 -1.2467, 1.5052 -0.0591 -1.231, 1.5052 0.0591 -1.231, 1.4896 -0.0591 -1.2106, 1.4896 0.0591 -1.2106, 1.4797 -0.0591 -1.1869, 1.4797 0.0591 -1.1869, 1.6732 -0.0591 -0.0787, 1.6732 0.0591 -0.0787, 1.7717 -0.0591 0.0197, 1.7717 0.0591 0.0197, 1.7717 -0.0591 0.2756, 1.378 -0.0591 0.2756, 1.7717 0.0591 0.2756, 1.378 0.0591 0.2756, 0.1969 -0.0591 0.0197, 0.1969 -0.0591 0.2756, 0.0984 -0.0591 -0.0787, 0.1302 -0.0591 0.2756, 0.0563 -0.0591 0.2756, -0.0013 -0.0591 0.2756, -0.0709 -0.0591 0.2756, -0.0951 -0.0591 -1.1869, -0.0255 -0.0591 -1.2565, -0.0984 -0.0591 -1.1614, 0.0 -0.0591 -1.2598, 0.0255 -0.0591 -1.2565, 0.0492 -0.0591 -1.2467, 0.0696 -0.0591 -1.231, 0.0852 -0.0591 -1.2106, 0.0951 -0.0591 -1.1869, 0.0984 -0.0591 -1.1614, -0.0984 -0.0591 -0.0787, -0.1969 -0.0591 0.0197, -0.1969 -0.0591 0.2756, -0.0852 -0.0591 -1.2106, -0.0696 -0.0591 -1.231, -0.0492 -0.0591 -1.2467, -0.1969 0.0591 0.0197, -0.1969 0.0591 0.2756, -0.0984 0.0591 -0.0787, -0.0709 0.0591 0.2756, 0.0 0.0591 -1.2598, -0.0255 0.0591 -1.2565, -0.0984 0.0591 -1.1614, -0.0013 0.0591 0.2756, 0.0563 0.0591 0.2756, 0.1302 0.0591 0.2756, 0.0984 0.0591 -1.1614, 0.0984 0.0591 -0.0787, 0.1969 0.0591 0.0197, 0.1969 0.0591 0.2756, 0.0951 0.0591 -1.1869, 0.0852 0.0591 -1.2106, 0.0696 0.0591 -1.231, 0.0492 0.0591 -1.2467, 0.0255 0.0591 -1.2565, -0.0492 0.0591 -1.2467, -0.0696 0.0591 -1.231, -0.0852 0.0591 -1.2106, -0.0951 0.0591 -1.1869
            ]
        }
        coordIndex [
            0,1,2,-1,3,4,5,-1,2,1,6,-1,6,1,7,-1,6,7,8,-1,0,2,4,-1,4,2,9,-1,4,9,5,-1,10,11,5,-1,5,11,12,-1,5,12,3,-1,10,13,11,-1,11,13,14,-1,11,14,15,-1,15,16,11,-1,11,16,17,-1,11,17,18,-1,19,20,21,-1,21,20,22,-1,21,22,23,-1,23,22,24,-1,23,24,25,-1,25,24,26,-1,26,27,25,-1,25,27,28,-1,25,28,29,-1,29,30,25,-1,25,30,31,-1,25,31,32,-1,33,34,35,-1,32,36,25,-1,25,36,33,-1,25,33,37,-1,37,33,35,-1,20,7,22,-1,22,7,1,-1,38,39,40,-1,40,39,41,-1,42,40,43,-1,43,40,41,-1,44,45,46,-1,44,46,47,-1,47,46,48,-1,47,48,49,-1,49,48,50,-1,49,50,51,-1,51,50,52,-1,51,52,53,-1,53,52,54,-1,53,54,55,-1,55,54,56,-1,55,56,57,-1,57,56,58,-1,57,58,59,-1,59,58,60,-1,59,60,61,-1,61,60,62,-1,61,62,63,-1,63,62,64,-1,63,64,65,-1,65,64,66,-1,65,66,67,-1,67,66,42,-1,67,42,43,-1,45,44,68,-1,68,44,69,-1,70,68,71,-1,71,68,69,-1,72,73,70,-1,70,73,38,-1,70,38,68,-1,68,38,40,-1,68,40,45,-1,40,42,45,-1,45,42,66,-1,45,66,46,-1,46,66,64,-1,46,64,62,-1,62,60,46,-1,46,60,58,-1,46,58,56,-1,56,54,46,-1,46,54,52,-1,46,52,48,-1,48,52,50,-1,74,72,71,-1,71,72,70,-1,75,74,39,-1,39,74,71,-1,39,71,41,-1,41,71,69,-1,41,69,43,-1,43,69,44,-1,44,47,43,-1,43,47,49,-1,43,49,51,-1,51,53,43,-1,43,53,55,-1,43,55,57,-1,61,63,65,-1,57,59,43,-1,43,59,61,-1,43,61,67,-1,67,61,65,-1,38,73,39,-1,39,73,75,-1,76,77,78,-1,78,77,79,-1,79,80,78,-1,78,80,81,-1,78,81,82,-1,83,84,85,-1,85,84,86,-1,85,86,87,-1,87,88,85,-1,85,88,89,-1,85,89,90,-1,90,91,85,-1,85,91,92,-1,85,92,93,-1,93,92,78,-1,93,78,94,-1,94,78,82,-1,94,82,95,-1,83,96,84,-1,84,96,97,-1,84,97,98,-1,99,100,101,-1,101,100,102,-1,103,104,105,-1,102,106,101,-1,101,106,107,-1,101,107,108,-1,109,105,110,-1,110,105,101,-1,110,101,111,-1,111,101,108,-1,111,108,112,-1,109,113,105,-1,105,113,114,-1,105,114,115,-1,115,116,105,-1,105,116,117,-1,105,117,103,-1,104,118,119,-1,119,120,104,-1,104,120,121,-1,104,121,105,-1,112,77,111,-1,111,77,76,-1,
        ]
    }
}
Shape{
    appearance Appearance {
        material  Material 	{
            diffuseColor 0.9411764705882353 0.6078431372549019 0.0
            specularColor 0.2823529411764706 0.1843137254901961 0.0
            ambientIntensity 0.6382
            transparency 0.0
            shininess 0.5
        }
    }
    geometry IndexedFaceSet {
        ccw TRUE
        solid FALSE
        coord DEF co Coordinate {
            point [
                -1.378 -0.8268 0.315, -1.378 -0.8268 0.2756, -0.7874 -0.8268 0.2756, 1.378 -0.8268 0.5118, -1.378 -0.8268 0.5118, 1.378 -0.8268 0.315, 0.1302 -0.8268 0.2756, 0.3974 -0.8268 0.2756, 1.1811 -0.8268 0.2756, 1.378 -0.8268 0.2756, -0.0709 -0.8268 0.2756, -0.0013 -0.8268 0.2756, 0.0563 -0.8268 0.2756, -1.6929 -0.8268 0.2756, -1.6929 -0.8268 0.315, -1.9685 -0.8268 0.315, -1.9685 -0.8268 0.5118, -2.2441 -0.8268 0.5118, -2.2835 -0.8268 0.2756, -2.2835 -0.8268 0.5118, 2.2441 -0.8268 0.5118, 1.9685 -0.8268 0.5118, 1.9685 -0.8268 0.315, 1.6929 -0.8268 0.315, 1.6929 -0.8268 0.2756, 2.0276 -0.8268 0.2756, 2.2835 -0.8268 0.2756, 2.2835 -0.8268 0.5118, -2.2441 0.8268 0.5118, -1.9685 0.8268 0.5118, -1.9685 0.8268 0.315, -2.2835 0.8268 0.5118, -2.2835 0.8268 0.2756, -1.6929 0.8268 0.2756, -1.6929 0.8268 0.315, -1.378 0.8268 0.5118, 1.378 0.8268 0.5118, -1.378 0.8268 0.315, 1.378 0.8268 0.315, 1.378 0.8268 0.2756, 1.1811 0.8268 0.2756, 0.3974 0.8268 0.2756, -0.7874 0.8268 0.2756, -1.378 0.8268 0.2756, -0.0709 0.8268 0.2756, 0.1302 0.8268 0.2756, 0.0563 0.8268 0.2756, -0.0013 0.8268 0.2756, 1.6929 0.8268 0.2756, 1.6929 0.8268 0.315, 2.0276 0.8268 0.2756, 1.9685 0.8268 0.315, 1.9685 0.8268 0.5118, 2.2441 0.8268 0.5118, 2.2835 0.8268 0.2756, 2.2835 0.8268 0.5118, -2.2441 -0.6693 0.5118, -2.2441 0.6693 0.5118, -2.1654 0.6693 0.5118, -2.1654 -0.6693 0.5118, 2.2441 -0.6693 0.5118, 2.2441 0.6693 0.5118, 2.1654 0.6693 0.5118, 2.1654 -0.6693 0.5118
            ]
        }
        coordIndex [
            0,1,2,-1,3,4,5,-1,5,4,0,-1,6,7,5,-1,5,7,8,-1,5,8,9,-1,2,10,0,-1,0,10,11,-1,0,11,5,-1,5,11,12,-1,5,12,6,-1,13,14,15,-1,15,16,17,-1,13,15,18,-1,18,15,17,-1,18,17,19,-1,20,21,22,-1,23,24,22,-1,22,24,25,-1,22,25,20,-1,20,25,26,-1,20,26,27,-1,28,29,30,-1,31,28,32,-1,32,28,30,-1,32,30,33,-1,33,30,34,-1,35,36,37,-1,37,36,38,-1,39,40,38,-1,38,40,41,-1,42,43,37,-1,42,37,44,-1,41,45,38,-1,38,45,46,-1,38,46,37,-1,37,46,47,-1,37,47,44,-1,48,49,50,-1,50,49,51,-1,51,52,50,-1,50,52,53,-1,50,53,54,-1,54,53,55,-1,31,19,56,-1,56,19,17,-1,28,31,57,-1,57,31,56,-1,57,56,58,-1,58,56,59,-1,19,31,18,-1,18,31,32,-1,55,27,54,-1,54,27,26,-1,60,20,27,-1,55,53,61,-1,62,63,61,-1,61,63,60,-1,61,60,55,-1,55,60,27,-1,
        ]
    }
}
Shape{
    appearance Appearance {
        material  Material 	{
            diffuseColor 0.9686274509803922 0.8784313725490196 0.6
            specularColor 0.6784313725490196 0.615686274509804 0.4196078431372549
            ambientIntensity 0.8737
            transparency 0.0
            shininess 0.5
        }
    }
    geometry IndexedFaceSet {
        ccw TRUE
        solid FALSE
        coord DEF co Coordinate {
            point [
                -0.1969 -0.0591 0.0197, -0.1969 -0.0591 0.2756, -0.1969 0.0591 0.0197, -0.1969 0.0591 0.2756
            ]
        }
        coordIndex [
            0,1,2,-1,2,1,3,-1,
        ]
    }
}
Shape{
    appearance Appearance {
        material  Material 	{
            diffuseColor 0.7764705882352941 0.7568627450980392 0.7372549019607844
            specularColor 0.38823529411764707 0.3764705882352941 0.3686274509803922
            ambientIntensity 0.7605
            transparency 0.0
            shininess 0.5
        }
    }
    geometry IndexedFaceSet {
        ccw TRUE
        solid FALSE
        coord DEF co Coordinate {
            point [
                -1.6929 -0.8661 0.315, -1.9685 -0.8661 0.315, -1.6929 -0.8268 0.315, -1.9685 -0.8268 0.315, 1.9685 -0.8661 0.315, 1.6929 -0.8661 0.315, 1.9685 -0.8268 0.315, 1.6929 -0.8268 0.315, 1.6929 0.8661 0.315, 1.9685 0.8661 0.315, 1.6929 0.8268 0.315, 1.9685 0.8268 0.315, -1.9685 0.8661 0.315, -1.6929 0.8661 0.315, -1.9685 0.8268 0.315, -1.6929 0.8268 0.315, -1.9685 -0.8268 0.5118, -1.9685 -0.8661 0.5118, -2.2441 -0.8268 0.5118, -2.2441 -0.8661 0.5118, 1.378 -0.8268 0.5118, 1.378 -0.8661 0.5118, -1.378 -0.8268 0.5118, -1.378 -0.8661 0.5118, 2.2441 -0.8268 0.5118, 2.2441 -0.8661 0.5118, 1.9685 -0.8268 0.5118, 1.9685 -0.8661 0.5118, 1.9685 0.8268 0.5118, 1.9685 0.8661 0.5118, 2.2441 0.8268 0.5118, 2.2441 0.8661 0.5118, -1.378 0.8268 0.5118, -1.378 0.8661 0.5118, 1.378 0.8268 0.5118, 1.378 0.8661 0.5118, -2.2441 0.8268 0.5118, -2.2441 0.8661 0.5118, -1.9685 0.8268 0.5118, -1.9685 0.8661 0.5118, 1.378 0.8268 0.315, 1.378 0.8661 0.315, -1.378 0.8661 0.315, -1.378 0.8268 0.315, 1.378 -0.8661 0.315, 1.378 -0.8268 0.315, -1.378 -0.8268 0.315, -1.378 -0.8661 0.315
            ]
        }
        coordIndex [
            0,1,2,-1,2,1,3,-1,4,5,6,-1,6,5,7,-1,8,9,10,-1,10,9,11,-1,12,13,14,-1,14,13,15,-1,16,17,18,-1,18,17,19,-1,20,21,22,-1,22,21,23,-1,24,25,26,-1,26,25,27,-1,28,29,30,-1,30,29,31,-1,32,33,34,-1,34,33,35,-1,36,37,38,-1,38,37,39,-1,34,35,40,-1,40,35,41,-1,42,33,43,-1,43,33,32,-1,44,21,45,-1,45,21,20,-1,22,23,46,-1,46,23,47,-1,3,1,16,-1,16,1,17,-1,27,4,26,-1,26,4,6,-1,39,12,38,-1,38,12,14,-1,11,9,28,-1,28,9,29,-1,
        ]
    }
}
Shape{
    appearance Appearance {
        material  Material 	{
            diffuseColor 0.10980392156862745 0.10980392156862745 0.10980392156862745
            specularColor 0.0784313725490196 0.0784313725490196 0.0784313725490196
            ambientIntensity 0.1098
            transparency 0.0
            shininess 0.5
        }
    }
    geometry IndexedFaceSet {
        ccw TRUE
        solid FALSE
        coord DEF co Coordinate {
            point [
                -0.3543 -0.3937 3.3858, -0.3543 0.3937 3.3858, -0.5324 -0.3937 3.3858, -0.5324 0.3937 3.3858, -0.3543 0.3937 1.6142, 1.1811 0.4331 1.6142, -1.1811 0.4331 1.6142, 1.1811 -0.4331 1.6142, -0.3543 -0.3937 1.6142, -1.1811 -0.4331 1.6142, -1.1417 -0.3937 1.6142, -1.1417 0.3937 1.6142
            ]
        }
        coordIndex [
            0,1,2,-1,2,1,3,-1,4,5,6,-1,5,4,7,-1,7,4,8,-1,7,8,9,-1,9,8,10,-1,9,10,6,-1,6,10,11,-1,6,11,4,-1,
        ]
    }
}
Shape{
    appearance Appearance {
        material  Material 	{
            diffuseColor 0.7764705882352941 0.7568627450980392 0.7372549019607844
            specularColor 0.38823529411764707 0.3764705882352941 0.3686274509803922
            ambientIntensity 0.7605
            transparency 0.0
            shininess 0.5
        }
    }
    geometry IndexedFaceSet {
        ccw TRUE
        solid FALSE
        coord DEF co Coordinate {
            point [
                2.1654 -0.6693 1.5354, 2.2441 -0.6693 1.5354, 2.1654 -0.6693 0.5118, 2.2441 -0.6693 0.5118, 2.1654 0.6693 0.5118, 2.2441 0.6693 0.5118, 2.1654 0.6693 1.5354, 2.2441 0.6693 1.5354, 2.2441 0.5906 1.6142, 2.2441 -0.5906 1.6142, 2.1654 0.5906 1.6142, 2.1654 -0.5906 1.6142, 2.2441 -0.6666 1.5558, 2.1654 -0.6666 1.5558, 2.2441 -0.6587 1.5748, 2.1654 -0.6587 1.5748, 2.2441 -0.6462 1.5911, 2.1654 -0.6462 1.5911, 2.2441 -0.6299 1.6036, 2.1654 -0.6299 1.6036, 2.2441 -0.6109 1.6115, 2.1654 -0.6109 1.6115, 2.1654 0.6666 1.5558, 2.2441 0.6666 1.5558, 2.1654 0.6587 1.5748, 2.2441 0.6587 1.5748, 2.1654 0.6462 1.5911, 2.2441 0.6462 1.5911, 2.1654 0.6299 1.6036, 2.2441 0.6299 1.6036, 2.1654 0.6109 1.6115, 2.2441 0.6109 1.6115, 1.6929 -0.8661 0.315, 1.9685 -0.8661 0.315, 1.9685 -0.8661 0.5118, 2.2441 -0.8661 0.5118, 2.2441 -0.8661 1.5354, -2.2441 -0.8661 1.5354, -1.6929 -0.8661 0.315, -1.378 -0.8661 0.315, -1.378 -0.8661 0.5118, -2.2441 -0.8661 0.5118, -1.9685 -0.8661 0.5118, -1.9685 -0.8661 0.315, 1.378 -0.8661 0.5118, 1.378 -0.8661 0.315, -2.2441 -0.6693 0.5118, -2.2441 -0.6693 1.5354, -2.1654 -0.6693 0.5118, -2.1654 -0.6693 1.5354, -1.9685 0.8661 0.5118, -2.2441 0.8661 0.5118, -2.2441 0.8661 1.5354, -1.6929 0.8661 0.315, -1.9685 0.8661 0.315, 2.2441 0.8661 1.5354, 1.9685 0.8661 0.5118, 2.2441 0.8661 0.5118, 1.6929 0.8661 0.315, 1.378 0.8661 0.315, 1.378 0.8661 0.5118, 1.9685 0.8661 0.315, -1.378 0.8661 0.5118, -1.378 0.8661 0.315, -2.2441 0.6693 1.5354, -2.2441 0.6693 0.5118, -2.1654 0.6693 1.5354, -2.1654 0.6693 0.5118, -0.2953 -0.6619 1.8016, -0.2953 -0.6614 1.8018, -2.2441 -0.5906 1.811, 2.2441 -0.5906 1.811, 0.2953 -0.6614 1.8018, 2.2441 -0.6619 1.8016, -2.2441 -0.6619 1.8016, -2.2441 -0.7283 1.7741, -0.2953 -0.7283 1.7741, -2.2441 -0.7854 1.7303, -0.2953 -0.7854 1.7303, -2.2441 -0.8292 1.6732, -0.2953 -0.8292 1.6732, -2.2441 -0.8568 1.6068, -0.2953 -0.8568 1.6068, -0.2953 -0.8633 1.5748, 0.2953 -0.8633 1.5748, 0.2953 -0.8568 1.6068, 2.2441 -0.8568 1.6068, 2.2441 -0.8292 1.6732, 0.2953 -0.8292 1.6732, 2.2441 -0.7854 1.7303, 0.2953 -0.7854 1.7303, 2.2441 -0.7283 1.7741, 0.2953 -0.7283 1.7741, 0.2953 -0.6619 1.8016, -2.2441 0.5906 1.811, 2.2441 0.5906 1.811, 2.2441 0.6619 1.8016, -2.2441 0.6619 1.8016, 2.2441 0.7283 1.7741, -2.2441 0.7283 1.7741, 2.2441 0.7854 1.7303, -2.2441 0.7854 1.7303, 2.2441 0.8292 1.6732, -2.2441 0.8292 1.6732, 2.2441 0.8568 1.6068, -2.2441 0.8568 1.6068, 2.2441 0.8268 0.5118, 1.1811 0.4331 1.811, -1.1811 0.4331 1.811, -1.1811 -0.4331 1.811, 1.1811 -0.4331 1.811, -2.1654 -0.5906 1.6142, -2.2441 -0.5906 1.6142, -2.1654 0.5906 1.6142, -2.2441 0.5906 1.6142, 2.2441 -0.8268 0.5118, -2.2441 -0.8268 0.5118, -2.2441 -0.6666 1.5558, -2.2441 -0.6587 1.5748, -2.2441 -0.6462 1.5911, -2.2441 -0.6299 1.6036, -2.2441 -0.6109 1.6115, -2.1654 -0.6666 1.5558, -2.1654 -0.6587 1.5748, -2.1654 -0.6462 1.5911, -2.1654 -0.6299 1.6036, -2.1654 -0.6109 1.6115, -2.2441 0.8268 0.5118, -2.2441 0.6109 1.6115, -2.2441 0.6299 1.6036, -2.2441 0.6462 1.5911, -2.2441 0.6587 1.5748, -2.2441 0.6666 1.5558, -2.1654 0.6666 1.5558, -2.1654 0.6587 1.5748, -2.1654 0.6462 1.5911, -2.1654 0.6299 1.6036, -2.1654 0.6109 1.6115, -1.378 -0.7283 0.0763, -1.378 -0.6368 0.2513, -1.378 -0.7854 0.1201, -1.378 -0.6491 0.2623, -1.378 -0.8292 0.1772, -1.378 -0.6587 0.2756, -1.378 -0.8568 0.2436, -1.378 -0.8268 0.2756, -1.378 -0.8268 0.315, -1.378 -0.5906 0.0394, -1.378 -0.5906 0.2362, -1.378 -0.6619 0.0488, -1.378 -0.6069 0.2379, -1.378 -0.6226 0.243, -1.6929 -0.8268 0.315, -1.6929 -0.8568 0.2436, -1.6929 -0.8268 0.2756, -1.6929 -0.8292 0.1772, -1.6929 -0.6587 0.2756, -1.6929 -0.7854 0.1201, -1.6929 -0.6491 0.2623, -1.6929 -0.7283 0.0763, -1.6929 -0.5906 0.2362, -1.6929 -0.5906 0.0394, -1.6929 -0.6069 0.2379, -1.6929 -0.6619 0.0488, -1.6929 -0.6226 0.243, -1.6929 -0.6368 0.2513, -1.6929 -0.3543 0.0394, -1.6929 -0.3543 0.2362, -1.378 -0.3543 0.2362, -1.378 -0.3543 0.0394, -1.6142 -0.2756 0.0394, -1.6824 -0.315 0.0394, -1.6699 -0.2987 0.0394, -1.6535 -0.2861 0.0394, -1.6902 -0.334 0.0394, -1.6346 -0.2783 0.0394, -1.3885 -0.315 0.0394, -1.4363 -0.2783 0.0394, -1.401 -0.2987 0.0394, -1.4173 -0.2861 0.0394, -1.4567 -0.2756 0.0394, -1.3806 -0.334 0.0394, -1.6535 -0.2861 0.2362, -1.6699 -0.2987 0.2362, -1.6824 -0.315 0.2362, -1.4567 -0.2756 0.2362, -1.6142 -0.2756 0.2362, -1.6902 -0.334 0.2362, -1.6346 -0.2783 0.2362, -1.3806 -0.334 0.2362, -1.3885 -0.315 0.2362, -1.4363 -0.2783 0.2362, -1.401 -0.2987 0.2362, -1.4173 -0.2861 0.2362, 1.6929 -0.5906 0.0394, 1.6929 -0.5906 0.2362, 1.6929 -0.6619 0.0488, 1.6929 -0.6069 0.2379, 1.6929 -0.7283 0.0763, 1.6929 -0.6226 0.243, 1.6929 -0.6368 0.2513, 1.6929 -0.7854 0.1201, 1.6929 -0.6491 0.2623, 1.6929 -0.8292 0.1772, 1.6929 -0.6587 0.2756, 1.6929 -0.8568 0.2436, 1.6929 -0.8268 0.2756, 1.6929 -0.8268 0.315, 1.378 -0.8268 0.315, 1.378 -0.8568 0.2436, 1.378 -0.8268 0.2756, 1.378 -0.8292 0.1772, 1.378 -0.6587 0.2756, 1.378 -0.7854 0.1201, 1.378 -0.6491 0.2623, 1.378 -0.7283 0.0763, 1.378 -0.5906 0.2362, 1.378 -0.5906 0.0394, 1.378 -0.6069 0.2379, 1.378 -0.6619 0.0488, 1.378 -0.6226 0.243, 1.378 -0.6368 0.2513, 1.6929 -0.3543 0.2362, 1.6929 -0.3543 0.0394, 1.378 -0.3543 0.0394, 1.378 -0.3543 0.2362, 1.4567 -0.2756 0.0394, 1.6142 -0.2756 0.0394, 1.401 -0.2987 0.0394, 1.4173 -0.2861 0.0394, 1.3885 -0.315 0.0394, 1.3806 -0.334 0.0394, 1.4363 -0.2783 0.0394, 1.6535 -0.2861 0.0394, 1.6699 -0.2987 0.0394, 1.6346 -0.2783 0.0394, 1.6824 -0.315 0.0394, 1.6902 -0.334 0.0394, 1.6142 -0.2756 0.2362, 1.4567 -0.2756 0.2362, 1.4363 -0.2783 0.2362, 1.4173 -0.2861 0.2362, 1.401 -0.2987 0.2362, 1.3885 -0.315 0.2362, 1.3806 -0.334 0.2362, 1.6902 -0.334 0.2362, 1.6824 -0.315 0.2362, 1.6346 -0.2783 0.2362, 1.6699 -0.2987 0.2362, 1.6535 -0.2861 0.2362, -1.6929 0.5906 0.0394, -1.6929 0.5906 0.2362, -1.6929 0.6619 0.0488, -1.6929 0.6069 0.2379, -1.6929 0.7283 0.0763, -1.6929 0.8268 0.315, -1.6929 0.8268 0.2756, -1.6929 0.8568 0.2436, -1.6929 0.6587 0.2756, -1.6929 0.8292 0.1772, -1.6929 0.6491 0.2623, -1.6929 0.7854 0.1201, -1.6929 0.6368 0.2513, -1.6929 0.6226 0.243, -1.378 0.8268 0.315, -1.378 0.8568 0.2436, -1.378 0.8268 0.2756, -1.378 0.8292 0.1772, -1.378 0.6587 0.2756, -1.378 0.7854 0.1201, -1.378 0.6491 0.2623, -1.378 0.7283 0.0763, -1.378 0.5906 0.2362, -1.378 0.5906 0.0394, -1.378 0.6069 0.2379, -1.378 0.6619 0.0488, -1.378 0.6226 0.243, -1.378 0.6368 0.2513, -1.6929 0.3543 0.2362, -1.6929 0.3543 0.0394, -1.378 0.3543 0.0394, -1.378 0.3543 0.2362, -1.4363 0.2783 0.0394, -1.4567 0.2756 0.0394, -1.3885 0.315 0.0394, -1.401 0.2987 0.0394, -1.4173 0.2861 0.0394, -1.6142 0.2756 0.0394, -1.6902 0.334 0.0394, -1.6535 0.2861 0.0394, -1.6699 0.2987 0.0394, -1.6824 0.315 0.0394, -1.3806 0.334 0.0394, -1.6346 0.2783 0.0394, -1.6902 0.334 0.2362, -1.6824 0.315 0.2362, -1.6142 0.2756 0.2362, -1.4567 0.2756 0.2362, -1.6699 0.2987 0.2362, -1.6535 0.2861 0.2362, -1.6346 0.2783 0.2362, -1.4173 0.2861 0.2362, -1.401 0.2987 0.2362, -1.3885 0.315 0.2362, -1.4363 0.2783 0.2362, -1.3806 0.334 0.2362, 1.378 0.5906 0.0394, 1.378 0.5906 0.2362, 1.378 0.6619 0.0488, 1.378 0.6069 0.2379, 1.378 0.7283 0.0763, 1.378 0.6226 0.243, 1.378 0.6368 0.2513, 1.378 0.7854 0.1201, 1.378 0.6491 0.2623, 1.378 0.8292 0.1772, 1.378 0.6587 0.2756, 1.378 0.8568 0.2436, 1.378 0.8268 0.2756, 1.378 0.8268 0.315, 1.6929 0.5906 0.2362, 1.6929 0.5906 0.0394, 1.6929 0.6069 0.2379, 1.6929 0.6619 0.0488, 1.6929 0.6226 0.243, 1.6929 0.7283 0.0763, 1.6929 0.8268 0.315, 1.6929 0.8568 0.2436, 1.6929 0.8268 0.2756, 1.6929 0.8292 0.1772, 1.6929 0.6587 0.2756, 1.6929 0.7854 0.1201, 1.6929 0.6491 0.2623, 1.6929 0.6368 0.2513, 1.6929 0.3543 0.0394, 1.6929 0.3543 0.2362, 1.378 0.3543 0.2362, 1.378 0.3543 0.0394, 1.6142 0.2756 0.0394, 1.4567 0.2756 0.0394, 1.3806 0.334 0.0394, 1.4173 0.2861 0.0394, 1.401 0.2987 0.0394, 1.3885 0.315 0.0394, 1.6902 0.334 0.0394, 1.6824 0.315 0.0394, 1.6346 0.2783 0.0394, 1.6699 0.2987 0.0394, 1.6535 0.2861 0.0394, 1.4363 0.2783 0.0394, 1.3806 0.334 0.2362, 1.3885 0.315 0.2362, 1.4567 0.2756 0.2362, 1.6142 0.2756 0.2362, 1.401 0.2987 0.2362, 1.4173 0.2861 0.2362, 1.4363 0.2783 0.2362, 1.6535 0.2861 0.2362, 1.6699 0.2987 0.2362, 1.6346 0.2783 0.2362, 1.6824 0.315 0.2362, 1.6902 0.334 0.2362, -2.2645 -0.5906 1.6115, -2.3154 -0.5906 1.8016, -2.2835 -0.5906 1.6036, -2.3819 -0.5906 1.7741, -2.2998 -0.5906 1.5911, -2.439 -0.5906 1.7303, -2.3123 -0.5906 1.5748, -2.4828 -0.5906 1.6732, -2.3202 -0.5906 1.5558, -2.5103 -0.5906 1.6068, -2.3228 -0.5906 1.5354, -2.5197 -0.5906 1.5354, -2.3228 0.5906 1.5354, -2.5197 0.5906 1.5354, -2.3202 0.5906 1.5558, -2.5103 0.5906 1.6068, -2.3123 0.5906 1.5748, -2.4828 0.5906 1.6732, -2.2998 0.5906 1.5911, -2.439 0.5906 1.7303, -2.2835 0.5906 1.6036, -2.3819 0.5906 1.7741, -2.2645 0.5906 1.6115, -2.3154 0.5906 1.8016, -2.3228 0.5906 -0.0394, -2.5197 0.5906 -0.0394, -2.5197 -0.5906 -0.0394, -2.3228 -0.5906 -0.0394, -2.5197 -0.1969 -0.0394, -2.5197 0.1969 -0.0394, -2.5197 0.0787 -0.8268, -2.5197 -0.0787 -0.8268, -2.5197 0.1969 -0.5118, -2.5197 -0.1969 -0.5118, -2.3228 0.1969 -0.0394, -2.3228 -0.1969 -0.0394, -2.3228 -0.0787 -0.8268, -2.3228 0.0787 -0.8268, -2.3228 -0.1969 -0.5118, -2.3228 0.1969 -0.5118, 2.2645 0.5906 1.6115, 2.3154 0.5906 1.8016, 2.2835 0.5906 1.6036, 2.3819 0.5906 1.7741, 2.2998 0.5906 1.5911, 2.439 0.5906 1.7303, 2.3123 0.5906 1.5748, 2.4828 0.5906 1.6732, 2.3202 0.5906 1.5558, 2.5103 0.5906 1.6068, 2.3228 0.5906 1.5354, 2.5197 0.5906 1.5354, 2.3228 -0.5906 1.5354, 2.5197 -0.5906 1.5354, 2.3202 -0.5906 1.5558, 2.5103 -0.5906 1.6068, 2.3123 -0.5906 1.5748, 2.4828 -0.5906 1.6732, 2.2998 -0.5906 1.5911, 2.439 -0.5906 1.7303, 2.2835 -0.5906 1.6036, 2.3819 -0.5906 1.7741, 2.2645 -0.5906 1.6115, 2.3154 -0.5906 1.8016, 2.3228 -0.5906 -0.0394, 2.5197 -0.5906 -0.0394, 2.5197 0.5906 -0.0394, 2.3228 0.5906 -0.0394, 2.5197 0.1969 -0.0394, 2.5197 -0.1969 -0.0394, 2.5197 -0.0787 -0.8268, 2.5197 0.0787 -0.8268, 2.5197 -0.1969 -0.5118, 2.5197 0.1969 -0.5118, 2.3228 -0.1969 -0.0394, 2.3228 0.1969 -0.0394, 2.3228 0.0787 -0.8268, 2.3228 -0.0787 -0.8268, 2.3228 0.1969 -0.5118, 2.3228 -0.1969 -0.5118, 1.1811 0.4331 1.6142, 1.1811 -0.4331 1.6142, -1.1811 -0.4331 1.6142, -1.1811 0.4331 1.6142
            ]
        }
        coordIndex [
            0,1,2,-1,2,1,3,-1,4,5,6,-1,6,5,7,-1,8,9,10,-1,10,9,11,-1,1,0,12,-1,12,0,13,-1,12,13,14,-1,14,13,15,-1,14,15,16,-1,16,15,17,-1,16,17,18,-1,18,17,19,-1,18,19,20,-1,20,19,21,-1,20,21,9,-1,9,21,11,-1,6,7,22,-1,22,7,23,-1,22,23,24,-1,24,23,25,-1,24,25,26,-1,26,25,27,-1,26,27,28,-1,28,27,29,-1,28,29,30,-1,30,29,31,-1,30,31,10,-1,10,31,8,-1,32,33,34,-1,35,36,34,-1,34,36,37,-1,38,39,40,-1,37,41,42,-1,43,38,42,-1,42,38,40,-1,42,40,37,-1,37,40,44,-1,37,44,34,-1,34,44,45,-1,34,45,32,-1,46,47,48,-1,48,47,49,-1,50,51,52,-1,53,54,50,-1,52,55,56,-1,56,55,57,-1,58,59,60,-1,61,58,56,-1,56,58,60,-1,56,60,52,-1,52,60,62,-1,52,62,50,-1,50,62,63,-1,50,63,53,-1,64,65,66,-1,66,65,67,-1,68,69,70,-1,70,69,71,-1,71,69,72,-1,71,72,73,-1,70,74,68,-1,68,74,75,-1,68,75,76,-1,76,75,77,-1,76,77,78,-1,78,77,79,-1,78,79,80,-1,80,79,81,-1,80,81,82,-1,82,81,83,-1,83,81,37,-1,83,37,84,-1,84,37,36,-1,84,36,85,-1,36,86,85,-1,85,86,87,-1,85,87,88,-1,88,87,89,-1,88,89,90,-1,90,89,91,-1,90,91,92,-1,92,91,73,-1,92,73,93,-1,93,73,72,-1,94,95,96,-1,94,96,97,-1,97,96,98,-1,97,98,99,-1,99,98,100,-1,99,100,101,-1,101,100,102,-1,101,102,103,-1,103,102,104,-1,103,104,105,-1,105,104,55,-1,105,55,52,-1,106,57,55,-1,5,106,7,-1,7,106,55,-1,7,55,23,-1,23,55,104,-1,23,104,25,-1,25,104,102,-1,25,102,27,-1,27,102,100,-1,27,100,29,-1,29,100,98,-1,29,98,31,-1,31,98,96,-1,31,96,8,-1,8,96,95,-1,107,95,108,-1,108,95,94,-1,108,94,109,-1,109,94,70,-1,109,70,110,-1,110,70,71,-1,110,71,107,-1,107,71,95,-1,111,112,113,-1,113,112,114,-1,115,3,1,-1,9,71,20,-1,20,71,73,-1,20,73,18,-1,18,73,91,-1,18,91,16,-1,16,91,89,-1,16,89,14,-1,14,89,87,-1,14,87,12,-1,12,87,86,-1,12,86,1,-1,1,86,36,-1,1,36,115,-1,115,36,35,-1,116,41,37,-1,46,116,47,-1,47,116,37,-1,47,37,117,-1,117,37,81,-1,117,81,118,-1,118,81,79,-1,118,79,119,-1,119,79,77,-1,119,77,120,-1,120,77,75,-1,120,75,121,-1,121,75,74,-1,121,74,112,-1,112,74,70,-1,49,47,122,-1,122,47,117,-1,122,117,123,-1,123,117,118,-1,123,118,124,-1,124,118,119,-1,124,119,125,-1,125,119,120,-1,125,120,126,-1,126,120,121,-1,126,121,111,-1,111,121,112,-1,127,65,64,-1,114,94,128,-1,128,94,97,-1,128,97,129,-1,129,97,99,-1,129,99,130,-1,130,99,101,-1,130,101,131,-1,131,101,103,-1,131,103,132,-1,132,103,105,-1,132,105,64,-1,64,105,52,-1,64,52,127,-1,127,52,51,-1,64,66,132,-1,132,66,133,-1,132,133,131,-1,131,133,134,-1,131,134,130,-1,130,134,135,-1,130,135,129,-1,129,135,136,-1,129,136,128,-1,128,136,137,-1,128,137,114,-1,114,137,113,-1,138,139,140,-1,140,139,141,-1,140,141,142,-1,142,141,143,-1,142,143,144,-1,144,143,145,-1,144,145,39,-1,39,145,146,-1,147,148,149,-1,149,148,150,-1,149,150,138,-1,138,150,151,-1,138,151,139,-1,38,152,153,-1,153,152,154,-1,153,154,155,-1,155,154,156,-1,155,156,157,-1,157,156,158,-1,157,158,159,-1,160,161,162,-1,162,161,163,-1,162,163,164,-1,164,163,159,-1,164,159,165,-1,165,159,158,-1,39,38,153,-1,39,153,144,-1,144,153,155,-1,144,155,142,-1,142,155,157,-1,142,157,140,-1,140,157,159,-1,140,159,138,-1,138,159,163,-1,138,163,149,-1,149,163,161,-1,149,161,147,-1,148,160,150,-1,150,160,162,-1,150,162,151,-1,151,162,164,-1,151,164,139,-1,139,164,165,-1,139,165,141,-1,141,165,158,-1,141,158,143,-1,143,158,156,-1,166,161,167,-1,167,161,160,-1,168,148,169,-1,169,148,147,-1,147,161,169,-1,169,161,166,-1,169,166,170,-1,171,172,173,-1,166,174,170,-1,170,174,171,-1,170,171,175,-1,175,171,173,-1,176,177,178,-1,178,177,179,-1,170,180,169,-1,169,180,177,-1,169,177,181,-1,181,177,176,-1,160,148,167,-1,167,148,168,-1,182,183,184,-1,168,185,167,-1,167,185,186,-1,167,186,187,-1,187,186,184,-1,184,186,188,-1,184,188,182,-1,168,189,185,-1,185,189,190,-1,185,190,191,-1,191,190,192,-1,191,192,193,-1,186,185,170,-1,170,185,180,-1,166,167,187,-1,166,187,174,-1,174,187,184,-1,174,184,171,-1,171,184,183,-1,171,183,172,-1,172,183,182,-1,172,182,173,-1,173,182,188,-1,173,188,175,-1,175,188,186,-1,175,186,170,-1,180,185,191,-1,180,191,177,-1,177,191,193,-1,177,193,179,-1,179,193,192,-1,179,192,178,-1,178,192,190,-1,178,190,176,-1,176,190,189,-1,176,189,181,-1,181,189,168,-1,181,168,169,-1,194,195,196,-1,196,195,197,-1,196,197,198,-1,197,199,198,-1,198,199,200,-1,198,200,201,-1,201,200,202,-1,201,202,203,-1,203,202,204,-1,203,204,205,-1,205,204,206,-1,205,206,32,-1,32,206,207,-1,45,208,209,-1,209,208,210,-1,209,210,211,-1,211,210,212,-1,211,212,213,-1,213,212,214,-1,213,214,215,-1,216,217,218,-1,218,217,219,-1,218,219,220,-1,220,219,215,-1,220,215,221,-1,221,215,214,-1,32,45,209,-1,32,209,205,-1,205,209,211,-1,205,211,203,-1,203,211,213,-1,203,213,201,-1,201,213,215,-1,201,215,198,-1,198,215,219,-1,198,219,196,-1,196,219,217,-1,196,217,194,-1,195,216,197,-1,197,216,218,-1,197,218,199,-1,199,218,220,-1,199,220,200,-1,200,220,221,-1,200,221,202,-1,202,221,214,-1,202,214,204,-1,204,214,212,-1,222,195,223,-1,223,195,194,-1,224,217,225,-1,225,217,216,-1,226,227,223,-1,228,229,230,-1,230,229,231,-1,194,217,223,-1,223,217,224,-1,223,224,226,-1,226,224,231,-1,226,231,232,-1,232,231,229,-1,233,234,235,-1,235,234,236,-1,235,236,227,-1,227,236,237,-1,227,237,223,-1,216,195,225,-1,225,195,222,-1,225,222,238,-1,238,239,225,-1,225,239,240,-1,225,240,241,-1,242,243,241,-1,241,243,244,-1,241,244,225,-1,222,245,238,-1,238,245,246,-1,238,246,247,-1,247,246,248,-1,247,248,249,-1,227,226,238,-1,238,226,239,-1,227,238,247,-1,227,247,235,-1,235,247,249,-1,235,249,233,-1,233,249,248,-1,233,248,234,-1,234,248,246,-1,234,246,236,-1,236,246,245,-1,236,245,237,-1,237,245,222,-1,237,222,223,-1,224,225,244,-1,224,244,231,-1,231,244,243,-1,231,243,230,-1,230,243,242,-1,230,242,228,-1,228,242,241,-1,228,241,229,-1,229,241,240,-1,229,240,232,-1,232,240,239,-1,232,239,226,-1,250,251,252,-1,252,251,253,-1,252,253,254,-1,255,53,256,-1,256,53,257,-1,256,257,258,-1,258,257,259,-1,258,259,260,-1,260,259,261,-1,260,261,262,-1,262,261,254,-1,262,254,263,-1,263,254,253,-1,63,264,265,-1,265,264,266,-1,265,266,267,-1,267,266,268,-1,267,268,269,-1,269,268,270,-1,269,270,271,-1,272,273,274,-1,274,273,275,-1,274,275,276,-1,276,275,271,-1,276,271,277,-1,277,271,270,-1,53,63,265,-1,53,265,257,-1,257,265,267,-1,257,267,259,-1,259,267,269,-1,259,269,261,-1,261,269,271,-1,261,271,254,-1,254,271,275,-1,254,275,252,-1,252,275,273,-1,252,273,250,-1,251,272,253,-1,253,272,274,-1,253,274,263,-1,263,274,276,-1,263,276,262,-1,262,276,277,-1,262,277,260,-1,260,277,270,-1,260,270,258,-1,258,270,268,-1,278,251,279,-1,279,251,250,-1,280,273,281,-1,281,273,272,-1,282,283,280,-1,250,273,279,-1,279,273,280,-1,284,285,286,-1,280,283,279,-1,279,283,287,-1,279,287,288,-1,289,290,291,-1,282,280,286,-1,286,280,292,-1,286,292,284,-1,288,287,291,-1,291,287,293,-1,291,293,289,-1,272,251,281,-1,281,251,278,-1,294,295,296,-1,297,281,296,-1,296,281,278,-1,296,278,294,-1,298,299,295,-1,295,299,300,-1,295,300,296,-1,301,302,303,-1,297,304,281,-1,281,304,301,-1,281,301,305,-1,305,301,303,-1,287,283,296,-1,296,283,297,-1,287,296,300,-1,287,300,293,-1,293,300,299,-1,293,299,289,-1,289,299,298,-1,289,298,290,-1,290,298,295,-1,290,295,291,-1,291,295,294,-1,291,294,288,-1,288,294,278,-1,288,278,279,-1,280,281,305,-1,280,305,292,-1,292,305,303,-1,292,303,284,-1,284,303,302,-1,284,302,285,-1,285,302,301,-1,285,301,286,-1,286,301,304,-1,286,304,282,-1,282,304,297,-1,282,297,283,-1,306,307,308,-1,308,307,309,-1,308,309,310,-1,309,311,310,-1,310,311,312,-1,310,312,313,-1,313,312,314,-1,313,314,315,-1,315,314,316,-1,315,316,317,-1,317,316,318,-1,317,318,59,-1,59,318,319,-1,320,321,322,-1,322,321,323,-1,322,323,324,-1,324,323,325,-1,58,326,327,-1,327,326,328,-1,327,328,329,-1,329,328,330,-1,329,330,331,-1,331,330,332,-1,331,332,325,-1,325,332,333,-1,325,333,324,-1,59,58,327,-1,59,327,317,-1,317,327,329,-1,317,329,315,-1,315,329,331,-1,315,331,313,-1,313,331,325,-1,313,325,310,-1,310,325,323,-1,310,323,308,-1,308,323,321,-1,308,321,306,-1,307,320,309,-1,309,320,322,-1,309,322,311,-1,311,322,324,-1,311,324,312,-1,312,324,333,-1,312,333,314,-1,314,333,332,-1,314,332,316,-1,316,332,330,-1,334,321,335,-1,335,321,320,-1,336,307,337,-1,337,307,306,-1,306,321,337,-1,337,321,334,-1,334,338,337,-1,337,338,339,-1,337,339,340,-1,341,342,343,-1,334,344,338,-1,338,344,345,-1,338,345,346,-1,346,345,347,-1,346,347,348,-1,340,339,343,-1,343,339,349,-1,343,349,341,-1,320,307,335,-1,335,307,336,-1,350,351,352,-1,353,335,352,-1,352,335,336,-1,352,336,350,-1,354,355,351,-1,351,355,356,-1,351,356,352,-1,357,358,359,-1,359,358,360,-1,359,360,353,-1,353,360,361,-1,353,361,335,-1,353,352,338,-1,338,352,339,-1,334,335,361,-1,334,361,344,-1,344,361,360,-1,344,360,345,-1,345,360,358,-1,345,358,347,-1,347,358,357,-1,347,357,348,-1,348,357,359,-1,348,359,346,-1,346,359,353,-1,346,353,338,-1,339,352,356,-1,339,356,349,-1,349,356,355,-1,349,355,341,-1,341,355,354,-1,341,354,342,-1,342,354,351,-1,342,351,343,-1,343,351,350,-1,343,350,340,-1,340,350,336,-1,340,336,337,-1,112,70,362,-1,362,70,363,-1,362,363,364,-1,364,363,365,-1,364,365,366,-1,366,365,367,-1,366,367,368,-1,368,367,369,-1,368,369,370,-1,370,369,371,-1,370,371,372,-1,372,371,373,-1,374,375,376,-1,376,375,377,-1,376,377,378,-1,378,377,379,-1,378,379,380,-1,380,379,381,-1,380,381,382,-1,382,381,383,-1,382,383,384,-1,384,383,385,-1,384,385,114,-1,114,385,94,-1,70,94,385,-1,70,385,363,-1,363,385,383,-1,363,383,365,-1,365,383,381,-1,365,381,367,-1,367,381,379,-1,367,379,369,-1,369,379,377,-1,369,377,371,-1,371,377,375,-1,371,375,373,-1,372,374,370,-1,370,374,376,-1,370,376,368,-1,368,376,378,-1,368,378,366,-1,366,378,380,-1,366,380,364,-1,364,380,382,-1,364,382,362,-1,362,382,384,-1,362,384,112,-1,112,384,114,-1,386,387,374,-1,374,387,375,-1,388,389,373,-1,373,389,372,-1,390,388,373,-1,375,387,391,-1,392,393,394,-1,394,393,395,-1,394,395,391,-1,391,395,390,-1,391,390,375,-1,375,390,373,-1,396,386,374,-1,372,389,397,-1,398,399,400,-1,400,399,401,-1,400,401,397,-1,397,401,396,-1,397,396,372,-1,372,396,374,-1,8,95,402,-1,402,95,403,-1,402,403,404,-1,404,403,405,-1,404,405,406,-1,406,405,407,-1,406,407,408,-1,408,407,409,-1,408,409,410,-1,410,409,411,-1,410,411,412,-1,412,411,413,-1,414,415,416,-1,416,415,417,-1,416,417,418,-1,418,417,419,-1,418,419,420,-1,420,419,421,-1,420,421,422,-1,422,421,423,-1,422,423,424,-1,424,423,425,-1,424,425,9,-1,9,425,71,-1,95,71,425,-1,95,425,403,-1,403,425,423,-1,403,423,405,-1,405,423,421,-1,405,421,407,-1,407,421,419,-1,407,419,409,-1,409,419,417,-1,409,417,411,-1,411,417,415,-1,411,415,413,-1,412,414,410,-1,410,414,416,-1,410,416,408,-1,408,416,418,-1,408,418,406,-1,406,418,420,-1,406,420,404,-1,404,420,422,-1,404,422,402,-1,402,422,424,-1,402,424,8,-1,8,424,9,-1,426,427,414,-1,414,427,415,-1,428,429,413,-1,413,429,412,-1,430,428,413,-1,415,427,431,-1,432,433,434,-1,434,433,435,-1,434,435,431,-1,431,435,430,-1,431,430,415,-1,415,430,413,-1,436,426,414,-1,412,429,437,-1,438,439,440,-1,440,439,441,-1,440,441,437,-1,437,441,436,-1,437,436,412,-1,412,436,414,-1,437,429,430,-1,430,429,428,-1,442,443,107,-1,107,443,110,-1,443,444,110,-1,110,444,109,-1,444,445,109,-1,109,445,108,-1,445,442,108,-1,108,442,107,-1,
        ]
    }
}
Shape{
    appearance Appearance {
        material  Material 	{
            diffuseColor 0.10980392156862745 0.10980392156862745 0.10980392156862745
            specularColor 0.0784313725490196 0.0784313725490196 0.0784313725490196
            ambientIntensity 0.1098
            transparency 0.0
            shininess 0.5
        }
    }
    geometry IndexedFaceSet {
        ccw TRUE
        solid FALSE
        coord DEF co Coordinate {
            point [
                -2.1654 -0.6109 1.6115, -2.1654 -0.5906 1.6142, -2.1654 -0.6693 1.5354, -2.1654 -0.6693 0.5118, -2.1654 -0.6587 1.5748, -2.1654 -0.6462 1.5911, -2.1654 -0.6299 1.6036, -2.1654 0.6693 0.5118, -2.1654 0.5906 1.6142, -2.1654 0.6693 1.5354, -2.1654 -0.6666 1.5558, -2.1654 0.6299 1.6036, -2.1654 0.6462 1.5911, -2.1654 0.6587 1.5748, -2.1654 0.6109 1.6115, -2.1654 0.6666 1.5558, 2.1654 0.6109 1.6115, 2.1654 0.5906 1.6142, 2.1654 0.6693 1.5354, 2.1654 0.6693 0.5118, 2.1654 0.6587 1.5748, 2.1654 0.6462 1.5911, 2.1654 0.6299 1.6036, 2.1654 -0.6693 0.5118, 2.1654 -0.5906 1.6142, 2.1654 -0.6693 1.5354, 2.1654 0.6666 1.5558, 2.1654 -0.6299 1.6036, 2.1654 -0.6462 1.5911, 2.1654 -0.6587 1.5748, 2.1654 -0.6109 1.6115, 2.1654 -0.6666 1.5558, -0.3543 0.3937 3.3858, -0.3543 -0.3937 3.3858, -0.3543 0.3937 1.6142, -0.3543 -0.3937 1.6142, -0.748 0.3937 3.1102, -0.5324 0.3937 3.3858, -1.1417 0.3937 3.3858, -0.9637 0.3937 3.3858, -1.1417 0.3937 1.6142, -1.1417 -0.3937 3.3858, -1.1417 -0.3937 1.6142, -0.748 -0.3937 3.1102, -0.9637 -0.3937 3.3858, -0.5324 -0.3937 3.3858
            ]
        }
        coordIndex [
            0,1,2,-1,2,1,3,-1,4,5,6,-1,3,1,7,-1,7,1,8,-1,7,8,9,-1,0,2,6,-1,6,2,10,-1,6,10,4,-1,11,12,13,-1,8,14,9,-1,9,14,11,-1,9,11,15,-1,15,11,13,-1,16,17,18,-1,18,17,19,-1,20,21,22,-1,19,17,23,-1,23,17,24,-1,23,24,25,-1,16,18,22,-1,22,18,26,-1,22,26,20,-1,27,28,29,-1,24,30,25,-1,25,30,27,-1,25,27,31,-1,31,27,29,-1,32,33,34,-1,34,33,35,-1,36,37,32,-1,38,39,40,-1,40,39,36,-1,40,36,34,-1,34,36,32,-1,41,38,42,-1,42,38,40,-1,43,44,41,-1,33,45,35,-1,35,45,43,-1,35,43,42,-1,42,43,41,-1,38,41,39,-1,39,41,44,-1,37,36,45,-1,45,36,43,-1,36,39,43,-1,43,39,44,-1,
        ]
    }
}
Shape{
    appearance Appearance {
        material  Material 	{
            diffuseColor 0.9686274509803922 0.8784313725490196 0.6
            specularColor 0.6784313725490196 0.615686274509804 0.4196078431372549
            ambientIntensity 0.8737
            transparency 0.0
            shininess 0.5
        }
    }
    geometry IndexedFaceSet {
        ccw TRUE
        solid FALSE
        coord DEF co Coordinate {
            point [
                0.1969 -0.0591 0.0197, 0.0984 -0.0591 -0.0787, 0.1969 0.0591 0.0197, 0.0984 0.0591 -0.0787, 0.0984 -0.0591 -1.1614, 0.0984 0.0591 -1.1614, 0.0951 -0.0591 -1.1869, 0.0951 0.0591 -1.1869, 0.0852 -0.0591 -1.2106, 0.0852 0.0591 -1.2106, 0.0696 -0.0591 -1.231, 0.0696 0.0591 -1.231, 0.0492 -0.0591 -1.2467, 0.0492 0.0591 -1.2467, 0.0255 -0.0591 -1.2565, 0.0255 0.0591 -1.2565, 0.0 -0.0591 -1.2598, 0.0 0.0591 -1.2598, -0.0255 -0.0591 -1.2565, -0.0255 0.0591 -1.2565, -0.0492 -0.0591 -1.2467, -0.0492 0.0591 -1.2467, -0.0696 -0.0591 -1.231, -0.0696 0.0591 -1.231, -0.0852 -0.0591 -1.2106, -0.0852 0.0591 -1.2106, -0.0951 -0.0591 -1.1869, -0.0951 0.0591 -1.1869, -0.0984 -0.0591 -1.1614, -0.0984 0.0591 -1.1614, -0.0984 -0.0591 -0.0787, -0.0984 0.0591 -0.0787, -0.1969 -0.0591 0.0197, -0.1969 0.0591 0.0197, 0.5906 -0.0591 0.0197, 0.5906 -0.0591 0.2756, 0.5906 0.0591 0.0197, 0.5906 0.0591 0.2756, 0.8366 0.0591 -1.2467, 0.8129 0.0591 -1.2565, 0.689 0.0591 -1.1614, 0.9843 0.0591 0.2756, 0.9843 0.0591 0.0197, 0.689 0.0591 -0.0787, 0.8858 0.0591 -0.0787, 0.8858 0.0591 -1.1614, 0.8825 0.0591 -1.1869, 0.8726 0.0591 -1.2106, 0.857 0.0591 -1.231, 0.7022 0.0591 -1.2106, 0.7619 0.0591 -1.2565, 0.7178 0.0591 -1.231, 0.7382 0.0591 -1.2467, 0.7874 0.0591 -1.2598, 0.6923 0.0591 -1.1869, 0.9843 -0.0591 0.2756, 0.9843 -0.0591 0.0197, 0.689 -0.0591 -0.0787, 0.689 -0.0591 -1.1614, 0.8858 -0.0591 -1.1614, 0.8858 -0.0591 -0.0787, 0.857 -0.0591 -1.231, 0.8366 -0.0591 -1.2467, 0.8129 -0.0591 -1.2565, 0.6923 -0.0591 -1.1869, 0.7619 -0.0591 -1.2565, 0.7874 -0.0591 -1.2598, 0.7022 -0.0591 -1.2106, 0.7178 -0.0591 -1.231, 0.7382 -0.0591 -1.2467, 0.8726 -0.0591 -1.2106, 0.8825 -0.0591 -1.1869, -1.7717 -0.0591 0.0197, -1.7717 -0.0591 0.2756, -1.7717 0.0591 0.0197, -1.7717 0.0591 0.2756, -1.378 -0.0591 0.0197, -1.4764 -0.0591 -0.0787, -1.378 0.0591 0.0197, -1.4764 0.0591 -0.0787, -1.4764 -0.0591 -1.1614, -1.4764 0.0591 -1.1614, -1.4797 -0.0591 -1.1869, -1.4797 0.0591 -1.1869, -1.4896 -0.0591 -1.2106, -1.4896 0.0591 -1.2106, -1.5052 -0.0591 -1.231, -1.5052 0.0591 -1.231, -1.5256 -0.0591 -1.2467, -1.5256 0.0591 -1.2467, -1.5493 -0.0591 -1.2565, -1.5493 0.0591 -1.2565, -1.5748 -0.0591 -1.2598, -1.5748 0.0591 -1.2598, -1.6003 -0.0591 -1.2565, -1.6003 0.0591 -1.2565, -1.624 -0.0591 -1.2467, -1.624 0.0591 -1.2467, -1.6444 -0.0591 -1.231, -1.6444 0.0591 -1.231, -1.66 -0.0591 -1.2106, -1.66 0.0591 -1.2106, -1.6699 -0.0591 -1.1869, -1.6699 0.0591 -1.1869, -1.6732 -0.0591 -1.1614, -1.6732 0.0591 -1.1614, -1.6732 -0.0591 -0.0787, -1.6732 0.0591 -0.0787
            ]
        }
        coordIndex [
            0,1,2,-1,2,1,3,-1,4,5,1,-1,1,5,3,-1,5,4,6,-1,5,6,7,-1,7,6,8,-1,7,8,9,-1,9,8,10,-1,9,10,11,-1,11,10,12,-1,11,12,13,-1,13,12,14,-1,13,14,15,-1,15,14,16,-1,15,16,17,-1,17,16,18,-1,17,18,19,-1,19,18,20,-1,19,20,21,-1,21,20,22,-1,21,22,23,-1,23,22,24,-1,23,24,25,-1,25,24,26,-1,25,26,27,-1,27,26,28,-1,27,28,29,-1,28,30,29,-1,29,30,31,-1,32,33,30,-1,30,33,31,-1,34,35,36,-1,36,35,37,-1,38,39,40,-1,37,41,36,-1,36,41,42,-1,36,42,43,-1,43,42,44,-1,43,44,40,-1,40,44,45,-1,40,45,46,-1,46,47,40,-1,40,47,48,-1,40,48,38,-1,49,50,51,-1,51,50,52,-1,39,53,40,-1,40,53,50,-1,40,50,54,-1,54,50,49,-1,41,55,42,-1,42,55,56,-1,57,56,34,-1,34,56,55,-1,34,55,35,-1,58,59,57,-1,57,59,60,-1,57,60,56,-1,61,58,62,-1,62,58,63,-1,64,65,58,-1,58,65,66,-1,58,66,63,-1,64,67,65,-1,65,67,68,-1,65,68,69,-1,61,70,58,-1,58,70,71,-1,58,71,59,-1,56,60,42,-1,42,60,44,-1,59,45,60,-1,60,45,44,-1,45,59,71,-1,45,71,46,-1,46,71,70,-1,46,70,47,-1,47,70,61,-1,47,61,48,-1,48,61,62,-1,48,62,38,-1,38,62,63,-1,38,63,39,-1,39,63,66,-1,39,66,53,-1,53,66,65,-1,53,65,50,-1,50,65,69,-1,50,69,52,-1,52,69,68,-1,52,68,51,-1,51,68,67,-1,51,67,49,-1,49,67,64,-1,49,64,54,-1,54,64,58,-1,54,58,40,-1,58,57,40,-1,40,57,43,-1,34,36,57,-1,57,36,43,-1,72,73,74,-1,74,73,75,-1,76,77,78,-1,78,77,79,-1,80,81,77,-1,77,81,79,-1,81,80,82,-1,81,82,83,-1,83,82,84,-1,83,84,85,-1,85,84,86,-1,85,86,87,-1,87,86,88,-1,87,88,89,-1,89,88,90,-1,89,90,91,-1,91,90,92,-1,91,92,93,-1,93,92,94,-1,93,94,95,-1,95,94,96,-1,95,96,97,-1,97,96,98,-1,97,98,99,-1,99,98,100,-1,99,100,101,-1,101,100,102,-1,101,102,103,-1,103,102,104,-1,103,104,105,-1,104,106,105,-1,105,106,107,-1,72,74,106,-1,106,74,107,-1,
        ]
    }
}
Shape{
    appearance Appearance {
        material  Material 	{
            diffuseColor 1.0 1.0 1.0
            specularColor 0.8784313725490196 0.8784313725490196 0.8784313725490196
            ambientIntensity 1.0
            transparency 0.0
            shininess 0.5
        }
    }
    geometry IndexedFaceSet {
        ccw TRUE
        solid FALSE
        coord DEF co Coordinate {
            point [
                0.1847 -0.2155 0.2795, 0.1847 -0.2155 0.2756, 0.1927 -0.1934 0.2795, 0.1927 -0.1934 0.2756, 0.1522 -0.2155 0.2795, 0.1522 -0.2155 0.2756, 0.1446 -0.1934 0.2795, 0.1446 -0.1934 0.2756, 0.1331 -0.1934 0.2795, 0.1331 -0.1934 0.2756, 0.1629 -0.2722 0.2795, 0.1629 -0.2722 0.2756, 0.1734 -0.2722 0.2795, 0.1734 -0.2722 0.2756, 0.2042 -0.1934 0.2795, 0.2042 -0.1934 0.2756, 0.1548 -0.2242 0.2795, 0.1811 -0.2242 0.2795, 0.1666 -0.257 0.2795, 0.1673 -0.2598 0.2795, 0.1678 -0.2626 0.2795, 0.1681 -0.2626 0.2795, 0.1686 -0.2598 0.2795, 0.1693 -0.257 0.2795, 0.1681 -0.2626 0.2756, 0.1686 -0.2598 0.2756, 0.1693 -0.257 0.2756, 0.1678 -0.2626 0.2756, 0.1666 -0.257 0.2756, 0.1673 -0.2598 0.2756, 0.1548 -0.2242 0.2756, 0.1811 -0.2242 0.2756, 0.0862 -0.2722 0.2795, 0.0862 -0.2722 0.2756, 0.064 -0.2722 0.2795, 0.064 -0.2722 0.2756, 0.1274 -0.2338 0.2795, 0.1274 -0.2338 0.2756, 0.1272 -0.2377 0.2756, 0.1272 -0.2377 0.2795, 0.1257 -0.246 0.2756, 0.1257 -0.246 0.2795, 0.1224 -0.2536 0.2756, 0.1224 -0.2536 0.2795, 0.1177 -0.2598 0.2756, 0.1177 -0.2598 0.2795, 0.1146 -0.2626 0.2756, 0.1146 -0.2626 0.2795, 0.1068 -0.2677 0.2756, 0.1068 -0.2677 0.2795, 0.0976 -0.271 0.2756, 0.0976 -0.271 0.2795, 0.0854 -0.1934 0.2795, 0.0854 -0.1934 0.2756, 0.0954 -0.1943 0.2756, 0.0954 -0.1943 0.2795, 0.1044 -0.1971 0.2756, 0.1044 -0.1971 0.2795, 0.1126 -0.2019 0.2756, 0.1126 -0.2019 0.2795, 0.119 -0.2081 0.2756, 0.119 -0.2081 0.2795, 0.1234 -0.215 0.2756, 0.1234 -0.215 0.2795, 0.1263 -0.2233 0.2756, 0.1263 -0.2233 0.2795, 0.064 -0.1934 0.2795, 0.064 -0.1934 0.2756, 0.1168 -0.2336 0.2795, 0.1161 -0.2414 0.2795, 0.1143 -0.2476 0.2795, 0.1116 -0.2525 0.2795, 0.1078 -0.2565 0.2795, 0.102 -0.2602 0.2795, 0.0955 -0.2625 0.2795, 0.0862 -0.2635 0.2795, 0.0745 -0.2635 0.2795, 0.0745 -0.2021 0.2795, 0.0857 -0.2021 0.2795, 0.094 -0.2028 0.2795, 0.1007 -0.2049 0.2795, 0.106 -0.2081 0.2795, 0.1104 -0.2125 0.2795, 0.1137 -0.2178 0.2795, 0.1158 -0.2241 0.2795, 0.0857 -0.2021 0.2756, 0.0745 -0.2021 0.2756, 0.1168 -0.2336 0.2756, 0.1158 -0.2241 0.2756, 0.1137 -0.2178 0.2756, 0.1104 -0.2125 0.2756, 0.106 -0.2081 0.2756, 0.1007 -0.2049 0.2756, 0.094 -0.2028 0.2756, 0.0862 -0.2635 0.2756, 0.0955 -0.2625 0.2756, 0.102 -0.2602 0.2756, 0.1078 -0.2565 0.2756, 0.1116 -0.2525 0.2756, 0.1143 -0.2476 0.2756, 0.1161 -0.2414 0.2756, 0.0745 -0.2635 0.2756, 0.0064 -0.2722 0.2795, 0.0064 -0.2722 0.2756, 0.0064 -0.1934 0.2795, 0.0064 -0.1934 0.2756, 0.0467 -0.2722 0.2795, 0.0467 -0.2722 0.2756, 0.0467 -0.2635 0.2795, 0.0467 -0.2635 0.2756, 0.0169 -0.2635 0.2795, 0.0169 -0.2635 0.2756, 0.0169 -0.2376 0.2795, 0.0169 -0.2376 0.2756, 0.0448 -0.2376 0.2795, 0.0448 -0.2376 0.2756, 0.0448 -0.229 0.2795, 0.0448 -0.229 0.2756, 0.0169 -0.229 0.2795, 0.0169 -0.229 0.2756, 0.0169 -0.2021 0.2795, 0.0169 -0.2021 0.2756, 0.0486 -0.2021 0.2795, 0.0486 -0.2021 0.2756, 0.0486 -0.1934 0.2795, 0.0486 -0.1934 0.2756, -0.0676 -0.2313 0.2795, -0.0676 -0.2313 0.2756, -0.0668 -0.2221 0.2756, -0.0668 -0.2221 0.2795, -0.0644 -0.2137 0.2756, -0.0644 -0.2137 0.2795, -0.0602 -0.2063 0.2756, -0.0602 -0.2063 0.2795, -0.0544 -0.2002 0.2756, -0.0544 -0.2002 0.2795, -0.048 -0.1961 0.2756, -0.048 -0.1961 0.2795, -0.0404 -0.1935 0.2756, -0.0404 -0.1935 0.2795, -0.0307 -0.1925 0.2756, -0.0307 -0.1925 0.2795, -0.0275 -0.2731 0.2795, -0.0275 -0.2731 0.2756, -0.0358 -0.2724 0.2795, -0.0331 -0.2726 0.2756, -0.0358 -0.2724 0.2756, -0.0445 -0.2698 0.2756, -0.0445 -0.2698 0.2795, -0.0518 -0.2655 0.2756, -0.0518 -0.2655 0.2795, -0.0587 -0.2589 0.2756, -0.0587 -0.2589 0.2795, -0.0634 -0.2515 0.2756, -0.0634 -0.2515 0.2795, -0.0664 -0.2425 0.2756, -0.0664 -0.2425 0.2795, -0.0206 -0.2726 0.2756, -0.0181 -0.2725 0.2795, -0.0181 -0.2725 0.2756, -0.009 -0.27 0.2795, -0.009 -0.27 0.2756, -0.009 -0.2594 0.2795, -0.009 -0.2594 0.2756, -0.0274 -0.2645 0.2795, -0.0274 -0.2645 0.2756, -0.0179 -0.2632 0.2756, -0.0179 -0.2632 0.2795, -0.057 -0.232 0.2795, -0.057 -0.232 0.2756, -0.0567 -0.2379 0.2756, -0.0567 -0.2379 0.2795, -0.0546 -0.2464 0.2756, -0.0546 -0.2464 0.2795, -0.0514 -0.2525 0.2756, -0.0514 -0.2525 0.2795, -0.0466 -0.2578 0.2756, -0.0466 -0.2578 0.2795, -0.0411 -0.2615 0.2756, -0.0411 -0.2615 0.2795, -0.0352 -0.2636 0.2756, -0.0352 -0.2636 0.2795, -0.0292 -0.2011 0.2795, -0.0292 -0.2011 0.2756, -0.0365 -0.2019 0.2756, -0.0365 -0.2019 0.2795, -0.0423 -0.2041 0.2756, -0.0423 -0.2041 0.2795, -0.0471 -0.2073 0.2756, -0.0471 -0.2073 0.2795, -0.0508 -0.2112 0.2756, -0.0508 -0.2112 0.2795, -0.0541 -0.2167 0.2756, -0.0541 -0.2167 0.2795, -0.0562 -0.2234 0.2756, -0.0562 -0.2234 0.2795, -0.009 -0.2062 0.2795, -0.009 -0.2062 0.2756, -0.0104 -0.2054 0.2756, -0.0104 -0.2054 0.2795, -0.0188 -0.2023 0.2756, -0.0188 -0.2023 0.2795, -0.009 -0.1975 0.2795, -0.009 -0.1975 0.2756, -0.0285 -0.1925 0.2756, -0.0285 -0.1925 0.2795, -0.0174 -0.1941 0.2756, -0.0174 -0.1941 0.2795, -0.1146 -0.2722 0.2795, -0.1146 -0.2722 0.2756, -0.1146 -0.1934 0.2795, -0.1146 -0.1934 0.2756, -0.1041 -0.2722 0.2795, -0.1041 -0.2722 0.2756, -0.1041 -0.2021 0.2795, -0.1041 -0.2021 0.2756, -0.0743 -0.2021 0.2795, -0.0743 -0.2021 0.2756, -0.0743 -0.1934 0.2795, -0.0743 -0.1934 0.2756
            ]
        }
        coordIndex [
            0,1,2,-1,2,1,3,-1,4,5,0,-1,0,5,1,-1,6,7,4,-1,4,7,5,-1,8,9,6,-1,6,9,7,-1,10,11,8,-1,8,11,9,-1,12,13,10,-1,10,13,11,-1,14,15,12,-1,12,15,13,-1,14,2,15,-1,15,2,3,-1,16,4,17,-1,17,4,0,-1,18,10,16,-1,16,10,8,-1,16,8,4,-1,4,8,6,-1,18,19,10,-1,10,19,20,-1,10,20,12,-1,12,20,21,-1,12,21,22,-1,22,23,12,-1,12,23,17,-1,12,17,14,-1,14,17,0,-1,14,0,2,-1,21,24,25,-1,21,25,22,-1,22,25,26,-1,22,26,23,-1,20,27,21,-1,21,27,24,-1,18,28,29,-1,18,29,19,-1,19,29,27,-1,19,27,20,-1,16,30,18,-1,18,30,28,-1,17,31,16,-1,16,31,30,-1,26,31,23,-1,23,31,17,-1,32,33,34,-1,34,33,35,-1,36,37,38,-1,36,38,39,-1,39,38,40,-1,39,40,41,-1,41,40,42,-1,41,42,43,-1,43,42,44,-1,43,44,45,-1,45,44,46,-1,45,46,47,-1,47,46,48,-1,47,48,49,-1,49,48,50,-1,49,50,51,-1,51,50,33,-1,51,33,32,-1,52,53,54,-1,52,54,55,-1,55,54,56,-1,55,56,57,-1,57,56,58,-1,57,58,59,-1,59,58,60,-1,59,60,61,-1,61,60,62,-1,61,62,63,-1,63,62,64,-1,63,64,65,-1,65,64,37,-1,65,37,36,-1,66,67,52,-1,52,67,53,-1,66,34,67,-1,67,34,35,-1,65,36,68,-1,68,36,39,-1,68,39,69,-1,69,39,41,-1,69,41,70,-1,70,41,43,-1,70,43,71,-1,71,43,45,-1,71,45,72,-1,72,45,47,-1,72,47,73,-1,73,47,49,-1,73,49,74,-1,74,49,51,-1,74,51,75,-1,75,51,32,-1,75,32,76,-1,76,32,34,-1,76,34,77,-1,77,34,66,-1,77,66,78,-1,78,66,52,-1,78,52,79,-1,79,52,55,-1,79,55,80,-1,80,55,57,-1,80,57,81,-1,81,57,59,-1,81,59,82,-1,82,59,61,-1,82,61,83,-1,83,61,63,-1,83,63,84,-1,84,63,65,-1,84,65,68,-1,78,85,77,-1,77,85,86,-1,68,87,88,-1,68,88,84,-1,84,88,89,-1,84,89,83,-1,83,89,90,-1,83,90,82,-1,82,90,91,-1,82,91,81,-1,81,91,92,-1,81,92,80,-1,80,92,93,-1,80,93,79,-1,79,93,85,-1,79,85,78,-1,75,94,95,-1,75,95,74,-1,74,95,96,-1,74,96,73,-1,73,96,97,-1,73,97,72,-1,72,97,98,-1,72,98,71,-1,71,98,99,-1,71,99,70,-1,70,99,100,-1,70,100,69,-1,69,100,87,-1,69,87,68,-1,76,101,75,-1,75,101,94,-1,86,101,77,-1,77,101,76,-1,102,103,104,-1,104,103,105,-1,106,107,102,-1,102,107,103,-1,108,109,106,-1,106,109,107,-1,110,111,108,-1,108,111,109,-1,112,113,110,-1,110,113,111,-1,114,115,112,-1,112,115,113,-1,116,117,114,-1,114,117,115,-1,118,119,116,-1,116,119,117,-1,120,121,118,-1,118,121,119,-1,122,123,120,-1,120,123,121,-1,124,125,122,-1,122,125,123,-1,124,104,125,-1,125,104,105,-1,104,124,122,-1,122,120,104,-1,104,120,118,-1,104,118,102,-1,108,106,110,-1,110,106,102,-1,110,102,112,-1,112,102,118,-1,112,118,114,-1,114,118,116,-1,126,127,128,-1,126,128,129,-1,129,128,130,-1,129,130,131,-1,131,130,132,-1,131,132,133,-1,133,132,134,-1,133,134,135,-1,135,134,136,-1,135,136,137,-1,137,136,138,-1,137,138,139,-1,139,138,140,-1,139,140,141,-1,142,143,144,-1,144,143,145,-1,145,146,144,-1,144,146,147,-1,144,147,148,-1,148,147,149,-1,148,149,150,-1,150,149,151,-1,150,151,152,-1,152,151,153,-1,152,153,154,-1,154,153,155,-1,154,155,156,-1,156,155,127,-1,156,127,126,-1,143,142,157,-1,157,142,158,-1,157,158,159,-1,159,158,160,-1,159,160,161,-1,162,163,160,-1,160,163,161,-1,164,165,166,-1,164,166,167,-1,167,166,163,-1,167,163,162,-1,168,169,170,-1,168,170,171,-1,171,170,172,-1,171,172,173,-1,173,172,174,-1,173,174,175,-1,175,174,176,-1,175,176,177,-1,177,176,178,-1,177,178,179,-1,179,178,180,-1,179,180,181,-1,181,180,165,-1,181,165,164,-1,182,183,184,-1,182,184,185,-1,185,184,186,-1,185,186,187,-1,187,186,188,-1,187,188,189,-1,189,188,190,-1,189,190,191,-1,191,190,192,-1,191,192,193,-1,193,192,194,-1,193,194,195,-1,195,194,169,-1,195,169,168,-1,196,197,198,-1,196,198,199,-1,199,198,200,-1,199,200,201,-1,201,200,183,-1,201,183,182,-1,202,203,196,-1,196,203,197,-1,141,140,204,-1,141,204,205,-1,205,204,206,-1,205,206,207,-1,207,206,203,-1,207,203,202,-1,185,141,182,-1,182,141,205,-1,182,205,201,-1,201,205,207,-1,201,207,199,-1,199,207,202,-1,199,202,196,-1,162,160,167,-1,167,160,158,-1,167,158,164,-1,164,158,142,-1,164,142,181,-1,181,142,144,-1,181,144,179,-1,179,144,148,-1,179,148,177,-1,177,148,150,-1,177,150,175,-1,175,150,152,-1,175,152,173,-1,173,152,154,-1,173,154,171,-1,171,154,156,-1,171,156,168,-1,168,156,126,-1,168,126,195,-1,195,126,129,-1,195,129,193,-1,193,129,131,-1,193,131,191,-1,191,131,133,-1,191,133,189,-1,189,133,135,-1,189,135,187,-1,187,135,137,-1,187,137,185,-1,185,137,139,-1,185,139,141,-1,208,209,210,-1,210,209,211,-1,212,213,208,-1,208,213,209,-1,214,215,212,-1,212,215,213,-1,216,217,214,-1,214,217,215,-1,218,219,216,-1,216,219,217,-1,218,210,219,-1,219,210,211,-1,212,208,214,-1,214,208,210,-1,214,210,216,-1,216,210,218,-1,
        ]
    }
}
Shape{
    appearance Appearance {
        material  Material 	{
            diffuseColor 0.9411764705882353 0.6078431372549019 0.0
            specularColor 0.2823529411764706 0.1843137254901961 0.0
            ambientIntensity 0.6382
            transparency 0.0
            shininess 0.5
        }
    }
    geometry IndexedFaceSet {
        ccw TRUE
        solid FALSE
        coord DEF co Coordinate {
            point [
                0.1548 -0.2242 0.2756, 0.1811 -0.2242 0.2756, 0.1666 -0.257 0.2756, 0.1693 -0.257 0.2756, 0.1673 -0.2598 0.2756, 0.1686 -0.2598 0.2756, 0.1678 -0.2626 0.2756, 0.1681 -0.2626 0.2756, 0.0745 -0.2635 0.2756, 0.0745 -0.2021 0.2756, 0.0862 -0.2635 0.2756, 0.0857 -0.2021 0.2756, 0.1158 -0.2241 0.2756, 0.1168 -0.2336 0.2756, 0.1161 -0.2414 0.2756, 0.1143 -0.2476 0.2756, 0.0955 -0.2625 0.2756, 0.094 -0.2028 0.2756, 0.1007 -0.2049 0.2756, 0.106 -0.2081 0.2756, 0.1116 -0.2525 0.2756, 0.1078 -0.2565 0.2756, 0.102 -0.2602 0.2756, 0.1104 -0.2125 0.2756, 0.1137 -0.2178 0.2756
            ]
        }
        coordIndex [
            0,1,2,-1,2,1,3,-1,2,3,4,-1,4,3,5,-1,4,5,6,-1,6,5,7,-1,8,9,10,-1,10,9,11,-1,12,13,10,-1,13,14,10,-1,10,14,15,-1,10,15,16,-1,11,17,10,-1,10,17,18,-1,10,18,19,-1,20,21,15,-1,15,21,22,-1,15,22,16,-1,19,23,10,-1,10,23,24,-1,10,24,12,-1,
        ]
    }
}
Shape{
    appearance Appearance {
        material  Material 	{
            diffuseColor 0.7764705882352941 0.7568627450980392 0.7372549019607844
            specularColor 0.38823529411764707 0.3764705882352941 0.3686274509803922
            ambientIntensity 0.7605
            transparency 0.0
            shininess 0.5
        }
    }
    geometry IndexedFaceSet {
        ccw TRUE
        solid FALSE
        coord DEF co Coordinate {
            point [
                0.2953 -0.8633 1.5748, 0.2953 -0.8568 1.6068, 0.2953 -0.6614 1.5748, 0.2953 -0.8292 1.6732, 0.2953 -0.7854 1.7303, 0.2953 -0.7283 1.7741, 0.2953 -0.6619 1.8016, 0.2953 -0.6614 1.8018, -0.2953 -0.8568 1.6068, -0.2953 -0.8633 1.5748, -0.2953 -0.6614 1.5748, -0.2953 -0.6614 1.8018, -0.2953 -0.6619 1.8016, -0.2953 -0.8292 1.6732, -0.2953 -0.7283 1.7741, -0.2953 -0.7854 1.7303
            ]
        }
        coordIndex [
            0,1,2,-1,2,1,3,-1,2,3,4,-1,4,5,2,-1,2,5,6,-1,2,6,7,-1,8,9,10,-1,10,11,12,-1,8,10,13,-1,12,14,10,-1,10,14,15,-1,10,15,13,-1,10,2,11,-1,11,2,7,-1,2,10,0,-1,0,10,9,-1,
        ]
    }
}
Shape{
    appearance Appearance {
        material  Material 	{
            diffuseColor 1.0 1.0 1.0
            specularColor 0.8784313725490196 0.8784313725490196 0.8784313725490196
            ambientIntensity 1.0
            transparency 0.0
            shininess 0.5
        }
    }
    geometry IndexedFaceSet {
        ccw TRUE
        solid FALSE
        coord DEF co Coordinate {
            point [
                -2.3228 -0.1969 -0.5118, -2.3228 -0.1969 -0.0394, -2.5197 -0.1969 -0.5118, -2.5197 -0.1969 -0.0394, -2.5197 0.1969 -0.5118, -2.5197 0.1969 -0.0394, -2.3228 0.1969 -0.5118, -2.3228 0.1969 -0.0394, -2.5197 -0.0787 -0.8268, -2.5197 0.0787 -0.8268, -2.3228 -0.0787 -0.8268, -2.3228 0.0787 -0.8268
            ]
        }
        coordIndex [
            0,1,2,-1,2,1,3,-1,4,5,6,-1,6,5,7,-1,8,9,10,-1,10,9,11,-1,
        ]
    }
}
Shape{
    appearance Appearance {
        material  Material 	{
            diffuseColor 0.7764705882352941 0.7568627450980392 0.7372549019607844
            specularColor 0.38823529411764707 0.3764705882352941 0.3686274509803922
            ambientIntensity 0.7605
            transparency 0.0
            shininess 0.5
        }
    }
    geometry IndexedFaceSet {
        ccw TRUE
        solid FALSE
        coord DEF co Coordinate {
            point [
                -2.5197 -0.1969 -0.5118, -2.5197 -0.0787 -0.8268, -2.3228 -0.1969 -0.5118, -2.3228 -0.0787 -0.8268, -2.3228 0.1969 -0.5118, -2.3228 0.0787 -0.8268, -2.5197 0.1969 -0.5118, -2.5197 0.0787 -0.8268
            ]
        }
        coordIndex [
            0,1,2,-1,2,1,3,-1,4,5,6,-1,6,5,7,-1,
        ]
    }
}
Shape{
    appearance Appearance {
        material  Material 	{
            diffuseColor 1.0 1.0 1.0
            specularColor 0.8784313725490196 0.8784313725490196 0.8784313725490196
            ambientIntensity 1.0
            transparency 0.0
            shininess 0.5
        }
    }
    geometry IndexedFaceSet {
        ccw TRUE
        solid FALSE
        coord DEF co Coordinate {
            point [
                2.3228 0.1969 -0.5118, 2.3228 0.1969 -0.0394, 2.5197 0.1969 -0.5118, 2.5197 0.1969 -0.0394, 2.5197 -0.1969 -0.5118, 2.5197 -0.1969 -0.0394, 2.3228 -0.1969 -0.5118, 2.3228 -0.1969 -0.0394, 2.3228 -0.0787 -0.8268, 2.3228 0.0787 -0.8268, 2.5197 -0.0787 -0.8268, 2.5197 0.0787 -0.8268
            ]
        }
        coordIndex [
            0,1,2,-1,2,1,3,-1,4,5,6,-1,6,5,7,-1,8,9,10,-1,10,9,11,-1,
        ]
    }
}
Shape{
    appearance Appearance {
        material  Material 	{
            diffuseColor 0.7764705882352941 0.7568627450980392 0.7372549019607844
            specularColor 0.38823529411764707 0.3764705882352941 0.3686274509803922
            ambientIntensity 0.7605
            transparency 0.0
            shininess 0.5
        }
    }
    geometry IndexedFaceSet {
        ccw TRUE
        solid FALSE
        coord DEF co Coordinate {
            point [
                2.5197 -0.0787 -0.8268, 2.5197 -0.1969 -0.5118, 2.3228 -0.0787 -0.8268, 2.3228 -0.1969 -0.5118, 2.3228 0.0787 -0.8268, 2.3228 0.1969 -0.5118, 2.5197 0.0787 -0.8268, 2.5197 0.1969 -0.5118
            ]
        }
        coordIndex [
            0,1,2,-1,2,1,3,-1,4,5,6,-1,6,5,7,-1,
        ]
    }
}