<?xml version="1.0" encoding="UTF-8"?>
<svg width="64" height="64" version="1.1" xmlns="http://www.w3.org/2000/svg">
 <path transform="translate(0 22)" d="m45.904 2.4028c-1.1974-1.1959-2.6628-1.7935-4.3966-1.7935-1.7134 0-3.1634 0.59757-4.3502 1.7935-1.2182 1.237-1.8267 2.7006-1.8267 4.3913 0 1.6904 0.60852 3.1441 1.8267 4.36 1.2178 1.2166 2.6677 1.8248 4.3502 1.8248 1.7029 0 3.1788-0.61342 4.4276-1.8399 1.1766-1.1649 1.7651-2.6134 1.7651-4.3449 0-1.7319-0.5987-3.1958-1.7961-4.3913zm-0.77423 7.9322c-1.0219 1.0102-2.2242 1.5149-3.6069 1.5149-1.3831 0-2.5752-0.4998-3.5763-1.4998s-1.5017-2.1853-1.5017-3.556c0-0.57982 0.09154-1.1279 0.27255-1.6447l1.6389 0.72535h-0.11816v0.73497h0.58002c0 0.10381-0.01038 0.20724-0.01038 0.31067v0.17629h-0.56964v0.73497h0.67307c0.09324 0.54887 0.30029 0.99393 0.57982 1.3461 0.57982 0.7663 1.5117 1.1804 2.5264 1.1804 0.66287 0 1.2631-0.19667 1.6153-0.39372l-0.24877-1.1491c-0.21743 0.114-0.70364 0.26915-1.18 0.26915-0.51792 0-1.0043-0.15515-1.3357-0.52811-0.15534-0.17591-0.26915-0.41411-0.34144-0.72478h2.251l3.1985 1.4158c-0.22158 0.39259-0.50281 0.75536-0.84633 1.0876zm-4.0225-3.2383-0.01359-0.01038 0.0234 0.01038h-0.0098zm1.9256-0.48696h0.09249v-0.73497h-1.7531l-0.71213-0.3152c0.06134-0.13778 0.13382-0.26104 0.21837-0.35748 0.32106-0.3941 0.7765-0.55944 1.2737-0.55944 0.45563 0 0.87993 0.13439 1.1491 0.24839l0.28991-1.1804c-0.37296-0.16534-0.92146-0.3103-1.553-0.3103-0.97317 0-1.8016 0.39334-2.3918 1.0558-0.13099 0.15137-0.24461 0.32124-0.34767 0.50093l-2.0339-0.90013c0.19705-0.29558 0.42883-0.57945 0.69723-0.85011 0.97053-0.98978 2.157-1.4847 3.5609-1.4847 1.4035 0 2.5956 0.49489 3.5763 1.4847 0.99053 0.97921 1.4858 2.1747 1.4858 3.5873 0 0.46544-0.05285 0.90447-0.15704 1.3182zm9.649-0.69255c0.24638-1.5562 1.3416-2.3879 2.7148-2.3879 1.9741 0 3.1775 1.4325 3.1775 3.3428 0 1.8642-1.2805 3.3117-3.2086 3.3117-1.3266 0-2.5144-0.8159-2.7303-2.4182h1.5579c0.04656 0.83169 0.58645 1.1246 1.3577 1.1246 0.87889 0 1.4498-0.8164 1.4498-2.0642 0-1.3099-0.49325-2.0026-1.4192-2.0026-0.67856 0-1.2645 0.2466-1.3882 1.0938l0.4529-3e-3 -1.2262 1.2266-1.2262-1.2266zm2.7412-5.3115c-1.7132 0-3.1635 0.59801-4.3499 1.793-1.2179 1.2369-1.8271 2.7008-1.8271 4.391 0 1.6903 0.60922 3.1433 1.8271 4.3597 1.2174 1.2162 2.6677 1.8243 4.3499 1.8243 1.7029 0 3.1786-0.61354 4.4275-1.8396 1.1765-1.165 1.765-2.6131 1.765-4.3445 0-1.7314-0.59834-3.1953-1.7961-4.391-1.1972-1.195-2.6625-1.793-4.3964-1.793zm0.01552 1.1132c1.4037 0 2.5952 0.49451 3.5761 1.4843 0.9907 0.9789 1.486 2.1739 1.486 3.5865 0 1.4222-0.48496 2.6022-1.4555 3.5407-1.0212 1.0097-2.2241 1.5146-3.6066 1.5146-1.383 0-2.575-0.49994-3.5761-1.4996-1.001-0.99987-1.5015-2.1848-1.5015-3.5557 0-1.371 0.50518-2.5665 1.5171-3.5865 0.97-0.9898 2.1568-1.4843 3.5605-1.4843zm-11.601 15.487c-0.04606-0.07452-0.10404-0.13973-0.1734-0.19563-0.06936-0.05589-0.14751-0.09989-0.23499-0.13094-0.08747-0.03158-0.17909-0.04711-0.27433-0.04711-0.17495 0-0.3235 0.03365-0.44565 0.10144-0.12215 0.06728-0.22101 0.15785-0.29658 0.27171-0.07608 0.11386-0.13147 0.24324-0.16615 0.38815-0.03466 0.14491-0.05178 0.295-0.05178 0.44974 0 0.14853 0.01707 0.29292 0.05178 0.43266 0.03466 0.14025 0.09006 0.26653 0.16615 0.37832 0.07557 0.1123 0.17443 0.20184 0.29658 0.26964 0.12215 0.0678 0.2707 0.10144 0.44565 0.10144 0.23706 0 0.42287-0.07245 0.55641-0.21788 0.13354-0.14491 0.21532-0.3364 0.24482-0.57395h0.75207c-0.01966 0.22099-0.07091 0.42076-0.15321 0.59879-0.0823 0.17855-0.19151 0.33019-0.3266 0.45595s-0.29348 0.22151-0.47515 0.28775c-0.18116 0.06624-0.38095 0.09937-0.59834 0.09937-0.2707 0-0.51397-0.04711-0.73033-0.14129-0.21584-0.09368-0.39854-0.22358-0.5471-0.38815-0.14855-0.16509-0.26294-0.35917-0.34213-0.58171-0.07919-0.22306-0.11905-0.46268-0.11905-0.72041 0-0.26394 0.03986-0.50874 0.11905-0.7349 0.07919-0.22616 0.19358-0.42335 0.34213-0.59154 0.14855-0.1682 0.33126-0.30017 0.5471-0.39592 0.21635-0.09574 0.45962-0.14336 0.73033-0.14336 0.19462 0 0.37836 0.02793 0.55124 0.08436 0.1734 0.05589 0.32867 0.13767 0.46532 0.24531 0.13716 0.10713 0.25 0.24013 0.33902 0.3985 0.08903 0.15837 0.14493 0.34002 0.16822 0.54445h-0.75207c-0.01346-0.08902-0.04299-0.17078-0.08902-0.24479zm-5.1614-0.94088 1.4757 2.3693h0.0083v-2.3693h0.72877v3.5317h-0.77691l-1.47-2.3646h-0.0099v2.3646h-0.72877v-3.5317h0.77277zm18.202 0 1.3209 3.5317h-0.80641l-0.26708-0.78666h-1.3209l-0.27743 0.78666h-0.78157l1.3359-3.5317zm0.04453 2.1654-0.44512-1.2949h-0.01035l-0.45963 1.2949h0.9151zm-4.4208 0.49322c0.04299 0.08229 0.09938 0.14905 0.17029 0.20029 0.07091 0.05125 0.15373 0.08902 0.24948 0.11386 0.09524 0.02485 0.19358 0.03725 0.29606 0.03725 0.06884 0 0.14286-0.0057 0.22205-0.0176 0.07868-0.01139 0.15269-0.03365 0.22205-0.06676 0.06884-0.03259 0.12629-0.07815 0.17288-0.13611 0.04555-0.05745 0.06884-0.13094 0.06884-0.21995 0-0.09574-0.03051-0.17286-0.09162-0.23238-0.06055-0.05951-0.14078-0.10868-0.23912-0.14853-0.09886-0.03932-0.21118-0.07401-0.33592-0.10403-0.12526-0.02952-0.25207-0.06262-0.38043-0.09885-0.13198-0.03312-0.26035-0.07349-0.38561-0.12111-0.12474-0.04759-0.23706-0.10972-0.33592-0.1858-0.09834-0.07556-0.17857-0.17027-0.23913-0.28413-0.06107-0.11386-0.09161-0.25152-0.09161-0.413 0-0.18165 0.0388-0.33899 0.11594-0.47251 0.07764-0.13352 0.17909-0.24479 0.30383-0.33433 0.12526-0.08902 0.26708-0.15474 0.42546-0.1977 0.15786-0.04298 0.31625-0.06417 0.47412-0.06417 0.18478 0 0.3618 0.02072 0.53157 0.06211 0.16926 0.04091 0.3204 0.10816 0.45186 0.20029 0.13198 0.09264 0.23654 0.21064 0.31418 0.354 0.07712 0.14387 0.11594 0.31777 0.11594 0.52219h-0.75362c-0.0067-0.10558-0.02848-0.19304-0.06625-0.26187-0.03781-0.06935-0.08799-0.12369-0.15062-0.16354-0.06211-0.03932-0.13354-0.0678-0.21376-0.08384-0.08023-0.01653-0.16822-0.02485-0.26345-0.02485-0.06211 0-0.12474 0.0067-0.18685 0.01966-0.06263 0.01346-0.11905 0.03625-0.16977 0.06935-0.05125 0.03312-0.09265 0.07401-0.12577 0.12369-0.0326 0.04966-0.04918 0.1123-0.04918 0.18786 0 0.06935 0.01293 0.12576 0.03933 0.1682 0.0264 0.04298 0.07816 0.08281 0.1558 0.11903 0.07764 0.03625 0.18426 0.07245 0.32091 0.10868 0.13664 0.03625 0.31573 0.08281 0.53623 0.1387 0.06573 0.01293 0.15736 0.03726 0.27381 0.07194 0.11698 0.03466 0.23344 0.08954 0.34834 0.16561 0.11542 0.07608 0.2148 0.17751 0.29917 0.30431 0.08385 0.1268 0.12578 0.2893 0.12578 0.48752 0 0.16147-0.03157 0.31156-0.0942 0.45026-0.06262 0.1387-0.1558 0.25825-0.2795 0.35865-0.12371 0.10092-0.27691 0.17907-0.46014 0.23496-0.18271 0.05641-0.3944 0.08436-0.63561 0.08436-0.19462 0-0.38302-0.02432-0.56625-0.07194-0.18323-0.04812-0.34472-0.12317-0.48447-0.22564-0.14027-0.10247-0.25155-0.23341-0.33437-0.39178-0.0823-0.15837-0.12215-0.34623-0.11853-0.56411h0.75362c-1.6e-5 0.11852 0.0212 0.21944 0.06417 0.30172zm-25.251-2.6586h0.8706l0.82712 1.3948 0.82246-1.3948h0.86594l-1.3116 2.1762v1.3554h-0.77846v-1.3751zm-1.4368 0c0.16822 0 0.32194 0.015 0.46066 0.04452s0.25776 0.07815 0.35714 0.14594c0.09886 0.06728 0.17546 0.15733 0.23033 0.26912 0.05435 0.1123 0.08178 0.25049 0.08178 0.41558 0 0.17803-0.04039 0.32604-0.12163 0.44456-0.08074 0.11903-0.20083 0.21581-0.35921 0.29189 0.21842 0.06262 0.38147 0.17234 0.48913 0.32915s0.16149 0.34571 0.16149 0.5667c0 0.17803-0.03466 0.33226-0.10404 0.46268-0.06936 0.1299-0.16304 0.23652-0.28054 0.3188-0.11697 0.08281-0.25103 0.14387-0.40114 0.18321-0.15062 0.03985-0.30486 0.05951-0.46376 0.05951h-1.7153v-3.5317h1.6651v5e-6zm-0.09938 1.4284c0.13872 0 0.25258-0.03312 0.34161-0.09885 0.08955-0.06573 0.13406-0.17234 0.13406-0.32035 0-0.08229-0.015-0.15008-0.04452-0.20236-0.03-0.05278-0.06936-0.09368-0.11905-0.12369-0.04966-0.02952-0.10662-0.05019-0.17081-0.06159-0.0647-0.01139-0.13147-0.01707-0.20083-0.01707h-0.72774v0.82392h0.78726zm0.04553 1.4988c0.07608 0 0.14855-0.0073 0.21791-0.02226 0.06936-0.015 0.13043-0.03985 0.18375-0.07401 0.05279-0.03466 0.09472-0.08177 0.12629-0.14129 0.03106-0.059 0.04712-0.13508 0.04712-0.2272 0-0.18114-0.05125-0.31052-0.15373-0.38815-0.10248-0.07711-0.23809-0.11593-0.40631-0.11593h-0.84782v0.96882h0.83281zm1.8323-18.583c-1.7127 0-3.163 0.59776-4.3499 1.7933-1.2179 1.2367-1.8266 2.7005-1.8266 4.3905 0 1.69 0.60869 3.1435 1.8266 4.36 1.2179 1.2157 2.6682 1.8241 4.3499 1.8241 1.7029 0 3.1791-0.61302 4.428-1.8398 1.1765-1.1645 1.7645-2.6125 1.7645-4.3442s-0.59834-3.195-1.7955-4.3905c-1.1972-1.1955-2.6625-1.7933-4.397-1.7933zm0.01606 1.1127c1.4037 0 2.5952 0.49502 3.5755 1.4846 0.99119 0.97892 1.4865 2.1747 1.4865 3.5865 0 1.4222-0.48499 2.6024-1.4555 3.5405-1.0217 1.01-2.2241 1.5148-3.6066 1.5148-1.3835 0-2.5756-0.49968-3.5766-1.4996-1.001-0.99962-1.5015-2.1848-1.5015-3.5557 0-1.371 0.50569-2.5662 1.5171-3.5865 0.9705-0.98952 2.1573-1.4846 3.5611-1.4846zm0.85712 1.9426c0 0.47776-0.38734 0.86506-0.86516 0.86506-0.47781 0-0.86516-0.3873-0.86516-0.86506s0.38735-0.86506 0.86516-0.86506c0.47782 0 0.86516 0.3873 0.86516 0.86506zm0.79917 1.5976c0-0.22073-0.17909-0.39954-0.39958-0.39954h-2.5295c-0.2205 0-0.39958 0.17881-0.39958 0.39954v2.5295h0.70548v2.9952h1.9172v-2.9952h0.706v-2.5295zm-12.213-1.9573c1.6123 1.6124 2.4187 3.5868 2.4187 5.9224 0 2.3359-0.79243 4.2893-2.3773 5.8603-1.6822 1.6543-3.6697 2.4813-5.9637 2.4813-2.266 0-4.2194-0.82004-5.8591-2.4609-1.6408-1.6401-2.4607-3.6002-2.4607-5.8808 0-2.28 0.81988-4.2542 2.4607-5.9224 1.5983-1.6129 3.5517-2.4192 5.8591-2.4192 2.3359 0 4.3095 0.80632 5.9223 2.4192zm-10.696 1.0848c-1.3634 1.3769-2.045 2.9898-2.045 4.8397s0.67496 3.4491 2.0238 4.7978c1.3499 1.3492 2.956 2.0238 4.8198 2.0238 1.8639 0 3.4839-0.68134 4.8612-2.0443 1.3075-1.2659 1.9612-2.8579 1.9612-4.7774 0-1.9048-0.66457-3.5218-1.9933-4.8501-1.3281-1.328-2.9378-1.9922-4.8292-1.9922-1.8913 0-3.4917 0.66763-4.7986 2.0026zm3.5874 4.0262c-0.20806-0.45414-0.51965-0.68135-0.93583-0.68135-0.735 0-1.1025 0.49503-1.1025 1.4846 0 0.98977 0.3675 1.4843 1.1025 1.4843 0.48554 0 0.83231-0.2409 1.0404-0.72379l1.0191 0.54266c-0.48599 0.86299-1.2148 1.2949-2.1863 1.2949-0.74951 0-1.3499-0.22978-1.8007-0.68909-0.45131-0.45956-0.677-1.0933-0.677-1.9006 0-0.79339 0.23291-1.4232 0.69772-1.8898 0.46475-0.46656 1.0445-0.69973 1.7386-0.69973 1.0274 0 1.7624 0.40473 2.2075 1.2134zm4.795 0c-0.20857-0.45414-0.51451-0.68135-0.91719-0.68135-0.74996 0-1.1253 0.49503-1.1253 1.4846 0 0.98977 0.37529 1.4843 1.1253 1.4843 0.48655 0 0.82711-0.2409 1.0212-0.72379l1.0419 0.54266c-0.48497 0.86299-1.2127 1.2949-2.1827 1.2949-0.74844 0-1.3473-0.22978-1.7981-0.68909-0.44979-0.45956-0.67547-1.0933-0.67547-1.9006 0-0.79339 0.22879-1.4232 0.68637-1.8898 0.45701-0.46656 1.0388-0.69973 1.7458-0.69973 1.0253 0 1.7598 0.40473 2.2029 1.2134zm48.064-9.6158h-61.603c-0.66097 0-1.1987 0.53772-1.1987 1.1984v20.931c0 0.14931 0.12112 0.27041 0.2707 0.27041h63.459c0.14959 0 0.2707-0.12111 0.2707-0.27041v-20.931c0-0.66063-0.53778-1.1984-1.1982-1.1984zm-61.603 0.54135h61.603c0.36231 0 0.65683 0.29474 0.65683 0.65702v14.518h-44.03c-1.6139 2.9179-4.7236 4.899-8.2919 4.899-3.5693 0-6.678-1.9793-8.2908-4.899h-2.3043v-14.518c-5.28e-6 -0.36228 0.29502-0.65702 0.65734-0.65702z"/>
</svg>
