<?xml version="1.0" encoding="UTF-8"?>
<svg width="800px" height="800px" version="1.1" viewBox="0 0 24 24" xml:space="preserve" xmlns="http://www.w3.org/2000/svg"><g transform="matrix(-.027314 .027314 .027314 .027314 7.5155 -34.984)"><path d="m975.25 834.76-26.093-26.092c-8.166-8.166-19.022-12.663-30.569-12.663-11.549 0-22.405 4.498-30.571 12.664-16.855 16.855-16.856 44.282 0 61.14l1.594 1.594c1.717 1.718 1.717 4.502 0 6.22l-82.075 82.074c-4.608 4.609-4.608 12.078 0 16.688 2.304 2.303 5.323 3.455 8.343 3.455s6.04-1.152 8.343-3.455l3.724-3.725 20.121 20.119c4.301 4.303 11.272 4.303 15.573 0 4.301-4.299 4.301-11.271 0-15.572l-4.451-4.451c-1.528-1.527-2.387-3.6-2.387-5.762s0.858-4.234 2.387-5.762l0.446-0.445c3.182-3.184 8.341-3.184 11.522 0l4.452 4.449c4.301 4.303 11.273 4.303 15.574 0 4.301-4.299 4.3-11.273 0-15.572l-20.121-20.119 35.234-35.236c1.718-1.718 4.503-1.718 6.221 0l1.592 1.593c8.166 8.165 19.022 12.663 30.569 12.663s22.404-4.498 30.569-12.663c8.167-8.167 12.666-19.024 12.666-30.572-1e-3 -11.548-4.498-22.405-12.663-30.57zm-16.686 44.454c-3.711 3.709-8.641 5.751-13.886 5.751s-10.175-2.042-13.884-5.751l-26.092-26.092c-7.656-7.656-7.656-20.112 0-27.768 3.708-3.709 8.64-5.752 13.885-5.752s10.175 2.042 13.884 5.751l26.093 26.092c3.708 3.709 5.752 8.64 5.752 13.884s-2.044 10.176-5.752 13.885z"/></g><g transform="matrix(0 .024897 -.024897 0 21.469 9.188)">
	<circle cx="182.95" cy="286.68" r="41.494"/>
	<path d="m182.95 176.03c-35.658 0-69.337 17.345-90.09 46.398-5.921 8.288-4.001 19.806 4.286 25.726 3.249 2.321 6.994 3.438 10.704 3.438 5.754 0 11.423-2.686 15.021-7.724 13.846-19.383 36.305-30.954 60.078-30.954 23.775 0 46.233 11.571 60.077 30.953 5.919 8.286 17.437 10.209 25.726 4.288 8.288-5.92 10.208-17.438 4.288-25.726-20.751-29.055-54.43-46.399-90.09-46.399z"/>
	<path d="m182.95 106.87c-50.938 0-99.694 21.749-133.77 59.67-6.807 7.576-6.185 19.236 1.392 26.044 3.523 3.166 7.929 4.725 12.32 4.725 5.051-1e-3 10.082-2.063 13.723-6.116 27.091-30.148 65.849-47.439 106.34-47.439s79.246 17.291 106.34 47.438c6.808 7.576 18.468 8.198 26.043 1.391 7.576-6.808 8.198-18.468 1.391-26.043-34.078-37.922-82.836-59.67-133.77-59.67z"/>
	<path d="m360.61 112.29c-47.209-48.092-110.3-74.577-177.66-74.577-67.357 0-130.45 26.485-177.66 74.579-7.135 7.269-7.027 18.944 0.241 26.079 3.59 3.524 8.255 5.282 12.918 5.281 4.776 0 9.551-1.845 13.161-5.522 40.22-40.971 93.968-63.534 151.34-63.534 57.379 0 111.13 22.563 151.34 63.532 7.136 7.269 18.812 7.376 26.08 0.242 7.268-7.135 7.376-18.811 0.242-26.08z"/>
</g><rect x="2.0328" y="4.9024" width="19.934" height="14.195" ry="1.7674" fill="none" stroke="#000" stroke-width=".9"/><path d="m2.0339 7.8847h19.933" fill="none" stroke="#000" stroke-width="1.8"/></svg>
