%TF.GenerationSoftware,KiCad,Pcbnew,8.0.8*%
%TF.CreationDate,2025-04-01T12:31:35+02:00*%
%TF.ProjectId,reader,72656164-6572-42e6-9b69-6361645f7063,rev?*%
%TF.SameCoordinates,Original*%
%TF.FileFunction,Legend,Top*%
%TF.FilePolarity,Positive*%
%FSLAX46Y46*%
G04 Gerber Fmt 4.6, Leading zero omitted, Abs format (unit mm)*
G04 Created by KiCad (PCBNEW 8.0.8) date 2025-04-01 12:31:35*
%MOMM*%
%LPD*%
G01*
G04 APERTURE LIST*
%ADD10C,0.125000*%
%ADD11C,0.150000*%
%ADD12C,0.120000*%
G04 APERTURE END LIST*
D10*
X154357142Y-67360880D02*
X154309523Y-67408500D01*
X154309523Y-67408500D02*
X154166666Y-67456119D01*
X154166666Y-67456119D02*
X154071428Y-67456119D01*
X154071428Y-67456119D02*
X153928571Y-67408500D01*
X153928571Y-67408500D02*
X153833333Y-67313261D01*
X153833333Y-67313261D02*
X153785714Y-67218023D01*
X153785714Y-67218023D02*
X153738095Y-67027547D01*
X153738095Y-67027547D02*
X153738095Y-66884690D01*
X153738095Y-66884690D02*
X153785714Y-66694214D01*
X153785714Y-66694214D02*
X153833333Y-66598976D01*
X153833333Y-66598976D02*
X153928571Y-66503738D01*
X153928571Y-66503738D02*
X154071428Y-66456119D01*
X154071428Y-66456119D02*
X154166666Y-66456119D01*
X154166666Y-66456119D02*
X154309523Y-66503738D01*
X154309523Y-66503738D02*
X154357142Y-66551357D01*
X155309523Y-67456119D02*
X154738095Y-67456119D01*
X155023809Y-67456119D02*
X155023809Y-66456119D01*
X155023809Y-66456119D02*
X154928571Y-66598976D01*
X154928571Y-66598976D02*
X154833333Y-66694214D01*
X154833333Y-66694214D02*
X154738095Y-66741833D01*
X155785714Y-67456119D02*
X155976190Y-67456119D01*
X155976190Y-67456119D02*
X156071428Y-67408500D01*
X156071428Y-67408500D02*
X156119047Y-67360880D01*
X156119047Y-67360880D02*
X156214285Y-67218023D01*
X156214285Y-67218023D02*
X156261904Y-67027547D01*
X156261904Y-67027547D02*
X156261904Y-66646595D01*
X156261904Y-66646595D02*
X156214285Y-66551357D01*
X156214285Y-66551357D02*
X156166666Y-66503738D01*
X156166666Y-66503738D02*
X156071428Y-66456119D01*
X156071428Y-66456119D02*
X155880952Y-66456119D01*
X155880952Y-66456119D02*
X155785714Y-66503738D01*
X155785714Y-66503738D02*
X155738095Y-66551357D01*
X155738095Y-66551357D02*
X155690476Y-66646595D01*
X155690476Y-66646595D02*
X155690476Y-66884690D01*
X155690476Y-66884690D02*
X155738095Y-66979928D01*
X155738095Y-66979928D02*
X155785714Y-67027547D01*
X155785714Y-67027547D02*
X155880952Y-67075166D01*
X155880952Y-67075166D02*
X156071428Y-67075166D01*
X156071428Y-67075166D02*
X156166666Y-67027547D01*
X156166666Y-67027547D02*
X156214285Y-66979928D01*
X156214285Y-66979928D02*
X156261904Y-66884690D01*
X154357142Y-65860880D02*
X154309523Y-65908500D01*
X154309523Y-65908500D02*
X154166666Y-65956119D01*
X154166666Y-65956119D02*
X154071428Y-65956119D01*
X154071428Y-65956119D02*
X153928571Y-65908500D01*
X153928571Y-65908500D02*
X153833333Y-65813261D01*
X153833333Y-65813261D02*
X153785714Y-65718023D01*
X153785714Y-65718023D02*
X153738095Y-65527547D01*
X153738095Y-65527547D02*
X153738095Y-65384690D01*
X153738095Y-65384690D02*
X153785714Y-65194214D01*
X153785714Y-65194214D02*
X153833333Y-65098976D01*
X153833333Y-65098976D02*
X153928571Y-65003738D01*
X153928571Y-65003738D02*
X154071428Y-64956119D01*
X154071428Y-64956119D02*
X154166666Y-64956119D01*
X154166666Y-64956119D02*
X154309523Y-65003738D01*
X154309523Y-65003738D02*
X154357142Y-65051357D01*
X155309523Y-65956119D02*
X154738095Y-65956119D01*
X155023809Y-65956119D02*
X155023809Y-64956119D01*
X155023809Y-64956119D02*
X154928571Y-65098976D01*
X154928571Y-65098976D02*
X154833333Y-65194214D01*
X154833333Y-65194214D02*
X154738095Y-65241833D01*
X155690476Y-65051357D02*
X155738095Y-65003738D01*
X155738095Y-65003738D02*
X155833333Y-64956119D01*
X155833333Y-64956119D02*
X156071428Y-64956119D01*
X156071428Y-64956119D02*
X156166666Y-65003738D01*
X156166666Y-65003738D02*
X156214285Y-65051357D01*
X156214285Y-65051357D02*
X156261904Y-65146595D01*
X156261904Y-65146595D02*
X156261904Y-65241833D01*
X156261904Y-65241833D02*
X156214285Y-65384690D01*
X156214285Y-65384690D02*
X155642857Y-65956119D01*
X155642857Y-65956119D02*
X156261904Y-65956119D01*
X180456119Y-32166666D02*
X179979928Y-32499999D01*
X180456119Y-32738094D02*
X179456119Y-32738094D01*
X179456119Y-32738094D02*
X179456119Y-32357142D01*
X179456119Y-32357142D02*
X179503738Y-32261904D01*
X179503738Y-32261904D02*
X179551357Y-32214285D01*
X179551357Y-32214285D02*
X179646595Y-32166666D01*
X179646595Y-32166666D02*
X179789452Y-32166666D01*
X179789452Y-32166666D02*
X179884690Y-32214285D01*
X179884690Y-32214285D02*
X179932309Y-32261904D01*
X179932309Y-32261904D02*
X179979928Y-32357142D01*
X179979928Y-32357142D02*
X179979928Y-32738094D01*
X179456119Y-31833332D02*
X179456119Y-31166666D01*
X179456119Y-31166666D02*
X180456119Y-31595237D01*
X146833333Y-61456119D02*
X146500000Y-60979928D01*
X146261905Y-61456119D02*
X146261905Y-60456119D01*
X146261905Y-60456119D02*
X146642857Y-60456119D01*
X146642857Y-60456119D02*
X146738095Y-60503738D01*
X146738095Y-60503738D02*
X146785714Y-60551357D01*
X146785714Y-60551357D02*
X146833333Y-60646595D01*
X146833333Y-60646595D02*
X146833333Y-60789452D01*
X146833333Y-60789452D02*
X146785714Y-60884690D01*
X146785714Y-60884690D02*
X146738095Y-60932309D01*
X146738095Y-60932309D02*
X146642857Y-60979928D01*
X146642857Y-60979928D02*
X146261905Y-60979928D01*
X147404762Y-60884690D02*
X147309524Y-60837071D01*
X147309524Y-60837071D02*
X147261905Y-60789452D01*
X147261905Y-60789452D02*
X147214286Y-60694214D01*
X147214286Y-60694214D02*
X147214286Y-60646595D01*
X147214286Y-60646595D02*
X147261905Y-60551357D01*
X147261905Y-60551357D02*
X147309524Y-60503738D01*
X147309524Y-60503738D02*
X147404762Y-60456119D01*
X147404762Y-60456119D02*
X147595238Y-60456119D01*
X147595238Y-60456119D02*
X147690476Y-60503738D01*
X147690476Y-60503738D02*
X147738095Y-60551357D01*
X147738095Y-60551357D02*
X147785714Y-60646595D01*
X147785714Y-60646595D02*
X147785714Y-60694214D01*
X147785714Y-60694214D02*
X147738095Y-60789452D01*
X147738095Y-60789452D02*
X147690476Y-60837071D01*
X147690476Y-60837071D02*
X147595238Y-60884690D01*
X147595238Y-60884690D02*
X147404762Y-60884690D01*
X147404762Y-60884690D02*
X147309524Y-60932309D01*
X147309524Y-60932309D02*
X147261905Y-60979928D01*
X147261905Y-60979928D02*
X147214286Y-61075166D01*
X147214286Y-61075166D02*
X147214286Y-61265642D01*
X147214286Y-61265642D02*
X147261905Y-61360880D01*
X147261905Y-61360880D02*
X147309524Y-61408500D01*
X147309524Y-61408500D02*
X147404762Y-61456119D01*
X147404762Y-61456119D02*
X147595238Y-61456119D01*
X147595238Y-61456119D02*
X147690476Y-61408500D01*
X147690476Y-61408500D02*
X147738095Y-61360880D01*
X147738095Y-61360880D02*
X147785714Y-61265642D01*
X147785714Y-61265642D02*
X147785714Y-61075166D01*
X147785714Y-61075166D02*
X147738095Y-60979928D01*
X147738095Y-60979928D02*
X147690476Y-60932309D01*
X147690476Y-60932309D02*
X147595238Y-60884690D01*
D11*
X145833333Y-42859580D02*
X145785714Y-42907200D01*
X145785714Y-42907200D02*
X145642857Y-42954819D01*
X145642857Y-42954819D02*
X145547619Y-42954819D01*
X145547619Y-42954819D02*
X145404762Y-42907200D01*
X145404762Y-42907200D02*
X145309524Y-42811961D01*
X145309524Y-42811961D02*
X145261905Y-42716723D01*
X145261905Y-42716723D02*
X145214286Y-42526247D01*
X145214286Y-42526247D02*
X145214286Y-42383390D01*
X145214286Y-42383390D02*
X145261905Y-42192914D01*
X145261905Y-42192914D02*
X145309524Y-42097676D01*
X145309524Y-42097676D02*
X145404762Y-42002438D01*
X145404762Y-42002438D02*
X145547619Y-41954819D01*
X145547619Y-41954819D02*
X145642857Y-41954819D01*
X145642857Y-41954819D02*
X145785714Y-42002438D01*
X145785714Y-42002438D02*
X145833333Y-42050057D01*
X146166667Y-41954819D02*
X146833333Y-41954819D01*
X146833333Y-41954819D02*
X146404762Y-42954819D01*
D10*
X164261905Y-64456119D02*
X164261905Y-63456119D01*
X164261905Y-63456119D02*
X164500000Y-63456119D01*
X164500000Y-63456119D02*
X164642857Y-63503738D01*
X164642857Y-63503738D02*
X164738095Y-63598976D01*
X164738095Y-63598976D02*
X164785714Y-63694214D01*
X164785714Y-63694214D02*
X164833333Y-63884690D01*
X164833333Y-63884690D02*
X164833333Y-64027547D01*
X164833333Y-64027547D02*
X164785714Y-64218023D01*
X164785714Y-64218023D02*
X164738095Y-64313261D01*
X164738095Y-64313261D02*
X164642857Y-64408500D01*
X164642857Y-64408500D02*
X164500000Y-64456119D01*
X164500000Y-64456119D02*
X164261905Y-64456119D01*
X165738095Y-63456119D02*
X165261905Y-63456119D01*
X165261905Y-63456119D02*
X165214286Y-63932309D01*
X165214286Y-63932309D02*
X165261905Y-63884690D01*
X165261905Y-63884690D02*
X165357143Y-63837071D01*
X165357143Y-63837071D02*
X165595238Y-63837071D01*
X165595238Y-63837071D02*
X165690476Y-63884690D01*
X165690476Y-63884690D02*
X165738095Y-63932309D01*
X165738095Y-63932309D02*
X165785714Y-64027547D01*
X165785714Y-64027547D02*
X165785714Y-64265642D01*
X165785714Y-64265642D02*
X165738095Y-64360880D01*
X165738095Y-64360880D02*
X165690476Y-64408500D01*
X165690476Y-64408500D02*
X165595238Y-64456119D01*
X165595238Y-64456119D02*
X165357143Y-64456119D01*
X165357143Y-64456119D02*
X165261905Y-64408500D01*
X165261905Y-64408500D02*
X165214286Y-64360880D01*
D11*
X160833333Y-31359580D02*
X160785714Y-31407200D01*
X160785714Y-31407200D02*
X160642857Y-31454819D01*
X160642857Y-31454819D02*
X160547619Y-31454819D01*
X160547619Y-31454819D02*
X160404762Y-31407200D01*
X160404762Y-31407200D02*
X160309524Y-31311961D01*
X160309524Y-31311961D02*
X160261905Y-31216723D01*
X160261905Y-31216723D02*
X160214286Y-31026247D01*
X160214286Y-31026247D02*
X160214286Y-30883390D01*
X160214286Y-30883390D02*
X160261905Y-30692914D01*
X160261905Y-30692914D02*
X160309524Y-30597676D01*
X160309524Y-30597676D02*
X160404762Y-30502438D01*
X160404762Y-30502438D02*
X160547619Y-30454819D01*
X160547619Y-30454819D02*
X160642857Y-30454819D01*
X160642857Y-30454819D02*
X160785714Y-30502438D01*
X160785714Y-30502438D02*
X160833333Y-30550057D01*
X161309524Y-31454819D02*
X161500000Y-31454819D01*
X161500000Y-31454819D02*
X161595238Y-31407200D01*
X161595238Y-31407200D02*
X161642857Y-31359580D01*
X161642857Y-31359580D02*
X161738095Y-31216723D01*
X161738095Y-31216723D02*
X161785714Y-31026247D01*
X161785714Y-31026247D02*
X161785714Y-30645295D01*
X161785714Y-30645295D02*
X161738095Y-30550057D01*
X161738095Y-30550057D02*
X161690476Y-30502438D01*
X161690476Y-30502438D02*
X161595238Y-30454819D01*
X161595238Y-30454819D02*
X161404762Y-30454819D01*
X161404762Y-30454819D02*
X161309524Y-30502438D01*
X161309524Y-30502438D02*
X161261905Y-30550057D01*
X161261905Y-30550057D02*
X161214286Y-30645295D01*
X161214286Y-30645295D02*
X161214286Y-30883390D01*
X161214286Y-30883390D02*
X161261905Y-30978628D01*
X161261905Y-30978628D02*
X161309524Y-31026247D01*
X161309524Y-31026247D02*
X161404762Y-31073866D01*
X161404762Y-31073866D02*
X161595238Y-31073866D01*
X161595238Y-31073866D02*
X161690476Y-31026247D01*
X161690476Y-31026247D02*
X161738095Y-30978628D01*
X161738095Y-30978628D02*
X161785714Y-30883390D01*
D10*
X181956119Y-33166666D02*
X181479928Y-33499999D01*
X181956119Y-33738094D02*
X180956119Y-33738094D01*
X180956119Y-33738094D02*
X180956119Y-33357142D01*
X180956119Y-33357142D02*
X181003738Y-33261904D01*
X181003738Y-33261904D02*
X181051357Y-33214285D01*
X181051357Y-33214285D02*
X181146595Y-33166666D01*
X181146595Y-33166666D02*
X181289452Y-33166666D01*
X181289452Y-33166666D02*
X181384690Y-33214285D01*
X181384690Y-33214285D02*
X181432309Y-33261904D01*
X181432309Y-33261904D02*
X181479928Y-33357142D01*
X181479928Y-33357142D02*
X181479928Y-33738094D01*
X181051357Y-32785713D02*
X181003738Y-32738094D01*
X181003738Y-32738094D02*
X180956119Y-32642856D01*
X180956119Y-32642856D02*
X180956119Y-32404761D01*
X180956119Y-32404761D02*
X181003738Y-32309523D01*
X181003738Y-32309523D02*
X181051357Y-32261904D01*
X181051357Y-32261904D02*
X181146595Y-32214285D01*
X181146595Y-32214285D02*
X181241833Y-32214285D01*
X181241833Y-32214285D02*
X181384690Y-32261904D01*
X181384690Y-32261904D02*
X181956119Y-32833332D01*
X181956119Y-32833332D02*
X181956119Y-32214285D01*
X170261905Y-54456119D02*
X170261905Y-53456119D01*
X170261905Y-53456119D02*
X170500000Y-53456119D01*
X170500000Y-53456119D02*
X170642857Y-53503738D01*
X170642857Y-53503738D02*
X170738095Y-53598976D01*
X170738095Y-53598976D02*
X170785714Y-53694214D01*
X170785714Y-53694214D02*
X170833333Y-53884690D01*
X170833333Y-53884690D02*
X170833333Y-54027547D01*
X170833333Y-54027547D02*
X170785714Y-54218023D01*
X170785714Y-54218023D02*
X170738095Y-54313261D01*
X170738095Y-54313261D02*
X170642857Y-54408500D01*
X170642857Y-54408500D02*
X170500000Y-54456119D01*
X170500000Y-54456119D02*
X170261905Y-54456119D01*
X171690476Y-53789452D02*
X171690476Y-54456119D01*
X171452381Y-53408500D02*
X171214286Y-54122785D01*
X171214286Y-54122785D02*
X171833333Y-54122785D01*
X146833333Y-64456119D02*
X146500000Y-63979928D01*
X146261905Y-64456119D02*
X146261905Y-63456119D01*
X146261905Y-63456119D02*
X146642857Y-63456119D01*
X146642857Y-63456119D02*
X146738095Y-63503738D01*
X146738095Y-63503738D02*
X146785714Y-63551357D01*
X146785714Y-63551357D02*
X146833333Y-63646595D01*
X146833333Y-63646595D02*
X146833333Y-63789452D01*
X146833333Y-63789452D02*
X146785714Y-63884690D01*
X146785714Y-63884690D02*
X146738095Y-63932309D01*
X146738095Y-63932309D02*
X146642857Y-63979928D01*
X146642857Y-63979928D02*
X146261905Y-63979928D01*
X147309524Y-64456119D02*
X147500000Y-64456119D01*
X147500000Y-64456119D02*
X147595238Y-64408500D01*
X147595238Y-64408500D02*
X147642857Y-64360880D01*
X147642857Y-64360880D02*
X147738095Y-64218023D01*
X147738095Y-64218023D02*
X147785714Y-64027547D01*
X147785714Y-64027547D02*
X147785714Y-63646595D01*
X147785714Y-63646595D02*
X147738095Y-63551357D01*
X147738095Y-63551357D02*
X147690476Y-63503738D01*
X147690476Y-63503738D02*
X147595238Y-63456119D01*
X147595238Y-63456119D02*
X147404762Y-63456119D01*
X147404762Y-63456119D02*
X147309524Y-63503738D01*
X147309524Y-63503738D02*
X147261905Y-63551357D01*
X147261905Y-63551357D02*
X147214286Y-63646595D01*
X147214286Y-63646595D02*
X147214286Y-63884690D01*
X147214286Y-63884690D02*
X147261905Y-63979928D01*
X147261905Y-63979928D02*
X147309524Y-64027547D01*
X147309524Y-64027547D02*
X147404762Y-64075166D01*
X147404762Y-64075166D02*
X147595238Y-64075166D01*
X147595238Y-64075166D02*
X147690476Y-64027547D01*
X147690476Y-64027547D02*
X147738095Y-63979928D01*
X147738095Y-63979928D02*
X147785714Y-63884690D01*
X151132142Y-78790880D02*
X151084523Y-78838500D01*
X151084523Y-78838500D02*
X150941666Y-78886119D01*
X150941666Y-78886119D02*
X150846428Y-78886119D01*
X150846428Y-78886119D02*
X150703571Y-78838500D01*
X150703571Y-78838500D02*
X150608333Y-78743261D01*
X150608333Y-78743261D02*
X150560714Y-78648023D01*
X150560714Y-78648023D02*
X150513095Y-78457547D01*
X150513095Y-78457547D02*
X150513095Y-78314690D01*
X150513095Y-78314690D02*
X150560714Y-78124214D01*
X150560714Y-78124214D02*
X150608333Y-78028976D01*
X150608333Y-78028976D02*
X150703571Y-77933738D01*
X150703571Y-77933738D02*
X150846428Y-77886119D01*
X150846428Y-77886119D02*
X150941666Y-77886119D01*
X150941666Y-77886119D02*
X151084523Y-77933738D01*
X151084523Y-77933738D02*
X151132142Y-77981357D01*
X151513095Y-77981357D02*
X151560714Y-77933738D01*
X151560714Y-77933738D02*
X151655952Y-77886119D01*
X151655952Y-77886119D02*
X151894047Y-77886119D01*
X151894047Y-77886119D02*
X151989285Y-77933738D01*
X151989285Y-77933738D02*
X152036904Y-77981357D01*
X152036904Y-77981357D02*
X152084523Y-78076595D01*
X152084523Y-78076595D02*
X152084523Y-78171833D01*
X152084523Y-78171833D02*
X152036904Y-78314690D01*
X152036904Y-78314690D02*
X151465476Y-78886119D01*
X151465476Y-78886119D02*
X152084523Y-78886119D01*
X152417857Y-77886119D02*
X153036904Y-77886119D01*
X153036904Y-77886119D02*
X152703571Y-78267071D01*
X152703571Y-78267071D02*
X152846428Y-78267071D01*
X152846428Y-78267071D02*
X152941666Y-78314690D01*
X152941666Y-78314690D02*
X152989285Y-78362309D01*
X152989285Y-78362309D02*
X153036904Y-78457547D01*
X153036904Y-78457547D02*
X153036904Y-78695642D01*
X153036904Y-78695642D02*
X152989285Y-78790880D01*
X152989285Y-78790880D02*
X152941666Y-78838500D01*
X152941666Y-78838500D02*
X152846428Y-78886119D01*
X152846428Y-78886119D02*
X152560714Y-78886119D01*
X152560714Y-78886119D02*
X152465476Y-78838500D01*
X152465476Y-78838500D02*
X152417857Y-78790880D01*
X133666667Y-65908500D02*
X133809524Y-65956119D01*
X133809524Y-65956119D02*
X134047619Y-65956119D01*
X134047619Y-65956119D02*
X134142857Y-65908500D01*
X134142857Y-65908500D02*
X134190476Y-65860880D01*
X134190476Y-65860880D02*
X134238095Y-65765642D01*
X134238095Y-65765642D02*
X134238095Y-65670404D01*
X134238095Y-65670404D02*
X134190476Y-65575166D01*
X134190476Y-65575166D02*
X134142857Y-65527547D01*
X134142857Y-65527547D02*
X134047619Y-65479928D01*
X134047619Y-65479928D02*
X133857143Y-65432309D01*
X133857143Y-65432309D02*
X133761905Y-65384690D01*
X133761905Y-65384690D02*
X133714286Y-65337071D01*
X133714286Y-65337071D02*
X133666667Y-65241833D01*
X133666667Y-65241833D02*
X133666667Y-65146595D01*
X133666667Y-65146595D02*
X133714286Y-65051357D01*
X133714286Y-65051357D02*
X133761905Y-65003738D01*
X133761905Y-65003738D02*
X133857143Y-64956119D01*
X133857143Y-64956119D02*
X134095238Y-64956119D01*
X134095238Y-64956119D02*
X134238095Y-65003738D01*
X134571429Y-64956119D02*
X134809524Y-65956119D01*
X134809524Y-65956119D02*
X135000000Y-65241833D01*
X135000000Y-65241833D02*
X135190476Y-65956119D01*
X135190476Y-65956119D02*
X135428572Y-64956119D01*
X135761905Y-65051357D02*
X135809524Y-65003738D01*
X135809524Y-65003738D02*
X135904762Y-64956119D01*
X135904762Y-64956119D02*
X136142857Y-64956119D01*
X136142857Y-64956119D02*
X136238095Y-65003738D01*
X136238095Y-65003738D02*
X136285714Y-65051357D01*
X136285714Y-65051357D02*
X136333333Y-65146595D01*
X136333333Y-65146595D02*
X136333333Y-65241833D01*
X136333333Y-65241833D02*
X136285714Y-65384690D01*
X136285714Y-65384690D02*
X135714286Y-65956119D01*
X135714286Y-65956119D02*
X136333333Y-65956119D01*
X159357142Y-79360880D02*
X159309523Y-79408500D01*
X159309523Y-79408500D02*
X159166666Y-79456119D01*
X159166666Y-79456119D02*
X159071428Y-79456119D01*
X159071428Y-79456119D02*
X158928571Y-79408500D01*
X158928571Y-79408500D02*
X158833333Y-79313261D01*
X158833333Y-79313261D02*
X158785714Y-79218023D01*
X158785714Y-79218023D02*
X158738095Y-79027547D01*
X158738095Y-79027547D02*
X158738095Y-78884690D01*
X158738095Y-78884690D02*
X158785714Y-78694214D01*
X158785714Y-78694214D02*
X158833333Y-78598976D01*
X158833333Y-78598976D02*
X158928571Y-78503738D01*
X158928571Y-78503738D02*
X159071428Y-78456119D01*
X159071428Y-78456119D02*
X159166666Y-78456119D01*
X159166666Y-78456119D02*
X159309523Y-78503738D01*
X159309523Y-78503738D02*
X159357142Y-78551357D01*
X159738095Y-78551357D02*
X159785714Y-78503738D01*
X159785714Y-78503738D02*
X159880952Y-78456119D01*
X159880952Y-78456119D02*
X160119047Y-78456119D01*
X160119047Y-78456119D02*
X160214285Y-78503738D01*
X160214285Y-78503738D02*
X160261904Y-78551357D01*
X160261904Y-78551357D02*
X160309523Y-78646595D01*
X160309523Y-78646595D02*
X160309523Y-78741833D01*
X160309523Y-78741833D02*
X160261904Y-78884690D01*
X160261904Y-78884690D02*
X159690476Y-79456119D01*
X159690476Y-79456119D02*
X160309523Y-79456119D01*
X160928571Y-78456119D02*
X161023809Y-78456119D01*
X161023809Y-78456119D02*
X161119047Y-78503738D01*
X161119047Y-78503738D02*
X161166666Y-78551357D01*
X161166666Y-78551357D02*
X161214285Y-78646595D01*
X161214285Y-78646595D02*
X161261904Y-78837071D01*
X161261904Y-78837071D02*
X161261904Y-79075166D01*
X161261904Y-79075166D02*
X161214285Y-79265642D01*
X161214285Y-79265642D02*
X161166666Y-79360880D01*
X161166666Y-79360880D02*
X161119047Y-79408500D01*
X161119047Y-79408500D02*
X161023809Y-79456119D01*
X161023809Y-79456119D02*
X160928571Y-79456119D01*
X160928571Y-79456119D02*
X160833333Y-79408500D01*
X160833333Y-79408500D02*
X160785714Y-79360880D01*
X160785714Y-79360880D02*
X160738095Y-79265642D01*
X160738095Y-79265642D02*
X160690476Y-79075166D01*
X160690476Y-79075166D02*
X160690476Y-78837071D01*
X160690476Y-78837071D02*
X160738095Y-78646595D01*
X160738095Y-78646595D02*
X160785714Y-78551357D01*
X160785714Y-78551357D02*
X160833333Y-78503738D01*
X160833333Y-78503738D02*
X160928571Y-78456119D01*
X157333333Y-54956119D02*
X156857143Y-54956119D01*
X156857143Y-54956119D02*
X156857143Y-53956119D01*
X158190476Y-54956119D02*
X157619048Y-54956119D01*
X157904762Y-54956119D02*
X157904762Y-53956119D01*
X157904762Y-53956119D02*
X157809524Y-54098976D01*
X157809524Y-54098976D02*
X157714286Y-54194214D01*
X157714286Y-54194214D02*
X157619048Y-54241833D01*
X164357142Y-43956119D02*
X164023809Y-43479928D01*
X163785714Y-43956119D02*
X163785714Y-42956119D01*
X163785714Y-42956119D02*
X164166666Y-42956119D01*
X164166666Y-42956119D02*
X164261904Y-43003738D01*
X164261904Y-43003738D02*
X164309523Y-43051357D01*
X164309523Y-43051357D02*
X164357142Y-43146595D01*
X164357142Y-43146595D02*
X164357142Y-43289452D01*
X164357142Y-43289452D02*
X164309523Y-43384690D01*
X164309523Y-43384690D02*
X164261904Y-43432309D01*
X164261904Y-43432309D02*
X164166666Y-43479928D01*
X164166666Y-43479928D02*
X163785714Y-43479928D01*
X165309523Y-43956119D02*
X164738095Y-43956119D01*
X165023809Y-43956119D02*
X165023809Y-42956119D01*
X165023809Y-42956119D02*
X164928571Y-43098976D01*
X164928571Y-43098976D02*
X164833333Y-43194214D01*
X164833333Y-43194214D02*
X164738095Y-43241833D01*
X166261904Y-43956119D02*
X165690476Y-43956119D01*
X165976190Y-43956119D02*
X165976190Y-42956119D01*
X165976190Y-42956119D02*
X165880952Y-43098976D01*
X165880952Y-43098976D02*
X165785714Y-43194214D01*
X165785714Y-43194214D02*
X165690476Y-43241833D01*
X167357142Y-50956119D02*
X167023809Y-50479928D01*
X166785714Y-50956119D02*
X166785714Y-49956119D01*
X166785714Y-49956119D02*
X167166666Y-49956119D01*
X167166666Y-49956119D02*
X167261904Y-50003738D01*
X167261904Y-50003738D02*
X167309523Y-50051357D01*
X167309523Y-50051357D02*
X167357142Y-50146595D01*
X167357142Y-50146595D02*
X167357142Y-50289452D01*
X167357142Y-50289452D02*
X167309523Y-50384690D01*
X167309523Y-50384690D02*
X167261904Y-50432309D01*
X167261904Y-50432309D02*
X167166666Y-50479928D01*
X167166666Y-50479928D02*
X166785714Y-50479928D01*
X168309523Y-50956119D02*
X167738095Y-50956119D01*
X168023809Y-50956119D02*
X168023809Y-49956119D01*
X168023809Y-49956119D02*
X167928571Y-50098976D01*
X167928571Y-50098976D02*
X167833333Y-50194214D01*
X167833333Y-50194214D02*
X167738095Y-50241833D01*
X168690476Y-50051357D02*
X168738095Y-50003738D01*
X168738095Y-50003738D02*
X168833333Y-49956119D01*
X168833333Y-49956119D02*
X169071428Y-49956119D01*
X169071428Y-49956119D02*
X169166666Y-50003738D01*
X169166666Y-50003738D02*
X169214285Y-50051357D01*
X169214285Y-50051357D02*
X169261904Y-50146595D01*
X169261904Y-50146595D02*
X169261904Y-50241833D01*
X169261904Y-50241833D02*
X169214285Y-50384690D01*
X169214285Y-50384690D02*
X168642857Y-50956119D01*
X168642857Y-50956119D02*
X169261904Y-50956119D01*
D11*
X178666666Y-63954819D02*
X178666666Y-64669104D01*
X178666666Y-64669104D02*
X178619047Y-64811961D01*
X178619047Y-64811961D02*
X178523809Y-64907200D01*
X178523809Y-64907200D02*
X178380952Y-64954819D01*
X178380952Y-64954819D02*
X178285714Y-64954819D01*
X179047619Y-63954819D02*
X179666666Y-63954819D01*
X179666666Y-63954819D02*
X179333333Y-64335771D01*
X179333333Y-64335771D02*
X179476190Y-64335771D01*
X179476190Y-64335771D02*
X179571428Y-64383390D01*
X179571428Y-64383390D02*
X179619047Y-64431009D01*
X179619047Y-64431009D02*
X179666666Y-64526247D01*
X179666666Y-64526247D02*
X179666666Y-64764342D01*
X179666666Y-64764342D02*
X179619047Y-64859580D01*
X179619047Y-64859580D02*
X179571428Y-64907200D01*
X179571428Y-64907200D02*
X179476190Y-64954819D01*
X179476190Y-64954819D02*
X179190476Y-64954819D01*
X179190476Y-64954819D02*
X179095238Y-64907200D01*
X179095238Y-64907200D02*
X179047619Y-64859580D01*
D10*
X142357142Y-55360880D02*
X142309523Y-55408500D01*
X142309523Y-55408500D02*
X142166666Y-55456119D01*
X142166666Y-55456119D02*
X142071428Y-55456119D01*
X142071428Y-55456119D02*
X141928571Y-55408500D01*
X141928571Y-55408500D02*
X141833333Y-55313261D01*
X141833333Y-55313261D02*
X141785714Y-55218023D01*
X141785714Y-55218023D02*
X141738095Y-55027547D01*
X141738095Y-55027547D02*
X141738095Y-54884690D01*
X141738095Y-54884690D02*
X141785714Y-54694214D01*
X141785714Y-54694214D02*
X141833333Y-54598976D01*
X141833333Y-54598976D02*
X141928571Y-54503738D01*
X141928571Y-54503738D02*
X142071428Y-54456119D01*
X142071428Y-54456119D02*
X142166666Y-54456119D01*
X142166666Y-54456119D02*
X142309523Y-54503738D01*
X142309523Y-54503738D02*
X142357142Y-54551357D01*
X143309523Y-55456119D02*
X142738095Y-55456119D01*
X143023809Y-55456119D02*
X143023809Y-54456119D01*
X143023809Y-54456119D02*
X142928571Y-54598976D01*
X142928571Y-54598976D02*
X142833333Y-54694214D01*
X142833333Y-54694214D02*
X142738095Y-54741833D01*
X143642857Y-54456119D02*
X144261904Y-54456119D01*
X144261904Y-54456119D02*
X143928571Y-54837071D01*
X143928571Y-54837071D02*
X144071428Y-54837071D01*
X144071428Y-54837071D02*
X144166666Y-54884690D01*
X144166666Y-54884690D02*
X144214285Y-54932309D01*
X144214285Y-54932309D02*
X144261904Y-55027547D01*
X144261904Y-55027547D02*
X144261904Y-55265642D01*
X144261904Y-55265642D02*
X144214285Y-55360880D01*
X144214285Y-55360880D02*
X144166666Y-55408500D01*
X144166666Y-55408500D02*
X144071428Y-55456119D01*
X144071428Y-55456119D02*
X143785714Y-55456119D01*
X143785714Y-55456119D02*
X143690476Y-55408500D01*
X143690476Y-55408500D02*
X143642857Y-55360880D01*
X142357142Y-58456119D02*
X142023809Y-57979928D01*
X141785714Y-58456119D02*
X141785714Y-57456119D01*
X141785714Y-57456119D02*
X142166666Y-57456119D01*
X142166666Y-57456119D02*
X142261904Y-57503738D01*
X142261904Y-57503738D02*
X142309523Y-57551357D01*
X142309523Y-57551357D02*
X142357142Y-57646595D01*
X142357142Y-57646595D02*
X142357142Y-57789452D01*
X142357142Y-57789452D02*
X142309523Y-57884690D01*
X142309523Y-57884690D02*
X142261904Y-57932309D01*
X142261904Y-57932309D02*
X142166666Y-57979928D01*
X142166666Y-57979928D02*
X141785714Y-57979928D01*
X143309523Y-58456119D02*
X142738095Y-58456119D01*
X143023809Y-58456119D02*
X143023809Y-57456119D01*
X143023809Y-57456119D02*
X142928571Y-57598976D01*
X142928571Y-57598976D02*
X142833333Y-57694214D01*
X142833333Y-57694214D02*
X142738095Y-57741833D01*
X143928571Y-57456119D02*
X144023809Y-57456119D01*
X144023809Y-57456119D02*
X144119047Y-57503738D01*
X144119047Y-57503738D02*
X144166666Y-57551357D01*
X144166666Y-57551357D02*
X144214285Y-57646595D01*
X144214285Y-57646595D02*
X144261904Y-57837071D01*
X144261904Y-57837071D02*
X144261904Y-58075166D01*
X144261904Y-58075166D02*
X144214285Y-58265642D01*
X144214285Y-58265642D02*
X144166666Y-58360880D01*
X144166666Y-58360880D02*
X144119047Y-58408500D01*
X144119047Y-58408500D02*
X144023809Y-58456119D01*
X144023809Y-58456119D02*
X143928571Y-58456119D01*
X143928571Y-58456119D02*
X143833333Y-58408500D01*
X143833333Y-58408500D02*
X143785714Y-58360880D01*
X143785714Y-58360880D02*
X143738095Y-58265642D01*
X143738095Y-58265642D02*
X143690476Y-58075166D01*
X143690476Y-58075166D02*
X143690476Y-57837071D01*
X143690476Y-57837071D02*
X143738095Y-57646595D01*
X143738095Y-57646595D02*
X143785714Y-57551357D01*
X143785714Y-57551357D02*
X143833333Y-57503738D01*
X143833333Y-57503738D02*
X143928571Y-57456119D01*
X146357142Y-52860880D02*
X146309523Y-52908500D01*
X146309523Y-52908500D02*
X146166666Y-52956119D01*
X146166666Y-52956119D02*
X146071428Y-52956119D01*
X146071428Y-52956119D02*
X145928571Y-52908500D01*
X145928571Y-52908500D02*
X145833333Y-52813261D01*
X145833333Y-52813261D02*
X145785714Y-52718023D01*
X145785714Y-52718023D02*
X145738095Y-52527547D01*
X145738095Y-52527547D02*
X145738095Y-52384690D01*
X145738095Y-52384690D02*
X145785714Y-52194214D01*
X145785714Y-52194214D02*
X145833333Y-52098976D01*
X145833333Y-52098976D02*
X145928571Y-52003738D01*
X145928571Y-52003738D02*
X146071428Y-51956119D01*
X146071428Y-51956119D02*
X146166666Y-51956119D01*
X146166666Y-51956119D02*
X146309523Y-52003738D01*
X146309523Y-52003738D02*
X146357142Y-52051357D01*
X147309523Y-52956119D02*
X146738095Y-52956119D01*
X147023809Y-52956119D02*
X147023809Y-51956119D01*
X147023809Y-51956119D02*
X146928571Y-52098976D01*
X146928571Y-52098976D02*
X146833333Y-52194214D01*
X146833333Y-52194214D02*
X146738095Y-52241833D01*
X147928571Y-51956119D02*
X148023809Y-51956119D01*
X148023809Y-51956119D02*
X148119047Y-52003738D01*
X148119047Y-52003738D02*
X148166666Y-52051357D01*
X148166666Y-52051357D02*
X148214285Y-52146595D01*
X148214285Y-52146595D02*
X148261904Y-52337071D01*
X148261904Y-52337071D02*
X148261904Y-52575166D01*
X148261904Y-52575166D02*
X148214285Y-52765642D01*
X148214285Y-52765642D02*
X148166666Y-52860880D01*
X148166666Y-52860880D02*
X148119047Y-52908500D01*
X148119047Y-52908500D02*
X148023809Y-52956119D01*
X148023809Y-52956119D02*
X147928571Y-52956119D01*
X147928571Y-52956119D02*
X147833333Y-52908500D01*
X147833333Y-52908500D02*
X147785714Y-52860880D01*
X147785714Y-52860880D02*
X147738095Y-52765642D01*
X147738095Y-52765642D02*
X147690476Y-52575166D01*
X147690476Y-52575166D02*
X147690476Y-52337071D01*
X147690476Y-52337071D02*
X147738095Y-52146595D01*
X147738095Y-52146595D02*
X147785714Y-52051357D01*
X147785714Y-52051357D02*
X147833333Y-52003738D01*
X147833333Y-52003738D02*
X147928571Y-51956119D01*
X174833333Y-33456119D02*
X174500000Y-32979928D01*
X174261905Y-33456119D02*
X174261905Y-32456119D01*
X174261905Y-32456119D02*
X174642857Y-32456119D01*
X174642857Y-32456119D02*
X174738095Y-32503738D01*
X174738095Y-32503738D02*
X174785714Y-32551357D01*
X174785714Y-32551357D02*
X174833333Y-32646595D01*
X174833333Y-32646595D02*
X174833333Y-32789452D01*
X174833333Y-32789452D02*
X174785714Y-32884690D01*
X174785714Y-32884690D02*
X174738095Y-32932309D01*
X174738095Y-32932309D02*
X174642857Y-32979928D01*
X174642857Y-32979928D02*
X174261905Y-32979928D01*
X175738095Y-32456119D02*
X175261905Y-32456119D01*
X175261905Y-32456119D02*
X175214286Y-32932309D01*
X175214286Y-32932309D02*
X175261905Y-32884690D01*
X175261905Y-32884690D02*
X175357143Y-32837071D01*
X175357143Y-32837071D02*
X175595238Y-32837071D01*
X175595238Y-32837071D02*
X175690476Y-32884690D01*
X175690476Y-32884690D02*
X175738095Y-32932309D01*
X175738095Y-32932309D02*
X175785714Y-33027547D01*
X175785714Y-33027547D02*
X175785714Y-33265642D01*
X175785714Y-33265642D02*
X175738095Y-33360880D01*
X175738095Y-33360880D02*
X175690476Y-33408500D01*
X175690476Y-33408500D02*
X175595238Y-33456119D01*
X175595238Y-33456119D02*
X175357143Y-33456119D01*
X175357143Y-33456119D02*
X175261905Y-33408500D01*
X175261905Y-33408500D02*
X175214286Y-33360880D01*
X140857142Y-70860880D02*
X140809523Y-70908500D01*
X140809523Y-70908500D02*
X140666666Y-70956119D01*
X140666666Y-70956119D02*
X140571428Y-70956119D01*
X140571428Y-70956119D02*
X140428571Y-70908500D01*
X140428571Y-70908500D02*
X140333333Y-70813261D01*
X140333333Y-70813261D02*
X140285714Y-70718023D01*
X140285714Y-70718023D02*
X140238095Y-70527547D01*
X140238095Y-70527547D02*
X140238095Y-70384690D01*
X140238095Y-70384690D02*
X140285714Y-70194214D01*
X140285714Y-70194214D02*
X140333333Y-70098976D01*
X140333333Y-70098976D02*
X140428571Y-70003738D01*
X140428571Y-70003738D02*
X140571428Y-69956119D01*
X140571428Y-69956119D02*
X140666666Y-69956119D01*
X140666666Y-69956119D02*
X140809523Y-70003738D01*
X140809523Y-70003738D02*
X140857142Y-70051357D01*
X141809523Y-70956119D02*
X141238095Y-70956119D01*
X141523809Y-70956119D02*
X141523809Y-69956119D01*
X141523809Y-69956119D02*
X141428571Y-70098976D01*
X141428571Y-70098976D02*
X141333333Y-70194214D01*
X141333333Y-70194214D02*
X141238095Y-70241833D01*
X142666666Y-69956119D02*
X142476190Y-69956119D01*
X142476190Y-69956119D02*
X142380952Y-70003738D01*
X142380952Y-70003738D02*
X142333333Y-70051357D01*
X142333333Y-70051357D02*
X142238095Y-70194214D01*
X142238095Y-70194214D02*
X142190476Y-70384690D01*
X142190476Y-70384690D02*
X142190476Y-70765642D01*
X142190476Y-70765642D02*
X142238095Y-70860880D01*
X142238095Y-70860880D02*
X142285714Y-70908500D01*
X142285714Y-70908500D02*
X142380952Y-70956119D01*
X142380952Y-70956119D02*
X142571428Y-70956119D01*
X142571428Y-70956119D02*
X142666666Y-70908500D01*
X142666666Y-70908500D02*
X142714285Y-70860880D01*
X142714285Y-70860880D02*
X142761904Y-70765642D01*
X142761904Y-70765642D02*
X142761904Y-70527547D01*
X142761904Y-70527547D02*
X142714285Y-70432309D01*
X142714285Y-70432309D02*
X142666666Y-70384690D01*
X142666666Y-70384690D02*
X142571428Y-70337071D01*
X142571428Y-70337071D02*
X142380952Y-70337071D01*
X142380952Y-70337071D02*
X142285714Y-70384690D01*
X142285714Y-70384690D02*
X142238095Y-70432309D01*
X142238095Y-70432309D02*
X142190476Y-70527547D01*
X169333333Y-36456119D02*
X169000000Y-35979928D01*
X168761905Y-36456119D02*
X168761905Y-35456119D01*
X168761905Y-35456119D02*
X169142857Y-35456119D01*
X169142857Y-35456119D02*
X169238095Y-35503738D01*
X169238095Y-35503738D02*
X169285714Y-35551357D01*
X169285714Y-35551357D02*
X169333333Y-35646595D01*
X169333333Y-35646595D02*
X169333333Y-35789452D01*
X169333333Y-35789452D02*
X169285714Y-35884690D01*
X169285714Y-35884690D02*
X169238095Y-35932309D01*
X169238095Y-35932309D02*
X169142857Y-35979928D01*
X169142857Y-35979928D02*
X168761905Y-35979928D01*
X170285714Y-36456119D02*
X169714286Y-36456119D01*
X170000000Y-36456119D02*
X170000000Y-35456119D01*
X170000000Y-35456119D02*
X169904762Y-35598976D01*
X169904762Y-35598976D02*
X169809524Y-35694214D01*
X169809524Y-35694214D02*
X169714286Y-35741833D01*
X143833333Y-42360880D02*
X143785714Y-42408500D01*
X143785714Y-42408500D02*
X143642857Y-42456119D01*
X143642857Y-42456119D02*
X143547619Y-42456119D01*
X143547619Y-42456119D02*
X143404762Y-42408500D01*
X143404762Y-42408500D02*
X143309524Y-42313261D01*
X143309524Y-42313261D02*
X143261905Y-42218023D01*
X143261905Y-42218023D02*
X143214286Y-42027547D01*
X143214286Y-42027547D02*
X143214286Y-41884690D01*
X143214286Y-41884690D02*
X143261905Y-41694214D01*
X143261905Y-41694214D02*
X143309524Y-41598976D01*
X143309524Y-41598976D02*
X143404762Y-41503738D01*
X143404762Y-41503738D02*
X143547619Y-41456119D01*
X143547619Y-41456119D02*
X143642857Y-41456119D01*
X143642857Y-41456119D02*
X143785714Y-41503738D01*
X143785714Y-41503738D02*
X143833333Y-41551357D01*
X144690476Y-41789452D02*
X144690476Y-42456119D01*
X144452381Y-41408500D02*
X144214286Y-42122785D01*
X144214286Y-42122785D02*
X144833333Y-42122785D01*
D11*
X148833333Y-38359580D02*
X148785714Y-38407200D01*
X148785714Y-38407200D02*
X148642857Y-38454819D01*
X148642857Y-38454819D02*
X148547619Y-38454819D01*
X148547619Y-38454819D02*
X148404762Y-38407200D01*
X148404762Y-38407200D02*
X148309524Y-38311961D01*
X148309524Y-38311961D02*
X148261905Y-38216723D01*
X148261905Y-38216723D02*
X148214286Y-38026247D01*
X148214286Y-38026247D02*
X148214286Y-37883390D01*
X148214286Y-37883390D02*
X148261905Y-37692914D01*
X148261905Y-37692914D02*
X148309524Y-37597676D01*
X148309524Y-37597676D02*
X148404762Y-37502438D01*
X148404762Y-37502438D02*
X148547619Y-37454819D01*
X148547619Y-37454819D02*
X148642857Y-37454819D01*
X148642857Y-37454819D02*
X148785714Y-37502438D01*
X148785714Y-37502438D02*
X148833333Y-37550057D01*
X149214286Y-37550057D02*
X149261905Y-37502438D01*
X149261905Y-37502438D02*
X149357143Y-37454819D01*
X149357143Y-37454819D02*
X149595238Y-37454819D01*
X149595238Y-37454819D02*
X149690476Y-37502438D01*
X149690476Y-37502438D02*
X149738095Y-37550057D01*
X149738095Y-37550057D02*
X149785714Y-37645295D01*
X149785714Y-37645295D02*
X149785714Y-37740533D01*
X149785714Y-37740533D02*
X149738095Y-37883390D01*
X149738095Y-37883390D02*
X149166667Y-38454819D01*
X149166667Y-38454819D02*
X149785714Y-38454819D01*
X163357142Y-54359580D02*
X163309523Y-54407200D01*
X163309523Y-54407200D02*
X163166666Y-54454819D01*
X163166666Y-54454819D02*
X163071428Y-54454819D01*
X163071428Y-54454819D02*
X162928571Y-54407200D01*
X162928571Y-54407200D02*
X162833333Y-54311961D01*
X162833333Y-54311961D02*
X162785714Y-54216723D01*
X162785714Y-54216723D02*
X162738095Y-54026247D01*
X162738095Y-54026247D02*
X162738095Y-53883390D01*
X162738095Y-53883390D02*
X162785714Y-53692914D01*
X162785714Y-53692914D02*
X162833333Y-53597676D01*
X162833333Y-53597676D02*
X162928571Y-53502438D01*
X162928571Y-53502438D02*
X163071428Y-53454819D01*
X163071428Y-53454819D02*
X163166666Y-53454819D01*
X163166666Y-53454819D02*
X163309523Y-53502438D01*
X163309523Y-53502438D02*
X163357142Y-53550057D01*
X164309523Y-54454819D02*
X163738095Y-54454819D01*
X164023809Y-54454819D02*
X164023809Y-53454819D01*
X164023809Y-53454819D02*
X163928571Y-53597676D01*
X163928571Y-53597676D02*
X163833333Y-53692914D01*
X163833333Y-53692914D02*
X163738095Y-53740533D01*
X165214285Y-53454819D02*
X164738095Y-53454819D01*
X164738095Y-53454819D02*
X164690476Y-53931009D01*
X164690476Y-53931009D02*
X164738095Y-53883390D01*
X164738095Y-53883390D02*
X164833333Y-53835771D01*
X164833333Y-53835771D02*
X165071428Y-53835771D01*
X165071428Y-53835771D02*
X165166666Y-53883390D01*
X165166666Y-53883390D02*
X165214285Y-53931009D01*
X165214285Y-53931009D02*
X165261904Y-54026247D01*
X165261904Y-54026247D02*
X165261904Y-54264342D01*
X165261904Y-54264342D02*
X165214285Y-54359580D01*
X165214285Y-54359580D02*
X165166666Y-54407200D01*
X165166666Y-54407200D02*
X165071428Y-54454819D01*
X165071428Y-54454819D02*
X164833333Y-54454819D01*
X164833333Y-54454819D02*
X164738095Y-54407200D01*
X164738095Y-54407200D02*
X164690476Y-54359580D01*
D10*
X138761905Y-63456119D02*
X138761905Y-62456119D01*
X138761905Y-62456119D02*
X139000000Y-62456119D01*
X139000000Y-62456119D02*
X139142857Y-62503738D01*
X139142857Y-62503738D02*
X139238095Y-62598976D01*
X139238095Y-62598976D02*
X139285714Y-62694214D01*
X139285714Y-62694214D02*
X139333333Y-62884690D01*
X139333333Y-62884690D02*
X139333333Y-63027547D01*
X139333333Y-63027547D02*
X139285714Y-63218023D01*
X139285714Y-63218023D02*
X139238095Y-63313261D01*
X139238095Y-63313261D02*
X139142857Y-63408500D01*
X139142857Y-63408500D02*
X139000000Y-63456119D01*
X139000000Y-63456119D02*
X138761905Y-63456119D01*
X140190476Y-62456119D02*
X140000000Y-62456119D01*
X140000000Y-62456119D02*
X139904762Y-62503738D01*
X139904762Y-62503738D02*
X139857143Y-62551357D01*
X139857143Y-62551357D02*
X139761905Y-62694214D01*
X139761905Y-62694214D02*
X139714286Y-62884690D01*
X139714286Y-62884690D02*
X139714286Y-63265642D01*
X139714286Y-63265642D02*
X139761905Y-63360880D01*
X139761905Y-63360880D02*
X139809524Y-63408500D01*
X139809524Y-63408500D02*
X139904762Y-63456119D01*
X139904762Y-63456119D02*
X140095238Y-63456119D01*
X140095238Y-63456119D02*
X140190476Y-63408500D01*
X140190476Y-63408500D02*
X140238095Y-63360880D01*
X140238095Y-63360880D02*
X140285714Y-63265642D01*
X140285714Y-63265642D02*
X140285714Y-63027547D01*
X140285714Y-63027547D02*
X140238095Y-62932309D01*
X140238095Y-62932309D02*
X140190476Y-62884690D01*
X140190476Y-62884690D02*
X140095238Y-62837071D01*
X140095238Y-62837071D02*
X139904762Y-62837071D01*
X139904762Y-62837071D02*
X139809524Y-62884690D01*
X139809524Y-62884690D02*
X139761905Y-62932309D01*
X139761905Y-62932309D02*
X139714286Y-63027547D01*
D11*
X146333333Y-40359580D02*
X146285714Y-40407200D01*
X146285714Y-40407200D02*
X146142857Y-40454819D01*
X146142857Y-40454819D02*
X146047619Y-40454819D01*
X146047619Y-40454819D02*
X145904762Y-40407200D01*
X145904762Y-40407200D02*
X145809524Y-40311961D01*
X145809524Y-40311961D02*
X145761905Y-40216723D01*
X145761905Y-40216723D02*
X145714286Y-40026247D01*
X145714286Y-40026247D02*
X145714286Y-39883390D01*
X145714286Y-39883390D02*
X145761905Y-39692914D01*
X145761905Y-39692914D02*
X145809524Y-39597676D01*
X145809524Y-39597676D02*
X145904762Y-39502438D01*
X145904762Y-39502438D02*
X146047619Y-39454819D01*
X146047619Y-39454819D02*
X146142857Y-39454819D01*
X146142857Y-39454819D02*
X146285714Y-39502438D01*
X146285714Y-39502438D02*
X146333333Y-39550057D01*
X147190476Y-39454819D02*
X147000000Y-39454819D01*
X147000000Y-39454819D02*
X146904762Y-39502438D01*
X146904762Y-39502438D02*
X146857143Y-39550057D01*
X146857143Y-39550057D02*
X146761905Y-39692914D01*
X146761905Y-39692914D02*
X146714286Y-39883390D01*
X146714286Y-39883390D02*
X146714286Y-40264342D01*
X146714286Y-40264342D02*
X146761905Y-40359580D01*
X146761905Y-40359580D02*
X146809524Y-40407200D01*
X146809524Y-40407200D02*
X146904762Y-40454819D01*
X146904762Y-40454819D02*
X147095238Y-40454819D01*
X147095238Y-40454819D02*
X147190476Y-40407200D01*
X147190476Y-40407200D02*
X147238095Y-40359580D01*
X147238095Y-40359580D02*
X147285714Y-40264342D01*
X147285714Y-40264342D02*
X147285714Y-40026247D01*
X147285714Y-40026247D02*
X147238095Y-39931009D01*
X147238095Y-39931009D02*
X147190476Y-39883390D01*
X147190476Y-39883390D02*
X147095238Y-39835771D01*
X147095238Y-39835771D02*
X146904762Y-39835771D01*
X146904762Y-39835771D02*
X146809524Y-39883390D01*
X146809524Y-39883390D02*
X146761905Y-39931009D01*
X146761905Y-39931009D02*
X146714286Y-40026247D01*
D10*
X142333333Y-43860880D02*
X142285714Y-43908500D01*
X142285714Y-43908500D02*
X142142857Y-43956119D01*
X142142857Y-43956119D02*
X142047619Y-43956119D01*
X142047619Y-43956119D02*
X141904762Y-43908500D01*
X141904762Y-43908500D02*
X141809524Y-43813261D01*
X141809524Y-43813261D02*
X141761905Y-43718023D01*
X141761905Y-43718023D02*
X141714286Y-43527547D01*
X141714286Y-43527547D02*
X141714286Y-43384690D01*
X141714286Y-43384690D02*
X141761905Y-43194214D01*
X141761905Y-43194214D02*
X141809524Y-43098976D01*
X141809524Y-43098976D02*
X141904762Y-43003738D01*
X141904762Y-43003738D02*
X142047619Y-42956119D01*
X142047619Y-42956119D02*
X142142857Y-42956119D01*
X142142857Y-42956119D02*
X142285714Y-43003738D01*
X142285714Y-43003738D02*
X142333333Y-43051357D01*
X143285714Y-43956119D02*
X142714286Y-43956119D01*
X143000000Y-43956119D02*
X143000000Y-42956119D01*
X143000000Y-42956119D02*
X142904762Y-43098976D01*
X142904762Y-43098976D02*
X142809524Y-43194214D01*
X142809524Y-43194214D02*
X142714286Y-43241833D01*
X153833333Y-55860880D02*
X153785714Y-55908500D01*
X153785714Y-55908500D02*
X153642857Y-55956119D01*
X153642857Y-55956119D02*
X153547619Y-55956119D01*
X153547619Y-55956119D02*
X153404762Y-55908500D01*
X153404762Y-55908500D02*
X153309524Y-55813261D01*
X153309524Y-55813261D02*
X153261905Y-55718023D01*
X153261905Y-55718023D02*
X153214286Y-55527547D01*
X153214286Y-55527547D02*
X153214286Y-55384690D01*
X153214286Y-55384690D02*
X153261905Y-55194214D01*
X153261905Y-55194214D02*
X153309524Y-55098976D01*
X153309524Y-55098976D02*
X153404762Y-55003738D01*
X153404762Y-55003738D02*
X153547619Y-54956119D01*
X153547619Y-54956119D02*
X153642857Y-54956119D01*
X153642857Y-54956119D02*
X153785714Y-55003738D01*
X153785714Y-55003738D02*
X153833333Y-55051357D01*
X154166667Y-54956119D02*
X154785714Y-54956119D01*
X154785714Y-54956119D02*
X154452381Y-55337071D01*
X154452381Y-55337071D02*
X154595238Y-55337071D01*
X154595238Y-55337071D02*
X154690476Y-55384690D01*
X154690476Y-55384690D02*
X154738095Y-55432309D01*
X154738095Y-55432309D02*
X154785714Y-55527547D01*
X154785714Y-55527547D02*
X154785714Y-55765642D01*
X154785714Y-55765642D02*
X154738095Y-55860880D01*
X154738095Y-55860880D02*
X154690476Y-55908500D01*
X154690476Y-55908500D02*
X154595238Y-55956119D01*
X154595238Y-55956119D02*
X154309524Y-55956119D01*
X154309524Y-55956119D02*
X154214286Y-55908500D01*
X154214286Y-55908500D02*
X154166667Y-55860880D01*
D11*
X137523809Y-46868628D02*
X137523809Y-47344819D01*
X137190476Y-46344819D02*
X137523809Y-46868628D01*
X137523809Y-46868628D02*
X137857142Y-46344819D01*
X138714285Y-47344819D02*
X138142857Y-47344819D01*
X138428571Y-47344819D02*
X138428571Y-46344819D01*
X138428571Y-46344819D02*
X138333333Y-46487676D01*
X138333333Y-46487676D02*
X138238095Y-46582914D01*
X138238095Y-46582914D02*
X138142857Y-46630533D01*
D10*
X159357142Y-81360880D02*
X159309523Y-81408500D01*
X159309523Y-81408500D02*
X159166666Y-81456119D01*
X159166666Y-81456119D02*
X159071428Y-81456119D01*
X159071428Y-81456119D02*
X158928571Y-81408500D01*
X158928571Y-81408500D02*
X158833333Y-81313261D01*
X158833333Y-81313261D02*
X158785714Y-81218023D01*
X158785714Y-81218023D02*
X158738095Y-81027547D01*
X158738095Y-81027547D02*
X158738095Y-80884690D01*
X158738095Y-80884690D02*
X158785714Y-80694214D01*
X158785714Y-80694214D02*
X158833333Y-80598976D01*
X158833333Y-80598976D02*
X158928571Y-80503738D01*
X158928571Y-80503738D02*
X159071428Y-80456119D01*
X159071428Y-80456119D02*
X159166666Y-80456119D01*
X159166666Y-80456119D02*
X159309523Y-80503738D01*
X159309523Y-80503738D02*
X159357142Y-80551357D01*
X160309523Y-81456119D02*
X159738095Y-81456119D01*
X160023809Y-81456119D02*
X160023809Y-80456119D01*
X160023809Y-80456119D02*
X159928571Y-80598976D01*
X159928571Y-80598976D02*
X159833333Y-80694214D01*
X159833333Y-80694214D02*
X159738095Y-80741833D01*
X160880952Y-80884690D02*
X160785714Y-80837071D01*
X160785714Y-80837071D02*
X160738095Y-80789452D01*
X160738095Y-80789452D02*
X160690476Y-80694214D01*
X160690476Y-80694214D02*
X160690476Y-80646595D01*
X160690476Y-80646595D02*
X160738095Y-80551357D01*
X160738095Y-80551357D02*
X160785714Y-80503738D01*
X160785714Y-80503738D02*
X160880952Y-80456119D01*
X160880952Y-80456119D02*
X161071428Y-80456119D01*
X161071428Y-80456119D02*
X161166666Y-80503738D01*
X161166666Y-80503738D02*
X161214285Y-80551357D01*
X161214285Y-80551357D02*
X161261904Y-80646595D01*
X161261904Y-80646595D02*
X161261904Y-80694214D01*
X161261904Y-80694214D02*
X161214285Y-80789452D01*
X161214285Y-80789452D02*
X161166666Y-80837071D01*
X161166666Y-80837071D02*
X161071428Y-80884690D01*
X161071428Y-80884690D02*
X160880952Y-80884690D01*
X160880952Y-80884690D02*
X160785714Y-80932309D01*
X160785714Y-80932309D02*
X160738095Y-80979928D01*
X160738095Y-80979928D02*
X160690476Y-81075166D01*
X160690476Y-81075166D02*
X160690476Y-81265642D01*
X160690476Y-81265642D02*
X160738095Y-81360880D01*
X160738095Y-81360880D02*
X160785714Y-81408500D01*
X160785714Y-81408500D02*
X160880952Y-81456119D01*
X160880952Y-81456119D02*
X161071428Y-81456119D01*
X161071428Y-81456119D02*
X161166666Y-81408500D01*
X161166666Y-81408500D02*
X161214285Y-81360880D01*
X161214285Y-81360880D02*
X161261904Y-81265642D01*
X161261904Y-81265642D02*
X161261904Y-81075166D01*
X161261904Y-81075166D02*
X161214285Y-80979928D01*
X161214285Y-80979928D02*
X161166666Y-80932309D01*
X161166666Y-80932309D02*
X161071428Y-80884690D01*
X168857142Y-44456119D02*
X168523809Y-43979928D01*
X168285714Y-44456119D02*
X168285714Y-43456119D01*
X168285714Y-43456119D02*
X168666666Y-43456119D01*
X168666666Y-43456119D02*
X168761904Y-43503738D01*
X168761904Y-43503738D02*
X168809523Y-43551357D01*
X168809523Y-43551357D02*
X168857142Y-43646595D01*
X168857142Y-43646595D02*
X168857142Y-43789452D01*
X168857142Y-43789452D02*
X168809523Y-43884690D01*
X168809523Y-43884690D02*
X168761904Y-43932309D01*
X168761904Y-43932309D02*
X168666666Y-43979928D01*
X168666666Y-43979928D02*
X168285714Y-43979928D01*
X169809523Y-44456119D02*
X169238095Y-44456119D01*
X169523809Y-44456119D02*
X169523809Y-43456119D01*
X169523809Y-43456119D02*
X169428571Y-43598976D01*
X169428571Y-43598976D02*
X169333333Y-43694214D01*
X169333333Y-43694214D02*
X169238095Y-43741833D01*
X170142857Y-43456119D02*
X170761904Y-43456119D01*
X170761904Y-43456119D02*
X170428571Y-43837071D01*
X170428571Y-43837071D02*
X170571428Y-43837071D01*
X170571428Y-43837071D02*
X170666666Y-43884690D01*
X170666666Y-43884690D02*
X170714285Y-43932309D01*
X170714285Y-43932309D02*
X170761904Y-44027547D01*
X170761904Y-44027547D02*
X170761904Y-44265642D01*
X170761904Y-44265642D02*
X170714285Y-44360880D01*
X170714285Y-44360880D02*
X170666666Y-44408500D01*
X170666666Y-44408500D02*
X170571428Y-44456119D01*
X170571428Y-44456119D02*
X170285714Y-44456119D01*
X170285714Y-44456119D02*
X170190476Y-44408500D01*
X170190476Y-44408500D02*
X170142857Y-44360880D01*
D11*
X159833333Y-45359580D02*
X159785714Y-45407200D01*
X159785714Y-45407200D02*
X159642857Y-45454819D01*
X159642857Y-45454819D02*
X159547619Y-45454819D01*
X159547619Y-45454819D02*
X159404762Y-45407200D01*
X159404762Y-45407200D02*
X159309524Y-45311961D01*
X159309524Y-45311961D02*
X159261905Y-45216723D01*
X159261905Y-45216723D02*
X159214286Y-45026247D01*
X159214286Y-45026247D02*
X159214286Y-44883390D01*
X159214286Y-44883390D02*
X159261905Y-44692914D01*
X159261905Y-44692914D02*
X159309524Y-44597676D01*
X159309524Y-44597676D02*
X159404762Y-44502438D01*
X159404762Y-44502438D02*
X159547619Y-44454819D01*
X159547619Y-44454819D02*
X159642857Y-44454819D01*
X159642857Y-44454819D02*
X159785714Y-44502438D01*
X159785714Y-44502438D02*
X159833333Y-44550057D01*
X160738095Y-44454819D02*
X160261905Y-44454819D01*
X160261905Y-44454819D02*
X160214286Y-44931009D01*
X160214286Y-44931009D02*
X160261905Y-44883390D01*
X160261905Y-44883390D02*
X160357143Y-44835771D01*
X160357143Y-44835771D02*
X160595238Y-44835771D01*
X160595238Y-44835771D02*
X160690476Y-44883390D01*
X160690476Y-44883390D02*
X160738095Y-44931009D01*
X160738095Y-44931009D02*
X160785714Y-45026247D01*
X160785714Y-45026247D02*
X160785714Y-45264342D01*
X160785714Y-45264342D02*
X160738095Y-45359580D01*
X160738095Y-45359580D02*
X160690476Y-45407200D01*
X160690476Y-45407200D02*
X160595238Y-45454819D01*
X160595238Y-45454819D02*
X160357143Y-45454819D01*
X160357143Y-45454819D02*
X160261905Y-45407200D01*
X160261905Y-45407200D02*
X160214286Y-45359580D01*
D10*
X150761905Y-55956119D02*
X150761905Y-54956119D01*
X150761905Y-54956119D02*
X151000000Y-54956119D01*
X151000000Y-54956119D02*
X151142857Y-55003738D01*
X151142857Y-55003738D02*
X151238095Y-55098976D01*
X151238095Y-55098976D02*
X151285714Y-55194214D01*
X151285714Y-55194214D02*
X151333333Y-55384690D01*
X151333333Y-55384690D02*
X151333333Y-55527547D01*
X151333333Y-55527547D02*
X151285714Y-55718023D01*
X151285714Y-55718023D02*
X151238095Y-55813261D01*
X151238095Y-55813261D02*
X151142857Y-55908500D01*
X151142857Y-55908500D02*
X151000000Y-55956119D01*
X151000000Y-55956119D02*
X150761905Y-55956119D01*
X151666667Y-54956119D02*
X152285714Y-54956119D01*
X152285714Y-54956119D02*
X151952381Y-55337071D01*
X151952381Y-55337071D02*
X152095238Y-55337071D01*
X152095238Y-55337071D02*
X152190476Y-55384690D01*
X152190476Y-55384690D02*
X152238095Y-55432309D01*
X152238095Y-55432309D02*
X152285714Y-55527547D01*
X152285714Y-55527547D02*
X152285714Y-55765642D01*
X152285714Y-55765642D02*
X152238095Y-55860880D01*
X152238095Y-55860880D02*
X152190476Y-55908500D01*
X152190476Y-55908500D02*
X152095238Y-55956119D01*
X152095238Y-55956119D02*
X151809524Y-55956119D01*
X151809524Y-55956119D02*
X151714286Y-55908500D01*
X151714286Y-55908500D02*
X151666667Y-55860880D01*
X145857142Y-54360880D02*
X145809523Y-54408500D01*
X145809523Y-54408500D02*
X145666666Y-54456119D01*
X145666666Y-54456119D02*
X145571428Y-54456119D01*
X145571428Y-54456119D02*
X145428571Y-54408500D01*
X145428571Y-54408500D02*
X145333333Y-54313261D01*
X145333333Y-54313261D02*
X145285714Y-54218023D01*
X145285714Y-54218023D02*
X145238095Y-54027547D01*
X145238095Y-54027547D02*
X145238095Y-53884690D01*
X145238095Y-53884690D02*
X145285714Y-53694214D01*
X145285714Y-53694214D02*
X145333333Y-53598976D01*
X145333333Y-53598976D02*
X145428571Y-53503738D01*
X145428571Y-53503738D02*
X145571428Y-53456119D01*
X145571428Y-53456119D02*
X145666666Y-53456119D01*
X145666666Y-53456119D02*
X145809523Y-53503738D01*
X145809523Y-53503738D02*
X145857142Y-53551357D01*
X146809523Y-54456119D02*
X146238095Y-54456119D01*
X146523809Y-54456119D02*
X146523809Y-53456119D01*
X146523809Y-53456119D02*
X146428571Y-53598976D01*
X146428571Y-53598976D02*
X146333333Y-53694214D01*
X146333333Y-53694214D02*
X146238095Y-53741833D01*
X147761904Y-54456119D02*
X147190476Y-54456119D01*
X147476190Y-54456119D02*
X147476190Y-53456119D01*
X147476190Y-53456119D02*
X147380952Y-53598976D01*
X147380952Y-53598976D02*
X147285714Y-53694214D01*
X147285714Y-53694214D02*
X147190476Y-53741833D01*
X160761905Y-64456119D02*
X160761905Y-63456119D01*
X160761905Y-63456119D02*
X161000000Y-63456119D01*
X161000000Y-63456119D02*
X161142857Y-63503738D01*
X161142857Y-63503738D02*
X161238095Y-63598976D01*
X161238095Y-63598976D02*
X161285714Y-63694214D01*
X161285714Y-63694214D02*
X161333333Y-63884690D01*
X161333333Y-63884690D02*
X161333333Y-64027547D01*
X161333333Y-64027547D02*
X161285714Y-64218023D01*
X161285714Y-64218023D02*
X161238095Y-64313261D01*
X161238095Y-64313261D02*
X161142857Y-64408500D01*
X161142857Y-64408500D02*
X161000000Y-64456119D01*
X161000000Y-64456119D02*
X160761905Y-64456119D01*
X161714286Y-63551357D02*
X161761905Y-63503738D01*
X161761905Y-63503738D02*
X161857143Y-63456119D01*
X161857143Y-63456119D02*
X162095238Y-63456119D01*
X162095238Y-63456119D02*
X162190476Y-63503738D01*
X162190476Y-63503738D02*
X162238095Y-63551357D01*
X162238095Y-63551357D02*
X162285714Y-63646595D01*
X162285714Y-63646595D02*
X162285714Y-63741833D01*
X162285714Y-63741833D02*
X162238095Y-63884690D01*
X162238095Y-63884690D02*
X161666667Y-64456119D01*
X161666667Y-64456119D02*
X162285714Y-64456119D01*
X133166667Y-76408500D02*
X133309524Y-76456119D01*
X133309524Y-76456119D02*
X133547619Y-76456119D01*
X133547619Y-76456119D02*
X133642857Y-76408500D01*
X133642857Y-76408500D02*
X133690476Y-76360880D01*
X133690476Y-76360880D02*
X133738095Y-76265642D01*
X133738095Y-76265642D02*
X133738095Y-76170404D01*
X133738095Y-76170404D02*
X133690476Y-76075166D01*
X133690476Y-76075166D02*
X133642857Y-76027547D01*
X133642857Y-76027547D02*
X133547619Y-75979928D01*
X133547619Y-75979928D02*
X133357143Y-75932309D01*
X133357143Y-75932309D02*
X133261905Y-75884690D01*
X133261905Y-75884690D02*
X133214286Y-75837071D01*
X133214286Y-75837071D02*
X133166667Y-75741833D01*
X133166667Y-75741833D02*
X133166667Y-75646595D01*
X133166667Y-75646595D02*
X133214286Y-75551357D01*
X133214286Y-75551357D02*
X133261905Y-75503738D01*
X133261905Y-75503738D02*
X133357143Y-75456119D01*
X133357143Y-75456119D02*
X133595238Y-75456119D01*
X133595238Y-75456119D02*
X133738095Y-75503738D01*
X134071429Y-75456119D02*
X134309524Y-76456119D01*
X134309524Y-76456119D02*
X134500000Y-75741833D01*
X134500000Y-75741833D02*
X134690476Y-76456119D01*
X134690476Y-76456119D02*
X134928572Y-75456119D01*
X135833333Y-76456119D02*
X135261905Y-76456119D01*
X135547619Y-76456119D02*
X135547619Y-75456119D01*
X135547619Y-75456119D02*
X135452381Y-75598976D01*
X135452381Y-75598976D02*
X135357143Y-75694214D01*
X135357143Y-75694214D02*
X135261905Y-75741833D01*
D11*
X160357142Y-54359580D02*
X160309523Y-54407200D01*
X160309523Y-54407200D02*
X160166666Y-54454819D01*
X160166666Y-54454819D02*
X160071428Y-54454819D01*
X160071428Y-54454819D02*
X159928571Y-54407200D01*
X159928571Y-54407200D02*
X159833333Y-54311961D01*
X159833333Y-54311961D02*
X159785714Y-54216723D01*
X159785714Y-54216723D02*
X159738095Y-54026247D01*
X159738095Y-54026247D02*
X159738095Y-53883390D01*
X159738095Y-53883390D02*
X159785714Y-53692914D01*
X159785714Y-53692914D02*
X159833333Y-53597676D01*
X159833333Y-53597676D02*
X159928571Y-53502438D01*
X159928571Y-53502438D02*
X160071428Y-53454819D01*
X160071428Y-53454819D02*
X160166666Y-53454819D01*
X160166666Y-53454819D02*
X160309523Y-53502438D01*
X160309523Y-53502438D02*
X160357142Y-53550057D01*
X161309523Y-54454819D02*
X160738095Y-54454819D01*
X161023809Y-54454819D02*
X161023809Y-53454819D01*
X161023809Y-53454819D02*
X160928571Y-53597676D01*
X160928571Y-53597676D02*
X160833333Y-53692914D01*
X160833333Y-53692914D02*
X160738095Y-53740533D01*
X161642857Y-53454819D02*
X162309523Y-53454819D01*
X162309523Y-53454819D02*
X161880952Y-54454819D01*
D10*
X148857142Y-58860880D02*
X148809523Y-58908500D01*
X148809523Y-58908500D02*
X148666666Y-58956119D01*
X148666666Y-58956119D02*
X148571428Y-58956119D01*
X148571428Y-58956119D02*
X148428571Y-58908500D01*
X148428571Y-58908500D02*
X148333333Y-58813261D01*
X148333333Y-58813261D02*
X148285714Y-58718023D01*
X148285714Y-58718023D02*
X148238095Y-58527547D01*
X148238095Y-58527547D02*
X148238095Y-58384690D01*
X148238095Y-58384690D02*
X148285714Y-58194214D01*
X148285714Y-58194214D02*
X148333333Y-58098976D01*
X148333333Y-58098976D02*
X148428571Y-58003738D01*
X148428571Y-58003738D02*
X148571428Y-57956119D01*
X148571428Y-57956119D02*
X148666666Y-57956119D01*
X148666666Y-57956119D02*
X148809523Y-58003738D01*
X148809523Y-58003738D02*
X148857142Y-58051357D01*
X149809523Y-58956119D02*
X149238095Y-58956119D01*
X149523809Y-58956119D02*
X149523809Y-57956119D01*
X149523809Y-57956119D02*
X149428571Y-58098976D01*
X149428571Y-58098976D02*
X149333333Y-58194214D01*
X149333333Y-58194214D02*
X149238095Y-58241833D01*
X150666666Y-58289452D02*
X150666666Y-58956119D01*
X150428571Y-57908500D02*
X150190476Y-58622785D01*
X150190476Y-58622785D02*
X150809523Y-58622785D01*
D11*
X156596666Y-81454819D02*
X156596666Y-82169104D01*
X156596666Y-82169104D02*
X156549047Y-82311961D01*
X156549047Y-82311961D02*
X156453809Y-82407200D01*
X156453809Y-82407200D02*
X156310952Y-82454819D01*
X156310952Y-82454819D02*
X156215714Y-82454819D01*
X157549047Y-81454819D02*
X157072857Y-81454819D01*
X157072857Y-81454819D02*
X157025238Y-81931009D01*
X157025238Y-81931009D02*
X157072857Y-81883390D01*
X157072857Y-81883390D02*
X157168095Y-81835771D01*
X157168095Y-81835771D02*
X157406190Y-81835771D01*
X157406190Y-81835771D02*
X157501428Y-81883390D01*
X157501428Y-81883390D02*
X157549047Y-81931009D01*
X157549047Y-81931009D02*
X157596666Y-82026247D01*
X157596666Y-82026247D02*
X157596666Y-82264342D01*
X157596666Y-82264342D02*
X157549047Y-82359580D01*
X157549047Y-82359580D02*
X157501428Y-82407200D01*
X157501428Y-82407200D02*
X157406190Y-82454819D01*
X157406190Y-82454819D02*
X157168095Y-82454819D01*
X157168095Y-82454819D02*
X157072857Y-82407200D01*
X157072857Y-82407200D02*
X157025238Y-82359580D01*
D10*
X147261905Y-57456119D02*
X147261905Y-56456119D01*
X147261905Y-56456119D02*
X147500000Y-56456119D01*
X147500000Y-56456119D02*
X147642857Y-56503738D01*
X147642857Y-56503738D02*
X147738095Y-56598976D01*
X147738095Y-56598976D02*
X147785714Y-56694214D01*
X147785714Y-56694214D02*
X147833333Y-56884690D01*
X147833333Y-56884690D02*
X147833333Y-57027547D01*
X147833333Y-57027547D02*
X147785714Y-57218023D01*
X147785714Y-57218023D02*
X147738095Y-57313261D01*
X147738095Y-57313261D02*
X147642857Y-57408500D01*
X147642857Y-57408500D02*
X147500000Y-57456119D01*
X147500000Y-57456119D02*
X147261905Y-57456119D01*
X148785714Y-57456119D02*
X148214286Y-57456119D01*
X148500000Y-57456119D02*
X148500000Y-56456119D01*
X148500000Y-56456119D02*
X148404762Y-56598976D01*
X148404762Y-56598976D02*
X148309524Y-56694214D01*
X148309524Y-56694214D02*
X148214286Y-56741833D01*
X162857142Y-79860880D02*
X162809523Y-79908500D01*
X162809523Y-79908500D02*
X162666666Y-79956119D01*
X162666666Y-79956119D02*
X162571428Y-79956119D01*
X162571428Y-79956119D02*
X162428571Y-79908500D01*
X162428571Y-79908500D02*
X162333333Y-79813261D01*
X162333333Y-79813261D02*
X162285714Y-79718023D01*
X162285714Y-79718023D02*
X162238095Y-79527547D01*
X162238095Y-79527547D02*
X162238095Y-79384690D01*
X162238095Y-79384690D02*
X162285714Y-79194214D01*
X162285714Y-79194214D02*
X162333333Y-79098976D01*
X162333333Y-79098976D02*
X162428571Y-79003738D01*
X162428571Y-79003738D02*
X162571428Y-78956119D01*
X162571428Y-78956119D02*
X162666666Y-78956119D01*
X162666666Y-78956119D02*
X162809523Y-79003738D01*
X162809523Y-79003738D02*
X162857142Y-79051357D01*
X163238095Y-79051357D02*
X163285714Y-79003738D01*
X163285714Y-79003738D02*
X163380952Y-78956119D01*
X163380952Y-78956119D02*
X163619047Y-78956119D01*
X163619047Y-78956119D02*
X163714285Y-79003738D01*
X163714285Y-79003738D02*
X163761904Y-79051357D01*
X163761904Y-79051357D02*
X163809523Y-79146595D01*
X163809523Y-79146595D02*
X163809523Y-79241833D01*
X163809523Y-79241833D02*
X163761904Y-79384690D01*
X163761904Y-79384690D02*
X163190476Y-79956119D01*
X163190476Y-79956119D02*
X163809523Y-79956119D01*
X164190476Y-79051357D02*
X164238095Y-79003738D01*
X164238095Y-79003738D02*
X164333333Y-78956119D01*
X164333333Y-78956119D02*
X164571428Y-78956119D01*
X164571428Y-78956119D02*
X164666666Y-79003738D01*
X164666666Y-79003738D02*
X164714285Y-79051357D01*
X164714285Y-79051357D02*
X164761904Y-79146595D01*
X164761904Y-79146595D02*
X164761904Y-79241833D01*
X164761904Y-79241833D02*
X164714285Y-79384690D01*
X164714285Y-79384690D02*
X164142857Y-79956119D01*
X164142857Y-79956119D02*
X164761904Y-79956119D01*
X138666666Y-51432309D02*
X138333333Y-51432309D01*
X138333333Y-51956119D02*
X138333333Y-50956119D01*
X138333333Y-50956119D02*
X138809523Y-50956119D01*
X139523809Y-51432309D02*
X139666666Y-51479928D01*
X139666666Y-51479928D02*
X139714285Y-51527547D01*
X139714285Y-51527547D02*
X139761904Y-51622785D01*
X139761904Y-51622785D02*
X139761904Y-51765642D01*
X139761904Y-51765642D02*
X139714285Y-51860880D01*
X139714285Y-51860880D02*
X139666666Y-51908500D01*
X139666666Y-51908500D02*
X139571428Y-51956119D01*
X139571428Y-51956119D02*
X139190476Y-51956119D01*
X139190476Y-51956119D02*
X139190476Y-50956119D01*
X139190476Y-50956119D02*
X139523809Y-50956119D01*
X139523809Y-50956119D02*
X139619047Y-51003738D01*
X139619047Y-51003738D02*
X139666666Y-51051357D01*
X139666666Y-51051357D02*
X139714285Y-51146595D01*
X139714285Y-51146595D02*
X139714285Y-51241833D01*
X139714285Y-51241833D02*
X139666666Y-51337071D01*
X139666666Y-51337071D02*
X139619047Y-51384690D01*
X139619047Y-51384690D02*
X139523809Y-51432309D01*
X139523809Y-51432309D02*
X139190476Y-51432309D01*
X140714285Y-51956119D02*
X140142857Y-51956119D01*
X140428571Y-51956119D02*
X140428571Y-50956119D01*
X140428571Y-50956119D02*
X140333333Y-51098976D01*
X140333333Y-51098976D02*
X140238095Y-51194214D01*
X140238095Y-51194214D02*
X140142857Y-51241833D01*
X158333333Y-34456119D02*
X158000000Y-33979928D01*
X157761905Y-34456119D02*
X157761905Y-33456119D01*
X157761905Y-33456119D02*
X158142857Y-33456119D01*
X158142857Y-33456119D02*
X158238095Y-33503738D01*
X158238095Y-33503738D02*
X158285714Y-33551357D01*
X158285714Y-33551357D02*
X158333333Y-33646595D01*
X158333333Y-33646595D02*
X158333333Y-33789452D01*
X158333333Y-33789452D02*
X158285714Y-33884690D01*
X158285714Y-33884690D02*
X158238095Y-33932309D01*
X158238095Y-33932309D02*
X158142857Y-33979928D01*
X158142857Y-33979928D02*
X157761905Y-33979928D01*
X158666667Y-33456119D02*
X159285714Y-33456119D01*
X159285714Y-33456119D02*
X158952381Y-33837071D01*
X158952381Y-33837071D02*
X159095238Y-33837071D01*
X159095238Y-33837071D02*
X159190476Y-33884690D01*
X159190476Y-33884690D02*
X159238095Y-33932309D01*
X159238095Y-33932309D02*
X159285714Y-34027547D01*
X159285714Y-34027547D02*
X159285714Y-34265642D01*
X159285714Y-34265642D02*
X159238095Y-34360880D01*
X159238095Y-34360880D02*
X159190476Y-34408500D01*
X159190476Y-34408500D02*
X159095238Y-34456119D01*
X159095238Y-34456119D02*
X158809524Y-34456119D01*
X158809524Y-34456119D02*
X158714286Y-34408500D01*
X158714286Y-34408500D02*
X158666667Y-34360880D01*
X153738095Y-71456119D02*
X153738095Y-72265642D01*
X153738095Y-72265642D02*
X153785714Y-72360880D01*
X153785714Y-72360880D02*
X153833333Y-72408500D01*
X153833333Y-72408500D02*
X153928571Y-72456119D01*
X153928571Y-72456119D02*
X154119047Y-72456119D01*
X154119047Y-72456119D02*
X154214285Y-72408500D01*
X154214285Y-72408500D02*
X154261904Y-72360880D01*
X154261904Y-72360880D02*
X154309523Y-72265642D01*
X154309523Y-72265642D02*
X154309523Y-71456119D01*
X155214285Y-71789452D02*
X155214285Y-72456119D01*
X154976190Y-71408500D02*
X154738095Y-72122785D01*
X154738095Y-72122785D02*
X155357142Y-72122785D01*
X150238095Y-59456119D02*
X150238095Y-60265642D01*
X150238095Y-60265642D02*
X150285714Y-60360880D01*
X150285714Y-60360880D02*
X150333333Y-60408500D01*
X150333333Y-60408500D02*
X150428571Y-60456119D01*
X150428571Y-60456119D02*
X150619047Y-60456119D01*
X150619047Y-60456119D02*
X150714285Y-60408500D01*
X150714285Y-60408500D02*
X150761904Y-60360880D01*
X150761904Y-60360880D02*
X150809523Y-60265642D01*
X150809523Y-60265642D02*
X150809523Y-59456119D01*
X151190476Y-59456119D02*
X151809523Y-59456119D01*
X151809523Y-59456119D02*
X151476190Y-59837071D01*
X151476190Y-59837071D02*
X151619047Y-59837071D01*
X151619047Y-59837071D02*
X151714285Y-59884690D01*
X151714285Y-59884690D02*
X151761904Y-59932309D01*
X151761904Y-59932309D02*
X151809523Y-60027547D01*
X151809523Y-60027547D02*
X151809523Y-60265642D01*
X151809523Y-60265642D02*
X151761904Y-60360880D01*
X151761904Y-60360880D02*
X151714285Y-60408500D01*
X151714285Y-60408500D02*
X151619047Y-60456119D01*
X151619047Y-60456119D02*
X151333333Y-60456119D01*
X151333333Y-60456119D02*
X151238095Y-60408500D01*
X151238095Y-60408500D02*
X151190476Y-60360880D01*
D11*
X152238095Y-39454819D02*
X152238095Y-40264342D01*
X152238095Y-40264342D02*
X152285714Y-40359580D01*
X152285714Y-40359580D02*
X152333333Y-40407200D01*
X152333333Y-40407200D02*
X152428571Y-40454819D01*
X152428571Y-40454819D02*
X152619047Y-40454819D01*
X152619047Y-40454819D02*
X152714285Y-40407200D01*
X152714285Y-40407200D02*
X152761904Y-40359580D01*
X152761904Y-40359580D02*
X152809523Y-40264342D01*
X152809523Y-40264342D02*
X152809523Y-39454819D01*
X153238095Y-39550057D02*
X153285714Y-39502438D01*
X153285714Y-39502438D02*
X153380952Y-39454819D01*
X153380952Y-39454819D02*
X153619047Y-39454819D01*
X153619047Y-39454819D02*
X153714285Y-39502438D01*
X153714285Y-39502438D02*
X153761904Y-39550057D01*
X153761904Y-39550057D02*
X153809523Y-39645295D01*
X153809523Y-39645295D02*
X153809523Y-39740533D01*
X153809523Y-39740533D02*
X153761904Y-39883390D01*
X153761904Y-39883390D02*
X153190476Y-40454819D01*
X153190476Y-40454819D02*
X153809523Y-40454819D01*
X169738095Y-41454819D02*
X169738095Y-42264342D01*
X169738095Y-42264342D02*
X169785714Y-42359580D01*
X169785714Y-42359580D02*
X169833333Y-42407200D01*
X169833333Y-42407200D02*
X169928571Y-42454819D01*
X169928571Y-42454819D02*
X170119047Y-42454819D01*
X170119047Y-42454819D02*
X170214285Y-42407200D01*
X170214285Y-42407200D02*
X170261904Y-42359580D01*
X170261904Y-42359580D02*
X170309523Y-42264342D01*
X170309523Y-42264342D02*
X170309523Y-41454819D01*
X171309523Y-42454819D02*
X170738095Y-42454819D01*
X171023809Y-42454819D02*
X171023809Y-41454819D01*
X171023809Y-41454819D02*
X170928571Y-41597676D01*
X170928571Y-41597676D02*
X170833333Y-41692914D01*
X170833333Y-41692914D02*
X170738095Y-41740533D01*
D10*
X154357142Y-77360880D02*
X154309523Y-77408500D01*
X154309523Y-77408500D02*
X154166666Y-77456119D01*
X154166666Y-77456119D02*
X154071428Y-77456119D01*
X154071428Y-77456119D02*
X153928571Y-77408500D01*
X153928571Y-77408500D02*
X153833333Y-77313261D01*
X153833333Y-77313261D02*
X153785714Y-77218023D01*
X153785714Y-77218023D02*
X153738095Y-77027547D01*
X153738095Y-77027547D02*
X153738095Y-76884690D01*
X153738095Y-76884690D02*
X153785714Y-76694214D01*
X153785714Y-76694214D02*
X153833333Y-76598976D01*
X153833333Y-76598976D02*
X153928571Y-76503738D01*
X153928571Y-76503738D02*
X154071428Y-76456119D01*
X154071428Y-76456119D02*
X154166666Y-76456119D01*
X154166666Y-76456119D02*
X154309523Y-76503738D01*
X154309523Y-76503738D02*
X154357142Y-76551357D01*
X154738095Y-76551357D02*
X154785714Y-76503738D01*
X154785714Y-76503738D02*
X154880952Y-76456119D01*
X154880952Y-76456119D02*
X155119047Y-76456119D01*
X155119047Y-76456119D02*
X155214285Y-76503738D01*
X155214285Y-76503738D02*
X155261904Y-76551357D01*
X155261904Y-76551357D02*
X155309523Y-76646595D01*
X155309523Y-76646595D02*
X155309523Y-76741833D01*
X155309523Y-76741833D02*
X155261904Y-76884690D01*
X155261904Y-76884690D02*
X154690476Y-77456119D01*
X154690476Y-77456119D02*
X155309523Y-77456119D01*
X156261904Y-77456119D02*
X155690476Y-77456119D01*
X155976190Y-77456119D02*
X155976190Y-76456119D01*
X155976190Y-76456119D02*
X155880952Y-76598976D01*
X155880952Y-76598976D02*
X155785714Y-76694214D01*
X155785714Y-76694214D02*
X155690476Y-76741833D01*
X168333333Y-33456119D02*
X168000000Y-32979928D01*
X167761905Y-33456119D02*
X167761905Y-32456119D01*
X167761905Y-32456119D02*
X168142857Y-32456119D01*
X168142857Y-32456119D02*
X168238095Y-32503738D01*
X168238095Y-32503738D02*
X168285714Y-32551357D01*
X168285714Y-32551357D02*
X168333333Y-32646595D01*
X168333333Y-32646595D02*
X168333333Y-32789452D01*
X168333333Y-32789452D02*
X168285714Y-32884690D01*
X168285714Y-32884690D02*
X168238095Y-32932309D01*
X168238095Y-32932309D02*
X168142857Y-32979928D01*
X168142857Y-32979928D02*
X167761905Y-32979928D01*
X169190476Y-32789452D02*
X169190476Y-33456119D01*
X168952381Y-32408500D02*
X168714286Y-33122785D01*
X168714286Y-33122785D02*
X169333333Y-33122785D01*
X163833333Y-35360880D02*
X163785714Y-35408500D01*
X163785714Y-35408500D02*
X163642857Y-35456119D01*
X163642857Y-35456119D02*
X163547619Y-35456119D01*
X163547619Y-35456119D02*
X163404762Y-35408500D01*
X163404762Y-35408500D02*
X163309524Y-35313261D01*
X163309524Y-35313261D02*
X163261905Y-35218023D01*
X163261905Y-35218023D02*
X163214286Y-35027547D01*
X163214286Y-35027547D02*
X163214286Y-34884690D01*
X163214286Y-34884690D02*
X163261905Y-34694214D01*
X163261905Y-34694214D02*
X163309524Y-34598976D01*
X163309524Y-34598976D02*
X163404762Y-34503738D01*
X163404762Y-34503738D02*
X163547619Y-34456119D01*
X163547619Y-34456119D02*
X163642857Y-34456119D01*
X163642857Y-34456119D02*
X163785714Y-34503738D01*
X163785714Y-34503738D02*
X163833333Y-34551357D01*
X164404762Y-34884690D02*
X164309524Y-34837071D01*
X164309524Y-34837071D02*
X164261905Y-34789452D01*
X164261905Y-34789452D02*
X164214286Y-34694214D01*
X164214286Y-34694214D02*
X164214286Y-34646595D01*
X164214286Y-34646595D02*
X164261905Y-34551357D01*
X164261905Y-34551357D02*
X164309524Y-34503738D01*
X164309524Y-34503738D02*
X164404762Y-34456119D01*
X164404762Y-34456119D02*
X164595238Y-34456119D01*
X164595238Y-34456119D02*
X164690476Y-34503738D01*
X164690476Y-34503738D02*
X164738095Y-34551357D01*
X164738095Y-34551357D02*
X164785714Y-34646595D01*
X164785714Y-34646595D02*
X164785714Y-34694214D01*
X164785714Y-34694214D02*
X164738095Y-34789452D01*
X164738095Y-34789452D02*
X164690476Y-34837071D01*
X164690476Y-34837071D02*
X164595238Y-34884690D01*
X164595238Y-34884690D02*
X164404762Y-34884690D01*
X164404762Y-34884690D02*
X164309524Y-34932309D01*
X164309524Y-34932309D02*
X164261905Y-34979928D01*
X164261905Y-34979928D02*
X164214286Y-35075166D01*
X164214286Y-35075166D02*
X164214286Y-35265642D01*
X164214286Y-35265642D02*
X164261905Y-35360880D01*
X164261905Y-35360880D02*
X164309524Y-35408500D01*
X164309524Y-35408500D02*
X164404762Y-35456119D01*
X164404762Y-35456119D02*
X164595238Y-35456119D01*
X164595238Y-35456119D02*
X164690476Y-35408500D01*
X164690476Y-35408500D02*
X164738095Y-35360880D01*
X164738095Y-35360880D02*
X164785714Y-35265642D01*
X164785714Y-35265642D02*
X164785714Y-35075166D01*
X164785714Y-35075166D02*
X164738095Y-34979928D01*
X164738095Y-34979928D02*
X164690476Y-34932309D01*
X164690476Y-34932309D02*
X164595238Y-34884690D01*
D11*
X169906666Y-63954819D02*
X169906666Y-64669104D01*
X169906666Y-64669104D02*
X169859047Y-64811961D01*
X169859047Y-64811961D02*
X169763809Y-64907200D01*
X169763809Y-64907200D02*
X169620952Y-64954819D01*
X169620952Y-64954819D02*
X169525714Y-64954819D01*
X170811428Y-63954819D02*
X170620952Y-63954819D01*
X170620952Y-63954819D02*
X170525714Y-64002438D01*
X170525714Y-64002438D02*
X170478095Y-64050057D01*
X170478095Y-64050057D02*
X170382857Y-64192914D01*
X170382857Y-64192914D02*
X170335238Y-64383390D01*
X170335238Y-64383390D02*
X170335238Y-64764342D01*
X170335238Y-64764342D02*
X170382857Y-64859580D01*
X170382857Y-64859580D02*
X170430476Y-64907200D01*
X170430476Y-64907200D02*
X170525714Y-64954819D01*
X170525714Y-64954819D02*
X170716190Y-64954819D01*
X170716190Y-64954819D02*
X170811428Y-64907200D01*
X170811428Y-64907200D02*
X170859047Y-64859580D01*
X170859047Y-64859580D02*
X170906666Y-64764342D01*
X170906666Y-64764342D02*
X170906666Y-64526247D01*
X170906666Y-64526247D02*
X170859047Y-64431009D01*
X170859047Y-64431009D02*
X170811428Y-64383390D01*
X170811428Y-64383390D02*
X170716190Y-64335771D01*
X170716190Y-64335771D02*
X170525714Y-64335771D01*
X170525714Y-64335771D02*
X170430476Y-64383390D01*
X170430476Y-64383390D02*
X170382857Y-64431009D01*
X170382857Y-64431009D02*
X170335238Y-64526247D01*
D12*
%TO.C,C19*%
X157412164Y-66640000D02*
X157627836Y-66640000D01*
X157412164Y-67360000D02*
X157627836Y-67360000D01*
%TO.C,D8*%
X175740000Y-29900000D02*
X175740000Y-30510000D01*
X175740000Y-30510000D02*
X177550000Y-30510000D01*
X179395000Y-30510000D02*
X180950000Y-30510000D01*
%TO.C,C12*%
X156859420Y-63490000D02*
X157140580Y-63490000D01*
X156859420Y-64510000D02*
X157140580Y-64510000D01*
%TO.C,R7*%
X178120000Y-32153641D02*
X178120000Y-31846359D01*
X178880000Y-32153641D02*
X178880000Y-31846359D01*
%TO.C,R8*%
X148265000Y-60772936D02*
X148265000Y-61227064D01*
X149735000Y-60772936D02*
X149735000Y-61227064D01*
%TO.C,C7*%
X145640000Y-44477836D02*
X145640000Y-44262164D01*
X146360000Y-44477836D02*
X146360000Y-44262164D01*
%TO.C,D5*%
X164390000Y-65150000D02*
X164390000Y-66850000D01*
X164390000Y-65150000D02*
X167050000Y-65150000D01*
X164390000Y-66850000D02*
X167050000Y-66850000D01*
%TO.C,J4*%
X173985000Y-51460000D02*
X173985000Y-52260000D01*
X173985000Y-52260000D02*
X174135000Y-52260000D01*
X178065000Y-43920000D02*
X176655000Y-43920000D01*
X178065000Y-53080000D02*
X176655000Y-53080000D01*
%TO.C,C9*%
X162265000Y-31261252D02*
X162265000Y-30738748D01*
X163735000Y-31261252D02*
X163735000Y-30738748D01*
%TO.C,R2*%
X175375000Y-34630000D02*
X175375000Y-39370000D01*
X175375000Y-34630000D02*
X175990000Y-34630000D01*
X175375000Y-39370000D02*
X176940000Y-39370000D01*
X177710000Y-34630000D02*
X178290000Y-34630000D01*
X179060000Y-39370000D02*
X180625000Y-39370000D01*
X180010000Y-34630000D02*
X180625000Y-34630000D01*
X180625000Y-34630000D02*
X180625000Y-39370000D01*
%TO.C,D4*%
X169890000Y-51150000D02*
X169890000Y-52850000D01*
X169890000Y-51150000D02*
X172550000Y-51150000D01*
X169890000Y-52850000D02*
X172550000Y-52850000D01*
%TO.C,R9*%
X148265000Y-65227064D02*
X148265000Y-64772936D01*
X149735000Y-65227064D02*
X149735000Y-64772936D01*
%TO.C,C23*%
X151915580Y-76490000D02*
X151634420Y-76490000D01*
X151915580Y-77510000D02*
X151634420Y-77510000D01*
%TO.C,SW2*%
X133600000Y-57150000D02*
X133600000Y-62850000D01*
X134610000Y-63450000D02*
X135400000Y-63450000D01*
X135400000Y-56550000D02*
X134610000Y-56550000D01*
X136450000Y-58400000D02*
X136450000Y-60100000D01*
X136450000Y-61400000D02*
X136450000Y-61600000D01*
%TO.C,C20*%
X160412164Y-76640000D02*
X160627836Y-76640000D01*
X160412164Y-77360000D02*
X160627836Y-77360000D01*
%TO.C,L1*%
X155275000Y-58475000D02*
X155275000Y-55525000D01*
X158725000Y-58475000D02*
X158725000Y-55525000D01*
%TO.C,R11*%
X165620000Y-45846359D02*
X165620000Y-46153641D01*
X166380000Y-45846359D02*
X166380000Y-46153641D01*
%TO.C,R12*%
X170620000Y-50153641D02*
X170620000Y-49846359D01*
X171380000Y-50153641D02*
X171380000Y-49846359D01*
%TO.C,J3*%
X176185000Y-56560000D02*
X176185000Y-56495000D01*
X176185000Y-62965000D02*
X176185000Y-62900000D01*
X179715000Y-56495000D02*
X176185000Y-56495000D01*
X179715000Y-56560000D02*
X179715000Y-56495000D01*
X179715000Y-62965000D02*
X176185000Y-62965000D01*
X179715000Y-62965000D02*
X179715000Y-62900000D01*
X181040000Y-62900000D02*
X179715000Y-62900000D01*
%TO.C,C13*%
X143640000Y-52262164D02*
X143640000Y-52477836D01*
X144360000Y-52262164D02*
X144360000Y-52477836D01*
%TO.C,R10*%
X140153641Y-57620000D02*
X139846359Y-57620000D01*
X140153641Y-58380000D02*
X139846359Y-58380000D01*
%TO.C,C10*%
X145640000Y-49477836D02*
X145640000Y-49262164D01*
X146360000Y-49477836D02*
X146360000Y-49262164D01*
%TO.C,R5*%
X172120000Y-32143641D02*
X172120000Y-31836359D01*
X172880000Y-32143641D02*
X172880000Y-31836359D01*
%TO.C,C16*%
X139140000Y-70392164D02*
X139140000Y-70607836D01*
X139860000Y-70392164D02*
X139860000Y-70607836D01*
%TO.C,R1*%
X172272936Y-34265000D02*
X172727064Y-34265000D01*
X172272936Y-35735000D02*
X172727064Y-35735000D01*
%TO.C,C4*%
X143640000Y-47997836D02*
X143640000Y-47782164D01*
X144360000Y-47997836D02*
X144360000Y-47782164D01*
%TO.C,C2*%
X149084420Y-39380000D02*
X149365580Y-39380000D01*
X149084420Y-40400000D02*
X149365580Y-40400000D01*
%TO.C,C15*%
X163000000Y-56584420D02*
X163000000Y-56865580D01*
X164020000Y-56584420D02*
X164020000Y-56865580D01*
%TO.C,D6*%
X139440000Y-60150000D02*
X139440000Y-61850000D01*
X139440000Y-60150000D02*
X142100000Y-60150000D01*
X139440000Y-61850000D02*
X142100000Y-61850000D01*
%TO.C,C6*%
X148892164Y-41530000D02*
X149107836Y-41530000D01*
X148892164Y-42250000D02*
X149107836Y-42250000D01*
%TO.C,C1*%
X143640000Y-45997836D02*
X143640000Y-45782164D01*
X144360000Y-45997836D02*
X144360000Y-45782164D01*
%TO.C,R6*%
X176120000Y-32163641D02*
X176120000Y-31856359D01*
X176880000Y-32163641D02*
X176880000Y-31856359D01*
%TO.C,C3*%
X155107836Y-53530000D02*
X154892164Y-53530000D01*
X155107836Y-54250000D02*
X154892164Y-54250000D01*
%TO.C,Y1*%
X139350000Y-44890000D02*
X139350000Y-48890000D01*
X142650000Y-44890000D02*
X139350000Y-44890000D01*
%TO.C,C18*%
X157412164Y-79640000D02*
X157627836Y-79640000D01*
X157412164Y-80360000D02*
X157627836Y-80360000D01*
%TO.C,R13*%
X171120000Y-45836359D02*
X171120000Y-46143641D01*
X171880000Y-45836359D02*
X171880000Y-46143641D01*
%TO.C,C5*%
X157640000Y-44782164D02*
X157640000Y-44997836D01*
X158360000Y-44782164D02*
X158360000Y-44997836D01*
%TO.C,D3*%
X151390000Y-56650000D02*
X151390000Y-58350000D01*
X151390000Y-56650000D02*
X154050000Y-56650000D01*
X151390000Y-58350000D02*
X154050000Y-58350000D01*
%TO.C,C11*%
X143640000Y-50302164D02*
X143640000Y-50517836D01*
X144360000Y-50302164D02*
X144360000Y-50517836D01*
%TO.C,D2*%
X155490000Y-59350000D02*
X155490000Y-62650000D01*
X155490000Y-59350000D02*
X161000000Y-59350000D01*
X155490000Y-62650000D02*
X161000000Y-62650000D01*
%TO.C,SW1*%
X133600000Y-67650000D02*
X133600000Y-73350000D01*
X134610000Y-73950000D02*
X135400000Y-73950000D01*
X135400000Y-67050000D02*
X134610000Y-67050000D01*
X136450000Y-68900000D02*
X136450000Y-70600000D01*
X136450000Y-71900000D02*
X136450000Y-72100000D01*
%TO.C,C17*%
X160490000Y-56584420D02*
X160490000Y-56865580D01*
X161510000Y-56584420D02*
X161510000Y-56865580D01*
%TO.C,C14*%
X152892164Y-59640000D02*
X153107836Y-59640000D01*
X152892164Y-60360000D02*
X153107836Y-60360000D01*
%TO.C,J5*%
X135050000Y-80670000D02*
X135050000Y-83330000D01*
X152890000Y-80670000D02*
X135050000Y-80670000D01*
X152890000Y-80670000D02*
X152890000Y-83330000D01*
X152890000Y-83330000D02*
X135050000Y-83330000D01*
X155490000Y-82000000D02*
X155490000Y-83330000D01*
X155490000Y-83330000D02*
X154160000Y-83330000D01*
%TO.C,D1*%
X145150000Y-59610000D02*
X145150000Y-56950000D01*
X145150000Y-59610000D02*
X146850000Y-59610000D01*
X146850000Y-59610000D02*
X146850000Y-56950000D01*
%TO.C,C22*%
X163412164Y-76640000D02*
X163627836Y-76640000D01*
X163412164Y-77360000D02*
X163627836Y-77360000D01*
%TO.C,FB1*%
X141490000Y-50939721D02*
X141490000Y-51265279D01*
X142510000Y-50939721D02*
X142510000Y-51265279D01*
%TO.C,R3*%
X161153641Y-33620000D02*
X160846359Y-33620000D01*
X161153641Y-34380000D02*
X160846359Y-34380000D01*
%TO.C,U4*%
X155940000Y-72000000D02*
X155940000Y-70050000D01*
X155940000Y-72000000D02*
X155940000Y-73950000D01*
X166060000Y-72000000D02*
X166060000Y-70050000D01*
X166060000Y-72000000D02*
X166060000Y-73950000D01*
X155995000Y-74700000D02*
X155665000Y-74940000D01*
X155665000Y-74460000D01*
X155995000Y-74700000D01*
G36*
X155995000Y-74700000D02*
G01*
X155665000Y-74940000D01*
X155665000Y-74460000D01*
X155995000Y-74700000D01*
G37*
%TO.C,U3*%
X153000000Y-61440000D02*
X152200000Y-61440000D01*
X153000000Y-61440000D02*
X153800000Y-61440000D01*
X153000000Y-64560000D02*
X152200000Y-64560000D01*
X153000000Y-64560000D02*
X153800000Y-64560000D01*
X151700000Y-61490000D02*
X151460000Y-61160000D01*
X151940000Y-61160000D01*
X151700000Y-61490000D01*
G36*
X151700000Y-61490000D02*
G01*
X151460000Y-61160000D01*
X151940000Y-61160000D01*
X151700000Y-61490000D01*
G37*
%TO.C,U2*%
X148390000Y-44280000D02*
X148390000Y-44730000D01*
X148390000Y-51500000D02*
X148390000Y-51050000D01*
X148840000Y-44280000D02*
X148390000Y-44280000D01*
X148840000Y-51500000D02*
X148390000Y-51500000D01*
X155160000Y-44280000D02*
X155610000Y-44280000D01*
X155160000Y-51500000D02*
X155610000Y-51500000D01*
X155610000Y-44280000D02*
X155610000Y-44730000D01*
X155610000Y-51500000D02*
X155610000Y-51050000D01*
X147800000Y-44730000D02*
X147460000Y-44260000D01*
X148140000Y-44260000D01*
X147800000Y-44730000D01*
G36*
X147800000Y-44730000D02*
G01*
X147460000Y-44260000D01*
X148140000Y-44260000D01*
X147800000Y-44730000D01*
G37*
%TO.C,U1*%
X170950000Y-37365000D02*
X169450000Y-37365000D01*
X170950000Y-37365000D02*
X172450000Y-37365000D01*
X170950000Y-40585000D02*
X169450000Y-40585000D01*
X170950000Y-40585000D02*
X172450000Y-40585000D01*
X173377500Y-40740000D02*
X172897500Y-40740000D01*
X173137500Y-40410000D01*
X173377500Y-40740000D01*
G36*
X173377500Y-40740000D02*
G01*
X172897500Y-40740000D01*
X173137500Y-40410000D01*
X173377500Y-40740000D01*
G37*
%TO.C,C21*%
X157640000Y-77412164D02*
X157640000Y-77627836D01*
X158360000Y-77412164D02*
X158360000Y-77627836D01*
%TO.C,R4*%
X170120000Y-32153641D02*
X170120000Y-31846359D01*
X170880000Y-32153641D02*
X170880000Y-31846359D01*
%TO.C,C8*%
X162107836Y-35640000D02*
X161892164Y-35640000D01*
X162107836Y-36360000D02*
X161892164Y-36360000D01*
%TO.C,D7*%
X169740000Y-29900000D02*
X169740000Y-30510000D01*
X169740000Y-30510000D02*
X171550000Y-30510000D01*
X173395000Y-30510000D02*
X174950000Y-30510000D01*
%TO.C,J6*%
X168060000Y-67880000D02*
X168060000Y-66350000D01*
X168370000Y-65770000D02*
X181790000Y-65770000D01*
X168370000Y-74900000D02*
X168370000Y-65770000D01*
X168370000Y-77560000D02*
X168370000Y-77100000D01*
X181790000Y-65770000D02*
X181790000Y-74900000D01*
X181790000Y-77560000D02*
X181790000Y-77100000D01*
%TD*%
M02*
