M48
; DRILL file {KiCad 8.0.8} date 2025-04-01T12:33:05+0200
; FORMAT={-:-/ absolute / metric / decimal}
; #@! TF.CreationDate,2025-04-01T12:33:05+02:00
; #@! TF.GenerationSoftware,Kicad,Pcbnew,8.0.8
; #@! TF.FileFunction,MixedPlating,1,2
FMAT,2
METRIC
; #@! TA.AperFunction,Plated,PTH,ComponentDrill
T1C0.200
; #@! TA.AperFunction,Plated,PTH,ViaDrill
T2C0.300
; #@! TA.AperFunction,Plated,PTH,ComponentDrill
T3C0.760
; #@! TA.AperFunction,Plated,PTH,ComponentDrill
T4C1.000
; #@! TA.AperFunction,NonPlated,NPTH,ComponentDrill
T5C0.650
; #@! TA.AperFunction,NonPlated,NPTH,ComponentDrill
T6C0.900
; #@! TA.AperFunction,NonPlated,NPTH,ComponentDrill
T7C3.250
%
G90
G05
T1
X170.4Y-38.325
X170.4Y-39.625
X171.5Y-38.325
X171.5Y-39.625
T2
X138.9Y-68.0
X139.0Y-57.0
X139.0Y-72.5
X140.0Y-49.5
X141.4Y-59.5
X141.5Y-62.5
X143.0Y-53.5
X143.023Y-47.455
X144.0Y-44.0
X145.0Y-52.0
X146.0Y-46.5
X148.962Y-79.038
X149.05Y-50.386
X149.5Y-77.0
X149.65Y-48.5
X150.5Y-42.5
X152.975Y-63.0
X153.457Y-50.856
X153.964Y-42.092
X153.997Y-50.266
X157.5Y-78.0
X158.5Y-64.0
X159.0Y-46.04
X159.0Y-67.127
X160.5Y-33.0
X161.0Y-58.5
X161.5Y-43.81
X161.5Y-49.74
X161.5Y-59.5
X162.5Y-43.81
X162.5Y-49.74
X162.5Y-58.5
X163.0Y-67.127
X163.0Y-78.0
X165.356Y-58.644
X165.851Y-35.649
X166.416Y-36.215
X166.699Y-34.801
X167.5Y-32.0
X167.5Y-34.4
X169.206Y-52.294
X169.5Y-47.0
X169.5Y-49.141
X170.502Y-66.998
X170.872Y-33.628
X171.5Y-44.48
X172.0Y-50.5
X173.0Y-54.0
X173.674Y-32.826
X174.5Y-31.0
X174.5Y-38.0
X174.5Y-39.5
X177.5Y-65.0
X178.0Y-55.5
X178.5Y-33.5
X180.0Y-41.0
X180.5Y-31.0
T3
X171.9Y-67.11
X173.17Y-69.65
X174.44Y-67.11
X175.71Y-69.65
X176.98Y-67.11
X178.25Y-69.65
T4
X136.38Y-82.0
X138.92Y-82.0
X141.46Y-82.0
X144.0Y-82.0
X146.54Y-82.0
X149.08Y-82.0
X151.62Y-82.0
X154.16Y-82.0
T5
X175.895Y-45.61
X175.895Y-51.39
T6
X135.0Y-58.5
X135.0Y-61.5
X135.0Y-69.0
X135.0Y-72.0
T7
X170.0Y-76.0
X180.16Y-76.0
M30
